<svg width="339" height="51" viewBox="0 0 339 51" fill="none" xmlns="http://www.w3.org/2000/svg">
<path d="M2.89828e-06 17.602C1.82 18.3993 3.54467 18.798 5.174 18.798C6.71667 18.798 7.904 18.46 8.736 17.784C9.58534 17.0907 10.01 16.1027 10.01 14.82C10.01 13.8493 9.73267 13.0693 9.178 12.48C8.62334 11.8907 7.696 11.3967 6.396 10.998L4.55 10.426C3.12867 9.99267 2.08867 9.42933 1.43 8.736C0.771336 8.02533 0.442003 7.124 0.442003 6.032C0.442003 4.55867 0.99667 3.38 2.106 2.496C3.23267 1.59467 4.732 1.144 6.604 1.144C8.112 1.144 9.568 1.46467 10.972 2.106V3.406C9.48134 2.782 8.04267 2.47 6.656 2.47C5.23467 2.47 4.12534 2.782 3.328 3.406C2.53067 4.01267 2.132 4.87067 2.132 5.98C2.132 6.76 2.35734 7.37533 2.808 7.826C3.25867 8.27667 4.04734 8.684 5.174 9.048L7.02 9.646C8.684 10.1833 9.88 10.8593 10.608 11.674C11.336 12.4713 11.7 13.5113 11.7 14.794C11.7 16.4407 11.1193 17.7407 9.958 18.694C8.814 19.6473 7.24534 20.124 5.252 20.124C3.41467 20.124 1.75067 19.7513 0.260003 19.006L2.89828e-06 17.602ZM15.0302 19.734V0.208L16.5902 -4.76837e-07V7.462C18.0462 6.66467 19.4762 6.266 20.8802 6.266C22.2842 6.266 23.3676 6.63 24.1302 7.358C24.9102 8.086 25.3002 9.11733 25.3002 10.452V19.734H23.7402V10.712C23.7402 8.58 22.6569 7.514 20.4902 7.514C19.9182 7.514 19.2856 7.60933 18.5922 7.8C17.9162 7.99067 17.2489 8.25067 16.5902 8.58V19.734H15.0302ZM34.3395 20.124C32.4502 20.124 31.0202 19.5433 30.0495 18.382C29.0962 17.2033 28.6195 15.47 28.6195 13.182C28.6195 10.9113 29.0962 9.19533 30.0495 8.034C31.0202 6.85533 32.4502 6.266 34.3395 6.266C36.2288 6.266 37.6502 6.85533 38.6035 8.034C39.5742 9.19533 40.0595 10.9113 40.0595 13.182C40.0595 15.47 39.5742 17.2033 38.6035 18.382C37.6502 19.5433 36.2288 20.124 34.3395 20.124ZM34.3395 18.876C35.7608 18.876 36.7922 18.4253 37.4335 17.524C38.0922 16.6053 38.4215 15.158 38.4215 13.182C38.4215 11.2233 38.0922 9.79333 37.4335 8.892C36.7922 7.97333 35.7608 7.514 34.3395 7.514C32.9182 7.514 31.8782 7.97333 31.2195 8.892C30.5782 9.79333 30.2575 11.2233 30.2575 13.182C30.2575 15.158 30.5782 16.6053 31.2195 17.524C31.8782 18.4253 32.9182 18.876 34.3395 18.876ZM48.4313 20.124C46.542 20.124 45.112 19.5433 44.1413 18.382C43.188 17.2033 42.7113 15.47 42.7113 13.182C42.7113 10.9113 43.188 9.19533 44.1413 8.034C45.112 6.85533 46.542 6.266 48.4313 6.266C50.3206 6.266 51.742 6.85533 52.6953 8.034C53.666 9.19533 54.1513 10.9113 54.1513 13.182C54.1513 15.47 53.666 17.2033 52.6953 18.382C51.742 19.5433 50.3206 20.124 48.4313 20.124ZM48.4313 18.876C49.8526 18.876 50.884 18.4253 51.5253 17.524C52.184 16.6053 52.5133 15.158 52.5133 13.182C52.5133 11.2233 52.184 9.79333 51.5253 8.892C50.884 7.97333 49.8526 7.514 48.4313 7.514C47.01 7.514 45.97 7.97333 45.3113 8.892C44.67 9.79333 44.3493 11.2233 44.3493 13.182C44.3493 15.158 44.67 16.6053 45.3113 17.524C45.97 18.4253 47.01 18.876 48.4313 18.876ZM59.5851 7.852V16.172C59.5851 17.0733 59.7758 17.7407 60.1571 18.174C60.5384 18.59 61.1278 18.798 61.9251 18.798C62.4451 18.798 63.0344 18.7027 63.6931 18.512V19.656C62.9651 19.8987 62.2978 20.02 61.6911 20.02C60.4951 20.02 59.5851 19.6993 58.9611 19.058C58.3371 18.3993 58.0251 17.4287 58.0251 16.146V7.852H56.0491V6.734L58.0771 6.656L58.2331 3.38L59.5851 3.224V6.656H63.5111V7.852H59.5851ZM80.9035 19.786L80.7995 18.876C79.3088 19.708 77.8355 20.124 76.3795 20.124C75.0448 20.124 73.9875 19.7773 73.2075 19.084C72.4275 18.3733 72.0375 17.4027 72.0375 16.172C72.0375 14.872 72.4708 13.884 73.3375 13.208C74.2215 12.5147 75.5128 12.168 77.2115 12.168C78.2341 12.168 79.3955 12.2893 80.6955 12.532V10.764C80.6955 8.59733 79.4735 7.514 77.0295 7.514C76.3881 7.514 75.6861 7.60067 74.9235 7.774C74.1608 7.94733 73.4588 8.17267 72.8175 8.45V7.228C73.4415 6.93333 74.1521 6.69933 74.9495 6.526C75.7641 6.35267 76.5355 6.266 77.2635 6.266C78.8928 6.266 80.1235 6.656 80.9555 7.436C81.8048 8.19867 82.2295 9.308 82.2295 10.764V19.656L80.9035 19.786ZM76.7435 18.876C77.3675 18.876 78.0261 18.7807 78.7195 18.59C79.4128 18.3993 80.0715 18.1393 80.6955 17.81V13.65C79.6035 13.442 78.5288 13.338 77.4715 13.338C76.1368 13.338 75.1661 13.5633 74.5595 14.014C73.9528 14.4647 73.6495 15.1753 73.6495 16.146C73.6495 17.966 74.6808 18.876 76.7435 18.876ZM95.1133 19.734V10.712C95.1133 8.58 94.03 7.514 91.8633 7.514C91.2913 7.514 90.6586 7.60933 89.9653 7.8C89.2893 7.99067 88.622 8.25067 87.9633 8.58V19.734H86.4033V6.734L87.7293 6.604L87.8333 7.514C89.3413 6.682 90.8146 6.266 92.2533 6.266C93.6573 6.266 94.7406 6.63 95.5033 7.358C96.2833 8.086 96.6733 9.11733 96.6733 10.452V19.734H95.1133ZM110.939 -4.76837e-07V19.656L109.613 19.786L109.509 18.876C108.035 19.708 106.683 20.124 105.453 20.124C103.754 20.124 102.419 19.5347 101.449 18.356C100.478 17.16 99.9925 15.5133 99.9925 13.416C99.9925 11.1107 100.539 9.34267 101.631 8.112C102.74 6.88133 104.335 6.266 106.415 6.266C107.489 6.266 108.477 6.40467 109.379 6.682V0.208L110.939 -4.76837e-07ZM105.661 18.876C106.233 18.876 106.848 18.7807 107.507 18.59C108.165 18.3993 108.789 18.1393 109.379 17.81V7.93C108.477 7.65267 107.533 7.514 106.545 7.514C104.881 7.514 103.641 7.99933 102.827 8.97C102.029 9.92333 101.631 11.3967 101.631 13.39C101.631 15.1753 101.969 16.536 102.645 17.472C103.338 18.408 104.343 18.876 105.661 18.876ZM120.784 18.018C122.084 18.59 123.427 18.876 124.814 18.876C127.154 18.876 128.324 17.966 128.324 16.146C128.324 15.5567 128.15 15.08 127.804 14.716C127.474 14.352 126.92 14.0487 126.14 13.806L124.164 13.182C123.054 12.8353 122.248 12.402 121.746 11.882C121.243 11.3447 120.992 10.6687 120.992 9.854C120.992 8.762 121.416 7.89533 122.266 7.254C123.132 6.59533 124.294 6.266 125.75 6.266C126.98 6.266 128.15 6.5 129.26 6.968V8.19C128.098 7.73933 126.954 7.514 125.828 7.514C124.805 7.514 123.999 7.722 123.41 8.138C122.838 8.53667 122.552 9.09133 122.552 9.802C122.552 10.3047 122.708 10.712 123.02 11.024C123.349 11.3187 123.93 11.6047 124.762 11.882L126.816 12.558C127.873 12.9047 128.644 13.364 129.13 13.936C129.632 14.508 129.884 15.236 129.884 16.12C129.884 17.4027 129.45 18.3907 128.584 19.084C127.717 19.7773 126.495 20.124 124.918 20.124C123.462 20.124 122.153 19.8553 120.992 19.318L120.784 18.018ZM141.881 19.266C140.737 19.838 139.489 20.124 138.137 20.124C136.3 20.124 134.878 19.526 133.873 18.33C132.885 17.134 132.391 15.4267 132.391 13.208C132.391 10.9893 132.885 9.282 133.873 8.086C134.878 6.87267 136.3 6.266 138.137 6.266C139.437 6.266 140.668 6.552 141.829 7.124V8.346C140.616 7.80867 139.437 7.54 138.293 7.54C136.889 7.54 135.823 8.01667 135.095 8.97C134.384 9.92333 134.029 11.336 134.029 13.208C134.029 15.0627 134.384 16.4667 135.095 17.42C135.823 18.3733 136.889 18.85 138.293 18.85C139.472 18.85 140.668 18.5813 141.881 18.044V19.266ZM149.841 20.124C147.952 20.124 146.522 19.5433 145.551 18.382C144.598 17.2033 144.121 15.47 144.121 13.182C144.121 10.9113 144.598 9.19533 145.551 8.034C146.522 6.85533 147.952 6.266 149.841 6.266C151.731 6.266 153.152 6.85533 154.105 8.034C155.076 9.19533 155.561 10.9113 155.561 13.182C155.561 15.47 155.076 17.2033 154.105 18.382C153.152 19.5433 151.731 20.124 149.841 20.124ZM149.841 18.876C151.263 18.876 152.294 18.4253 152.935 17.524C153.594 16.6053 153.923 15.158 153.923 13.182C153.923 11.2233 153.594 9.79333 152.935 8.892C152.294 7.97333 151.263 7.514 149.841 7.514C148.42 7.514 147.38 7.97333 146.721 8.892C146.08 9.79333 145.759 11.2233 145.759 13.182C145.759 15.158 146.08 16.6053 146.721 17.524C147.38 18.4253 148.42 18.876 149.841 18.876ZM159.071 19.734V6.734L160.397 6.604L160.527 7.774C161.689 6.82067 162.928 6.344 164.245 6.344C164.713 6.344 165.086 6.396 165.363 6.5V7.774C164.913 7.67 164.514 7.618 164.167 7.618C162.937 7.618 161.758 8.06 160.631 8.944V19.734H159.071ZM176.959 19.266C175.763 19.838 174.48 20.124 173.111 20.124C171.118 20.124 169.584 19.5347 168.509 18.356C167.434 17.1773 166.897 15.4873 166.897 13.286C166.897 11.102 167.4 9.386 168.405 8.138C169.41 6.89 170.788 6.266 172.539 6.266C174.082 6.266 175.295 6.75133 176.179 7.722C177.08 8.67533 177.531 9.984 177.531 11.648C177.531 12.272 177.479 12.87 177.375 13.442H168.431C168.448 17.0647 170.052 18.876 173.241 18.876C174.524 18.876 175.763 18.5987 176.959 18.044V19.266ZM172.513 7.488C171.334 7.488 170.372 7.92133 169.627 8.788C168.882 9.65467 168.483 10.816 168.431 12.272H176.023C176.058 11.9947 176.075 11.752 176.075 11.544C176.075 10.2613 175.763 9.26467 175.139 8.554C174.515 7.84333 173.64 7.488 172.513 7.488ZM185.767 17.758C187.292 18.5033 188.861 18.876 190.473 18.876C191.929 18.876 193.09 18.5207 193.957 17.81C194.823 17.0993 195.257 16.1373 195.257 14.924C195.257 13.7453 194.849 12.8007 194.035 12.09C193.22 11.3793 192.119 11.024 190.733 11.024H189.199V9.776H190.681C191.929 9.776 192.917 9.464 193.645 8.84C194.373 8.216 194.737 7.37533 194.737 6.318C194.737 5.20867 194.364 4.342 193.619 3.718C192.873 3.094 191.842 2.782 190.525 2.782C189.138 2.782 187.777 3.068 186.443 3.64V2.392C187.691 1.82 189.095 1.534 190.655 1.534C192.336 1.534 193.705 1.976 194.763 2.86C195.837 3.72667 196.375 4.84467 196.375 6.214C196.375 7.21933 196.08 8.086 195.491 8.814C194.919 9.542 194.113 10.062 193.073 10.374C194.269 10.6687 195.205 11.232 195.881 12.064C196.557 12.8787 196.895 13.8493 196.895 14.976C196.895 15.9987 196.617 16.9087 196.063 17.706C195.525 18.486 194.78 19.084 193.827 19.5C192.891 19.916 191.825 20.124 190.629 20.124C189.797 20.124 188.965 20.0287 188.133 19.838C187.301 19.6647 186.59 19.422 186.001 19.11L185.767 17.758ZM204.773 19.734L214.185 1.924H215.589L206.177 19.734H204.773ZM203.525 12.168C204.443 12.168 205.119 11.7867 205.553 11.024C206.003 10.2613 206.229 9.06533 206.229 7.436C206.229 5.80667 206.003 4.61067 205.553 3.848C205.119 3.08533 204.443 2.704 203.525 2.704C202.606 2.704 201.921 3.08533 201.471 3.848C201.037 4.61067 200.821 5.80667 200.821 7.436C200.821 9.06533 201.037 10.2613 201.471 11.024C201.921 11.7867 202.606 12.168 203.525 12.168ZM203.525 13.208C202.19 13.208 201.167 12.7227 200.457 11.752C199.746 10.764 199.391 9.32533 199.391 7.436C199.391 5.54667 199.746 4.11667 200.457 3.146C201.167 2.158 202.19 1.664 203.525 1.664C204.859 1.664 205.882 2.158 206.593 3.146C207.303 4.11667 207.659 5.54667 207.659 7.436C207.659 9.32533 207.303 10.764 206.593 11.752C205.882 12.7227 204.859 13.208 203.525 13.208ZM216.837 18.954C217.755 18.954 218.431 18.5727 218.865 17.81C219.315 17.0473 219.541 15.8513 219.541 14.222C219.541 12.5927 219.315 11.3967 218.865 10.634C218.431 9.87133 217.755 9.49 216.837 9.49C215.918 9.49 215.233 9.87133 214.783 10.634C214.349 11.3967 214.133 12.5927 214.133 14.222C214.133 15.8513 214.349 17.0473 214.783 17.81C215.233 18.5727 215.918 18.954 216.837 18.954ZM216.837 19.994C215.502 19.994 214.479 19.5087 213.769 18.538C213.058 17.55 212.703 16.1113 212.703 14.222C212.703 12.3327 213.058 10.9027 213.769 9.932C214.479 8.944 215.502 8.45 216.837 8.45C218.171 8.45 219.194 8.944 219.905 9.932C220.615 10.9027 220.971 12.3327 220.971 14.222C220.971 16.1113 220.615 17.55 219.905 18.538C219.194 19.5087 218.171 19.994 216.837 19.994ZM239.356 19.266C238.212 19.838 236.964 20.124 235.612 20.124C233.774 20.124 232.353 19.526 231.348 18.33C230.36 17.134 229.866 15.4267 229.866 13.208C229.866 10.9893 230.36 9.282 231.348 8.086C232.353 6.87267 233.774 6.266 235.612 6.266C236.912 6.266 238.142 6.552 239.304 7.124V8.346C238.09 7.80867 236.912 7.54 235.768 7.54C234.364 7.54 233.298 8.01667 232.57 8.97C231.859 9.92333 231.504 11.336 231.504 13.208C231.504 15.0627 231.859 16.4667 232.57 17.42C233.298 18.3733 234.364 18.85 235.768 18.85C236.946 18.85 238.142 18.5813 239.356 18.044V19.266ZM250.716 19.786L250.612 18.876C249.121 19.708 247.648 20.124 246.192 20.124C244.857 20.124 243.8 19.7773 243.02 19.084C242.24 18.3733 241.85 17.4027 241.85 16.172C241.85 14.872 242.283 13.884 243.15 13.208C244.034 12.5147 245.325 12.168 247.024 12.168C248.047 12.168 249.208 12.2893 250.508 12.532V10.764C250.508 8.59733 249.286 7.514 246.842 7.514C246.201 7.514 245.499 7.60067 244.736 7.774C243.973 7.94733 243.271 8.17267 242.63 8.45V7.228C243.254 6.93333 243.965 6.69933 244.762 6.526C245.577 6.35267 246.348 6.266 247.076 6.266C248.705 6.266 249.936 6.656 250.768 7.436C251.617 8.19867 252.042 9.308 252.042 10.764V19.656L250.716 19.786ZM246.556 18.876C247.18 18.876 247.839 18.7807 248.532 18.59C249.225 18.3993 249.884 18.1393 250.508 17.81V13.65C249.416 13.442 248.341 13.338 247.284 13.338C245.949 13.338 244.979 13.5633 244.372 14.014C243.765 14.4647 243.462 15.1753 243.462 16.146C243.462 17.966 244.493 18.876 246.556 18.876ZM255.202 18.018C256.502 18.59 257.845 18.876 259.232 18.876C261.572 18.876 262.742 17.966 262.742 16.146C262.742 15.5567 262.568 15.08 262.222 14.716C261.892 14.352 261.338 14.0487 260.558 13.806L258.582 13.182C257.472 12.8353 256.666 12.402 256.164 11.882C255.661 11.3447 255.41 10.6687 255.41 9.854C255.41 8.762 255.834 7.89533 256.684 7.254C257.55 6.59533 258.712 6.266 260.168 6.266C261.398 6.266 262.568 6.5 263.678 6.968V8.19C262.516 7.73933 261.372 7.514 260.246 7.514C259.223 7.514 258.417 7.722 257.828 8.138C257.256 8.53667 256.97 9.09133 256.97 9.802C256.97 10.3047 257.126 10.712 257.438 11.024C257.767 11.3187 258.348 11.6047 259.18 11.882L261.234 12.558C262.291 12.9047 263.062 13.364 263.548 13.936C264.05 14.508 264.302 15.236 264.302 16.12C264.302 17.4027 263.868 18.3907 263.002 19.084C262.135 19.7773 260.913 20.124 259.336 20.124C257.88 20.124 256.571 19.8553 255.41 19.318L255.202 18.018ZM267.667 19.734V0.208L269.227 -4.76837e-07V7.462C270.683 6.66467 272.113 6.266 273.517 6.266C274.921 6.266 276.004 6.63 276.767 7.358C277.547 8.086 277.937 9.11733 277.937 10.452V19.734H276.377V10.712C276.377 8.58 275.294 7.514 273.127 7.514C272.555 7.514 271.922 7.60933 271.229 7.8C270.553 7.99067 269.886 8.25067 269.227 8.58V19.734H267.667ZM290.174 7.436C290.833 7.072 291.5 6.786 292.176 6.578C292.87 6.37 293.511 6.266 294.1 6.266C295.799 6.266 297.134 6.864 298.104 8.06C299.075 9.23867 299.56 10.8767 299.56 12.974C299.56 15.2793 299.006 17.0473 297.896 18.278C296.804 19.5087 295.218 20.124 293.138 20.124C291.665 20.124 290.157 19.8813 288.614 19.396V0.208L290.174 -4.76837e-07V7.436ZM293.892 7.514C293.32 7.514 292.705 7.60933 292.046 7.8C291.388 7.99067 290.764 8.25067 290.174 8.58V18.46C291.076 18.7373 292.02 18.876 293.008 18.876C294.672 18.876 295.903 18.3993 296.7 17.446C297.515 16.4753 297.922 14.9933 297.922 13C297.922 11.2147 297.576 9.854 296.882 8.918C296.206 7.982 295.21 7.514 293.892 7.514ZM311.069 19.786L310.965 18.876C309.475 19.708 308.001 20.124 306.545 20.124C305.211 20.124 304.153 19.7773 303.373 19.084C302.593 18.3733 302.203 17.4027 302.203 16.172C302.203 14.872 302.637 13.884 303.503 13.208C304.387 12.5147 305.679 12.168 307.377 12.168C308.4 12.168 309.561 12.2893 310.861 12.532V10.764C310.861 8.59733 309.639 7.514 307.195 7.514C306.554 7.514 305.852 7.60067 305.089 7.774C304.327 7.94733 303.625 8.17267 302.983 8.45V7.228C303.607 6.93333 304.318 6.69933 305.115 6.526C305.93 6.35267 306.701 6.266 307.429 6.266C309.059 6.266 310.289 6.656 311.121 7.436C311.971 8.19867 312.395 9.308 312.395 10.764V19.656L311.069 19.786ZM306.909 18.876C307.533 18.876 308.192 18.7807 308.885 18.59C309.579 18.3993 310.237 18.1393 310.861 17.81V13.65C309.769 13.442 308.695 13.338 307.637 13.338C306.303 13.338 305.332 13.5633 304.725 14.014C304.119 14.4647 303.815 15.1753 303.815 16.146C303.815 17.966 304.847 18.876 306.909 18.876ZM325.201 19.266C324.057 19.838 322.809 20.124 321.457 20.124C319.62 20.124 318.199 19.526 317.193 18.33C316.205 17.134 315.711 15.4267 315.711 13.208C315.711 10.9893 316.205 9.282 317.193 8.086C318.199 6.87267 319.62 6.266 321.457 6.266C322.757 6.266 323.988 6.552 325.149 7.124V8.346C323.936 7.80867 322.757 7.54 321.613 7.54C320.209 7.54 319.143 8.01667 318.415 8.97C317.705 9.92333 317.349 11.336 317.349 13.208C317.349 15.0627 317.705 16.4667 318.415 17.42C319.143 18.3733 320.209 18.85 321.613 18.85C322.792 18.85 323.988 18.5813 325.201 18.044V19.266ZM328.554 19.734V0.208L330.114 -4.76837e-07V12.454L336.25 6.656H338.096L331.674 12.74L338.304 19.734H336.328L330.114 13.13V19.734H328.554ZM5.902 50.124C4.01267 50.124 2.58267 49.5433 1.612 48.382C0.65867 47.2033 0.182003 45.47 0.182003 43.182C0.182003 40.9113 0.65867 39.1953 1.612 38.034C2.58267 36.8553 4.01267 36.266 5.902 36.266C7.79134 36.266 9.21267 36.8553 10.166 38.034C11.1367 39.1953 11.622 40.9113 11.622 43.182C11.622 45.47 11.1367 47.2033 10.166 48.382C9.21267 49.5433 7.79134 50.124 5.902 50.124ZM5.902 48.876C7.32334 48.876 8.35467 48.4253 8.996 47.524C9.65467 46.6053 9.984 45.158 9.984 43.182C9.984 41.2233 9.65467 39.7933 8.996 38.892C8.35467 37.9733 7.32334 37.514 5.902 37.514C4.48067 37.514 3.44067 37.9733 2.782 38.892C2.14067 39.7933 1.82 41.2233 1.82 43.182C1.82 45.158 2.14067 46.6053 2.782 47.524C3.44067 48.4253 4.48067 48.876 5.902 48.876ZM23.8418 49.734V40.712C23.8418 38.58 22.7585 37.514 20.5918 37.514C20.0198 37.514 19.3871 37.6093 18.6938 37.8C18.0178 37.9907 17.3505 38.2507 16.6918 38.58V49.734H15.1318V36.734L16.4578 36.604L16.5618 37.514C18.0698 36.682 19.5431 36.266 20.9818 36.266C22.3858 36.266 23.4691 36.63 24.2318 37.358C25.0118 38.086 25.4018 39.1173 25.4018 40.452V49.734H23.8418ZM36.4431 49.734V37.852H34.4671V36.734L36.4431 36.656V33.718C36.4431 32.4353 36.7551 31.456 37.3791 30.78C38.0204 30.0867 38.9477 29.74 40.1611 29.74C40.8197 29.74 41.4871 29.8613 42.1631 30.104V31.248C41.5391 31.0573 40.9411 30.962 40.3691 30.962C39.5544 30.962 38.9564 31.1787 38.5751 31.612C38.1937 32.028 38.0031 32.6867 38.0031 33.588V36.656H41.5131V37.852H38.0031V49.734H36.4431ZM49.0153 50.124C47.126 50.124 45.696 49.5433 44.7253 48.382C43.772 47.2033 43.2953 45.47 43.2953 43.182C43.2953 40.9113 43.772 39.1953 44.7253 38.034C45.696 36.8553 47.126 36.266 49.0153 36.266C50.9046 36.266 52.326 36.8553 53.2793 38.034C54.25 39.1953 54.7353 40.9113 54.7353 43.182C54.7353 45.47 54.25 47.2033 53.2793 48.382C52.326 49.5433 50.9046 50.124 49.0153 50.124ZM49.0153 48.876C50.4366 48.876 51.468 48.4253 52.1093 47.524C52.768 46.6053 53.0973 45.158 53.0973 43.182C53.0973 41.2233 52.768 39.7933 52.1093 38.892C51.468 37.9733 50.4366 37.514 49.0153 37.514C47.594 37.514 46.554 37.9733 45.8953 38.892C45.254 39.7933 44.9333 41.2233 44.9333 43.182C44.9333 45.158 45.254 46.6053 45.8953 47.524C46.554 48.4253 47.594 48.876 49.0153 48.876ZM63.1071 50.124C61.2177 50.124 59.7877 49.5433 58.8171 48.382C57.8637 47.2033 57.3871 45.47 57.3871 43.182C57.3871 40.9113 57.8637 39.1953 58.8171 38.034C59.7877 36.8553 61.2177 36.266 63.1071 36.266C64.9964 36.266 66.4177 36.8553 67.3711 38.034C68.3417 39.1953 68.8271 40.9113 68.8271 43.182C68.8271 45.47 68.3417 47.2033 67.3711 48.382C66.4177 49.5433 64.9964 50.124 63.1071 50.124ZM63.1071 48.876C64.5284 48.876 65.5597 48.4253 66.2011 47.524C66.8597 46.6053 67.1891 45.158 67.1891 43.182C67.1891 41.2233 66.8597 39.7933 66.2011 38.892C65.5597 37.9733 64.5284 37.514 63.1071 37.514C61.6857 37.514 60.6457 37.9733 59.9871 38.892C59.3457 39.7933 59.0251 41.2233 59.0251 43.182C59.0251 45.158 59.3457 46.6053 59.9871 47.524C60.6457 48.4253 61.6857 48.876 63.1071 48.876ZM82.4249 30V49.656L81.0989 49.786L80.9949 48.876C79.5215 49.708 78.1695 50.124 76.9389 50.124C75.2402 50.124 73.9055 49.5347 72.9349 48.356C71.9642 47.16 71.4789 45.5133 71.4789 43.416C71.4789 41.1107 72.0249 39.3427 73.1169 38.112C74.2262 36.8813 75.8209 36.266 77.9009 36.266C78.9755 36.266 79.9635 36.4047 80.8649 36.682V30.208L82.4249 30ZM77.1469 48.876C77.7189 48.876 78.3342 48.7807 78.9929 48.59C79.6515 48.3993 80.2755 48.1393 80.8649 47.81V37.93C79.9635 37.6527 79.0189 37.514 78.0309 37.514C76.3669 37.514 75.1275 37.9993 74.3129 38.97C73.5155 39.9233 73.1169 41.3967 73.1169 43.39C73.1169 45.1753 73.4549 46.536 74.1309 47.472C74.8242 48.408 75.8295 48.876 77.1469 48.876ZM101.292 49.786L101.188 48.876C99.6975 49.708 98.2241 50.124 96.7681 50.124C95.4335 50.124 94.3761 49.7773 93.5961 49.084C92.8161 48.3733 92.4261 47.4027 92.4261 46.172C92.4261 44.872 92.8595 43.884 93.7261 43.208C94.6101 42.5147 95.9015 42.168 97.6001 42.168C98.6228 42.168 99.7841 42.2893 101.084 42.532V40.764C101.084 38.5973 99.8621 37.514 97.4181 37.514C96.7768 37.514 96.0748 37.6007 95.3121 37.774C94.5495 37.9473 93.8475 38.1727 93.2061 38.45V37.228C93.8301 36.9333 94.5408 36.6993 95.3381 36.526C96.1528 36.3527 96.9241 36.266 97.6521 36.266C99.2815 36.266 100.512 36.656 101.344 37.436C102.193 38.1987 102.618 39.308 102.618 40.764V49.656L101.292 49.786ZM97.1321 48.876C97.7561 48.876 98.4148 48.7807 99.1081 48.59C99.8015 48.3993 100.46 48.1393 101.084 47.81V43.65C99.9921 43.442 98.9175 43.338 97.8601 43.338C96.5255 43.338 95.5548 43.5633 94.9481 44.014C94.3415 44.4647 94.0381 45.1753 94.0381 46.146C94.0381 47.966 95.0695 48.876 97.1321 48.876ZM115.502 49.734V40.712C115.502 38.58 114.419 37.514 112.252 37.514C111.68 37.514 111.047 37.6093 110.354 37.8C109.678 37.9907 109.011 38.2507 108.352 38.58V49.734H106.792V36.734L108.118 36.604L108.222 37.514C109.73 36.682 111.203 36.266 112.642 36.266C114.046 36.266 115.129 36.63 115.892 37.358C116.672 38.086 117.062 39.1173 117.062 40.452V49.734H115.502ZM131.327 30V49.656L130.001 49.786L129.897 48.876C128.424 49.708 127.072 50.124 125.841 50.124C124.143 50.124 122.808 49.5347 121.837 48.356C120.867 47.16 120.381 45.5133 120.381 43.416C120.381 41.1107 120.927 39.3427 122.019 38.112C123.129 36.8813 124.723 36.266 126.803 36.266C127.878 36.266 128.866 36.4047 129.767 36.682V30.208L131.327 30ZM126.049 48.876C126.621 48.876 127.237 48.7807 127.895 48.59C128.554 48.3993 129.178 48.1393 129.767 47.81V37.93C128.866 37.6527 127.921 37.514 126.933 37.514C125.269 37.514 124.03 37.9993 123.215 38.97C122.418 39.9233 122.019 41.3967 122.019 43.39C122.019 45.1753 122.357 46.536 123.033 47.472C123.727 48.408 124.732 48.876 126.049 48.876ZM142.55 49.734V37.852H140.574V36.734L142.55 36.656V33.718C142.55 32.4353 142.862 31.456 143.486 30.78C144.128 30.0867 145.055 29.74 146.268 29.74C146.927 29.74 147.594 29.8613 148.27 30.104V31.248C147.646 31.0573 147.048 30.962 146.476 30.962C145.662 30.962 145.064 31.1787 144.682 31.612C144.301 32.028 144.11 32.6867 144.11 33.588V36.656H147.62V37.852H144.11V49.734H142.55ZM151.893 36.656V45.678C151.893 47.81 152.941 48.876 155.039 48.876C155.611 48.876 156.235 48.7807 156.911 48.59C157.604 48.3993 158.28 48.1393 158.939 47.81V36.656H160.499V49.656L159.173 49.786L159.069 48.876C157.561 49.708 156.087 50.124 154.649 50.124C153.279 50.124 152.213 49.76 151.451 49.032C150.705 48.2867 150.333 47.2553 150.333 45.938V36.656H151.893ZM173.57 49.734V40.712C173.57 38.58 172.487 37.514 170.32 37.514C169.748 37.514 169.116 37.6093 168.422 37.8C167.746 37.9907 167.079 38.2507 166.42 38.58V49.734H164.86V36.734L166.186 36.604L166.29 37.514C167.798 36.682 169.272 36.266 170.71 36.266C172.114 36.266 173.198 36.63 173.96 37.358C174.74 38.086 175.13 39.1173 175.13 40.452V49.734H173.57ZM196.468 49.734L192.958 38.398L189.552 49.734H188.07L183.91 36.656H185.496L188.824 47.81L192.1 36.656H193.842L197.17 47.888L200.472 36.656H201.98L197.95 49.734H196.468ZM204.444 49.734V36.786L206.004 36.578V49.734H204.444ZM205.224 33.484C204.878 33.484 204.592 33.38 204.366 33.172C204.158 32.964 204.054 32.678 204.054 32.314C204.054 31.95 204.158 31.664 204.366 31.456C204.592 31.248 204.878 31.144 205.224 31.144C205.571 31.144 205.848 31.248 206.056 31.456C206.282 31.664 206.394 31.95 206.394 32.314C206.394 32.678 206.282 32.964 206.056 33.172C205.848 33.38 205.571 33.484 205.224 33.484ZM212.284 37.852V46.172C212.284 47.0733 212.475 47.7407 212.856 48.174C213.238 48.59 213.827 48.798 214.624 48.798C215.144 48.798 215.734 48.7027 216.392 48.512V49.656C215.664 49.8987 214.997 50.02 214.39 50.02C213.194 50.02 212.284 49.6993 211.66 49.058C211.036 48.3993 210.724 47.4287 210.724 46.146V37.852H208.748V36.734L210.776 36.656L210.932 33.38L212.284 33.224V36.656H216.21V37.852H212.284ZM219.095 49.734V30.208L220.655 30V37.462C222.111 36.6647 223.541 36.266 224.945 36.266C226.349 36.266 227.432 36.63 228.195 37.358C228.975 38.086 229.365 39.1173 229.365 40.452V49.734H227.805V40.712C227.805 38.58 226.721 37.514 224.555 37.514C223.983 37.514 223.35 37.6093 222.657 37.8C221.981 37.9907 221.313 38.2507 220.655 38.58V49.734H219.095ZM239.002 47.602C240.822 48.3993 242.547 48.798 244.176 48.798C245.719 48.798 246.906 48.46 247.738 47.784C248.587 47.0907 249.012 46.1027 249.012 44.82C249.012 43.8493 248.735 43.0693 248.18 42.48C247.625 41.8907 246.698 41.3967 245.398 40.998L243.552 40.426C242.131 39.9927 241.091 39.4293 240.432 38.736C239.773 38.0253 239.444 37.124 239.444 36.032C239.444 34.5587 239.999 33.38 241.108 32.496C242.235 31.5947 243.734 31.144 245.606 31.144C247.114 31.144 248.57 31.4647 249.974 32.106V33.406C248.483 32.782 247.045 32.47 245.658 32.47C244.237 32.47 243.127 32.782 242.33 33.406C241.533 34.0127 241.134 34.8707 241.134 35.98C241.134 36.76 241.359 37.3753 241.81 37.826C242.261 38.2767 243.049 38.684 244.176 39.048L246.022 39.646C247.686 40.1833 248.882 40.8593 249.61 41.674C250.338 42.4713 250.702 43.5113 250.702 44.794C250.702 46.4407 250.121 47.7407 248.96 48.694C247.816 49.6473 246.247 50.124 244.254 50.124C242.417 50.124 240.753 49.7513 239.262 49.006L239.002 47.602ZM262.04 49.786L261.936 48.876C260.446 49.708 258.972 50.124 257.516 50.124C256.182 50.124 255.124 49.7773 254.344 49.084C253.564 48.3733 253.174 47.4027 253.174 46.172C253.174 44.872 253.608 43.884 254.474 43.208C255.358 42.5147 256.65 42.168 258.348 42.168C259.371 42.168 260.532 42.2893 261.832 42.532V40.764C261.832 38.5973 260.61 37.514 258.166 37.514C257.525 37.514 256.823 37.6007 256.06 37.774C255.298 37.9473 254.596 38.1727 253.954 38.45V37.228C254.578 36.9333 255.289 36.6993 256.086 36.526C256.901 36.3527 257.672 36.266 258.4 36.266C260.03 36.266 261.26 36.656 262.092 37.436C262.942 38.1987 263.366 39.308 263.366 40.764V49.656L262.04 49.786ZM257.88 48.876C258.504 48.876 259.163 48.7807 259.856 48.59C260.55 48.3993 261.208 48.1393 261.832 47.81V43.65C260.74 43.442 259.666 43.338 258.608 43.338C257.274 43.338 256.303 43.5633 255.696 44.014C255.09 44.4647 254.786 45.1753 254.786 46.146C254.786 47.966 255.818 48.876 257.88 48.876ZM270.504 49.734L265.564 36.656H267.202L271.284 48.07L275.496 36.656H277.056L272.012 49.734H270.504ZM284.056 50.124C282.167 50.124 280.737 49.5433 279.766 48.382C278.813 47.2033 278.336 45.47 278.336 43.182C278.336 40.9113 278.813 39.1953 279.766 38.034C280.737 36.8553 282.167 36.266 284.056 36.266C285.946 36.266 287.367 36.8553 288.32 38.034C289.291 39.1953 289.776 40.9113 289.776 43.182C289.776 45.47 289.291 47.2033 288.32 48.382C287.367 49.5433 285.946 50.124 284.056 50.124ZM284.056 48.876C285.478 48.876 286.509 48.4253 287.15 47.524C287.809 46.6053 288.138 45.158 288.138 43.182C288.138 41.2233 287.809 39.7933 287.15 38.892C286.509 37.9733 285.478 37.514 284.056 37.514C282.635 37.514 281.595 37.9733 280.936 38.892C280.295 39.7933 279.974 41.2233 279.974 43.182C279.974 45.158 280.295 46.6053 280.936 47.524C281.595 48.4253 282.635 48.876 284.056 48.876ZM293.286 49.734V36.734L294.612 36.604L294.742 37.774C295.903 36.8207 297.143 36.344 298.46 36.344C298.928 36.344 299.301 36.396 299.578 36.5V37.774C299.127 37.67 298.729 37.618 298.382 37.618C297.151 37.618 295.973 38.06 294.846 38.944V49.734H293.286Z" fill="#013D5B"/>
</svg>
