<svg width="117" height="15" viewBox="0 0 117 15" fill="none" xmlns="http://www.w3.org/2000/svg">
<path d="M111.56 10.395C112.31 10.725 113.085 10.89 113.885 10.89C115.235 10.89 115.91 10.365 115.91 9.31499C115.91 8.97499 115.81 8.69999 115.61 8.48999C115.42 8.27999 115.1 8.10499 114.65 7.96499L113.51 7.60499C112.87 7.40499 112.405 7.15499 112.115 6.85499C111.825 6.54499 111.68 6.15499 111.68 5.68499C111.68 5.05499 111.925 4.55499 112.415 4.18499C112.915 3.80499 113.585 3.61499 114.425 3.61499C115.135 3.61499 115.81 3.74999 116.45 4.01999V4.72499C115.78 4.46499 115.12 4.33499 114.47 4.33499C113.88 4.33499 113.415 4.45499 113.075 4.69499C112.745 4.92499 112.58 5.24499 112.58 5.65499C112.58 5.94499 112.67 6.17999 112.85 6.35999C113.04 6.52999 113.375 6.69499 113.855 6.85499L115.04 7.24499C115.65 7.44499 116.095 7.70999 116.375 8.03999C116.665 8.36999 116.81 8.78999 116.81 9.29999C116.81 10.04 116.56 10.61 116.06 11.01C115.56 11.41 114.855 11.61 113.945 11.61C113.105 11.61 112.35 11.455 111.68 11.145L111.56 10.395Z" fill="#013D5B"/>
<path d="M108.216 4.53002V9.33002C108.216 9.85002 108.326 10.235 108.546 10.485C108.766 10.725 109.106 10.845 109.566 10.845C109.866 10.845 110.206 10.79 110.586 10.68V11.34C110.166 11.48 109.781 11.55 109.431 11.55C108.741 11.55 108.216 11.365 107.856 10.995C107.496 10.615 107.316 10.055 107.316 9.31502V4.53002H106.176V3.88502L107.346 3.84002L107.436 1.95002L108.216 1.86002V3.84002H110.481V4.53002H108.216Z" fill="#013D5B"/>
<path d="M103.796 11.385V6.17999C103.796 4.94999 103.171 4.33499 101.921 4.33499C101.591 4.33499 101.226 4.38999 100.826 4.49999C100.436 4.60999 100.051 4.75999 99.6714 4.94999V11.385H98.7714V3.88499L99.5364 3.80999L99.5964 4.33499C100.466 3.85499 101.316 3.61499 102.146 3.61499C102.956 3.61499 103.581 3.82499 104.021 4.24499C104.471 4.66499 104.696 5.25999 104.696 6.02999V11.385H103.796Z" fill="#013D5B"/>
<path d="M91.29 3.84003V9.04503C91.29 10.275 91.895 10.89 93.105 10.89C93.435 10.89 93.795 10.835 94.185 10.725C94.585 10.615 94.975 10.465 95.355 10.275V3.84003H96.255V11.34L95.49 11.415L95.43 10.89C94.56 11.37 93.71 11.61 92.88 11.61C92.09 11.61 91.475 11.4 91.035 10.98C90.605 10.55 90.39 9.95503 90.39 9.19503V3.84003H91.29Z" fill="#013D5B"/>
<path d="M85.1701 11.61C84.0801 11.61 83.2551 11.275 82.6951 10.605C82.1451 9.92499 81.8701 8.92499 81.8701 7.60499C81.8701 6.29499 82.1451 5.30499 82.6951 4.63499C83.2551 3.95499 84.0801 3.61499 85.1701 3.61499C86.2601 3.61499 87.0801 3.95499 87.6301 4.63499C88.1901 5.30499 88.4701 6.29499 88.4701 7.60499C88.4701 8.92499 88.1901 9.92499 87.6301 10.605C87.0801 11.275 86.2601 11.61 85.1701 11.61ZM85.1701 10.89C85.9901 10.89 86.5851 10.63 86.9551 10.11C87.3351 9.57999 87.5251 8.74499 87.5251 7.60499C87.5251 6.47499 87.3351 5.64999 86.9551 5.12999C86.5851 4.59999 85.9901 4.33499 85.1701 4.33499C84.3501 4.33499 83.7501 4.59999 83.3701 5.12999C83.0001 5.64999 82.8151 6.47499 82.8151 7.60499C82.8151 8.74499 83.0001 9.57999 83.3701 10.11C83.7501 10.63 84.3501 10.89 85.1701 10.89Z" fill="#013D5B"/>
<path d="M80.5775 11.115C79.9175 11.445 79.1975 11.61 78.4175 11.61C77.3575 11.61 76.5375 11.265 75.9575 10.575C75.3875 9.88499 75.1025 8.89999 75.1025 7.61999C75.1025 6.33999 75.3875 5.35499 75.9575 4.66499C76.5375 3.96499 77.3575 3.61499 78.4175 3.61499C79.1675 3.61499 79.8775 3.77999 80.5475 4.10999V4.81499C79.8475 4.50499 79.1675 4.34999 78.5075 4.34999C77.6975 4.34999 77.0825 4.62499 76.6625 5.17499C76.2525 5.72499 76.0475 6.53999 76.0475 7.61999C76.0475 8.68999 76.2525 9.49999 76.6625 10.05C77.0825 10.6 77.6975 10.875 78.5075 10.875C79.1875 10.875 79.8775 10.72 80.5775 10.41V11.115Z" fill="#013D5B"/>
<path d="M73.81 11.115C73.15 11.445 72.43 11.61 71.65 11.61C70.59 11.61 69.77 11.265 69.19 10.575C68.62 9.88499 68.335 8.89999 68.335 7.61999C68.335 6.33999 68.62 5.35499 69.19 4.66499C69.77 3.96499 70.59 3.61499 71.65 3.61499C72.4 3.61499 73.11 3.77999 73.78 4.10999V4.81499C73.08 4.50499 72.4 4.34999 71.74 4.34999C70.93 4.34999 70.315 4.62499 69.895 5.17499C69.485 5.72499 69.28 6.53999 69.28 7.61999C69.28 8.68999 69.485 9.49999 69.895 10.05C70.315 10.6 70.93 10.875 71.74 10.875C72.42 10.875 73.11 10.72 73.81 10.41V11.115Z" fill="#013D5B"/>
<path d="M65.657 11.415L65.597 10.89C64.737 11.37 63.887 11.61 63.047 11.61C62.277 11.61 61.667 11.41 61.217 11.01C60.767 10.6 60.542 10.04 60.542 9.32999C60.542 8.57999 60.792 8.00999 61.292 7.61999C61.802 7.21999 62.547 7.01999 63.527 7.01999C64.117 7.01999 64.787 7.08999 65.537 7.22999V6.20999C65.537 4.95999 64.832 4.33499 63.422 4.33499C63.052 4.33499 62.647 4.38499 62.207 4.48499C61.767 4.58499 61.362 4.71499 60.992 4.87499V4.16999C61.352 3.99999 61.762 3.86499 62.222 3.76499C62.692 3.66499 63.137 3.61499 63.557 3.61499C64.497 3.61499 65.207 3.83999 65.687 4.28999C66.177 4.72999 66.422 5.36999 66.422 6.20999V11.34L65.657 11.415ZM63.257 10.89C63.617 10.89 63.997 10.835 64.397 10.725C64.797 10.615 65.177 10.465 65.537 10.275V7.87499C64.907 7.75499 64.287 7.69499 63.677 7.69499C62.907 7.69499 62.347 7.82499 61.997 8.08499C61.647 8.34499 61.472 8.75499 61.472 9.31499C61.472 10.365 62.067 10.89 63.257 10.89Z" fill="#013D5B"/>
<path d="M51.412 14.88C50.522 14.88 49.767 14.725 49.147 14.415L49.027 13.65C49.847 13.99 50.627 14.16 51.367 14.16C53.037 14.16 53.872 13.385 53.872 11.835V10.8C53.492 11.01 53.102 11.175 52.702 11.295C52.312 11.415 51.947 11.475 51.607 11.475C50.627 11.475 49.857 11.145 49.297 10.485C48.737 9.82499 48.457 8.90999 48.457 7.73999C48.457 6.40999 48.772 5.38999 49.402 4.67999C50.042 3.96999 50.962 3.61499 52.162 3.61499C53.072 3.61499 53.942 3.77499 54.772 4.09499V11.76C54.772 12.76 54.482 13.53 53.902 14.07C53.322 14.61 52.492 14.88 51.412 14.88ZM51.727 10.755C52.057 10.755 52.412 10.7 52.792 10.59C53.172 10.48 53.532 10.33 53.872 10.14V4.57499C53.352 4.41499 52.807 4.33499 52.237 4.33499C51.277 4.33499 50.562 4.61499 50.092 5.17499C49.632 5.72499 49.402 6.57499 49.402 7.72499C49.402 8.71499 49.597 9.46999 49.987 9.98999C50.387 10.5 50.967 10.755 51.727 10.755Z" fill="#013D5B"/>
<path d="M45.6421 11.385V6.17999C45.6421 4.94999 45.0171 4.33499 43.7671 4.33499C43.4371 4.33499 43.0721 4.38999 42.6721 4.49999C42.2821 4.60999 41.8971 4.75999 41.5171 4.94999V11.385H40.6171V3.88499L41.3821 3.80999L41.4421 4.33499C42.3121 3.85499 43.1621 3.61499 43.9921 3.61499C44.8021 3.61499 45.4271 3.82499 45.8671 4.24499C46.3171 4.66499 46.5421 5.25999 46.5421 6.02999V11.385H45.6421Z" fill="#013D5B"/>
<path d="M37.204 11.385V3.915L38.104 3.79501V11.385H37.204ZM37.654 2.01001C37.454 2.01001 37.289 1.95001 37.159 1.83001C37.039 1.71001 36.979 1.54501 36.979 1.33501C36.979 1.12501 37.039 0.960004 37.159 0.840004C37.289 0.720004 37.454 0.660004 37.654 0.660004C37.854 0.660004 38.014 0.720004 38.134 0.840004C38.264 0.960004 38.329 1.12501 38.329 1.33501C38.329 1.54501 38.264 1.71001 38.134 1.83001C38.014 1.95001 37.854 2.01001 37.654 2.01001Z" fill="#013D5B"/>
<path d="M30.3046 11.385V0.120003L31.2046 0V7.185L34.7446 3.84H35.8096L32.1046 7.35L35.9296 11.385H34.7896L31.2046 7.575V11.385H30.3046Z" fill="#013D5B"/>
<path d="M28.3705 11.115C27.7105 11.445 26.9905 11.61 26.2105 11.61C25.1505 11.61 24.3305 11.265 23.7505 10.575C23.1805 9.88499 22.8955 8.89999 22.8955 7.61999C22.8955 6.33999 23.1805 5.35499 23.7505 4.66499C24.3305 3.96499 25.1505 3.61499 26.2105 3.61499C26.9605 3.61499 27.6705 3.77999 28.3405 4.10999V4.81499C27.6405 4.50499 26.9605 4.34999 26.3005 4.34999C25.4905 4.34999 24.8755 4.62499 24.4555 5.17499C24.0455 5.72499 23.8405 6.53999 23.8405 7.61999C23.8405 8.68999 24.0455 9.49999 24.4555 10.05C24.8755 10.6 25.4905 10.875 26.3005 10.875C26.9805 10.875 27.6705 10.72 28.3705 10.41V11.115Z" fill="#013D5B"/>
<path d="M21.054 11.115C20.364 11.445 19.624 11.61 18.834 11.61C17.684 11.61 16.799 11.27 16.179 10.59C15.559 9.90999 15.249 8.93499 15.249 7.66499C15.249 6.40499 15.539 5.41499 16.119 4.69499C16.699 3.97499 17.494 3.61499 18.504 3.61499C19.394 3.61499 20.094 3.89499 20.604 4.45499C21.124 5.00499 21.384 5.75999 21.384 6.71999C21.384 7.07999 21.354 7.42499 21.294 7.75499H16.134C16.144 9.84499 17.069 10.89 18.909 10.89C19.649 10.89 20.364 10.73 21.054 10.41V11.115ZM18.489 4.31999C17.809 4.31999 17.254 4.56999 16.824 5.06999C16.394 5.56999 16.164 6.23999 16.134 7.07999H20.514C20.534 6.91999 20.544 6.77999 20.544 6.65999C20.544 5.91999 20.364 5.34499 20.004 4.93499C19.644 4.52499 19.139 4.31999 18.489 4.31999Z" fill="#013D5B"/>
<path d="M7.40906 11.385V0.120003L8.30906 0V4.305C9.14906 3.845 9.97406 3.615 10.7841 3.615C11.5941 3.615 12.2191 3.825 12.6591 4.245C13.1091 4.665 13.3341 5.26 13.3341 6.03V11.385H12.4341V6.18C12.4341 4.95 11.8091 4.335 10.5591 4.335C10.2291 4.335 9.86406 4.39 9.46406 4.5C9.07406 4.61 8.68906 4.76 8.30906 4.95V11.385H7.40906Z" fill="#013D5B"/>
<path d="M5.475 11.115C4.815 11.445 4.095 11.61 3.315 11.61C2.255 11.61 1.435 11.265 0.855 10.575C0.285 9.88499 0 8.89999 0 7.61999C0 6.33999 0.285 5.35499 0.855 4.66499C1.435 3.96499 2.255 3.61499 3.315 3.61499C4.065 3.61499 4.775 3.77999 5.445 4.10999V4.81499C4.745 4.50499 4.065 4.34999 3.405 4.34999C2.595 4.34999 1.98 4.62499 1.56 5.17499C1.15 5.72499 0.945 6.53999 0.945 7.61999C0.945 8.68999 1.15 9.49999 1.56 10.05C1.98 10.6 2.595 10.875 3.405 10.875C4.085 10.875 4.775 10.72 5.475 10.41V11.115Z" fill="#013D5B"/>
</svg>
