<svg width="132" height="26" viewBox="0 0 132 26" fill="none" xmlns="http://www.w3.org/2000/svg">
<g clip-path="url(#clip0_11121_4428)">
<path d="M12.98 -9L9.394 -22.728L5.786 -9H4.312L0.418 -24.4H1.826L5.082 -10.782L8.602 -24.4H10.186L13.706 -10.738L16.984 -24.4H18.37L14.476 -9H12.98ZM20.6253 -9V-25.522L21.9453 -25.698V-19.384C23.1773 -20.0587 24.3873 -20.396 25.5753 -20.396C26.7633 -20.396 27.68 -20.088 28.3253 -19.472C28.9853 -18.856 29.3153 -17.9833 29.3153 -16.854V-9H27.9953V-16.634C27.9953 -18.438 27.0787 -19.34 25.2453 -19.34C24.7613 -19.34 24.226 -19.2593 23.6393 -19.098C23.0673 -18.9367 22.5027 -18.7167 21.9453 -18.438V-9H20.6253ZM40.638 -9.396C39.626 -8.912 38.5406 -8.67 37.382 -8.67C35.6953 -8.67 34.3973 -9.16867 33.488 -10.166C32.5786 -11.1633 32.124 -12.5933 32.124 -14.456C32.124 -16.304 32.5493 -17.756 33.4 -18.812C34.2506 -19.868 35.4166 -20.396 36.898 -20.396C38.2033 -20.396 39.23 -19.9853 39.978 -19.164C40.7406 -18.3573 41.122 -17.25 41.122 -15.842C41.122 -15.314 41.078 -14.808 40.99 -14.324H33.422C33.4366 -11.2587 34.7933 -9.726 37.492 -9.726C38.5773 -9.726 39.626 -9.96067 40.638 -10.43V-9.396ZM36.876 -19.362C35.8786 -19.362 35.0646 -18.9953 34.434 -18.262C33.8033 -17.5287 33.466 -16.546 33.422 -15.314H39.846C39.8753 -15.5487 39.89 -15.754 39.89 -15.93C39.89 -17.0153 39.626 -17.8587 39.098 -18.46C38.57 -19.0613 37.8293 -19.362 36.876 -19.362ZM51.4348 -9V-16.634C51.4348 -18.438 50.5181 -19.34 48.6848 -19.34C48.2008 -19.34 47.6655 -19.2593 47.0788 -19.098C46.5068 -18.9367 45.9421 -18.7167 45.3848 -18.438V-9H44.0648V-20L45.1868 -20.11L45.2748 -19.34C46.5508 -20.044 47.7975 -20.396 49.0148 -20.396C50.2028 -20.396 51.1195 -20.088 51.7648 -19.472C52.4248 -18.856 52.7548 -17.9833 52.7548 -16.854V-9H51.4348ZM61.7894 -9V-19.956L63.1094 -20.132V-9H61.7894ZM62.4494 -22.75C62.1561 -22.75 61.9141 -22.838 61.7234 -23.014C61.5474 -23.19 61.4594 -23.432 61.4594 -23.74C61.4594 -24.048 61.5474 -24.29 61.7234 -24.466C61.9141 -24.642 62.1561 -24.73 62.4494 -24.73C62.7427 -24.73 62.9774 -24.642 63.1534 -24.466C63.3441 -24.29 63.4394 -24.048 63.4394 -23.74C63.4394 -23.432 63.3441 -23.19 63.1534 -23.014C62.9774 -22.838 62.7427 -22.75 62.4494 -22.75ZM68.4233 -19.054V-12.014C68.4233 -11.2513 68.5846 -10.6867 68.9073 -10.32C69.2299 -9.968 69.7286 -9.792 70.4033 -9.792C70.8433 -9.792 71.3419 -9.87267 71.8993 -10.034V-9.066C71.2833 -8.86067 70.7186 -8.758 70.2053 -8.758C69.1933 -8.758 68.4233 -9.02933 67.8953 -9.572C67.3673 -10.1293 67.1033 -10.9507 67.1033 -12.036V-19.054H65.4313V-20L67.1473 -20.066L67.2793 -22.838L68.4233 -22.97V-20.066H71.7453V-19.054H68.4233ZM79.6859 -9V-20L80.8079 -20.11L80.9179 -19.12C81.9006 -19.9267 82.9492 -20.33 84.0639 -20.33C84.4599 -20.33 84.7752 -20.286 85.0099 -20.198V-19.12C84.6286 -19.208 84.2912 -19.252 83.9979 -19.252C82.9566 -19.252 81.9592 -18.878 81.0059 -18.13V-9H79.6859ZM93.8095 -8.956L93.7215 -9.726C92.4602 -9.022 91.2135 -8.67 89.9815 -8.67C88.8522 -8.67 87.9575 -8.96333 87.2975 -9.55C86.6375 -10.1513 86.3075 -10.9727 86.3075 -12.014C86.3075 -13.114 86.6742 -13.95 87.4075 -14.522C88.1555 -15.1087 89.2482 -15.402 90.6855 -15.402C91.5509 -15.402 92.5335 -15.2993 93.6335 -15.094V-16.59C93.6335 -18.4233 92.5995 -19.34 90.5315 -19.34C89.9889 -19.34 89.3949 -19.2667 88.7495 -19.12C88.1042 -18.9733 87.5102 -18.7827 86.9675 -18.548V-19.582C87.4955 -19.8313 88.0969 -20.0293 88.7715 -20.176C89.4609 -20.3227 90.1135 -20.396 90.7295 -20.396C92.1082 -20.396 93.1495 -20.066 93.8535 -19.406C94.5722 -18.7607 94.9315 -17.822 94.9315 -16.59V-9.066L93.8095 -8.956ZM90.2895 -9.726C90.8175 -9.726 91.3749 -9.80667 91.9615 -9.968C92.5482 -10.1293 93.1055 -10.3493 93.6335 -10.628V-14.148C92.7095 -14.324 91.8002 -14.412 90.9055 -14.412C89.7762 -14.412 88.9549 -14.2213 88.4415 -13.84C87.9282 -13.4587 87.6715 -12.8573 87.6715 -12.036C87.6715 -10.496 88.5442 -9.726 90.2895 -9.726ZM98.4632 -9V-19.956L99.7832 -20.132V-9H98.4632ZM99.1232 -22.75C98.8299 -22.75 98.5879 -22.838 98.3972 -23.014C98.2212 -23.19 98.1332 -23.432 98.1332 -23.74C98.1332 -24.048 98.2212 -24.29 98.3972 -24.466C98.5879 -24.642 98.8299 -24.73 99.1232 -24.73C99.4166 -24.73 99.6512 -24.642 99.8272 -24.466C100.018 -24.29 100.113 -24.048 100.113 -23.74C100.113 -23.432 100.018 -23.19 99.8272 -23.014C99.6512 -22.838 99.4166 -22.75 99.1232 -22.75ZM110.839 -9V-16.634C110.839 -18.438 109.922 -19.34 108.089 -19.34C107.605 -19.34 107.07 -19.2593 106.483 -19.098C105.911 -18.9367 105.346 -18.7167 104.789 -18.438V-9H103.469V-20L104.591 -20.11L104.679 -19.34C105.955 -20.044 107.202 -20.396 108.419 -20.396C109.607 -20.396 110.524 -20.088 111.169 -19.472C111.829 -18.856 112.159 -17.9833 112.159 -16.854V-9H110.839ZM114.836 -10.452C115.936 -9.968 117.072 -9.726 118.246 -9.726C120.226 -9.726 121.216 -10.496 121.216 -12.036C121.216 -12.5347 121.069 -12.938 120.776 -13.246C120.497 -13.554 120.028 -13.8107 119.368 -14.016L117.696 -14.544C116.757 -14.8373 116.075 -15.204 115.65 -15.644C115.224 -16.0987 115.012 -16.6707 115.012 -17.36C115.012 -18.284 115.371 -19.0173 116.09 -19.56C116.823 -20.1173 117.806 -20.396 119.038 -20.396C120.079 -20.396 121.069 -20.198 122.008 -19.802V-18.768C121.025 -19.1493 120.057 -19.34 119.104 -19.34C118.238 -19.34 117.556 -19.164 117.058 -18.812C116.574 -18.4747 116.332 -18.0053 116.332 -17.404C116.332 -16.9787 116.464 -16.634 116.728 -16.37C117.006 -16.1207 117.498 -15.8787 118.202 -15.644L119.94 -15.072C120.834 -14.7787 121.487 -14.39 121.898 -13.906C122.323 -13.422 122.536 -12.806 122.536 -12.058C122.536 -10.9727 122.169 -10.1367 121.436 -9.55C120.702 -8.96333 119.668 -8.67 118.334 -8.67C117.102 -8.67 115.994 -8.89733 115.012 -9.352L114.836 -10.452ZM138.187 -9.396C137.219 -8.912 136.163 -8.67 135.019 -8.67C133.464 -8.67 132.262 -9.176 131.411 -10.188C130.575 -11.2 130.157 -12.6447 130.157 -14.522C130.157 -16.3993 130.575 -17.844 131.411 -18.856C132.262 -19.8827 133.464 -20.396 135.019 -20.396C136.119 -20.396 137.16 -20.154 138.143 -19.67V-18.636C137.116 -19.0907 136.119 -19.318 135.151 -19.318C133.963 -19.318 133.061 -18.9147 132.445 -18.108C131.844 -17.3013 131.543 -16.106 131.543 -14.522C131.543 -12.9527 131.844 -11.7647 132.445 -10.958C133.061 -10.1513 133.963 -9.748 135.151 -9.748C136.148 -9.748 137.16 -9.97533 138.187 -10.43V-9.396ZM147.8 -8.956L147.712 -9.726C146.45 -9.022 145.204 -8.67 143.972 -8.67C142.842 -8.67 141.948 -8.96333 141.288 -9.55C140.628 -10.1513 140.298 -10.9727 140.298 -12.014C140.298 -13.114 140.664 -13.95 141.398 -14.522C142.146 -15.1087 143.238 -15.402 144.676 -15.402C145.541 -15.402 146.524 -15.2993 147.624 -15.094V-16.59C147.624 -18.4233 146.59 -19.34 144.522 -19.34C143.979 -19.34 143.385 -19.2667 142.74 -19.12C142.094 -18.9733 141.5 -18.7827 140.958 -18.548V-19.582C141.486 -19.8313 142.087 -20.0293 142.762 -20.176C143.451 -20.3227 144.104 -20.396 144.72 -20.396C146.098 -20.396 147.14 -20.066 147.844 -19.406C148.562 -18.7607 148.922 -17.822 148.922 -16.59V-9.066L147.8 -8.956ZM144.28 -9.726C144.808 -9.726 145.365 -9.80667 145.952 -9.968C146.538 -10.1293 147.096 -10.3493 147.624 -10.628V-14.148C146.7 -14.324 145.79 -14.412 144.896 -14.412C143.766 -14.412 142.945 -14.2213 142.432 -13.84C141.918 -13.4587 141.662 -12.8573 141.662 -12.036C141.662 -10.496 142.534 -9.726 144.28 -9.726ZM151.595 -10.452C152.695 -9.968 153.832 -9.726 155.005 -9.726C156.985 -9.726 157.975 -10.496 157.975 -12.036C157.975 -12.5347 157.829 -12.938 157.535 -13.246C157.257 -13.554 156.787 -13.8107 156.127 -14.016L154.455 -14.544C153.517 -14.8373 152.835 -15.204 152.409 -15.644C151.984 -16.0987 151.771 -16.6707 151.771 -17.36C151.771 -18.284 152.131 -19.0173 152.849 -19.56C153.583 -20.1173 154.565 -20.396 155.797 -20.396C156.839 -20.396 157.829 -20.198 158.767 -19.802V-18.768C157.785 -19.1493 156.817 -19.34 155.863 -19.34C154.998 -19.34 154.316 -19.164 153.817 -18.812C153.333 -18.4747 153.091 -18.0053 153.091 -17.404C153.091 -16.9787 153.223 -16.634 153.487 -16.37C153.766 -16.1207 154.257 -15.8787 154.961 -15.644L156.699 -15.072C157.594 -14.7787 158.247 -14.39 158.657 -13.906C159.083 -13.422 159.295 -12.806 159.295 -12.058C159.295 -10.9727 158.929 -10.1367 158.195 -9.55C157.462 -8.96333 156.428 -8.67 155.093 -8.67C153.861 -8.67 152.754 -8.89733 151.771 -9.352L151.595 -10.452ZM162.143 -9V-25.522L163.463 -25.698V-19.384C164.695 -20.0587 165.905 -20.396 167.093 -20.396C168.281 -20.396 169.198 -20.088 169.843 -19.472C170.503 -18.856 170.833 -17.9833 170.833 -16.854V-9H169.513V-16.634C169.513 -18.438 168.596 -19.34 166.763 -19.34C166.279 -19.34 165.744 -19.2593 165.157 -19.098C164.585 -18.9367 164.02 -18.7167 163.463 -18.438V-9H162.143ZM3.168 8.594C3.72533 8.286 4.29 8.044 4.862 7.868C5.44867 7.692 5.99133 7.604 6.49 7.604C7.92733 7.604 9.05667 8.11 9.878 9.122C10.6993 10.1193 11.11 11.5053 11.11 13.28C11.11 15.2307 10.6407 16.7267 9.702 17.768C8.778 18.8093 7.436 19.33 5.676 19.33C4.42933 19.33 3.15333 19.1247 1.848 18.714V2.478L3.168 2.302V8.594ZM6.314 8.66C5.83 8.66 5.30933 8.74067 4.752 8.902C4.19467 9.06333 3.66667 9.28333 3.168 9.562V17.922C3.93067 18.1567 4.73 18.274 5.566 18.274C6.974 18.274 8.01533 17.8707 8.69 17.064C9.37933 16.2427 9.724 14.9887 9.724 13.302C9.724 11.7913 9.43067 10.64 8.844 9.848C8.272 9.056 7.42867 8.66 6.314 8.66ZM20.8486 19.044L20.7606 18.274C19.4993 18.978 18.2526 19.33 17.0206 19.33C15.8913 19.33 14.9966 19.0367 14.3366 18.45C13.6766 17.8487 13.3466 17.0273 13.3466 15.986C13.3466 14.886 13.7133 14.05 14.4466 13.478C15.1946 12.8913 16.2873 12.598 17.7246 12.598C18.5899 12.598 19.5726 12.7007 20.6726 12.906V11.41C20.6726 9.57667 19.6386 8.66 17.5706 8.66C17.0279 8.66 16.4339 8.73333 15.7886 8.88C15.1433 9.02667 14.5493 9.21733 14.0066 9.452V8.418C14.5346 8.16867 15.1359 7.97067 15.8106 7.824C16.4999 7.67733 17.1526 7.604 17.7686 7.604C19.1473 7.604 20.1886 7.934 20.8926 8.594C21.6113 9.23933 21.9706 10.178 21.9706 11.41V18.934L20.8486 19.044ZM17.3286 18.274C17.8566 18.274 18.4139 18.1933 19.0006 18.032C19.5873 17.8707 20.1446 17.6507 20.6726 17.372V13.852C19.7486 13.676 18.8393 13.588 17.9446 13.588C16.8153 13.588 15.9939 13.7787 15.4806 14.16C14.9673 14.5413 14.7106 15.1427 14.7106 15.964C14.7106 17.504 15.5833 18.274 17.3286 18.274ZM32.8063 18.604C31.8383 19.088 30.7823 19.33 29.6383 19.33C28.0836 19.33 26.881 18.824 26.0303 17.812C25.1943 16.8 24.7763 15.3553 24.7763 13.478C24.7763 11.6007 25.1943 10.156 26.0303 9.144C26.881 8.11733 28.0836 7.604 29.6383 7.604C30.7383 7.604 31.7796 7.846 32.7623 8.33V9.364C31.7356 8.90933 30.7383 8.682 29.7703 8.682C28.5823 8.682 27.6803 9.08533 27.0643 9.892C26.463 10.6987 26.1623 11.894 26.1623 13.478C26.1623 15.0473 26.463 16.2353 27.0643 17.042C27.6803 17.8487 28.5823 18.252 29.7703 18.252C30.7676 18.252 31.7796 18.0247 32.8063 17.57V18.604ZM35.6429 19V2.478L36.9629 2.302V12.84L42.1549 7.934H43.7169L38.2829 13.082L43.8929 19H42.2209L36.9629 13.412V19H35.6429ZM44.5081 22.322C44.9041 21.8087 45.2194 21.266 45.4541 20.694C45.7034 20.122 45.8354 19.5793 45.8501 19.066C45.6301 19.0073 45.4614 18.8973 45.3441 18.736C45.2267 18.56 45.1681 18.3473 45.1681 18.098C45.1681 17.79 45.2634 17.548 45.4541 17.372C45.6447 17.1813 45.8867 17.086 46.1801 17.086C46.5027 17.086 46.7521 17.2033 46.9281 17.438C47.1041 17.658 47.1921 17.966 47.1921 18.362C47.1921 19.0073 46.9794 19.7333 46.5541 20.54C46.1434 21.3613 45.6227 22.058 44.9921 22.63L44.5081 22.322ZM55.7953 19V8.044L57.1153 7.868V19H55.7953ZM56.4553 5.25C56.1619 5.25 55.9199 5.162 55.7293 4.986C55.5533 4.81 55.4653 4.568 55.4653 4.26C55.4653 3.952 55.5533 3.71 55.7293 3.534C55.9199 3.358 56.1619 3.27 56.4553 3.27C56.7486 3.27 56.9833 3.358 57.1593 3.534C57.3499 3.71 57.4453 3.952 57.4453 4.26C57.4453 4.568 57.3499 4.81 57.1593 4.986C56.9833 5.162 56.7486 5.25 56.4553 5.25ZM62.4291 8.946V15.986C62.4291 16.7487 62.5905 17.3133 62.9131 17.68C63.2358 18.032 63.7345 18.208 64.4091 18.208C64.8491 18.208 65.3478 18.1273 65.9051 17.966V18.934C65.2891 19.1393 64.7245 19.242 64.2111 19.242C63.1991 19.242 62.4291 18.9707 61.9011 18.428C61.3731 17.8707 61.1091 17.0493 61.1091 15.964V8.946H59.4371V8L61.1531 7.934L61.2851 5.162L62.4291 5.03V7.934H65.7511V8.946H62.4291ZM73.6918 23.906V8L74.8138 7.89L74.9018 8.66C76.1484 7.956 77.2924 7.604 78.3338 7.604C79.7711 7.604 80.9004 8.11 81.7218 9.122C82.5431 10.1193 82.9537 11.5053 82.9537 13.28C82.9537 15.2307 82.4844 16.7267 81.5458 17.768C80.6218 18.8093 79.2798 19.33 77.5198 19.33C76.6104 19.33 75.7744 19.2127 75.0118 18.978V23.73L73.6918 23.906ZM78.1578 8.66C77.6738 8.66 77.1531 8.74067 76.5958 8.902C76.0384 9.06333 75.5104 9.28333 75.0118 9.562V17.922C75.7744 18.1567 76.5738 18.274 77.4098 18.274C78.8178 18.274 79.8591 17.8707 80.5338 17.064C81.2231 16.2427 81.5678 14.9887 81.5678 13.302C81.5678 11.7913 81.2744 10.64 80.6878 9.848C80.1158 9.056 79.2724 8.66 78.1578 8.66ZM90.0304 19.33C88.4317 19.33 87.2217 18.8387 86.4004 17.856C85.5937 16.8587 85.1904 15.392 85.1904 13.456C85.1904 11.5347 85.5937 10.0827 86.4004 9.1C87.2217 8.10267 88.4317 7.604 90.0304 7.604C91.629 7.604 92.8317 8.10267 93.6384 9.1C94.4597 10.0827 94.8704 11.5347 94.8704 13.456C94.8704 15.392 94.4597 16.8587 93.6384 17.856C92.8317 18.8387 91.629 19.33 90.0304 19.33ZM90.0304 18.274C91.233 18.274 92.1057 17.8927 92.6484 17.13C93.2057 16.3527 93.4844 15.128 93.4844 13.456C93.4844 11.7987 93.2057 10.5887 92.6484 9.826C92.1057 9.04867 91.233 8.66 90.0304 8.66C88.8277 8.66 87.9477 9.04867 87.3904 9.826C86.8477 10.5887 86.5764 11.7987 86.5764 13.456C86.5764 15.128 86.8477 16.3527 87.3904 17.13C87.9477 17.8927 88.8277 18.274 90.0304 18.274ZM99.0062 7.934V15.568C99.0062 17.372 99.8935 18.274 101.668 18.274C102.152 18.274 102.68 18.1933 103.252 18.032C103.839 17.8707 104.411 17.6507 104.968 17.372V7.934H106.288V18.934L105.166 19.044L105.078 18.274C103.802 18.978 102.556 19.33 101.338 19.33C100.18 19.33 99.2775 19.022 98.6322 18.406C98.0015 17.7753 97.6862 16.9027 97.6862 15.788V7.934H99.0062ZM109.979 19V8L111.101 7.89L111.211 8.88C112.194 8.07333 113.242 7.67 114.357 7.67C114.753 7.67 115.068 7.714 115.303 7.802V8.88C114.922 8.792 114.584 8.748 114.291 8.748C113.25 8.748 112.252 9.122 111.299 9.87V19H109.979ZM116.683 17.548C117.783 18.032 118.92 18.274 120.093 18.274C122.073 18.274 123.063 17.504 123.063 15.964C123.063 15.4653 122.917 15.062 122.623 14.754C122.345 14.446 121.875 14.1893 121.215 13.984L119.543 13.456C118.605 13.1627 117.923 12.796 117.497 12.356C117.072 11.9013 116.859 11.3293 116.859 10.64C116.859 9.716 117.219 8.98267 117.937 8.44C118.671 7.88267 119.653 7.604 120.885 7.604C121.927 7.604 122.917 7.802 123.855 8.198V9.232C122.873 8.85067 121.905 8.66 120.951 8.66C120.086 8.66 119.404 8.836 118.905 9.188C118.421 9.52533 118.179 9.99467 118.179 10.596C118.179 11.0213 118.311 11.366 118.575 11.63C118.854 11.8793 119.345 12.1213 120.049 12.356L121.787 12.928C122.682 13.2213 123.335 13.61 123.745 14.094C124.171 14.578 124.383 15.194 124.383 15.942C124.383 17.0273 124.017 17.8633 123.283 18.45C122.55 19.0367 121.516 19.33 120.181 19.33C118.949 19.33 117.842 19.1027 116.859 18.648L116.683 17.548ZM128.067 14.6L127.869 3.6L129.277 3.424L129.079 14.6H128.067ZM128.573 19.11C128.279 19.11 128.037 19.022 127.847 18.846C127.656 18.6553 127.561 18.406 127.561 18.098C127.561 17.79 127.656 17.548 127.847 17.372C128.037 17.1813 128.279 17.086 128.573 17.086C128.866 17.086 129.108 17.1813 129.299 17.372C129.489 17.548 129.585 17.79 129.585 18.098C129.585 18.406 129.489 18.6553 129.299 18.846C129.108 19.022 128.866 19.11 128.573 19.11Z" fill="#013D5B"/>
</g>
<defs>
<clipPath id="clip0_11121_4428">
<rect width="132" height="26" fill="white"/>
</clipPath>
</defs>
</svg>
