<svg width="133" height="54" viewBox="0 0 133 54" fill="none" xmlns="http://www.w3.org/2000/svg">
<g clip-path="url(#clip0_2016_2497)">
<path d="M111.136 0.200684L110.635 2.87325H28.234C25.8156 1.76581 23.0965 1.40307 20.4527 1.8352C17.8089 2.26732 15.3711 3.47296 13.4763 5.2854C13.1856 5.5629 12.9039 5.85748 12.6445 6.13926C12.1113 6.75525 11.6411 7.4186 11.2403 8.1202C11.0435 8.47029 10.8602 8.83744 10.6947 9.2046C10.0213 10.728 9.67441 12.3647 9.67441 14.0182C9.67441 15.6717 10.0213 17.3084 10.6947 18.8318C10.7708 18.9983 12.3315 22.6742 13.8699 26.35H5.5698L0.467224 53.6094H22.3354L22.8407 50.9497H118.631L127.781 42.3556L130.621 26.286L128.573 24.2538L133 0.204952L111.136 0.200684Z" fill="#C7CFDA"/>
<path d="M112.16 1.37048L111.655 4.03879H27.9478C25.7415 2.96728 23.2366 2.5901 20.792 2.9613C18.3473 3.3325 16.0886 4.43302 14.3394 6.10512C14.0736 6.35894 13.8214 6.62539 13.5836 6.90348C13.1027 7.45812 12.6789 8.05574 12.3181 8.68804C12.1392 9.00823 11.9692 9.33697 11.8217 9.6657C11.2136 11.0456 10.9004 12.5276 10.9004 14.0246C10.9004 15.5217 11.2136 17.0037 11.8217 18.3836C11.9066 18.5757 14.1561 23.908 15.6855 27.5284H6.59388L1.92957 52.4396H21.3158L21.763 49.9933H117.965L126.659 41.6939L129.306 26.666L127.262 24.6295L131.542 1.37048H112.16Z" fill="#231F20"/>
<path d="M114.862 43.7004L111.941 46.5523H115.403H116.686L119.584 43.7004H115.604H114.862Z" fill="#72808A"/>
<path d="M87.2825 43.7004H85.932L82.9447 46.5523H83.6736H86.1958L89.1563 43.7004H87.2825Z" fill="#72808A"/>
<path d="M44.8207 43.7004H43.4791L40.5097 46.5438H44.5703L47.5308 43.6919L44.8207 43.7004Z" fill="#72808A"/>
<path d="M55.3926 43.7004H54.7531L51.7658 46.5438H55.1332L58.0937 43.6919L55.3926 43.7004Z" fill="#72808A"/>
<path d="M50.6791 43.7004H49.4716L46.4843 46.5438H49.7757L52.7362 43.6919L50.6791 43.7004Z" fill="#72808A"/>
<path d="M67.3776 43.7004H66.6978L63.7105 46.5523H69.229H70.906L73.8665 43.7004H67.7935H67.3776Z" fill="#72808A"/>
<path d="M62.2079 43.7004H60.7232L57.7404 46.5523H59.9496H61.3269H62.0246L64.9851 43.7004H62.2079Z" fill="#72808A"/>
<path d="M79.6041 43.7047H78.4905L75.5122 46.5438H79.3984L82.2962 43.6919H82.1621L79.6041 43.7047Z" fill="#72808A"/>
<path d="M91.3968 43.6962H91.124L88.2038 46.548H95.9359L98.8337 43.6962H92.1257H91.3968Z" fill="#72808A"/>
<path d="M103.221 43.7004L100.301 46.5523H103.766H105.05L107.948 43.7004H103.968H103.221Z" fill="#72808A"/>
<path d="M39.6824 43.7004H38.1843L35.2014 46.5523H36.0735H38.5957L41.5562 43.7004H39.6824Z" fill="#72808A"/>
<path d="M77.6722 40.2167L78.9601 33.262L80.02 27.5284L78.2804 25.8207H70.3515L67.3776 41.9714H75.2796L76.4781 41.1175L77.6722 40.2167ZM76.0086 29.2148L74.2913 38.5133C74.28 38.5765 74.2605 38.6382 74.2332 38.6968C74.1897 38.7793 74.1212 38.8474 74.0367 38.8923C73.9522 38.9372 73.8555 38.9569 73.7591 38.9487H71.6528L73.54 28.7964H75.6776C75.7411 28.7886 75.8054 28.8 75.8616 28.8292C75.9178 28.8583 75.963 28.9036 75.9907 28.9586C76.024 29.0402 76.0303 29.1296 76.0086 29.2148Z" fill="white"/>
<path d="M84.6575 33.2492L86.2271 41.1645C86.262 41.3877 86.3737 41.5935 86.5446 41.7494C86.7131 41.885 86.9281 41.9564 87.1484 41.95H89.8316L92.8055 25.7993H89.3486L87.7521 34.5215L86.0125 25.7993H82.5556L79.5862 41.95H82.1486C82.3948 41.9742 82.641 41.9056 82.8349 41.7588C83.0287 41.612 83.1548 41.3987 83.1862 41.1645L84.6575 33.2492Z" fill="white"/>
<path d="M112.12 40.285L112.21 40.2167L113.193 34.9356L113.368 33.9878L111.628 32.2801H107.518L108.077 29.2575C108.082 29.1959 108.1 29.1359 108.13 29.0809C108.159 29.026 108.2 28.9773 108.25 28.9375C108.299 28.8978 108.357 28.8679 108.418 28.8495C108.48 28.8311 108.545 28.8247 108.61 28.8305H110.081C110.3 28.8305 110.407 28.9245 110.43 29.0739C110.438 29.1319 110.438 29.1909 110.43 29.2489L110.296 30.0089L110.161 30.7688H112.965C113.211 30.7942 113.458 30.7268 113.653 30.5808C113.848 30.4348 113.975 30.2218 114.007 29.9875L114.455 27.5626L113.301 26.4184L112.715 25.8335H107.085L106.052 26.5806L104.71 27.5626L103.596 33.5865L105.341 35.2942H109.446L108.842 38.5474C108.831 38.6107 108.811 38.6724 108.784 38.731C108.74 38.8135 108.672 38.8816 108.588 38.9265C108.503 38.9714 108.406 38.991 108.31 38.9829H106.579C106.289 38.9829 106.19 38.8463 106.239 38.556L106.432 37.4929C106.454 37.3786 106.454 37.2614 106.432 37.1471C106.387 36.8525 106.159 36.7202 105.743 36.7202H102.868L102.215 40.2466L103.954 41.9799H109.804L110.998 41.1261L112.107 40.3277L112.12 40.285Z" fill="white"/>
<path d="M124.463 25.7993H118.855L117.822 26.5464L116.48 27.5284L115.367 33.5523L117.106 35.26H121.216L120.613 38.5132C120.601 38.5765 120.582 38.6382 120.554 38.6968C120.511 38.7793 120.442 38.8474 120.358 38.8923C120.273 38.9372 120.177 38.9569 120.08 38.9487H118.363C118.148 38.9487 118.037 38.8719 118.019 38.7182C118.008 38.6574 118.008 38.5953 118.019 38.5346L118.211 37.4715C118.283 37.0745 118.18 36.8311 117.889 36.7372C117.775 36.7022 117.656 36.6863 117.536 36.6903H114.656L114.007 40.2167L115.747 41.95H121.592L123.984 40.2167L125.147 33.9878L123.408 32.2801H119.298L119.852 29.2574C119.87 29.1516 119.918 29.0526 119.991 28.9714L120.022 28.933C120.124 28.8527 120.253 28.8116 120.384 28.8177H121.86C121.924 28.8099 121.988 28.8214 122.044 28.8505C122.1 28.8796 122.146 28.9249 122.173 28.9799C122.21 29.0606 122.219 29.1501 122.2 29.2361L122.066 29.996L121.932 30.7559H124.736C124.981 30.7813 125.228 30.7137 125.422 30.5676C125.616 30.4215 125.742 30.2086 125.773 29.9747L126.22 27.5497L126.153 27.4857L124.463 25.7993Z" fill="white"/>
<path d="M66.0002 41.9501L66.0807 38.8719L66.3893 26.7002C66.411 26.5179 66.367 26.334 66.2646 26.1788C66.1622 26.0236 66.0074 25.9063 65.8258 25.8463C65.696 25.8055 65.56 25.7853 65.4233 25.7866H60.8529L58.125 33.8598L55.3926 41.9373H58.4336C58.6552 41.9407 58.872 41.8747 59.0507 41.7494C59.2309 41.6008 59.3551 41.3998 59.404 41.1773L60.0301 39.0427H62.4002L62.2079 41.9287L66.0002 41.9501ZM60.8529 36.2292L63.0889 28.5915L62.5791 36.2292H60.8529Z" fill="white"/>
<path d="M100.685 41.22C100.685 41.1986 100.685 41.1858 100.685 41.1645L101.097 38.9487H96.3786L96.7185 37.1044L97.0539 35.26H99.7147C99.954 35.2698 100.189 35.1971 100.377 35.0551C100.558 34.9004 100.689 34.6987 100.752 34.4745L101.504 32.2587H97.6129L98.1316 29.3983L98.239 28.7964H101.96C102.196 28.8054 102.429 28.7426 102.626 28.617C102.728 28.5461 102.814 28.4562 102.878 28.3527C102.943 28.2493 102.985 28.1344 103.002 28.0151L103.292 26.3415L103.386 25.7993H95.0996L93.6104 33.8725L92.1257 41.95H99.6655C99.832 41.9501 99.9966 41.9167 100.149 41.8518C100.286 41.7974 100.407 41.7111 100.501 41.6008C100.594 41.4905 100.658 41.3596 100.685 41.22Z" fill="white"/>
<path d="M53.1208 41.95C53.2506 41.9505 53.3799 41.9347 53.5054 41.903C53.6164 41.8746 53.7203 41.8252 53.811 41.7578C53.9016 41.6903 53.9771 41.6061 54.0331 41.5103C54.098 41.4039 54.1405 41.2864 54.1583 41.1645L56.9891 25.795H51.6719L49.6997 31.4817L47.732 37.1684L48.0227 26.5806C48.0393 26.3693 47.9705 26.16 47.8304 25.9957C47.7495 25.9232 47.6536 25.8679 47.5488 25.8333C47.4439 25.7987 47.3327 25.7857 47.2222 25.795H42.6563L39.6824 41.9457H42.1375C42.3054 41.946 42.4715 41.9125 42.625 41.8475C42.7725 41.7901 42.9012 41.6961 42.9979 41.5753C43.0946 41.4544 43.1558 41.3111 43.175 41.1602L45.1606 30.3845L44.8207 41.95H47.9511C48.0868 41.9507 48.2221 41.9349 48.3536 41.903C48.5339 41.848 48.696 41.7489 48.8239 41.6156C48.9518 41.4823 49.0409 41.3194 49.0826 41.1431L52.8077 30.3888L50.6791 41.95H53.1208Z" fill="white"/>
<path d="M35.9259 39.0981H32.6434L33.672 33.6889H21.0788L21.5841 31.0292H9.49175L9.12952 33.0059H19.1066L18.4716 36.3487H8.51238L8.15014 38.3254H20.2022L20.7031 35.6656H31.1945L29.513 44.5073H18.968L19.4733 41.8475H7.5017L7.13947 43.8199H16.9958L16.3608 47.1671H6.52233L6.1601 49.1437H18.087L18.5923 46.484H31.2437L32.2678 41.0748H35.5592L35.9259 39.0981Z" fill="#0072BC"/>
<path d="M114.575 7.53952H101.924L100.895 12.9487H98.2032L97.8365 14.9254H100.52L99.4956 20.3303H112.084L111.583 22.9901H123.671L124.038 21.0176H114.056L114.692 17.6705H124.651L125.017 15.6981H112.965L112.46 18.3579H101.973L103.65 9.5162H114.2L113.694 12.176H125.666L126.028 10.1993H116.172L116.807 6.85644H126.641L127.007 4.87976H115.076L114.575 7.53952Z" fill="#0072BC"/>
<path d="M73.929 23.4128H79.4162L81.8087 21.6795L82.4348 18.264C82.4645 18.1659 82.4715 18.0627 82.4553 17.9617C82.4391 17.8607 82.4001 17.7643 82.3409 17.6791C82.2809 17.6101 82.2019 17.5583 82.1128 17.5297C81.9991 17.4931 81.8795 17.4758 81.7596 17.4785H78.884L78.4368 19.9717C78.4267 20.02 78.4117 20.0671 78.3921 20.1126C78.3555 20.2057 78.2881 20.2848 78.2001 20.3379C78.1122 20.3911 78.0084 20.4154 77.9047 20.4072H76.5631C76.5075 20.413 76.4512 20.4059 76.3991 20.3866C76.3469 20.3673 76.3004 20.3363 76.2634 20.2962C76.2113 20.2034 76.197 20.0954 76.2232 19.9931L77.9136 10.6818C77.9276 10.5586 77.9861 10.4438 78.0791 10.3573C78.1819 10.2764 78.3127 10.2353 78.4458 10.242H79.7874C80.0781 10.242 80.1765 10.4043 80.1273 10.669L79.6801 13.0683H82.484C82.7302 13.0786 82.9728 13.0095 83.1727 12.8719C83.2641 12.8065 83.3403 12.7236 83.3963 12.6286C83.4593 12.5213 83.5017 12.4042 83.5215 12.2828L84.1744 8.97407L82.4125 7.26636H76.9253L74.5328 8.97407L72.1894 21.6795L73.929 23.4128Z" fill="white"/>
<path d="M34.4904 23.4128C34.7366 23.4238 34.9795 23.3545 35.1791 23.2164C35.3711 23.0707 35.4962 22.8594 35.5279 22.6272L37.509 11.8516L37.2183 23.4128H40.3487C40.5343 23.4303 40.7215 23.3999 40.8906 23.3248C41.0597 23.2497 41.2046 23.1326 41.3102 22.9858C41.3824 22.873 41.4409 22.7527 41.4846 22.6272L45.2053 11.8729L43.0319 23.4128H45.4736C45.7198 23.4231 45.9624 23.3539 46.1623 23.2164C46.3544 23.0707 46.4795 22.8594 46.5112 22.6272L49.3375 7.25781H44.0337L40.0938 18.6312L40.3845 8.04336C40.3845 7.53532 40.143 7.25781 39.5885 7.25781H35.0225L32.0486 23.4085H34.4904V23.4128Z" fill="white"/>
<path d="M48.8455 20.2364L47.7722 23.4127H50.7685C50.8939 23.4137 51.0189 23.3979 51.1397 23.3658C51.3531 23.3056 51.5331 23.1676 51.6405 22.9815C51.702 22.8764 51.7501 22.7646 51.7836 22.6485L52.4097 20.5139H54.7799L54.5831 23.3999H58.3799L58.7645 8.15005C58.7662 8.01953 58.745 7.88966 58.7019 7.76581C58.6621 7.65867 58.5961 7.56209 58.5096 7.48404C58.4231 7.40481 58.3192 7.34501 58.2055 7.309C58.0702 7.273 57.9297 7.25858 57.7896 7.26631H53.2192L50.4868 15.3353L48.8455 20.2364ZM55.4641 10.0542L54.9588 17.6919H53.2192L55.4641 10.0542Z" fill="white"/>
<path d="M62.5478 23.4128C62.6765 23.4143 62.8047 23.3971 62.9279 23.3616C63.0406 23.3351 63.1459 23.2856 63.2365 23.2164C63.4333 23.0758 63.5648 22.8675 63.6032 22.6358L64.5468 17.5809H65.7811L66.3177 20.5011L66.8722 23.4213H69.9401C70.0619 23.4306 70.1839 23.4052 70.2906 23.3482C70.3973 23.2911 70.4839 23.2052 70.5393 23.1011C70.6112 22.9561 70.6301 22.7923 70.593 22.6358L69.4571 17.0857L69.8461 16.7997L71.1251 15.8604L72.3818 9.02957L70.6422 7.26636H62.7088L59.7349 23.4171L62.5478 23.4128ZM65.8839 10.2549H68.0305C68.0865 10.2492 68.1431 10.2568 68.1954 10.2769C68.2476 10.297 68.2939 10.329 68.3301 10.3701C68.3582 10.4153 68.3762 10.4656 68.3832 10.5177C68.3901 10.5698 68.3857 10.6228 68.3704 10.6732L67.7443 14.1314C67.7318 14.2549 67.6691 14.3688 67.5695 14.4486C67.47 14.5284 67.3417 14.5678 67.2121 14.5583H65.0834L65.8839 10.2549Z" fill="white"/>
<path d="M83.4008 23.4128H86.2048C86.45 23.4372 86.6956 23.3699 86.89 23.225C87.0843 23.0801 87.2122 22.8689 87.2467 22.6358L87.6716 20.2919L88.2842 16.9619H90.8467L89.6616 23.4213H92.4656C92.7117 23.4455 92.958 23.3769 93.1518 23.2301C93.3457 23.0834 93.4717 22.8701 93.5031 22.6358L96.3339 7.26636H92.6355L92.0318 10.5537L91.4236 13.8411H88.8656L90.0731 7.26636H86.3747L84.89 15.3353L83.4008 23.4128Z" fill="white"/>
<path d="M36.5788 25.001L31.4136 30.0857H35.0851L37.5895 27.6351L40.2816 25.001H37.5224H36.5788Z" fill="#72808A"/>
<path d="M25.5374 30.0857H29.0121L34.1952 25.001H32.3751H30.7025L25.5374 30.0857Z" fill="#72808A"/>
<path d="M126.708 28.2625C126.711 28.1643 126.743 28.069 126.803 27.9886C126.862 27.9082 126.944 27.8462 127.04 27.8104C127.136 27.7745 127.241 27.7664 127.341 27.7871C127.442 27.8078 127.534 27.8564 127.606 27.9267C127.677 27.997 127.726 28.086 127.745 28.1825C127.764 28.279 127.753 28.3787 127.713 28.4692C127.673 28.5597 127.606 28.637 127.52 28.6913C127.435 28.7456 127.334 28.7746 127.231 28.7746C127.161 28.7747 127.092 28.7613 127.028 28.7354C126.963 28.7096 126.905 28.6716 126.856 28.6239C126.808 28.5762 126.769 28.5196 126.744 28.4575C126.718 28.3954 126.706 28.3291 126.708 28.2625ZM127.231 28.8771C127.358 28.8754 127.482 28.8379 127.586 28.7694C127.691 28.7008 127.772 28.6043 127.82 28.4918C127.867 28.3794 127.879 28.2561 127.853 28.1374C127.827 28.0188 127.765 27.9101 127.674 27.825C127.584 27.7399 127.469 27.6822 127.345 27.6591C127.22 27.6361 127.091 27.6488 126.974 27.6955C126.857 27.7423 126.757 27.8211 126.686 27.9219C126.616 28.0228 126.578 28.1413 126.578 28.2625C126.578 28.3441 126.594 28.425 126.627 28.5004C126.66 28.5757 126.708 28.6441 126.769 28.7014C126.83 28.7587 126.902 28.8038 126.981 28.834C127.061 28.8641 127.146 28.8788 127.231 28.8771ZM127.097 28.3094H127.227L127.419 28.6167H127.553L127.338 28.3052C127.365 28.3052 127.391 28.3001 127.415 28.2901C127.44 28.2801 127.461 28.2654 127.479 28.247C127.497 28.2285 127.511 28.2068 127.52 28.183C127.529 28.1592 127.533 28.134 127.531 28.1088C127.531 27.9723 127.446 27.9082 127.271 27.9082H126.99V28.6125H127.106L127.097 28.3094ZM127.097 28.2198V27.9979H127.249C127.33 27.9979 127.41 27.9979 127.41 28.1046C127.41 28.2113 127.325 28.2198 127.231 28.2198H127.097Z" fill="white"/>
<path d="M22.5814 21.9697C27.1901 21.9697 30.9261 18.403 30.9261 14.0032C30.9261 9.60346 27.1901 6.03674 22.5814 6.03674C17.9727 6.03674 14.2366 9.60346 14.2366 14.0032C14.2366 18.403 17.9727 21.9697 22.5814 21.9697Z" fill="white"/>
<path d="M28.9987 17.7219H29.9647C28.9574 19.5814 27.2243 20.988 25.1397 21.6378C23.0552 22.2876 20.7865 22.1283 18.8239 21.1945C16.8613 20.2607 15.3623 18.6272 14.6507 16.647C13.9392 14.6668 14.0723 12.4988 15.0212 10.6115C15.9701 8.72422 17.6587 7.26907 19.7222 6.56047C21.7856 5.85186 24.0582 5.94669 26.049 6.82446C28.0399 7.70223 29.589 9.29248 30.3618 11.2516C31.1347 13.2108 31.0691 15.3815 30.1793 17.2949L29.9378 13.9393H27.7734L27.5185 14.7931H27.8539L26.7851 16.4112L26.633 13.9307H24.4373L24.1868 14.7846H24.5222L23.0912 16.8595H21.9106C21.7449 16.8485 21.5899 16.7774 21.4776 16.6606C21.3653 16.5438 21.3042 16.3904 21.3068 16.2319C21.3068 15.6641 21.8703 14.8444 22.4427 14.8444H22.6842L22.559 15.2713H23.6099L23.9856 13.9606H22.3667C21.9136 13.9683 21.4734 14.1054 21.1027 14.3542C20.7321 14.6031 20.448 14.9522 20.2872 15.3567L20.7076 13.9606H19.2676L19.0127 14.8145H19.3883L19.0127 16.0953L18.0646 13.9606H16.723L16.4726 14.8145H16.8393L16.003 17.7261H17.0942C17.0942 17.7261 17.5101 16.2788 17.6174 15.9117L18.4045 17.7261H19.6075L20.1575 15.8733C20.1075 16.1559 20.1075 16.4445 20.1575 16.7271C20.2263 17.0258 20.4048 17.2912 20.6607 17.4752C20.9166 17.6592 21.2331 17.7498 21.5528 17.7304H23.7128L24.0884 17.1839H25.6268L25.6581 17.7304H26.9997L27.3798 17.1754H28.954L28.9987 17.7219ZM28.0506 16.2618H28.945L28.9048 15.0536L28.0506 16.2618ZM24.7056 16.2618H25.6L25.5553 15.0493L24.7056 16.2618Z" fill="#00A3DE"/>
<path d="M30.9306 17.7218C30.7967 17.721 30.6655 17.7582 30.5538 17.8286C30.4421 17.8991 30.3548 17.9997 30.3031 18.1177C30.2515 18.2356 30.2377 18.3655 30.2636 18.491C30.2896 18.6164 30.354 18.7316 30.4487 18.822C30.5434 18.9124 30.6641 18.9738 30.7955 18.9986C30.9269 19.0233 31.0631 19.0102 31.1866 18.9609C31.3102 18.9116 31.4156 18.8283 31.4895 18.7217C31.5633 18.615 31.6023 18.4898 31.6014 18.362C31.602 18.2778 31.5851 18.1943 31.5516 18.1164C31.5181 18.0384 31.4687 17.9676 31.4063 17.9081C31.3439 17.8485 31.2697 17.8014 31.188 17.7694C31.1064 17.7374 31.0189 17.7212 30.9306 17.7218ZM31.4583 18.362C31.4592 18.4628 31.4286 18.5616 31.3705 18.6458C31.3124 18.73 31.2293 18.7957 31.1319 18.8347C31.0345 18.8736 30.9271 18.8841 30.8234 18.8646C30.7198 18.8451 30.6246 18.7967 30.5499 18.7254C30.4752 18.6541 30.4244 18.5632 30.404 18.4643C30.3836 18.3654 30.3945 18.2629 30.4354 18.1699C30.4762 18.077 30.5451 17.9977 30.6333 17.9422C30.7215 17.8867 30.825 17.8575 30.9306 17.8584C31.0005 17.8578 31.0697 17.8706 31.1343 17.896C31.1989 17.9213 31.2575 17.9588 31.3067 18.0061C31.3559 18.0535 31.3946 18.1097 31.4207 18.1716C31.4467 18.2334 31.4595 18.2996 31.4583 18.3663V18.362Z" fill="#00A3DE"/>
<path d="M31.2526 18.2255C31.2491 18.1606 31.219 18.0996 31.1688 18.0557C31.1186 18.0117 31.0524 17.9884 30.9843 17.9908H30.6578V18.7419H30.8099V18.456H30.9038L31.0961 18.7419H31.275L31.0737 18.4517C31.1253 18.4377 31.1707 18.4081 31.203 18.3673C31.2353 18.3264 31.2527 18.2767 31.2526 18.2255ZM31.1006 18.2255C31.0994 18.2542 31.0867 18.2813 31.065 18.3012C31.0433 18.3211 31.0144 18.3322 30.9843 18.3322H30.8099V18.1145H30.9843C30.9996 18.1145 31.0147 18.1174 31.0288 18.123C31.0429 18.1286 31.0557 18.1367 31.0665 18.147C31.0773 18.1573 31.0859 18.1696 31.0917 18.183C31.0976 18.1965 31.1006 18.2109 31.1006 18.2255Z" fill="#00A3DE"/>
</g>
<defs>
<clipPath id="clip0_2016_2497">
<rect width="132.533" height="53.4087" fill="white" transform="translate(0.467224 0.200684)"/>
</clipPath>
</defs>
</svg>
