<svg width="276" height="56" viewBox="0 0 276 56" fill="none" xmlns="http://www.w3.org/2000/svg">
<path d="M0.594006 18.279C2.48401 19.107 4.27501 19.521 5.96701 19.521C7.56901 19.521 8.80201 19.17 9.66601 18.468C10.548 17.748 10.989 16.722 10.989 15.39C10.989 14.382 10.701 13.572 10.125 12.96C9.54901 12.348 8.58601 11.835 7.23601 11.421L5.31901 10.827C3.84301 10.377 2.76301 9.79201 2.07901 9.07201C1.39501 8.33401 1.05301 7.39801 1.05301 6.26401C1.05301 4.73401 1.62901 3.51001 2.78101 2.59201C3.95101 1.65601 5.50801 1.18801 7.45201 1.18801C9.01801 1.18801 10.53 1.52101 11.988 2.18701V3.53701C10.44 2.88901 8.94601 2.56501 7.50601 2.56501C6.03001 2.56501 4.87801 2.88901 4.05001 3.53701C3.22201 4.16701 2.80801 5.05801 2.80801 6.21001C2.80801 7.02001 3.04201 7.65901 3.51001 8.12701C3.97801 8.59501 4.79701 9.01801 5.96701 9.39601L7.88401 10.017C9.61201 10.575 10.854 11.277 11.61 12.123C12.366 12.951 12.744 14.031 12.744 15.363C12.744 17.073 12.141 18.423 10.935 19.413C9.74701 20.403 8.11801 20.898 6.04801 20.898C4.14001 20.898 2.41201 20.511 0.864006 19.737L0.594006 18.279ZM25.2473 20.493V11.124C25.2473 8.91001 24.1223 7.80301 21.8723 7.80301C21.2783 7.80301 20.6213 7.90201 19.9013 8.10001C19.1993 8.29801 18.5063 8.56801 17.8223 8.91001V20.493H16.2023V6.99301L17.5793 6.85801L17.6873 7.80301C19.2533 6.93901 20.7833 6.50701 22.2773 6.50701C23.7353 6.50701 24.8603 6.88501 25.6523 7.64101C26.4623 8.39701 26.8673 9.46801 26.8673 10.854V20.493H25.2473ZM39.5213 20.547L39.4133 19.602C37.8653 20.466 36.3353 20.898 34.8233 20.898C33.4373 20.898 32.3393 20.538 31.5293 19.818C30.7193 19.08 30.3143 18.072 30.3143 16.794C30.3143 15.444 30.7643 14.418 31.6643 13.716C32.5823 12.996 33.9233 12.636 35.6873 12.636C36.7493 12.636 37.9553 12.762 39.3053 13.014V11.178C39.3053 8.92801 38.0363 7.80301 35.4983 7.80301C34.8323 7.80301 34.1033 7.89301 33.3113 8.07301C32.5193 8.25301 31.7903 8.48701 31.1243 8.77501V7.50601C31.7723 7.20001 32.5103 6.95701 33.3383 6.77701C34.1843 6.59701 34.9853 6.50701 35.7413 6.50701C37.4333 6.50701 38.7113 6.91201 39.5753 7.72201C40.4573 8.51401 40.8983 9.66601 40.8983 11.178V20.412L39.5213 20.547ZM35.2013 19.602C35.8493 19.602 36.5333 19.503 37.2533 19.305C37.9733 19.107 38.6573 18.837 39.3053 18.495V14.175C38.1713 13.959 37.0553 13.851 35.9573 13.851C34.5713 13.851 33.5633 14.085 32.9333 14.553C32.3033 15.021 31.9883 15.759 31.9883 16.767C31.9883 18.657 33.0593 19.602 35.2013 19.602ZM49.6606 26.784C48.0586 26.784 46.6996 26.505 45.5836 25.947L45.3676 24.57C46.8436 25.182 48.2476 25.488 49.5796 25.488C52.5856 25.488 54.0886 24.093 54.0886 21.303V19.44C53.4046 19.818 52.7026 20.115 51.9826 20.331C51.2806 20.547 50.6236 20.655 50.0116 20.655C48.2476 20.655 46.8616 20.061 45.8536 18.873C44.8456 17.685 44.3416 16.038 44.3416 13.932C44.3416 11.538 44.9086 9.70201 46.0426 8.42401C47.1946 7.14601 48.8506 6.50701 51.0106 6.50701C52.6486 6.50701 54.2146 6.79501 55.7086 7.37101V21.168C55.7086 22.968 55.1866 24.354 54.1426 25.326C53.0986 26.298 51.6046 26.784 49.6606 26.784ZM50.2276 19.359C50.8216 19.359 51.4606 19.26 52.1446 19.062C52.8286 18.864 53.4766 18.594 54.0886 18.252V8.23501C53.1526 7.94701 52.1716 7.80301 51.1456 7.80301C49.4176 7.80301 48.1306 8.30701 47.2846 9.31501C46.4566 10.305 46.0426 11.835 46.0426 13.905C46.0426 15.687 46.3936 17.046 47.0956 17.982C47.8156 18.9 48.8596 19.359 50.2276 19.359ZM65.1765 18.441C66.7605 19.215 68.3895 19.602 70.0635 19.602C71.5755 19.602 72.7815 19.233 73.6815 18.495C74.5815 17.757 75.0315 16.758 75.0315 15.498C75.0315 14.274 74.6085 13.293 73.7625 12.555C72.9165 11.817 71.7735 11.448 70.3335 11.448H68.7405V10.152H70.2795C71.5755 10.152 72.6015 9.82801 73.3575 9.18001C74.1135 8.53201 74.4915 7.65901 74.4915 6.56101C74.4915 5.40901 74.1045 4.50901 73.3305 3.86101C72.5565 3.21301 71.4855 2.88901 70.1175 2.88901C68.6775 2.88901 67.2645 3.18601 65.8785 3.78001V2.48401C67.1745 1.89001 68.6325 1.59301 70.2525 1.59301C71.9985 1.59301 73.4205 2.05201 74.5185 2.97001C75.6345 3.87001 76.1925 5.03101 76.1925 6.45301C76.1925 7.49701 75.8865 8.39701 75.2745 9.15301C74.6805 9.90901 73.8435 10.449 72.7635 10.773C74.0055 11.079 74.9775 11.664 75.6795 12.528C76.3815 13.374 76.7325 14.382 76.7325 15.552C76.7325 16.614 76.4445 17.559 75.8685 18.387C75.3105 19.197 74.5365 19.818 73.5465 20.25C72.5745 20.682 71.4675 20.898 70.2255 20.898C69.3615 20.898 68.4975 20.799 67.6335 20.601C66.7695 20.421 66.0315 20.169 65.4195 19.845L65.1765 18.441ZM84.9135 20.493L94.6875 1.99801H96.1455L86.3715 20.493H84.9135ZM83.6175 12.636C84.5715 12.636 85.2735 12.24 85.7235 11.448C86.1915 10.656 86.4255 9.41401 86.4255 7.72201C86.4255 6.03001 86.1915 4.78801 85.7235 3.99601C85.2735 3.20401 84.5715 2.80801 83.6175 2.80801C82.6635 2.80801 81.9525 3.20401 81.4845 3.99601C81.0345 4.78801 80.8095 6.03001 80.8095 7.72201C80.8095 9.41401 81.0345 10.656 81.4845 11.448C81.9525 12.24 82.6635 12.636 83.6175 12.636ZM83.6175 13.716C82.2315 13.716 81.1695 13.212 80.4315 12.204C79.6935 11.178 79.3245 9.68401 79.3245 7.72201C79.3245 5.76001 79.6935 4.27501 80.4315 3.26701C81.1695 2.24101 82.2315 1.72801 83.6175 1.72801C85.0035 1.72801 86.0655 2.24101 86.8035 3.26701C87.5415 4.27501 87.9105 5.76001 87.9105 7.72201C87.9105 9.68401 87.5415 11.178 86.8035 12.204C86.0655 13.212 85.0035 13.716 83.6175 13.716ZM97.4415 19.683C98.3955 19.683 99.0975 19.287 99.5475 18.495C100.016 17.703 100.25 16.461 100.25 14.769C100.25 13.077 100.016 11.835 99.5475 11.043C99.0975 10.251 98.3955 9.85501 97.4415 9.85501C96.4875 9.85501 95.7765 10.251 95.3085 11.043C94.8585 11.835 94.6335 13.077 94.6335 14.769C94.6335 16.461 94.8585 17.703 95.3085 18.495C95.7765 19.287 96.4875 19.683 97.4415 19.683ZM97.4415 20.763C96.0555 20.763 94.9935 20.259 94.2555 19.251C93.5175 18.225 93.1485 16.731 93.1485 14.769C93.1485 12.807 93.5175 11.322 94.2555 10.314C94.9935 9.28801 96.0555 8.77501 97.4415 8.77501C98.8275 8.77501 99.8895 9.28801 100.628 10.314C101.366 11.322 101.735 12.807 101.735 14.769C101.735 16.731 101.366 18.225 100.628 19.251C99.8895 20.259 98.8275 20.763 97.4415 20.763ZM120.826 20.007C119.638 20.601 118.342 20.898 116.938 20.898C115.03 20.898 113.554 20.277 112.51 19.035C111.484 17.793 110.971 16.02 110.971 13.716C110.971 11.412 111.484 9.63901 112.51 8.39701C113.554 7.13701 115.03 6.50701 116.938 6.50701C118.288 6.50701 119.566 6.80401 120.772 7.39801V8.66701C119.512 8.10901 118.288 7.83001 117.1 7.83001C115.642 7.83001 114.535 8.32501 113.779 9.31501C113.041 10.305 112.672 11.772 112.672 13.716C112.672 15.642 113.041 17.1 113.779 18.09C114.535 19.08 115.642 19.575 117.1 19.575C118.324 19.575 119.566 19.296 120.826 18.738V20.007ZM132.624 20.547L132.516 19.602C130.968 20.466 129.438 20.898 127.926 20.898C126.54 20.898 125.442 20.538 124.632 19.818C123.822 19.08 123.417 18.072 123.417 16.794C123.417 15.444 123.867 14.418 124.767 13.716C125.685 12.996 127.026 12.636 128.79 12.636C129.852 12.636 131.058 12.762 132.408 13.014V11.178C132.408 8.92801 131.139 7.80301 128.601 7.80301C127.935 7.80301 127.206 7.89301 126.414 8.07301C125.622 8.25301 124.893 8.48701 124.227 8.77501V7.50601C124.875 7.20001 125.613 6.95701 126.441 6.77701C127.287 6.59701 128.088 6.50701 128.844 6.50701C130.536 6.50701 131.814 6.91201 132.678 7.72201C133.56 8.51401 134.001 9.66601 134.001 11.178V20.412L132.624 20.547ZM128.304 19.602C128.952 19.602 129.636 19.503 130.356 19.305C131.076 19.107 131.76 18.837 132.408 18.495V14.175C131.274 13.959 130.158 13.851 129.06 13.851C127.674 13.851 126.666 14.085 126.036 14.553C125.406 15.021 125.091 15.759 125.091 16.767C125.091 18.657 126.162 19.602 128.304 19.602ZM137.282 18.711C138.632 19.305 140.027 19.602 141.467 19.602C143.897 19.602 145.112 18.657 145.112 16.767C145.112 16.155 144.932 15.66 144.572 15.282C144.23 14.904 143.654 14.589 142.844 14.337L140.792 13.689C139.64 13.329 138.803 12.879 138.281 12.339C137.759 11.781 137.498 11.079 137.498 10.233C137.498 9.09901 137.939 8.19901 138.821 7.53301C139.721 6.84901 140.927 6.50701 142.439 6.50701C143.717 6.50701 144.932 6.75001 146.084 7.23601V8.50501C144.878 8.03701 143.69 7.80301 142.52 7.80301C141.458 7.80301 140.621 8.01901 140.009 8.45101C139.415 8.86501 139.118 9.44101 139.118 10.179C139.118 10.701 139.28 11.124 139.604 11.448C139.946 11.754 140.549 12.051 141.413 12.339L143.546 13.041C144.644 13.401 145.445 13.878 145.949 14.472C146.471 15.066 146.732 15.822 146.732 16.74C146.732 18.072 146.282 19.098 145.382 19.818C144.482 20.538 143.213 20.898 141.575 20.898C140.063 20.898 138.704 20.619 137.498 20.061L137.282 18.711ZM150.227 20.493V0.21601L151.847 9.77516e-06V7.74901C153.359 6.92101 154.844 6.50701 156.302 6.50701C157.76 6.50701 158.885 6.88501 159.677 7.64101C160.487 8.39701 160.892 9.46801 160.892 10.854V20.493H159.272V11.124C159.272 8.91001 158.147 7.80301 155.897 7.80301C155.303 7.80301 154.646 7.90201 153.926 8.10001C153.224 8.29801 152.531 8.56801 151.847 8.91001V20.493H150.227ZM173.6 7.72201C174.284 7.34401 174.977 7.04701 175.679 6.83101C176.399 6.61501 177.065 6.50701 177.677 6.50701C179.441 6.50701 180.827 7.12801 181.835 8.37001C182.843 9.59401 183.347 11.295 183.347 13.473C183.347 15.867 182.771 17.703 181.619 18.981C180.485 20.259 178.838 20.898 176.678 20.898C175.148 20.898 173.582 20.646 171.98 20.142V0.21601L173.6 9.77516e-06V7.72201ZM177.461 7.80301C176.867 7.80301 176.228 7.90201 175.544 8.10001C174.86 8.29801 174.212 8.56801 173.6 8.91001V19.17C174.536 19.458 175.517 19.602 176.543 19.602C178.271 19.602 179.549 19.107 180.377 18.117C181.223 17.109 181.646 15.57 181.646 13.5C181.646 11.646 181.286 10.233 180.566 9.26101C179.864 8.28901 178.829 7.80301 177.461 7.80301ZM195.299 20.547L195.191 19.602C193.643 20.466 192.113 20.898 190.601 20.898C189.215 20.898 188.117 20.538 187.307 19.818C186.497 19.08 186.092 18.072 186.092 16.794C186.092 15.444 186.542 14.418 187.442 13.716C188.36 12.996 189.701 12.636 191.465 12.636C192.527 12.636 193.733 12.762 195.083 13.014V11.178C195.083 8.92801 193.814 7.80301 191.276 7.80301C190.61 7.80301 189.881 7.89301 189.089 8.07301C188.297 8.25301 187.568 8.48701 186.902 8.77501V7.50601C187.55 7.20001 188.288 6.95701 189.116 6.77701C189.962 6.59701 190.763 6.50701 191.519 6.50701C193.211 6.50701 194.489 6.91201 195.353 7.72201C196.235 8.51401 196.676 9.66601 196.676 11.178V20.412L195.299 20.547ZM190.979 19.602C191.627 19.602 192.311 19.503 193.031 19.305C193.751 19.107 194.435 18.837 195.083 18.495V14.175C193.949 13.959 192.833 13.851 191.735 13.851C190.349 13.851 189.341 14.085 188.711 14.553C188.081 15.021 187.766 15.759 187.766 16.767C187.766 18.657 188.837 19.602 190.979 19.602ZM209.974 20.007C208.786 20.601 207.49 20.898 206.086 20.898C204.178 20.898 202.702 20.277 201.658 19.035C200.632 17.793 200.119 16.02 200.119 13.716C200.119 11.412 200.632 9.63901 201.658 8.39701C202.702 7.13701 204.178 6.50701 206.086 6.50701C207.436 6.50701 208.714 6.80401 209.92 7.39801V8.66701C208.66 8.10901 207.436 7.83001 206.248 7.83001C204.79 7.83001 203.683 8.32501 202.927 9.31501C202.189 10.305 201.82 11.772 201.82 13.716C201.82 15.642 202.189 17.1 202.927 18.09C203.683 19.08 204.79 19.575 206.248 19.575C207.472 19.575 208.714 19.296 209.974 18.738V20.007ZM213.455 20.493V0.21601L215.075 9.77516e-06V12.933L221.447 6.91201H223.364L216.695 13.23L223.58 20.493H221.528L215.075 13.635V20.493H213.455ZM237.673 20.898C235.711 20.898 234.226 20.295 233.218 19.089C232.228 17.865 231.733 16.065 231.733 13.689C231.733 11.331 232.228 9.54901 233.218 8.34301C234.226 7.11901 235.711 6.50701 237.673 6.50701C239.635 6.50701 241.111 7.11901 242.101 8.34301C243.109 9.54901 243.613 11.331 243.613 13.689C243.613 16.065 243.109 17.865 242.101 19.089C241.111 20.295 239.635 20.898 237.673 20.898ZM237.673 19.602C239.149 19.602 240.22 19.134 240.886 18.198C241.57 17.244 241.912 15.741 241.912 13.689C241.912 11.655 241.57 10.17 240.886 9.23401C240.22 8.28001 239.149 7.80301 237.673 7.80301C236.197 7.80301 235.117 8.28001 234.433 9.23401C233.767 10.17 233.434 11.655 233.434 13.689C233.434 15.741 233.767 17.244 234.433 18.198C235.117 19.134 236.197 19.602 237.673 19.602ZM256.303 20.493V11.124C256.303 8.91001 255.178 7.80301 252.928 7.80301C252.334 7.80301 251.677 7.90201 250.957 8.10001C250.255 8.29801 249.562 8.56801 248.878 8.91001V20.493H247.258V6.99301L248.635 6.85801L248.743 7.80301C250.309 6.93901 251.839 6.50701 253.333 6.50701C254.791 6.50701 255.916 6.88501 256.708 7.64101C257.518 8.39701 257.923 9.46801 257.923 10.854V20.493H256.303ZM2.05201 55.493V43.154H5.90645e-06V41.993L2.05201 41.912V38.861C2.05201 37.529 2.37601 36.512 3.02401 35.81C3.69001 35.09 4.65301 34.73 5.91301 34.73C6.59701 34.73 7.29001 34.856 7.99201 35.108V36.296C7.34401 36.098 6.72301 35.999 6.12901 35.999C5.28301 35.999 4.66201 36.224 4.26601 36.674C3.87001 37.106 3.67201 37.79 3.67201 38.726V41.912H7.31701V43.154H3.67201V55.493H2.05201ZM15.1078 55.898C13.1458 55.898 11.6608 55.295 10.6528 54.089C9.66277 52.865 9.16777 51.065 9.16777 48.689C9.16777 46.331 9.66277 44.549 10.6528 43.343C11.6608 42.119 13.1458 41.507 15.1078 41.507C17.0698 41.507 18.5458 42.119 19.5358 43.343C20.5438 44.549 21.0478 46.331 21.0478 48.689C21.0478 51.065 20.5438 52.865 19.5358 54.089C18.5458 55.295 17.0698 55.898 15.1078 55.898ZM15.1078 54.602C16.5838 54.602 17.6548 54.134 18.3208 53.198C19.0048 52.244 19.3468 50.741 19.3468 48.689C19.3468 46.655 19.0048 45.17 18.3208 44.234C17.6548 43.28 16.5838 42.803 15.1078 42.803C13.6318 42.803 12.5518 43.28 11.8678 44.234C11.2018 45.17 10.8688 46.655 10.8688 48.689C10.8688 50.741 11.2018 52.244 11.8678 53.198C12.5518 54.134 13.6318 54.602 15.1078 54.602ZM29.7416 55.898C27.7796 55.898 26.2946 55.295 25.2866 54.089C24.2966 52.865 23.8016 51.065 23.8016 48.689C23.8016 46.331 24.2966 44.549 25.2866 43.343C26.2946 42.119 27.7796 41.507 29.7416 41.507C31.7036 41.507 33.1796 42.119 34.1696 43.343C35.1776 44.549 35.6816 46.331 35.6816 48.689C35.6816 51.065 35.1776 52.865 34.1696 54.089C33.1796 55.295 31.7036 55.898 29.7416 55.898ZM29.7416 54.602C31.2176 54.602 32.2886 54.134 32.9546 53.198C33.6386 52.244 33.9806 50.741 33.9806 48.689C33.9806 46.655 33.6386 45.17 32.9546 44.234C32.2886 43.28 31.2176 42.803 29.7416 42.803C28.2656 42.803 27.1856 43.28 26.5016 44.234C25.8356 45.17 25.5026 46.655 25.5026 48.689C25.5026 50.741 25.8356 52.244 26.5016 53.198C27.1856 54.134 28.2656 54.602 29.7416 54.602ZM49.8024 35V55.412L48.4254 55.547L48.3174 54.602C46.7874 55.466 45.3833 55.898 44.1053 55.898C42.3413 55.898 40.9553 55.286 39.9473 54.062C38.9393 52.82 38.4353 51.11 38.4353 48.932C38.4353 46.538 39.0023 44.702 40.1363 43.424C41.2883 42.146 42.9443 41.507 45.1043 41.507C46.2203 41.507 47.2464 41.651 48.1824 41.939V35.216L49.8024 35ZM44.3214 54.602C44.9154 54.602 45.5543 54.503 46.2383 54.305C46.9224 54.107 47.5704 53.837 48.1824 53.495V43.235C47.2464 42.947 46.2653 42.803 45.2393 42.803C43.5113 42.803 42.2244 43.307 41.3783 44.315C40.5503 45.305 40.1363 46.835 40.1363 48.905C40.1363 50.759 40.4873 52.172 41.1893 53.144C41.9093 54.116 42.9533 54.602 44.3214 54.602ZM69.3953 55.547L69.2873 54.602C67.7393 55.466 66.2093 55.898 64.6973 55.898C63.3113 55.898 62.2133 55.538 61.4033 54.818C60.5933 54.08 60.1883 53.072 60.1883 51.794C60.1883 50.444 60.6383 49.418 61.5383 48.716C62.4563 47.996 63.7973 47.636 65.5613 47.636C66.6233 47.636 67.8293 47.762 69.1793 48.014V46.178C69.1793 43.928 67.9103 42.803 65.3723 42.803C64.7063 42.803 63.9773 42.893 63.1853 43.073C62.3933 43.253 61.6643 43.487 60.9983 43.775V42.506C61.6463 42.2 62.3843 41.957 63.2123 41.777C64.0583 41.597 64.8593 41.507 65.6153 41.507C67.3073 41.507 68.5853 41.912 69.4493 42.722C70.3313 43.514 70.7723 44.666 70.7723 46.178V55.412L69.3953 55.547ZM65.0753 54.602C65.7233 54.602 66.4073 54.503 67.1273 54.305C67.8473 54.107 68.5313 53.837 69.1793 53.495V49.175C68.0453 48.959 66.9293 48.851 65.8313 48.851C64.4453 48.851 63.4373 49.085 62.8073 49.553C62.1773 50.021 61.8623 50.759 61.8623 51.767C61.8623 53.657 62.9333 54.602 65.0753 54.602ZM84.1516 55.493V46.124C84.1516 43.91 83.0266 42.803 80.7766 42.803C80.1826 42.803 79.5256 42.902 78.8056 43.1C78.1036 43.298 77.4106 43.568 76.7266 43.91V55.493H75.1066V41.993L76.4836 41.858L76.5916 42.803C78.1576 41.939 79.6876 41.507 81.1816 41.507C82.6396 41.507 83.7646 41.885 84.5566 42.641C85.3666 43.397 85.7716 44.468 85.7716 45.854V55.493H84.1516ZM100.586 35V55.412L99.2086 55.547L99.1006 54.602C97.5706 55.466 96.1666 55.898 94.8886 55.898C93.1246 55.898 91.7386 55.286 90.7306 54.062C89.7226 52.82 89.2186 51.11 89.2186 48.932C89.2186 46.538 89.7856 44.702 90.9196 43.424C92.0716 42.146 93.7276 41.507 95.8876 41.507C97.0036 41.507 98.0296 41.651 98.9656 41.939V35.216L100.586 35ZM95.1046 54.602C95.6986 54.602 96.3376 54.503 97.0216 54.305C97.7056 54.107 98.3536 53.837 98.9656 53.495V43.235C98.0296 42.947 97.0486 42.803 96.0226 42.803C94.2946 42.803 93.0076 43.307 92.1616 44.315C91.3336 45.305 90.9196 46.835 90.9196 48.905C90.9196 50.759 91.2706 52.172 91.9726 53.144C92.6926 54.116 93.7366 54.602 95.1046 54.602ZM112.24 55.493V43.154H110.188V41.993L112.24 41.912V38.861C112.24 37.529 112.564 36.512 113.212 35.81C113.878 35.09 114.841 34.73 116.101 34.73C116.785 34.73 117.478 34.856 118.18 35.108V36.296C117.532 36.098 116.911 35.999 116.317 35.999C115.471 35.999 114.85 36.224 114.454 36.674C114.058 37.106 113.86 37.79 113.86 38.726V41.912H117.505V43.154H113.86V55.493H112.24ZM121.942 41.912V51.281C121.942 53.495 123.031 54.602 125.209 54.602C125.803 54.602 126.451 54.503 127.153 54.305C127.873 54.107 128.575 53.837 129.259 53.495V41.912H130.879V55.412L129.502 55.547L129.394 54.602C127.828 55.466 126.298 55.898 124.804 55.898C123.382 55.898 122.275 55.52 121.483 54.764C120.709 53.99 120.322 52.919 120.322 51.551V41.912H121.942ZM144.453 55.493V46.124C144.453 43.91 143.328 42.803 141.078 42.803C140.484 42.803 139.827 42.902 139.107 43.1C138.405 43.298 137.712 43.568 137.028 43.91V55.493H135.408V41.993L136.785 41.858L136.893 42.803C138.459 41.939 139.989 41.507 141.483 41.507C142.941 41.507 144.066 41.885 144.858 42.641C145.668 43.397 146.073 44.468 146.073 45.854V55.493H144.453ZM168.231 55.493L164.586 43.721L161.049 55.493H159.51L155.19 41.912H156.837L160.293 53.495L163.695 41.912H165.504L168.96 53.576L172.389 41.912H173.955L169.77 55.493H168.231ZM176.515 55.493V42.047L178.135 41.831V55.493H176.515ZM177.325 38.618C176.965 38.618 176.668 38.51 176.434 38.294C176.218 38.078 176.11 37.781 176.11 37.403C176.11 37.025 176.218 36.728 176.434 36.512C176.668 36.296 176.965 36.188 177.325 36.188C177.685 36.188 177.973 36.296 178.189 36.512C178.423 36.728 178.54 37.025 178.54 37.403C178.54 37.781 178.423 38.078 178.189 38.294C177.973 38.51 177.685 38.618 177.325 38.618ZM184.656 43.154V51.794C184.656 52.73 184.854 53.423 185.25 53.873C185.646 54.305 186.258 54.521 187.086 54.521C187.626 54.521 188.238 54.422 188.922 54.224V55.412C188.166 55.664 187.473 55.79 186.843 55.79C185.601 55.79 184.656 55.457 184.008 54.791C183.36 54.107 183.036 53.099 183.036 51.767V43.154H180.984V41.993L183.09 41.912L183.252 38.51L184.656 38.348V41.912H188.733V43.154H184.656ZM191.729 55.493V35.216L193.349 35V42.749C194.861 41.921 196.346 41.507 197.804 41.507C199.262 41.507 200.387 41.885 201.179 42.641C201.989 43.397 202.394 44.468 202.394 45.854V55.493H200.774V46.124C200.774 43.91 199.649 42.803 197.399 42.803C196.805 42.803 196.148 42.902 195.428 43.1C194.726 43.298 194.033 43.568 193.349 43.91V55.493H191.729ZM212.402 53.279C214.292 54.107 216.083 54.521 217.775 54.521C219.377 54.521 220.61 54.17 221.474 53.468C222.356 52.748 222.797 51.722 222.797 50.39C222.797 49.382 222.509 48.572 221.933 47.96C221.357 47.348 220.394 46.835 219.044 46.421L217.127 45.827C215.651 45.377 214.571 44.792 213.887 44.072C213.203 43.334 212.861 42.398 212.861 41.264C212.861 39.734 213.437 38.51 214.589 37.592C215.759 36.656 217.316 36.188 219.26 36.188C220.826 36.188 222.338 36.521 223.796 37.187V38.537C222.248 37.889 220.754 37.565 219.314 37.565C217.838 37.565 216.686 37.889 215.858 38.537C215.03 39.167 214.616 40.058 214.616 41.21C214.616 42.02 214.85 42.659 215.318 43.127C215.786 43.595 216.605 44.018 217.775 44.396L219.692 45.017C221.42 45.575 222.662 46.277 223.418 47.123C224.174 47.951 224.552 49.031 224.552 50.363C224.552 52.073 223.949 53.423 222.743 54.413C221.555 55.403 219.926 55.898 217.856 55.898C215.948 55.898 214.22 55.511 212.672 54.737L212.402 53.279ZM236.326 55.547L236.218 54.602C234.67 55.466 233.14 55.898 231.628 55.898C230.242 55.898 229.144 55.538 228.334 54.818C227.524 54.08 227.119 53.072 227.119 51.794C227.119 50.444 227.569 49.418 228.469 48.716C229.387 47.996 230.728 47.636 232.492 47.636C233.554 47.636 234.76 47.762 236.11 48.014V46.178C236.11 43.928 234.841 42.803 232.303 42.803C231.637 42.803 230.908 42.893 230.116 43.073C229.324 43.253 228.595 43.487 227.929 43.775V42.506C228.577 42.2 229.315 41.957 230.143 41.777C230.989 41.597 231.79 41.507 232.546 41.507C234.238 41.507 235.516 41.912 236.38 42.722C237.262 43.514 237.703 44.666 237.703 46.178V55.412L236.326 55.547ZM232.006 54.602C232.654 54.602 233.338 54.503 234.058 54.305C234.778 54.107 235.462 53.837 236.11 53.495V49.175C234.976 48.959 233.86 48.851 232.762 48.851C231.376 48.851 230.368 49.085 229.738 49.553C229.108 50.021 228.793 50.759 228.793 51.767C228.793 53.657 229.864 54.602 232.006 54.602ZM245.115 55.493L239.985 41.912H241.686L245.925 53.765L250.299 41.912H251.919L246.681 55.493H245.115ZM259.189 55.898C257.227 55.898 255.742 55.295 254.734 54.089C253.744 52.865 253.249 51.065 253.249 48.689C253.249 46.331 253.744 44.549 254.734 43.343C255.742 42.119 257.227 41.507 259.189 41.507C261.151 41.507 262.627 42.119 263.617 43.343C264.625 44.549 265.129 46.331 265.129 48.689C265.129 51.065 264.625 52.865 263.617 54.089C262.627 55.295 261.151 55.898 259.189 55.898ZM259.189 54.602C260.665 54.602 261.736 54.134 262.402 53.198C263.086 52.244 263.428 50.741 263.428 48.689C263.428 46.655 263.086 45.17 262.402 44.234C261.736 43.28 260.665 42.803 259.189 42.803C257.713 42.803 256.633 43.28 255.949 44.234C255.283 45.17 254.95 46.655 254.95 48.689C254.95 50.741 255.283 52.244 255.949 53.198C256.633 54.134 257.713 54.602 259.189 54.602ZM268.774 55.493V41.993L270.151 41.858L270.286 43.073C271.492 42.083 272.779 41.588 274.147 41.588C274.633 41.588 275.02 41.642 275.308 41.75V43.073C274.84 42.965 274.426 42.911 274.066 42.911C272.788 42.911 271.564 43.37 270.394 44.288V55.493H268.774Z" fill="#013D5B"/>
</svg>
