<svg width="196" height="39" viewBox="0 0 196 39" fill="none" xmlns="http://www.w3.org/2000/svg">
<path d="M10.062 13.338C8.99401 13.854 7.83001 14.112 6.57001 14.112C4.77001 14.112 3.36601 13.536 2.35801 12.384C1.35001 11.22 0.846011 9.60604 0.846011 7.54204C0.846011 5.49004 1.34401 3.88204 2.34001 2.71804C3.34801 1.55404 4.72801 0.97204 6.48001 0.97204C7.66801 0.97204 8.77801 1.23004 9.81001 1.74604V2.66404C8.75401 2.14804 7.67401 1.89004 6.57001 1.89004C5.10601 1.89004 3.98401 2.37604 3.20401 3.34804C2.42401 4.32004 2.03401 5.71804 2.03401 7.54204C2.03401 9.37804 2.42401 10.782 3.20401 11.754C3.99601 12.714 5.14801 13.194 6.66001 13.194C7.46401 13.194 8.25001 13.068 9.01801 12.816V8.24404H7.38001L7.50601 7.32604H10.062V13.338ZM19.0749 13.518C18.2469 13.914 17.3589 14.112 16.4109 14.112C15.0309 14.112 13.9689 13.704 13.2249 12.888C12.4809 12.072 12.1089 10.902 12.1089 9.37804C12.1089 7.86604 12.4569 6.67804 13.1529 5.81404C13.8489 4.95004 14.8029 4.51804 16.0149 4.51804C17.0829 4.51804 17.9229 4.85404 18.5349 5.52604C19.1589 6.18604 19.4709 7.09204 19.4709 8.24404C19.4709 8.67604 19.4349 9.09004 19.3629 9.48604H13.1709C13.1829 11.994 14.2929 13.248 16.5009 13.248C17.3889 13.248 18.2469 13.056 19.0749 12.672V13.518ZM15.9969 5.36404C15.1809 5.36404 14.5149 5.66404 13.9989 6.26404C13.4829 6.86404 13.2069 7.66804 13.1709 8.67604H18.4269C18.4509 8.48404 18.4629 8.31604 18.4629 8.17204C18.4629 7.28404 18.2469 6.59404 17.8149 6.10204C17.3829 5.61004 16.7769 5.36404 15.9969 5.36404ZM23.2107 5.61604V11.376C23.2107 12 23.3427 12.462 23.6067 12.762C23.8707 13.05 24.2787 13.194 24.8307 13.194C25.1907 13.194 25.5987 13.128 26.0547 12.996V13.788C25.5507 13.956 25.0887 14.04 24.6687 14.04C23.8407 14.04 23.2107 13.818 22.7787 13.374C22.3467 12.918 22.1307 12.246 22.1307 11.358V5.61604H20.7627V4.84204L22.1667 4.78804L22.2747 2.52004L23.2107 2.41204V4.78804H25.9287V5.61604H23.2107ZM35.7916 14.112C34.4836 14.112 33.4936 13.71 32.8216 12.906C32.1616 12.09 31.8316 10.89 31.8316 9.30604C31.8316 7.73404 32.1616 6.54604 32.8216 5.74204C33.4936 4.92604 34.4836 4.51804 35.7916 4.51804C37.0996 4.51804 38.0836 4.92604 38.7436 5.74204C39.4156 6.54604 39.7516 7.73404 39.7516 9.30604C39.7516 10.89 39.4156 12.09 38.7436 12.906C38.0836 13.71 37.0996 14.112 35.7916 14.112ZM35.7916 13.248C36.7756 13.248 37.4896 12.936 37.9336 12.312C38.3896 11.676 38.6176 10.674 38.6176 9.30604C38.6176 7.95004 38.3896 6.96004 37.9336 6.33604C37.4896 5.70004 36.7756 5.38204 35.7916 5.38204C34.8076 5.38204 34.0876 5.70004 33.6316 6.33604C33.1876 6.96004 32.9656 7.95004 32.9656 9.30604C32.9656 10.674 33.1876 11.676 33.6316 12.312C34.0876 12.936 34.8076 13.248 35.7916 13.248ZM48.2115 13.842V7.59604C48.2115 6.12004 47.4615 5.38204 45.9615 5.38204C45.5655 5.38204 45.1275 5.44804 44.6475 5.58004C44.1795 5.71204 43.7175 5.89204 43.2615 6.12004V13.842H42.1815V4.84204L43.0995 4.75204L43.1715 5.38204C44.2155 4.80604 45.2355 4.51804 46.2315 4.51804C47.2035 4.51804 47.9535 4.77004 48.4815 5.27404C49.0215 5.77804 49.2915 6.49204 49.2915 7.41604V13.842H48.2115ZM55.4414 16.956C56.2934 16.8 56.9594 16.5 57.4394 16.056C57.9194 15.612 58.3634 14.904 58.7714 13.932L55.3154 4.78804H56.4494L59.2754 12.726L62.1914 4.78804H63.2714L59.8154 13.752C59.4914 14.616 59.1494 15.318 58.7894 15.858C58.4414 16.41 58.0274 16.842 57.5474 17.154C57.0674 17.478 56.4434 17.724 55.6754 17.892L55.4414 16.956ZM68.1178 14.112C66.8098 14.112 65.8198 13.71 65.1478 12.906C64.4878 12.09 64.1578 10.89 64.1578 9.30604C64.1578 7.73404 64.4878 6.54604 65.1478 5.74204C65.8198 4.92604 66.8098 4.51804 68.1178 4.51804C69.4258 4.51804 70.4098 4.92604 71.0698 5.74204C71.7418 6.54604 72.0778 7.73404 72.0778 9.30604C72.0778 10.89 71.7418 12.09 71.0698 12.906C70.4098 13.71 69.4258 14.112 68.1178 14.112ZM68.1178 13.248C69.1018 13.248 69.8158 12.936 70.2598 12.312C70.7158 11.676 70.9438 10.674 70.9438 9.30604C70.9438 7.95004 70.7158 6.96004 70.2598 6.33604C69.8158 5.70004 69.1018 5.38204 68.1178 5.38204C67.1338 5.38204 66.4138 5.70004 65.9578 6.33604C65.5138 6.96004 65.2918 7.95004 65.2918 9.30604C65.2918 10.674 65.5138 11.676 65.9578 12.312C66.4138 12.936 67.1338 13.248 68.1178 13.248ZM75.4616 4.78804V11.034C75.4616 12.51 76.1876 13.248 77.6396 13.248C78.0356 13.248 78.4676 13.182 78.9356 13.05C79.4156 12.918 79.8836 12.738 80.3396 12.51V4.78804H81.4196V13.788L80.5016 13.878L80.4296 13.248C79.3856 13.824 78.3656 14.112 77.3696 14.112C76.4216 14.112 75.6836 13.86 75.1556 13.356C74.6396 12.84 74.3816 12.126 74.3816 11.214V4.78804H75.4616ZM84.4393 13.842V4.84204L85.3573 4.75204L85.4473 5.56204C86.2513 4.90204 87.1093 4.57204 88.0213 4.57204C88.3453 4.57204 88.6033 4.60804 88.7953 4.68004V5.56204C88.4833 5.49004 88.2073 5.45404 87.9673 5.45404C87.1153 5.45404 86.2993 5.76004 85.5193 6.37204V13.842H84.4393ZM95.3788 13.842V5.61604H94.0108V4.84204L95.3788 4.78804V2.75404C95.3788 1.86604 95.5948 1.18804 96.0268 0.72004C96.4708 0.24004 97.1128 4.00543e-05 97.9528 4.00543e-05C98.4088 4.00543e-05 98.8708 0.08404 99.3388 0.25204V1.04404C98.9068 0.91204 98.4928 0.84604 98.0968 0.84604C97.5328 0.84604 97.1188 0.99604 96.8548 1.29604C96.5908 1.58404 96.4588 2.04004 96.4588 2.66404V4.78804H98.8888V5.61604H96.4588V13.842H95.3788ZM107.089 13.518C106.261 13.914 105.373 14.112 104.425 14.112C103.045 14.112 101.983 13.704 101.239 12.888C100.495 12.072 100.123 10.902 100.123 9.37804C100.123 7.86604 100.471 6.67804 101.167 5.81404C101.863 4.95004 102.817 4.51804 104.029 4.51804C105.097 4.51804 105.937 4.85404 106.549 5.52604C107.173 6.18604 107.485 7.09204 107.485 8.24404C107.485 8.67604 107.449 9.09004 107.377 9.48604H101.185C101.197 11.994 102.307 13.248 104.515 13.248C105.403 13.248 106.261 13.056 107.089 12.672V13.518ZM104.011 5.36404C103.195 5.36404 102.529 5.66404 102.013 6.26404C101.497 6.86404 101.221 7.66804 101.185 8.67604H106.441C106.465 8.48404 106.477 8.31604 106.477 8.17204C106.477 7.28404 106.261 6.59404 105.829 6.10204C105.397 5.61004 104.791 5.36404 104.011 5.36404ZM116.264 13.518C115.436 13.914 114.548 14.112 113.6 14.112C112.22 14.112 111.158 13.704 110.414 12.888C109.67 12.072 109.298 10.902 109.298 9.37804C109.298 7.86604 109.646 6.67804 110.342 5.81404C111.038 4.95004 111.992 4.51804 113.204 4.51804C114.272 4.51804 115.112 4.85404 115.724 5.52604C116.348 6.18604 116.66 7.09204 116.66 8.24404C116.66 8.67604 116.624 9.09004 116.552 9.48604H110.36C110.372 11.994 111.482 13.248 113.69 13.248C114.578 13.248 115.436 13.056 116.264 12.672V13.518ZM113.186 5.36404C112.37 5.36404 111.704 5.66404 111.188 6.26404C110.672 6.86404 110.396 7.66804 110.36 8.67604H115.616C115.64 8.48404 115.652 8.31604 115.652 8.17204C115.652 7.28404 115.436 6.59404 115.004 6.10204C114.572 5.61004 113.966 5.36404 113.186 5.36404ZM120.4 5.61604V11.376C120.4 12 120.532 12.462 120.796 12.762C121.06 13.05 121.468 13.194 122.02 13.194C122.38 13.194 122.788 13.128 123.244 12.996V13.788C122.74 13.956 122.278 14.04 121.858 14.04C121.03 14.04 120.4 13.818 119.968 13.374C119.536 12.918 119.32 12.246 119.32 11.358V5.61604H117.952V4.84204L119.356 4.78804L119.464 2.52004L120.4 2.41204V4.78804H123.118V5.61604H120.4ZM125.799 10.242L125.637 1.24204L126.789 1.09804L126.627 10.242H125.799ZM126.213 13.932C125.973 13.932 125.775 13.86 125.619 13.716C125.463 13.56 125.385 13.356 125.385 13.104C125.385 12.852 125.463 12.654 125.619 12.51C125.775 12.354 125.973 12.276 126.213 12.276C126.453 12.276 126.651 12.354 126.807 12.51C126.963 12.654 127.041 12.852 127.041 13.104C127.041 13.356 126.963 13.56 126.807 13.716C126.651 13.86 126.453 13.932 126.213 13.932ZM3.79801 37.842V26.16H1.09971e-05V25.242H8.73001V26.16H4.93201V37.842H3.79801ZM10.5057 37.842V24.324L11.5857 24.18V29.346C12.5937 28.794 13.5837 28.518 14.5557 28.518C15.5277 28.518 16.2777 28.77 16.8057 29.274C17.3457 29.778 17.6157 30.492 17.6157 31.416V37.842H16.5357V31.596C16.5357 30.12 15.7857 29.382 14.2857 29.382C13.8897 29.382 13.4517 29.448 12.9717 29.58C12.5037 29.712 12.0417 29.892 11.5857 30.12V37.842H10.5057ZM26.8796 37.518C26.0516 37.914 25.1636 38.112 24.2156 38.112C22.8356 38.112 21.7736 37.704 21.0296 36.888C20.2856 36.072 19.9136 34.902 19.9136 33.378C19.9136 31.866 20.2616 30.678 20.9576 29.814C21.6536 28.95 22.6076 28.518 23.8196 28.518C24.8876 28.518 25.7276 28.854 26.3396 29.526C26.9636 30.186 27.2756 31.092 27.2756 32.244C27.2756 32.676 27.2396 33.09 27.1676 33.486H20.9756C20.9876 35.994 22.0976 37.248 24.3056 37.248C25.1936 37.248 26.0516 37.056 26.8796 36.672V37.518ZM23.8016 29.364C22.9856 29.364 22.3196 29.664 21.8036 30.264C21.2876 30.864 21.0116 31.668 20.9756 32.676H26.2316C26.2556 32.484 26.2676 32.316 26.2676 32.172C26.2676 31.284 26.0516 30.594 25.6196 30.102C25.1876 29.61 24.5816 29.364 23.8016 29.364ZM34.4534 37.842V25.242H41.7074V26.16H35.5874V31.272H40.9334V32.19H35.5874V37.842H34.4534ZM43.658 37.842V28.878L44.738 28.734V37.842H43.658ZM44.198 26.592C43.958 26.592 43.76 26.52 43.604 26.376C43.46 26.232 43.388 26.034 43.388 25.782C43.388 25.53 43.46 25.332 43.604 25.188C43.76 25.044 43.958 24.972 44.198 24.972C44.438 24.972 44.63 25.044 44.774 25.188C44.93 25.332 45.008 25.53 45.008 25.782C45.008 26.034 44.93 26.232 44.774 26.376C44.63 26.52 44.438 26.592 44.198 26.592ZM53.7837 37.842V31.596C53.7837 30.12 53.0337 29.382 51.5337 29.382C51.1377 29.382 50.6997 29.448 50.2197 29.58C49.7517 29.712 49.2897 29.892 48.8337 30.12V37.842H47.7537V28.842L48.6717 28.752L48.7437 29.382C49.7877 28.806 50.8077 28.518 51.8037 28.518C52.7757 28.518 53.5257 28.77 54.0537 29.274C54.5937 29.778 54.8637 30.492 54.8637 31.416V37.842H53.7837ZM63.2997 37.878L63.2277 37.248C62.1957 37.824 61.1757 38.112 60.1677 38.112C59.2437 38.112 58.5117 37.872 57.9717 37.392C57.4317 36.9 57.1617 36.228 57.1617 35.376C57.1617 34.476 57.4617 33.792 58.0617 33.324C58.6737 32.844 59.5677 32.604 60.7437 32.604C61.4517 32.604 62.2557 32.688 63.1557 32.856V31.632C63.1557 30.132 62.3097 29.382 60.6177 29.382C60.1737 29.382 59.6877 29.442 59.1597 29.562C58.6317 29.682 58.1457 29.838 57.7017 30.03V29.184C58.1337 28.98 58.6257 28.818 59.1777 28.698C59.7417 28.578 60.2757 28.518 60.7797 28.518C61.9077 28.518 62.7597 28.788 63.3357 29.328C63.9237 29.856 64.2177 30.624 64.2177 31.632V37.788L63.2997 37.878ZM60.4197 37.248C60.8517 37.248 61.3077 37.182 61.7877 37.05C62.2677 36.918 62.7237 36.738 63.1557 36.51V33.63C62.3997 33.486 61.6557 33.414 60.9237 33.414C59.9997 33.414 59.3277 33.57 58.9077 33.882C58.4877 34.194 58.2777 34.686 58.2777 35.358C58.2777 36.618 58.9917 37.248 60.4197 37.248ZM67.1072 37.842V24.324L68.1872 24.18V37.842H67.1072ZM75.9729 37.842V25.242H83.2269V26.16H77.1069V31.272H82.4529V32.19H77.1069V37.842H75.9729ZM88.192 38.112C86.884 38.112 85.894 37.71 85.222 36.906C84.562 36.09 84.232 34.89 84.232 33.306C84.232 31.734 84.562 30.546 85.222 29.742C85.894 28.926 86.884 28.518 88.192 28.518C89.5 28.518 90.484 28.926 91.144 29.742C91.816 30.546 92.152 31.734 92.152 33.306C92.152 34.89 91.816 36.09 91.144 36.906C90.484 37.71 89.5 38.112 88.192 38.112ZM88.192 37.248C89.176 37.248 89.89 36.936 90.334 36.312C90.79 35.676 91.018 34.674 91.018 33.306C91.018 31.95 90.79 30.96 90.334 30.336C89.89 29.7 89.176 29.382 88.192 29.382C87.208 29.382 86.488 29.7 86.032 30.336C85.588 30.96 85.366 31.95 85.366 33.306C85.366 34.674 85.588 35.676 86.032 36.312C86.488 36.936 87.208 37.248 88.192 37.248ZM95.5359 28.788V35.034C95.5359 36.51 96.2619 37.248 97.7139 37.248C98.1099 37.248 98.5419 37.182 99.0099 37.05C99.4899 36.918 99.9579 36.738 100.414 36.51V28.788H101.494V37.788L100.576 37.878L100.504 37.248C99.4599 37.824 98.4399 38.112 97.4439 38.112C96.4959 38.112 95.7579 37.86 95.2299 37.356C94.7139 36.84 94.4559 36.126 94.4559 35.214V28.788H95.5359ZM104.513 37.842V28.842L105.431 28.752L105.521 29.562C106.325 28.902 107.183 28.572 108.095 28.572C108.419 28.572 108.677 28.608 108.869 28.68V29.562C108.557 29.49 108.281 29.454 108.041 29.454C107.189 29.454 106.373 29.76 105.593 30.372V37.842H104.513ZM113.707 33.252C112.915 33.252 112.201 33.06 111.565 32.676C110.941 32.292 110.455 31.788 110.107 31.164C109.759 30.528 109.585 29.844 109.585 29.112C109.585 28.32 109.777 27.606 110.161 26.97C110.545 26.334 111.049 25.842 111.673 25.494C112.297 25.146 112.975 24.972 113.707 24.972C114.499 24.972 115.207 25.164 115.831 25.548C116.467 25.932 116.959 26.442 117.307 27.078C117.655 27.702 117.829 28.38 117.829 29.112C117.829 29.904 117.637 30.618 117.253 31.254C116.869 31.89 116.365 32.382 115.741 32.73C115.117 33.078 114.439 33.252 113.707 33.252ZM113.707 32.622C114.367 32.622 114.955 32.466 115.471 32.154C115.999 31.83 116.401 31.404 116.677 30.876C116.965 30.348 117.109 29.76 117.109 29.112C117.109 28.428 116.953 27.816 116.641 27.276C116.329 26.736 115.915 26.322 115.399 26.034C114.883 25.746 114.319 25.602 113.707 25.602C113.047 25.602 112.453 25.764 111.925 26.088C111.409 26.4 111.007 26.82 110.719 27.348C110.443 27.876 110.305 28.464 110.305 29.112C110.305 29.796 110.461 30.408 110.773 30.948C111.085 31.488 111.499 31.902 112.015 32.19C112.531 32.478 113.095 32.622 113.707 32.622ZM114.787 31.308L113.671 29.508H112.915V31.308H112.303V26.898C112.807 26.814 113.251 26.772 113.635 26.772C114.151 26.772 114.553 26.898 114.841 27.15C115.141 27.39 115.291 27.72 115.291 28.14C115.291 28.788 114.955 29.214 114.283 29.418L115.489 31.308H114.787ZM112.915 29.022H113.545C113.893 29.022 114.163 28.944 114.355 28.788C114.559 28.632 114.661 28.416 114.661 28.14C114.661 27.864 114.565 27.654 114.373 27.51C114.193 27.354 113.929 27.276 113.581 27.276C113.377 27.276 113.155 27.294 112.915 27.33V29.022ZM124.236 37.842V28.878L125.316 28.734V37.842H124.236ZM124.776 26.592C124.536 26.592 124.338 26.52 124.182 26.376C124.038 26.232 123.966 26.034 123.966 25.782C123.966 25.53 124.038 25.332 124.182 25.188C124.338 25.044 124.536 24.972 124.776 24.972C125.016 24.972 125.208 25.044 125.352 25.188C125.508 25.332 125.586 25.53 125.586 25.782C125.586 26.034 125.508 26.232 125.352 26.376C125.208 26.52 125.016 26.592 124.776 26.592ZM127.63 36.654C128.53 37.05 129.46 37.248 130.42 37.248C132.04 37.248 132.85 36.618 132.85 35.358C132.85 34.95 132.73 34.62 132.49 34.368C132.262 34.116 131.878 33.906 131.338 33.738L129.97 33.306C129.202 33.066 128.644 32.766 128.296 32.406C127.948 32.034 127.774 31.566 127.774 31.002C127.774 30.246 128.068 29.646 128.656 29.202C129.256 28.746 130.06 28.518 131.068 28.518C131.92 28.518 132.73 28.68 133.498 29.004V29.85C132.694 29.538 131.902 29.382 131.122 29.382C130.414 29.382 129.856 29.526 129.448 29.814C129.052 30.09 128.854 30.474 128.854 30.966C128.854 31.314 128.962 31.596 129.178 31.812C129.406 32.016 129.808 32.214 130.384 32.406L131.806 32.874C132.538 33.114 133.072 33.432 133.408 33.828C133.756 34.224 133.93 34.728 133.93 35.34C133.93 36.228 133.63 36.912 133.03 37.392C132.43 37.872 131.584 38.112 130.492 38.112C129.484 38.112 128.578 37.926 127.774 37.554L127.63 36.654ZM146.304 37.878L146.232 37.248C145.2 37.824 144.18 38.112 143.172 38.112C142.248 38.112 141.516 37.872 140.976 37.392C140.436 36.9 140.166 36.228 140.166 35.376C140.166 34.476 140.466 33.792 141.066 33.324C141.678 32.844 142.572 32.604 143.748 32.604C144.456 32.604 145.26 32.688 146.16 32.856V31.632C146.16 30.132 145.314 29.382 143.622 29.382C143.178 29.382 142.692 29.442 142.164 29.562C141.636 29.682 141.15 29.838 140.706 30.03V29.184C141.138 28.98 141.63 28.818 142.182 28.698C142.746 28.578 143.28 28.518 143.784 28.518C144.912 28.518 145.764 28.788 146.34 29.328C146.928 29.856 147.222 30.624 147.222 31.632V37.788L146.304 37.878ZM143.424 37.248C143.856 37.248 144.312 37.182 144.792 37.05C145.272 36.918 145.728 36.738 146.16 36.51V33.63C145.404 33.486 144.66 33.414 143.928 33.414C143.004 33.414 142.332 33.57 141.912 33.882C141.492 34.194 141.282 34.686 141.282 35.358C141.282 36.618 141.996 37.248 143.424 37.248ZM150.363 37.842V29.616H148.995V28.842L150.363 28.788V26.754C150.363 25.866 150.579 25.188 151.011 24.72C151.455 24.24 152.097 24 152.937 24C153.321 24 153.675 24.048 153.999 24.144V24.954C153.675 24.882 153.369 24.846 153.081 24.846C152.517 24.846 152.103 24.996 151.839 25.296C151.575 25.584 151.443 26.04 151.443 26.664V28.788H153.873V29.616H151.443V37.842H150.363ZM155.871 37.842V24.324L156.951 24.18V37.842H155.871ZM165.516 37.878L165.444 37.248C164.412 37.824 163.392 38.112 162.384 38.112C161.46 38.112 160.728 37.872 160.188 37.392C159.648 36.9 159.378 36.228 159.378 35.376C159.378 34.476 159.678 33.792 160.278 33.324C160.89 32.844 161.784 32.604 162.96 32.604C163.668 32.604 164.472 32.688 165.372 32.856V31.632C165.372 30.132 164.526 29.382 162.834 29.382C162.39 29.382 161.904 29.442 161.376 29.562C160.848 29.682 160.362 29.838 159.918 30.03V29.184C160.35 28.98 160.842 28.818 161.394 28.698C161.958 28.578 162.492 28.518 162.996 28.518C164.124 28.518 164.976 28.788 165.552 29.328C166.14 29.856 166.434 30.624 166.434 31.632V37.788L165.516 37.878ZM162.636 37.248C163.068 37.248 163.524 37.182 164.004 37.05C164.484 36.918 164.94 36.738 165.372 36.51V33.63C164.616 33.486 163.872 33.414 163.14 33.414C162.216 33.414 161.544 33.57 161.124 33.882C160.704 34.194 160.494 34.686 160.494 35.358C160.494 36.618 161.208 37.248 162.636 37.248ZM180.16 37.842V31.416C180.16 30.06 179.518 29.382 178.234 29.382C177.49 29.382 176.638 29.652 175.678 30.192C175.774 30.516 175.822 30.864 175.822 31.236V37.842H174.742V31.416C174.742 30.06 174.1 29.382 172.816 29.382C172.096 29.382 171.292 29.628 170.404 30.12V37.842H169.324V28.842L170.242 28.752L170.314 29.382C171.334 28.806 172.258 28.518 173.086 28.518C174.142 28.518 174.904 28.866 175.372 29.562C176.536 28.866 177.58 28.518 178.504 28.518C179.38 28.518 180.052 28.752 180.52 29.22C181 29.688 181.24 30.36 181.24 31.236V37.842H180.16ZM190.514 37.518C189.686 37.914 188.798 38.112 187.85 38.112C186.47 38.112 185.408 37.704 184.664 36.888C183.92 36.072 183.548 34.902 183.548 33.378C183.548 31.866 183.896 30.678 184.592 29.814C185.288 28.95 186.242 28.518 187.454 28.518C188.522 28.518 189.362 28.854 189.974 29.526C190.598 30.186 190.91 31.092 190.91 32.244C190.91 32.676 190.874 33.09 190.802 33.486H184.61C184.622 35.994 185.732 37.248 187.94 37.248C188.828 37.248 189.686 37.056 190.514 36.672V37.518ZM187.436 29.364C186.62 29.364 185.954 29.664 185.438 30.264C184.922 30.864 184.646 31.668 184.61 32.676H189.866C189.89 32.484 189.902 32.316 189.902 32.172C189.902 31.284 189.686 30.594 189.254 30.102C188.822 29.61 188.216 29.364 187.436 29.364ZM194.002 34.242L193.84 25.242L194.992 25.098L194.83 34.242H194.002ZM194.416 37.932C194.176 37.932 193.978 37.86 193.822 37.716C193.666 37.56 193.588 37.356 193.588 37.104C193.588 36.852 193.666 36.654 193.822 36.51C193.978 36.354 194.176 36.276 194.416 36.276C194.656 36.276 194.854 36.354 195.01 36.51C195.166 36.654 195.244 36.852 195.244 37.104C195.244 37.356 195.166 37.56 195.01 37.716C194.854 37.86 194.656 37.932 194.416 37.932Z" fill="#013D5B"/>
</svg>
