<svg width="256" height="56" viewBox="0 0 256 56" fill="none" xmlns="http://www.w3.org/2000/svg">
<path d="M245.365 47.3555C246.762 47.97 248.205 48.2772 249.695 48.2772C252.208 48.2772 253.465 47.2996 253.465 45.3445C253.465 44.7115 253.279 44.1994 252.907 43.8084C252.553 43.4174 251.957 43.0915 251.119 42.8308L248.996 42.1605C247.805 41.7881 246.939 41.3226 246.399 40.764C245.859 40.1868 245.589 39.4606 245.589 38.5855C245.589 37.4124 246.045 36.4814 246.957 35.7925C247.888 35.0849 249.136 34.7311 250.7 34.7311C252.022 34.7311 253.279 34.9825 254.471 35.4852V36.798C253.223 36.3138 251.994 36.0718 250.784 36.0718C249.685 36.0718 248.82 36.2952 248.186 36.7421C247.572 37.1704 247.265 37.7662 247.265 38.5296C247.265 39.0696 247.432 39.5072 247.767 39.8423C248.121 40.1589 248.745 40.4661 249.639 40.764L251.845 41.4902C252.981 41.8626 253.81 42.356 254.331 42.9705C254.871 43.5849 255.141 44.367 255.141 45.3166C255.141 46.6945 254.676 47.7558 253.745 48.5006C252.814 49.2454 251.501 49.6178 249.806 49.6178C248.242 49.6178 246.836 49.3292 245.589 48.752L245.365 47.3555Z" fill="#013D5B"/>
<path d="M239.139 36.4349V45.3725C239.139 46.3407 239.344 47.0576 239.753 47.5231C240.163 47.9699 240.796 48.1934 241.653 48.1934C242.211 48.1934 242.844 48.091 243.552 47.8862V49.1151C242.77 49.3758 242.053 49.5061 241.401 49.5061C240.116 49.5061 239.139 49.1616 238.469 48.4727C237.798 47.7651 237.463 46.7224 237.463 45.3445V36.4349H235.34V35.2339L237.519 35.1501L237.686 31.6309L239.139 31.4633V35.1501H243.356V36.4349H239.139Z" fill="#013D5B"/>
<path d="M230.909 49.1989V39.5072C230.909 37.2169 229.745 36.0718 227.418 36.0718C226.803 36.0718 226.124 36.1742 225.379 36.379C224.653 36.5838 223.936 36.8631 223.228 37.2169V49.1989H221.552V35.2339L222.977 35.0942L223.088 36.0718C224.708 35.178 226.291 34.7311 227.837 34.7311C229.345 34.7311 230.509 35.1222 231.328 35.9042C232.166 36.6862 232.585 37.7941 232.585 39.2279V49.1989H230.909Z" fill="#013D5B"/>
<path d="M207.622 35.1501V44.8418C207.622 47.1321 208.749 48.2772 211.002 48.2772C211.616 48.2772 212.286 48.1748 213.013 47.97C213.757 47.7651 214.484 47.4858 215.191 47.1321V35.1501H216.867V49.1151L215.442 49.2547L215.331 48.2772C213.711 49.1709 212.128 49.6178 210.583 49.6178C209.112 49.6178 207.966 49.2268 207.147 48.4448C206.347 47.6441 205.946 46.5362 205.946 45.1211V35.1501H207.622Z" fill="#013D5B"/>
<path d="M196.227 49.6178C194.197 49.6178 192.661 48.9941 191.618 47.7465C190.594 46.4804 190.082 44.6184 190.082 42.1605C190.082 39.7213 190.594 37.8779 191.618 36.6304C192.661 35.3642 194.197 34.7311 196.227 34.7311C198.256 34.7311 199.783 35.3642 200.807 36.6304C201.85 37.8779 202.371 39.7213 202.371 42.1605C202.371 44.6184 201.85 46.4804 200.807 47.7465C199.783 48.9941 198.256 49.6178 196.227 49.6178ZM196.227 48.2772C197.754 48.2772 198.862 47.7931 199.55 46.8248C200.258 45.838 200.612 44.2832 200.612 42.1605C200.612 40.0565 200.258 38.5203 199.55 37.5521C198.862 36.5652 197.754 36.0718 196.227 36.0718C194.7 36.0718 193.583 36.5652 192.875 37.5521C192.186 38.5203 191.842 40.0565 191.842 42.1605C191.842 44.2832 192.186 45.838 192.875 46.8248C193.583 47.7931 194.7 48.2772 196.227 48.2772Z" fill="#013D5B"/>
<path d="M187.675 48.6961C186.447 49.3106 185.106 49.6178 183.654 49.6178C181.68 49.6178 180.153 48.9754 179.073 47.6907C178.012 46.4059 177.481 44.5718 177.481 42.1884C177.481 39.8051 178.012 37.971 179.073 36.6862C180.153 35.3828 181.68 34.7311 183.654 34.7311C185.05 34.7311 186.372 35.0384 187.62 35.6528V36.9655C186.316 36.3883 185.05 36.0997 183.821 36.0997C182.313 36.0997 181.168 36.6117 180.386 37.6358C179.622 38.6599 179.241 40.1775 179.241 42.1884C179.241 44.1808 179.622 45.689 180.386 46.7131C181.168 47.7372 182.313 48.2493 183.821 48.2493C185.087 48.2493 186.372 47.9606 187.675 47.3834V48.6961Z" fill="#013D5B"/>
<path d="M175.074 48.6961C173.845 49.3106 172.505 49.6178 171.052 49.6178C169.079 49.6178 167.552 48.9754 166.472 47.6907C165.41 46.4059 164.88 44.5718 164.88 42.1884C164.88 39.8051 165.41 37.971 166.472 36.6862C167.552 35.3828 169.079 34.7311 171.052 34.7311C172.449 34.7311 173.771 35.0384 175.018 35.6528V36.9655C173.715 36.3883 172.449 36.0997 171.22 36.0997C169.712 36.0997 168.566 36.6117 167.784 37.6358C167.021 38.6599 166.639 40.1775 166.639 42.1884C166.639 44.1808 167.021 45.689 167.784 46.7131C168.566 47.7372 169.712 48.2493 171.22 48.2493C172.486 48.2493 173.771 47.9606 175.074 47.3834V48.6961Z" fill="#013D5B"/>
<path d="M159.893 49.2547L159.782 48.2772C158.18 49.1709 156.598 49.6178 155.034 49.6178C153.6 49.6178 152.464 49.2454 151.626 48.5006C150.788 47.7372 150.369 46.6945 150.369 45.3725C150.369 43.976 150.835 42.9146 151.766 42.1884C152.715 41.4436 154.103 41.0712 155.927 41.0712C157.026 41.0712 158.273 41.2016 159.67 41.4623V39.563C159.67 37.2355 158.357 36.0718 155.732 36.0718C155.043 36.0718 154.289 36.1649 153.469 36.3511C152.65 36.5373 151.896 36.7793 151.207 37.0773V35.7645C151.877 35.448 152.641 35.1966 153.497 35.0104C154.373 34.8242 155.201 34.7311 155.983 34.7311C157.733 34.7311 159.055 35.1501 159.949 35.988C160.862 36.8073 161.318 37.9989 161.318 39.563V49.1151L159.893 49.2547ZM155.425 48.2772C156.095 48.2772 156.802 48.1748 157.547 47.97C158.292 47.7651 159 47.4858 159.67 47.1321V42.6632C158.497 42.4398 157.342 42.3281 156.207 42.3281C154.773 42.3281 153.73 42.5702 153.078 43.0543C152.427 43.5384 152.101 44.3018 152.101 45.3445C152.101 47.2996 153.209 48.2772 155.425 48.2772Z" fill="#013D5B"/>
<path d="M133.369 55.7066C131.712 55.7066 130.306 55.418 129.152 54.8407L128.928 53.4163C130.455 54.0494 131.908 54.3659 133.285 54.3659C136.395 54.3659 137.95 52.9229 137.95 50.0368V48.1096C137.242 48.5006 136.516 48.8079 135.771 49.0313C135.045 49.2547 134.365 49.3665 133.732 49.3665C131.908 49.3665 130.474 48.752 129.431 47.5231C128.388 46.2942 127.867 44.5904 127.867 42.4119C127.867 39.9354 128.454 38.0362 129.627 36.7142C130.818 35.3921 132.531 34.7311 134.766 34.7311C136.46 34.7311 138.08 35.029 139.626 35.6249V49.8971C139.626 51.7591 139.086 53.1929 138.006 54.1983C136.926 55.2038 135.38 55.7066 133.369 55.7066ZM133.956 48.0258C134.57 48.0258 135.231 47.9234 135.939 47.7186C136.646 47.5138 137.317 47.2345 137.95 46.8807V36.5187C136.982 36.2207 135.967 36.0718 134.905 36.0718C133.118 36.0718 131.787 36.5931 130.911 37.6358C130.055 38.6599 129.627 40.2426 129.627 42.3839C129.627 44.2273 129.99 45.6331 130.716 46.6014C131.461 47.551 132.541 48.0258 133.956 48.0258Z" fill="#013D5B"/>
<path d="M122.626 49.1989V39.5072C122.626 37.2169 121.462 36.0718 119.134 36.0718C118.52 36.0718 117.84 36.1742 117.095 36.379C116.369 36.5838 115.652 36.8631 114.945 37.2169V49.1989H113.269V35.2339L114.693 35.0942L114.805 36.0718C116.425 35.178 118.008 34.7311 119.553 34.7311C121.061 34.7311 122.225 35.1222 123.045 35.9042C123.882 36.6862 124.301 37.7941 124.301 39.2279V49.1989H122.626Z" fill="#013D5B"/>
<path d="M106.914 49.1989V35.2897L108.59 35.0663V49.1989H106.914ZM107.752 31.7426C107.379 31.7426 107.072 31.6309 106.83 31.4075C106.607 31.184 106.495 30.8768 106.495 30.4858C106.495 30.0947 106.607 29.7875 106.83 29.5641C107.072 29.3406 107.379 29.2289 107.752 29.2289C108.124 29.2289 108.422 29.3406 108.646 29.5641C108.888 29.7875 109.009 30.0947 109.009 30.4858C109.009 30.8768 108.888 31.184 108.646 31.4075C108.422 31.6309 108.124 31.7426 107.752 31.7426Z" fill="#013D5B"/>
<path d="M94.0672 49.1989V28.2234L95.743 28V41.3785L102.334 35.1501H104.317L97.4188 41.6857L104.541 49.1989H102.418L95.743 42.1047V49.1989H94.0672Z" fill="#013D5B"/>
<path d="M90.4659 48.6961C89.237 49.3106 87.8963 49.6178 86.444 49.6178C84.4703 49.6178 82.9434 48.9754 81.8635 47.6907C80.8021 46.4059 80.2715 44.5718 80.2715 42.1884C80.2715 39.8051 80.8021 37.971 81.8635 36.6862C82.9434 35.3828 84.4703 34.7311 86.444 34.7311C87.8405 34.7311 89.1625 35.0384 90.41 35.6528V36.9655C89.1066 36.3883 87.8405 36.0997 86.6116 36.0997C85.1034 36.0997 83.9582 36.6117 83.1762 37.6358C82.4128 38.6599 82.0311 40.1775 82.0311 42.1884C82.0311 44.1808 82.4128 45.689 83.1762 46.7131C83.9582 47.7372 85.1034 48.2493 86.6116 48.2493C87.8777 48.2493 89.1625 47.9606 90.4659 47.3834V48.6961Z" fill="#013D5B"/>
<path d="M76.8426 48.6961C75.5579 49.3106 74.18 49.6178 72.709 49.6178C70.5677 49.6178 68.9198 48.9847 67.7654 47.7186C66.611 46.4524 66.0337 44.637 66.0337 42.2722C66.0337 39.9261 66.5737 38.0827 67.6537 36.7421C68.7336 35.4015 70.2139 34.7311 72.0945 34.7311C73.7517 34.7311 75.0551 35.2525 76.0047 36.2952C76.973 37.3193 77.4571 38.7251 77.4571 40.5126C77.4571 41.183 77.4012 41.8254 77.2895 42.4398H67.6816C67.7002 46.3314 69.4226 48.2772 72.8486 48.2772C74.2265 48.2772 75.5579 47.9793 76.8426 47.3834V48.6961ZM72.0666 36.0438C70.8004 36.0438 69.767 36.5093 68.9664 37.4403C68.1657 38.3713 67.7375 39.6189 67.6816 41.183H75.8372C75.8744 40.885 75.893 40.6244 75.893 40.4009C75.893 39.023 75.5579 37.9524 74.8875 37.189C74.2172 36.4256 73.2769 36.0438 72.0666 36.0438Z" fill="#013D5B"/>
<path d="M51.4357 49.1989V28.2234L53.1115 28V36.0159C54.6756 35.1594 56.2118 34.7311 57.72 34.7311C59.2282 34.7311 60.392 35.1221 61.2112 35.9042C62.0491 36.6862 62.4681 37.7941 62.4681 39.2279V49.1989H60.7923V39.5072C60.7923 37.2169 59.6285 36.0718 57.301 36.0718C56.6866 36.0718 56.0069 36.1742 55.2621 36.379C54.536 36.5838 53.8191 36.8631 53.1115 37.2169V49.1989H51.4357Z" fill="#013D5B"/>
<path d="M47.8345 48.6961C46.6056 49.3106 45.2649 49.6178 43.8126 49.6178C41.8389 49.6178 40.312 48.9754 39.2321 47.6907C38.1707 46.4059 37.64 44.5718 37.64 42.1884C37.64 39.8051 38.1707 37.971 39.2321 36.6862C40.312 35.3828 41.8389 34.7311 43.8126 34.7311C45.2091 34.7311 46.5311 35.0384 47.7786 35.6528V36.9655C46.4752 36.3883 45.2091 36.0997 43.9802 36.0997C42.4719 36.0997 41.3268 36.6117 40.5448 37.6358C39.7813 38.6599 39.3996 40.1775 39.3996 42.1884C39.3996 44.1808 39.7813 45.689 40.5448 46.7131C41.3268 47.7372 42.4719 48.2493 43.9802 48.2493C45.2463 48.2493 46.5311 47.9606 47.8345 47.3834V48.6961Z" fill="#013D5B"/>
<path d="M25.4161 49.1989V39.5072C25.4161 37.2169 24.2523 36.0718 21.9248 36.0718C21.3104 36.0718 20.6307 36.1742 19.8859 36.379C19.1598 36.5838 18.4429 36.8631 17.7353 37.2169V49.1989H16.0595V35.2339L17.484 35.0942L17.5957 36.0718C19.2156 35.178 20.7983 34.7311 22.3438 34.7311C23.852 34.7311 25.0158 35.1222 25.835 35.9042C26.6729 36.6862 27.0919 37.7941 27.0919 39.2279V49.1989H25.4161Z" fill="#013D5B"/>
<path d="M6.1446 49.6178C4.11502 49.6178 2.57887 48.9941 1.53615 47.7465C0.512048 46.4804 0 44.6184 0 42.1605C0 39.7213 0.512048 37.8779 1.53615 36.6304C2.57887 35.3642 4.11502 34.7311 6.1446 34.7311C8.17418 34.7311 9.70102 35.3642 10.7251 36.6304C11.7678 37.8779 12.2892 39.7213 12.2892 42.1605C12.2892 44.6184 11.7678 46.4804 10.7251 47.7465C9.70102 48.9941 8.17418 49.6178 6.1446 49.6178ZM6.1446 48.2772C7.67144 48.2772 8.77933 47.7931 9.46827 46.8248C10.1758 45.838 10.5296 44.2832 10.5296 42.1605C10.5296 40.0565 10.1758 38.5203 9.46827 37.5521C8.77933 36.5652 7.67144 36.0718 6.1446 36.0718C4.61776 36.0718 3.50056 36.5652 2.793 37.5521C2.10406 38.5203 1.75959 40.0565 1.75959 42.1605C1.75959 44.2832 2.10406 45.838 2.793 46.8248C3.50056 47.7931 4.61776 48.2772 6.1446 48.2772Z" fill="#013D5B"/>
<path d="M242.806 19.6348C244.203 20.2493 245.646 20.5565 247.135 20.5565C249.649 20.5565 250.906 19.5789 250.906 17.6238C250.906 16.9908 250.72 16.4787 250.347 16.0877C249.994 15.6967 249.398 15.3708 248.56 15.1101L246.437 14.4398C245.246 14.0674 244.38 13.6019 243.84 13.0433C243.3 12.4661 243.03 11.7399 243.03 10.8648C243.03 9.69172 243.486 8.76072 244.398 8.07178C245.329 7.36422 246.577 7.01044 248.141 7.01044C249.463 7.01044 250.72 7.26181 251.912 7.76455V9.07726C250.664 8.59314 249.435 8.35108 248.225 8.35108C247.126 8.35108 246.26 8.57452 245.627 9.0214C245.013 9.44966 244.706 10.0455 244.706 10.8089C244.706 11.3489 244.873 11.7865 245.208 12.1216C245.562 12.4382 246.186 12.7454 247.08 13.0433L249.286 13.7695C250.422 14.1419 251.251 14.6353 251.772 15.2498C252.312 15.8642 252.582 16.6463 252.582 17.5959C252.582 18.9738 252.116 20.0351 251.185 20.7799C250.254 21.5247 248.942 21.8971 247.247 21.8971C245.683 21.8971 244.277 21.6085 243.03 21.0313L242.806 19.6348Z" fill="#013D5B"/>
<path d="M237.716 21.4782V11.5072C237.716 9.40311 236.72 8.35108 234.728 8.35108C233.573 8.35108 232.251 8.77003 230.762 9.60793C230.911 10.1107 230.985 10.6506 230.985 11.2279V21.4782H229.309V11.5072C229.309 9.40311 228.313 8.35108 226.321 8.35108C225.204 8.35108 223.956 8.73279 222.578 9.49621V21.4782H220.902V7.51318L222.327 7.37353L222.439 8.35108C224.021 7.45732 225.455 7.01044 226.74 7.01044C228.378 7.01044 229.561 7.55042 230.287 8.63038C232.093 7.55042 233.713 7.01044 235.147 7.01044C236.506 7.01044 237.549 7.37353 238.275 8.09971C239.02 8.82589 239.392 9.86861 239.392 11.2279V21.4782H237.716Z" fill="#013D5B"/>
<path d="M206.972 7.42938V17.1211C206.972 19.4114 208.099 20.5565 210.352 20.5565C210.966 20.5565 211.636 20.4541 212.363 20.2493C213.107 20.0444 213.834 19.7651 214.541 19.4114V7.42938H216.217V21.3944L214.793 21.534L214.681 20.5565C213.061 21.4502 211.478 21.8971 209.933 21.8971C208.462 21.8971 207.317 21.5061 206.497 20.7241C205.697 19.9234 205.296 18.8155 205.296 17.4004V7.42938H206.972Z" fill="#013D5B"/>
<path d="M199.313 21.4782V11.5072C199.313 9.40311 198.316 8.35108 196.324 8.35108C195.17 8.35108 193.848 8.77003 192.358 9.60793C192.507 10.1107 192.581 10.6506 192.581 11.2279V21.4782H190.906V11.5072C190.906 9.40311 189.909 8.35108 187.917 8.35108C186.8 8.35108 185.552 8.73279 184.174 9.49621V21.4782H182.499V7.51318L183.923 7.37353L184.035 8.35108C185.618 7.45732 187.051 7.01044 188.336 7.01044C189.975 7.01044 191.157 7.55042 191.883 8.63038C193.689 7.55042 195.309 7.01044 196.743 7.01044C198.102 7.01044 199.145 7.37353 199.871 8.09971C200.616 8.82589 200.988 9.86861 200.988 11.2279V21.4782H199.313Z" fill="#013D5B"/>
<path d="M176.144 21.4782V7.56904L177.819 7.34559V21.4782H176.144ZM176.981 4.02193C176.609 4.02193 176.302 3.91021 176.06 3.68676C175.836 3.46332 175.725 3.15609 175.725 2.76508C175.725 2.37405 175.836 2.06682 176.06 1.84339C176.302 1.61994 176.609 1.50822 176.981 1.50822C177.354 1.50822 177.652 1.61994 177.875 1.84339C178.117 2.06682 178.238 2.37405 178.238 2.76508C178.238 3.15609 178.117 3.46332 177.875 3.68676C177.652 3.91021 177.354 4.02193 176.981 4.02193Z" fill="#013D5B"/>
<path d="M169.98 21.4782V11.7865C169.98 9.49621 168.817 8.35108 166.489 8.35108C165.875 8.35108 165.195 8.45349 164.45 8.65831C163.724 8.86313 163.007 9.14243 162.3 9.49621V21.4782H160.624V7.51318L162.048 7.37353L162.16 8.35108C163.78 7.45732 165.363 7.01044 166.908 7.01044C168.416 7.01044 169.58 7.40146 170.399 8.1835C171.237 8.96554 171.656 10.0734 171.656 11.5072V21.4782H169.98Z" fill="#013D5B"/>
<path d="M154.269 21.4782V7.56904L155.945 7.34559V21.4782H154.269ZM155.107 4.02193C154.734 4.02193 154.427 3.91021 154.185 3.68676C153.961 3.46332 153.85 3.15609 153.85 2.76508C153.85 2.37405 153.961 2.06682 154.185 1.84339C154.427 1.61994 154.734 1.50822 155.107 1.50822C155.479 1.50822 155.777 1.61994 156 1.84339C156.242 2.06682 156.363 2.37405 156.363 2.76508C156.363 3.15609 156.242 3.46332 156 3.68676C155.777 3.91021 155.479 4.02193 155.107 4.02193Z" fill="#013D5B"/>
<path d="M148.089 21.4782V11.5072C148.089 9.40311 147.093 8.35108 145.101 8.35108C143.946 8.35108 142.624 8.77003 141.135 9.60793C141.284 10.1107 141.358 10.6506 141.358 11.2279V21.4782H139.682V11.5072C139.682 9.40311 138.686 8.35108 136.694 8.35108C135.577 8.35108 134.329 8.73279 132.951 9.49621V21.4782H131.276V7.51318L132.7 7.37353L132.812 8.35108C134.394 7.45732 135.828 7.01044 137.113 7.01044C138.751 7.01044 139.934 7.55042 140.66 8.63038C142.466 7.55042 144.086 7.01044 145.52 7.01044C146.879 7.01044 147.922 7.37353 148.648 8.09971C149.393 8.82589 149.765 9.86861 149.765 11.2279V21.4782H148.089Z" fill="#013D5B"/>
<path d="M114.692 21.4782V7.51317L116.117 7.37352L116.256 8.63037C117.504 7.60627 118.835 7.09422 120.25 7.09422C120.753 7.09422 121.153 7.15008 121.451 7.2618V8.63037C120.967 8.51865 120.539 8.46279 120.166 8.46279C118.844 8.46279 117.578 8.9376 116.368 9.88722V21.4782H114.692Z" fill="#013D5B"/>
<path d="M104.777 21.8971C102.748 21.8971 101.211 21.2734 100.169 20.0258C99.1446 18.7597 98.6325 16.8977 98.6325 14.4398C98.6325 12.0006 99.1446 10.1572 100.169 8.90968C101.211 7.64352 102.748 7.01044 104.777 7.01044C106.807 7.01044 108.334 7.64352 109.358 8.90968C110.4 10.1572 110.922 12.0006 110.922 14.4398C110.922 16.8977 110.4 18.7597 109.358 20.0258C108.334 21.2734 106.807 21.8971 104.777 21.8971ZM104.777 20.5565C106.304 20.5565 107.412 20.0724 108.101 19.1041C108.808 18.1173 109.162 16.5625 109.162 14.4398C109.162 12.3358 108.808 10.7996 108.101 9.83137C107.412 8.84451 106.304 8.35108 104.777 8.35108C103.25 8.35108 102.133 8.84451 101.426 9.83137C100.737 10.7996 100.392 12.3358 100.392 14.4398C100.392 16.5625 100.737 18.1173 101.426 19.1041C102.133 20.0724 103.25 20.5565 104.777 20.5565Z" fill="#013D5B"/>
<path d="M79.1813 19.6348C80.5778 20.2493 82.0209 20.5565 83.5105 20.5565C86.0242 20.5565 87.281 19.5789 87.281 17.6238C87.281 16.9908 87.0948 16.4787 86.7224 16.0877C86.3686 15.6967 85.7728 15.3708 84.9349 15.1101L82.8122 14.4398C81.6205 14.0674 80.7547 13.6019 80.2147 13.0433C79.6747 12.4661 79.4047 11.7399 79.4047 10.8648C79.4047 9.69172 79.8609 8.76072 80.7733 8.07178C81.7043 7.36422 82.9518 7.01044 84.5159 7.01044C85.838 7.01044 87.0948 7.26181 88.2865 7.76455V9.07726C87.0389 8.59314 85.81 8.35108 84.5997 8.35108C83.5012 8.35108 82.6353 8.57452 82.0022 9.0214C81.3878 9.44966 81.0806 10.0455 81.0806 10.8089C81.0806 11.3489 81.2481 11.7865 81.5833 12.1216C81.9371 12.4382 82.5608 12.7454 83.4546 13.0433L85.6611 13.7695C86.7969 14.1419 87.6255 14.6353 88.1468 15.2498C88.6868 15.8642 88.9568 16.6463 88.9568 17.5959C88.9568 18.9738 88.4913 20.0351 87.5603 20.7799C86.6293 21.5247 85.3166 21.8971 83.6222 21.8971C82.0581 21.8971 80.6523 21.6085 79.4047 21.0313L79.1813 19.6348Z" fill="#013D5B"/>
<path d="M75.92 20.9754C74.6352 21.5899 73.2574 21.8971 71.7864 21.8971C69.6451 21.8971 67.9972 21.264 66.8428 19.9979C65.6883 18.7317 65.1111 16.9163 65.1111 14.5515C65.1111 12.2054 65.6511 10.362 66.7311 9.0214C67.811 7.68076 69.2913 7.01044 71.1719 7.01044C72.8291 7.01044 74.1325 7.5318 75.0821 8.57452C76.0504 9.59862 76.5345 11.0044 76.5345 12.7919C76.5345 13.4623 76.4786 14.1047 76.3669 14.7191H66.759C66.7776 18.6107 68.5 20.5565 71.926 20.5565C73.3039 20.5565 74.6352 20.2586 75.92 19.6627V20.9754ZM71.144 8.32315C69.8778 8.32315 68.8444 8.78865 68.0438 9.71965C67.2431 10.6506 66.8148 11.8982 66.759 13.4623H74.9146C74.9518 13.1643 74.9704 12.9037 74.9704 12.6802C74.9704 11.3023 74.6353 10.2317 73.9649 9.46828C73.2946 8.70486 72.3543 8.32315 71.144 8.32315Z" fill="#013D5B"/>
<path d="M61.6823 20.9754C60.3975 21.5899 59.0196 21.8971 57.5486 21.8971C55.4073 21.8971 53.7595 21.264 52.605 19.9979C51.4506 18.7317 50.8734 16.9163 50.8734 14.5515C50.8734 12.2054 51.4133 10.362 52.4933 9.0214C53.5733 7.68076 55.0535 7.01044 56.9342 7.01044C58.5913 7.01044 59.8947 7.5318 60.8444 8.57452C61.8126 9.59862 62.2967 11.0044 62.2967 12.7919C62.2967 13.4623 62.2409 14.1047 62.1291 14.7191H52.5212C52.5398 18.6107 54.2622 20.5565 57.6883 20.5565C59.0662 20.5565 60.3975 20.2586 61.6823 19.6627V20.9754ZM56.9062 8.32315C55.6401 8.32315 54.6067 8.78865 53.806 9.71965C53.0053 10.6506 52.5771 11.8982 52.5212 13.4623H60.6768C60.714 13.1643 60.7326 12.9037 60.7326 12.6802C60.7326 11.3023 60.3975 10.2317 59.7272 9.46828C59.0568 8.70486 58.1165 8.32315 56.9062 8.32315Z" fill="#013D5B"/>
<path d="M43.5125 21.4782V8.71416H41.3898V7.51317L43.5125 7.42938V4.27329C43.5125 2.89541 43.8476 1.84338 44.518 1.1172C45.2069 0.3724 46.2031 0 47.5065 0C48.214 0 48.9309 0.13034 49.6571 0.39102V1.61994C48.9868 1.41512 48.3444 1.31271 47.7299 1.31271C46.8548 1.31271 46.2124 1.54546 45.8027 2.01096C45.3931 2.45784 45.1883 3.1654 45.1883 4.13364V7.42938H48.9588V8.71416H45.1883V21.4782H43.5125Z" fill="#013D5B"/>
<path d="M26.224 21.8971C24.1945 21.8971 22.6583 21.2734 21.6156 20.0258C20.5915 18.7597 20.0794 16.8977 20.0794 14.4398C20.0794 12.0006 20.5915 10.1572 21.6156 8.90968C22.6583 7.64352 24.1945 7.01044 26.224 7.01044C28.2536 7.01044 29.7805 7.64352 30.8046 8.90968C31.8473 10.1572 32.3686 12.0006 32.3686 14.4398C32.3686 16.8977 31.8473 18.7597 30.8046 20.0258C29.7805 21.2734 28.2536 21.8971 26.224 21.8971ZM26.224 20.5565C27.7509 20.5565 28.8588 20.0724 29.5477 19.1041C30.2553 18.1173 30.609 16.5625 30.609 14.4398C30.609 12.3358 30.2553 10.7996 29.5477 9.83137C28.8588 8.84451 27.7509 8.35108 26.224 8.35108C24.6972 8.35108 23.58 8.84451 22.8724 9.83137C22.1835 10.7996 21.839 12.3358 21.839 14.4398C21.839 16.5625 22.1835 18.1173 22.8724 19.1041C23.58 20.0724 24.6972 20.5565 26.224 20.5565Z" fill="#013D5B"/>
<path d="M14.1775 1.92717H15.8812V21.4782H14.2054L3.70374 4.83189V21.4782H2V1.92717H3.6758L14.1775 18.5735V1.92717Z" fill="#013D5B"/>
</svg>
