<svg width="197" height="25" viewBox="0 0 197 25" fill="none" xmlns="http://www.w3.org/2000/svg">
<g clip-path="url(#clip0_11090_3601)">
<path d="M4.068 -31V-42.682H0.27V-43.6H9V-42.682H5.202V-31H4.068ZM10.7757 -31V-44.518L11.8557 -44.662V-39.496C12.8637 -40.048 13.8537 -40.324 14.8257 -40.324C15.7977 -40.324 16.5477 -40.072 17.0757 -39.568C17.6157 -39.064 17.8857 -38.35 17.8857 -37.426V-31H16.8057V-37.246C16.8057 -38.722 16.0557 -39.46 14.5557 -39.46C14.1597 -39.46 13.7217 -39.394 13.2417 -39.262C12.7737 -39.13 12.3117 -38.95 11.8557 -38.722V-31H10.7757ZM27.1496 -31.324C26.3216 -30.928 25.4336 -30.73 24.4856 -30.73C23.1056 -30.73 22.0436 -31.138 21.2996 -31.954C20.5556 -32.77 20.1836 -33.94 20.1836 -35.464C20.1836 -36.976 20.5316 -38.164 21.2276 -39.028C21.9236 -39.892 22.8776 -40.324 24.0896 -40.324C25.1576 -40.324 25.9976 -39.988 26.6096 -39.316C27.2336 -38.656 27.5456 -37.75 27.5456 -36.598C27.5456 -36.166 27.5096 -35.752 27.4376 -35.356H21.2456C21.2576 -32.848 22.3676 -31.594 24.5756 -31.594C25.4636 -31.594 26.3216 -31.786 27.1496 -32.17V-31.324ZM24.0716 -39.478C23.2556 -39.478 22.5896 -39.178 22.0736 -38.578C21.5576 -37.978 21.2816 -37.174 21.2456 -36.166H26.5016C26.5256 -36.358 26.5376 -36.526 26.5376 -36.67C26.5376 -37.558 26.3216 -38.248 25.8896 -38.74C25.4576 -39.232 24.8516 -39.478 24.0716 -39.478ZM35.5334 -39.514C35.9894 -39.766 36.4514 -39.964 36.9194 -40.108C37.3994 -40.252 37.8434 -40.324 38.2514 -40.324C39.4274 -40.324 40.3514 -39.91 41.0234 -39.082C41.6954 -38.266 42.0314 -37.132 42.0314 -35.68C42.0314 -34.084 41.6474 -32.86 40.8794 -32.008C40.1234 -31.156 39.0254 -30.73 37.5854 -30.73C36.5654 -30.73 35.5214 -30.898 34.4534 -31.234V-44.518L35.5334 -44.662V-39.514ZM38.1074 -39.46C37.7114 -39.46 37.2854 -39.394 36.8294 -39.262C36.3734 -39.13 35.9414 -38.95 35.5334 -38.722V-31.882C36.1574 -31.69 36.8114 -31.594 37.4954 -31.594C38.6474 -31.594 39.4994 -31.924 40.0514 -32.584C40.6154 -33.256 40.8974 -34.282 40.8974 -35.662C40.8974 -36.898 40.6574 -37.84 40.1774 -38.488C39.7094 -39.136 39.0194 -39.46 38.1074 -39.46ZM50.8274 -31.324C49.9994 -30.928 49.1114 -30.73 48.1634 -30.73C46.7834 -30.73 45.7214 -31.138 44.9774 -31.954C44.2334 -32.77 43.8614 -33.94 43.8614 -35.464C43.8614 -36.976 44.2094 -38.164 44.9054 -39.028C45.6014 -39.892 46.5554 -40.324 47.7674 -40.324C48.8354 -40.324 49.6754 -39.988 50.2874 -39.316C50.9114 -38.656 51.2234 -37.75 51.2234 -36.598C51.2234 -36.166 51.1874 -35.752 51.1154 -35.356H44.9234C44.9354 -32.848 46.0454 -31.594 48.2534 -31.594C49.1414 -31.594 49.9994 -31.786 50.8274 -32.17V-31.324ZM47.7494 -39.478C46.9334 -39.478 46.2674 -39.178 45.7514 -38.578C45.2354 -37.978 44.9594 -37.174 44.9234 -36.166H50.1794C50.2034 -36.358 50.2154 -36.526 50.2154 -36.67C50.2154 -37.558 49.9994 -38.248 49.5674 -38.74C49.1354 -39.232 48.5294 -39.478 47.7494 -39.478ZM52.9291 -32.188C53.8291 -31.792 54.7591 -31.594 55.7191 -31.594C57.3391 -31.594 58.1491 -32.224 58.1491 -33.484C58.1491 -33.892 58.0291 -34.222 57.7891 -34.474C57.5611 -34.726 57.1771 -34.936 56.6371 -35.104L55.2691 -35.536C54.5011 -35.776 53.9431 -36.076 53.5951 -36.436C53.2471 -36.808 53.0731 -37.276 53.0731 -37.84C53.0731 -38.596 53.3671 -39.196 53.9551 -39.64C54.5551 -40.096 55.3591 -40.324 56.3671 -40.324C57.2191 -40.324 58.0291 -40.162 58.7971 -39.838V-38.992C57.9931 -39.304 57.2011 -39.46 56.4211 -39.46C55.7131 -39.46 55.1551 -39.316 54.7471 -39.028C54.3511 -38.752 54.1531 -38.368 54.1531 -37.876C54.1531 -37.528 54.2611 -37.246 54.4771 -37.03C54.7051 -36.826 55.1071 -36.628 55.6831 -36.436L57.1051 -35.968C57.8371 -35.728 58.3711 -35.41 58.7071 -35.014C59.0551 -34.618 59.2291 -34.114 59.2291 -33.502C59.2291 -32.614 58.9291 -31.93 58.3291 -31.45C57.7291 -30.97 56.8831 -30.73 55.7911 -30.73C54.7831 -30.73 53.8771 -30.916 53.0731 -31.288L52.9291 -32.188ZM62.8909 -39.226V-33.466C62.8909 -32.842 63.0229 -32.38 63.2869 -32.08C63.5509 -31.792 63.9589 -31.648 64.5109 -31.648C64.8709 -31.648 65.2789 -31.714 65.7349 -31.846V-31.054C65.2309 -30.886 64.7689 -30.802 64.3489 -30.802C63.5209 -30.802 62.8909 -31.024 62.4589 -31.468C62.0269 -31.924 61.8109 -32.596 61.8109 -33.484V-39.226H60.4429V-40L61.8469 -40.054L61.9549 -42.322L62.8909 -42.43V-40.054H65.6089V-39.226H62.8909ZM73.1858 -39.514C73.6418 -39.766 74.1038 -39.964 74.5718 -40.108C75.0518 -40.252 75.4958 -40.324 75.9038 -40.324C77.0798 -40.324 78.0038 -39.91 78.6758 -39.082C79.3478 -38.266 79.6837 -37.132 79.6837 -35.68C79.6837 -34.084 79.2998 -32.86 78.5318 -32.008C77.7758 -31.156 76.6778 -30.73 75.2378 -30.73C74.2178 -30.73 73.1738 -30.898 72.1058 -31.234V-44.518L73.1858 -44.662V-39.514ZM75.7598 -39.46C75.3638 -39.46 74.9378 -39.394 74.4818 -39.262C74.0258 -39.13 73.5938 -38.95 73.1858 -38.722V-31.882C73.8098 -31.69 74.4638 -31.594 75.1478 -31.594C76.2998 -31.594 77.1518 -31.924 77.7038 -32.584C78.2678 -33.256 78.5498 -34.282 78.5498 -35.662C78.5498 -36.898 78.3098 -37.84 77.8298 -38.488C77.3618 -39.136 76.6718 -39.46 75.7598 -39.46ZM88.4797 -31.324C87.6517 -30.928 86.7637 -30.73 85.8157 -30.73C84.4357 -30.73 83.3737 -31.138 82.6297 -31.954C81.8857 -32.77 81.5137 -33.94 81.5137 -35.464C81.5137 -36.976 81.8617 -38.164 82.5577 -39.028C83.2537 -39.892 84.2077 -40.324 85.4197 -40.324C86.4877 -40.324 87.3277 -39.988 87.9397 -39.316C88.5637 -38.656 88.8757 -37.75 88.8757 -36.598C88.8757 -36.166 88.8397 -35.752 88.7677 -35.356H82.5757C82.5877 -32.848 83.6977 -31.594 85.9057 -31.594C86.7937 -31.594 87.6517 -31.786 88.4797 -32.17V-31.324ZM85.4017 -39.478C84.5857 -39.478 83.9197 -39.178 83.4037 -38.578C82.8877 -37.978 82.6117 -37.174 82.5757 -36.166H87.8317C87.8557 -36.358 87.8677 -36.526 87.8677 -36.67C87.8677 -37.558 87.6517 -38.248 87.2197 -38.74C86.7877 -39.232 86.1817 -39.478 85.4017 -39.478ZM98.2675 -44.662V-31.054L97.3495 -30.964L97.2775 -31.594C96.2575 -31.018 95.3215 -30.73 94.4695 -30.73C93.2935 -30.73 92.3695 -31.138 91.6975 -31.954C91.0255 -32.782 90.6895 -33.922 90.6895 -35.374C90.6895 -36.97 91.0675 -38.194 91.8235 -39.046C92.5915 -39.898 93.6955 -40.324 95.1355 -40.324C95.8795 -40.324 96.5635 -40.228 97.1875 -40.036V-44.518L98.2675 -44.662ZM94.6135 -31.594C95.0095 -31.594 95.4355 -31.66 95.8915 -31.792C96.3475 -31.924 96.7795 -32.104 97.1875 -32.332V-39.172C96.5635 -39.364 95.9095 -39.46 95.2255 -39.46C94.0735 -39.46 93.2155 -39.124 92.6515 -38.452C92.0995 -37.792 91.8235 -36.772 91.8235 -35.392C91.8235 -34.156 92.0575 -33.214 92.5255 -32.566C93.0055 -31.918 93.7015 -31.594 94.6135 -31.594ZM102.617 -39.226V-33.466C102.617 -32.842 102.749 -32.38 103.013 -32.08C103.277 -31.792 103.685 -31.648 104.237 -31.648C104.597 -31.648 105.005 -31.714 105.461 -31.846V-31.054C104.957 -30.886 104.495 -30.802 104.075 -30.802C103.247 -30.802 102.617 -31.024 102.185 -31.468C101.753 -31.924 101.537 -32.596 101.537 -33.484V-39.226H100.169V-40L101.573 -40.054L101.681 -42.322L102.617 -42.43V-40.054H105.335V-39.226H102.617ZM107.332 -31V-39.964L108.412 -40.108V-31H107.332ZM107.872 -42.25C107.632 -42.25 107.434 -42.322 107.278 -42.466C107.134 -42.61 107.062 -42.808 107.062 -43.06C107.062 -43.312 107.134 -43.51 107.278 -43.654C107.434 -43.798 107.632 -43.87 107.872 -43.87C108.112 -43.87 108.304 -43.798 108.448 -43.654C108.604 -43.51 108.682 -43.312 108.682 -43.06C108.682 -42.808 108.604 -42.61 108.448 -42.466C108.304 -42.322 108.112 -42.25 107.872 -42.25ZM122.264 -31V-37.426C122.264 -38.782 121.622 -39.46 120.338 -39.46C119.594 -39.46 118.742 -39.19 117.782 -38.65C117.878 -38.326 117.926 -37.978 117.926 -37.606V-31H116.846V-37.426C116.846 -38.782 116.204 -39.46 114.92 -39.46C114.2 -39.46 113.396 -39.214 112.508 -38.722V-31H111.428V-40L112.346 -40.09L112.418 -39.46C113.438 -40.036 114.362 -40.324 115.19 -40.324C116.246 -40.324 117.008 -39.976 117.476 -39.28C118.64 -39.976 119.684 -40.324 120.608 -40.324C121.484 -40.324 122.156 -40.09 122.624 -39.622C123.104 -39.154 123.344 -38.482 123.344 -37.606V-31H122.264ZM132.618 -31.324C131.79 -30.928 130.902 -30.73 129.954 -30.73C128.574 -30.73 127.512 -31.138 126.768 -31.954C126.024 -32.77 125.652 -33.94 125.652 -35.464C125.652 -36.976 126 -38.164 126.696 -39.028C127.392 -39.892 128.346 -40.324 129.558 -40.324C130.626 -40.324 131.466 -39.988 132.078 -39.316C132.702 -38.656 133.014 -37.75 133.014 -36.598C133.014 -36.166 132.978 -35.752 132.906 -35.356H126.714C126.726 -32.848 127.836 -31.594 130.044 -31.594C130.932 -31.594 131.79 -31.786 132.618 -32.17V-31.324ZM129.54 -39.478C128.724 -39.478 128.058 -39.178 127.542 -38.578C127.026 -37.978 126.75 -37.174 126.714 -36.166H131.97C131.994 -36.358 132.006 -36.526 132.006 -36.67C132.006 -37.558 131.79 -38.248 131.358 -38.74C130.926 -39.232 130.32 -39.478 129.54 -39.478ZM139.22 -32.188C140.12 -31.792 141.05 -31.594 142.01 -31.594C143.63 -31.594 144.44 -32.224 144.44 -33.484C144.44 -33.892 144.32 -34.222 144.08 -34.474C143.852 -34.726 143.468 -34.936 142.928 -35.104L141.56 -35.536C140.792 -35.776 140.234 -36.076 139.886 -36.436C139.538 -36.808 139.364 -37.276 139.364 -37.84C139.364 -38.596 139.658 -39.196 140.246 -39.64C140.846 -40.096 141.65 -40.324 142.658 -40.324C143.51 -40.324 144.32 -40.162 145.088 -39.838V-38.992C144.284 -39.304 143.492 -39.46 142.712 -39.46C142.004 -39.46 141.446 -39.316 141.038 -39.028C140.642 -38.752 140.444 -38.368 140.444 -37.876C140.444 -37.528 140.552 -37.246 140.768 -37.03C140.996 -36.826 141.398 -36.628 141.974 -36.436L143.396 -35.968C144.128 -35.728 144.662 -35.41 144.998 -35.014C145.346 -34.618 145.52 -34.114 145.52 -33.502C145.52 -32.614 145.22 -31.93 144.62 -31.45C144.02 -30.97 143.174 -30.73 142.082 -30.73C141.074 -30.73 140.168 -30.916 139.364 -31.288L139.22 -32.188ZM149.182 -39.226V-33.466C149.182 -32.842 149.314 -32.38 149.578 -32.08C149.842 -31.792 150.25 -31.648 150.802 -31.648C151.162 -31.648 151.57 -31.714 152.026 -31.846V-31.054C151.522 -30.886 151.06 -30.802 150.64 -30.802C149.812 -30.802 149.182 -31.024 148.75 -31.468C148.318 -31.924 148.102 -32.596 148.102 -33.484V-39.226H146.734V-40L148.138 -40.054L148.246 -42.322L149.182 -42.43V-40.054H151.9V-39.226H149.182ZM157.263 -30.73C155.955 -30.73 154.965 -31.132 154.293 -31.936C153.633 -32.752 153.303 -33.952 153.303 -35.536C153.303 -37.108 153.633 -38.296 154.293 -39.1C154.965 -39.916 155.955 -40.324 157.263 -40.324C158.571 -40.324 159.555 -39.916 160.215 -39.1C160.887 -38.296 161.223 -37.108 161.223 -35.536C161.223 -33.952 160.887 -32.752 160.215 -31.936C159.555 -31.132 158.571 -30.73 157.263 -30.73ZM157.263 -31.594C158.247 -31.594 158.961 -31.906 159.405 -32.53C159.861 -33.166 160.089 -34.168 160.089 -35.536C160.089 -36.892 159.861 -37.882 159.405 -38.506C158.961 -39.142 158.247 -39.46 157.263 -39.46C156.279 -39.46 155.559 -39.142 155.103 -38.506C154.659 -37.882 154.437 -36.892 154.437 -35.536C154.437 -34.168 154.659 -33.166 155.103 -32.53C155.559 -31.906 156.279 -31.594 157.263 -31.594ZM163.653 -31V-40L164.571 -40.09L164.661 -39.28C165.465 -39.94 166.323 -40.27 167.235 -40.27C167.559 -40.27 167.817 -40.234 168.009 -40.162V-39.28C167.697 -39.352 167.421 -39.388 167.181 -39.388C166.329 -39.388 165.513 -39.082 164.733 -38.47V-31H163.653ZM169.055 -27.886C169.907 -28.042 170.573 -28.342 171.053 -28.786C171.533 -29.23 171.977 -29.938 172.385 -30.91L168.929 -40.054H170.063L172.889 -32.116L175.805 -40.054H176.885L173.429 -31.09C173.105 -30.226 172.763 -29.524 172.403 -28.984C172.055 -28.432 171.641 -28 171.161 -27.688C170.681 -27.364 170.057 -27.118 169.289 -26.95L169.055 -27.886ZM180.395 -34.6C180.395 -35.356 180.515 -36.004 180.755 -36.544C180.995 -37.084 181.391 -37.606 181.943 -38.11C182.531 -38.638 182.921 -39.064 183.113 -39.388C183.305 -39.724 183.401 -40.108 183.401 -40.54C183.401 -41.224 183.173 -41.752 182.717 -42.124C182.273 -42.508 181.655 -42.7 180.863 -42.7C179.843 -42.7 178.835 -42.334 177.839 -41.602V-42.502C178.319 -42.85 178.835 -43.12 179.387 -43.312C179.951 -43.504 180.515 -43.6 181.079 -43.6C182.099 -43.6 182.921 -43.324 183.545 -42.772C184.181 -42.232 184.499 -41.512 184.499 -40.612C184.499 -40.096 184.367 -39.622 184.103 -39.19C183.839 -38.758 183.335 -38.212 182.591 -37.552C182.111 -37.132 181.763 -36.7 181.547 -36.256C181.343 -35.812 181.235 -35.26 181.223 -34.6H180.395ZM180.809 -30.91C180.569 -30.91 180.371 -30.982 180.215 -31.126C180.059 -31.282 179.981 -31.486 179.981 -31.738C179.981 -31.99 180.059 -32.188 180.215 -32.332C180.371 -32.488 180.569 -32.566 180.809 -32.566C181.049 -32.566 181.247 -32.488 181.403 -32.332C181.559 -32.188 181.637 -31.99 181.637 -31.738C181.637 -31.486 181.559 -31.282 181.403 -31.126C181.247 -30.982 181.049 -30.91 180.809 -30.91ZM9.63 -19.6H10.728V-7H9.648L2.88 -17.728V-7H1.782V-19.6H2.862L9.63 -8.872V-19.6ZM17.3936 -6.73C16.0856 -6.73 15.0956 -7.132 14.4236 -7.936C13.7636 -8.752 13.4336 -9.952 13.4336 -11.536C13.4336 -13.108 13.7636 -14.296 14.4236 -15.1C15.0956 -15.916 16.0856 -16.324 17.3936 -16.324C18.7016 -16.324 19.6856 -15.916 20.3456 -15.1C21.0176 -14.296 21.3536 -13.108 21.3536 -11.536C21.3536 -9.952 21.0176 -8.752 20.3456 -7.936C19.6856 -7.132 18.7016 -6.73 17.3936 -6.73ZM17.3936 -7.594C18.3776 -7.594 19.0916 -7.906 19.5356 -8.53C19.9916 -9.166 20.2196 -10.168 20.2196 -11.536C20.2196 -12.892 19.9916 -13.882 19.5356 -14.506C19.0916 -15.142 18.3776 -15.46 17.3936 -15.46C16.4096 -15.46 15.6896 -15.142 15.2336 -14.506C14.7896 -13.882 14.5676 -12.892 14.5676 -11.536C14.5676 -10.168 14.7896 -9.166 15.2336 -8.53C15.6896 -7.906 16.4096 -7.594 17.3936 -7.594ZM28.5355 -7V-15.226H27.1675V-16L28.5355 -16.054V-18.088C28.5355 -18.976 28.7515 -19.654 29.1835 -20.122C29.6275 -20.602 30.2695 -20.842 31.1095 -20.842C31.5655 -20.842 32.0275 -20.758 32.4955 -20.59V-19.798C32.0635 -19.93 31.6495 -19.996 31.2535 -19.996C30.6895 -19.996 30.2755 -19.846 30.0115 -19.546C29.7475 -19.258 29.6155 -18.802 29.6155 -18.178V-16.054H32.0455V-15.226H29.6155V-7H28.5355ZM40.2453 -7.324C39.4173 -6.928 38.5293 -6.73 37.5813 -6.73C36.2013 -6.73 35.1393 -7.138 34.3953 -7.954C33.6513 -8.77 33.2793 -9.94 33.2793 -11.464C33.2793 -12.976 33.6273 -14.164 34.3233 -15.028C35.0193 -15.892 35.9733 -16.324 37.1853 -16.324C38.2533 -16.324 39.0933 -15.988 39.7053 -15.316C40.3293 -14.656 40.6413 -13.75 40.6413 -12.598C40.6413 -12.166 40.6053 -11.752 40.5333 -11.356H34.3413C34.3533 -8.848 35.4633 -7.594 37.6713 -7.594C38.5593 -7.594 39.4173 -7.786 40.2453 -8.17V-7.324ZM37.1673 -15.478C36.3513 -15.478 35.6853 -15.178 35.1693 -14.578C34.6533 -13.978 34.3773 -13.174 34.3413 -12.166H39.5973C39.6213 -12.358 39.6333 -12.526 39.6333 -12.67C39.6333 -13.558 39.4173 -14.248 38.9853 -14.74C38.5533 -15.232 37.9473 -15.478 37.1673 -15.478ZM49.4211 -7.324C48.5931 -6.928 47.7051 -6.73 46.7571 -6.73C45.3771 -6.73 44.3151 -7.138 43.5711 -7.954C42.8271 -8.77 42.4551 -9.94 42.4551 -11.464C42.4551 -12.976 42.8031 -14.164 43.4991 -15.028C44.1951 -15.892 45.1491 -16.324 46.3611 -16.324C47.4291 -16.324 48.2691 -15.988 48.8811 -15.316C49.5051 -14.656 49.8171 -13.75 49.8171 -12.598C49.8171 -12.166 49.7811 -11.752 49.7091 -11.356H43.5171C43.5291 -8.848 44.6391 -7.594 46.8471 -7.594C47.7351 -7.594 48.5931 -7.786 49.4211 -8.17V-7.324ZM46.3431 -15.478C45.5271 -15.478 44.8611 -15.178 44.3451 -14.578C43.8291 -13.978 43.5531 -13.174 43.5171 -12.166H48.7731C48.7971 -12.358 48.8091 -12.526 48.8091 -12.67C48.8091 -13.558 48.5931 -14.248 48.1611 -14.74C47.7291 -15.232 47.1231 -15.478 46.3431 -15.478ZM51.5229 -8.188C52.4229 -7.792 53.3529 -7.594 54.3129 -7.594C55.9329 -7.594 56.7429 -8.224 56.7429 -9.484C56.7429 -9.892 56.6229 -10.222 56.3829 -10.474C56.1549 -10.726 55.7709 -10.936 55.2309 -11.104L53.8629 -11.536C53.0949 -11.776 52.5369 -12.076 52.1889 -12.436C51.8409 -12.808 51.6669 -13.276 51.6669 -13.84C51.6669 -14.596 51.9609 -15.196 52.5489 -15.64C53.1489 -16.096 53.9529 -16.324 54.9609 -16.324C55.8129 -16.324 56.6229 -16.162 57.3909 -15.838V-14.992C56.5869 -15.304 55.7949 -15.46 55.0149 -15.46C54.3069 -15.46 53.7489 -15.316 53.3409 -15.028C52.9449 -14.752 52.7469 -14.368 52.7469 -13.876C52.7469 -13.528 52.8549 -13.246 53.0709 -13.03C53.2989 -12.826 53.7009 -12.628 54.2769 -12.436L55.6989 -11.968C56.4309 -11.728 56.9649 -11.41 57.3009 -11.014C57.6489 -10.618 57.8229 -10.114 57.8229 -9.502C57.8229 -8.614 57.5229 -7.93 56.9229 -7.45C56.3229 -6.97 55.4769 -6.73 54.3849 -6.73C53.3769 -6.73 52.4709 -6.916 51.6669 -7.288L51.5229 -8.188ZM68.0186 -6.73C66.7106 -6.73 65.7206 -7.132 65.0486 -7.936C64.3886 -8.752 64.0586 -9.952 64.0586 -11.536C64.0586 -13.108 64.3886 -14.296 65.0486 -15.1C65.7206 -15.916 66.7106 -16.324 68.0186 -16.324C69.3266 -16.324 70.3106 -15.916 70.9706 -15.1C71.6426 -14.296 71.9786 -13.108 71.9786 -11.536C71.9786 -9.952 71.6426 -8.752 70.9706 -7.936C70.3106 -7.132 69.3266 -6.73 68.0186 -6.73ZM68.0186 -7.594C69.0026 -7.594 69.7166 -7.906 70.1606 -8.53C70.6166 -9.166 70.8446 -10.168 70.8446 -11.536C70.8446 -12.892 70.6166 -13.882 70.1606 -14.506C69.7166 -15.142 69.0026 -15.46 68.0186 -15.46C67.0346 -15.46 66.3146 -15.142 65.8586 -14.506C65.4146 -13.882 65.1926 -12.892 65.1926 -11.536C65.1926 -10.168 65.4146 -9.166 65.8586 -8.53C66.3146 -7.906 67.0346 -7.594 68.0186 -7.594ZM74.4085 -7V-16L75.3265 -16.09L75.4165 -15.28C76.2205 -15.94 77.0785 -16.27 77.9905 -16.27C78.3145 -16.27 78.5725 -16.234 78.7645 -16.162V-15.28C78.4525 -15.352 78.1765 -15.388 77.9365 -15.388C77.0845 -15.388 76.2685 -15.082 75.4885 -14.47V-7H74.4085ZM95.932 -7V-13.426C95.932 -14.782 95.29 -15.46 94.006 -15.46C93.262 -15.46 92.41 -15.19 91.45 -14.65C91.546 -14.326 91.594 -13.978 91.594 -13.606V-7H90.514V-13.426C90.514 -14.782 89.872 -15.46 88.588 -15.46C87.868 -15.46 87.064 -15.214 86.176 -14.722V-7H85.096V-16L86.014 -16.09L86.086 -15.46C87.106 -16.036 88.03 -16.324 88.858 -16.324C89.914 -16.324 90.676 -15.976 91.144 -15.28C92.308 -15.976 93.352 -16.324 94.276 -16.324C95.152 -16.324 95.824 -16.09 96.292 -15.622C96.772 -15.154 97.012 -14.482 97.012 -13.606V-7H95.932ZM99.9143 -7V-15.964L100.994 -16.108V-7H99.9143ZM100.454 -18.25C100.214 -18.25 100.016 -18.322 99.8603 -18.466C99.7163 -18.61 99.6443 -18.808 99.6443 -19.06C99.6443 -19.312 99.7163 -19.51 99.8603 -19.654C100.016 -19.798 100.214 -19.87 100.454 -19.87C100.694 -19.87 100.886 -19.798 101.03 -19.654C101.186 -19.51 101.264 -19.312 101.264 -19.06C101.264 -18.808 101.186 -18.61 101.03 -18.466C100.886 -18.322 100.694 -18.25 100.454 -18.25ZM110.04 -7V-13.246C110.04 -14.722 109.29 -15.46 107.79 -15.46C107.394 -15.46 106.956 -15.394 106.476 -15.262C106.008 -15.13 105.546 -14.95 105.09 -14.722V-7H104.01V-16L104.928 -16.09L105 -15.46C106.044 -16.036 107.064 -16.324 108.06 -16.324C109.032 -16.324 109.782 -16.072 110.31 -15.568C110.85 -15.064 111.12 -14.35 111.12 -13.426V-7H110.04ZM114.012 -7V-15.964L115.092 -16.108V-7H114.012ZM114.552 -18.25C114.312 -18.25 114.114 -18.322 113.958 -18.466C113.814 -18.61 113.742 -18.808 113.742 -19.06C113.742 -19.312 113.814 -19.51 113.958 -19.654C114.114 -19.798 114.312 -19.87 114.552 -19.87C114.792 -19.87 114.984 -19.798 115.128 -19.654C115.284 -19.51 115.362 -19.312 115.362 -19.06C115.362 -18.808 115.284 -18.61 115.128 -18.466C114.984 -18.322 114.792 -18.25 114.552 -18.25ZM128.944 -7V-13.426C128.944 -14.782 128.302 -15.46 127.018 -15.46C126.274 -15.46 125.422 -15.19 124.462 -14.65C124.558 -14.326 124.606 -13.978 124.606 -13.606V-7H123.526V-13.426C123.526 -14.782 122.884 -15.46 121.6 -15.46C120.88 -15.46 120.076 -15.214 119.188 -14.722V-7H118.108V-16L119.026 -16.09L119.098 -15.46C120.118 -16.036 121.042 -16.324 121.87 -16.324C122.926 -16.324 123.688 -15.976 124.156 -15.28C125.32 -15.976 126.364 -16.324 127.288 -16.324C128.164 -16.324 128.836 -16.09 129.304 -15.622C129.784 -15.154 130.024 -14.482 130.024 -13.606V-7H128.944ZM133.88 -16.054V-9.808C133.88 -8.332 134.606 -7.594 136.058 -7.594C136.454 -7.594 136.886 -7.66 137.354 -7.792C137.834 -7.924 138.302 -8.104 138.758 -8.332V-16.054H139.838V-7.054L138.92 -6.964L138.848 -7.594C137.804 -7.018 136.784 -6.73 135.788 -6.73C134.84 -6.73 134.102 -6.982 133.574 -7.486C133.058 -8.002 132.8 -8.716 132.8 -9.628V-16.054H133.88ZM153.694 -7V-13.426C153.694 -14.782 153.052 -15.46 151.768 -15.46C151.024 -15.46 150.172 -15.19 149.212 -14.65C149.308 -14.326 149.356 -13.978 149.356 -13.606V-7H148.276V-13.426C148.276 -14.782 147.634 -15.46 146.35 -15.46C145.63 -15.46 144.826 -15.214 143.938 -14.722V-7H142.858V-16L143.776 -16.09L143.848 -15.46C144.868 -16.036 145.792 -16.324 146.62 -16.324C147.676 -16.324 148.438 -15.976 148.906 -15.28C150.07 -15.976 151.114 -16.324 152.038 -16.324C152.914 -16.324 153.586 -16.09 154.054 -15.622C154.534 -15.154 154.774 -14.482 154.774 -13.606V-7H153.694ZM156.974 -8.188C157.874 -7.792 158.804 -7.594 159.764 -7.594C161.384 -7.594 162.194 -8.224 162.194 -9.484C162.194 -9.892 162.074 -10.222 161.834 -10.474C161.606 -10.726 161.222 -10.936 160.682 -11.104L159.314 -11.536C158.546 -11.776 157.988 -12.076 157.64 -12.436C157.292 -12.808 157.118 -13.276 157.118 -13.84C157.118 -14.596 157.412 -15.196 158 -15.64C158.6 -16.096 159.404 -16.324 160.412 -16.324C161.264 -16.324 162.074 -16.162 162.842 -15.838V-14.992C162.038 -15.304 161.246 -15.46 160.466 -15.46C159.758 -15.46 159.2 -15.316 158.792 -15.028C158.396 -14.752 158.198 -14.368 158.198 -13.876C158.198 -13.528 158.306 -13.246 158.522 -13.03C158.75 -12.826 159.152 -12.628 159.728 -12.436L161.15 -11.968C161.882 -11.728 162.416 -11.41 162.752 -11.014C163.1 -10.618 163.274 -10.114 163.274 -9.502C163.274 -8.614 162.974 -7.93 162.374 -7.45C161.774 -6.97 160.928 -6.73 159.836 -6.73C158.828 -6.73 157.922 -6.916 157.118 -7.288L156.974 -8.188ZM173.47 -6.73C172.162 -6.73 171.172 -7.132 170.5 -7.936C169.84 -8.752 169.51 -9.952 169.51 -11.536C169.51 -13.108 169.84 -14.296 170.5 -15.1C171.172 -15.916 172.162 -16.324 173.47 -16.324C174.778 -16.324 175.762 -15.916 176.422 -15.1C177.094 -14.296 177.43 -13.108 177.43 -11.536C177.43 -9.952 177.094 -8.752 176.422 -7.936C175.762 -7.132 174.778 -6.73 173.47 -6.73ZM173.47 -7.594C174.454 -7.594 175.168 -7.906 175.612 -8.53C176.068 -9.166 176.296 -10.168 176.296 -11.536C176.296 -12.892 176.068 -13.882 175.612 -14.506C175.168 -15.142 174.454 -15.46 173.47 -15.46C172.486 -15.46 171.766 -15.142 171.31 -14.506C170.866 -13.882 170.644 -12.892 170.644 -11.536C170.644 -10.168 170.866 -9.166 171.31 -8.53C171.766 -7.906 172.486 -7.594 173.47 -7.594ZM185.89 -7V-13.246C185.89 -14.722 185.14 -15.46 183.64 -15.46C183.244 -15.46 182.806 -15.394 182.326 -15.262C181.858 -15.13 181.396 -14.95 180.94 -14.722V-7H179.86V-16L180.778 -16.09L180.85 -15.46C181.894 -16.036 182.914 -16.324 183.91 -16.324C184.882 -16.324 185.632 -16.072 186.16 -15.568C186.7 -15.064 186.97 -14.35 186.97 -13.426V-7H185.89ZM7.488 16.676C6.696 17.072 5.832 17.27 4.896 17.27C3.624 17.27 2.64 16.856 1.944 16.028C1.26 15.2 0.918 14.018 0.918 12.482C0.918 10.946 1.26 9.764 1.944 8.936C2.64 8.096 3.624 7.676 4.896 7.676C5.796 7.676 6.648 7.874 7.452 8.27V9.116C6.612 8.744 5.796 8.558 5.004 8.558C4.032 8.558 3.294 8.888 2.79 9.548C2.298 10.208 2.052 11.186 2.052 12.482C2.052 13.766 2.298 14.738 2.79 15.398C3.294 16.058 4.032 16.388 5.004 16.388C5.82 16.388 6.648 16.202 7.488 15.83V16.676ZM9.80888 17V3.482L10.8889 3.338V8.504C11.8969 7.952 12.8869 7.676 13.8589 7.676C14.8309 7.676 15.5809 7.928 16.1089 8.432C16.6489 8.936 16.9189 9.65 16.9189 10.574V17H15.8389V10.754C15.8389 9.278 15.0889 8.54 13.5889 8.54C13.1929 8.54 12.7549 8.606 12.2749 8.738C11.8069 8.87 11.3449 9.05 10.8889 9.278V17H9.80888ZM26.1828 16.676C25.3548 17.072 24.4668 17.27 23.5188 17.27C22.1388 17.27 21.0768 16.862 20.3328 16.046C19.5888 15.23 19.2168 14.06 19.2168 12.536C19.2168 11.024 19.5648 9.836 20.2608 8.972C20.9568 8.108 21.9108 7.676 23.1228 7.676C24.1908 7.676 25.0308 8.012 25.6428 8.684C26.2668 9.344 26.5788 10.25 26.5788 11.402C26.5788 11.834 26.5428 12.248 26.4708 12.644H20.2788C20.2908 15.152 21.4008 16.406 23.6088 16.406C24.4968 16.406 25.3548 16.214 26.1828 15.83V16.676ZM23.1048 8.522C22.2888 8.522 21.6228 8.822 21.1068 9.422C20.5908 10.022 20.3148 10.826 20.2788 11.834H25.5348C25.5588 11.642 25.5708 11.474 25.5708 11.33C25.5708 10.442 25.3548 9.752 24.9228 9.26C24.4908 8.768 23.8848 8.522 23.1048 8.522ZM34.9626 16.676C34.1706 17.072 33.3066 17.27 32.3706 17.27C31.0986 17.27 30.1146 16.856 29.4186 16.028C28.7346 15.2 28.3926 14.018 28.3926 12.482C28.3926 10.946 28.7346 9.764 29.4186 8.936C30.1146 8.096 31.0986 7.676 32.3706 7.676C33.2706 7.676 34.1226 7.874 34.9266 8.27V9.116C34.0866 8.744 33.2706 8.558 32.4786 8.558C31.5066 8.558 30.7686 8.888 30.2646 9.548C29.7726 10.208 29.5266 11.186 29.5266 12.482C29.5266 13.766 29.7726 14.738 30.2646 15.398C30.7686 16.058 31.5066 16.388 32.4786 16.388C33.2946 16.388 34.1226 16.202 34.9626 15.83V16.676ZM37.2835 17V3.482L38.3635 3.338V11.96L42.6115 7.946H43.8895L39.4435 12.158L44.0335 17H42.6655L38.3635 12.428V17H37.2835ZM45.5628 17V8.036L46.6428 7.892V17H45.5628ZM46.1028 5.75C45.8628 5.75 45.6648 5.678 45.5088 5.534C45.3648 5.39 45.2928 5.192 45.2928 4.94C45.2928 4.688 45.3648 4.49 45.5088 4.346C45.6648 4.202 45.8628 4.13 46.1028 4.13C46.3428 4.13 46.5348 4.202 46.6788 4.346C46.8348 4.49 46.9128 4.688 46.9128 4.94C46.9128 5.192 46.8348 5.39 46.6788 5.534C46.5348 5.678 46.3428 5.75 46.1028 5.75ZM55.6885 17V10.754C55.6885 9.278 54.9385 8.54 53.4385 8.54C53.0425 8.54 52.6045 8.606 52.1245 8.738C51.6565 8.87 51.1945 9.05 50.7385 9.278V17H49.6585V8L50.5765 7.91L50.6485 8.54C51.6925 7.964 52.7125 7.676 53.7085 7.676C54.6805 7.676 55.4305 7.928 55.9585 8.432C56.4985 8.936 56.7685 9.65 56.7685 10.574V17H55.6885ZM62.6124 21.194C61.5444 21.194 60.6384 21.008 59.8944 20.636L59.7504 19.718C60.7344 20.126 61.6704 20.33 62.5584 20.33C64.5624 20.33 65.5644 19.4 65.5644 17.54V16.298C65.1084 16.55 64.6404 16.748 64.1604 16.892C63.6924 17.036 63.2544 17.108 62.8464 17.108C61.6704 17.108 60.7464 16.712 60.0744 15.92C59.4024 15.128 59.0664 14.03 59.0664 12.626C59.0664 11.03 59.4444 9.806 60.2004 8.954C60.9684 8.102 62.0724 7.676 63.5124 7.676C64.6044 7.676 65.6484 7.868 66.6444 8.252V17.45C66.6444 18.65 66.2964 19.574 65.6004 20.222C64.9044 20.87 63.9084 21.194 62.6124 21.194ZM62.9904 16.244C63.3864 16.244 63.8124 16.178 64.2684 16.046C64.7244 15.914 65.1564 15.734 65.5644 15.506V8.828C64.9404 8.636 64.2864 8.54 63.6024 8.54C62.4504 8.54 61.5924 8.876 61.0284 9.548C60.4764 10.208 60.2004 11.228 60.2004 12.608C60.2004 13.796 60.4344 14.702 60.9024 15.326C61.3824 15.938 62.0784 16.244 62.9904 16.244ZM79.7064 17.036L79.6344 16.406C78.6024 16.982 77.5824 17.27 76.5744 17.27C75.6504 17.27 74.9184 17.03 74.3784 16.55C73.8384 16.058 73.5684 15.386 73.5684 14.534C73.5684 13.634 73.8684 12.95 74.4684 12.482C75.0804 12.002 75.9744 11.762 77.1504 11.762C77.8584 11.762 78.6624 11.846 79.5624 12.014V10.79C79.5624 9.29 78.7164 8.54 77.0244 8.54C76.5804 8.54 76.0944 8.6 75.5664 8.72C75.0384 8.84 74.5524 8.996 74.1084 9.188V8.342C74.5404 8.138 75.0324 7.976 75.5844 7.856C76.1484 7.736 76.6824 7.676 77.1864 7.676C78.3144 7.676 79.1664 7.946 79.7424 8.486C80.3304 9.014 80.6244 9.782 80.6244 10.79V16.946L79.7064 17.036ZM76.8264 16.406C77.2584 16.406 77.7144 16.34 78.1944 16.208C78.6744 16.076 79.1304 15.896 79.5624 15.668V12.788C78.8064 12.644 78.0624 12.572 77.3304 12.572C76.4064 12.572 75.7344 12.728 75.3144 13.04C74.8944 13.352 74.6844 13.844 74.6844 14.516C74.6844 15.776 75.3984 16.406 76.8264 16.406ZM89.49 16.676C88.698 17.072 87.834 17.27 86.898 17.27C85.626 17.27 84.642 16.856 83.946 16.028C83.262 15.2 82.92 14.018 82.92 12.482C82.92 10.946 83.262 9.764 83.946 8.936C84.642 8.096 85.626 7.676 86.898 7.676C87.798 7.676 88.65 7.874 89.454 8.27V9.116C88.614 8.744 87.798 8.558 87.006 8.558C86.034 8.558 85.296 8.888 84.792 9.548C84.3 10.208 84.054 11.186 84.054 12.482C84.054 13.766 84.3 14.738 84.792 15.398C85.296 16.058 86.034 16.388 87.006 16.388C87.822 16.388 88.65 16.202 89.49 15.83V16.676ZM97.611 16.676C96.819 17.072 95.955 17.27 95.019 17.27C93.747 17.27 92.763 16.856 92.067 16.028C91.383 15.2 91.041 14.018 91.041 12.482C91.041 10.946 91.383 9.764 92.067 8.936C92.763 8.096 93.747 7.676 95.019 7.676C95.919 7.676 96.771 7.874 97.575 8.27V9.116C96.735 8.744 95.919 8.558 95.127 8.558C94.155 8.558 93.417 8.888 92.913 9.548C92.421 10.208 92.175 11.186 92.175 12.482C92.175 13.766 92.421 14.738 92.913 15.398C93.417 16.058 94.155 16.388 95.127 16.388C95.943 16.388 96.771 16.202 97.611 15.83V16.676ZM103.122 17.27C101.814 17.27 100.824 16.868 100.152 16.064C99.4921 15.248 99.1621 14.048 99.1621 12.464C99.1621 10.892 99.4921 9.704 100.152 8.9C100.824 8.084 101.814 7.676 103.122 7.676C104.43 7.676 105.414 8.084 106.074 8.9C106.746 9.704 107.082 10.892 107.082 12.464C107.082 14.048 106.746 15.248 106.074 16.064C105.414 16.868 104.43 17.27 103.122 17.27ZM103.122 16.406C104.106 16.406 104.82 16.094 105.264 15.47C105.72 14.834 105.948 13.832 105.948 12.464C105.948 11.108 105.72 10.118 105.264 9.494C104.82 8.858 104.106 8.54 103.122 8.54C102.138 8.54 101.418 8.858 100.962 9.494C100.518 10.118 100.296 11.108 100.296 12.464C100.296 13.832 100.518 14.834 100.962 15.47C101.418 16.094 102.138 16.406 103.122 16.406ZM110.466 7.946V14.192C110.466 15.668 111.192 16.406 112.644 16.406C113.04 16.406 113.472 16.34 113.94 16.208C114.42 16.076 114.888 15.896 115.344 15.668V7.946H116.424V16.946L115.506 17.036L115.434 16.406C114.39 16.982 113.37 17.27 112.374 17.27C111.426 17.27 110.688 17.018 110.16 16.514C109.644 15.998 109.386 15.284 109.386 14.372V7.946H110.466ZM125.474 17V10.754C125.474 9.278 124.724 8.54 123.224 8.54C122.828 8.54 122.39 8.606 121.91 8.738C121.442 8.87 120.98 9.05 120.524 9.278V17H119.444V8L120.362 7.91L120.434 8.54C121.478 7.964 122.498 7.676 123.494 7.676C124.466 7.676 125.216 7.928 125.744 8.432C126.284 8.936 126.554 9.65 126.554 10.574V17H125.474ZM130.778 8.774V14.534C130.778 15.158 130.91 15.62 131.174 15.92C131.438 16.208 131.846 16.352 132.398 16.352C132.758 16.352 133.166 16.286 133.622 16.154V16.946C133.118 17.114 132.656 17.198 132.236 17.198C131.408 17.198 130.778 16.976 130.346 16.532C129.914 16.076 129.698 15.404 129.698 14.516V8.774H128.33V8L129.734 7.946L129.842 5.678L130.778 5.57V7.946H133.496V8.774H130.778ZM134.79 15.812C135.69 16.208 136.62 16.406 137.58 16.406C139.2 16.406 140.01 15.776 140.01 14.516C140.01 14.108 139.89 13.778 139.65 13.526C139.422 13.274 139.038 13.064 138.498 12.896L137.13 12.464C136.362 12.224 135.804 11.924 135.456 11.564C135.108 11.192 134.934 10.724 134.934 10.16C134.934 9.404 135.228 8.804 135.816 8.36C136.416 7.904 137.22 7.676 138.228 7.676C139.08 7.676 139.89 7.838 140.658 8.162V9.008C139.854 8.696 139.062 8.54 138.282 8.54C137.574 8.54 137.016 8.684 136.608 8.972C136.212 9.248 136.014 9.632 136.014 10.124C136.014 10.472 136.122 10.754 136.338 10.97C136.566 11.174 136.968 11.372 137.544 11.564L138.966 12.032C139.698 12.272 140.232 12.59 140.568 12.986C140.916 13.382 141.09 13.886 141.09 14.498C141.09 15.386 140.79 16.07 140.19 16.55C139.59 17.03 138.744 17.27 137.652 17.27C136.644 17.27 135.738 17.084 134.934 16.712L134.79 15.812ZM143.762 17.09C143.522 17.09 143.324 17.018 143.168 16.874C143.012 16.718 142.934 16.514 142.934 16.262C142.934 16.01 143.012 15.812 143.168 15.668C143.324 15.512 143.522 15.434 143.762 15.434C144.002 15.434 144.2 15.512 144.356 15.668C144.512 15.812 144.59 16.01 144.59 16.262C144.59 16.514 144.512 16.718 144.356 16.874C144.2 17.018 144.002 17.09 143.762 17.09Z" fill="#013D5B"/>
</g>
<defs>
<clipPath id="clip0_11090_3601">
<rect width="197" height="25" fill="white"/>
</clipPath>
</defs>
</svg>
