<svg width="162" height="20" viewBox="0 0 162 20" fill="none" xmlns="http://www.w3.org/2000/svg">
<path d="M160.495 15.1272C160.231 15.1272 160.013 15.048 159.841 14.8896C159.67 14.718 159.584 14.4936 159.584 14.2164C159.584 13.9392 159.67 13.7214 159.841 13.563C160.013 13.3914 160.231 13.3056 160.495 13.3056C160.759 13.3056 160.976 13.3914 161.148 13.563C161.32 13.7214 161.405 13.9392 161.405 14.2164C161.405 14.4936 161.32 14.718 161.148 14.8896C160.976 15.048 160.759 15.1272 160.495 15.1272Z" fill="#013D5B"/>
<path d="M150.428 13.7214C151.418 14.157 152.441 14.3748 153.497 14.3748C155.279 14.3748 156.17 13.6818 156.17 12.2958C156.17 11.847 156.038 11.484 155.774 11.2068C155.523 10.9296 155.101 10.6986 154.507 10.5138L153.002 10.0386C152.157 9.77459 151.543 9.44459 151.16 9.04859C150.778 8.63939 150.586 8.12459 150.586 7.50419C150.586 6.67259 150.91 6.01259 151.556 5.52419C152.216 5.02259 153.101 4.77179 154.21 4.77179C155.147 4.77179 156.038 4.94999 156.883 5.30639V6.23699C155.998 5.89379 155.127 5.72219 154.269 5.72219C153.49 5.72219 152.876 5.88059 152.428 6.19739C151.992 6.50099 151.774 6.92339 151.774 7.46459C151.774 7.84739 151.893 8.15759 152.131 8.39519C152.381 8.61959 152.824 8.83739 153.457 9.04859L155.021 9.56339C155.827 9.82739 156.414 10.1772 156.784 10.6128C157.166 11.0484 157.358 11.6028 157.358 12.276C157.358 13.2528 157.028 14.0052 156.368 14.5332C155.708 15.0612 154.777 15.3252 153.576 15.3252C152.467 15.3252 151.471 15.1206 150.586 14.7114L150.428 13.7214Z" fill="#013D5B"/>
<path d="M145.816 5.9796V12.3156C145.816 13.002 145.961 13.5102 146.251 13.8402C146.542 14.157 146.99 14.3154 147.598 14.3154C147.994 14.3154 148.442 14.2428 148.944 14.0976V14.9688C148.39 15.1536 147.881 15.246 147.419 15.246C146.509 15.246 145.816 15.0018 145.34 14.5134C144.865 14.0118 144.628 13.2726 144.628 12.2958V5.9796H143.123V5.1282L144.667 5.06879L144.786 2.574L145.816 2.4552V5.06879H148.805V5.9796H145.816Z" fill="#013D5B"/>
<path d="M139.783 15.0282V8.15759C139.783 6.53399 138.958 5.72219 137.308 5.72219C136.873 5.72219 136.391 5.79479 135.863 5.93999C135.348 6.08519 134.84 6.28319 134.338 6.53399V15.0282H133.15V5.12819L134.16 5.02919L134.239 5.72219C135.388 5.08859 136.51 4.77179 137.605 4.77179C138.674 4.77179 139.499 5.04899 140.08 5.60339C140.674 6.15779 140.971 6.94319 140.971 7.95959V15.0282H139.783Z" fill="#013D5B"/>
<path d="M123.077 5.06879V11.9394C123.077 13.563 123.875 14.3748 125.473 14.3748C125.908 14.3748 126.383 14.3022 126.898 14.157C127.426 14.0118 127.941 13.8138 128.443 13.563V5.06879H129.631V14.9688L128.621 15.0678L128.542 14.3748C127.393 15.0084 126.271 15.3252 125.176 15.3252C124.133 15.3252 123.321 15.048 122.74 14.4936C122.173 13.926 121.889 13.1406 121.889 12.1374V5.06879H123.077Z" fill="#013D5B"/>
<path d="M114.801 15.3252C113.362 15.3252 112.273 14.883 111.534 13.9986C110.808 13.101 110.445 11.781 110.445 10.0386C110.445 8.30939 110.808 7.00259 111.534 6.11819C112.273 5.22059 113.362 4.77179 114.801 4.77179C116.239 4.77179 117.322 5.22059 118.048 6.11819C118.787 7.00259 119.157 8.30939 119.157 10.0386C119.157 11.781 118.787 13.101 118.048 13.9986C117.322 14.883 116.239 15.3252 114.801 15.3252ZM114.801 14.3748C115.883 14.3748 116.668 14.0316 117.157 13.3452C117.658 12.6456 117.909 11.5434 117.909 10.0386C117.909 8.54699 117.658 7.45799 117.157 6.77159C116.668 6.07199 115.883 5.72219 114.801 5.72219C113.718 5.72219 112.926 6.07199 112.425 6.77159C111.936 7.45799 111.692 8.54699 111.692 10.0386C111.692 11.5434 111.936 12.6456 112.425 13.3452C112.926 14.0316 113.718 14.3748 114.801 14.3748Z" fill="#013D5B"/>
<path d="M108.54 14.6718C107.669 15.1074 106.719 15.3252 105.689 15.3252C104.29 15.3252 103.208 14.8698 102.442 13.959C101.69 13.0482 101.313 11.748 101.313 10.0584C101.313 8.36879 101.69 7.06859 102.442 6.15779C103.208 5.23379 104.29 4.77179 105.689 4.77179C106.679 4.77179 107.616 4.98959 108.501 5.42519V6.35579C107.577 5.94659 106.679 5.74199 105.808 5.74199C104.739 5.74199 103.927 6.10499 103.373 6.83099C102.831 7.55699 102.561 8.63279 102.561 10.0584C102.561 11.4708 102.831 12.54 103.373 13.266C103.927 13.992 104.739 14.355 105.808 14.355C106.706 14.355 107.616 14.1504 108.54 13.7412V14.6718Z" fill="#013D5B"/>
<path d="M99.4091 14.6718C98.5379 15.1074 97.5875 15.3252 96.5579 15.3252C95.1587 15.3252 94.0763 14.8698 93.3107 13.959C92.5583 13.0482 92.1821 11.748 92.1821 10.0584C92.1821 8.36879 92.5583 7.06859 93.3107 6.15779C94.0763 5.23379 95.1587 4.77179 96.5579 4.77179C97.5479 4.77179 98.4851 4.98959 99.3695 5.42519V6.35579C98.4455 5.94659 97.5479 5.74199 96.6767 5.74199C95.6075 5.74199 94.7957 6.10499 94.2413 6.83099C93.7001 7.55699 93.4295 8.63279 93.4295 10.0584C93.4295 11.4708 93.7001 12.54 94.2413 13.266C94.7957 13.992 95.6075 14.355 96.6767 14.355C97.5743 14.355 98.4851 14.1504 99.4091 13.7412V14.6718Z" fill="#013D5B"/>
<path d="M88.4492 15.0678L88.37 14.3748C87.2348 15.0084 86.1128 15.3252 85.004 15.3252C83.9876 15.3252 83.1824 15.0612 82.5884 14.5332C81.9944 13.992 81.6974 13.2528 81.6974 12.3156C81.6974 11.3256 82.0274 10.5732 82.6874 10.0584C83.3606 9.53039 84.344 9.26639 85.6376 9.26639C86.4164 9.26639 87.3008 9.35879 88.2908 9.54359V8.19719C88.2908 6.54719 87.3602 5.72219 85.499 5.72219C85.0106 5.72219 84.476 5.78819 83.8952 5.92019C83.3144 6.05219 82.7798 6.22379 82.2914 6.43499V5.50439C82.7666 5.27999 83.3078 5.10179 83.915 4.96979C84.5354 4.83779 85.1228 4.77179 85.6772 4.77179C86.918 4.77179 87.8552 5.06879 88.4888 5.66279C89.1356 6.24359 89.459 7.08839 89.459 8.19719V14.9688L88.4492 15.0678ZM85.2812 14.3748C85.7564 14.3748 86.258 14.3022 86.786 14.157C87.314 14.0118 87.8156 13.8138 88.2908 13.563V10.395C87.4592 10.2366 86.6408 10.1574 85.8356 10.1574C84.8192 10.1574 84.08 10.329 83.618 10.6722C83.156 11.0154 82.925 11.5566 82.925 12.2958C82.925 13.6818 83.7104 14.3748 85.2812 14.3748Z" fill="#013D5B"/>
<path d="M69.2498 19.6416C68.075 19.6416 67.0784 19.437 66.26 19.0278L66.1016 18.018C67.184 18.4668 68.2136 18.6912 69.1904 18.6912C71.3948 18.6912 72.497 17.6682 72.497 15.6222V14.256C71.9954 14.5332 71.4806 14.751 70.9526 14.9094C70.4378 15.0678 69.956 15.147 69.5072 15.147C68.2136 15.147 67.1972 14.7114 66.458 13.8402C65.7188 12.969 65.3492 11.7612 65.3492 10.2168C65.3492 8.46119 65.765 7.11479 66.5966 6.17759C67.4414 5.24039 68.6558 4.77179 70.2398 4.77179C71.441 4.77179 72.5894 4.98299 73.685 5.40539V15.5232C73.685 16.8432 73.3022 17.8596 72.5366 18.5724C71.771 19.2852 70.6754 19.6416 69.2498 19.6416ZM69.6656 14.1966C70.1012 14.1966 70.5698 14.124 71.0714 13.9788C71.573 13.8336 72.0482 13.6356 72.497 13.3848V6.03899C71.8106 5.82779 71.0912 5.72219 70.3388 5.72219C69.0716 5.72219 68.1278 6.09179 67.5074 6.83099C66.9002 7.55699 66.5966 8.67899 66.5966 10.197C66.5966 11.5038 66.854 12.5004 67.3688 13.1868C67.8968 13.86 68.6624 14.1966 69.6656 14.1966Z" fill="#013D5B"/>
<path d="M61.4355 15.0282V8.15759C61.4355 6.53399 60.6105 5.72219 58.9605 5.72219C58.5249 5.72219 58.0431 5.79479 57.5151 5.93999C57.0003 6.08519 56.4921 6.28319 55.9905 6.53399V15.0282H54.8025V5.12819L55.8123 5.02919L55.8915 5.72219C57.0399 5.08859 58.1619 4.77179 59.2575 4.77179C60.3267 4.77179 61.1517 5.04899 61.7325 5.60339C62.3265 6.15779 62.6235 6.94319 62.6235 7.95959V15.0282H61.4355Z" fill="#013D5B"/>
<path d="M50.0993 15.0282V5.16782L51.2873 5.00941V15.0282H50.0993ZM50.6933 2.65321C50.4293 2.65321 50.2115 2.57401 50.0399 2.41561C49.8815 2.25721 49.8023 2.03941 49.8023 1.76221C49.8023 1.48501 49.8815 1.26721 50.0399 1.10881C50.2115 0.95041 50.4293 0.871216 50.6933 0.871216C50.9573 0.871216 51.1685 0.95041 51.3269 1.10881C51.4985 1.26721 51.5843 1.48501 51.5843 1.76221C51.5843 2.03941 51.4985 2.25721 51.3269 2.41561C51.1685 2.57401 50.9573 2.65321 50.6933 2.65321Z" fill="#013D5B"/>
<path d="M40.794 15.0282V0.158401L41.982 0V9.48421L46.6548 5.0688H48.0606L43.17 9.702L48.219 15.0282H46.7142L41.982 9.99901V15.0282H40.794Z" fill="#013D5B"/>
<path d="M38.0431 14.6718C37.1719 15.1074 36.2215 15.3252 35.1919 15.3252C33.7927 15.3252 32.7103 14.8698 31.9447 13.959C31.1923 13.0482 30.8161 11.748 30.8161 10.0584C30.8161 8.36879 31.1923 7.06859 31.9447 6.15779C32.7103 5.23379 33.7927 4.77179 35.1919 4.77179C36.1819 4.77179 37.1191 4.98959 38.0035 5.42519V6.35579C37.0795 5.94659 36.1819 5.74199 35.3107 5.74199C34.2415 5.74199 33.4297 6.10499 32.8753 6.83099C32.3341 7.55699 32.0635 8.63279 32.0635 10.0584C32.0635 11.4708 32.3341 12.54 32.8753 13.266C33.4297 13.992 34.2415 14.355 35.3107 14.355C36.2083 14.355 37.1191 14.1504 38.0431 13.7412V14.6718Z" fill="#013D5B"/>
<path d="M28.1873 14.6718C27.2765 15.1074 26.2997 15.3252 25.2569 15.3252C23.7389 15.3252 22.5707 14.8764 21.7523 13.9788C20.9339 13.0812 20.5247 11.7942 20.5247 10.1178C20.5247 8.45459 20.9075 7.14779 21.6731 6.19739C22.4387 5.24699 23.4881 4.77179 24.8213 4.77179C25.9961 4.77179 26.9201 5.14139 27.5933 5.88059C28.2797 6.60659 28.6229 7.60319 28.6229 8.87039C28.6229 9.34559 28.5833 9.80099 28.5041 10.2366H21.6929C21.7061 12.9954 22.9271 14.3748 25.3559 14.3748C26.3327 14.3748 27.2765 14.1636 28.1873 13.7412V14.6718ZM24.8015 5.70239C23.9039 5.70239 23.1713 6.03239 22.6037 6.69239C22.0361 7.35239 21.7325 8.23679 21.6929 9.34559H27.4745C27.5009 9.13439 27.5141 8.94959 27.5141 8.79119C27.5141 7.81439 27.2765 7.05539 26.8013 6.51419C26.3261 5.97299 25.6595 5.70239 24.8015 5.70239Z" fill="#013D5B"/>
<path d="M9.97797 15.0282V0.158401L11.166 0V5.6826C12.2748 5.0754 13.3638 4.7718 14.433 4.7718C15.5022 4.7718 16.3272 5.04901 16.908 5.60341C17.502 6.15781 17.799 6.9432 17.799 7.9596V15.0282H16.611V8.15761C16.611 6.53401 15.786 5.72221 14.136 5.72221C13.7004 5.72221 13.2186 5.7948 12.6906 5.94C12.1758 6.0852 11.6676 6.2832 11.166 6.534V15.0282H9.97797Z" fill="#013D5B"/>
<path d="M7.227 14.6718C6.3558 15.1074 5.4054 15.3252 4.3758 15.3252C2.9766 15.3252 1.8942 14.8698 1.1286 13.959C0.3762 13.0482 0 11.748 0 10.0584C0 8.36879 0.3762 7.06859 1.1286 6.15779C1.8942 5.23379 2.9766 4.77179 4.3758 4.77179C5.3658 4.77179 6.303 4.98959 7.1874 5.42519V6.35579C6.2634 5.94659 5.3658 5.74199 4.4946 5.74199C3.4254 5.74199 2.6136 6.10499 2.0592 6.83099C1.518 7.55699 1.2474 8.63279 1.2474 10.0584C1.2474 11.4708 1.518 12.54 2.0592 13.266C2.6136 13.992 3.4254 14.355 4.4946 14.355C5.3922 14.355 6.303 14.1504 7.227 13.7412V14.6718Z" fill="#013D5B"/>
</svg>
