<svg width="845" height="27" viewBox="0 0 845 27" fill="none" xmlns="http://www.w3.org/2000/svg">
<path d="M-9.36314e-05 23.358C2.37991 24.4007 4.63524 24.922 6.76591 24.922C8.78324 24.922 10.3359 24.48 11.4239 23.596C12.5346 22.6893 13.0899 21.3973 13.0899 19.72C13.0899 18.4507 12.7272 17.4307 12.0019 16.66C11.2766 15.8893 10.0639 15.2433 8.36391 14.722L5.94991 13.974C4.09124 13.4073 2.73124 12.6707 1.86991 11.764C1.00857 10.8347 0.577906 9.656 0.577906 8.228C0.577906 6.30134 1.30324 4.76 2.75391 3.604C4.22724 2.42534 6.18791 1.836 8.63591 1.836C10.6079 1.836 12.5119 2.25534 14.3479 3.094V4.794C12.3986 3.978 10.5172 3.57 8.70391 3.57C6.84524 3.57 5.39457 3.978 4.35191 4.794C3.30924 5.58734 2.78791 6.70934 2.78791 8.16C2.78791 9.18 3.08257 9.98467 3.67191 10.574C4.26124 11.1633 5.29257 11.696 6.76591 12.172L9.17991 12.954C11.3559 13.6567 12.9199 14.5407 13.8719 15.606C14.8239 16.6487 15.2999 18.0087 15.2999 19.686C15.2999 21.8393 14.5406 23.5393 13.0219 24.786C11.5259 26.0327 9.47457 26.656 6.86791 26.656C4.46524 26.656 2.28924 26.1687 0.339906 25.194L-9.36314e-05 23.358ZM19.6548 26.146V0.612002L21.6948 0.340002V10.098C23.5988 9.05534 25.4688 8.534 27.3048 8.534C29.1408 8.534 30.5575 9.01 31.5548 9.962C32.5748 10.914 33.0848 12.2627 33.0848 14.008V26.146H31.0448V14.348C31.0448 11.56 29.6282 10.166 26.7948 10.166C26.0468 10.166 25.2195 10.2907 24.3128 10.54C23.4288 10.7893 22.5562 11.1293 21.6948 11.56V26.146H19.6548ZM44.9054 26.656C42.4347 26.656 40.5647 25.8967 39.2954 24.378C38.0487 22.8367 37.4254 20.57 37.4254 17.578C37.4254 14.6087 38.0487 12.3647 39.2954 10.846C40.5647 9.30467 42.4347 8.534 44.9054 8.534C47.3761 8.534 49.2347 9.30467 50.4814 10.846C51.7507 12.3647 52.3854 14.6087 52.3854 17.578C52.3854 20.57 51.7507 22.8367 50.4814 24.378C49.2347 25.8967 47.3761 26.656 44.9054 26.656ZM44.9054 25.024C46.7641 25.024 48.1127 24.4347 48.9514 23.256C49.8127 22.0547 50.2434 20.162 50.2434 17.578C50.2434 15.0167 49.8127 13.1467 48.9514 11.968C48.1127 10.7667 46.7641 10.166 44.9054 10.166C43.0467 10.166 41.6867 10.7667 40.8254 11.968C39.9867 13.1467 39.5674 15.0167 39.5674 17.578C39.5674 20.162 39.9867 22.0547 40.8254 23.256C41.6867 24.4347 43.0467 25.024 44.9054 25.024ZM63.3331 26.656C60.8625 26.656 58.9925 25.8967 57.7231 24.378C56.4765 22.8367 55.8531 20.57 55.8531 17.578C55.8531 14.6087 56.4765 12.3647 57.7231 10.846C58.9925 9.30467 60.8625 8.534 63.3331 8.534C65.8038 8.534 67.6625 9.30467 68.9091 10.846C70.1785 12.3647 70.8131 14.6087 70.8131 17.578C70.8131 20.57 70.1785 22.8367 68.9091 24.378C67.6625 25.8967 65.8038 26.656 63.3331 26.656ZM63.3331 25.024C65.1918 25.024 66.5405 24.4347 67.3791 23.256C68.2405 22.0547 68.6711 20.162 68.6711 17.578C68.6711 15.0167 68.2405 13.1467 67.3791 11.968C66.5405 10.7667 65.1918 10.166 63.3331 10.166C61.4745 10.166 60.1145 10.7667 59.2531 11.968C58.4145 13.1467 57.9951 15.0167 57.9951 17.578C57.9951 20.162 58.4145 22.0547 59.2531 23.256C60.1145 24.4347 61.4745 25.024 63.3331 25.024ZM77.9189 10.608V21.488C77.9189 22.6667 78.1682 23.5393 78.6669 24.106C79.1655 24.65 79.9362 24.922 80.9789 24.922C81.6589 24.922 82.4295 24.7973 83.2909 24.548V26.044C82.3389 26.3613 81.4662 26.52 80.6729 26.52C79.1089 26.52 77.9189 26.1007 77.1029 25.262C76.2869 24.4007 75.8789 23.1313 75.8789 21.454V10.608H73.2949V9.146L75.9469 9.044L76.1509 4.76L77.9189 4.556V9.044H83.0529V10.608H77.9189ZM105.797 26.214L105.661 25.024C103.711 26.112 101.785 26.656 99.8808 26.656C98.1354 26.656 96.7528 26.2027 95.7328 25.296C94.7128 24.3667 94.2028 23.0973 94.2028 21.488C94.2028 19.788 94.7694 18.496 95.9028 17.612C97.0588 16.7053 98.7474 16.252 100.969 16.252C102.306 16.252 103.825 16.4107 105.525 16.728V14.416C105.525 11.5827 103.927 10.166 100.731 10.166C99.8921 10.166 98.9741 10.2793 97.9768 10.506C96.9794 10.7327 96.0614 11.0273 95.2228 11.39V9.792C96.0388 9.40667 96.9681 9.10067 98.0108 8.874C99.0761 8.64734 100.085 8.534 101.037 8.534C103.167 8.534 104.777 9.044 105.865 10.064C106.975 11.0613 107.531 12.512 107.531 14.416V26.044L105.797 26.214ZM100.357 25.024C101.173 25.024 102.034 24.8993 102.941 24.65C103.847 24.4007 104.709 24.0607 105.525 23.63V18.19C104.097 17.918 102.691 17.782 101.309 17.782C99.5634 17.782 98.2941 18.0767 97.5008 18.666C96.7074 19.2553 96.3108 20.1847 96.3108 21.454C96.3108 23.834 97.6594 25.024 100.357 25.024ZM124.379 26.146V14.348C124.379 11.56 122.962 10.166 120.129 10.166C119.381 10.166 118.553 10.2907 117.647 10.54C116.763 10.7893 115.89 11.1293 115.029 11.56V26.146H112.989V9.146L114.723 8.976L114.859 10.166C116.831 9.078 118.757 8.534 120.639 8.534C122.475 8.534 123.891 9.01 124.889 9.962C125.909 10.914 126.419 12.2627 126.419 14.008V26.146H124.379ZM145.073 0.340002V26.044L143.339 26.214L143.203 25.024C141.277 26.112 139.509 26.656 137.899 26.656C135.678 26.656 133.933 25.8853 132.663 24.344C131.394 22.78 130.759 20.6267 130.759 17.884C130.759 14.8693 131.473 12.5573 132.901 10.948C134.352 9.33867 136.437 8.534 139.157 8.534C140.563 8.534 141.855 8.71534 143.033 9.078V0.612002L145.073 0.340002ZM138.171 25.024C138.919 25.024 139.724 24.8993 140.585 24.65C141.447 24.4007 142.263 24.0607 143.033 23.63V10.71C141.855 10.3473 140.619 10.166 139.327 10.166C137.151 10.166 135.531 10.8007 134.465 12.07C133.423 13.3167 132.901 15.2433 132.901 17.85C132.901 20.1847 133.343 21.964 134.227 23.188C135.134 24.412 136.449 25.024 138.171 25.024ZM157.948 23.902C159.648 24.65 161.405 25.024 163.218 25.024C166.278 25.024 167.808 23.834 167.808 21.454C167.808 20.6833 167.581 20.06 167.128 19.584C166.697 19.108 165.972 18.7113 164.952 18.394L162.368 17.578C160.917 17.1247 159.863 16.558 159.206 15.878C158.549 15.1753 158.22 14.2913 158.22 13.226C158.22 11.798 158.775 10.6647 159.886 9.826C161.019 8.96467 162.538 8.534 164.442 8.534C166.051 8.534 167.581 8.84 169.032 9.452V11.05C167.513 10.4607 166.017 10.166 164.544 10.166C163.207 10.166 162.153 10.438 161.382 10.982C160.634 11.5033 160.26 12.2287 160.26 13.158C160.26 13.8153 160.464 14.348 160.872 14.756C161.303 15.1413 162.062 15.5153 163.15 15.878L165.836 16.762C167.219 17.2153 168.227 17.816 168.862 18.564C169.519 19.312 169.848 20.264 169.848 21.42C169.848 23.0973 169.281 24.3893 168.148 25.296C167.015 26.2027 165.417 26.656 163.354 26.656C161.45 26.656 159.739 26.3047 158.22 25.602L157.948 23.902ZM185.537 25.534C184.041 26.282 182.409 26.656 180.641 26.656C178.238 26.656 176.379 25.874 175.065 24.31C173.773 22.746 173.127 20.5133 173.127 17.612C173.127 14.7107 173.773 12.478 175.065 10.914C176.379 9.32734 178.238 8.534 180.641 8.534C182.341 8.534 183.95 8.908 185.469 9.656V11.254C183.882 10.5513 182.341 10.2 180.845 10.2C179.009 10.2 177.615 10.8233 176.663 12.07C175.733 13.3167 175.269 15.164 175.269 17.612C175.269 20.0373 175.733 21.8733 176.663 23.12C177.615 24.3667 179.009 24.99 180.845 24.99C182.386 24.99 183.95 24.6387 185.537 23.936V25.534ZM195.946 26.656C193.476 26.656 191.606 25.8967 190.336 24.378C189.09 22.8367 188.466 20.57 188.466 17.578C188.466 14.6087 189.09 12.3647 190.336 10.846C191.606 9.30467 193.476 8.534 195.946 8.534C198.417 8.534 200.276 9.30467 201.522 10.846C202.792 12.3647 203.426 14.6087 203.426 17.578C203.426 20.57 202.792 22.8367 201.522 24.378C200.276 25.8967 198.417 26.656 195.946 26.656ZM195.946 25.024C197.805 25.024 199.154 24.4347 199.992 23.256C200.854 22.0547 201.284 20.162 201.284 17.578C201.284 15.0167 200.854 13.1467 199.992 11.968C199.154 10.7667 197.805 10.166 195.946 10.166C194.088 10.166 192.728 10.7667 191.866 11.968C191.028 13.1467 190.608 15.0167 190.608 17.578C190.608 20.162 191.028 22.0547 191.866 23.256C192.728 24.4347 194.088 25.024 195.946 25.024ZM208.016 26.146V9.146L209.75 8.976L209.92 10.506C211.439 9.25934 213.059 8.636 214.782 8.636C215.394 8.636 215.881 8.704 216.244 8.84V10.506C215.655 10.37 215.133 10.302 214.68 10.302C213.071 10.302 211.529 10.88 210.056 12.036V26.146H208.016ZM231.408 25.534C229.844 26.282 228.166 26.656 226.376 26.656C223.769 26.656 221.763 25.8853 220.358 24.344C218.952 22.8027 218.25 20.5927 218.25 17.714C218.25 14.858 218.907 12.614 220.222 10.982C221.536 9.35 223.338 8.534 225.628 8.534C227.645 8.534 229.232 9.16867 230.388 10.438C231.566 11.6847 232.156 13.396 232.156 15.572C232.156 16.388 232.088 17.17 231.952 17.918H220.256C220.278 22.6553 222.375 25.024 226.546 25.024C228.223 25.024 229.844 24.6613 231.408 23.936V25.534ZM225.594 10.132C224.052 10.132 222.794 10.6987 221.82 11.832C220.845 12.9653 220.324 14.484 220.256 16.388H230.184C230.229 16.0253 230.252 15.708 230.252 15.436C230.252 13.7587 229.844 12.4553 229.028 11.526C228.212 10.5967 227.067 10.132 225.594 10.132ZM242.926 23.562C244.92 24.5367 246.972 25.024 249.08 25.024C250.984 25.024 252.502 24.5593 253.636 23.63C254.769 22.7007 255.336 21.4427 255.336 19.856C255.336 18.3147 254.803 17.0793 253.738 16.15C252.672 15.2207 251.233 14.756 249.42 14.756H247.414V13.124H249.352C250.984 13.124 252.276 12.716 253.228 11.9C254.18 11.084 254.656 9.98467 254.656 8.602C254.656 7.15134 254.168 6.018 253.194 5.202C252.219 4.386 250.87 3.978 249.148 3.978C247.334 3.978 245.555 4.352 243.81 5.1V3.468C245.442 2.72 247.278 2.346 249.318 2.346C251.516 2.346 253.307 2.924 254.69 4.08C256.095 5.21334 256.798 6.67534 256.798 8.466C256.798 9.78067 256.412 10.914 255.642 11.866C254.894 12.818 253.84 13.498 252.48 13.906C254.044 14.2913 255.268 15.028 256.152 16.116C257.036 17.1813 257.478 18.4507 257.478 19.924C257.478 21.2613 257.115 22.4513 256.39 23.494C255.687 24.514 254.712 25.296 253.466 25.84C252.242 26.384 250.848 26.656 249.284 26.656C248.196 26.656 247.108 26.5313 246.02 26.282C244.932 26.0553 244.002 25.738 243.232 25.33L242.926 23.562ZM267.78 26.146L280.088 2.856H281.924L269.616 26.146H267.78ZM266.148 16.252C267.349 16.252 268.233 15.7533 268.8 14.756C269.389 13.7587 269.684 12.1947 269.684 10.064C269.684 7.93334 269.389 6.36934 268.8 5.372C268.233 4.37467 267.349 3.876 266.148 3.876C264.946 3.876 264.051 4.37467 263.462 5.372C262.895 6.36934 262.612 7.93334 262.612 10.064C262.612 12.1947 262.895 13.7587 263.462 14.756C264.051 15.7533 264.946 16.252 266.148 16.252ZM266.148 17.612C264.402 17.612 263.065 16.9773 262.136 15.708C261.206 14.416 260.742 12.5347 260.742 10.064C260.742 7.59334 261.206 5.72334 262.136 4.454C263.065 3.162 264.402 2.516 266.148 2.516C267.893 2.516 269.23 3.162 270.16 4.454C271.089 5.72334 271.554 7.59334 271.554 10.064C271.554 12.5347 271.089 14.416 270.16 15.708C269.23 16.9773 267.893 17.612 266.148 17.612ZM283.556 25.126C284.757 25.126 285.641 24.6273 286.208 23.63C286.797 22.6327 287.092 21.0687 287.092 18.938C287.092 16.8073 286.797 15.2433 286.208 14.246C285.641 13.2487 284.757 12.75 283.556 12.75C282.354 12.75 281.459 13.2487 280.87 14.246C280.303 15.2433 280.02 16.8073 280.02 18.938C280.02 21.0687 280.303 22.6327 280.87 23.63C281.459 24.6273 282.354 25.126 283.556 25.126ZM283.556 26.486C281.81 26.486 280.473 25.8513 279.544 24.582C278.614 23.29 278.15 21.4087 278.15 18.938C278.15 16.4673 278.614 14.5973 279.544 13.328C280.473 12.036 281.81 11.39 283.556 11.39C285.301 11.39 286.638 12.036 287.568 13.328C288.497 14.5973 288.962 16.4673 288.962 18.938C288.962 21.4087 288.497 23.29 287.568 24.582C286.638 25.8513 285.301 26.486 283.556 26.486ZM313.003 25.534C311.507 26.282 309.875 26.656 308.107 26.656C305.705 26.656 303.846 25.874 302.531 24.31C301.239 22.746 300.593 20.5133 300.593 17.612C300.593 14.7107 301.239 12.478 302.531 10.914C303.846 9.32734 305.705 8.534 308.107 8.534C309.807 8.534 311.417 8.908 312.935 9.656V11.254C311.349 10.5513 309.807 10.2 308.311 10.2C306.475 10.2 305.081 10.8233 304.129 12.07C303.2 13.3167 302.735 15.164 302.735 17.612C302.735 20.0373 303.2 21.8733 304.129 23.12C305.081 24.3667 306.475 24.99 308.311 24.99C309.853 24.99 311.417 24.6387 313.003 23.936V25.534ZM327.859 26.214L327.723 25.024C325.774 26.112 323.847 26.656 321.943 26.656C320.198 26.656 318.815 26.2027 317.795 25.296C316.775 24.3667 316.265 23.0973 316.265 21.488C316.265 19.788 316.832 18.496 317.965 17.612C319.121 16.7053 320.81 16.252 323.031 16.252C324.369 16.252 325.887 16.4107 327.587 16.728V14.416C327.587 11.5827 325.989 10.166 322.793 10.166C321.955 10.166 321.037 10.2793 320.039 10.506C319.042 10.7327 318.124 11.0273 317.285 11.39V9.792C318.101 9.40667 319.031 9.10067 320.073 8.874C321.139 8.64734 322.147 8.534 323.099 8.534C325.23 8.534 326.839 9.044 327.927 10.064C329.038 11.0613 329.593 12.512 329.593 14.416V26.044L327.859 26.214ZM322.419 25.024C323.235 25.024 324.097 24.8993 325.003 24.65C325.91 24.4007 326.771 24.0607 327.587 23.63V18.19C326.159 17.918 324.754 17.782 323.371 17.782C321.626 17.782 320.357 18.0767 319.563 18.666C318.77 19.2553 318.373 20.1847 318.373 21.454C318.373 23.834 319.722 25.024 322.419 25.024ZM333.725 23.902C335.425 24.65 337.182 25.024 338.995 25.024C342.055 25.024 343.585 23.834 343.585 21.454C343.585 20.6833 343.359 20.06 342.905 19.584C342.475 19.108 341.749 18.7113 340.729 18.394L338.145 17.578C336.695 17.1247 335.641 16.558 334.983 15.878C334.326 15.1753 333.997 14.2913 333.997 13.226C333.997 11.798 334.553 10.6647 335.663 9.826C336.797 8.96467 338.315 8.534 340.219 8.534C341.829 8.534 343.359 8.84 344.809 9.452V11.05C343.291 10.4607 341.795 10.166 340.321 10.166C338.984 10.166 337.93 10.438 337.159 10.982C336.411 11.5033 336.037 12.2287 336.037 13.158C336.037 13.8153 336.241 14.348 336.649 14.756C337.08 15.1413 337.839 15.5153 338.927 15.878L341.613 16.762C342.996 17.2153 344.005 17.816 344.639 18.564C345.297 19.312 345.625 20.264 345.625 21.42C345.625 23.0973 345.059 24.3893 343.925 25.296C342.792 26.2027 341.194 26.656 339.131 26.656C337.227 26.656 335.516 26.3047 333.997 25.602L333.725 23.902ZM350.026 26.146V0.612002L352.066 0.340002V10.098C353.97 9.05534 355.84 8.534 357.676 8.534C359.512 8.534 360.929 9.01 361.926 9.962C362.946 10.914 363.456 12.2627 363.456 14.008V26.146H361.416V14.348C361.416 11.56 359.999 10.166 357.166 10.166C356.418 10.166 355.591 10.2907 354.684 10.54C353.8 10.7893 352.927 11.1293 352.066 11.56V26.146H350.026ZM379.459 10.064C380.32 9.588 381.193 9.214 382.077 8.942C382.983 8.67 383.822 8.534 384.593 8.534C386.814 8.534 388.559 9.316 389.829 10.88C391.098 12.4213 391.732 14.5633 391.732 17.306C391.732 20.3207 391.007 22.6327 389.557 24.242C388.129 25.8513 386.055 26.656 383.335 26.656C381.408 26.656 379.436 26.3387 377.419 25.704V0.612002L379.459 0.340002V10.064ZM384.321 10.166C383.573 10.166 382.768 10.2907 381.907 10.54C381.045 10.7893 380.229 11.1293 379.459 11.56V24.48C380.637 24.8427 381.873 25.024 383.165 25.024C385.341 25.024 386.95 24.4007 387.993 23.154C389.058 21.8847 389.591 19.9467 389.591 17.34C389.591 15.0053 389.137 13.226 388.231 12.002C387.347 10.778 386.043 10.166 384.321 10.166ZM406.783 26.214L406.647 25.024C404.698 26.112 402.771 26.656 400.867 26.656C399.122 26.656 397.739 26.2027 396.719 25.296C395.699 24.3667 395.189 23.0973 395.189 21.488C395.189 19.788 395.756 18.496 396.889 17.612C398.045 16.7053 399.734 16.252 401.955 16.252C403.292 16.252 404.811 16.4107 406.511 16.728V14.416C406.511 11.5827 404.913 10.166 401.717 10.166C400.878 10.166 399.96 10.2793 398.963 10.506C397.966 10.7327 397.048 11.0273 396.209 11.39V9.792C397.025 9.40667 397.954 9.10067 398.997 8.874C400.062 8.64734 401.071 8.534 402.023 8.534C404.154 8.534 405.763 9.044 406.851 10.064C407.962 11.0613 408.517 12.512 408.517 14.416V26.044L406.783 26.214ZM401.343 25.024C402.159 25.024 403.02 24.8993 403.927 24.65C404.834 24.4007 405.695 24.0607 406.511 23.63V18.19C405.083 17.918 403.678 17.782 402.295 17.782C400.55 17.782 399.28 18.0767 398.487 18.666C397.694 19.2553 397.297 20.1847 397.297 21.454C397.297 23.834 398.646 25.024 401.343 25.024ZM425.263 25.534C423.767 26.282 422.135 26.656 420.367 26.656C417.964 26.656 416.106 25.874 414.791 24.31C413.499 22.746 412.853 20.5133 412.853 17.612C412.853 14.7107 413.499 12.478 414.791 10.914C416.106 9.32734 417.964 8.534 420.367 8.534C422.067 8.534 423.676 8.908 425.195 9.656V11.254C423.608 10.5513 422.067 10.2 420.571 10.2C418.735 10.2 417.341 10.8233 416.389 12.07C415.46 13.3167 414.995 15.164 414.995 17.612C414.995 20.0373 415.46 21.8733 416.389 23.12C417.341 24.3667 418.735 24.99 420.571 24.99C422.112 24.99 423.676 24.6387 425.263 23.936V25.534ZM429.647 26.146V0.612002L431.687 0.340002V16.626L439.711 9.044H442.125L433.727 17L442.397 26.146H439.813L431.687 17.51V26.146H429.647ZM460.144 26.656C457.673 26.656 455.803 25.8967 454.534 24.378C453.287 22.8367 452.664 20.57 452.664 17.578C452.664 14.6087 453.287 12.3647 454.534 10.846C455.803 9.30467 457.673 8.534 460.144 8.534C462.614 8.534 464.473 9.30467 465.72 10.846C466.989 12.3647 467.624 14.6087 467.624 17.578C467.624 20.57 466.989 22.8367 465.72 24.378C464.473 25.8967 462.614 26.656 460.144 26.656ZM460.144 25.024C462.002 25.024 463.351 24.4347 464.19 23.256C465.051 22.0547 465.482 20.162 465.482 17.578C465.482 15.0167 465.051 13.1467 464.19 11.968C463.351 10.7667 462.002 10.166 460.144 10.166C458.285 10.166 456.925 10.7667 456.064 11.968C455.225 13.1467 454.806 15.0167 454.806 17.578C454.806 20.162 455.225 22.0547 456.064 23.256C456.925 24.4347 458.285 25.024 460.144 25.024ZM483.603 26.146V14.348C483.603 11.56 482.187 10.166 479.353 10.166C478.605 10.166 477.778 10.2907 476.871 10.54C475.987 10.7893 475.115 11.1293 474.253 11.56V26.146H472.213V9.146L473.947 8.976L474.083 10.166C476.055 9.078 477.982 8.534 479.863 8.534C481.699 8.534 483.116 9.01 484.113 9.962C485.133 10.914 485.643 12.2627 485.643 14.008V26.146H483.603ZM500.082 26.146V10.608H497.498V9.146L500.082 9.044V5.202C500.082 3.52467 500.49 2.244 501.306 1.36C502.145 0.453335 503.357 1.90735e-06 504.944 1.90735e-06C505.805 1.90735e-06 506.678 0.158669 507.562 0.476002V1.972C506.746 1.72267 505.964 1.598 505.216 1.598C504.151 1.598 503.369 1.88134 502.87 2.448C502.371 2.992 502.122 3.85334 502.122 5.032V9.044H506.712V10.608H502.122V26.146H500.082ZM516.523 26.656C514.052 26.656 512.182 25.8967 510.913 24.378C509.666 22.8367 509.043 20.57 509.043 17.578C509.043 14.6087 509.666 12.3647 510.913 10.846C512.182 9.30467 514.052 8.534 516.523 8.534C518.993 8.534 520.852 9.30467 522.099 10.846C523.368 12.3647 524.003 14.6087 524.003 17.578C524.003 20.57 523.368 22.8367 522.099 24.378C520.852 25.8967 518.993 26.656 516.523 26.656ZM516.523 25.024C518.381 25.024 519.73 24.4347 520.569 23.256C521.43 22.0547 521.861 20.162 521.861 17.578C521.861 15.0167 521.43 13.1467 520.569 11.968C519.73 10.7667 518.381 10.166 516.523 10.166C514.664 10.166 513.304 10.7667 512.443 11.968C511.604 13.1467 511.185 15.0167 511.185 17.578C511.185 20.162 511.604 22.0547 512.443 23.256C513.304 24.4347 514.664 25.024 516.523 25.024ZM534.95 26.656C532.48 26.656 530.61 25.8967 529.34 24.378C528.094 22.8367 527.47 20.57 527.47 17.578C527.47 14.6087 528.094 12.3647 529.34 10.846C530.61 9.30467 532.48 8.534 534.95 8.534C537.421 8.534 539.28 9.30467 540.526 10.846C541.796 12.3647 542.43 14.6087 542.43 17.578C542.43 20.57 541.796 22.8367 540.526 24.378C539.28 25.8967 537.421 26.656 534.95 26.656ZM534.95 25.024C536.809 25.024 538.158 24.4347 538.996 23.256C539.858 22.0547 540.288 20.162 540.288 17.578C540.288 15.0167 539.858 13.1467 538.996 11.968C538.158 10.7667 536.809 10.166 534.95 10.166C533.092 10.166 531.732 10.7667 530.87 11.968C530.032 13.1467 529.612 15.0167 529.612 17.578C529.612 20.162 530.032 22.0547 530.87 23.256C531.732 24.4347 533.092 25.024 534.95 25.024ZM560.212 0.340002V26.044L558.478 26.214L558.342 25.024C556.415 26.112 554.647 26.656 553.038 26.656C550.817 26.656 549.071 25.8853 547.802 24.344C546.533 22.78 545.898 20.6267 545.898 17.884C545.898 14.8693 546.612 12.5573 548.04 10.948C549.491 9.33867 551.576 8.534 554.296 8.534C555.701 8.534 556.993 8.71534 558.172 9.078V0.612002L560.212 0.340002ZM553.31 25.024C554.058 25.024 554.863 24.8993 555.724 24.65C556.585 24.4007 557.401 24.0607 558.172 23.63V10.71C556.993 10.3473 555.758 10.166 554.466 10.166C552.29 10.166 550.669 10.8007 549.604 12.07C548.561 13.3167 548.04 15.2433 548.04 17.85C548.04 20.1847 548.482 21.964 549.366 23.188C550.273 24.412 551.587 25.024 553.31 25.024ZM584.885 26.214L584.749 25.024C582.799 26.112 580.873 26.656 578.969 26.656C577.223 26.656 575.841 26.2027 574.821 25.296C573.801 24.3667 573.291 23.0973 573.291 21.488C573.291 19.788 573.857 18.496 574.991 17.612C576.147 16.7053 577.835 16.252 580.057 16.252C581.394 16.252 582.913 16.4107 584.613 16.728V14.416C584.613 11.5827 583.015 10.166 579.819 10.166C578.98 10.166 578.062 10.2793 577.065 10.506C576.067 10.7327 575.149 11.0273 574.311 11.39V9.792C575.127 9.40667 576.056 9.10067 577.099 8.874C578.164 8.64734 579.173 8.534 580.125 8.534C582.255 8.534 583.865 9.044 584.953 10.064C586.063 11.0613 586.619 12.512 586.619 14.416V26.044L584.885 26.214ZM579.445 25.024C580.261 25.024 581.122 24.8993 582.029 24.65C582.935 24.4007 583.797 24.0607 584.613 23.63V18.19C583.185 17.918 581.779 17.782 580.397 17.782C578.651 17.782 577.382 18.0767 576.589 18.666C575.795 19.2553 575.399 20.1847 575.399 21.454C575.399 23.834 576.747 25.024 579.445 25.024ZM603.467 26.146V14.348C603.467 11.56 602.05 10.166 599.217 10.166C598.469 10.166 597.641 10.2907 596.735 10.54C595.851 10.7893 594.978 11.1293 594.117 11.56V26.146H592.077V9.146L593.811 8.976L593.947 10.166C595.919 9.078 597.845 8.534 599.727 8.534C601.563 8.534 602.979 9.01 603.977 9.962C604.997 10.914 605.507 12.2627 605.507 14.008V26.146H603.467ZM624.161 0.340002V26.044L622.427 26.214L622.291 25.024C620.365 26.112 618.597 26.656 616.987 26.656C614.766 26.656 613.021 25.8853 611.751 24.344C610.482 22.78 609.847 20.6267 609.847 17.884C609.847 14.8693 610.561 12.5573 611.989 10.948C613.44 9.33867 615.525 8.534 618.245 8.534C619.651 8.534 620.943 8.71534 622.121 9.078V0.612002L624.161 0.340002ZM617.259 25.024C618.007 25.024 618.812 24.8993 619.673 24.65C620.535 24.4007 621.351 24.0607 622.121 23.63V10.71C620.943 10.3473 619.707 10.166 618.415 10.166C616.239 10.166 614.619 10.8007 613.553 12.07C612.511 13.3167 611.989 15.2433 611.989 17.85C611.989 20.1847 612.431 21.964 613.315 23.188C614.222 24.412 615.537 25.024 617.259 25.024ZM638.838 26.146V10.608H636.254V9.146L638.838 9.044V5.202C638.838 3.52467 639.246 2.244 640.062 1.36C640.901 0.453335 642.113 1.90735e-06 643.7 1.90735e-06C644.561 1.90735e-06 645.434 0.158669 646.318 0.476002V1.972C645.502 1.72267 644.72 1.598 643.972 1.598C642.907 1.598 642.125 1.88134 641.626 2.448C641.127 2.992 640.878 3.85334 640.878 5.032V9.044H645.468V10.608H640.878V26.146H638.838ZM651.054 9.044V20.842C651.054 23.63 652.426 25.024 655.168 25.024C655.916 25.024 656.732 24.8993 657.616 24.65C658.523 24.4007 659.407 24.0607 660.268 23.63V9.044H662.308V26.044L660.574 26.214L660.438 25.024C658.466 26.112 656.54 26.656 654.658 26.656C652.868 26.656 651.474 26.18 650.476 25.228C649.502 24.2533 649.014 22.9047 649.014 21.182V9.044H651.054ZM679.402 26.146V14.348C679.402 11.56 677.986 10.166 675.152 10.166C674.404 10.166 673.577 10.2907 672.67 10.54C671.786 10.7893 670.914 11.1293 670.052 11.56V26.146H668.012V9.146L669.746 8.976L669.882 10.166C671.854 9.078 673.781 8.534 675.662 8.534C677.498 8.534 678.915 9.01 679.912 9.962C680.932 10.914 681.442 12.2627 681.442 14.008V26.146H679.402ZM709.345 26.146L704.755 11.322L700.301 26.146H698.363L692.923 9.044H694.997L699.349 23.63L703.633 9.044H705.911L710.263 23.732L714.581 9.044H716.553L711.283 26.146H709.345ZM719.776 26.146V9.214L721.816 8.942V26.146H719.776ZM720.796 4.896C720.343 4.896 719.969 4.76 719.674 4.488C719.402 4.216 719.266 3.842 719.266 3.366C719.266 2.89 719.402 2.516 719.674 2.244C719.969 1.972 720.343 1.836 720.796 1.836C721.249 1.836 721.612 1.972 721.884 2.244C722.179 2.516 722.326 2.89 722.326 3.366C722.326 3.842 722.179 4.216 721.884 4.488C721.612 4.76 721.249 4.896 720.796 4.896ZM730.028 10.608V21.488C730.028 22.6667 730.278 23.5393 730.776 24.106C731.275 24.65 732.046 24.922 733.088 24.922C733.768 24.922 734.539 24.7973 735.4 24.548V26.044C734.448 26.3613 733.576 26.52 732.782 26.52C731.218 26.52 730.028 26.1007 729.212 25.262C728.396 24.4007 727.988 23.1313 727.988 21.454V10.608H725.404V9.146L728.056 9.044L728.26 4.76L730.028 4.556V9.044H735.162V10.608H730.028ZM738.934 26.146V0.612002L740.974 0.340002V10.098C742.878 9.05534 744.748 8.534 746.584 8.534C748.42 8.534 749.837 9.01 750.834 9.962C751.854 10.914 752.364 12.2627 752.364 14.008V26.146H750.324V14.348C750.324 11.56 748.907 10.166 746.074 10.166C745.326 10.166 744.499 10.2907 743.592 10.54C742.708 10.7893 741.835 11.1293 740.974 11.56V26.146H738.934ZM764.967 23.358C767.347 24.4007 769.602 24.922 771.733 24.922C773.75 24.922 775.303 24.48 776.391 23.596C777.501 22.6893 778.057 21.3973 778.057 19.72C778.057 18.4507 777.694 17.4307 776.969 16.66C776.243 15.8893 775.031 15.2433 773.331 14.722L770.917 13.974C769.058 13.4073 767.698 12.6707 766.837 11.764C765.975 10.8347 765.545 9.656 765.545 8.228C765.545 6.30134 766.27 4.76 767.721 3.604C769.194 2.42534 771.155 1.836 773.603 1.836C775.575 1.836 777.479 2.25534 779.315 3.094V4.794C777.365 3.978 775.484 3.57 773.671 3.57C771.812 3.57 770.361 3.978 769.319 4.794C768.276 5.58734 767.755 6.70934 767.755 8.16C767.755 9.18 768.049 9.98467 768.639 10.574C769.228 11.1633 770.259 11.696 771.733 12.172L774.147 12.954C776.323 13.6567 777.887 14.5407 778.839 15.606C779.791 16.6487 780.267 18.0087 780.267 19.686C780.267 21.8393 779.507 23.5393 777.989 24.786C776.493 26.0327 774.441 26.656 771.835 26.656C769.432 26.656 767.256 26.1687 765.307 25.194L764.967 23.358ZM795.094 26.214L794.958 25.024C793.008 26.112 791.082 26.656 789.178 26.656C787.432 26.656 786.05 26.2027 785.03 25.296C784.01 24.3667 783.5 23.0973 783.5 21.488C783.5 19.788 784.066 18.496 785.2 17.612C786.356 16.7053 788.044 16.252 790.266 16.252C791.603 16.252 793.122 16.4107 794.822 16.728V14.416C794.822 11.5827 793.224 10.166 790.028 10.166C789.189 10.166 788.271 10.2793 787.274 10.506C786.276 10.7327 785.358 11.0273 784.52 11.39V9.792C785.336 9.40667 786.265 9.10067 787.308 8.874C788.373 8.64734 789.382 8.534 790.334 8.534C792.464 8.534 794.074 9.044 795.162 10.064C796.272 11.0613 796.828 12.512 796.828 14.416V26.044L795.094 26.214ZM789.654 25.024C790.47 25.024 791.331 24.8993 792.238 24.65C793.144 24.4007 794.006 24.0607 794.822 23.63V18.19C793.394 17.918 791.988 17.782 790.606 17.782C788.86 17.782 787.591 18.0767 786.798 18.666C786.004 19.2553 785.608 20.1847 785.608 21.454C785.608 23.834 786.956 25.024 789.654 25.024ZM806.162 26.146L799.702 9.044H801.844L807.182 23.97L812.69 9.044H814.73L808.134 26.146H806.162ZM823.884 26.656C821.413 26.656 819.543 25.8967 818.274 24.378C817.027 22.8367 816.404 20.57 816.404 17.578C816.404 14.6087 817.027 12.3647 818.274 10.846C819.543 9.30467 821.413 8.534 823.884 8.534C826.355 8.534 828.213 9.30467 829.46 10.846C830.729 12.3647 831.364 14.6087 831.364 17.578C831.364 20.57 830.729 22.8367 829.46 24.378C828.213 25.8967 826.355 26.656 823.884 26.656ZM823.884 25.024C825.743 25.024 827.091 24.4347 827.93 23.256C828.791 22.0547 829.222 20.162 829.222 17.578C829.222 15.0167 828.791 13.1467 827.93 11.968C827.091 10.7667 825.743 10.166 823.884 10.166C822.025 10.166 820.665 10.7667 819.804 11.968C818.965 13.1467 818.546 15.0167 818.546 17.578C818.546 20.162 818.965 22.0547 819.804 23.256C820.665 24.4347 822.025 25.024 823.884 25.024ZM835.954 26.146V9.146L837.688 8.976L837.858 10.506C839.376 9.25934 840.997 8.636 842.72 8.636C843.332 8.636 843.819 8.704 844.182 8.84V10.506C843.592 10.37 843.071 10.302 842.618 10.302C841.008 10.302 839.467 10.88 837.994 12.036V26.146H835.954Z" fill="#013D5B"/>
</svg>
