<svg width="737" height="40" viewBox="0 0 737 40" fill="none" xmlns="http://www.w3.org/2000/svg">
<path d="M722.862 28.0708C724.858 28.9493 726.921 29.3885 729.051 29.3885C732.645 29.3885 734.441 27.9909 734.441 25.1958C734.441 24.2908 734.175 23.5587 733.643 22.9997C733.137 22.4407 732.285 21.9748 731.087 21.6021L728.053 20.6438C726.349 20.1114 725.111 19.4459 724.339 18.6473C723.567 17.8221 723.181 16.7839 723.181 15.5328C723.181 13.8557 723.833 12.5247 725.138 11.5398C726.469 10.5282 728.252 10.0224 730.488 10.0224C732.378 10.0224 734.175 10.3818 735.879 11.1005V12.9772C734.095 12.2851 732.339 11.9391 730.608 11.9391C729.038 11.9391 727.8 12.2585 726.895 12.8974C726.016 13.5097 725.577 14.3615 725.577 15.4529C725.577 16.2249 725.817 16.8505 726.296 17.3296C726.802 17.7822 727.693 18.2214 728.971 18.6473L732.126 19.6855C733.749 20.2179 734.934 20.9233 735.679 21.8018C736.451 22.6802 736.837 23.7983 736.837 25.1559C736.837 27.1258 736.172 28.6431 734.841 29.7079C733.51 30.7727 731.633 31.3051 729.211 31.3051C726.975 31.3051 724.965 30.8925 723.181 30.0673L722.862 28.0708Z" fill="#013D5B"/>
<path d="M713.96 12.4582V25.2358C713.96 26.62 714.253 27.6449 714.838 28.3104C715.424 28.9492 716.329 29.2687 717.554 29.2687C718.352 29.2687 719.257 29.1223 720.269 28.8295V30.5864C719.151 30.9591 718.126 31.1454 717.194 31.1454C715.358 31.1454 713.96 30.6529 713.002 29.668C712.043 28.6564 711.564 27.1657 711.564 25.1958V12.4582H708.53V10.7412L711.644 10.6214L711.884 5.5902L713.96 5.35062V10.6214H719.989V12.4582H713.96Z" fill="#013D5B"/>
<path d="M702.194 30.7062V16.8505C702.194 13.5762 700.53 11.9391 697.203 11.9391C696.324 11.9391 695.353 12.0855 694.288 12.3783C693.25 12.6711 692.225 13.0704 691.213 13.5762V30.7062H688.817V10.7412L690.854 10.5415L691.014 11.9391C693.329 10.6613 695.592 10.0224 697.802 10.0224C699.958 10.0224 701.622 10.5815 702.793 11.6995C703.991 12.8175 704.59 14.4014 704.59 16.4512V30.7062H702.194Z" fill="#013D5B"/>
<path d="M668.902 10.6214V24.4771C668.902 27.7514 670.513 29.3885 673.734 29.3885C674.612 29.3885 675.57 29.2421 676.609 28.9493C677.673 28.6564 678.712 28.2571 679.723 27.7514V10.6214H682.119V30.5864L680.083 30.786L679.923 29.3885C677.607 30.6662 675.344 31.3051 673.135 31.3051C671.032 31.3051 669.395 30.7461 668.223 29.6281C667.079 28.4834 666.506 26.8995 666.506 24.8764V10.6214H668.902Z" fill="#013D5B"/>
<path d="M652.611 31.3051C649.709 31.3051 647.513 30.4134 646.023 28.6298C644.558 26.8197 643.826 24.1576 643.826 20.6438C643.826 17.1566 644.558 14.5212 646.023 12.7377C647.513 10.9275 649.709 10.0224 652.611 10.0224C655.513 10.0224 657.695 10.9275 659.16 12.7377C660.65 14.5212 661.396 17.1566 661.396 20.6438C661.396 24.1576 660.65 26.8197 659.16 28.6298C657.695 30.4134 655.513 31.3051 652.611 31.3051ZM652.611 29.3885C654.794 29.3885 656.378 28.6964 657.363 27.3121C658.374 25.9013 658.88 23.6785 658.88 20.6438C658.88 17.6357 658.374 15.4396 657.363 14.0554C656.378 12.6445 654.794 11.9391 652.611 11.9391C650.428 11.9391 648.831 12.6445 647.819 14.0554C646.834 15.4396 646.342 17.6357 646.342 20.6438C646.342 23.6785 646.834 25.9013 647.819 27.3121C648.831 28.6964 650.428 29.3885 652.611 29.3885Z" fill="#013D5B"/>
<path d="M640.385 29.9874C638.629 30.8659 636.712 31.3051 634.636 31.3051C631.814 31.3051 629.631 30.3867 628.087 28.55C626.57 26.7132 625.811 24.0911 625.811 20.6837C625.811 17.2764 626.57 14.6543 628.087 12.8175C629.631 10.9541 631.814 10.0224 634.636 10.0224C636.632 10.0224 638.522 10.4617 640.306 11.3401V13.2168C638.442 12.3916 636.632 11.979 634.875 11.979C632.719 11.979 631.082 12.7111 629.964 14.1751C628.872 15.6393 628.327 17.8088 628.327 20.6837C628.327 23.5321 628.872 25.6883 629.964 27.1524C631.082 28.6165 632.719 29.3486 634.875 29.3486C636.685 29.3486 638.522 28.9359 640.385 28.1107V29.9874Z" fill="#013D5B"/>
<path d="M622.37 29.9874C620.613 30.8659 618.697 31.3051 616.62 31.3051C613.799 31.3051 611.616 30.3867 610.072 28.55C608.555 26.7132 607.796 24.0911 607.796 20.6837C607.796 17.2764 608.555 14.6543 610.072 12.8175C611.616 10.9541 613.799 10.0224 616.62 10.0224C618.617 10.0224 620.507 10.4617 622.29 11.3401V13.2168C620.427 12.3916 618.617 11.979 616.86 11.979C614.704 11.979 613.067 12.7111 611.949 14.1751C610.857 15.6393 610.311 17.8088 610.311 20.6837C610.311 23.5321 610.857 25.6883 611.949 27.1524C613.067 28.6165 614.704 29.3486 616.86 29.3486C618.67 29.3486 620.507 28.9359 622.37 28.1107V29.9874Z" fill="#013D5B"/>
<path d="M600.667 30.786L600.507 29.3885C598.218 30.6662 595.955 31.3051 593.719 31.3051C591.669 31.3051 590.045 30.7727 588.848 29.7079C587.65 28.6165 587.051 27.1258 587.051 25.2358C587.051 23.2393 587.716 21.7219 589.047 20.6837C590.405 19.6189 592.388 19.0865 594.997 19.0865C596.567 19.0865 598.351 19.2729 600.347 19.6456V16.9303C600.347 13.6028 598.471 11.9391 594.717 11.9391C593.732 11.9391 592.654 12.0722 591.483 12.3384C590.312 12.6046 589.234 12.9506 588.249 13.3766V11.4998C589.207 11.0473 590.298 10.6879 591.523 10.4217C592.774 10.1555 593.959 10.0224 595.077 10.0224C597.579 10.0224 599.469 10.6214 600.747 11.8193C602.051 12.9906 602.703 14.6942 602.703 16.9303V30.5864L600.667 30.786ZM594.278 29.3885C595.236 29.3885 596.248 29.2421 597.313 28.9493C598.378 28.6564 599.389 28.2571 600.347 27.7514V21.3626C598.67 21.0431 597.02 20.8834 595.396 20.8834C593.346 20.8834 591.856 21.2295 590.924 21.9216C589.992 22.6137 589.526 23.7051 589.526 25.1958C589.526 27.9909 591.11 29.3885 594.278 29.3885Z" fill="#013D5B"/>
<path d="M562.747 40.0099C560.378 40.0099 558.368 39.5973 556.718 38.772L556.398 36.7356C558.581 37.6407 560.657 38.0932 562.627 38.0932C567.073 38.0932 569.296 36.0302 569.296 31.9041V29.1489C568.284 29.7079 567.246 30.1472 566.181 30.4666C565.143 30.786 564.171 30.9458 563.266 30.9458C560.657 30.9458 558.608 30.0673 557.117 28.3104C555.626 26.5535 554.881 24.1177 554.881 21.0032C554.881 17.4627 555.719 14.7475 557.396 12.8575C559.1 10.9674 561.549 10.0224 564.744 10.0224C567.166 10.0224 569.482 10.4484 571.691 11.3002V31.7044C571.691 34.3664 570.919 36.4162 569.375 37.8536C567.831 39.2911 565.622 40.0099 562.747 40.0099ZM563.586 29.0291C564.464 29.0291 565.409 28.8827 566.421 28.5899C567.432 28.2971 568.391 27.8978 569.296 27.392V12.5779C567.911 12.152 566.461 11.9391 564.943 11.9391C562.388 11.9391 560.484 12.6844 559.233 14.1751C558.009 15.6393 557.396 17.902 557.396 20.9633C557.396 23.5986 557.916 25.6084 558.954 26.9927C560.019 28.3503 561.562 29.0291 563.586 29.0291Z" fill="#013D5B"/>
<path d="M547.387 30.7062V16.8505C547.387 13.5762 545.724 11.9391 542.396 11.9391C541.518 11.9391 540.546 12.0855 539.481 12.3783C538.443 12.6711 537.418 13.0704 536.407 13.5762V30.7062H534.011V10.7412L536.047 10.5415L536.207 11.9391C538.523 10.6613 540.786 10.0224 542.995 10.0224C545.151 10.0224 546.815 10.5815 547.986 11.6995C549.184 12.8175 549.783 14.4014 549.783 16.4512V30.7062H547.387Z" fill="#013D5B"/>
<path d="M524.925 30.7062V10.821L527.321 10.5016V30.7062H524.925ZM526.123 5.74992C525.591 5.74992 525.151 5.5902 524.805 5.27076C524.486 4.95132 524.326 4.51209 524.326 3.95307C524.326 3.39405 524.486 2.95482 524.805 2.63538C525.151 2.31594 525.591 2.15622 526.123 2.15622C526.655 2.15622 527.081 2.31594 527.401 2.63538C527.747 2.95482 527.92 3.39405 527.92 3.95307C527.92 4.51209 527.747 4.95132 527.401 5.27076C527.081 5.5902 526.655 5.74992 526.123 5.74992Z" fill="#013D5B"/>
<path d="M506.559 30.7062V0.718733L508.955 0.399292V19.5258L518.378 10.6214H521.213L511.35 19.965L521.533 30.7062H518.498L508.955 20.5639V30.7062H506.559Z" fill="#013D5B"/>
<path d="M501.41 29.9874C499.653 30.8659 497.737 31.3051 495.66 31.3051C492.839 31.3051 490.656 30.3867 489.112 28.55C487.595 26.7132 486.836 24.0911 486.836 20.6837C486.836 17.2764 487.595 14.6543 489.112 12.8175C490.656 10.9541 492.839 10.0224 495.66 10.0224C497.657 10.0224 499.547 10.4617 501.331 11.3401V13.2168C499.467 12.3916 497.657 11.979 495.9 11.979C493.744 11.979 492.107 12.7111 490.989 14.1751C489.897 15.6393 489.352 17.8088 489.352 20.6837C489.352 23.5321 489.897 25.6883 490.989 27.1524C492.107 28.6165 493.744 29.3486 495.9 29.3486C497.71 29.3486 499.547 28.9359 501.41 28.1107V29.9874Z" fill="#013D5B"/>
<path d="M481.934 29.9874C480.097 30.8659 478.127 31.3051 476.024 31.3051C472.963 31.3051 470.607 30.4 468.957 28.5899C467.306 26.7797 466.481 24.1843 466.481 20.8035C466.481 17.4494 467.253 14.814 468.797 12.8974C470.341 10.9808 472.457 10.0224 475.146 10.0224C477.515 10.0224 479.378 10.7678 480.736 12.2585C482.12 13.7226 482.812 15.7324 482.812 18.2879C482.812 19.2463 482.732 20.1646 482.573 21.0431H468.837C468.863 26.6067 471.326 29.3885 476.224 29.3885C478.194 29.3885 480.097 28.9626 481.934 28.1107V29.9874ZM475.106 11.8991C473.296 11.8991 471.818 12.5646 470.674 13.8956C469.529 15.2266 468.917 17.0102 468.837 19.2463H480.496C480.55 18.8203 480.576 18.4477 480.576 18.1282C480.576 16.1583 480.097 14.6277 479.139 13.5363C478.18 12.4449 476.836 11.8991 475.106 11.8991Z" fill="#013D5B"/>
<path d="M445.611 30.7062V0.718733L448.007 0.399292V11.8592C450.243 10.6347 452.439 10.0224 454.595 10.0224C456.752 10.0224 458.415 10.5814 459.587 11.6995C460.784 12.8175 461.383 14.4014 461.383 16.4512V30.7062H458.988V16.8505C458.988 13.5762 457.324 11.9391 453.996 11.9391C453.118 11.9391 452.146 12.0855 451.081 12.3783C450.043 12.6711 449.018 13.0704 448.007 13.5762V30.7062H445.611Z" fill="#013D5B"/>
<path d="M440.463 29.9874C438.706 30.8659 436.789 31.3051 434.713 31.3051C431.891 31.3051 429.708 30.3867 428.164 28.55C426.647 26.7132 425.888 24.0911 425.888 20.6837C425.888 17.2764 426.647 14.6543 428.164 12.8175C429.708 10.9541 431.891 10.0224 434.713 10.0224C436.709 10.0224 438.599 10.4617 440.383 11.3401V13.2168C438.519 12.3916 436.709 11.979 434.952 11.979C432.796 11.979 431.159 12.7111 430.041 14.1751C428.949 15.6393 428.404 17.8088 428.404 20.6837C428.404 23.5321 428.949 25.6883 430.041 27.1524C431.159 28.6165 432.796 29.3486 434.952 29.3486C436.762 29.3486 438.599 28.9359 440.463 28.1107V29.9874Z" fill="#013D5B"/>
<path d="M408.412 30.7062V16.8505C408.412 13.5762 406.748 11.9391 403.421 11.9391C402.542 11.9391 401.571 12.0855 400.506 12.3783C399.468 12.6711 398.443 13.0704 397.431 13.5762V30.7062H395.036V10.7412L397.072 10.5415L397.232 11.9391C399.548 10.6613 401.81 10.0224 404.02 10.0224C406.176 10.0224 407.84 10.5815 409.011 11.6995C410.209 12.8175 410.808 14.4014 410.808 16.4512V30.7062H408.412Z" fill="#013D5B"/>
<path d="M380.861 31.3051C377.959 31.3051 375.763 30.4134 374.272 28.6298C372.808 26.8197 372.076 24.1576 372.076 20.6438C372.076 17.1566 372.808 14.5212 374.272 12.7377C375.763 10.9275 377.959 10.0224 380.861 10.0224C383.762 10.0224 385.945 10.9275 387.409 12.7377C388.9 14.5212 389.645 17.1566 389.645 20.6438C389.645 24.1576 388.9 26.8197 387.409 28.6298C385.945 30.4134 383.762 31.3051 380.861 31.3051ZM380.861 29.3885C383.044 29.3885 384.627 28.6964 385.612 27.3121C386.624 25.9013 387.13 23.6785 387.13 20.6438C387.13 17.6357 386.624 15.4396 385.612 14.0554C384.627 12.6445 383.044 11.9391 380.861 11.9391C378.678 11.9391 377.081 12.6445 376.069 14.0554C375.084 15.4396 374.592 17.6357 374.592 20.6438C374.592 23.6785 375.084 25.9013 376.069 27.3121C377.081 28.6964 378.678 29.3885 380.861 29.3885Z" fill="#013D5B"/>
<path d="M344.268 28.0708C346.264 28.9493 348.327 29.3885 350.457 29.3885C354.051 29.3885 355.848 27.9909 355.848 25.1958C355.848 24.2908 355.581 23.5587 355.049 22.9997C354.543 22.4407 353.691 21.9748 352.493 21.6021L349.459 20.6438C347.755 20.1114 346.517 19.4459 345.745 18.6473C344.973 17.8221 344.587 16.7839 344.587 15.5328C344.587 13.8557 345.239 12.5247 346.544 11.5398C347.875 10.5282 349.658 10.0224 351.894 10.0224C353.784 10.0224 355.581 10.3818 357.285 11.1005V12.9772C355.501 12.2851 353.745 11.9391 352.014 11.9391C350.444 11.9391 349.206 12.2585 348.301 12.8974C347.422 13.5097 346.983 14.3615 346.983 15.4529C346.983 16.2249 347.223 16.8505 347.702 17.3296C348.208 17.7822 349.099 18.2214 350.377 18.6473L353.532 19.6855C355.155 20.2179 356.34 20.9233 357.085 21.8018C357.857 22.6802 358.243 23.7983 358.243 25.1559C358.243 27.1258 357.578 28.6431 356.247 29.7079C354.916 30.7727 353.039 31.3051 350.617 31.3051C348.381 31.3051 346.371 30.8925 344.587 30.0673L344.268 28.0708Z" fill="#013D5B"/>
<path d="M336.991 30.7062V16.4512C336.991 13.4431 335.567 11.9391 332.718 11.9391C331.068 11.9391 329.178 12.538 327.048 13.7359C327.261 14.4547 327.368 15.2266 327.368 16.0519V30.7062H324.972V16.4512C324.972 13.4431 323.548 11.9391 320.699 11.9391C319.102 11.9391 317.319 12.4848 315.349 13.5762V30.7062H312.953V10.7412L314.989 10.5415L315.149 11.9391C317.412 10.6613 319.461 10.0224 321.298 10.0224C323.641 10.0224 325.331 10.7944 326.369 12.3384C328.951 10.7944 331.267 10.0224 333.317 10.0224C335.26 10.0224 336.751 10.5415 337.789 11.5797C338.854 12.6179 339.387 14.1086 339.387 16.0519V30.7062H336.991Z" fill="#013D5B"/>
<path d="M293.038 10.6214V24.4771C293.038 27.7514 294.648 29.3885 297.869 29.3885C298.748 29.3885 299.706 29.2421 300.744 28.9493C301.809 28.6564 302.847 28.2571 303.859 27.7514V10.6214H306.254V30.5864L304.218 30.786L304.058 29.3885C301.742 30.6662 299.48 31.3051 297.27 31.3051C295.167 31.3051 293.53 30.7461 292.359 29.6281C291.214 28.4834 290.642 26.8995 290.642 24.8764V10.6214H293.038Z" fill="#013D5B"/>
<path d="M282.087 30.7062V16.4512C282.087 13.4431 280.663 11.9391 277.815 11.9391C276.164 11.9391 274.274 12.538 272.145 13.7359C272.358 14.4547 272.464 15.2266 272.464 16.0519V30.7062H270.068V16.4512C270.068 13.4431 268.644 11.9391 265.796 11.9391C264.199 11.9391 262.415 12.4848 260.445 13.5762V30.7062H258.049V10.7412L260.086 10.5415L260.245 11.9391C262.508 10.6613 264.558 10.0224 266.395 10.0224C268.737 10.0224 270.428 10.7944 271.466 12.3384C274.048 10.7944 276.364 10.0224 278.414 10.0224C280.357 10.0224 281.848 10.5415 282.886 11.5797C283.951 12.6179 284.483 14.1086 284.483 16.0519V30.7062H282.087Z" fill="#013D5B"/>
<path d="M248.963 30.7062V10.821L251.359 10.5016V30.7062H248.963ZM250.161 5.74992C249.629 5.74992 249.19 5.5902 248.844 5.27076C248.524 4.95132 248.365 4.51209 248.365 3.95307C248.365 3.39405 248.524 2.95482 248.844 2.63538C249.19 2.31594 249.629 2.15622 250.161 2.15622C250.694 2.15622 251.12 2.31594 251.439 2.63538C251.785 2.95482 251.958 3.39405 251.958 3.95307C251.958 4.51209 251.785 4.95132 251.439 5.27076C251.12 5.5902 250.694 5.74992 250.161 5.74992Z" fill="#013D5B"/>
<path d="M240.152 30.7062V16.8505C240.152 13.5762 238.489 11.9391 235.161 11.9391C234.283 11.9391 233.311 12.0855 232.246 12.3783C231.208 12.6711 230.183 13.0704 229.172 13.5762V30.7062H226.776V10.7412L228.812 10.5415L228.972 11.9391C231.288 10.6613 233.551 10.0224 235.76 10.0224C237.916 10.0224 239.58 10.5815 240.751 11.6995C241.949 12.8175 242.548 14.4014 242.548 16.4512V30.7062H240.152Z" fill="#013D5B"/>
<path d="M217.69 30.7062V10.821L220.086 10.5016V30.7062H217.69ZM218.888 5.74992C218.356 5.74992 217.917 5.5902 217.57 5.27076C217.251 4.95132 217.091 4.51209 217.091 3.95307C217.091 3.39405 217.251 2.95482 217.57 2.63538C217.917 2.31594 218.356 2.15622 218.888 2.15622C219.421 2.15622 219.846 2.31594 220.166 2.63538C220.512 2.95482 220.685 3.39405 220.685 3.95307C220.685 4.51209 220.512 4.95132 220.166 5.27076C219.846 5.5902 219.421 5.74992 218.888 5.74992Z" fill="#013D5B"/>
<path d="M208.856 30.7062V16.4512C208.856 13.4431 207.432 11.9391 204.583 11.9391C202.933 11.9391 201.043 12.538 198.913 13.7359C199.126 14.4547 199.233 15.2266 199.233 16.0519V30.7062H196.837V16.4512C196.837 13.4431 195.413 11.9391 192.565 11.9391C190.967 11.9391 189.184 12.4848 187.214 13.5762V30.7062H184.818V10.7412L186.855 10.5415L187.014 11.9391C189.277 10.6613 191.327 10.0224 193.163 10.0224C195.506 10.0224 197.196 10.7944 198.235 12.3384C200.817 10.7944 203.133 10.0224 205.182 10.0224C207.126 10.0224 208.616 10.5415 209.655 11.5797C210.719 12.6179 211.252 14.1086 211.252 16.0519V30.7062H208.856Z" fill="#013D5B"/>
<path d="M161.11 30.7062V10.7412L163.146 10.5415L163.346 12.3384C165.129 10.8743 167.033 10.1422 169.056 10.1422C169.775 10.1422 170.347 10.2221 170.773 10.3818V12.3384C170.081 12.1786 169.469 12.0988 168.936 12.0988C167.046 12.0988 165.236 12.7776 163.506 14.1352V30.7062H161.11Z" fill="#013D5B"/>
<path d="M146.935 31.3051C144.033 31.3051 141.837 30.4134 140.347 28.6298C138.882 26.8197 138.15 24.1576 138.15 20.6438C138.15 17.1566 138.882 14.5212 140.347 12.7377C141.837 10.9275 144.033 10.0224 146.935 10.0224C149.837 10.0224 152.019 10.9275 153.484 12.7377C154.974 14.5212 155.72 17.1566 155.72 20.6438C155.72 24.1576 154.974 26.8197 153.484 28.6298C152.019 30.4134 149.837 31.3051 146.935 31.3051ZM146.935 29.3885C149.118 29.3885 150.702 28.6964 151.687 27.3121C152.698 25.9013 153.204 23.6785 153.204 20.6438C153.204 17.6357 152.698 15.4396 151.687 14.0554C150.702 12.6445 149.118 11.9391 146.935 11.9391C144.752 11.9391 143.155 12.6445 142.143 14.0554C141.158 15.4396 140.666 17.6357 140.666 20.6438C140.666 23.6785 141.158 25.9013 142.143 27.3121C143.155 28.6964 144.752 29.3885 146.935 29.3885Z" fill="#013D5B"/>
<path d="M110.342 28.0708C112.338 28.9493 114.401 29.3885 116.531 29.3885C120.125 29.3885 121.922 27.9909 121.922 25.1958C121.922 24.2908 121.655 23.5587 121.123 22.9997C120.617 22.4407 119.765 21.9748 118.567 21.6021L115.533 20.6438C113.829 20.1114 112.591 19.4459 111.819 18.6473C111.047 17.8221 110.661 16.7839 110.661 15.5328C110.661 13.8557 111.313 12.5247 112.618 11.5398C113.949 10.5282 115.732 10.0224 117.968 10.0224C119.858 10.0224 121.655 10.3818 123.359 11.1005V12.9772C121.575 12.2851 119.819 11.9391 118.088 11.9391C116.518 11.9391 115.28 12.2585 114.375 12.8974C113.496 13.5097 113.057 14.3615 113.057 15.4529C113.057 16.2249 113.297 16.8505 113.776 17.3296C114.282 17.7822 115.173 18.2214 116.451 18.6473L119.606 19.6855C121.229 20.2179 122.414 20.9233 123.159 21.8018C123.931 22.6802 124.317 23.7983 124.317 25.1559C124.317 27.1258 123.652 28.6431 122.321 29.7079C120.99 30.7727 119.113 31.3051 116.691 31.3051C114.455 31.3051 112.445 30.8925 110.661 30.0673L110.342 28.0708Z" fill="#013D5B"/>
<path d="M105.679 29.9874C103.843 30.8659 101.873 31.3051 99.7698 31.3051C96.7085 31.3051 94.3527 30.4 92.7022 28.5899C91.0518 26.7797 90.2266 24.1843 90.2266 20.8035C90.2266 17.4494 90.9986 14.814 92.5425 12.8974C94.0865 10.9808 96.2028 10.0224 98.8914 10.0224C101.261 10.0224 103.124 10.7678 104.482 12.2585C105.866 13.7226 106.558 15.7324 106.558 18.2879C106.558 19.2463 106.478 20.1646 106.318 21.0431H92.5824C92.6091 26.6067 95.0714 29.3885 99.9695 29.3885C101.939 29.3885 103.843 28.9626 105.679 28.1107V29.9874ZM98.8515 11.8991C97.0413 11.8991 95.5639 12.5646 94.4192 13.8956C93.2746 15.2266 92.6623 17.0102 92.5824 19.2463H104.242C104.295 18.8203 104.322 18.4477 104.322 18.1282C104.322 16.1583 103.843 14.6277 102.884 13.5363C101.926 12.4449 100.582 11.8991 98.8515 11.8991Z" fill="#013D5B"/>
<path d="M85.3245 29.9874C83.4877 30.8659 81.5178 31.3051 79.4149 31.3051C76.3536 31.3051 73.9977 30.4 72.3472 28.5899C70.6968 26.7797 69.8716 24.1843 69.8716 20.8035C69.8716 17.4494 70.6436 14.814 72.1875 12.8974C73.7315 10.9808 75.8478 10.0224 78.5364 10.0224C80.9056 10.0224 82.769 10.7678 84.1266 12.2585C85.5108 13.7226 86.203 15.7324 86.203 18.2879C86.203 19.2463 86.1231 20.1646 85.9634 21.0431H72.2275C72.2541 26.6067 74.7164 29.3885 79.6145 29.3885C81.5844 29.3885 83.4877 28.9626 85.3245 28.1107V29.9874ZM78.4965 11.8991C76.6863 11.8991 75.2089 12.5646 74.0642 13.8956C72.9196 15.2266 72.3073 17.0102 72.2275 19.2463H83.887C83.9402 18.8203 83.9669 18.4477 83.9669 18.1282C83.9669 16.1583 83.4877 14.6277 82.5294 13.5363C81.5711 12.4449 80.2268 11.8991 78.4965 11.8991Z" fill="#013D5B"/>
<path d="M59.3482 30.7062V12.4582H56.3135V10.7412L59.3482 10.6214V6.10929C59.3482 4.13941 59.8273 2.63538 60.7856 1.5972C61.7706 0.5324 63.1947 0 65.0581 0C66.0697 0 67.0946 0.18634 68.1328 0.55902V2.31594C67.1744 2.02312 66.256 1.87671 65.3776 1.87671C64.1264 1.87671 63.2081 2.20946 62.6224 2.87496C62.0368 3.51384 61.7439 4.5254 61.7439 5.90964V10.6214H67.1345V12.4582H61.7439V30.7062H59.3482Z" fill="#013D5B"/>
<path d="M34.6318 31.3051C31.7302 31.3051 29.534 30.4134 28.0433 28.6298C26.5792 26.8197 25.8472 24.1576 25.8472 20.6438C25.8472 17.1566 26.5792 14.5212 28.0433 12.7377C29.534 10.9275 31.7302 10.0224 34.6318 10.0224C37.5333 10.0224 39.7162 10.9275 41.1803 12.7377C42.671 14.5212 43.4164 17.1566 43.4164 20.6438C43.4164 24.1576 42.671 26.8197 41.1803 28.6298C39.7162 30.4134 37.5333 31.3051 34.6318 31.3051ZM34.6318 29.3885C36.8146 29.3885 38.3985 28.6964 39.3834 27.3121C40.395 25.9013 40.9008 23.6785 40.9008 20.6438C40.9008 17.6357 40.395 15.4396 39.3834 14.0554C38.3985 12.6445 36.8146 11.9391 34.6318 11.9391C32.4489 11.9391 30.8517 12.6445 29.8402 14.0554C28.8552 15.4396 28.3628 17.6357 28.3628 20.6438C28.3628 23.6785 28.8552 25.9013 29.8402 27.3121C30.8517 28.6964 32.4489 29.3885 34.6318 29.3885Z" fill="#013D5B"/>
<path d="M17.4095 2.75517H19.8452V30.7062H17.4494L2.43573 6.90789V30.7062H0V2.75517H2.3958L17.4095 26.5535V2.75517Z" fill="#013D5B"/>
</svg>
