<svg width="316" height="33" viewBox="0 0 316 33" fill="none" xmlns="http://www.w3.org/2000/svg">
<g clip-path="url(#clip0_11097_3615)">
<path d="M6.78 -9V-28.47H0.45V-30H15V-28.47H8.67V-9H6.78ZM17.9595 -9V-31.53L19.7595 -31.77V-23.16C21.4395 -24.08 23.0895 -24.54 24.7095 -24.54C26.3295 -24.54 27.5795 -24.12 28.4595 -23.28C29.3595 -22.44 29.8095 -21.25 29.8095 -19.71V-9H28.0095V-19.41C28.0095 -21.87 26.7595 -23.1 24.2595 -23.1C23.5995 -23.1 22.8695 -22.99 22.0695 -22.77C21.2895 -22.55 20.5195 -22.25 19.7595 -21.87V-9H17.9595ZM45.2494 -9.54C43.8694 -8.88 42.3894 -8.55 40.8094 -8.55C38.5094 -8.55 36.7394 -9.23 35.4994 -10.59C34.2594 -11.95 33.6394 -13.9 33.6394 -16.44C33.6394 -18.96 34.2194 -20.94 35.3794 -22.38C36.5394 -23.82 38.1294 -24.54 40.1494 -24.54C41.9294 -24.54 43.3294 -23.98 44.3494 -22.86C45.3894 -21.76 45.9094 -20.25 45.9094 -18.33C45.9094 -17.61 45.8494 -16.92 45.7294 -16.26H35.4094C35.4294 -12.08 37.2794 -9.99 40.9594 -9.99C42.4394 -9.99 43.8694 -10.31 45.2494 -10.95V-9.54ZM40.1194 -23.13C38.7594 -23.13 37.6494 -22.63 36.7894 -21.63C35.9294 -20.63 35.4694 -19.29 35.4094 -17.61H44.1694C44.2094 -17.93 44.2294 -18.21 44.2294 -18.45C44.2294 -19.93 43.8694 -21.08 43.1494 -21.9C42.4294 -22.72 41.4194 -23.13 40.1194 -23.13ZM59.2223 -23.19C59.9823 -23.61 60.7523 -23.94 61.5323 -24.18C62.3323 -24.42 63.0723 -24.54 63.7523 -24.54C65.7123 -24.54 67.2523 -23.85 68.3723 -22.47C69.4923 -21.11 70.0523 -19.22 70.0523 -16.8C70.0523 -14.14 69.4123 -12.1 68.1323 -10.68C66.8723 -9.26 65.0423 -8.55 62.6423 -8.55C60.9423 -8.55 59.2023 -8.83 57.4223 -9.39V-31.53L59.2223 -31.77V-23.19ZM63.5123 -23.1C62.8523 -23.1 62.1423 -22.99 61.3823 -22.77C60.6223 -22.55 59.9023 -22.25 59.2223 -21.87V-10.47C60.2623 -10.15 61.3523 -9.99 62.4923 -9.99C64.4123 -9.99 65.8323 -10.54 66.7523 -11.64C67.6923 -12.76 68.1623 -14.47 68.1623 -16.77C68.1623 -18.83 67.7623 -20.4 66.9623 -21.48C66.1823 -22.56 65.0323 -23.1 63.5123 -23.1ZM84.7123 -9.54C83.3323 -8.88 81.8523 -8.55 80.2723 -8.55C77.9723 -8.55 76.2023 -9.23 74.9623 -10.59C73.7223 -11.95 73.1023 -13.9 73.1023 -16.44C73.1023 -18.96 73.6823 -20.94 74.8423 -22.38C76.0023 -23.82 77.5923 -24.54 79.6123 -24.54C81.3923 -24.54 82.7923 -23.98 83.8123 -22.86C84.8523 -21.76 85.3723 -20.25 85.3723 -18.33C85.3723 -17.61 85.3123 -16.92 85.1923 -16.26H74.8723C74.8923 -12.08 76.7423 -9.99 80.4223 -9.99C81.9023 -9.99 83.3323 -10.31 84.7123 -10.95V-9.54ZM79.5823 -23.13C78.2223 -23.13 77.1123 -22.63 76.2523 -21.63C75.3923 -20.63 74.9323 -19.29 74.8723 -17.61H83.6323C83.6723 -17.93 83.6923 -18.21 83.6923 -18.45C83.6923 -19.93 83.3323 -21.08 82.6123 -21.9C81.8923 -22.72 80.8823 -23.13 79.5823 -23.13ZM88.2152 -10.98C89.7152 -10.32 91.2652 -9.99 92.8652 -9.99C95.5652 -9.99 96.9152 -11.04 96.9152 -13.14C96.9152 -13.82 96.7152 -14.37 96.3152 -14.79C95.9352 -15.21 95.2952 -15.56 94.3952 -15.84L92.1152 -16.56C90.8352 -16.96 89.9052 -17.46 89.3252 -18.06C88.7452 -18.68 88.4552 -19.46 88.4552 -20.4C88.4552 -21.66 88.9452 -22.66 89.9252 -23.4C90.9252 -24.16 92.2652 -24.54 93.9452 -24.54C95.3652 -24.54 96.7152 -24.27 97.9952 -23.73V-22.32C96.6552 -22.84 95.3352 -23.1 94.0352 -23.1C92.8552 -23.1 91.9252 -22.86 91.2452 -22.38C90.5852 -21.92 90.2552 -21.28 90.2552 -20.46C90.2552 -19.88 90.4352 -19.41 90.7952 -19.05C91.1752 -18.71 91.8452 -18.38 92.8052 -18.06L95.1752 -17.28C96.3952 -16.88 97.2852 -16.35 97.8452 -15.69C98.4252 -15.03 98.7152 -14.19 98.7152 -13.17C98.7152 -11.69 98.2152 -10.55 97.2152 -9.75C96.2152 -8.95 94.8052 -8.55 92.9852 -8.55C91.3052 -8.55 89.7952 -8.86 88.4552 -9.48L88.2152 -10.98ZM104.818 -22.71V-13.11C104.818 -12.07 105.038 -11.3 105.478 -10.8C105.918 -10.32 106.598 -10.08 107.518 -10.08C108.118 -10.08 108.798 -10.19 109.558 -10.41V-9.09C108.718 -8.81 107.948 -8.67 107.248 -8.67C105.868 -8.67 104.818 -9.04 104.098 -9.78C103.378 -10.54 103.018 -11.66 103.018 -13.14V-22.71H100.738V-24L103.078 -24.09L103.258 -27.87L104.818 -28.05V-24.09H109.348V-22.71H104.818ZM121.976 -23.19C122.736 -23.61 123.506 -23.94 124.286 -24.18C125.086 -24.42 125.826 -24.54 126.506 -24.54C128.466 -24.54 130.006 -23.85 131.126 -22.47C132.246 -21.11 132.806 -19.22 132.806 -16.8C132.806 -14.14 132.166 -12.1 130.886 -10.68C129.626 -9.26 127.796 -8.55 125.396 -8.55C123.696 -8.55 121.956 -8.83 120.176 -9.39V-31.53L121.976 -31.77V-23.19ZM126.266 -23.1C125.606 -23.1 124.896 -22.99 124.136 -22.77C123.376 -22.55 122.656 -22.25 121.976 -21.87V-10.47C123.016 -10.15 124.106 -9.99 125.246 -9.99C127.166 -9.99 128.586 -10.54 129.506 -11.64C130.446 -12.76 130.916 -14.47 130.916 -16.77C130.916 -18.83 130.516 -20.4 129.716 -21.48C128.936 -22.56 127.786 -23.1 126.266 -23.1ZM147.466 -9.54C146.086 -8.88 144.606 -8.55 143.026 -8.55C140.726 -8.55 138.956 -9.23 137.716 -10.59C136.476 -11.95 135.856 -13.9 135.856 -16.44C135.856 -18.96 136.436 -20.94 137.596 -22.38C138.756 -23.82 140.346 -24.54 142.366 -24.54C144.146 -24.54 145.546 -23.98 146.566 -22.86C147.606 -21.76 148.126 -20.25 148.126 -18.33C148.126 -17.61 148.066 -16.92 147.946 -16.26H137.626C137.646 -12.08 139.496 -9.99 143.176 -9.99C144.656 -9.99 146.086 -10.31 147.466 -10.95V-9.54ZM142.336 -23.13C140.976 -23.13 139.866 -22.63 139.006 -21.63C138.146 -20.63 137.686 -19.29 137.626 -17.61H146.386C146.426 -17.93 146.446 -18.21 146.446 -18.45C146.446 -19.93 146.086 -21.08 145.366 -21.9C144.646 -22.72 143.636 -23.13 142.336 -23.13ZM163.779 -31.77V-9.09L162.249 -8.94L162.129 -9.99C160.429 -9.03 158.869 -8.55 157.449 -8.55C155.489 -8.55 153.949 -9.23 152.829 -10.59C151.709 -11.97 151.149 -13.87 151.149 -16.29C151.149 -18.95 151.779 -20.99 153.039 -22.41C154.319 -23.83 156.159 -24.54 158.559 -24.54C159.799 -24.54 160.939 -24.38 161.979 -24.06V-31.53L163.779 -31.77ZM157.689 -9.99C158.349 -9.99 159.059 -10.1 159.819 -10.32C160.579 -10.54 161.299 -10.84 161.979 -11.22V-22.62C160.939 -22.94 159.849 -23.1 158.709 -23.1C156.789 -23.1 155.359 -22.54 154.419 -21.42C153.499 -20.32 153.039 -18.62 153.039 -16.32C153.039 -14.26 153.429 -12.69 154.209 -11.61C155.009 -10.53 156.169 -9.99 157.689 -9.99ZM171.029 -22.71V-13.11C171.029 -12.07 171.249 -11.3 171.689 -10.8C172.129 -10.32 172.809 -10.08 173.729 -10.08C174.329 -10.08 175.009 -10.19 175.769 -10.41V-9.09C174.929 -8.81 174.159 -8.67 173.459 -8.67C172.079 -8.67 171.029 -9.04 170.309 -9.78C169.589 -10.54 169.229 -11.66 169.229 -13.14V-22.71H166.949V-24L169.289 -24.09L169.469 -27.87L171.029 -28.05V-24.09H175.559V-22.71H171.029ZM178.887 -9V-23.94L180.687 -24.18V-9H178.887ZM179.787 -27.75C179.387 -27.75 179.057 -27.87 178.797 -28.11C178.557 -28.35 178.437 -28.68 178.437 -29.1C178.437 -29.52 178.557 -29.85 178.797 -30.09C179.057 -30.33 179.387 -30.45 179.787 -30.45C180.187 -30.45 180.507 -30.33 180.747 -30.09C181.007 -29.85 181.137 -29.52 181.137 -29.1C181.137 -28.68 181.007 -28.35 180.747 -28.11C180.507 -27.87 180.187 -27.75 179.787 -27.75ZM203.773 -9V-19.71C203.773 -21.97 202.703 -23.1 200.563 -23.1C199.323 -23.1 197.903 -22.65 196.303 -21.75C196.463 -21.21 196.543 -20.63 196.543 -20.01V-9H194.743V-19.71C194.743 -21.97 193.673 -23.1 191.533 -23.1C190.333 -23.1 188.993 -22.69 187.513 -21.87V-9H185.713V-24L187.243 -24.15L187.363 -23.1C189.063 -24.06 190.603 -24.54 191.983 -24.54C193.743 -24.54 195.013 -23.96 195.793 -22.8C197.733 -23.96 199.473 -24.54 201.013 -24.54C202.473 -24.54 203.593 -24.15 204.373 -23.37C205.173 -22.59 205.573 -21.47 205.573 -20.01V-9H203.773ZM221.031 -9.54C219.651 -8.88 218.171 -8.55 216.591 -8.55C214.291 -8.55 212.521 -9.23 211.281 -10.59C210.041 -11.95 209.421 -13.9 209.421 -16.44C209.421 -18.96 210.001 -20.94 211.161 -22.38C212.321 -23.82 213.911 -24.54 215.931 -24.54C217.711 -24.54 219.111 -23.98 220.131 -22.86C221.171 -21.76 221.691 -20.25 221.691 -18.33C221.691 -17.61 221.631 -16.92 221.511 -16.26H211.191C211.211 -12.08 213.061 -9.99 216.741 -9.99C218.221 -9.99 219.651 -10.31 221.031 -10.95V-9.54ZM215.901 -23.13C214.541 -23.13 213.431 -22.63 212.571 -21.63C211.711 -20.63 211.251 -19.29 211.191 -17.61H219.951C219.991 -17.93 220.011 -18.21 220.011 -18.45C220.011 -19.93 219.651 -21.08 218.931 -21.9C218.211 -22.72 217.201 -23.13 215.901 -23.13ZM232.034 -10.98C233.534 -10.32 235.084 -9.99 236.684 -9.99C239.384 -9.99 240.734 -11.04 240.734 -13.14C240.734 -13.82 240.534 -14.37 240.134 -14.79C239.754 -15.21 239.114 -15.56 238.214 -15.84L235.934 -16.56C234.654 -16.96 233.724 -17.46 233.144 -18.06C232.564 -18.68 232.274 -19.46 232.274 -20.4C232.274 -21.66 232.764 -22.66 233.744 -23.4C234.744 -24.16 236.084 -24.54 237.764 -24.54C239.184 -24.54 240.534 -24.27 241.814 -23.73V-22.32C240.474 -22.84 239.154 -23.1 237.854 -23.1C236.674 -23.1 235.744 -22.86 235.064 -22.38C234.404 -21.92 234.074 -21.28 234.074 -20.46C234.074 -19.88 234.254 -19.41 234.614 -19.05C234.994 -18.71 235.664 -18.38 236.624 -18.06L238.994 -17.28C240.214 -16.88 241.104 -16.35 241.664 -15.69C242.244 -15.03 242.534 -14.19 242.534 -13.17C242.534 -11.69 242.034 -10.55 241.034 -9.75C240.034 -8.95 238.624 -8.55 236.804 -8.55C235.124 -8.55 233.614 -8.86 232.274 -9.48L232.034 -10.98ZM248.636 -22.71V-13.11C248.636 -12.07 248.856 -11.3 249.296 -10.8C249.736 -10.32 250.416 -10.08 251.336 -10.08C251.936 -10.08 252.616 -10.19 253.376 -10.41V-9.09C252.536 -8.81 251.766 -8.67 251.066 -8.67C249.686 -8.67 248.636 -9.04 247.916 -9.78C247.196 -10.54 246.836 -11.66 246.836 -13.14V-22.71H244.556V-24L246.896 -24.09L247.076 -27.87L248.636 -28.05V-24.09H253.166V-22.71H248.636ZM262.105 -8.55C259.925 -8.55 258.275 -9.22 257.155 -10.56C256.055 -11.92 255.505 -13.92 255.505 -16.56C255.505 -19.18 256.055 -21.16 257.155 -22.5C258.275 -23.86 259.925 -24.54 262.105 -24.54C264.285 -24.54 265.925 -23.86 267.025 -22.5C268.145 -21.16 268.705 -19.18 268.705 -16.56C268.705 -13.92 268.145 -11.92 267.025 -10.56C265.925 -9.22 264.285 -8.55 262.105 -8.55ZM262.105 -9.99C263.745 -9.99 264.935 -10.51 265.675 -11.55C266.435 -12.61 266.815 -14.28 266.815 -16.56C266.815 -18.82 266.435 -20.47 265.675 -21.51C264.935 -22.57 263.745 -23.1 262.105 -23.1C260.465 -23.1 259.265 -22.57 258.505 -21.51C257.765 -20.47 257.395 -18.82 257.395 -16.56C257.395 -14.28 257.765 -12.61 258.505 -11.55C259.265 -10.51 260.465 -9.99 262.105 -9.99ZM272.754 -9V-24L274.284 -24.15L274.434 -22.8C275.774 -23.9 277.204 -24.45 278.724 -24.45C279.264 -24.45 279.694 -24.39 280.014 -24.27V-22.8C279.494 -22.92 279.034 -22.98 278.634 -22.98C277.214 -22.98 275.854 -22.47 274.554 -21.45V-9H272.754ZM281.759 -3.81C283.179 -4.07 284.289 -4.57 285.089 -5.31C285.889 -6.05 286.629 -7.23 287.309 -8.85L281.549 -24.09H283.439L288.149 -10.86L293.009 -24.09H294.809L289.049 -9.15C288.509 -7.71 287.939 -6.54 287.339 -5.64C286.759 -4.72 286.069 -4 285.269 -3.48C284.469 -2.94 283.429 -2.53 282.149 -2.25L281.759 -3.81ZM300.659 -15C300.659 -16.26 300.859 -17.34 301.259 -18.24C301.659 -19.14 302.319 -20.01 303.239 -20.85C304.219 -21.73 304.869 -22.44 305.189 -22.98C305.509 -23.54 305.669 -24.18 305.669 -24.9C305.669 -26.04 305.289 -26.92 304.529 -27.54C303.789 -28.18 302.759 -28.5 301.439 -28.5C299.739 -28.5 298.059 -27.89 296.399 -26.67V-28.17C297.199 -28.75 298.059 -29.2 298.979 -29.52C299.919 -29.84 300.859 -30 301.799 -30C303.499 -30 304.869 -29.54 305.909 -28.62C306.969 -27.72 307.499 -26.52 307.499 -25.02C307.499 -24.16 307.279 -23.37 306.839 -22.65C306.399 -21.93 305.559 -21.02 304.319 -19.92C303.519 -19.22 302.939 -18.5 302.579 -17.76C302.239 -17.02 302.059 -16.1 302.039 -15H300.659ZM301.349 -8.85C300.949 -8.85 300.619 -8.97 300.359 -9.21C300.099 -9.47 299.969 -9.81 299.969 -10.23C299.969 -10.65 300.099 -10.98 300.359 -11.22C300.619 -11.48 300.949 -11.61 301.349 -11.61C301.749 -11.61 302.079 -11.48 302.339 -11.22C302.599 -10.98 302.729 -10.65 302.729 -10.23C302.729 -9.81 302.599 -9.47 302.339 -9.21C302.079 -8.97 301.749 -8.85 301.349 -8.85ZM16.05 6H17.88V27H16.08L4.8 9.12V27H2.97V6H4.77L16.05 23.88V6ZM28.9894 27.45C26.8094 27.45 25.1594 26.78 24.0394 25.44C22.9394 24.08 22.3894 22.08 22.3894 19.44C22.3894 16.82 22.9394 14.84 24.0394 13.5C25.1594 12.14 26.8094 11.46 28.9894 11.46C31.1694 11.46 32.8094 12.14 33.9094 13.5C35.0294 14.84 35.5894 16.82 35.5894 19.44C35.5894 22.08 35.0294 24.08 33.9094 25.44C32.8094 26.78 31.1694 27.45 28.9894 27.45ZM28.9894 26.01C30.6294 26.01 31.8194 25.49 32.5594 24.45C33.3194 23.39 33.6994 21.72 33.6994 19.44C33.6994 17.18 33.3194 15.53 32.5594 14.49C31.8194 13.43 30.6294 12.9 28.9894 12.9C27.3494 12.9 26.1494 13.43 25.3894 14.49C24.6494 15.53 24.2794 17.18 24.2794 19.44C24.2794 21.72 24.6494 23.39 25.3894 24.45C26.1494 25.49 27.3494 26.01 28.9894 26.01ZM47.5591 27V13.29H45.2791V12L47.5591 11.91V8.52C47.5591 7.04 47.9191 5.91 48.6391 5.13C49.3791 4.33 50.4491 3.93 51.8491 3.93C52.6091 3.93 53.3791 4.07 54.1591 4.35V5.67C53.4391 5.45 52.7491 5.34 52.0891 5.34C51.1491 5.34 50.4591 5.59 50.0191 6.09C49.5791 6.57 49.3591 7.33 49.3591 8.37V11.91H53.4091V13.29H49.3591V27H47.5591ZM67.0755 26.46C65.6955 27.12 64.2155 27.45 62.6355 27.45C60.3355 27.45 58.5655 26.77 57.3255 25.41C56.0855 24.05 55.4655 22.1 55.4655 19.56C55.4655 17.04 56.0455 15.06 57.2055 13.62C58.3655 12.18 59.9555 11.46 61.9755 11.46C63.7555 11.46 65.1555 12.02 66.1755 13.14C67.2155 14.24 67.7355 15.75 67.7355 17.67C67.7355 18.39 67.6755 19.08 67.5555 19.74H57.2355C57.2555 23.92 59.1055 26.01 62.7855 26.01C64.2655 26.01 65.6955 25.69 67.0755 25.05V26.46ZM61.9455 12.87C60.5855 12.87 59.4755 13.37 58.6155 14.37C57.7555 15.37 57.2955 16.71 57.2355 18.39H65.9955C66.0355 18.07 66.0555 17.79 66.0555 17.55C66.0555 16.07 65.6955 14.92 64.9755 14.1C64.2555 13.28 63.2455 12.87 61.9455 12.87ZM82.3685 26.46C80.9885 27.12 79.5085 27.45 77.9285 27.45C75.6285 27.45 73.8585 26.77 72.6185 25.41C71.3785 24.05 70.7585 22.1 70.7585 19.56C70.7585 17.04 71.3385 15.06 72.4985 13.62C73.6585 12.18 75.2485 11.46 77.2685 11.46C79.0485 11.46 80.4485 12.02 81.4685 13.14C82.5085 14.24 83.0285 15.75 83.0285 17.67C83.0285 18.39 82.9685 19.08 82.8485 19.74H72.5285C72.5485 23.92 74.3985 26.01 78.0785 26.01C79.5585 26.01 80.9885 25.69 82.3685 25.05V26.46ZM77.2385 12.87C75.8785 12.87 74.7685 13.37 73.9085 14.37C73.0485 15.37 72.5885 16.71 72.5285 18.39H81.2885C81.3285 18.07 81.3485 17.79 81.3485 17.55C81.3485 16.07 80.9885 14.92 80.2685 14.1C79.5485 13.28 78.5385 12.87 77.2385 12.87ZM85.8715 25.02C87.3715 25.68 88.9215 26.01 90.5215 26.01C93.2215 26.01 94.5715 24.96 94.5715 22.86C94.5715 22.18 94.3715 21.63 93.9715 21.21C93.5915 20.79 92.9515 20.44 92.0515 20.16L89.7715 19.44C88.4915 19.04 87.5615 18.54 86.9815 17.94C86.4015 17.32 86.1115 16.54 86.1115 15.6C86.1115 14.34 86.6015 13.34 87.5815 12.6C88.5815 11.84 89.9215 11.46 91.6015 11.46C93.0215 11.46 94.3715 11.73 95.6515 12.27V13.68C94.3115 13.16 92.9915 12.9 91.6915 12.9C90.5115 12.9 89.5815 13.14 88.9015 13.62C88.2415 14.08 87.9115 14.72 87.9115 15.54C87.9115 16.12 88.0915 16.59 88.4515 16.95C88.8315 17.29 89.5015 17.62 90.4615 17.94L92.8315 18.72C94.0515 19.12 94.9415 19.65 95.5015 20.31C96.0815 20.97 96.3715 21.81 96.3715 22.83C96.3715 24.31 95.8715 25.45 94.8715 26.25C93.8715 27.05 92.4615 27.45 90.6415 27.45C88.9615 27.45 87.4515 27.14 86.1115 26.52L85.8715 25.02ZM113.364 27.45C111.184 27.45 109.534 26.78 108.414 25.44C107.314 24.08 106.764 22.08 106.764 19.44C106.764 16.82 107.314 14.84 108.414 13.5C109.534 12.14 111.184 11.46 113.364 11.46C115.544 11.46 117.184 12.14 118.284 13.5C119.404 14.84 119.964 16.82 119.964 19.44C119.964 22.08 119.404 24.08 118.284 25.44C117.184 26.78 115.544 27.45 113.364 27.45ZM113.364 26.01C115.004 26.01 116.194 25.49 116.934 24.45C117.694 23.39 118.074 21.72 118.074 19.44C118.074 17.18 117.694 15.53 116.934 14.49C116.194 13.43 115.004 12.9 113.364 12.9C111.724 12.9 110.524 13.43 109.764 14.49C109.024 15.53 108.654 17.18 108.654 19.44C108.654 21.72 109.024 23.39 109.764 24.45C110.524 25.49 111.724 26.01 113.364 26.01ZM124.014 27V12L125.544 11.85L125.694 13.2C127.034 12.1 128.464 11.55 129.984 11.55C130.524 11.55 130.954 11.61 131.274 11.73V13.2C130.754 13.08 130.294 13.02 129.894 13.02C128.474 13.02 127.114 13.53 125.814 14.55V27H124.014ZM159.887 27V16.29C159.887 14.03 158.817 12.9 156.677 12.9C155.437 12.9 154.017 13.35 152.417 14.25C152.577 14.79 152.657 15.37 152.657 15.99V27H150.857V16.29C150.857 14.03 149.787 12.9 147.647 12.9C146.447 12.9 145.107 13.31 143.627 14.13V27H141.827V12L143.357 11.85L143.477 12.9C145.177 11.94 146.717 11.46 148.097 11.46C149.857 11.46 151.127 12.04 151.907 13.2C153.847 12.04 155.587 11.46 157.127 11.46C158.587 11.46 159.707 11.85 160.487 12.63C161.287 13.41 161.687 14.53 161.687 15.99V27H159.887ZM166.524 27V12.06L168.324 11.82V27H166.524ZM167.424 8.25C167.024 8.25 166.694 8.13 166.434 7.89C166.194 7.65 166.074 7.32 166.074 6.9C166.074 6.48 166.194 6.15 166.434 5.91C166.694 5.67 167.024 5.55 167.424 5.55C167.824 5.55 168.144 5.67 168.384 5.91C168.644 6.15 168.774 6.48 168.774 6.9C168.774 7.32 168.644 7.65 168.384 7.89C168.144 8.13 167.824 8.25 167.424 8.25ZM183.4 27V16.59C183.4 14.13 182.15 12.9 179.65 12.9C178.99 12.9 178.26 13.01 177.46 13.23C176.68 13.45 175.91 13.75 175.15 14.13V27H173.35V12L174.88 11.85L175 12.9C176.74 11.94 178.44 11.46 180.1 11.46C181.72 11.46 182.97 11.88 183.85 12.72C184.75 13.56 185.2 14.75 185.2 16.29V27H183.4ZM190.02 27V12.06L191.82 11.82V27H190.02ZM190.92 8.25C190.52 8.25 190.19 8.13 189.93 7.89C189.69 7.65 189.57 7.32 189.57 6.9C189.57 6.48 189.69 6.15 189.93 5.91C190.19 5.67 190.52 5.55 190.92 5.55C191.32 5.55 191.64 5.67 191.88 5.91C192.14 6.15 192.27 6.48 192.27 6.9C192.27 7.32 192.14 7.65 191.88 7.89C191.64 8.13 191.32 8.25 190.92 8.25ZM214.906 27V16.29C214.906 14.03 213.836 12.9 211.696 12.9C210.456 12.9 209.036 13.35 207.436 14.25C207.596 14.79 207.676 15.37 207.676 15.99V27H205.876V16.29C205.876 14.03 204.806 12.9 202.666 12.9C201.466 12.9 200.126 13.31 198.646 14.13V27H196.846V12L198.376 11.85L198.496 12.9C200.196 11.94 201.736 11.46 203.116 11.46C204.876 11.46 206.146 12.04 206.926 13.2C208.866 12.04 210.606 11.46 212.146 11.46C213.606 11.46 214.726 11.85 215.506 12.63C216.306 13.41 216.706 14.53 216.706 15.99V27H214.906ZM223.133 11.91V22.32C223.133 24.78 224.343 26.01 226.763 26.01C227.423 26.01 228.143 25.9 228.923 25.68C229.723 25.46 230.503 25.16 231.263 24.78V11.91H233.063V26.91L231.533 27.06L231.413 26.01C229.673 26.97 227.973 27.45 226.313 27.45C224.733 27.45 223.503 27.03 222.623 26.19C221.763 25.33 221.333 24.14 221.333 22.62V11.91H223.133ZM256.156 27V16.29C256.156 14.03 255.086 12.9 252.946 12.9C251.706 12.9 250.286 13.35 248.686 14.25C248.846 14.79 248.926 15.37 248.926 15.99V27H247.126V16.29C247.126 14.03 246.056 12.9 243.916 12.9C242.716 12.9 241.376 13.31 239.896 14.13V27H238.096V12L239.626 11.85L239.746 12.9C241.446 11.94 242.986 11.46 244.366 11.46C246.126 11.46 247.396 12.04 248.176 13.2C250.116 12.04 251.856 11.46 253.396 11.46C254.856 11.46 255.976 11.85 256.756 12.63C257.556 13.41 257.956 14.53 257.956 15.99V27H256.156ZM261.623 25.02C263.123 25.68 264.673 26.01 266.273 26.01C268.973 26.01 270.323 24.96 270.323 22.86C270.323 22.18 270.123 21.63 269.723 21.21C269.343 20.79 268.703 20.44 267.803 20.16L265.523 19.44C264.243 19.04 263.313 18.54 262.733 17.94C262.153 17.32 261.863 16.54 261.863 15.6C261.863 14.34 262.353 13.34 263.333 12.6C264.333 11.84 265.673 11.46 267.353 11.46C268.773 11.46 270.123 11.73 271.403 12.27V13.68C270.063 13.16 268.743 12.9 267.443 12.9C266.263 12.9 265.333 13.14 264.653 13.62C263.993 14.08 263.663 14.72 263.663 15.54C263.663 16.12 263.843 16.59 264.203 16.95C264.583 17.29 265.253 17.62 266.213 17.94L268.583 18.72C269.803 19.12 270.693 19.65 271.253 20.31C271.833 20.97 272.123 21.81 272.123 22.83C272.123 24.31 271.623 25.45 270.623 26.25C269.623 27.05 268.213 27.45 266.393 27.45C264.713 27.45 263.203 27.14 261.863 26.52L261.623 25.02ZM289.116 27.45C286.936 27.45 285.286 26.78 284.166 25.44C283.066 24.08 282.516 22.08 282.516 19.44C282.516 16.82 283.066 14.84 284.166 13.5C285.286 12.14 286.936 11.46 289.116 11.46C291.296 11.46 292.936 12.14 294.036 13.5C295.156 14.84 295.716 16.82 295.716 19.44C295.716 22.08 295.156 24.08 294.036 25.44C292.936 26.78 291.296 27.45 289.116 27.45ZM289.116 26.01C290.756 26.01 291.946 25.49 292.686 24.45C293.446 23.39 293.826 21.72 293.826 19.44C293.826 17.18 293.446 15.53 292.686 14.49C291.946 13.43 290.756 12.9 289.116 12.9C287.476 12.9 286.276 13.43 285.516 14.49C284.776 15.53 284.406 17.18 284.406 19.44C284.406 21.72 284.776 23.39 285.516 24.45C286.276 25.49 287.476 26.01 289.116 26.01ZM309.816 27V16.59C309.816 14.13 308.566 12.9 306.066 12.9C305.406 12.9 304.676 13.01 303.876 13.23C303.096 13.45 302.326 13.75 301.566 14.13V27H299.766V12L301.296 11.85L301.416 12.9C303.156 11.94 304.856 11.46 306.516 11.46C308.136 11.46 309.386 11.88 310.266 12.72C311.166 13.56 311.616 14.75 311.616 16.29V27H309.816ZM12.48 62.46C11.16 63.12 9.72 63.45 8.16 63.45C6.04 63.45 4.4 62.76 3.24 61.38C2.1 60 1.53 58.03 1.53 55.47C1.53 52.91 2.1 50.94 3.24 49.56C4.4 48.16 6.04 47.46 8.16 47.46C9.66 47.46 11.08 47.79 12.42 48.45V49.86C11.02 49.24 9.66 48.93 8.34 48.93C6.72 48.93 5.49 49.48 4.65 50.58C3.83 51.68 3.42 53.31 3.42 55.47C3.42 57.61 3.83 59.23 4.65 60.33C5.49 61.43 6.72 61.98 8.34 61.98C9.7 61.98 11.08 61.67 12.48 61.05V62.46ZM16.3481 63V40.47L18.1481 40.23V48.84C19.8281 47.92 21.4781 47.46 23.0981 47.46C24.7181 47.46 25.9681 47.88 26.8481 48.72C27.7481 49.56 28.1981 50.75 28.1981 52.29V63H26.3981V52.59C26.3981 50.13 25.1481 48.9 22.6481 48.9C21.9881 48.9 21.2581 49.01 20.4581 49.23C19.6781 49.45 18.9081 49.75 18.1481 50.13V63H16.3481ZM43.638 62.46C42.258 63.12 40.778 63.45 39.198 63.45C36.898 63.45 35.128 62.77 33.888 61.41C32.648 60.05 32.028 58.1 32.028 55.56C32.028 53.04 32.608 51.06 33.768 49.62C34.928 48.18 36.518 47.46 38.538 47.46C40.318 47.46 41.718 48.02 42.738 49.14C43.778 50.24 44.298 51.75 44.298 53.67C44.298 54.39 44.238 55.08 44.118 55.74H33.798C33.818 59.92 35.668 62.01 39.348 62.01C40.828 62.01 42.258 61.69 43.638 61.05V62.46ZM38.508 48.87C37.148 48.87 36.038 49.37 35.178 50.37C34.318 51.37 33.858 52.71 33.798 54.39H42.558C42.598 54.07 42.618 53.79 42.618 53.55C42.618 52.07 42.258 50.92 41.538 50.1C40.818 49.28 39.808 48.87 38.508 48.87ZM58.271 62.46C56.951 63.12 55.511 63.45 53.951 63.45C51.831 63.45 50.191 62.76 49.031 61.38C47.891 60 47.321 58.03 47.321 55.47C47.321 52.91 47.891 50.94 49.031 49.56C50.191 48.16 51.831 47.46 53.951 47.46C55.451 47.46 56.871 47.79 58.211 48.45V49.86C56.811 49.24 55.451 48.93 54.131 48.93C52.511 48.93 51.281 49.48 50.441 50.58C49.621 51.68 49.211 53.31 49.211 55.47C49.211 57.61 49.621 59.23 50.441 60.33C51.281 61.43 52.511 61.98 54.131 61.98C55.491 61.98 56.871 61.67 58.271 61.05V62.46ZM62.1391 63V40.47L63.9391 40.23V54.6L71.0191 47.91H73.1491L65.7391 54.93L73.3891 63H71.1091L63.9391 55.38V63H62.1391ZM75.938 63V48.06L77.738 47.82V63H75.938ZM76.838 44.25C76.438 44.25 76.108 44.13 75.848 43.89C75.608 43.65 75.488 43.32 75.488 42.9C75.488 42.48 75.608 42.15 75.848 41.91C76.108 41.67 76.438 41.55 76.838 41.55C77.238 41.55 77.558 41.67 77.798 41.91C78.058 42.15 78.188 42.48 78.188 42.9C78.188 43.32 78.058 43.65 77.798 43.89C77.558 44.13 77.238 44.25 76.838 44.25ZM92.8141 63V52.59C92.8141 50.13 91.5641 48.9 89.0641 48.9C88.4041 48.9 87.6741 49.01 86.8741 49.23C86.0941 49.45 85.3241 49.75 84.5641 50.13V63H82.7641V48L84.2941 47.85L84.4141 48.9C86.1541 47.94 87.8541 47.46 89.5141 47.46C91.1341 47.46 92.3841 47.88 93.2641 48.72C94.1641 49.56 94.6141 50.75 94.6141 52.29V63H92.8141ZM104.354 69.99C102.574 69.99 101.064 69.68 99.8241 69.06L99.5841 67.53C101.224 68.21 102.784 68.55 104.264 68.55C107.604 68.55 109.274 67 109.274 63.9V61.83C108.514 62.25 107.734 62.58 106.934 62.82C106.154 63.06 105.424 63.18 104.744 63.18C102.784 63.18 101.244 62.52 100.124 61.2C99.0041 59.88 98.4441 58.05 98.4441 55.71C98.4441 53.05 99.0741 51.01 100.334 49.59C101.614 48.17 103.454 47.46 105.854 47.46C107.674 47.46 109.414 47.78 111.074 48.42V63.75C111.074 65.75 110.494 67.29 109.334 68.37C108.174 69.45 106.514 69.99 104.354 69.99ZM104.984 61.74C105.644 61.74 106.354 61.63 107.114 61.41C107.874 61.19 108.594 60.89 109.274 60.51V49.38C108.234 49.06 107.144 48.9 106.004 48.9C104.084 48.9 102.654 49.46 101.714 50.58C100.794 51.68 100.334 53.38 100.334 55.68C100.334 57.66 100.724 59.17 101.504 60.21C102.304 61.23 103.464 61.74 104.984 61.74ZM132.844 63.06L132.724 62.01C131.004 62.97 129.304 63.45 127.624 63.45C126.084 63.45 124.864 63.05 123.964 62.25C123.064 61.43 122.614 60.31 122.614 58.89C122.614 57.39 123.114 56.25 124.114 55.47C125.134 54.67 126.624 54.27 128.584 54.27C129.764 54.27 131.104 54.41 132.604 54.69V52.65C132.604 50.15 131.194 48.9 128.374 48.9C127.634 48.9 126.824 49 125.944 49.2C125.064 49.4 124.254 49.66 123.514 49.98V48.57C124.234 48.23 125.054 47.96 125.974 47.76C126.914 47.56 127.804 47.46 128.644 47.46C130.524 47.46 131.944 47.91 132.904 48.81C133.884 49.69 134.374 50.97 134.374 52.65V62.91L132.844 63.06ZM128.044 62.01C128.764 62.01 129.524 61.9 130.324 61.68C131.124 61.46 131.884 61.16 132.604 60.78V55.98C131.344 55.74 130.104 55.62 128.884 55.62C127.344 55.62 126.224 55.88 125.524 56.4C124.824 56.92 124.474 57.74 124.474 58.86C124.474 60.96 125.664 62.01 128.044 62.01ZM149.15 62.46C147.83 63.12 146.39 63.45 144.83 63.45C142.71 63.45 141.07 62.76 139.91 61.38C138.77 60 138.2 58.03 138.2 55.47C138.2 52.91 138.77 50.94 139.91 49.56C141.07 48.16 142.71 47.46 144.83 47.46C146.33 47.46 147.75 47.79 149.09 48.45V49.86C147.69 49.24 146.33 48.93 145.01 48.93C143.39 48.93 142.16 49.48 141.32 50.58C140.5 51.68 140.09 53.31 140.09 55.47C140.09 57.61 140.5 59.23 141.32 60.33C142.16 61.43 143.39 61.98 145.01 61.98C146.37 61.98 147.75 61.67 149.15 61.05V62.46ZM162.685 62.46C161.365 63.12 159.925 63.45 158.365 63.45C156.245 63.45 154.605 62.76 153.445 61.38C152.305 60 151.735 58.03 151.735 55.47C151.735 52.91 152.305 50.94 153.445 49.56C154.605 48.16 156.245 47.46 158.365 47.46C159.865 47.46 161.285 47.79 162.625 48.45V49.86C161.225 49.24 159.865 48.93 158.545 48.93C156.925 48.93 155.695 49.48 154.855 50.58C154.035 51.68 153.625 53.31 153.625 55.47C153.625 57.61 154.035 59.23 154.855 60.33C155.695 61.43 156.925 61.98 158.545 61.98C159.905 61.98 161.285 61.67 162.685 61.05V62.46ZM171.87 63.45C169.69 63.45 168.04 62.78 166.92 61.44C165.82 60.08 165.27 58.08 165.27 55.44C165.27 52.82 165.82 50.84 166.92 49.5C168.04 48.14 169.69 47.46 171.87 47.46C174.05 47.46 175.69 48.14 176.79 49.5C177.91 50.84 178.47 52.82 178.47 55.44C178.47 58.08 177.91 60.08 176.79 61.44C175.69 62.78 174.05 63.45 171.87 63.45ZM171.87 62.01C173.51 62.01 174.7 61.49 175.44 60.45C176.2 59.39 176.58 57.72 176.58 55.44C176.58 53.18 176.2 51.53 175.44 50.49C174.7 49.43 173.51 48.9 171.87 48.9C170.23 48.9 169.03 49.43 168.27 50.49C167.53 51.53 167.16 53.18 167.16 55.44C167.16 57.72 167.53 59.39 168.27 60.45C169.03 61.49 170.23 62.01 171.87 62.01ZM184.11 47.91V58.32C184.11 60.78 185.32 62.01 187.74 62.01C188.4 62.01 189.12 61.9 189.9 61.68C190.7 61.46 191.48 61.16 192.24 60.78V47.91H194.04V62.91L192.51 63.06L192.39 62.01C190.65 62.97 188.95 63.45 187.29 63.45C185.71 63.45 184.48 63.03 183.6 62.19C182.74 61.33 182.31 60.14 182.31 58.62V47.91H184.11ZM209.123 63V52.59C209.123 50.13 207.873 48.9 205.373 48.9C204.713 48.9 203.983 49.01 203.183 49.23C202.403 49.45 201.633 49.75 200.873 50.13V63H199.073V48L200.603 47.85L200.723 48.9C202.463 47.94 204.163 47.46 205.823 47.46C207.443 47.46 208.693 47.88 209.573 48.72C210.473 49.56 210.923 50.75 210.923 52.29V63H209.123ZM217.963 49.29V58.89C217.963 59.93 218.183 60.7 218.623 61.2C219.063 61.68 219.743 61.92 220.663 61.92C221.263 61.92 221.943 61.81 222.703 61.59V62.91C221.863 63.19 221.093 63.33 220.393 63.33C219.013 63.33 217.963 62.96 217.243 62.22C216.523 61.46 216.163 60.34 216.163 58.86V49.29H213.883V48L216.223 47.91L216.403 44.13L217.963 43.95V47.91H222.493V49.29H217.963ZM224.651 61.02C226.151 61.68 227.701 62.01 229.301 62.01C232.001 62.01 233.351 60.96 233.351 58.86C233.351 58.18 233.151 57.63 232.751 57.21C232.371 56.79 231.731 56.44 230.831 56.16L228.551 55.44C227.271 55.04 226.341 54.54 225.761 53.94C225.181 53.32 224.891 52.54 224.891 51.6C224.891 50.34 225.381 49.34 226.361 48.6C227.361 47.84 228.701 47.46 230.381 47.46C231.801 47.46 233.151 47.73 234.431 48.27V49.68C233.091 49.16 231.771 48.9 230.471 48.9C229.291 48.9 228.361 49.14 227.681 49.62C227.021 50.08 226.691 50.72 226.691 51.54C226.691 52.12 226.871 52.59 227.231 52.95C227.611 53.29 228.281 53.62 229.241 53.94L231.611 54.72C232.831 55.12 233.721 55.65 234.281 56.31C234.861 56.97 235.151 57.81 235.151 58.83C235.151 60.31 234.651 61.45 233.651 62.25C232.651 63.05 231.241 63.45 229.421 63.45C227.741 63.45 226.231 63.14 224.891 62.52L224.651 61.02ZM239.604 63.15C239.204 63.15 238.874 63.03 238.614 62.79C238.354 62.53 238.224 62.19 238.224 61.77C238.224 61.35 238.354 61.02 238.614 60.78C238.874 60.52 239.204 60.39 239.604 60.39C240.004 60.39 240.334 60.52 240.594 60.78C240.854 61.02 240.984 61.35 240.984 61.77C240.984 62.19 240.854 62.53 240.594 62.79C240.334 63.03 240.004 63.15 239.604 63.15Z" fill="#013D5B"/>
</g>
<defs>
<clipPath id="clip0_11097_3615">
<rect width="316" height="33" fill="white"/>
</clipPath>
</defs>
</svg>
