<svg width="246" height="31" viewBox="0 0 246 31" fill="none" xmlns="http://www.w3.org/2000/svg">
<path d="M244.447 23.5336C244.037 23.5336 243.698 23.4104 243.431 23.164C243.164 22.897 243.03 22.5479 243.03 22.1167C243.03 21.6854 243.164 21.3466 243.431 21.1001C243.698 20.8332 244.037 20.6997 244.447 20.6997C244.858 20.6997 245.197 20.8332 245.464 21.1001C245.731 21.3466 245.864 21.6854 245.864 22.1167C245.864 22.5479 245.731 22.897 245.464 23.164C245.197 23.4104 244.858 23.5336 244.447 23.5336Z" fill="#013D5B"/>
<path d="M229.094 21.3466C230.634 22.0242 232.226 22.3631 233.868 22.3631C236.641 22.3631 238.027 21.2849 238.027 19.1287C238.027 18.4305 237.822 17.8658 237.411 17.4346C237.021 17.0033 236.364 16.6439 235.439 16.3564L233.098 15.6172C231.784 15.2065 230.829 14.6931 230.234 14.077C229.638 13.4404 229.34 12.6395 229.34 11.6744C229.34 10.3806 229.844 9.35387 230.85 8.59406C231.877 7.81371 233.252 7.42352 234.977 7.42352C236.435 7.42352 237.822 7.70076 239.136 8.25522V9.70296C237.76 9.16904 236.405 8.90208 235.07 8.90208C233.858 8.90208 232.903 9.14851 232.205 9.64136C231.527 10.1137 231.189 10.7708 231.189 11.6128C231.189 12.2083 231.373 12.6909 231.743 13.0605C232.133 13.4096 232.821 13.7484 233.807 14.077L236.24 14.8779C237.493 15.2886 238.407 15.8328 238.982 16.5105C239.577 17.1881 239.875 18.0506 239.875 19.0979C239.875 20.6176 239.362 21.7881 238.335 22.6095C237.308 23.4309 235.86 23.8416 233.992 23.8416C232.267 23.8416 230.716 23.5233 229.34 22.8867L229.094 21.3466Z" fill="#013D5B"/>
<path d="M222.227 9.30254V19.1595C222.227 20.2274 222.453 21.018 222.904 21.5314C223.356 22.0242 224.054 22.2707 224.999 22.2707C225.615 22.2707 226.313 22.1577 227.094 21.9318V23.2872C226.231 23.5747 225.441 23.7184 224.722 23.7184C223.305 23.7184 222.227 23.3385 221.488 22.5787C220.748 21.7983 220.379 20.6484 220.379 19.1287V9.30254H218.038V7.978L220.44 7.88559L220.625 4.00439L222.227 3.81958V7.88559H226.878V9.30254H222.227Z" fill="#013D5B"/>
<path d="M213.15 23.3796V12.6909C213.15 10.165 211.867 8.90208 209.3 8.90208C208.622 8.90208 207.873 9.01503 207.051 9.24092C206.25 9.46681 205.46 9.77484 204.679 10.165V23.3796H202.831V7.97798L204.402 7.82397L204.525 8.90208C206.312 7.91638 208.058 7.42352 209.762 7.42352C211.425 7.42352 212.709 7.85478 213.612 8.71727C214.536 9.57976 214.999 10.8016 214.999 12.3828V23.3796H213.15Z" fill="#013D5B"/>
<path d="M187.468 7.88559V18.5743C187.468 21.1001 188.71 22.3631 191.195 22.3631C191.873 22.3631 192.612 22.2501 193.413 22.0242C194.234 21.7984 195.035 21.4903 195.815 21.1001V7.88559H197.664V23.2872L196.093 23.4412L195.969 22.3631C194.183 23.3488 192.437 23.8416 190.733 23.8416C189.111 23.8416 187.848 23.4104 186.944 22.5479C186.061 21.6649 185.62 20.443 185.62 18.8823V7.88559H187.468Z" fill="#013D5B"/>
<path d="M174.9 23.8416C172.662 23.8416 170.968 23.1537 169.818 21.7778C168.689 20.3814 168.124 18.3278 168.124 15.6172C168.124 12.927 168.689 10.894 169.818 9.51814C170.968 8.12173 172.662 7.42352 174.9 7.42352C177.139 7.42352 178.823 8.12173 179.952 9.51814C181.102 10.894 181.677 12.927 181.677 15.6172C181.677 18.3278 181.102 20.3814 179.952 21.7778C178.823 23.1537 177.139 23.8416 174.9 23.8416ZM174.9 22.3631C176.584 22.3631 177.806 21.8291 178.566 20.7613C179.346 19.6729 179.737 17.9582 179.737 15.6172C179.737 13.2967 179.346 11.6025 178.566 10.5347C177.806 9.44627 176.584 8.90208 174.9 8.90208C173.217 8.90208 171.984 9.44627 171.204 10.5347C170.444 11.6025 170.064 13.2967 170.064 15.6172C170.064 17.9582 170.444 19.6729 171.204 20.7613C171.984 21.8291 173.217 22.3631 174.9 22.3631Z" fill="#013D5B"/>
<path d="M165.469 22.8251C164.114 23.5028 162.636 23.8416 161.034 23.8416C158.857 23.8416 157.173 23.1331 155.982 21.7162C154.812 20.2992 154.226 18.2765 154.226 15.648C154.226 13.0194 154.812 10.9967 155.982 9.57976C157.173 8.14228 158.857 7.42352 161.034 7.42352C162.574 7.42352 164.032 7.76236 165.408 8.44003V9.88779C163.97 9.25119 162.574 8.93289 161.219 8.93289C159.555 8.93289 158.292 9.49761 157.43 10.6271C156.588 11.7565 156.167 13.4301 156.167 15.648C156.167 17.8453 156.588 19.5086 157.43 20.6381C158.292 21.7675 159.555 22.3323 161.219 22.3323C162.615 22.3323 164.032 22.0139 165.469 21.3773V22.8251Z" fill="#013D5B"/>
<path d="M151.572 22.8251C150.217 23.5028 148.738 23.8416 147.136 23.8416C144.96 23.8416 143.276 23.1331 142.085 21.7162C140.914 20.2992 140.329 18.2765 140.329 15.648C140.329 13.0194 140.914 10.9967 142.085 9.57976C143.276 8.14228 144.96 7.42352 147.136 7.42352C148.677 7.42352 150.135 7.76236 151.51 8.44003V9.88779C150.073 9.25119 148.677 8.93289 147.321 8.93289C145.658 8.93289 144.395 9.49761 143.532 10.6271C142.69 11.7565 142.269 13.4301 142.269 15.648C142.269 17.8453 142.69 19.5086 143.532 20.6381C144.395 21.7675 145.658 22.3323 147.321 22.3323C148.718 22.3323 150.135 22.0139 151.572 21.3773V22.8251Z" fill="#013D5B"/>
<path d="M134.83 23.4412L134.706 22.3631C132.94 23.3488 131.195 23.8416 129.47 23.8416C127.889 23.8416 126.636 23.4309 125.712 22.6095C124.788 21.7675 124.326 20.6175 124.326 19.1595C124.326 17.6194 124.839 16.4488 125.866 15.648C126.913 14.8265 128.443 14.4158 130.456 14.4158C131.667 14.4158 133.043 14.5596 134.583 14.8471V12.7525C134.583 10.1855 133.135 8.90208 130.24 8.90208C129.48 8.90208 128.648 9.00476 127.745 9.21011C126.841 9.41547 126.01 9.68243 125.25 10.011V8.56325C125.989 8.21415 126.831 7.93692 127.776 7.73157C128.741 7.52621 129.655 7.42352 130.517 7.42352C132.447 7.42352 133.905 7.88558 134.891 8.80968C135.897 9.71324 136.401 11.0275 136.401 12.7525V23.2872L134.83 23.4412ZM129.901 22.3631C130.64 22.3631 131.421 22.2501 132.242 22.0242C133.064 21.7983 133.844 21.4903 134.583 21.1001V16.1716C133.289 15.9252 132.016 15.802 130.764 15.802C129.182 15.802 128.032 16.069 127.314 16.6029C126.595 17.1368 126.235 17.9787 126.235 19.1287C126.235 21.2849 127.457 22.3631 129.901 22.3631Z" fill="#013D5B"/>
<path d="M105.577 30.5567C103.749 30.5567 102.199 30.2384 100.925 29.6018L100.679 28.0308C102.363 28.729 103.965 29.0781 105.484 29.0781C108.914 29.0781 110.628 27.4866 110.628 24.3036V22.1782C109.848 22.6095 109.047 22.9483 108.226 23.1947C107.425 23.4412 106.675 23.5644 105.977 23.5644C103.965 23.5644 102.384 22.8867 101.234 21.5314C100.084 20.176 99.5085 18.297 99.5085 15.8944C99.5085 13.1632 100.155 11.0686 101.449 9.61055C102.763 8.15253 104.653 7.42352 107.117 7.42352C108.986 7.42352 110.772 7.75209 112.477 8.40923V24.1496C112.477 26.2032 111.881 27.7844 110.69 28.8933C109.499 30.0022 107.795 30.5567 105.577 30.5567ZM106.224 22.0858C106.901 22.0858 107.63 21.9729 108.411 21.747C109.191 21.5211 109.93 21.2131 110.628 20.8229V9.39493C109.561 9.06636 108.441 8.90208 107.271 8.90208C105.3 8.90208 103.831 9.47708 102.866 10.6271C101.921 11.7565 101.449 13.502 101.449 15.8636C101.449 17.8966 101.85 19.447 102.65 20.5149C103.472 21.5622 104.663 22.0858 106.224 22.0858Z" fill="#013D5B"/>
<path d="M93.728 23.3796V12.6909C93.728 10.165 92.4445 8.90208 89.8776 8.90208C89.1999 8.90208 88.4504 9.01503 87.629 9.24092C86.8281 9.46681 86.0375 9.77484 85.2571 10.165V23.3796H83.4089V7.97798L84.9799 7.82397L85.1031 8.90208C86.8897 7.91638 88.6352 7.42352 90.3396 7.42352C92.003 7.42352 93.2865 7.85478 94.19 8.71727C95.1141 9.57976 95.5762 10.8016 95.5762 12.3828V23.3796H93.728Z" fill="#013D5B"/>
<path d="M76.4 23.3796V8.03963L78.2482 7.7932V23.3796H76.4ZM77.3241 4.12762C76.9134 4.12762 76.5746 4.00441 76.3076 3.75798C76.0612 3.51155 75.938 3.17273 75.938 2.74149C75.938 2.31024 76.0612 1.9714 76.3076 1.72498C76.5746 1.47855 76.9134 1.35535 77.3241 1.35535C77.7348 1.35535 78.0634 1.47855 78.3098 1.72498C78.5768 1.9714 78.7103 2.31024 78.7103 2.74149C78.7103 3.17273 78.5768 3.51155 78.3098 3.75798C78.0634 4.00441 77.7348 4.12762 77.3241 4.12762Z" fill="#013D5B"/>
<path d="M62.2317 23.3796V0.246429L64.0799 0V14.7547L71.3494 7.8856H73.5364L65.9281 15.0936L73.7829 23.3796H71.4418L64.0799 15.5556V23.3796H62.2317Z" fill="#013D5B"/>
<path d="M58.26 22.8251C56.9047 23.5028 55.4261 23.8416 53.8243 23.8416C51.6476 23.8416 49.9637 23.1331 48.7726 21.7162C47.6021 20.2992 47.0168 18.2765 47.0168 15.648C47.0168 13.0194 47.6021 10.9967 48.7726 9.57976C49.9637 8.14228 51.6476 7.42352 53.8243 7.42352C55.3645 7.42352 56.8225 7.76236 58.1984 8.44003V9.88779C56.7609 9.25119 55.3645 8.93289 54.0092 8.93289C52.3458 8.93289 51.0829 9.49761 50.2204 10.6271C49.3784 11.7565 48.9574 13.4301 48.9574 15.648C48.9574 17.8453 49.3784 19.5086 50.2204 20.6381C51.0829 21.7675 52.3458 22.3323 54.0092 22.3323C55.4056 22.3323 56.8225 22.0139 58.26 21.3773V22.8251Z" fill="#013D5B"/>
<path d="M43.2353 22.8251C41.8183 23.5028 40.2987 23.8416 38.6764 23.8416C36.3148 23.8416 34.4974 23.1434 33.2242 21.747C31.9511 20.3506 31.3145 18.3484 31.3145 15.7404C31.3145 13.1529 31.91 11.1199 33.101 9.64136C34.2921 8.16281 35.9247 7.42352 37.9987 7.42352C39.8264 7.42352 41.2639 7.99853 42.3112 9.14851C43.379 10.278 43.9129 11.8284 43.9129 13.7998C43.9129 14.5391 43.8513 15.2475 43.7281 15.9252H33.1318C33.1524 20.2171 35.0519 22.3631 38.8304 22.3631C40.35 22.3631 41.8183 22.0345 43.2353 21.3773V22.8251ZM37.9679 8.87128C36.5715 8.87128 35.4318 9.38467 34.5488 10.4114C33.6658 11.4382 33.1934 12.8141 33.1318 14.5391H42.1264C42.1674 14.2105 42.188 13.923 42.188 13.6766C42.188 12.157 41.8183 10.9762 41.0791 10.1342C40.3398 9.29225 39.3027 8.87128 37.9679 8.87128Z" fill="#013D5B"/>
<path d="M15.2148 23.3796V0.246429L17.063 0V8.8405C18.788 7.89587 20.4822 7.42355 22.1456 7.42355C23.8089 7.42355 25.0924 7.85481 25.9959 8.7173C26.92 9.57979 27.3821 10.8016 27.3821 12.3829V23.3796H25.5339V12.6909C25.5339 10.165 24.2504 8.90211 21.6835 8.90211C21.0058 8.90211 20.2563 9.01506 19.4349 9.24095C18.634 9.46684 17.8434 9.77487 17.063 10.165V23.3796H15.2148Z" fill="#013D5B"/>
<path d="M11.2431 22.8251C9.88781 23.5028 8.40926 23.8416 6.8075 23.8416C4.63074 23.8416 2.94683 23.1331 1.75578 21.7162C0.58526 20.2992 0 18.2765 0 15.648C0 13.0194 0.58526 10.9967 1.75578 9.57976C2.94683 8.14228 4.63074 7.42352 6.8075 7.42352C8.34765 7.42352 9.80567 7.76236 11.1815 8.44003V9.88779C9.74406 9.25119 8.34765 8.93289 6.99232 8.93289C5.32895 8.93289 4.06602 9.49761 3.20353 10.6271C2.36158 11.7565 1.9406 13.4301 1.9406 15.648C1.9406 17.8453 2.36158 19.5086 3.20353 20.6381C4.06602 21.7675 5.32895 22.3323 6.99232 22.3323C8.38872 22.3323 9.80567 22.0139 11.2431 21.3773V22.8251Z" fill="#013D5B"/>
</svg>
