<svg width="722" height="34" viewBox="0 0 722 34" fill="none" xmlns="http://www.w3.org/2000/svg">
<path d="M3.34382e-05 26.146V2.856C0.997367 2.652 2.0967 2.482 3.29803 2.346C4.52203 2.21 5.5647 2.142 6.42603 2.142C9.0327 2.142 11.0954 2.77667 12.614 4.046C14.1327 5.31534 14.892 7.038 14.892 9.214C14.892 10.9593 14.4047 12.41 13.43 13.566C12.478 14.722 11.1067 15.5153 9.31603 15.946L16.048 26.146H13.532L7.20803 16.286C7.0267 16.3087 6.83403 16.32 6.63003 16.32C6.4487 16.32 6.25603 16.32 6.05203 16.32H2.10803V26.146H3.34382e-05ZM6.18803 3.842C5.00937 3.842 3.64937 3.978 2.10803 4.25V14.62H6.01803C8.19403 14.62 9.8487 14.1667 10.982 13.26C12.138 12.3307 12.716 10.982 12.716 9.214C12.716 7.46867 12.1607 6.14267 11.05 5.236C9.93937 4.30667 8.3187 3.842 6.18803 3.842ZM29.6847 26.214L29.5487 25.024C27.5994 26.112 25.6727 26.656 23.7687 26.656C22.0234 26.656 20.6407 26.2027 19.6207 25.296C18.6007 24.3667 18.0907 23.0973 18.0907 21.488C18.0907 19.788 18.6574 18.496 19.7907 17.612C20.9467 16.7053 22.6354 16.252 24.8567 16.252C26.194 16.252 27.7127 16.4107 29.4127 16.728V14.416C29.4127 11.5827 27.8147 10.166 24.6187 10.166C23.78 10.166 22.862 10.2793 21.8647 10.506C20.8674 10.7327 19.9494 11.0273 19.1107 11.39V9.792C19.9267 9.40667 20.856 9.10067 21.8987 8.874C22.964 8.64734 23.9727 8.534 24.9247 8.534C27.0554 8.534 28.6647 9.044 29.7527 10.064C30.8634 11.0613 31.4187 12.512 31.4187 14.416V26.044L29.6847 26.214ZM24.2447 25.024C25.0607 25.024 25.922 24.8993 26.8287 24.65C27.7354 24.4007 28.5967 24.0607 29.4127 23.63V18.19C27.9847 17.918 26.5794 17.782 25.1967 17.782C23.4514 17.782 22.182 18.0767 21.3887 18.666C20.5954 19.2553 20.1987 20.1847 20.1987 21.454C20.1987 23.834 21.5474 25.024 24.2447 25.024ZM48.1648 25.534C46.6688 26.282 45.0368 26.656 43.2688 26.656C40.8661 26.656 39.0074 25.874 37.6928 24.31C36.4008 22.746 35.7548 20.5133 35.7548 17.612C35.7548 14.7107 36.4008 12.478 37.6928 10.914C39.0074 9.32734 40.8661 8.534 43.2688 8.534C44.9688 8.534 46.5781 8.908 48.0968 9.656V11.254C46.5101 10.5513 44.9688 10.2 43.4728 10.2C41.6368 10.2 40.2428 10.8233 39.2908 12.07C38.3614 13.3167 37.8968 15.164 37.8968 17.612C37.8968 20.0373 38.3614 21.8733 39.2908 23.12C40.2428 24.3667 41.6368 24.99 43.4728 24.99C45.0141 24.99 46.5781 24.6387 48.1648 23.936V25.534ZM52.5486 26.146V0.612002L54.5886 0.340002V16.626L62.6126 9.044H65.0266L56.6286 17L65.2986 26.146H62.7146L54.5886 17.51V26.146H52.5486ZM78.4893 9.044V20.842C78.4893 23.63 79.8606 25.024 82.6033 25.024C83.3513 25.024 84.1673 24.8993 85.0513 24.65C85.958 24.4007 86.842 24.0607 87.7033 23.63V9.044H89.7433V26.044L88.0093 26.214L87.8733 25.024C85.9013 26.112 83.9746 26.656 82.0933 26.656C80.3026 26.656 78.9086 26.18 77.9113 25.228C76.9366 24.2533 76.4493 22.9047 76.4493 21.182V9.044H78.4893ZM95.4471 33.728V9.146L97.1811 8.976L97.3171 10.166C99.2437 9.078 101.012 8.534 102.621 8.534C104.842 8.534 106.588 9.316 107.857 10.88C109.126 12.4213 109.761 14.5633 109.761 17.306C109.761 20.3207 109.036 22.6327 107.585 24.242C106.157 25.8513 104.083 26.656 101.363 26.656C99.9577 26.656 98.6657 26.4747 97.4871 26.112V33.456L95.4471 33.728ZM102.349 10.166C101.601 10.166 100.796 10.2907 99.9351 10.54C99.0737 10.7893 98.2577 11.1293 97.4871 11.56V24.48C98.6657 24.8427 99.9011 25.024 101.193 25.024C103.369 25.024 104.978 24.4007 106.021 23.154C107.086 21.8847 107.619 19.9467 107.619 17.34C107.619 15.0053 107.166 13.226 106.259 12.002C105.375 10.778 104.072 10.166 102.349 10.166ZM120.562 23.562C122.556 24.5367 124.608 25.024 126.716 25.024C128.62 25.024 130.138 24.5593 131.272 23.63C132.405 22.7007 132.972 21.4427 132.972 19.856C132.972 18.3147 132.439 17.0793 131.374 16.15C130.308 15.2207 128.869 14.756 127.056 14.756H125.05V13.124H126.988C128.62 13.124 129.912 12.716 130.864 11.9C131.816 11.084 132.292 9.98467 132.292 8.602C132.292 7.15134 131.804 6.018 130.83 5.202C129.855 4.386 128.506 3.978 126.784 3.978C124.97 3.978 123.191 4.352 121.446 5.1V3.468C123.078 2.72 124.914 2.346 126.954 2.346C129.152 2.346 130.943 2.924 132.326 4.08C133.731 5.21334 134.434 6.67534 134.434 8.466C134.434 9.78067 134.048 10.914 133.278 11.866C132.53 12.818 131.476 13.498 130.116 13.906C131.68 14.2913 132.904 15.028 133.788 16.116C134.672 17.1813 135.114 18.4507 135.114 19.924C135.114 21.2613 134.751 22.4513 134.026 23.494C133.323 24.514 132.348 25.296 131.102 25.84C129.878 26.384 128.484 26.656 126.92 26.656C125.832 26.656 124.744 26.5313 123.656 26.282C122.568 26.0553 121.638 25.738 120.868 25.33L120.562 23.562ZM145.416 26.146L157.724 2.856H159.56L147.252 26.146H145.416ZM143.784 16.252C144.985 16.252 145.869 15.7533 146.436 14.756C147.025 13.7587 147.32 12.1947 147.32 10.064C147.32 7.93334 147.025 6.36934 146.436 5.372C145.869 4.37467 144.985 3.876 143.784 3.876C142.582 3.876 141.687 4.37467 141.098 5.372C140.531 6.36934 140.248 7.93334 140.248 10.064C140.248 12.1947 140.531 13.7587 141.098 14.756C141.687 15.7533 142.582 16.252 143.784 16.252ZM143.784 17.612C142.038 17.612 140.701 16.9773 139.772 15.708C138.842 14.416 138.378 12.5347 138.378 10.064C138.378 7.59334 138.842 5.72334 139.772 4.454C140.701 3.162 142.038 2.516 143.784 2.516C145.529 2.516 146.866 3.162 147.796 4.454C148.725 5.72334 149.19 7.59334 149.19 10.064C149.19 12.5347 148.725 14.416 147.796 15.708C146.866 16.9773 145.529 17.612 143.784 17.612ZM161.192 25.126C162.393 25.126 163.277 24.6273 163.844 23.63C164.433 22.6327 164.728 21.0687 164.728 18.938C164.728 16.8073 164.433 15.2433 163.844 14.246C163.277 13.2487 162.393 12.75 161.192 12.75C159.99 12.75 159.095 13.2487 158.506 14.246C157.939 15.2433 157.656 16.8073 157.656 18.938C157.656 21.0687 157.939 22.6327 158.506 23.63C159.095 24.6273 159.99 25.126 161.192 25.126ZM161.192 26.486C159.446 26.486 158.109 25.8513 157.18 24.582C156.25 23.29 155.786 21.4087 155.786 18.938C155.786 16.4673 156.25 14.5973 157.18 13.328C158.109 12.036 159.446 11.39 161.192 11.39C162.937 11.39 164.274 12.036 165.204 13.328C166.133 14.5973 166.598 16.4673 166.598 18.938C166.598 21.4087 166.133 23.29 165.204 24.582C164.274 25.8513 162.937 26.486 161.192 26.486ZM190.639 25.534C189.143 26.282 187.511 26.656 185.743 26.656C183.341 26.656 181.482 25.874 180.167 24.31C178.875 22.746 178.229 20.5133 178.229 17.612C178.229 14.7107 178.875 12.478 180.167 10.914C181.482 9.32734 183.341 8.534 185.743 8.534C187.443 8.534 189.053 8.908 190.571 9.656V11.254C188.985 10.5513 187.443 10.2 185.947 10.2C184.111 10.2 182.717 10.8233 181.765 12.07C180.836 13.3167 180.371 15.164 180.371 17.612C180.371 20.0373 180.836 21.8733 181.765 23.12C182.717 24.3667 184.111 24.99 185.947 24.99C187.489 24.99 189.053 24.6387 190.639 23.936V25.534ZM205.495 26.214L205.359 25.024C203.41 26.112 201.483 26.656 199.579 26.656C197.834 26.656 196.451 26.2027 195.431 25.296C194.411 24.3667 193.901 23.0973 193.901 21.488C193.901 19.788 194.468 18.496 195.601 17.612C196.757 16.7053 198.446 16.252 200.667 16.252C202.005 16.252 203.523 16.4107 205.223 16.728V14.416C205.223 11.5827 203.625 10.166 200.429 10.166C199.591 10.166 198.673 10.2793 197.675 10.506C196.678 10.7327 195.76 11.0273 194.921 11.39V9.792C195.737 9.40667 196.667 9.10067 197.709 8.874C198.775 8.64734 199.783 8.534 200.735 8.534C202.866 8.534 204.475 9.044 205.563 10.064C206.674 11.0613 207.229 12.512 207.229 14.416V26.044L205.495 26.214ZM200.055 25.024C200.871 25.024 201.733 24.8993 202.639 24.65C203.546 24.4007 204.407 24.0607 205.223 23.63V18.19C203.795 17.918 202.39 17.782 201.007 17.782C199.262 17.782 197.993 18.0767 197.199 18.666C196.406 19.2553 196.009 20.1847 196.009 21.454C196.009 23.834 197.358 25.024 200.055 25.024ZM211.361 23.902C213.061 24.65 214.818 25.024 216.631 25.024C219.691 25.024 221.221 23.834 221.221 21.454C221.221 20.6833 220.995 20.06 220.541 19.584C220.111 19.108 219.385 18.7113 218.365 18.394L215.781 17.578C214.331 17.1247 213.277 16.558 212.619 15.878C211.962 15.1753 211.633 14.2913 211.633 13.226C211.633 11.798 212.189 10.6647 213.299 9.826C214.433 8.96467 215.951 8.534 217.855 8.534C219.465 8.534 220.995 8.84 222.445 9.452V11.05C220.927 10.4607 219.431 10.166 217.957 10.166C216.62 10.166 215.566 10.438 214.795 10.982C214.047 11.5033 213.673 12.2287 213.673 13.158C213.673 13.8153 213.877 14.348 214.285 14.756C214.716 15.1413 215.475 15.5153 216.563 15.878L219.249 16.762C220.632 17.2153 221.641 17.816 222.275 18.564C222.933 19.312 223.261 20.264 223.261 21.42C223.261 23.0973 222.695 24.3893 221.561 25.296C220.428 26.2027 218.83 26.656 216.767 26.656C214.863 26.656 213.152 26.3047 211.633 25.602L211.361 23.902ZM227.662 26.146V0.612002L229.702 0.340002V10.098C231.606 9.05534 233.476 8.534 235.312 8.534C237.148 8.534 238.565 9.01 239.562 9.962C240.582 10.914 241.092 12.2627 241.092 14.008V26.146H239.052V14.348C239.052 11.56 237.635 10.166 234.802 10.166C234.054 10.166 233.227 10.2907 232.32 10.54C231.436 10.7893 230.563 11.1293 229.702 11.56V26.146H227.662ZM257.094 10.064C257.956 9.588 258.828 9.214 259.712 8.942C260.619 8.67 261.458 8.534 262.228 8.534C264.45 8.534 266.195 9.316 267.464 10.88C268.734 12.4213 269.368 14.5633 269.368 17.306C269.368 20.3207 268.643 22.6327 267.192 24.242C265.764 25.8513 263.69 26.656 260.97 26.656C259.044 26.656 257.072 26.3387 255.054 25.704V0.612002L257.094 0.340002V10.064ZM261.956 10.166C261.208 10.166 260.404 10.2907 259.542 10.54C258.681 10.7893 257.865 11.1293 257.094 11.56V24.48C258.273 24.8427 259.508 25.024 260.8 25.024C262.976 25.024 264.586 24.4007 265.628 23.154C266.694 21.8847 267.226 19.9467 267.226 17.34C267.226 15.0053 266.773 13.226 265.866 12.002C264.982 10.778 263.679 10.166 261.956 10.166ZM284.419 26.214L284.283 25.024C282.334 26.112 280.407 26.656 278.503 26.656C276.758 26.656 275.375 26.2027 274.355 25.296C273.335 24.3667 272.825 23.0973 272.825 21.488C272.825 19.788 273.392 18.496 274.525 17.612C275.681 16.7053 277.37 16.252 279.591 16.252C280.928 16.252 282.447 16.4107 284.147 16.728V14.416C284.147 11.5827 282.549 10.166 279.353 10.166C278.514 10.166 277.596 10.2793 276.599 10.506C275.602 10.7327 274.684 11.0273 273.845 11.39V9.792C274.661 9.40667 275.59 9.10067 276.633 8.874C277.698 8.64734 278.707 8.534 279.659 8.534C281.79 8.534 283.399 9.044 284.487 10.064C285.598 11.0613 286.153 12.512 286.153 14.416V26.044L284.419 26.214ZM278.979 25.024C279.795 25.024 280.656 24.8993 281.563 24.65C282.47 24.4007 283.331 24.0607 284.147 23.63V18.19C282.719 17.918 281.314 17.782 279.931 17.782C278.186 17.782 276.916 18.0767 276.123 18.666C275.33 19.2553 274.933 20.1847 274.933 21.454C274.933 23.834 276.282 25.024 278.979 25.024ZM302.899 25.534C301.403 26.282 299.771 26.656 298.003 26.656C295.6 26.656 293.742 25.874 292.427 24.31C291.135 22.746 290.489 20.5133 290.489 17.612C290.489 14.7107 291.135 12.478 292.427 10.914C293.742 9.32734 295.6 8.534 298.003 8.534C299.703 8.534 301.312 8.908 302.831 9.656V11.254C301.244 10.5513 299.703 10.2 298.207 10.2C296.371 10.2 294.977 10.8233 294.025 12.07C293.096 13.3167 292.631 15.164 292.631 17.612C292.631 20.0373 293.096 21.8733 294.025 23.12C294.977 24.3667 296.371 24.99 298.207 24.99C299.748 24.99 301.312 24.6387 302.899 23.936V25.534ZM307.283 26.146V0.612002L309.323 0.340002V16.626L317.347 9.044H319.761L311.363 17L320.033 26.146H317.449L309.323 17.51V26.146H307.283ZM337.78 26.656C335.309 26.656 333.439 25.8967 332.17 24.378C330.923 22.8367 330.3 20.57 330.3 17.578C330.3 14.6087 330.923 12.3647 332.17 10.846C333.439 9.30467 335.309 8.534 337.78 8.534C340.25 8.534 342.109 9.30467 343.356 10.846C344.625 12.3647 345.26 14.6087 345.26 17.578C345.26 20.57 344.625 22.8367 343.356 24.378C342.109 25.8967 340.25 26.656 337.78 26.656ZM337.78 25.024C339.638 25.024 340.987 24.4347 341.826 23.256C342.687 22.0547 343.118 20.162 343.118 17.578C343.118 15.0167 342.687 13.1467 341.826 11.968C340.987 10.7667 339.638 10.166 337.78 10.166C335.921 10.166 334.561 10.7667 333.7 11.968C332.861 13.1467 332.442 15.0167 332.442 17.578C332.442 20.162 332.861 22.0547 333.7 23.256C334.561 24.4347 335.921 25.024 337.78 25.024ZM361.239 26.146V14.348C361.239 11.56 359.823 10.166 356.989 10.166C356.241 10.166 355.414 10.2907 354.507 10.54C353.623 10.7893 352.751 11.1293 351.889 11.56V26.146H349.849V9.146L351.583 8.976L351.719 10.166C353.691 9.078 355.618 8.534 357.499 8.534C359.335 8.534 360.752 9.01 361.749 9.962C362.769 10.914 363.279 12.2627 363.279 14.008V26.146H361.239ZM377.718 26.146V10.608H375.134V9.146L377.718 9.044V5.202C377.718 3.52467 378.126 2.244 378.942 1.36C379.781 0.453335 380.993 1.90735e-06 382.58 1.90735e-06C383.441 1.90735e-06 384.314 0.158669 385.198 0.476002V1.972C384.382 1.72267 383.6 1.598 382.852 1.598C381.787 1.598 381.005 1.88134 380.506 2.448C380.007 2.992 379.758 3.85334 379.758 5.032V9.044H384.348V10.608H379.758V26.146H377.718ZM394.159 26.656C391.688 26.656 389.818 25.8967 388.549 24.378C387.302 22.8367 386.679 20.57 386.679 17.578C386.679 14.6087 387.302 12.3647 388.549 10.846C389.818 9.30467 391.688 8.534 394.159 8.534C396.629 8.534 398.488 9.30467 399.735 10.846C401.004 12.3647 401.639 14.6087 401.639 17.578C401.639 20.57 401.004 22.8367 399.735 24.378C398.488 25.8967 396.629 26.656 394.159 26.656ZM394.159 25.024C396.017 25.024 397.366 24.4347 398.205 23.256C399.066 22.0547 399.497 20.162 399.497 17.578C399.497 15.0167 399.066 13.1467 398.205 11.968C397.366 10.7667 396.017 10.166 394.159 10.166C392.3 10.166 390.94 10.7667 390.079 11.968C389.24 13.1467 388.821 15.0167 388.821 17.578C388.821 20.162 389.24 22.0547 390.079 23.256C390.94 24.4347 392.3 25.024 394.159 25.024ZM412.586 26.656C410.116 26.656 408.246 25.8967 406.976 24.378C405.73 22.8367 405.106 20.57 405.106 17.578C405.106 14.6087 405.73 12.3647 406.976 10.846C408.246 9.30467 410.116 8.534 412.586 8.534C415.057 8.534 416.916 9.30467 418.162 10.846C419.432 12.3647 420.066 14.6087 420.066 17.578C420.066 20.57 419.432 22.8367 418.162 24.378C416.916 25.8967 415.057 26.656 412.586 26.656ZM412.586 25.024C414.445 25.024 415.794 24.4347 416.632 23.256C417.494 22.0547 417.924 20.162 417.924 17.578C417.924 15.0167 417.494 13.1467 416.632 11.968C415.794 10.7667 414.445 10.166 412.586 10.166C410.728 10.166 409.368 10.7667 408.506 11.968C407.668 13.1467 407.248 15.0167 407.248 17.578C407.248 20.162 407.668 22.0547 408.506 23.256C409.368 24.4347 410.728 25.024 412.586 25.024ZM437.848 0.340002V26.044L436.114 26.214L435.978 25.024C434.051 26.112 432.283 26.656 430.674 26.656C428.453 26.656 426.707 25.8853 425.438 24.344C424.169 22.78 423.534 20.6267 423.534 17.884C423.534 14.8693 424.248 12.5573 425.676 10.948C427.127 9.33867 429.212 8.534 431.932 8.534C433.337 8.534 434.629 8.71534 435.808 9.078V0.612002L437.848 0.340002ZM430.946 25.024C431.694 25.024 432.499 24.8993 433.36 24.65C434.221 24.4007 435.037 24.0607 435.808 23.63V10.71C434.629 10.3473 433.394 10.166 432.102 10.166C429.926 10.166 428.305 10.8007 427.24 12.07C426.197 13.3167 425.676 15.2433 425.676 17.85C425.676 20.1847 426.118 21.964 427.002 23.188C427.909 24.412 429.223 25.024 430.946 25.024ZM462.521 26.214L462.385 25.024C460.435 26.112 458.509 26.656 456.605 26.656C454.859 26.656 453.477 26.2027 452.457 25.296C451.437 24.3667 450.927 23.0973 450.927 21.488C450.927 19.788 451.493 18.496 452.627 17.612C453.783 16.7053 455.471 16.252 457.693 16.252C459.03 16.252 460.549 16.4107 462.249 16.728V14.416C462.249 11.5827 460.651 10.166 457.455 10.166C456.616 10.166 455.698 10.2793 454.701 10.506C453.703 10.7327 452.785 11.0273 451.947 11.39V9.792C452.763 9.40667 453.692 9.10067 454.735 8.874C455.8 8.64734 456.809 8.534 457.761 8.534C459.891 8.534 461.501 9.044 462.589 10.064C463.699 11.0613 464.255 12.512 464.255 14.416V26.044L462.521 26.214ZM457.081 25.024C457.897 25.024 458.758 24.8993 459.665 24.65C460.571 24.4007 461.433 24.0607 462.249 23.63V18.19C460.821 17.918 459.415 17.782 458.033 17.782C456.287 17.782 455.018 18.0767 454.225 18.666C453.431 19.2553 453.035 20.1847 453.035 21.454C453.035 23.834 454.383 25.024 457.081 25.024ZM481.103 26.146V14.348C481.103 11.56 479.686 10.166 476.853 10.166C476.105 10.166 475.277 10.2907 474.371 10.54C473.487 10.7893 472.614 11.1293 471.753 11.56V26.146H469.713V9.146L471.447 8.976L471.583 10.166C473.555 9.078 475.481 8.534 477.363 8.534C479.199 8.534 480.615 9.01 481.613 9.962C482.633 10.914 483.143 12.2627 483.143 14.008V26.146H481.103ZM501.797 0.340002V26.044L500.063 26.214L499.927 25.024C498.001 26.112 496.233 26.656 494.623 26.656C492.402 26.656 490.657 25.8853 489.387 24.344C488.118 22.78 487.483 20.6267 487.483 17.884C487.483 14.8693 488.197 12.5573 489.625 10.948C491.076 9.33867 493.161 8.534 495.881 8.534C497.287 8.534 498.579 8.71534 499.757 9.078V0.612002L501.797 0.340002ZM494.895 25.024C495.643 25.024 496.448 24.8993 497.309 24.65C498.171 24.4007 498.987 24.0607 499.757 23.63V10.71C498.579 10.3473 497.343 10.166 496.051 10.166C493.875 10.166 492.255 10.8007 491.189 12.07C490.147 13.3167 489.625 15.2433 489.625 17.85C489.625 20.1847 490.067 21.964 490.951 23.188C491.858 24.412 493.173 25.024 494.895 25.024ZM516.474 26.146V10.608H513.89V9.146L516.474 9.044V5.202C516.474 3.52467 516.882 2.244 517.698 1.36C518.537 0.453335 519.749 1.90735e-06 521.336 1.90735e-06C522.197 1.90735e-06 523.07 0.158669 523.954 0.476002V1.972C523.138 1.72267 522.356 1.598 521.608 1.598C520.543 1.598 519.761 1.88134 519.262 2.448C518.763 2.992 518.514 3.85334 518.514 5.032V9.044H523.104V10.608H518.514V26.146H516.474ZM528.69 9.044V20.842C528.69 23.63 530.062 25.024 532.804 25.024C533.552 25.024 534.368 24.8993 535.252 24.65C536.159 24.4007 537.043 24.0607 537.904 23.63V9.044H539.944V26.044L538.21 26.214L538.074 25.024C536.102 26.112 534.176 26.656 532.294 26.656C530.504 26.656 529.11 26.18 528.112 25.228C527.138 24.2533 526.65 22.9047 526.65 21.182V9.044H528.69ZM557.038 26.146V14.348C557.038 11.56 555.622 10.166 552.788 10.166C552.04 10.166 551.213 10.2907 550.306 10.54C549.422 10.7893 548.55 11.1293 547.688 11.56V26.146H545.648V9.146L547.382 8.976L547.518 10.166C549.49 9.078 551.417 8.534 553.298 8.534C555.134 8.534 556.551 9.01 557.548 9.962C558.568 10.914 559.078 12.2627 559.078 14.008V26.146H557.038ZM586.981 26.146L582.391 11.322L577.937 26.146H575.999L570.559 9.044H572.633L576.985 23.63L581.269 9.044H583.547L587.899 23.732L592.217 9.044H594.189L588.919 26.146H586.981ZM597.412 26.146V9.214L599.452 8.942V26.146H597.412ZM598.432 4.896C597.979 4.896 597.605 4.76 597.31 4.488C597.038 4.216 596.902 3.842 596.902 3.366C596.902 2.89 597.038 2.516 597.31 2.244C597.605 1.972 597.979 1.836 598.432 1.836C598.885 1.836 599.248 1.972 599.52 2.244C599.815 2.516 599.962 2.89 599.962 3.366C599.962 3.842 599.815 4.216 599.52 4.488C599.248 4.76 598.885 4.896 598.432 4.896ZM607.664 10.608V21.488C607.664 22.6667 607.914 23.5393 608.412 24.106C608.911 24.65 609.682 24.922 610.724 24.922C611.404 24.922 612.175 24.7973 613.036 24.548V26.044C612.084 26.3613 611.212 26.52 610.418 26.52C608.854 26.52 607.664 26.1007 606.848 25.262C606.032 24.4007 605.624 23.1313 605.624 21.454V10.608H603.04V9.146L605.692 9.044L605.896 4.76L607.664 4.556V9.044H612.798V10.608H607.664ZM616.57 26.146V0.612002L618.61 0.340002V10.098C620.514 9.05534 622.384 8.534 624.22 8.534C626.056 8.534 627.473 9.01 628.47 9.962C629.49 10.914 630 12.2627 630 14.008V26.146H627.96V14.348C627.96 11.56 626.543 10.166 623.71 10.166C622.962 10.166 622.135 10.2907 621.228 10.54C620.344 10.7893 619.471 11.1293 618.61 11.56V26.146H616.57ZM642.603 23.358C644.983 24.4007 647.238 24.922 649.369 24.922C651.386 24.922 652.939 24.48 654.027 23.596C655.137 22.6893 655.693 21.3973 655.693 19.72C655.693 18.4507 655.33 17.4307 654.605 16.66C653.879 15.8893 652.667 15.2433 650.967 14.722L648.553 13.974C646.694 13.4073 645.334 12.6707 644.473 11.764C643.611 10.8347 643.181 9.656 643.181 8.228C643.181 6.30134 643.906 4.76 645.357 3.604C646.83 2.42534 648.791 1.836 651.239 1.836C653.211 1.836 655.115 2.25534 656.951 3.094V4.794C655.001 3.978 653.12 3.57 651.307 3.57C649.448 3.57 647.997 3.978 646.955 4.794C645.912 5.58734 645.391 6.70934 645.391 8.16C645.391 9.18 645.685 9.98467 646.275 10.574C646.864 11.1633 647.895 11.696 649.369 12.172L651.783 12.954C653.959 13.6567 655.523 14.5407 656.475 15.606C657.427 16.6487 657.903 18.0087 657.903 19.686C657.903 21.8393 657.143 23.5393 655.625 24.786C654.129 26.0327 652.077 26.656 649.471 26.656C647.068 26.656 644.892 26.1687 642.943 25.194L642.603 23.358ZM672.73 26.214L672.594 25.024C670.644 26.112 668.718 26.656 666.814 26.656C665.068 26.656 663.686 26.2027 662.666 25.296C661.646 24.3667 661.136 23.0973 661.136 21.488C661.136 19.788 661.702 18.496 662.836 17.612C663.992 16.7053 665.68 16.252 667.902 16.252C669.239 16.252 670.758 16.4107 672.458 16.728V14.416C672.458 11.5827 670.86 10.166 667.664 10.166C666.825 10.166 665.907 10.2793 664.91 10.506C663.912 10.7327 662.994 11.0273 662.156 11.39V9.792C662.972 9.40667 663.901 9.10067 664.944 8.874C666.009 8.64734 667.018 8.534 667.97 8.534C670.1 8.534 671.71 9.044 672.798 10.064C673.908 11.0613 674.464 12.512 674.464 14.416V26.044L672.73 26.214ZM667.29 25.024C668.106 25.024 668.967 24.8993 669.874 24.65C670.78 24.4007 671.642 24.0607 672.458 23.63V18.19C671.03 17.918 669.624 17.782 668.242 17.782C666.496 17.782 665.227 18.0767 664.434 18.666C663.64 19.2553 663.244 20.1847 663.244 21.454C663.244 23.834 664.592 25.024 667.29 25.024ZM683.798 26.146L677.338 9.044H679.48L684.818 23.97L690.326 9.044H692.366L685.77 26.146H683.798ZM701.52 26.656C699.049 26.656 697.179 25.8967 695.91 24.378C694.663 22.8367 694.04 20.57 694.04 17.578C694.04 14.6087 694.663 12.3647 695.91 10.846C697.179 9.30467 699.049 8.534 701.52 8.534C703.991 8.534 705.849 9.30467 707.096 10.846C708.365 12.3647 709 14.6087 709 17.578C709 20.57 708.365 22.8367 707.096 24.378C705.849 25.8967 703.991 26.656 701.52 26.656ZM701.52 25.024C703.379 25.024 704.727 24.4347 705.566 23.256C706.427 22.0547 706.858 20.162 706.858 17.578C706.858 15.0167 706.427 13.1467 705.566 11.968C704.727 10.7667 703.379 10.166 701.52 10.166C699.661 10.166 698.301 10.7667 697.44 11.968C696.601 13.1467 696.182 15.0167 696.182 17.578C696.182 20.162 696.601 22.0547 697.44 23.256C698.301 24.4347 699.661 25.024 701.52 25.024ZM713.59 26.146V9.146L715.324 8.976L715.494 10.506C717.012 9.25934 718.633 8.636 720.356 8.636C720.968 8.636 721.455 8.704 721.818 8.84V10.506C721.228 10.37 720.707 10.302 720.254 10.302C718.644 10.302 717.103 10.88 715.63 12.036V26.146H713.59Z" fill="#013D5B"/>
</svg>
