<svg width="124" height="60" viewBox="0 0 124 60" fill="none" xmlns="http://www.w3.org/2000/svg">
<path d="M97.2845 24.2402C97.0106 24.2402 96.7864 24.0161 96.7864 23.7422C96.7864 23.4683 97.0106 23.2441 97.2845 23.2441C97.5584 23.2441 97.7825 23.4683 97.7825 23.7422C97.7825 24.0161 97.5584 24.2402 97.2845 24.2402Z" fill="#00AEEF"/>
<path d="M87.9809 8.29258L87.692 9.88635H40.7108C39.7196 9.40822 38.6189 9.15919 37.5182 9.15919C35.546 9.15919 33.6932 9.92619 32.2937 11.3257C32.1293 11.4901 31.965 11.6694 31.8155 11.8487C31.5117 12.2122 31.2478 12.6107 31.0187 13.0241C30.9041 13.2333 30.7995 13.4524 30.7049 13.6715C30.3214 14.583 30.1222 15.5492 30.1222 16.5453C30.1222 17.5414 30.3164 18.5076 30.7049 19.4191C30.7447 19.5187 31.6363 21.725 32.5178 23.9065H27.7863L24.8777 40.1828H37.3489L37.6378 38.5941H92.2492L97.4638 33.4591L99.0825 23.8617L97.917 22.6464L100.442 8.2876H87.9759L87.9809 8.29258Z" fill="#C7CFDA"/>
<path d="M88.5636 8.99487L88.2747 10.5886H40.5464C39.6101 10.1105 38.5691 9.86148 37.5182 9.86148C35.7352 9.86148 34.0568 10.5588 32.7917 11.8238C32.6423 11.9732 32.4979 12.1326 32.3584 12.297C32.0845 12.6257 31.8405 12.9893 31.6363 13.3628C31.5317 13.552 31.437 13.7513 31.3524 13.9455C31.0037 14.7723 30.8244 15.6488 30.8244 16.5503C30.8244 17.4518 31.0037 18.3284 31.3524 19.1502C31.4022 19.2647 32.6822 22.4473 33.5538 24.6138H28.374L25.7144 39.4906H36.7662L37.0252 38.0313H91.8707L96.8263 33.0757L98.3354 24.1008L97.1699 22.8855L99.6104 8.99487H88.5636Z" fill="black"/>
<path d="M90.1026 34.2759L88.4391 35.9742H90.4114H91.1435L92.797 34.2759H90.5259H90.1026Z" fill="#7C8A97"/>
<path d="M74.3791 34.2759H73.6121L71.9088 35.9742H72.3221H73.7615L75.4499 34.2759H74.3791Z" fill="#7C8A97"/>
<path d="M50.1787 34.2759H49.4167L47.7134 35.9742H48.5053H50.0293L51.7177 34.2759H50.1787Z" fill="#7C8A97"/>
<path d="M56.2002 34.2759H55.8366L54.1333 35.9742H54.457H56.0508L57.7392 34.2759H56.2002Z" fill="#7C8A97"/>
<path d="M53.5107 34.2759H52.8234L51.1201 35.9742H51.4538H52.7487H52.9977L54.6861 34.2759H53.5107Z" fill="#7C8A97"/>
<path d="M63.0335 34.2759H62.645L60.9417 35.9742H64.0893H65.0456L66.734 34.2759H63.2725H63.0335Z" fill="#7C8A97"/>
<path d="M60.085 34.2759H59.2383L57.535 35.9742H58.8H59.582H59.9804L61.6688 34.2759H60.085Z" fill="#7C8A97"/>
<path d="M70.0062 34.276H69.3687L67.6703 35.9743H69.8867L71.5402 34.271C71.5153 34.271 71.4904 34.271 71.4655 34.271H70.0062V34.276Z" fill="#7C8A97"/>
<path d="M76.7249 34.271H76.5705L74.907 35.9743H79.3148L80.9683 34.271H77.1433H76.7249Z" fill="#7C8A97"/>
<path d="M83.4685 34.2759L81.8051 35.9742H83.7773H84.5095L86.163 34.2759H83.8919H83.4685Z" fill="#7C8A97"/>
<path d="M47.2452 34.2759H46.3886L44.6852 35.9742H45.1833H46.6227L48.3111 34.2759H47.2452Z" fill="#7C8A97"/>
<path d="M67.9543 25.6197L66.9781 31.173C66.9731 31.2128 66.9582 31.2527 66.9432 31.2825C66.8934 31.3772 66.8087 31.432 66.6743 31.432H65.464L66.5398 25.3707H67.765C67.8646 25.3707 67.9194 25.4055 67.9443 25.4653C67.9642 25.5051 67.9692 25.555 67.9592 25.6197M68.9006 32.194L69.6327 28.0402L70.2353 24.6186L69.2442 23.5876H64.7269L63.0335 33.2349H67.5409L68.2232 32.7169L68.9055 32.199L68.9006 32.194Z" fill="white"/>
<path d="M72.8849 28.0303L73.7814 32.7569C73.8113 32.9063 73.8711 33.0258 73.9607 33.1055C74.0504 33.1852 74.1649 33.225 74.3044 33.225H75.8483L77.5417 23.5778H75.5694L74.658 28.7874L73.6669 23.5778H71.6946L70.0012 33.225H71.4605C71.7793 33.225 71.9984 33.0706 72.0532 32.7569L72.88 28.0303H72.8849Z" fill="white"/>
<path d="M88.5388 32.2339L88.5886 32.1941L89.1514 29.0364L89.251 28.4736L88.2598 27.4427H85.919L86.2378 25.6397C86.2676 25.4754 86.3623 25.3758 86.5416 25.3758H87.3833C87.5078 25.3758 87.5676 25.4305 87.5825 25.5202C87.5825 25.5501 87.5825 25.5849 87.5825 25.6248L87.5078 26.078L87.4331 26.5312H89.0318C89.3506 26.5312 89.5697 26.3768 89.6245 26.0631L89.8735 24.6137L89.2161 23.9314L88.8824 23.5828H85.6849L85.0972 24.031L84.3203 24.6187L83.6877 28.2146L84.6789 29.2357H87.0197L86.676 31.1781C86.6711 31.2179 86.6561 31.2577 86.6412 31.2876C86.5964 31.3872 86.5067 31.437 86.3722 31.437H85.396C85.2317 31.437 85.1769 31.3524 85.2018 31.188L85.3114 30.5555C85.3263 30.4758 85.3263 30.4061 85.3164 30.3463C85.2915 30.172 85.162 30.0823 84.9229 30.0823H83.2843L82.9108 32.1891L83.9019 33.2201H87.2388L87.9212 32.7021L88.5537 32.224L88.5388 32.2339Z" fill="white"/>
<path d="M95.5762 23.5828H92.3787L91.791 24.026L91.014 24.6137L90.3815 28.2097L91.3726 29.2307H93.7135L93.3698 31.1731C93.3648 31.2129 93.3499 31.2528 93.335 31.2826C93.2852 31.3773 93.2005 31.4321 93.066 31.4321H92.0898C91.9653 31.4321 91.9056 31.3872 91.8906 31.2926C91.8906 31.2627 91.8906 31.2279 91.8906 31.183L92.0002 30.5505C92.04 30.3114 91.9803 30.167 91.8159 30.1122C91.7611 30.0923 91.6914 30.0823 91.6167 30.0823H89.9781L89.6046 32.1891L90.5957 33.2201H93.9326L95.2973 32.1891L95.9597 28.4687L94.9686 27.4377H92.6277L92.9465 25.6347C92.9564 25.565 92.9863 25.5052 93.0262 25.4654C93.0311 25.4604 93.0361 25.4505 93.0411 25.4455C93.0909 25.4007 93.1606 25.3758 93.2503 25.3758H94.092C94.1916 25.3758 94.2464 25.4106 94.2713 25.4704C94.2912 25.5102 94.2962 25.56 94.2862 25.6198L94.2115 26.073L94.1368 26.5263H95.7356C96.0543 26.5263 96.2735 26.3768 96.3283 26.0581L96.5773 24.6137L96.5374 24.5739L95.5812 23.5828H95.5762Z" fill="white"/>
<path d="M59.3131 29.8084L60.5931 25.2462L60.3042 29.8084H59.3131ZM62.2466 33.225L62.2914 31.3872L62.4657 24.1157C62.4657 23.8567 62.3512 23.6823 62.147 23.6126C62.0772 23.5877 62.0025 23.5778 61.9179 23.5778H59.3131L57.7542 28.3989L56.1953 33.22H57.9036C57.9036 33.22 57.9185 33.22 57.9285 33.22C58.0729 33.22 58.1924 33.1802 58.2821 33.1105C58.3767 33.0358 58.4415 32.9212 58.4813 32.7718L58.8399 31.5067H60.1896L60.0801 33.23H62.2416L62.2466 33.225Z" fill="white"/>
<path d="M82.0242 32.7917C82.0242 32.7917 82.0342 32.7718 82.0342 32.7618L82.2682 31.437H79.5688L79.763 30.3363L79.9573 29.2356H81.4714C81.6307 29.2356 81.7553 29.1958 81.8499 29.1161C81.9445 29.0364 82.0142 28.9219 82.0641 28.7675L82.4924 27.4426H80.276L80.5749 25.7343L80.6346 25.3757H82.7563C82.9058 25.3757 83.0353 25.3409 83.1349 25.2662C83.2444 25.1865 83.3191 25.0719 83.349 24.9026L83.5184 23.9015L83.5731 23.5778H78.8466L77.9999 28.3989L77.1533 33.22H81.4514C81.556 33.22 81.6457 33.1951 81.7304 33.1603C81.8848 33.0955 81.9943 32.971 82.0342 32.7818" fill="white"/>
<path d="M54.9053 33.225C54.985 33.225 55.0597 33.215 55.1244 33.1951C55.2539 33.1553 55.3585 33.0806 55.4282 32.961C55.4631 32.9013 55.488 32.8315 55.498 32.7519L57.1116 23.5728H54.0785L52.9579 26.9695L51.8373 30.3662L52.0016 24.0409C52.0016 23.8915 51.9668 23.772 51.8921 23.6923C51.8174 23.6126 51.7028 23.5728 51.5434 23.5728H48.9386L47.2452 33.22H48.6348C48.7394 33.22 48.829 33.1951 48.9137 33.1603C49.0781 33.0905 49.1926 32.961 49.2275 32.7469L50.3581 26.312L50.1788 33.215H51.9568C52.0415 33.215 52.1212 33.2051 52.1859 33.1852C52.3901 33.1254 52.5196 32.981 52.6043 32.7319L54.726 26.312L53.5157 33.215H54.9053V33.225Z" fill="white"/>
<path d="M45.0986 31.5267H43.2309L43.8137 28.2944H36.6367L36.9256 26.7056H30.0276L29.8234 27.886H35.5111L35.1476 29.8831H29.4698L29.2656 31.0635H36.1337L36.4226 29.4747H42.4042L41.4479 34.7541H35.4314L35.7203 33.1653H28.897L28.6878 34.3457H34.3058L33.9473 36.3429H28.3392L28.13 37.5233H34.9284L35.2173 35.9345H42.4291L43.0168 32.7021H44.8944L45.0986 31.5267Z" fill="#0072BC"/>
<path d="M89.9382 12.6805H82.7264L82.1437 15.9078H80.6047L80.4005 17.0882H81.9295L81.3418 20.3156H88.5237L88.2349 21.9044H95.1279L95.3371 20.729H89.6444L90.0079 18.7268H95.6857L95.8949 17.5514H89.0218L88.7379 19.1402H82.7563L83.7126 13.8559H89.724L89.4402 15.4446H96.2635L96.4727 14.2692H90.8496L91.2132 12.2671H96.8213L97.0305 11.0917H90.2271L89.9382 12.6805Z" fill="#0072BC"/>
<path d="M66.7688 22.1583H69.8966L71.2612 21.1273L71.6198 19.0903C71.6497 18.9409 71.6298 18.8214 71.5651 18.7417C71.5352 18.7018 71.4903 18.6719 71.4356 18.652C71.3808 18.6321 71.311 18.6221 71.2363 18.6221H69.5977L69.3338 20.1113C69.3288 20.1412 69.3188 20.1711 69.3089 20.196C69.2641 20.3055 69.1744 20.3703 69.03 20.3703H68.258C68.1733 20.3703 68.1185 20.3454 68.0887 20.3055C68.0588 20.2607 68.0488 20.201 68.0637 20.1262L69.0399 14.573C69.0549 14.4883 69.0848 14.4236 69.1346 14.3787C69.1844 14.3339 69.2541 14.309 69.3437 14.309H70.1157C70.2801 14.309 70.3349 14.4036 70.31 14.558L70.0609 15.9924H71.6597C71.8191 15.9924 71.9535 15.9526 72.0531 15.8779C72.1029 15.838 72.1478 15.7932 72.1777 15.7334C72.2125 15.6737 72.2374 15.6039 72.2474 15.5242L72.591 13.552L71.5999 12.521H68.4721L67.1075 13.552L65.7727 21.1323L66.7638 22.1633L66.7688 22.1583Z" fill="white"/>
<path d="M44.2818 22.1584C44.4412 22.1584 44.5756 22.1185 44.6752 22.0438C44.7748 21.9691 44.8446 21.8496 44.8745 21.6902L46.005 15.2554L45.8257 22.1584H47.6038C47.8628 22.1584 48.0371 22.0737 48.1516 21.8894C48.1915 21.8297 48.2214 21.7599 48.2512 21.6753L50.373 15.2554L49.1627 22.1584H50.5522C50.7116 22.1584 50.8461 22.1185 50.9457 22.0438C51.0453 21.9691 51.115 21.8496 51.1449 21.6902L52.7586 12.5111H49.7255L47.4793 19.3045L47.6436 12.9793C47.6436 12.6755 47.5042 12.5111 47.1904 12.5111H44.5856L42.8922 22.1584H44.2818Z" fill="white"/>
<path d="M56.24 14.1796L55.9511 18.7417H54.96L56.24 14.1796ZM52.4598 20.2608L51.8472 22.1584H53.5555C53.6352 22.1584 53.7049 22.1484 53.7696 22.1285C53.8942 22.0886 53.9888 22.0139 54.0535 21.8994C54.0884 21.8446 54.1133 21.7748 54.1332 21.7001L54.4918 20.4301H55.8415L55.732 22.1534H57.8935L58.1127 13.044C58.1127 12.9593 58.0977 12.8796 58.0728 12.8149C58.0479 12.7501 58.0131 12.6904 57.9632 12.6456C57.9134 12.6007 57.8587 12.5659 57.7889 12.541C57.7192 12.5161 57.6445 12.5061 57.5598 12.5061H54.955L53.3961 17.3272L52.4498 20.2558L52.4598 20.2608Z" fill="white"/>
<path d="M62.1818 14.3041H63.407C63.4917 14.3041 63.5464 14.329 63.5763 14.3688C63.6062 14.4137 63.6162 14.4734 63.6012 14.5481L63.2426 16.6151C63.2177 16.7794 63.1181 16.879 62.9388 16.879H61.7285L62.1818 14.3041ZM60.2792 22.1584C60.3589 22.1584 60.4336 22.1484 60.4984 22.1285C60.5631 22.1086 60.6229 22.0787 60.6727 22.0438C60.7723 21.9691 60.842 21.8496 60.8719 21.6902L61.4098 18.672H62.112L62.4308 20.4152L62.7496 22.1584H64.4977C64.6671 22.1584 64.7816 22.0837 64.8364 21.9691C64.8713 21.8944 64.8912 21.8048 64.8713 21.6902L64.2238 18.3682L64.4429 18.1989L65.1751 17.6361L65.8923 13.5421L64.9011 12.5111H60.3838L58.6904 22.1584H60.2892H60.2792Z" fill="white"/>
<path d="M72.1677 22.1584H73.7665C74.0852 22.1584 74.3044 22.009 74.3592 21.6902L74.6032 20.2907L74.9518 18.2985H76.4111L75.7338 22.1584H77.3325C77.6513 22.1584 77.8704 22.009 77.9252 21.6902L79.5389 12.5111H77.4321L77.0885 14.4734L76.7448 16.4358H75.2855L75.9728 12.5111H73.8661L73.0194 17.3323L72.1727 22.1534L72.1677 22.1584Z" fill="white"/>
<path d="M45.4722 23.1046L42.5287 26.1427H44.6205L46.0499 24.6785L47.5839 23.1046H46.0101H45.4722Z" fill="#7C8A97"/>
<path d="M39.1768 26.1427H41.159L44.1174 23.1046H43.0765H42.1252L39.1768 26.1427Z" fill="#7C8A97"/>
<path d="M97.0803 25.0272V24.8977H97.1649C97.2098 24.8977 97.2546 24.9076 97.2546 24.9574C97.2546 25.0222 97.2048 25.0272 97.15 25.0272H97.0753H97.0803ZM97.0803 25.0819H97.155L97.2645 25.2662H97.3343L97.2147 25.0819C97.2745 25.072 97.3243 25.0421 97.3243 24.9674C97.3243 24.8827 97.2745 24.8479 97.1749 24.8479H97.0155V25.2712H97.0803V25.0869V25.0819ZM97.155 25.4206C97.3542 25.4206 97.5235 25.2662 97.5235 25.0521C97.5235 24.8379 97.3542 24.6885 97.155 24.6885C96.9558 24.6885 96.7814 24.8429 96.7814 25.0521C96.7814 25.2612 96.9508 25.4206 97.155 25.4206ZM96.8611 25.0521C96.8611 24.8777 96.9906 24.7482 97.1599 24.7482C97.3293 24.7482 97.4588 24.8777 97.4588 25.0521C97.4588 25.2264 97.3293 25.3608 97.1599 25.3608C96.9906 25.3608 96.8611 25.2314 96.8611 25.0521Z" fill="white"/>
<path d="M42.2497 16.5353C42.2497 19.1601 40.1181 21.2917 37.4933 21.2917C34.8686 21.2917 32.7369 19.1601 32.7369 16.5353C32.7369 13.9106 34.8686 11.7789 37.4933 11.7789C40.1181 11.7789 42.2497 13.9106 42.2497 16.5353Z" fill="white"/>
<path d="M38.7036 17.895H39.2066L39.1817 17.1729L38.7036 17.895ZM40.6111 17.8851H41.1092L41.0843 17.1629L40.6062 17.8851H40.6111ZM41.154 18.7567H41.7019C40.905 20.2658 39.3212 21.2967 37.4933 21.2967C34.8686 21.2967 32.7369 19.1651 32.7369 16.5403C32.7369 13.9156 34.8686 11.7839 37.4933 11.7839C40.1181 11.7839 42.2497 13.9156 42.2497 16.5403C42.2497 17.2426 42.0953 17.91 41.8214 18.5126L41.682 16.5104H40.4468L40.3023 17.0234H40.4966L39.889 17.9897L39.8043 16.5104H38.5542L38.4097 17.0234H38.599L37.7822 18.2686H37.1098C37.0401 18.2686 36.7662 18.1988 36.7662 17.8651C36.7662 17.5315 37.0899 17.0384 37.4136 17.0384H37.5531C37.5282 17.1231 37.4834 17.2974 37.4834 17.2974H38.081L38.2952 16.5154H37.3738C36.801 16.5154 36.3329 16.9238 36.1884 17.3472L36.4275 16.5154H35.6057L35.4613 17.0284H35.6754L35.4613 17.7805L34.9234 16.5154H34.1564L34.012 17.0284H34.2211L33.743 18.7666H34.3556C34.3556 18.7666 34.5947 17.905 34.6544 17.6809C34.7441 17.8901 35.1027 18.7666 35.1027 18.7666H35.785L36.0988 17.6609C36.0689 17.8253 36.0689 17.9996 36.0988 18.169C36.1586 18.5325 36.5122 18.7666 36.8957 18.7666H38.1358L38.35 18.4429H39.2266L39.2465 18.7666H40.0185L40.2177 18.4429H41.1142L41.149 18.7666L41.154 18.7567Z" fill="#00A3DE"/>
<path d="M42.5535 19.1401C42.5535 19.3044 42.4191 19.4439 42.2497 19.4439C42.0804 19.4439 41.9459 19.3094 41.9459 19.1401C41.9459 18.9708 42.0804 18.8363 42.2497 18.8363C42.4191 18.8363 42.5535 18.9708 42.5535 19.1401ZM42.2497 18.7566C42.0405 18.7566 41.8662 18.9309 41.8662 19.1401C41.8662 19.3493 42.0405 19.5236 42.2497 19.5236C42.4589 19.5236 42.6332 19.3493 42.6332 19.1401C42.6332 18.9309 42.4639 18.7566 42.2497 18.7566Z" fill="#00A3DE"/>
<path d="M42.3493 19.0605C42.3493 19.0953 42.3145 19.1252 42.2796 19.1252H42.18V18.9957H42.2796C42.3145 18.9957 42.3493 19.0206 42.3493 19.0605ZM42.434 19.0605C42.434 18.9758 42.3543 18.921 42.2796 18.921H42.0953V19.3693H42.18V19.1999H42.2348L42.3444 19.3693H42.444L42.3294 19.1949C42.3643 19.185 42.434 19.1501 42.434 19.0605Z" fill="#00A3DE"/>
<path d="M9.11432 50.7764H10.3246L10.5238 50.9707L10.3246 52.0813L10.1254 52.2806H8.85036L9.11432 50.7764ZM7.55542 54.4471H8.47184L8.7358 52.938H10.6035L11.1962 52.3453L11.485 50.7366L10.8924 50.1439H8.32242L7.5604 54.4471H7.55542Z" fill="black"/>
<path d="M13.0639 50.7764H14.2692L14.4634 50.9707L14.2991 51.8771L14.0949 52.0913H12.8348L13.0639 50.7814V50.7764ZM13.7512 52.7388L14.07 54.4471H15.0312L15.1508 53.7797H14.8071L14.588 52.6242L15.1906 52.0216L15.4197 50.7366L14.827 50.1439H12.2571L11.4951 54.4471H12.4115L12.7103 52.7388H13.7463H13.7512Z" fill="black"/>
<path d="M16.7943 53.7597L16.5752 53.5405L17.0135 51.0453L17.2376 50.8262H18.3184L18.5375 51.0453L18.0992 53.5356L17.8751 53.7597H16.7943ZM16.2166 54.447H18.3582L18.9609 53.8443L19.5037 50.7514L18.9011 50.1488H16.7595L16.1568 50.7514L15.614 53.8443L16.2166 54.447Z" fill="black"/>
<path d="M20.2956 54.4471H22.3526L22.9602 53.8394L23.6177 50.1389H22.7012L22.1036 53.5157L21.8844 53.7398H20.8684L20.6542 53.5207L21.2569 50.1389H20.3405L19.683 53.8394L20.2956 54.4471Z" fill="black"/>
<path d="M24.6785 53.7597L25.1964 50.8262H26.4017L26.6209 51.0453L26.1776 53.5356L25.9585 53.7597H24.6785ZM23.6425 54.447H26.4316L27.0342 53.8443L27.5821 50.7514L26.9795 50.1488H24.4045L23.6425 54.452V54.447Z" fill="black"/>
<path d="M30.8294 50.7764H32.0397L32.2389 50.9707L32.0397 52.0813L31.8405 52.2806H30.5654L30.8294 50.7764ZM29.2705 54.4471H30.1869L30.4509 52.938H32.3186L32.9113 52.3453L33.2001 50.7366L32.6075 50.1439H30.0375L29.2755 54.4471H29.2705Z" fill="black"/>
<path d="M35.1227 50.6968L35.2771 52.7687H34.2461L35.1177 50.6968H35.1227ZM32.6224 54.4471H33.5389L33.9522 53.4659H35.3368L35.4115 54.4471H36.3429L35.8946 50.1439H34.5549L32.6274 54.4471H32.6224Z" fill="black"/>
<path d="M38.3998 50.7764H39.6051L39.7994 50.9707L39.635 51.8771L39.4308 52.0913H38.1707L38.3998 50.7814V50.7764ZM39.0822 52.7388L39.4009 54.4471H40.3622L40.4817 53.7797H40.138L39.9189 52.6242L40.5215 52.0216L40.7506 50.7366L40.158 50.1439H37.588L36.826 54.4471H37.7424L38.0412 52.7388H39.0772H39.0822Z" fill="black"/>
<path d="M44.4163 50.8711L44.5408 50.1389H41.3134L41.179 50.8711H42.3544L41.7218 54.4471H42.6283L43.2558 50.8711H44.4163Z" fill="black"/>
<path d="M44.3167 54.4471H45.1285L45.6614 51.4687L46.6475 54.4471H47.5789L48.3409 50.1389H47.5291L47.0061 53.0525L46.0299 50.1389H45.0787L44.3167 54.4471Z" fill="black"/>
<path d="M48.4256 54.4471H51.1997L51.3243 53.7598H49.4615L49.6608 52.6043H51.3442L51.4637 51.917H49.7853L49.9745 50.8262H51.8173L51.9418 50.1389H49.1826L48.4256 54.4471Z" fill="black"/>
<path d="M53.4908 50.7764H54.6961L54.8903 50.9707L54.7259 51.8771L54.5217 52.0913H53.2617L53.4908 50.7814V50.7764ZM54.1731 52.7388L54.4919 54.4471H55.4531L55.5726 53.7797H55.229L55.0098 52.6242L55.6125 52.0216L55.8416 50.7366L55.2489 50.1439H52.679L51.9169 54.4471H52.8333L53.1322 52.7388H54.1681H54.1731Z" fill="black"/>
<path d="M58.7652 53.7597L58.546 53.5405L58.9843 51.0453L59.2084 50.8262H60.2892L60.5083 51.0453L60.0701 53.5356L59.8459 53.7597H58.7652ZM58.1874 54.447H60.329L60.9317 53.8443L61.4746 50.7514L60.8719 50.1488H58.7303L58.1277 50.7514L57.5848 53.8443L58.1874 54.447Z" fill="black"/>
<path d="M61.609 54.4471H62.5304L62.8342 52.6939H64.4579L64.5724 52.0116H62.9538L63.1629 50.8262H64.941L65.0655 50.1389H62.371L61.609 54.4471Z" fill="black"/>
<path d="M66.475 54.4471H67.2569L67.9143 50.7565L68.1982 54.4471H69.274L70.8778 50.7665L70.2253 54.4471H71.1019L71.8589 50.1389H70.4195L68.8905 53.6601L68.6315 50.1389H67.237L66.475 54.4471Z" fill="black"/>
<path d="M74.1051 50.6968L74.2595 52.7687H73.2286L74.1002 50.6968H74.1051ZM71.6049 54.4471H72.5213L72.9347 53.4659H74.3193L74.394 54.4471H75.3254L74.8771 50.1439H73.5374L71.6099 54.4471H71.6049Z" fill="black"/>
<path d="M77.3823 50.7764H78.5876L78.7819 50.9707L78.6175 51.8771L78.4133 52.0913H77.1532L77.3823 50.7814V50.7764ZM78.0697 52.7388L78.3884 54.4471H79.3496L79.4692 53.7797H79.1255L78.9064 52.6242L79.509 52.0216L79.7381 50.7366L79.1454 50.1439H76.5755L75.8135 54.4471H76.7299L77.0287 52.7388H78.0647H78.0697Z" fill="black"/>
<path d="M80.535 54.4471H82.5919L83.1846 53.8544L83.344 52.9629H82.4276L82.323 53.5456L82.1088 53.7598H81.1127L80.8936 53.5406L81.3319 51.0454L81.556 50.8262H82.572L82.7712 51.0205L82.6667 51.6082H83.5831L83.7375 50.7266L83.1548 50.1389H81.0729L80.4703 50.7465L79.9274 53.8394L80.535 54.4471Z" fill="black"/>
<path d="M86.1331 54.4471H87.0495L87.8065 50.1389H86.8951L86.5764 51.9319H85.137L85.4557 50.1389H84.5443L83.7823 54.4471H84.6937L84.9926 52.7387H86.4319L86.1331 54.4471Z" fill="black"/>
<path d="M89.4352 54.4471H90.2121L90.8696 50.7565L91.1584 54.4471H92.2292L93.833 50.7665L93.1855 54.4471H94.0571L94.8191 50.1389H93.3798L91.8507 53.6601L91.5868 50.1389H90.1972L89.4352 54.4471Z" fill="black"/>
<path d="M97.0653 50.6968L97.2197 52.7687H96.1888L97.0604 50.6968H97.0653ZM94.5651 54.4471H95.4815L95.8949 53.4659H97.2795L97.3542 54.4471H98.2856L97.8373 50.1439H96.4976L94.5701 54.4471H94.5651Z" fill="black"/>
<path d="M99.8096 53.7597L100.328 50.8262H101.533L101.752 51.0453L101.309 53.5356L101.09 53.7597H99.8096ZM98.7737 54.447H101.563L102.165 53.8443L102.713 50.7514L102.111 50.1488H99.5357L98.7737 54.452V54.447Z" fill="black"/>
<path d="M102.848 54.4471H103.66L104.187 51.4687L105.174 54.4471H106.11L106.872 50.1389H106.06L105.537 53.0525L104.556 50.1389H103.61L102.848 54.4471Z" fill="black"/>
<path d="M106.952 54.4471H109.726L109.855 53.7598H107.988L108.187 52.6043H109.87L109.99 51.917H108.311L108.506 50.8262H110.343L110.473 50.1389H107.714L106.952 54.4471Z" fill="black"/>
<path d="M110.971 54.4471H113.043L113.626 53.8594L113.865 52.5345L113.367 52.0365L111.808 51.7825L111.723 51.7028L111.848 50.9756L112.007 50.8163H113.053L113.207 50.9707L113.128 51.4189H114.039L114.168 50.7017L113.601 50.1389H111.564L110.976 50.7266L110.752 52.0016L111.25 52.4947L112.809 52.7487L112.898 52.8284L112.759 53.6054L112.6 53.7647H111.514L111.369 53.6203L111.449 53.1671H110.533L110.408 53.8843L110.971 54.4471Z" fill="black"/>
<path d="M114.761 54.4471H116.833L117.421 53.8594L117.655 52.5345L117.157 52.0365L115.598 51.7825L115.518 51.7028L115.643 50.9756L115.797 50.8163H116.848L117.002 50.9707L116.923 51.4189H117.834L117.964 50.7017L117.396 50.1389H115.354L114.771 50.7266L114.542 52.0016L115.045 52.4947L116.604 52.7487L116.689 52.8284L116.554 53.6054L116.39 53.7647H115.304L115.16 53.6203L115.244 53.1671H114.328L114.203 53.8843L114.761 54.4471Z" fill="black"/>
</svg>
