<svg width="271" height="60" viewBox="0 0 271 60" fill="none" xmlns="http://www.w3.org/2000/svg">
<path d="M1.10989 21.45V0.899949C3.38989 0.47995 5.38989 0.26995 7.10989 0.26995C9.30989 0.26995 11.0099 0.72995 12.2099 1.64995C13.4299 2.56995 14.0399 3.86995 14.0399 5.54995C14.0399 6.74995 13.7099 7.77995 13.0499 8.63995C12.4099 9.47995 11.4699 10.09 10.2299 10.47C11.2299 10.65 12.0799 10.98 12.7799 11.46C13.4799 11.94 14.0099 12.55 14.3699 13.29C14.7499 14.03 14.9399 14.87 14.9399 15.81C14.9399 17.63 14.3199 19.03 13.0799 20.01C11.8599 20.97 10.0899 21.45 7.76989 21.45H1.10989ZM7.70989 19.95C11.2499 19.95 13.0199 18.53 13.0199 15.69C13.0199 14.31 12.5499 13.24 11.6099 12.48C10.6699 11.72 9.32989 11.34 7.58989 11.34H2.96989V19.95H7.70989ZM6.89989 1.76995C5.77989 1.76995 4.46989 1.88995 2.96989 2.12995V9.89995H7.46989C8.90989 9.89995 10.0499 9.52995 10.8899 8.78995C11.7299 8.02995 12.1499 6.99995 12.1499 5.69995C12.1499 3.07995 10.3999 1.76995 6.89989 1.76995ZM18.6775 21.45V6.44995L20.2075 6.29995L20.3575 7.64995C21.6975 6.54995 23.1275 5.99995 24.6475 5.99995C25.1875 5.99995 25.6175 6.05995 25.9375 6.17995V7.64995C25.4175 7.52995 24.9575 7.46995 24.5575 7.46995C23.1375 7.46995 21.7775 7.97995 20.4775 8.99995V21.45H18.6775ZM28.99 21.45V6.50995L30.79 6.26995V21.45H28.99ZM29.89 2.69995C29.49 2.69995 29.16 2.57995 28.9 2.33995C28.66 2.09995 28.54 1.76995 28.54 1.34995C28.54 0.92995 28.66 0.59995 28.9 0.359951C29.16 0.11995 29.49 -4.98295e-05 29.89 -4.98295e-05C30.29 -4.98295e-05 30.61 0.11995 30.85 0.359951C31.11 0.59995 31.24 0.92995 31.24 1.34995C31.24 1.76995 31.11 2.09995 30.85 2.33995C30.61 2.57995 30.29 2.69995 29.89 2.69995ZM45.8661 21.45V11.04C45.8661 8.57995 44.6161 7.34995 42.1161 7.34995C41.4561 7.34995 40.7261 7.45995 39.9261 7.67995C39.1461 7.89995 38.3761 8.19995 37.6161 8.57995V21.45H35.8161V6.44995L37.3461 6.29995L37.4661 7.34995C39.2061 6.38995 40.9061 5.90995 42.5661 5.90995C44.1861 5.90995 45.4361 6.32995 46.3161 7.16995C47.2161 8.00995 47.6661 9.19995 47.6661 10.74V21.45H45.8661ZM57.4061 28.44C55.6261 28.44 54.1161 28.13 52.8761 27.51L52.6361 25.98C54.2761 26.66 55.8361 27 57.3161 27C60.6561 27 62.3261 25.45 62.3261 22.35V20.28C61.5661 20.7 60.7861 21.03 59.9861 21.27C59.2061 21.51 58.4761 21.63 57.7961 21.63C55.8361 21.63 54.2961 20.97 53.1761 19.65C52.0561 18.33 51.4961 16.5 51.4961 14.16C51.4961 11.5 52.1261 9.45995 53.3861 8.03995C54.6661 6.61995 56.5061 5.90995 58.9061 5.90995C60.7261 5.90995 62.4661 6.22995 64.1261 6.86995V22.2C64.1261 24.2 63.5461 25.74 62.3861 26.82C61.2261 27.9 59.5661 28.44 57.4061 28.44ZM58.0361 20.19C58.6961 20.19 59.4061 20.08 60.1661 19.86C60.9261 19.64 61.6461 19.34 62.3261 18.96V7.82995C61.2861 7.50995 60.1961 7.34995 59.0561 7.34995C57.1361 7.34995 55.7061 7.90995 54.7661 9.02995C53.8461 10.13 53.3861 11.83 53.3861 14.13C53.3861 16.11 53.7761 17.62 54.5561 18.66C55.3561 19.68 56.5161 20.19 58.0361 20.19ZM74.586 26.64C76.006 26.38 77.116 25.88 77.916 25.14C78.716 24.4 79.456 23.22 80.136 21.6L74.376 6.35995H76.266L80.976 19.59L85.836 6.35995H87.636L81.876 21.3C81.336 22.74 80.766 23.91 80.166 24.81C79.586 25.73 78.896 26.45 78.096 26.97C77.296 27.51 76.256 27.92 74.976 28.2L74.586 26.64ZM95.7133 21.9C93.5333 21.9 91.8833 21.23 90.7633 19.89C89.6633 18.53 89.1133 16.53 89.1133 13.89C89.1133 11.27 89.6633 9.28995 90.7633 7.94995C91.8833 6.58995 93.5333 5.90995 95.7133 5.90995C97.8933 5.90995 99.5333 6.58995 100.633 7.94995C101.753 9.28995 102.313 11.27 102.313 13.89C102.313 16.53 101.753 18.53 100.633 19.89C99.5333 21.23 97.8933 21.9 95.7133 21.9ZM95.7133 20.46C97.3533 20.46 98.5433 19.94 99.2833 18.9C100.043 17.84 100.423 16.17 100.423 13.89C100.423 11.63 100.043 9.97995 99.2833 8.93995C98.5433 7.87995 97.3533 7.34995 95.7133 7.34995C94.0733 7.34995 92.8733 7.87995 92.1133 8.93995C91.3733 9.97995 91.0033 11.63 91.0033 13.89C91.0033 16.17 91.3733 17.84 92.1133 18.9C92.8733 19.94 94.0733 20.46 95.7133 20.46ZM107.953 6.35995V16.77C107.953 19.23 109.163 20.46 111.583 20.46C112.243 20.46 112.963 20.35 113.743 20.13C114.543 19.91 115.323 19.61 116.083 19.23V6.35995H117.883V21.36L116.353 21.51L116.233 20.46C114.493 21.42 112.793 21.9 111.133 21.9C109.553 21.9 108.323 21.48 107.443 20.64C106.583 19.78 106.153 18.59 106.153 17.07V6.35995H107.953ZM122.916 21.45V6.44995L124.446 6.29995L124.596 7.64995C125.936 6.54995 127.366 5.99995 128.886 5.99995C129.426 5.99995 129.856 6.05995 130.176 6.17995V7.64995C129.656 7.52995 129.196 7.46995 128.796 7.46995C127.376 7.46995 126.016 7.97995 124.716 8.99995V21.45H122.916ZM153.688 21.45L151.708 15.78H142.348L140.428 21.45H138.478L145.918 0.44995H148.108L155.578 21.45H153.688ZM142.858 14.34H151.228L146.998 2.21995L142.858 14.34ZM156.759 14.67V13.11H164.589V14.67H156.759ZM173.539 28.44C171.759 28.44 170.249 28.13 169.009 27.51L168.769 25.98C170.409 26.66 171.969 27 173.449 27C176.789 27 178.459 25.45 178.459 22.35V20.28C177.699 20.7 176.919 21.03 176.119 21.27C175.339 21.51 174.609 21.63 173.929 21.63C171.969 21.63 170.429 20.97 169.309 19.65C168.189 18.33 167.629 16.5 167.629 14.16C167.629 11.5 168.259 9.45995 169.519 8.03995C170.799 6.61995 172.639 5.90995 175.039 5.90995C176.859 5.90995 178.599 6.22995 180.259 6.86995V22.2C180.259 24.2 179.679 25.74 178.519 26.82C177.359 27.9 175.699 28.44 173.539 28.44ZM174.169 20.19C174.829 20.19 175.539 20.08 176.299 19.86C177.059 19.64 177.779 19.34 178.459 18.96V7.82995C177.419 7.50995 176.329 7.34995 175.189 7.34995C173.269 7.34995 171.839 7.90995 170.899 9.02995C169.979 10.13 169.519 11.83 169.519 14.13C169.519 16.11 169.909 17.62 170.689 18.66C171.489 19.68 172.649 20.19 174.169 20.19ZM194.529 21.51L194.409 20.46C192.689 21.42 190.989 21.9 189.309 21.9C187.769 21.9 186.549 21.5 185.649 20.7C184.749 19.88 184.299 18.76 184.299 17.34C184.299 15.84 184.799 14.7 185.799 13.92C186.819 13.12 188.309 12.72 190.269 12.72C191.449 12.72 192.789 12.86 194.289 13.14V11.1C194.289 8.59995 192.879 7.34995 190.059 7.34995C189.319 7.34995 188.509 7.44995 187.629 7.64995C186.749 7.84995 185.939 8.10995 185.199 8.42995V7.01995C185.919 6.67995 186.739 6.40995 187.659 6.20995C188.599 6.00995 189.489 5.90995 190.329 5.90995C192.209 5.90995 193.629 6.35995 194.589 7.25995C195.569 8.13995 196.059 9.41995 196.059 11.1V21.36L194.529 21.51ZM189.729 20.46C190.449 20.46 191.209 20.35 192.009 20.13C192.809 19.91 193.569 19.61 194.289 19.23V14.43C193.029 14.19 191.789 14.07 190.569 14.07C189.029 14.07 187.909 14.33 187.209 14.85C186.509 15.37 186.159 16.19 186.159 17.31C186.159 19.41 187.349 20.46 189.729 20.46ZM218.935 21.45V10.74C218.935 8.47995 217.865 7.34995 215.725 7.34995C214.485 7.34995 213.065 7.79995 211.465 8.69995C211.625 9.23995 211.705 9.81995 211.705 10.44V21.45H209.905V10.74C209.905 8.47995 208.835 7.34995 206.695 7.34995C205.495 7.34995 204.155 7.75995 202.675 8.57995V21.45H200.875V6.44995L202.405 6.29995L202.525 7.34995C204.225 6.38995 205.765 5.90995 207.145 5.90995C208.905 5.90995 210.175 6.48995 210.955 7.64995C212.895 6.48995 214.635 5.90995 216.175 5.90995C217.635 5.90995 218.755 6.29995 219.535 7.07995C220.335 7.85995 220.735 8.97995 220.735 10.44V21.45H218.935ZM236.192 20.91C234.812 21.57 233.332 21.9 231.752 21.9C229.452 21.9 227.682 21.22 226.442 19.86C225.202 18.5 224.582 16.55 224.582 14.01C224.582 11.49 225.162 9.50995 226.322 8.06995C227.482 6.62995 229.072 5.90995 231.092 5.90995C232.872 5.90995 234.272 6.46995 235.292 7.58995C236.332 8.68995 236.852 10.2 236.852 12.12C236.852 12.84 236.792 13.53 236.672 14.19H226.352C226.372 18.37 228.222 20.46 231.902 20.46C233.382 20.46 234.812 20.14 236.192 19.5V20.91ZM231.062 7.31995C229.702 7.31995 228.592 7.81995 227.732 8.81995C226.872 9.81995 226.412 11.16 226.352 12.84H235.112C235.152 12.52 235.172 12.24 235.172 12C235.172 10.52 234.812 9.36995 234.092 8.54995C233.372 7.72995 232.362 7.31995 231.062 7.31995ZM250.585 7.73995V17.34C250.585 18.38 250.805 19.15 251.245 19.65C251.685 20.13 252.365 20.37 253.285 20.37C253.885 20.37 254.565 20.26 255.325 20.04V21.36C254.485 21.64 253.715 21.78 253.015 21.78C251.635 21.78 250.585 21.41 249.865 20.67C249.145 19.91 248.785 18.79 248.785 17.31V7.73995H246.505V6.44995L248.845 6.35995L249.025 2.57995L250.585 2.39995V6.35995H255.115V7.73995H250.585ZM264.053 21.9C261.873 21.9 260.223 21.23 259.103 19.89C258.003 18.53 257.453 16.53 257.453 13.89C257.453 11.27 258.003 9.28995 259.103 7.94995C260.223 6.58995 261.873 5.90995 264.053 5.90995C266.233 5.90995 267.873 6.58995 268.973 7.94995C270.093 9.28995 270.653 11.27 270.653 13.89C270.653 16.53 270.093 18.53 268.973 19.89C267.873 21.23 266.233 21.9 264.053 21.9ZM264.053 20.46C265.693 20.46 266.883 19.94 267.623 18.9C268.383 17.84 268.763 16.17 268.763 13.89C268.763 11.63 268.383 9.97995 267.623 8.93995C266.883 7.87995 265.693 7.34995 264.053 7.34995C262.413 7.34995 261.213 7.87995 260.453 8.93995C259.713 9.97995 259.343 11.63 259.343 13.89C259.343 16.17 259.713 17.84 260.453 18.9C261.213 19.94 262.413 20.46 264.053 20.46ZM13.8899 58.61C12.1699 59.47 10.3699 59.9 8.48989 59.9C5.82989 59.9 3.74989 58.94 2.24989 57.02C0.749893 55.08 -0.000107341 52.39 -0.000107341 48.95C-0.000107341 45.51 0.749893 42.83 2.24989 40.91C3.74989 38.97 5.82989 38 8.48989 38C10.3099 38 12.0799 38.4299 13.7999 39.2899V40.8199C12.8799 40.38 12.0199 40.06 11.2199 39.8599C10.4199 39.6599 9.58989 39.5599 8.72989 39.5599C6.50989 39.5599 4.82989 40.36 3.68989 41.96C2.56989 43.54 2.00989 45.87 2.00989 48.95C2.00989 52.03 2.56989 54.37 3.68989 55.97C4.82989 57.55 6.50989 58.34 8.72989 58.34C10.4299 58.34 12.1499 57.92 13.8899 57.08V58.61ZM18.0036 59.45V36.9199L19.8036 36.6799V45.29C21.4836 44.37 23.1336 43.91 24.7536 43.91C26.3736 43.91 27.6236 44.33 28.5036 45.17C29.4036 46.01 29.8536 47.2 29.8536 48.74V59.45H28.0536V49.04C28.0536 46.58 26.8036 45.35 24.3036 45.35C23.6436 45.35 22.9136 45.46 22.1136 45.68C21.3336 45.9 20.5636 46.2 19.8036 46.58V59.45H18.0036ZM36.2636 44.36V54.77C36.2636 57.23 37.4736 58.46 39.8936 58.46C40.5536 58.46 41.2736 58.35 42.0536 58.13C42.8536 57.91 43.6336 57.61 44.3936 57.23V44.36H46.1936V59.36L44.6636 59.51L44.5436 58.46C42.8036 59.42 41.1036 59.9 39.4436 59.9C37.8636 59.9 36.6336 59.48 35.7536 58.64C34.8936 57.78 34.4636 56.59 34.4636 55.07V44.36H36.2636ZM61.1863 58.91C59.8663 59.57 58.4263 59.9 56.8663 59.9C54.7463 59.9 53.1063 59.21 51.9463 57.83C50.8063 56.45 50.2363 54.48 50.2363 51.92C50.2363 49.36 50.8063 47.39 51.9463 46.01C53.1063 44.61 54.7463 43.91 56.8663 43.91C58.3663 43.91 59.7863 44.24 61.1263 44.9V46.31C59.7263 45.69 58.3663 45.38 57.0463 45.38C55.4263 45.38 54.1963 45.93 53.3563 47.03C52.5363 48.13 52.1263 49.76 52.1263 51.92C52.1263 54.06 52.5363 55.68 53.3563 56.78C54.1963 57.88 55.4263 58.43 57.0463 58.43C58.4063 58.43 59.7863 58.12 61.1863 57.5V58.91ZM65.0544 59.45V36.9199L66.8544 36.6799V51.05L73.9344 44.36H76.0644L68.6544 51.38L76.3044 59.45H74.0244L66.8544 51.83V59.45H65.0544ZM77.1433 44.96C77.6833 44.26 78.1133 43.53 78.4333 42.7699C78.7733 41.99 78.9533 41.26 78.9733 40.58C78.6733 40.5 78.4433 40.35 78.2833 40.1299C78.1233 39.89 78.0433 39.6 78.0433 39.26C78.0433 38.84 78.1733 38.51 78.4333 38.27C78.6933 38.01 79.0233 37.8799 79.4233 37.8799C79.8633 37.8799 80.2033 38.04 80.4433 38.36C80.6833 38.66 80.8033 39.08 80.8033 39.62C80.8033 40.5 80.5133 41.4899 79.9333 42.59C79.3733 43.67 78.6633 44.6 77.8033 45.38L77.1433 44.96ZM82.9274 57.47C84.4274 58.13 85.9774 58.46 87.5774 58.46C90.2774 58.46 91.6274 57.41 91.6274 55.31C91.6274 54.63 91.4274 54.08 91.0274 53.66C90.6474 53.24 90.0074 52.89 89.1074 52.61L86.8274 51.89C85.5474 51.49 84.6174 50.99 84.0374 50.39C83.4574 49.77 83.1674 48.99 83.1674 48.05C83.1674 46.79 83.6574 45.79 84.6374 45.05C85.6374 44.29 86.9774 43.91 88.6574 43.91C90.0774 43.91 91.4274 44.18 92.7074 44.72V46.13C91.3674 45.61 90.0474 45.35 88.7474 45.35C87.5674 45.35 86.6374 45.59 85.9574 46.07C85.2974 46.53 84.9674 47.17 84.9674 47.99C84.9674 48.57 85.1474 49.04 85.5074 49.4C85.8874 49.74 86.5574 50.07 87.5174 50.39L89.8874 51.17C91.1074 51.57 91.9974 52.1 92.5574 52.76C93.1374 53.42 93.4274 54.26 93.4274 55.28C93.4274 56.76 92.9274 57.9 91.9274 58.7C90.9274 59.5 89.5174 59.9 87.6974 59.9C86.0174 59.9 84.5074 59.59 83.1674 58.97L82.9274 57.47ZM119.51 58.61C117.73 59.47 115.79 59.9 113.69 59.9C110.69 59.9 108.35 58.94 106.67 57.02C104.99 55.08 104.15 52.39 104.15 48.95C104.15 45.53 104.98 42.85 106.64 40.91C108.32 38.97 110.62 38 113.54 38C115.52 38 117.37 38.4299 119.09 39.2899V40.8199C117.33 39.9599 115.53 39.53 113.69 39.53C111.25 39.53 109.38 40.34 108.08 41.96C106.78 43.58 106.13 45.91 106.13 48.95C106.13 52.01 106.78 54.35 108.08 55.97C109.4 57.57 111.32 58.37 113.84 58.37C115.18 58.37 116.49 58.16 117.77 57.74V50.12H115.04L115.25 48.59H119.51V58.61ZM129.522 59.9C127.342 59.9 125.692 59.23 124.572 57.89C123.472 56.53 122.922 54.53 122.922 51.89C122.922 49.27 123.472 47.29 124.572 45.95C125.692 44.59 127.342 43.91 129.522 43.91C131.702 43.91 133.342 44.59 134.442 45.95C135.562 47.29 136.122 49.27 136.122 51.89C136.122 54.53 135.562 56.53 134.442 57.89C133.342 59.23 131.702 59.9 129.522 59.9ZM129.522 58.46C131.162 58.46 132.352 57.94 133.092 56.9C133.852 55.84 134.232 54.17 134.232 51.89C134.232 49.63 133.852 47.98 133.092 46.94C132.352 45.88 131.162 45.35 129.522 45.35C127.882 45.35 126.682 45.88 125.922 46.94C125.182 47.98 124.812 49.63 124.812 51.89C124.812 54.17 125.182 55.84 125.922 56.9C126.682 57.94 127.882 58.46 129.522 58.46ZM142.392 45.74V55.34C142.392 56.38 142.612 57.15 143.052 57.65C143.492 58.13 144.172 58.37 145.092 58.37C145.692 58.37 146.372 58.26 147.132 58.04V59.36C146.292 59.64 145.522 59.78 144.822 59.78C143.442 59.78 142.392 59.41 141.672 58.67C140.952 57.91 140.592 56.79 140.592 55.31V45.74H138.312V44.45L140.652 44.36L140.832 40.58L142.392 40.3999V44.36H146.922V45.74H142.392ZM172.45 58.61C170.67 59.47 168.73 59.9 166.63 59.9C163.63 59.9 161.29 58.94 159.61 57.02C157.93 55.08 157.09 52.39 157.09 48.95C157.09 45.53 157.92 42.85 159.58 40.91C161.26 38.97 163.56 38 166.48 38C168.46 38 170.31 38.4299 172.03 39.2899V40.8199C170.27 39.9599 168.47 39.53 166.63 39.53C164.19 39.53 162.32 40.34 161.02 41.96C159.72 43.58 159.07 45.91 159.07 48.95C159.07 52.01 159.72 54.35 161.02 55.97C162.34 57.57 164.26 58.37 166.78 58.37C168.12 58.37 169.43 58.16 170.71 57.74V50.12H167.98L168.19 48.59H172.45V58.61ZM186.091 59.51L185.971 58.46C184.251 59.42 182.551 59.9 180.871 59.9C179.331 59.9 178.111 59.5 177.211 58.7C176.311 57.88 175.861 56.76 175.861 55.34C175.861 53.84 176.361 52.7 177.361 51.92C178.381 51.12 179.871 50.72 181.831 50.72C183.011 50.72 184.351 50.86 185.851 51.14V49.1C185.851 46.6 184.441 45.35 181.621 45.35C180.881 45.35 180.071 45.45 179.191 45.65C178.311 45.85 177.501 46.11 176.761 46.43V45.02C177.481 44.68 178.301 44.41 179.221 44.21C180.161 44.01 181.051 43.91 181.891 43.91C183.771 43.91 185.191 44.36 186.151 45.26C187.131 46.14 187.621 47.42 187.621 49.1V59.36L186.091 59.51ZM181.291 58.46C182.011 58.46 182.771 58.35 183.571 58.13C184.371 57.91 185.131 57.61 185.851 57.23V52.43C184.591 52.19 183.351 52.07 182.131 52.07C180.591 52.07 179.471 52.33 178.771 52.85C178.071 53.37 177.721 54.19 177.721 55.31C177.721 57.41 178.911 58.46 181.291 58.46ZM210.497 59.45V48.74C210.497 46.48 209.427 45.35 207.287 45.35C206.047 45.35 204.627 45.8 203.027 46.7C203.187 47.24 203.267 47.82 203.267 48.44V59.45H201.467V48.74C201.467 46.48 200.397 45.35 198.257 45.35C197.057 45.35 195.717 45.76 194.237 46.58V59.45H192.437V44.45L193.967 44.3L194.087 45.35C195.787 44.39 197.327 43.91 198.707 43.91C200.467 43.91 201.737 44.49 202.517 45.65C204.457 44.49 206.197 43.91 207.737 43.91C209.197 43.91 210.317 44.3 211.097 45.08C211.897 45.86 212.297 46.98 212.297 48.44V59.45H210.497ZM227.755 58.91C226.375 59.57 224.895 59.9 223.315 59.9C221.015 59.9 219.245 59.22 218.005 57.86C216.765 56.5 216.145 54.55 216.145 52.01C216.145 49.49 216.725 47.51 217.885 46.07C219.045 44.63 220.635 43.91 222.655 43.91C224.435 43.91 225.835 44.47 226.855 45.59C227.895 46.69 228.415 48.2 228.415 50.12C228.415 50.84 228.355 51.53 228.235 52.19H217.915C217.935 56.37 219.785 58.46 223.465 58.46C224.945 58.46 226.375 58.14 227.755 57.5V58.91ZM222.625 45.32C221.265 45.32 220.155 45.82 219.295 46.82C218.435 47.82 217.975 49.16 217.915 50.84H226.675C226.715 50.52 226.735 50.24 226.735 50C226.735 48.52 226.375 47.37 225.655 46.55C224.935 45.73 223.925 45.32 222.625 45.32ZM231.257 57.47C232.757 58.13 234.307 58.46 235.907 58.46C238.607 58.46 239.957 57.41 239.957 55.31C239.957 54.63 239.757 54.08 239.357 53.66C238.977 53.24 238.337 52.89 237.437 52.61L235.157 51.89C233.877 51.49 232.947 50.99 232.367 50.39C231.787 49.77 231.497 48.99 231.497 48.05C231.497 46.79 231.987 45.79 232.967 45.05C233.967 44.29 235.307 43.91 236.987 43.91C238.407 43.91 239.757 44.18 241.037 44.72V46.13C239.697 45.61 238.377 45.35 237.077 45.35C235.897 45.35 234.967 45.59 234.287 46.07C233.627 46.53 233.297 47.17 233.297 47.99C233.297 48.57 233.477 49.04 233.837 49.4C234.217 49.74 234.887 50.07 235.847 50.39L238.217 51.17C239.437 51.57 240.327 52.1 240.887 52.76C241.467 53.42 241.757 54.26 241.757 55.28C241.757 56.76 241.257 57.9 240.257 58.7C239.257 59.5 237.847 59.9 236.027 59.9C234.347 59.9 232.837 59.59 231.497 58.97L231.257 57.47ZM246.78 53.45L246.51 38.4499L248.43 38.21L248.16 53.45H246.78ZM247.47 59.6C247.07 59.6 246.74 59.48 246.48 59.24C246.22 58.98 246.09 58.64 246.09 58.22C246.09 57.8 246.22 57.47 246.48 57.23C246.74 56.97 247.07 56.84 247.47 56.84C247.87 56.84 248.2 56.97 248.46 57.23C248.72 57.47 248.85 57.8 248.85 58.22C248.85 58.64 248.72 58.98 248.46 59.24C248.2 59.48 247.87 59.6 247.47 59.6Z" fill="#013D5B"/>
</svg>
