<svg width="502" height="26" viewBox="0 0 502 26" fill="none" xmlns="http://www.w3.org/2000/svg">
<path d="M2.45012e-05 17.175C1.75002 17.9417 3.40836 18.325 4.97502 18.325C6.45836 18.325 7.60002 18 8.40003 17.35C9.21669 16.6833 9.62502 15.7333 9.62502 14.5C9.62502 13.5667 9.35836 12.8167 8.82502 12.25C8.29169 11.6833 7.40002 11.2083 6.15002 10.825L4.37502 10.275C3.00836 9.85834 2.00836 9.31667 1.37502 8.65001C0.741691 7.96667 0.425025 7.10001 0.425025 6.05001C0.425025 4.63334 0.958358 3.5 2.02502 2.65C3.10836 1.78334 4.55002 1.35001 6.35002 1.35001C7.80002 1.35001 9.20002 1.65834 10.55 2.27501V3.52501C9.11669 2.92501 7.73336 2.62501 6.40002 2.62501C5.03336 2.62501 3.96669 2.92501 3.20002 3.52501C2.43336 4.10834 2.05002 4.93334 2.05002 6.00001C2.05002 6.75001 2.26669 7.34167 2.70002 7.77501C3.13336 8.20834 3.89169 8.60001 4.97502 8.95001L6.75002 9.52501C8.35002 10.0417 9.50003 10.6917 10.2 11.475C10.9 12.2417 11.25 13.2417 11.25 14.475C11.25 16.0583 10.6917 17.3083 9.57502 18.225C8.47503 19.1417 6.96669 19.6 5.05002 19.6C3.28336 19.6 1.68336 19.2417 0.250024 18.525L2.45012e-05 17.175ZM22.8272 19.225V10.55C22.8272 8.50001 21.7855 7.47501 19.7022 7.47501C19.1522 7.47501 18.5438 7.56667 17.8772 7.75001C17.2272 7.93334 16.5855 8.18334 15.9522 8.50001V19.225H14.4522V6.72501L15.7272 6.60001L15.8272 7.47501C17.2772 6.67501 18.6938 6.27501 20.0772 6.27501C21.4272 6.27501 22.4688 6.62501 23.2022 7.32501C23.9522 8.02501 24.3272 9.01667 24.3272 10.3V19.225H22.8272ZM36.0438 19.275L35.9438 18.4C34.5104 19.2 33.0938 19.6 31.6938 19.6C30.4104 19.6 29.3938 19.2667 28.6438 18.6C27.8938 17.9167 27.5188 16.9833 27.5188 15.8C27.5188 14.55 27.9354 13.6 28.7688 12.95C29.6188 12.2833 30.8604 11.95 32.4938 11.95C33.4771 11.95 34.5938 12.0667 35.8438 12.3V10.6C35.8438 8.51667 34.6688 7.47501 32.3188 7.47501C31.7021 7.47501 31.0271 7.55834 30.2938 7.72501C29.5604 7.89167 28.8854 8.10834 28.2688 8.37501V7.20001C28.8688 6.91667 29.5521 6.69167 30.3188 6.52501C31.1021 6.35834 31.8438 6.27501 32.5438 6.27501C34.1104 6.27501 35.2938 6.65001 36.0938 7.40001C36.9104 8.13334 37.3188 9.20001 37.3188 10.6V19.15L36.0438 19.275ZM32.0438 18.4C32.6438 18.4 33.2771 18.3083 33.9438 18.125C34.6104 17.9417 35.2438 17.6917 35.8438 17.375V13.375C34.7938 13.175 33.7604 13.075 32.7438 13.075C31.4604 13.075 30.5271 13.2917 29.9438 13.725C29.3604 14.1583 29.0688 14.8417 29.0688 15.775C29.0688 17.525 30.0604 18.4 32.0438 18.4ZM45.4321 25.05C43.9487 25.05 42.6904 24.7917 41.6571 24.275L41.4571 23C42.8237 23.5667 44.1237 23.85 45.3571 23.85C48.1404 23.85 49.5321 22.5583 49.5321 19.975V18.25C48.8987 18.6 48.2487 18.875 47.5821 19.075C46.9321 19.275 46.3237 19.375 45.7571 19.375C44.1237 19.375 42.8404 18.825 41.9071 17.725C40.9737 16.625 40.5071 15.1 40.5071 13.15C40.5071 10.9333 41.0321 9.23334 42.0821 8.05001C43.1487 6.86667 44.6821 6.27501 46.6821 6.27501C48.1987 6.27501 49.6487 6.54167 51.0321 7.07501V19.85C51.0321 21.5167 50.5487 22.8 49.5821 23.7C48.6154 24.6 47.2321 25.05 45.4321 25.05ZM45.9571 18.175C46.5071 18.175 47.0987 18.0833 47.7321 17.9C48.3654 17.7167 48.9654 17.4667 49.5321 17.15V7.87501C48.6654 7.60834 47.7571 7.47501 46.8071 7.47501C45.2071 7.47501 44.0154 7.94167 43.2321 8.87501C42.4654 9.79167 42.0821 11.2083 42.0821 13.125C42.0821 14.775 42.4071 16.0333 43.0571 16.9C43.7237 17.75 44.6904 18.175 45.9571 18.175ZM59.7987 17.325C61.2653 18.0417 62.7737 18.4 64.3237 18.4C65.7237 18.4 66.8403 18.0583 67.6737 17.375C68.507 16.6917 68.9237 15.7667 68.9237 14.6C68.9237 13.4667 68.532 12.5583 67.7487 11.875C66.9653 11.1917 65.907 10.85 64.5737 10.85H63.0987V9.65001H64.5237C65.7237 9.65001 66.6737 9.35001 67.3737 8.75001C68.0737 8.15001 68.4237 7.34167 68.4237 6.32501C68.4237 5.25834 68.0653 4.425 67.3487 3.825C66.632 3.22501 65.6403 2.92501 64.3737 2.92501C63.0403 2.92501 61.732 3.20001 60.4487 3.75001V2.55C61.6487 2 62.9987 1.725 64.4987 1.725C66.1153 1.725 67.432 2.15 68.4487 3C69.482 3.83334 69.9987 4.90834 69.9987 6.22501C69.9987 7.19167 69.7153 8.02501 69.1487 8.72501C68.5987 9.42501 67.8237 9.92501 66.8237 10.225C67.9737 10.5083 68.8737 11.05 69.5237 11.85C70.1737 12.6333 70.4987 13.5667 70.4987 14.65C70.4987 15.6333 70.232 16.5083 69.6987 17.275C69.182 18.025 68.4653 18.6 67.5487 19C66.6487 19.4 65.6237 19.6 64.4737 19.6C63.6737 19.6 62.8737 19.5083 62.0737 19.325C61.2737 19.1583 60.5903 18.925 60.0237 18.625L59.7987 17.325ZM78.0737 19.225L87.1237 2.1H88.4737L79.4237 19.225H78.0737ZM76.8737 11.95C77.757 11.95 78.407 11.5833 78.8237 10.85C79.257 10.1167 79.4737 8.96667 79.4737 7.40001C79.4737 5.83334 79.257 4.68334 78.8237 3.95001C78.407 3.21667 77.757 2.85001 76.8737 2.85001C75.9903 2.85001 75.332 3.21667 74.8987 3.95001C74.482 4.68334 74.2737 5.83334 74.2737 7.40001C74.2737 8.96667 74.482 10.1167 74.8987 10.85C75.332 11.5833 75.9903 11.95 76.8737 11.95ZM76.8737 12.95C75.5903 12.95 74.607 12.4833 73.9237 11.55C73.2403 10.6 72.8987 9.21667 72.8987 7.40001C72.8987 5.58334 73.2403 4.20834 73.9237 3.27501C74.607 2.32501 75.5903 1.85 76.8737 1.85C78.157 1.85 79.1403 2.32501 79.8237 3.27501C80.507 4.20834 80.8487 5.58334 80.8487 7.40001C80.8487 9.21667 80.507 10.6 79.8237 11.55C79.1403 12.4833 78.157 12.95 76.8737 12.95ZM89.6737 18.475C90.557 18.475 91.207 18.1083 91.6237 17.375C92.057 16.6417 92.2737 15.4917 92.2737 13.925C92.2737 12.3583 92.057 11.2083 91.6237 10.475C91.207 9.74167 90.557 9.37501 89.6737 9.37501C88.7903 9.37501 88.132 9.74167 87.6987 10.475C87.282 11.2083 87.0737 12.3583 87.0737 13.925C87.0737 15.4917 87.282 16.6417 87.6987 17.375C88.132 18.1083 88.7903 18.475 89.6737 18.475ZM89.6737 19.475C88.3903 19.475 87.407 19.0083 86.7237 18.075C86.0403 17.125 85.6987 15.7417 85.6987 13.925C85.6987 12.1083 86.0403 10.7333 86.7237 9.80001C87.407 8.85001 88.3903 8.37501 89.6737 8.37501C90.957 8.37501 91.9403 8.85001 92.6237 9.80001C93.307 10.7333 93.6487 12.1083 93.6487 13.925C93.6487 15.7417 93.307 17.125 92.6237 18.075C91.9403 19.0083 90.957 19.475 89.6737 19.475ZM111.326 18.775C110.226 19.325 109.026 19.6 107.726 19.6C105.96 19.6 104.593 19.025 103.626 17.875C102.676 16.725 102.201 15.0833 102.201 12.95C102.201 10.8167 102.676 9.17501 103.626 8.02501C104.593 6.85834 105.96 6.27501 107.726 6.27501C108.976 6.27501 110.16 6.55001 111.276 7.10001V8.27501C110.11 7.75834 108.976 7.50001 107.876 7.50001C106.526 7.50001 105.501 7.95834 104.801 8.87501C104.118 9.79167 103.776 11.15 103.776 12.95C103.776 14.7333 104.118 16.0833 104.801 17C105.501 17.9167 106.526 18.375 107.876 18.375C109.01 18.375 110.16 18.1167 111.326 17.6V18.775ZM122.25 19.275L122.15 18.4C120.716 19.2 119.3 19.6 117.9 19.6C116.616 19.6 115.6 19.2667 114.85 18.6C114.1 17.9167 113.725 16.9833 113.725 15.8C113.725 14.55 114.141 13.6 114.975 12.95C115.825 12.2833 117.066 11.95 118.7 11.95C119.683 11.95 120.8 12.0667 122.05 12.3V10.6C122.05 8.51667 120.875 7.47501 118.525 7.47501C117.908 7.47501 117.233 7.55834 116.5 7.72501C115.766 7.89167 115.091 8.10834 114.475 8.37501V7.20001C115.075 6.91667 115.758 6.69167 116.525 6.52501C117.308 6.35834 118.05 6.27501 118.75 6.27501C120.316 6.27501 121.5 6.65001 122.3 7.40001C123.116 8.13334 123.525 9.20001 123.525 10.6V19.15L122.25 19.275ZM118.25 18.4C118.85 18.4 119.483 18.3083 120.15 18.125C120.816 17.9417 121.45 17.6917 122.05 17.375V13.375C121 13.175 119.966 13.075 118.95 13.075C117.666 13.075 116.733 13.2917 116.15 13.725C115.566 14.1583 115.275 14.8417 115.275 15.775C115.275 17.525 116.266 18.4 118.25 18.4ZM126.563 17.575C127.813 18.125 129.105 18.4 130.438 18.4C132.688 18.4 133.813 17.525 133.813 15.775C133.813 15.2083 133.646 14.75 133.313 14.4C132.996 14.05 132.463 13.7583 131.713 13.525L129.813 12.925C128.746 12.5917 127.971 12.175 127.488 11.675C127.005 11.1583 126.763 10.5083 126.763 9.72501C126.763 8.67501 127.171 7.84167 127.988 7.22501C128.821 6.59167 129.938 6.27501 131.338 6.27501C132.521 6.27501 133.646 6.50001 134.713 6.95001V8.12501C133.596 7.69167 132.496 7.47501 131.413 7.47501C130.43 7.47501 129.655 7.67501 129.088 8.07501C128.538 8.45834 128.263 8.99167 128.263 9.67501C128.263 10.1583 128.413 10.55 128.713 10.85C129.03 11.1333 129.588 11.4083 130.388 11.675L132.363 12.325C133.38 12.6583 134.121 13.1 134.588 13.65C135.071 14.2 135.313 14.9 135.313 15.75C135.313 16.9833 134.896 17.9333 134.063 18.6C133.23 19.2667 132.055 19.6 130.538 19.6C129.138 19.6 127.88 19.3417 126.763 18.825L126.563 17.575ZM138.549 19.225V0.450005L140.049 0.250005V7.42501C141.449 6.65834 142.824 6.27501 144.174 6.27501C145.524 6.27501 146.566 6.62501 147.299 7.32501C148.049 8.02501 148.424 9.01667 148.424 10.3V19.225H146.924V10.55C146.924 8.50001 145.882 7.47501 143.799 7.47501C143.249 7.47501 142.641 7.56667 141.974 7.75001C141.324 7.93334 140.682 8.18334 140.049 8.50001V19.225H138.549ZM160.19 7.40001C160.824 7.05001 161.465 6.77501 162.115 6.57501C162.782 6.37501 163.399 6.27501 163.965 6.27501C165.599 6.27501 166.882 6.85001 167.815 8.00001C168.749 9.13334 169.215 10.7083 169.215 12.725C169.215 14.9417 168.682 16.6417 167.615 17.825C166.565 19.0083 165.04 19.6 163.04 19.6C161.624 19.6 160.174 19.3667 158.69 18.9V0.450005L160.19 0.250005V7.40001ZM163.765 7.47501C163.215 7.47501 162.624 7.56667 161.99 7.75001C161.357 7.93334 160.757 8.18334 160.19 8.50001V18C161.057 18.2667 161.965 18.4 162.915 18.4C164.515 18.4 165.699 17.9417 166.465 17.025C167.249 16.0917 167.64 14.6667 167.64 12.75C167.64 11.0333 167.307 9.72501 166.64 8.82501C165.99 7.92501 165.032 7.47501 163.765 7.47501ZM180.282 19.275L180.182 18.4C178.749 19.2 177.332 19.6 175.932 19.6C174.649 19.6 173.632 19.2667 172.882 18.6C172.132 17.9167 171.757 16.9833 171.757 15.8C171.757 14.55 172.174 13.6 173.007 12.95C173.857 12.2833 175.099 11.95 176.732 11.95C177.715 11.95 178.832 12.0667 180.082 12.3V10.6C180.082 8.51667 178.907 7.47501 176.557 7.47501C175.94 7.47501 175.265 7.55834 174.532 7.72501C173.799 7.89167 173.124 8.10834 172.507 8.37501V7.20001C173.107 6.91667 173.79 6.69167 174.557 6.52501C175.34 6.35834 176.082 6.27501 176.782 6.27501C178.349 6.27501 179.532 6.65001 180.332 7.40001C181.149 8.13334 181.557 9.20001 181.557 10.6V19.15L180.282 19.275ZM176.282 18.4C176.882 18.4 177.515 18.3083 178.182 18.125C178.849 17.9417 179.482 17.6917 180.082 17.375V13.375C179.032 13.175 177.999 13.075 176.982 13.075C175.699 13.075 174.765 13.2917 174.182 13.725C173.599 14.1583 173.307 14.8417 173.307 15.775C173.307 17.525 174.299 18.4 176.282 18.4ZM193.87 18.775C192.77 19.325 191.57 19.6 190.27 19.6C188.504 19.6 187.137 19.025 186.17 17.875C185.22 16.725 184.745 15.0833 184.745 12.95C184.745 10.8167 185.22 9.17501 186.17 8.02501C187.137 6.85834 188.504 6.27501 190.27 6.27501C191.52 6.27501 192.704 6.55001 193.82 7.10001V8.27501C192.654 7.75834 191.52 7.50001 190.42 7.50001C189.07 7.50001 188.045 7.95834 187.345 8.87501C186.662 9.79167 186.32 11.15 186.32 12.95C186.32 14.7333 186.662 16.0833 187.345 17C188.045 17.9167 189.07 18.375 190.42 18.375C191.554 18.375 192.704 18.1167 193.87 17.6V18.775ZM197.094 19.225V0.450005L198.594 0.250005V12.225L204.494 6.65001H206.269L200.094 12.5L206.469 19.225H204.569L198.594 12.875V19.225H197.094ZM219.518 19.6C217.701 19.6 216.326 19.0417 215.393 17.925C214.476 16.7917 214.018 15.125 214.018 12.925C214.018 10.7417 214.476 9.09167 215.393 7.97501C216.326 6.84167 217.701 6.27501 219.518 6.27501C221.334 6.27501 222.701 6.84167 223.618 7.97501C224.551 9.09167 225.018 10.7417 225.018 12.925C225.018 15.125 224.551 16.7917 223.618 17.925C222.701 19.0417 221.334 19.6 219.518 19.6ZM219.518 18.4C220.884 18.4 221.876 17.9667 222.493 17.1C223.126 16.2167 223.443 14.825 223.443 12.925C223.443 11.0417 223.126 9.66667 222.493 8.80001C221.876 7.91667 220.884 7.47501 219.518 7.47501C218.151 7.47501 217.151 7.91667 216.518 8.80001C215.901 9.66667 215.593 11.0417 215.593 12.925C215.593 14.825 215.901 16.2167 216.518 17.1C217.151 17.9667 218.151 18.4 219.518 18.4ZM236.768 19.225V10.55C236.768 8.50001 235.726 7.47501 233.643 7.47501C233.093 7.47501 232.484 7.56667 231.818 7.75001C231.168 7.93334 230.526 8.18334 229.893 8.50001V19.225H228.393V6.72501L229.668 6.60001L229.768 7.47501C231.218 6.67501 232.634 6.27501 234.018 6.27501C235.368 6.27501 236.409 6.62501 237.143 7.32501C237.893 8.02501 238.268 9.01667 238.268 10.3V19.225H236.768ZM248.884 19.225V7.80001H246.984V6.72501L248.884 6.65001V3.825C248.884 2.59167 249.184 1.65 249.784 1.00001C250.401 0.333338 251.293 4.76837e-06 252.459 4.76837e-06C253.093 4.76837e-06 253.734 0.116671 254.384 0.350005V1.45001C253.784 1.26667 253.209 1.175 252.659 1.175C251.876 1.175 251.301 1.38334 250.934 1.80001C250.568 2.20001 250.384 2.83334 250.384 3.7V6.65001H253.759V7.80001H250.384V19.225H248.884ZM260.973 19.6C259.156 19.6 257.781 19.0417 256.848 17.925C255.931 16.7917 255.473 15.125 255.473 12.925C255.473 10.7417 255.931 9.09167 256.848 7.97501C257.781 6.84167 259.156 6.27501 260.973 6.27501C262.79 6.27501 264.156 6.84167 265.073 7.97501C266.006 9.09167 266.473 10.7417 266.473 12.925C266.473 15.125 266.006 16.7917 265.073 17.925C264.156 19.0417 262.79 19.6 260.973 19.6ZM260.973 18.4C262.34 18.4 263.331 17.9667 263.948 17.1C264.581 16.2167 264.898 14.825 264.898 12.925C264.898 11.0417 264.581 9.66667 263.948 8.80001C263.331 7.91667 262.34 7.47501 260.973 7.47501C259.606 7.47501 258.606 7.91667 257.973 8.80001C257.356 9.66667 257.048 11.0417 257.048 12.925C257.048 14.825 257.356 16.2167 257.973 17.1C258.606 17.9667 259.606 18.4 260.973 18.4ZM274.523 19.6C272.706 19.6 271.331 19.0417 270.398 17.925C269.481 16.7917 269.023 15.125 269.023 12.925C269.023 10.7417 269.481 9.09167 270.398 7.97501C271.331 6.84167 272.706 6.27501 274.523 6.27501C276.339 6.27501 277.706 6.84167 278.623 7.97501C279.556 9.09167 280.023 10.7417 280.023 12.925C280.023 15.125 279.556 16.7917 278.623 17.925C277.706 19.0417 276.339 19.6 274.523 19.6ZM274.523 18.4C275.889 18.4 276.881 17.9667 277.498 17.1C278.131 16.2167 278.448 14.825 278.448 12.925C278.448 11.0417 278.131 9.66667 277.498 8.80001C276.881 7.91667 275.889 7.47501 274.523 7.47501C273.156 7.47501 272.156 7.91667 271.523 8.80001C270.906 9.66667 270.598 11.0417 270.598 12.925C270.598 14.825 270.906 16.2167 271.523 17.1C272.156 17.9667 273.156 18.4 274.523 18.4ZM293.097 0.250005V19.15L291.822 19.275L291.722 18.4C290.306 19.2 289.006 19.6 287.822 19.6C286.189 19.6 284.906 19.0333 283.972 17.9C283.039 16.75 282.572 15.1667 282.572 13.15C282.572 10.9333 283.097 9.23334 284.147 8.05001C285.214 6.86667 286.747 6.27501 288.747 6.27501C289.781 6.27501 290.731 6.40834 291.597 6.67501V0.450005L293.097 0.250005ZM288.022 18.4C288.572 18.4 289.164 18.3083 289.797 18.125C290.431 17.9417 291.031 17.6917 291.597 17.375V7.87501C290.731 7.60834 289.822 7.47501 288.872 7.47501C287.272 7.47501 286.081 7.94167 285.297 8.87501C284.531 9.79167 284.147 11.2083 284.147 13.125C284.147 14.8417 284.472 16.15 285.122 17.05C285.789 17.95 286.756 18.4 288.022 18.4ZM311.239 19.275L311.139 18.4C309.706 19.2 308.289 19.6 306.889 19.6C305.606 19.6 304.589 19.2667 303.839 18.6C303.089 17.9167 302.714 16.9833 302.714 15.8C302.714 14.55 303.131 13.6 303.964 12.95C304.814 12.2833 306.056 11.95 307.689 11.95C308.672 11.95 309.789 12.0667 311.039 12.3V10.6C311.039 8.51667 309.864 7.47501 307.514 7.47501C306.897 7.47501 306.222 7.55834 305.489 7.72501C304.756 7.89167 304.081 8.10834 303.464 8.37501V7.20001C304.064 6.91667 304.747 6.69167 305.514 6.52501C306.297 6.35834 307.039 6.27501 307.739 6.27501C309.306 6.27501 310.489 6.65001 311.289 7.40001C312.106 8.13334 312.514 9.20001 312.514 10.6V19.15L311.239 19.275ZM307.239 18.4C307.839 18.4 308.472 18.3083 309.139 18.125C309.806 17.9417 310.439 17.6917 311.039 17.375V13.375C309.989 13.175 308.956 13.075 307.939 13.075C306.656 13.075 305.722 13.2917 305.139 13.725C304.556 14.1583 304.264 14.8417 304.264 15.775C304.264 17.525 305.256 18.4 307.239 18.4ZM324.902 19.225V10.55C324.902 8.50001 323.861 7.47501 321.777 7.47501C321.227 7.47501 320.619 7.56667 319.952 7.75001C319.302 7.93334 318.661 8.18334 318.027 8.50001V19.225H316.527V6.72501L317.802 6.60001L317.902 7.47501C319.352 6.67501 320.769 6.27501 322.152 6.27501C323.502 6.27501 324.544 6.62501 325.277 7.32501C326.027 8.02501 326.402 9.01667 326.402 10.3V19.225H324.902ZM340.119 0.250005V19.15L338.844 19.275L338.744 18.4C337.327 19.2 336.027 19.6 334.844 19.6C333.211 19.6 331.927 19.0333 330.994 17.9C330.061 16.75 329.594 15.1667 329.594 13.15C329.594 10.9333 330.119 9.23334 331.169 8.05001C332.236 6.86667 333.769 6.27501 335.769 6.27501C336.802 6.27501 337.752 6.40834 338.619 6.67501V0.450005L340.119 0.250005ZM335.044 18.4C335.594 18.4 336.186 18.3083 336.819 18.125C337.452 17.9417 338.052 17.6917 338.619 17.375V7.87501C337.752 7.60834 336.844 7.47501 335.894 7.47501C334.294 7.47501 333.102 7.94167 332.319 8.87501C331.552 9.79167 331.169 11.2083 331.169 13.125C331.169 14.8417 331.494 16.15 332.144 17.05C332.811 17.95 333.777 18.4 335.044 18.4ZM350.911 19.225V7.80001H349.011V6.72501L350.911 6.65001V3.825C350.911 2.59167 351.211 1.65 351.811 1.00001C352.427 0.333338 353.319 4.76837e-06 354.486 4.76837e-06C355.119 4.76837e-06 355.761 0.116671 356.411 0.350005V1.45001C355.811 1.26667 355.236 1.175 354.686 1.175C353.902 1.175 353.327 1.38334 352.961 1.80001C352.594 2.20001 352.411 2.83334 352.411 3.7V6.65001H355.786V7.80001H352.411V19.225H350.911ZM359.893 6.65001V15.325C359.893 17.375 360.902 18.4 362.918 18.4C363.468 18.4 364.068 18.3083 364.718 18.125C365.385 17.9417 366.035 17.6917 366.668 17.375V6.65001H368.168V19.15L366.893 19.275L366.793 18.4C365.343 19.2 363.927 19.6 362.543 19.6C361.227 19.6 360.202 19.25 359.468 18.55C358.752 17.8333 358.393 16.8417 358.393 15.575V6.65001H359.893ZM380.737 19.225V10.55C380.737 8.50001 379.696 7.47501 377.612 7.47501C377.062 7.47501 376.454 7.56667 375.787 7.75001C375.137 7.93334 374.496 8.18334 373.862 8.50001V19.225H372.362V6.72501L373.637 6.60001L373.737 7.47501C375.187 6.67501 376.604 6.27501 377.987 6.27501C379.337 6.27501 380.379 6.62501 381.112 7.32501C381.862 8.02501 382.237 9.01667 382.237 10.3V19.225H380.737ZM402.754 19.225L399.379 8.32501L396.104 19.225H394.679L390.679 6.65001H392.204L395.404 17.375L398.554 6.65001H400.229L403.429 17.45L406.604 6.65001H408.054L404.179 19.225H402.754ZM410.424 19.225V6.77501L411.924 6.57501V19.225H410.424ZM411.174 3.60001C410.841 3.60001 410.566 3.50001 410.349 3.30001C410.149 3.10001 410.049 2.82501 410.049 2.47501C410.049 2.12501 410.149 1.85001 410.349 1.65001C410.566 1.45001 410.841 1.35001 411.174 1.35001C411.507 1.35001 411.774 1.45001 411.974 1.65001C412.191 1.85001 412.299 2.12501 412.299 2.47501C412.299 2.82501 412.191 3.10001 411.974 3.30001C411.774 3.50001 411.507 3.60001 411.174 3.60001ZM417.962 7.80001V15.8C417.962 16.6667 418.146 17.3083 418.512 17.725C418.879 18.125 419.446 18.325 420.212 18.325C420.712 18.325 421.279 18.2333 421.912 18.05V19.15C421.212 19.3833 420.571 19.5 419.987 19.5C418.837 19.5 417.962 19.1917 417.362 18.575C416.762 17.9417 416.462 17.0083 416.462 15.775V7.80001H414.562V6.72501L416.512 6.65001L416.662 3.50001L417.962 3.35V6.65001H421.737V7.80001H417.962ZM424.511 19.225V0.450005L426.011 0.250005V7.42501C427.411 6.65834 428.786 6.27501 430.136 6.27501C431.486 6.27501 432.527 6.62501 433.261 7.32501C434.011 8.02501 434.386 9.01667 434.386 10.3V19.225H432.886V10.55C432.886 8.50001 431.844 7.47501 429.761 7.47501C429.211 7.47501 428.602 7.56667 427.936 7.75001C427.286 7.93334 426.644 8.18334 426.011 8.50001V19.225H424.511ZM443.652 17.175C445.402 17.9417 447.061 18.325 448.627 18.325C450.111 18.325 451.252 18 452.052 17.35C452.869 16.6833 453.277 15.7333 453.277 14.5C453.277 13.5667 453.011 12.8167 452.477 12.25C451.944 11.6833 451.052 11.2083 449.802 10.825L448.027 10.275C446.661 9.85834 445.661 9.31667 445.027 8.65001C444.394 7.96667 444.077 7.10001 444.077 6.05001C444.077 4.63334 444.611 3.5 445.677 2.65C446.761 1.78334 448.202 1.35001 450.002 1.35001C451.452 1.35001 452.852 1.65834 454.202 2.27501V3.52501C452.769 2.92501 451.386 2.62501 450.052 2.62501C448.686 2.62501 447.619 2.92501 446.852 3.52501C446.086 4.10834 445.702 4.93334 445.702 6.00001C445.702 6.75001 445.919 7.34167 446.352 7.77501C446.786 8.20834 447.544 8.60001 448.627 8.95001L450.402 9.52501C452.002 10.0417 453.152 10.6917 453.852 11.475C454.552 12.2417 454.902 13.2417 454.902 14.475C454.902 16.0583 454.344 17.3083 453.227 18.225C452.127 19.1417 450.619 19.6 448.702 19.6C446.936 19.6 445.336 19.2417 443.902 18.525L443.652 17.175ZM465.805 19.275L465.705 18.4C464.271 19.2 462.855 19.6 461.455 19.6C460.171 19.6 459.155 19.2667 458.405 18.6C457.655 17.9167 457.28 16.9833 457.28 15.8C457.28 14.55 457.696 13.6 458.53 12.95C459.38 12.2833 460.621 11.95 462.255 11.95C463.238 11.95 464.355 12.0667 465.605 12.3V10.6C465.605 8.51667 464.43 7.47501 462.08 7.47501C461.463 7.47501 460.788 7.55834 460.055 7.72501C459.321 7.89167 458.646 8.10834 458.03 8.37501V7.20001C458.63 6.91667 459.313 6.69167 460.08 6.52501C460.863 6.35834 461.605 6.27501 462.305 6.27501C463.871 6.27501 465.055 6.65001 465.855 7.40001C466.671 8.13334 467.08 9.20001 467.08 10.6V19.15L465.805 19.275ZM461.805 18.4C462.405 18.4 463.038 18.3083 463.705 18.125C464.371 17.9417 465.005 17.6917 465.605 17.375V13.375C464.555 13.175 463.521 13.075 462.505 13.075C461.221 13.075 460.288 13.2917 459.705 13.725C459.121 14.1583 458.83 14.8417 458.83 15.775C458.83 17.525 459.821 18.4 461.805 18.4ZM473.943 19.225L469.193 6.65001H470.768L474.693 17.625L478.743 6.65001H480.243L475.393 19.225H473.943ZM486.974 19.6C485.157 19.6 483.782 19.0417 482.849 17.925C481.932 16.7917 481.474 15.125 481.474 12.925C481.474 10.7417 481.932 9.09167 482.849 7.97501C483.782 6.84167 485.157 6.27501 486.974 6.27501C488.791 6.27501 490.157 6.84167 491.074 7.97501C492.007 9.09167 492.474 10.7417 492.474 12.925C492.474 15.125 492.007 16.7917 491.074 17.925C490.157 19.0417 488.791 19.6 486.974 19.6ZM486.974 18.4C488.341 18.4 489.332 17.9667 489.949 17.1C490.582 16.2167 490.899 14.825 490.899 12.925C490.899 11.0417 490.582 9.66667 489.949 8.80001C489.332 7.91667 488.341 7.47501 486.974 7.47501C485.607 7.47501 484.607 7.91667 483.974 8.80001C483.357 9.66667 483.049 11.0417 483.049 12.925C483.049 14.825 483.357 16.2167 483.974 17.1C484.607 17.9667 485.607 18.4 486.974 18.4ZM495.849 19.225V6.72501L497.124 6.60001L497.249 7.72501C498.365 6.80834 499.557 6.35 500.824 6.35C501.274 6.35 501.632 6.40001 501.899 6.50001V7.72501C501.465 7.62501 501.082 7.57501 500.749 7.57501C499.565 7.57501 498.432 8.00001 497.349 8.85001V19.225H495.849Z" fill="#013D5B"/>
</svg>
