<svg width="231" height="23" viewBox="0 0 231 23" fill="none" xmlns="http://www.w3.org/2000/svg">
<g clip-path="url(#clip0_11093_3608)">
<path d="M4.972 -9V-23.278H0.33V-24.4H11V-23.278H6.358V-9H4.972ZM13.1703 -9V-25.522L14.4903 -25.698V-19.384C15.7223 -20.0587 16.9323 -20.396 18.1203 -20.396C19.3083 -20.396 20.2249 -20.088 20.8703 -19.472C21.5303 -18.856 21.8603 -17.9833 21.8603 -16.854V-9H20.5403V-16.634C20.5403 -18.438 19.6236 -19.34 17.7903 -19.34C17.3063 -19.34 16.7709 -19.2593 16.1843 -19.098C15.6123 -18.9367 15.0476 -18.7167 14.4903 -18.438V-9H13.1703ZM33.1829 -9.396C32.1709 -8.912 31.0855 -8.67 29.9269 -8.67C28.2402 -8.67 26.9422 -9.16867 26.0329 -10.166C25.1235 -11.1633 24.6689 -12.5933 24.6689 -14.456C24.6689 -16.304 25.0942 -17.756 25.9449 -18.812C26.7955 -19.868 27.9615 -20.396 29.4429 -20.396C30.7482 -20.396 31.7749 -19.9853 32.5229 -19.164C33.2855 -18.3573 33.6669 -17.25 33.6669 -15.842C33.6669 -15.314 33.6229 -14.808 33.5349 -14.324H25.9669C25.9815 -11.2587 27.3382 -9.726 30.0369 -9.726C31.1222 -9.726 32.1709 -9.96067 33.1829 -10.43V-9.396ZM29.4209 -19.362C28.4235 -19.362 27.6095 -18.9953 26.9789 -18.262C26.3482 -17.5287 26.0109 -16.546 25.9669 -15.314H32.3909C32.4202 -15.5487 32.4349 -15.754 32.4349 -15.93C32.4349 -17.0153 32.1709 -17.8587 31.6429 -18.46C31.1149 -19.0613 30.3742 -19.362 29.4209 -19.362ZM43.4297 -19.406C43.9871 -19.714 44.5517 -19.956 45.1237 -20.132C45.7104 -20.308 46.2531 -20.396 46.7517 -20.396C48.1891 -20.396 49.3184 -19.89 50.1397 -18.878C50.9611 -17.8807 51.3717 -16.4947 51.3717 -14.72C51.3717 -12.7693 50.9024 -11.2733 49.9637 -10.232C49.0397 -9.19067 47.6977 -8.67 45.9377 -8.67C44.6911 -8.67 43.4151 -8.87533 42.1097 -9.286V-25.522L43.4297 -25.698V-19.406ZM46.5757 -19.34C46.0917 -19.34 45.5711 -19.2593 45.0137 -19.098C44.4564 -18.9367 43.9284 -18.7167 43.4297 -18.438V-10.078C44.1924 -9.84333 44.9917 -9.726 45.8277 -9.726C47.2357 -9.726 48.2771 -10.1293 48.9517 -10.936C49.6411 -11.7573 49.9857 -13.0113 49.9857 -14.698C49.9857 -16.2087 49.6924 -17.36 49.1057 -18.152C48.5337 -18.944 47.6904 -19.34 46.5757 -19.34ZM62.1223 -9.396C61.1103 -8.912 60.025 -8.67 58.8663 -8.67C57.1797 -8.67 55.8817 -9.16867 54.9723 -10.166C54.063 -11.1633 53.6083 -12.5933 53.6083 -14.456C53.6083 -16.304 54.0337 -17.756 54.8843 -18.812C55.735 -19.868 56.901 -20.396 58.3823 -20.396C59.6877 -20.396 60.7143 -19.9853 61.4623 -19.164C62.225 -18.3573 62.6063 -17.25 62.6063 -15.842C62.6063 -15.314 62.5623 -14.808 62.4743 -14.324H54.9063C54.921 -11.2587 56.2777 -9.726 58.9763 -9.726C60.0617 -9.726 61.1103 -9.96067 62.1223 -10.43V-9.396ZM58.3603 -19.362C57.363 -19.362 56.549 -18.9953 55.9183 -18.262C55.2877 -17.5287 54.9503 -16.546 54.9063 -15.314H61.3303C61.3597 -15.5487 61.3743 -15.754 61.3743 -15.93C61.3743 -17.0153 61.1103 -17.8587 60.5823 -18.46C60.0543 -19.0613 59.3137 -19.362 58.3603 -19.362ZM64.6912 -10.452C65.7912 -9.968 66.9278 -9.726 68.1012 -9.726C70.0812 -9.726 71.0712 -10.496 71.0712 -12.036C71.0712 -12.5347 70.9245 -12.938 70.6312 -13.246C70.3525 -13.554 69.8832 -13.8107 69.2232 -14.016L67.5512 -14.544C66.6125 -14.8373 65.9305 -15.204 65.5052 -15.644C65.0798 -16.0987 64.8672 -16.6707 64.8672 -17.36C64.8672 -18.284 65.2265 -19.0173 65.9452 -19.56C66.6785 -20.1173 67.6612 -20.396 68.8932 -20.396C69.9345 -20.396 70.9245 -20.198 71.8632 -19.802V-18.768C70.8805 -19.1493 69.9125 -19.34 68.9592 -19.34C68.0938 -19.34 67.4118 -19.164 66.9132 -18.812C66.4292 -18.4747 66.1872 -18.0053 66.1872 -17.404C66.1872 -16.9787 66.3192 -16.634 66.5832 -16.37C66.8618 -16.1207 67.3532 -15.8787 68.0572 -15.644L69.7952 -15.072C70.6898 -14.7787 71.3425 -14.39 71.7532 -13.906C72.1785 -13.422 72.3912 -12.806 72.3912 -12.058C72.3912 -10.9727 72.0245 -10.1367 71.2912 -9.55C70.5578 -8.96333 69.5238 -8.67 68.1892 -8.67C66.9572 -8.67 65.8498 -8.89733 64.8672 -9.352L64.6912 -10.452ZM76.8666 -19.054V-12.014C76.8666 -11.2513 77.028 -10.6867 77.3506 -10.32C77.6733 -9.968 78.172 -9.792 78.8466 -9.792C79.2866 -9.792 79.7853 -9.87267 80.3426 -10.034V-9.066C79.7266 -8.86067 79.162 -8.758 78.6486 -8.758C77.6366 -8.758 76.8666 -9.02933 76.3386 -9.572C75.8106 -10.1293 75.5466 -10.9507 75.5466 -12.036V-19.054H73.8746V-20L75.5906 -20.066L75.7226 -22.838L76.8666 -22.97V-20.066H80.1886V-19.054H76.8666ZM89.4493 -19.406C90.0066 -19.714 90.5713 -19.956 91.1433 -20.132C91.7299 -20.308 92.2726 -20.396 92.7713 -20.396C94.2086 -20.396 95.3379 -19.89 96.1593 -18.878C96.9806 -17.8807 97.3912 -16.4947 97.3912 -14.72C97.3912 -12.7693 96.9219 -11.2733 95.9833 -10.232C95.0593 -9.19067 93.7173 -8.67 91.9573 -8.67C90.7106 -8.67 89.4346 -8.87533 88.1293 -9.286V-25.522L89.4493 -25.698V-19.406ZM92.5953 -19.34C92.1113 -19.34 91.5906 -19.2593 91.0333 -19.098C90.4759 -18.9367 89.9479 -18.7167 89.4493 -18.438V-10.078C90.2119 -9.84333 91.0113 -9.726 91.8473 -9.726C93.2553 -9.726 94.2966 -10.1293 94.9713 -10.936C95.6606 -11.7573 96.0053 -13.0113 96.0053 -14.698C96.0053 -16.2087 95.7119 -17.36 95.1253 -18.152C94.5533 -18.944 93.7099 -19.34 92.5953 -19.34ZM108.142 -9.396C107.13 -8.912 106.045 -8.67 104.886 -8.67C103.199 -8.67 101.901 -9.16867 100.992 -10.166C100.083 -11.1633 99.6279 -12.5933 99.6279 -14.456C99.6279 -16.304 100.053 -17.756 100.904 -18.812C101.755 -19.868 102.921 -20.396 104.402 -20.396C105.707 -20.396 106.734 -19.9853 107.482 -19.164C108.245 -18.3573 108.626 -17.25 108.626 -15.842C108.626 -15.314 108.582 -14.808 108.494 -14.324H100.926C100.941 -11.2587 102.297 -9.726 104.996 -9.726C106.081 -9.726 107.13 -9.96067 108.142 -10.43V-9.396ZM104.38 -19.362C103.383 -19.362 102.569 -18.9953 101.938 -18.262C101.307 -17.5287 100.97 -16.546 100.926 -15.314H107.35C107.379 -15.5487 107.394 -15.754 107.394 -15.93C107.394 -17.0153 107.13 -17.8587 106.602 -18.46C106.074 -19.0613 105.333 -19.362 104.38 -19.362ZM120.105 -25.698V-9.066L118.983 -8.956L118.895 -9.726C117.648 -9.022 116.504 -8.67 115.463 -8.67C114.025 -8.67 112.896 -9.16867 112.075 -10.166C111.253 -11.178 110.843 -12.5713 110.843 -14.346C110.843 -16.2967 111.305 -17.7927 112.229 -18.834C113.167 -19.8753 114.517 -20.396 116.277 -20.396C117.186 -20.396 118.022 -20.2787 118.785 -20.044V-25.522L120.105 -25.698ZM115.639 -9.726C116.123 -9.726 116.643 -9.80667 117.201 -9.968C117.758 -10.1293 118.286 -10.3493 118.785 -10.628V-18.988C118.022 -19.2227 117.223 -19.34 116.387 -19.34C114.979 -19.34 113.93 -18.9293 113.241 -18.108C112.566 -17.3013 112.229 -16.0547 112.229 -14.368C112.229 -12.8573 112.515 -11.706 113.087 -10.914C113.673 -10.122 114.524 -9.726 115.639 -9.726ZM125.421 -19.054V-12.014C125.421 -11.2513 125.583 -10.6867 125.905 -10.32C126.228 -9.968 126.727 -9.792 127.401 -9.792C127.841 -9.792 128.34 -9.87267 128.897 -10.034V-9.066C128.281 -8.86067 127.717 -8.758 127.203 -8.758C126.191 -8.758 125.421 -9.02933 124.893 -9.572C124.365 -10.1293 124.101 -10.9507 124.101 -12.036V-19.054H122.429V-20L124.145 -20.066L124.277 -22.838L125.421 -22.97V-20.066H128.743V-19.054H125.421ZM131.184 -9V-19.956L132.504 -20.132V-9H131.184ZM131.844 -22.75C131.551 -22.75 131.309 -22.838 131.118 -23.014C130.942 -23.19 130.854 -23.432 130.854 -23.74C130.854 -24.048 130.942 -24.29 131.118 -24.466C131.309 -24.642 131.551 -24.73 131.844 -24.73C132.137 -24.73 132.372 -24.642 132.548 -24.466C132.739 -24.29 132.834 -24.048 132.834 -23.74C132.834 -23.432 132.739 -23.19 132.548 -23.014C132.372 -22.838 132.137 -22.75 131.844 -22.75ZM149.434 -9V-16.854C149.434 -18.5113 148.649 -19.34 147.08 -19.34C146.17 -19.34 145.129 -19.01 143.956 -18.35C144.073 -17.954 144.132 -17.5287 144.132 -17.074V-9H142.812V-16.854C142.812 -18.5113 142.027 -19.34 140.458 -19.34C139.578 -19.34 138.595 -19.0393 137.51 -18.438V-9H136.19V-20L137.312 -20.11L137.4 -19.34C138.646 -20.044 139.776 -20.396 140.788 -20.396C142.078 -20.396 143.01 -19.9707 143.582 -19.12C145.004 -19.9707 146.28 -20.396 147.41 -20.396C148.48 -20.396 149.302 -20.11 149.874 -19.538C150.46 -18.966 150.754 -18.1447 150.754 -17.074V-9H149.434ZM162.089 -9.396C161.077 -8.912 159.992 -8.67 158.833 -8.67C157.146 -8.67 155.848 -9.16867 154.939 -10.166C154.03 -11.1633 153.575 -12.5933 153.575 -14.456C153.575 -16.304 154 -17.756 154.851 -18.812C155.702 -19.868 156.868 -20.396 158.349 -20.396C159.654 -20.396 160.681 -19.9853 161.429 -19.164C162.192 -18.3573 162.573 -17.25 162.573 -15.842C162.573 -15.314 162.529 -14.808 162.441 -14.324H154.873C154.888 -11.2587 156.244 -9.726 158.943 -9.726C160.028 -9.726 161.077 -9.96067 162.089 -10.43V-9.396ZM158.327 -19.362C157.33 -19.362 156.516 -18.9953 155.885 -18.262C155.254 -17.5287 154.917 -16.546 154.873 -15.314H161.297C161.326 -15.5487 161.341 -15.754 161.341 -15.93C161.341 -17.0153 161.077 -17.8587 160.549 -18.46C160.021 -19.0613 159.28 -19.362 158.327 -19.362ZM170.158 -10.452C171.258 -9.968 172.395 -9.726 173.568 -9.726C175.548 -9.726 176.538 -10.496 176.538 -12.036C176.538 -12.5347 176.391 -12.938 176.098 -13.246C175.819 -13.554 175.35 -13.8107 174.69 -14.016L173.018 -14.544C172.079 -14.8373 171.397 -15.204 170.972 -15.644C170.547 -16.0987 170.334 -16.6707 170.334 -17.36C170.334 -18.284 170.693 -19.0173 171.412 -19.56C172.145 -20.1173 173.128 -20.396 174.36 -20.396C175.401 -20.396 176.391 -20.198 177.33 -19.802V-18.768C176.347 -19.1493 175.379 -19.34 174.426 -19.34C173.561 -19.34 172.879 -19.164 172.38 -18.812C171.896 -18.4747 171.654 -18.0053 171.654 -17.404C171.654 -16.9787 171.786 -16.634 172.05 -16.37C172.329 -16.1207 172.82 -15.8787 173.524 -15.644L175.262 -15.072C176.157 -14.7787 176.809 -14.39 177.22 -13.906C177.645 -13.422 177.858 -12.806 177.858 -12.058C177.858 -10.9727 177.491 -10.1367 176.758 -9.55C176.025 -8.96333 174.991 -8.67 173.656 -8.67C172.424 -8.67 171.317 -8.89733 170.334 -9.352L170.158 -10.452ZM182.333 -19.054V-12.014C182.333 -11.2513 182.495 -10.6867 182.817 -10.32C183.14 -9.968 183.639 -9.792 184.313 -9.792C184.753 -9.792 185.252 -9.87267 185.809 -10.034V-9.066C185.193 -8.86067 184.629 -8.758 184.115 -8.758C183.103 -8.758 182.333 -9.02933 181.805 -9.572C181.277 -10.1293 181.013 -10.9507 181.013 -12.036V-19.054H179.341V-20L181.057 -20.066L181.189 -22.838L182.333 -22.97V-20.066H185.655V-19.054H182.333ZM192.21 -8.67C190.611 -8.67 189.401 -9.16133 188.58 -10.144C187.773 -11.1413 187.37 -12.608 187.37 -14.544C187.37 -16.4653 187.773 -17.9173 188.58 -18.9C189.401 -19.8973 190.611 -20.396 192.21 -20.396C193.809 -20.396 195.011 -19.8973 195.818 -18.9C196.639 -17.9173 197.05 -16.4653 197.05 -14.544C197.05 -12.608 196.639 -11.1413 195.818 -10.144C195.011 -9.16133 193.809 -8.67 192.21 -8.67ZM192.21 -9.726C193.413 -9.726 194.285 -10.1073 194.828 -10.87C195.385 -11.6473 195.664 -12.872 195.664 -14.544C195.664 -16.2013 195.385 -17.4113 194.828 -18.174C194.285 -18.9513 193.413 -19.34 192.21 -19.34C191.007 -19.34 190.127 -18.9513 189.57 -18.174C189.027 -17.4113 188.756 -16.2013 188.756 -14.544C188.756 -12.872 189.027 -11.6473 189.57 -10.87C190.127 -10.1073 191.007 -9.726 192.21 -9.726ZM200.02 -9V-20L201.142 -20.11L201.252 -19.12C202.235 -19.9267 203.283 -20.33 204.398 -20.33C204.794 -20.33 205.109 -20.286 205.344 -20.198V-19.12C204.963 -19.208 204.625 -19.252 204.332 -19.252C203.291 -19.252 202.293 -18.878 201.34 -18.13V-9H200.02ZM206.623 -5.194C207.664 -5.38467 208.478 -5.75133 209.065 -6.294C209.652 -6.83667 210.194 -7.702 210.693 -8.89L206.469 -20.066H207.855L211.309 -10.364L214.873 -20.066H216.193L211.969 -9.11C211.573 -8.054 211.155 -7.196 210.715 -6.536C210.29 -5.86133 209.784 -5.33333 209.197 -4.952C208.61 -4.556 207.848 -4.25533 206.909 -4.05L206.623 -5.194ZM220.483 -13.4C220.483 -14.324 220.63 -15.116 220.923 -15.776C221.216 -16.436 221.7 -17.074 222.375 -17.69C223.094 -18.3353 223.57 -18.856 223.805 -19.252C224.04 -19.6627 224.157 -20.132 224.157 -20.66C224.157 -21.496 223.878 -22.1413 223.321 -22.596C222.778 -23.0653 222.023 -23.3 221.055 -23.3C219.808 -23.3 218.576 -22.8527 217.359 -21.958V-23.058C217.946 -23.4833 218.576 -23.8133 219.251 -24.048C219.94 -24.2827 220.63 -24.4 221.319 -24.4C222.566 -24.4 223.57 -24.0627 224.333 -23.388C225.11 -22.728 225.499 -21.848 225.499 -20.748C225.499 -20.1173 225.338 -19.538 225.015 -19.01C224.692 -18.482 224.076 -17.8147 223.167 -17.008C222.58 -16.4947 222.155 -15.9667 221.891 -15.424C221.642 -14.8813 221.51 -14.2067 221.495 -13.4H220.483ZM220.989 -8.89C220.696 -8.89 220.454 -8.978 220.263 -9.154C220.072 -9.34467 219.977 -9.594 219.977 -9.902C219.977 -10.21 220.072 -10.452 220.263 -10.628C220.454 -10.8187 220.696 -10.914 220.989 -10.914C221.282 -10.914 221.524 -10.8187 221.715 -10.628C221.906 -10.452 222.001 -10.21 222.001 -9.902C222.001 -9.594 221.906 -9.34467 221.715 -9.154C221.524 -8.978 221.282 -8.89 220.989 -8.89ZM11.77 3.6H13.112V19H11.792L3.52 5.888V19H2.178V3.6H3.498L11.77 16.712V3.6ZM21.2589 19.33C19.6602 19.33 18.4502 18.8387 17.6289 17.856C16.8222 16.8587 16.4189 15.392 16.4189 13.456C16.4189 11.5347 16.8222 10.0827 17.6289 9.1C18.4502 8.10267 19.6602 7.604 21.2589 7.604C22.8575 7.604 24.0602 8.10267 24.8669 9.1C25.6882 10.0827 26.0989 11.5347 26.0989 13.456C26.0989 15.392 25.6882 16.8587 24.8669 17.856C24.0602 18.8387 22.8575 19.33 21.2589 19.33ZM21.2589 18.274C22.4615 18.274 23.3342 17.8927 23.8769 17.13C24.4342 16.3527 24.7129 15.128 24.7129 13.456C24.7129 11.7987 24.4342 10.5887 23.8769 9.826C23.3342 9.04867 22.4615 8.66 21.2589 8.66C20.0562 8.66 19.1762 9.04867 18.6189 9.826C18.0762 10.5887 17.8049 11.7987 17.8049 13.456C17.8049 15.128 18.0762 16.3527 18.6189 17.13C19.1762 17.8927 20.0562 18.274 21.2589 18.274ZM34.8767 19V8.946H33.2047V8L34.8767 7.934V5.448C34.8767 4.36267 35.1407 3.534 35.6687 2.962C36.2114 2.37533 36.996 2.082 38.0227 2.082C38.58 2.082 39.1447 2.18467 39.7167 2.39V3.358C39.1887 3.19667 38.6827 3.116 38.1987 3.116C37.5094 3.116 37.0034 3.29933 36.6807 3.666C36.358 4.018 36.1967 4.57533 36.1967 5.338V7.934H39.1667V8.946H36.1967V19H34.8767ZM49.1887 18.604C48.1767 19.088 47.0914 19.33 45.9327 19.33C44.2461 19.33 42.9481 18.8313 42.0387 17.834C41.1294 16.8367 40.6747 15.4067 40.6747 13.544C40.6747 11.696 41.1001 10.244 41.9507 9.188C42.8014 8.132 43.9674 7.604 45.4487 7.604C46.7541 7.604 47.7807 8.01467 48.5287 8.836C49.2914 9.64267 49.6727 10.75 49.6727 12.158C49.6727 12.686 49.6287 13.192 49.5407 13.676H41.9727C41.9874 16.7413 43.3441 18.274 46.0427 18.274C47.1281 18.274 48.1767 18.0393 49.1887 17.57V18.604ZM45.4267 8.638C44.4294 8.638 43.6154 9.00467 42.9847 9.738C42.3541 10.4713 42.0167 11.454 41.9727 12.686H48.3967C48.4261 12.4513 48.4407 12.246 48.4407 12.07C48.4407 10.9847 48.1767 10.1413 47.6487 9.54C47.1207 8.93867 46.3801 8.638 45.4267 8.638ZM60.4036 18.604C59.3916 19.088 58.3062 19.33 57.1476 19.33C55.4609 19.33 54.1629 18.8313 53.2536 17.834C52.3442 16.8367 51.8896 15.4067 51.8896 13.544C51.8896 11.696 52.3149 10.244 53.1656 9.188C54.0162 8.132 55.1822 7.604 56.6636 7.604C57.9689 7.604 58.9956 8.01467 59.7436 8.836C60.5062 9.64267 60.8876 10.75 60.8876 12.158C60.8876 12.686 60.8436 13.192 60.7556 13.676H53.1876C53.2022 16.7413 54.5589 18.274 57.2576 18.274C58.3429 18.274 59.3916 18.0393 60.4036 17.57V18.604ZM56.6416 8.638C55.6442 8.638 54.8302 9.00467 54.1996 9.738C53.5689 10.4713 53.2316 11.454 53.1876 12.686H59.6116C59.6409 12.4513 59.6556 12.246 59.6556 12.07C59.6556 10.9847 59.3916 10.1413 58.8636 9.54C58.3356 8.93867 57.5949 8.638 56.6416 8.638ZM62.9724 17.548C64.0724 18.032 65.2091 18.274 66.3824 18.274C68.3624 18.274 69.3524 17.504 69.3524 15.964C69.3524 15.4653 69.2058 15.062 68.9124 14.754C68.6338 14.446 68.1644 14.1893 67.5044 13.984L65.8324 13.456C64.8938 13.1627 64.2118 12.796 63.7864 12.356C63.3611 11.9013 63.1484 11.3293 63.1484 10.64C63.1484 9.716 63.5078 8.98267 64.2264 8.44C64.9598 7.88267 65.9424 7.604 67.1744 7.604C68.2158 7.604 69.2058 7.802 70.1444 8.198V9.232C69.1618 8.85067 68.1938 8.66 67.2404 8.66C66.3751 8.66 65.6931 8.836 65.1944 9.188C64.7104 9.52533 64.4684 9.99467 64.4684 10.596C64.4684 11.0213 64.6004 11.366 64.8644 11.63C65.1431 11.8793 65.6344 12.1213 66.3384 12.356L68.0764 12.928C68.9711 13.2213 69.6238 13.61 70.0344 14.094C70.4598 14.578 70.6724 15.194 70.6724 15.942C70.6724 17.0273 70.3058 17.8633 69.5724 18.45C68.8391 19.0367 67.8051 19.33 66.4704 19.33C65.2384 19.33 64.1311 19.1027 63.1484 18.648L62.9724 17.548ZM83.1339 19.33C81.5352 19.33 80.3252 18.8387 79.5039 17.856C78.6972 16.8587 78.2939 15.392 78.2939 13.456C78.2939 11.5347 78.6972 10.0827 79.5039 9.1C80.3252 8.10267 81.5352 7.604 83.1339 7.604C84.7325 7.604 85.9352 8.10267 86.7419 9.1C87.5632 10.0827 87.9739 11.5347 87.9739 13.456C87.9739 15.392 87.5632 16.8587 86.7419 17.856C85.9352 18.8387 84.7325 19.33 83.1339 19.33ZM83.1339 18.274C84.3365 18.274 85.2092 17.8927 85.7519 17.13C86.3092 16.3527 86.5879 15.128 86.5879 13.456C86.5879 11.7987 86.3092 10.5887 85.7519 9.826C85.2092 9.04867 84.3365 8.66 83.1339 8.66C81.9312 8.66 81.0512 9.04867 80.4939 9.826C79.9512 10.5887 79.6799 11.7987 79.6799 13.456C79.6799 15.128 79.9512 16.3527 80.4939 17.13C81.0512 17.8927 81.9312 18.274 83.1339 18.274ZM90.9437 19V8L92.0657 7.89L92.1757 8.88C93.1584 8.07333 94.207 7.67 95.3217 7.67C95.7177 7.67 96.033 7.714 96.2677 7.802V8.88C95.8864 8.792 95.549 8.748 95.2557 8.748C94.2144 8.748 93.217 9.122 92.2637 9.87V19H90.9437ZM117.25 19V11.146C117.25 9.48867 116.466 8.66 114.896 8.66C113.987 8.66 112.946 8.99 111.772 9.65C111.89 10.046 111.948 10.4713 111.948 10.926V19H110.628V11.146C110.628 9.48867 109.844 8.66 108.274 8.66C107.394 8.66 106.412 8.96067 105.326 9.562V19H104.006V8L105.128 7.89L105.216 8.66C106.463 7.956 107.592 7.604 108.604 7.604C109.895 7.604 110.826 8.02933 111.398 8.88C112.821 8.02933 114.097 7.604 115.226 7.604C116.297 7.604 117.118 7.89 117.69 8.462C118.277 9.034 118.57 9.85533 118.57 10.926V19H117.25ZM122.118 19V8.044L123.438 7.868V19H122.118ZM122.778 5.25C122.484 5.25 122.242 5.162 122.052 4.986C121.876 4.81 121.788 4.568 121.788 4.26C121.788 3.952 121.876 3.71 122.052 3.534C122.242 3.358 122.484 3.27 122.778 3.27C123.071 3.27 123.306 3.358 123.482 3.534C123.672 3.71 123.768 3.952 123.768 4.26C123.768 4.568 123.672 4.81 123.482 4.986C123.306 5.162 123.071 5.25 122.778 5.25ZM134.493 19V11.366C134.493 9.562 133.577 8.66 131.743 8.66C131.259 8.66 130.724 8.74067 130.137 8.902C129.565 9.06333 129.001 9.28333 128.443 9.562V19H127.123V8L128.245 7.89L128.333 8.66C129.609 7.956 130.856 7.604 132.073 7.604C133.261 7.604 134.178 7.912 134.823 8.528C135.483 9.144 135.813 10.0167 135.813 11.146V19H134.493ZM139.348 19V8.044L140.668 7.868V19H139.348ZM140.008 5.25C139.715 5.25 139.473 5.162 139.282 4.986C139.106 4.81 139.018 4.568 139.018 4.26C139.018 3.952 139.106 3.71 139.282 3.534C139.473 3.358 139.715 3.27 140.008 3.27C140.301 3.27 140.536 3.358 140.712 3.534C140.903 3.71 140.998 3.952 140.998 4.26C140.998 4.568 140.903 4.81 140.712 4.986C140.536 5.162 140.301 5.25 140.008 5.25ZM157.598 19V11.146C157.598 9.48867 156.813 8.66 155.244 8.66C154.335 8.66 153.293 8.99 152.12 9.65C152.237 10.046 152.296 10.4713 152.296 10.926V19H150.976V11.146C150.976 9.48867 150.191 8.66 148.622 8.66C147.742 8.66 146.759 8.96067 145.674 9.562V19H144.354V8L145.476 7.89L145.564 8.66C146.811 7.956 147.94 7.604 148.952 7.604C150.243 7.604 151.174 8.02933 151.746 8.88C153.169 8.02933 154.445 7.604 155.574 7.604C156.645 7.604 157.466 7.89 158.038 8.462C158.625 9.034 158.918 9.85533 158.918 10.926V19H157.598ZM163.631 7.934V15.568C163.631 17.372 164.519 18.274 166.293 18.274C166.777 18.274 167.305 18.1933 167.877 18.032C168.464 17.8707 169.036 17.6507 169.593 17.372V7.934H170.913V18.934L169.791 19.044L169.703 18.274C168.427 18.978 167.181 19.33 165.963 19.33C164.805 19.33 163.903 19.022 163.257 18.406C162.627 17.7753 162.311 16.9027 162.311 15.788V7.934H163.631ZM187.848 19V11.146C187.848 9.48867 187.063 8.66 185.494 8.66C184.585 8.66 183.543 8.99 182.37 9.65C182.487 10.046 182.546 10.4713 182.546 10.926V19H181.226V11.146C181.226 9.48867 180.441 8.66 178.872 8.66C177.992 8.66 177.009 8.96067 175.924 9.562V19H174.604V8L175.726 7.89L175.814 8.66C177.061 7.956 178.19 7.604 179.202 7.604C180.493 7.604 181.424 8.02933 181.996 8.88C183.419 8.02933 184.695 7.604 185.824 7.604C186.895 7.604 187.716 7.89 188.288 8.462C188.875 9.034 189.168 9.85533 189.168 10.926V19H187.848ZM191.857 17.548C192.957 18.032 194.094 18.274 195.267 18.274C197.247 18.274 198.237 17.504 198.237 15.964C198.237 15.4653 198.091 15.062 197.797 14.754C197.519 14.446 197.049 14.1893 196.389 13.984L194.717 13.456C193.779 13.1627 193.097 12.796 192.671 12.356C192.246 11.9013 192.033 11.3293 192.033 10.64C192.033 9.716 192.393 8.98267 193.111 8.44C193.845 7.88267 194.827 7.604 196.059 7.604C197.101 7.604 198.091 7.802 199.029 8.198V9.232C198.047 8.85067 197.079 8.66 196.125 8.66C195.26 8.66 194.578 8.836 194.079 9.188C193.595 9.52533 193.353 9.99467 193.353 10.596C193.353 11.0213 193.485 11.366 193.749 11.63C194.028 11.8793 194.519 12.1213 195.223 12.356L196.961 12.928C197.856 13.2213 198.509 13.61 198.919 14.094C199.345 14.578 199.557 15.194 199.557 15.942C199.557 17.0273 199.191 17.8633 198.457 18.45C197.724 19.0367 196.69 19.33 195.355 19.33C194.123 19.33 193.016 19.1027 192.033 18.648L191.857 17.548ZM212.019 19.33C210.42 19.33 209.21 18.8387 208.389 17.856C207.582 16.8587 207.179 15.392 207.179 13.456C207.179 11.5347 207.582 10.0827 208.389 9.1C209.21 8.10267 210.42 7.604 212.019 7.604C213.617 7.604 214.82 8.10267 215.627 9.1C216.448 10.0827 216.859 11.5347 216.859 13.456C216.859 15.392 216.448 16.8587 215.627 17.856C214.82 18.8387 213.617 19.33 212.019 19.33ZM212.019 18.274C213.221 18.274 214.094 17.8927 214.637 17.13C215.194 16.3527 215.473 15.128 215.473 13.456C215.473 11.7987 215.194 10.5887 214.637 9.826C214.094 9.04867 213.221 8.66 212.019 8.66C210.816 8.66 209.936 9.04867 209.379 9.826C208.836 10.5887 208.565 11.7987 208.565 13.456C208.565 15.128 208.836 16.3527 209.379 17.13C209.936 17.8927 210.816 18.274 212.019 18.274ZM227.198 19V11.366C227.198 9.562 226.282 8.66 224.448 8.66C223.964 8.66 223.429 8.74067 222.842 8.902C222.27 9.06333 221.706 9.28333 221.148 9.562V19H219.828V8L220.95 7.89L221.038 8.66C222.314 7.956 223.561 7.604 224.778 7.604C225.966 7.604 226.883 7.912 227.528 8.528C228.188 9.144 228.518 10.0167 228.518 11.146V19H227.198ZM9.152 46.604C8.184 47.088 7.128 47.33 5.984 47.33C4.42933 47.33 3.22667 46.824 2.376 45.812C1.54 44.8 1.122 43.3553 1.122 41.478C1.122 39.6007 1.54 38.156 2.376 37.144C3.22667 36.1173 4.42933 35.604 5.984 35.604C7.084 35.604 8.12533 35.846 9.108 36.33V37.364C8.08133 36.9093 7.084 36.682 6.116 36.682C4.928 36.682 4.026 37.0853 3.41 37.892C2.80867 38.6987 2.508 39.894 2.508 41.478C2.508 43.0473 2.80867 44.2353 3.41 45.042C4.026 45.8487 4.928 46.252 6.116 46.252C7.11333 46.252 8.12533 46.0247 9.152 45.57V46.604ZM11.9886 47V30.478L13.3086 30.302V36.616C14.5406 35.9413 15.7506 35.604 16.9386 35.604C18.1266 35.604 19.0433 35.912 19.6886 36.528C20.3486 37.144 20.6786 38.0167 20.6786 39.146V47H19.3586V39.366C19.3586 37.562 18.442 36.66 16.6086 36.66C16.1246 36.66 15.5893 36.7407 15.0026 36.902C14.4306 37.0633 13.866 37.2833 13.3086 37.562V47H11.9886ZM32.0012 46.604C30.9892 47.088 29.9039 47.33 28.7452 47.33C27.0586 47.33 25.7606 46.8313 24.8512 45.834C23.9419 44.8367 23.4872 43.4067 23.4872 41.544C23.4872 39.696 23.9126 38.244 24.7632 37.188C25.6139 36.132 26.7799 35.604 28.2612 35.604C29.5666 35.604 30.5932 36.0147 31.3412 36.836C32.1039 37.6427 32.4852 38.75 32.4852 40.158C32.4852 40.686 32.4412 41.192 32.3532 41.676H24.7852C24.7999 44.7413 26.1566 46.274 28.8552 46.274C29.9406 46.274 30.9892 46.0393 32.0012 45.57V46.604ZM28.2392 36.638C27.2419 36.638 26.4279 37.0047 25.7972 37.738C25.1666 38.4713 24.8292 39.454 24.7852 40.686H31.2092C31.2386 40.4513 31.2532 40.246 31.2532 40.07C31.2532 38.9847 30.9892 38.1413 30.4612 37.54C29.9332 36.9387 29.1926 36.638 28.2392 36.638ZM42.7321 46.604C41.7641 47.088 40.7081 47.33 39.5641 47.33C38.0094 47.33 36.8067 46.824 35.9561 45.812C35.1201 44.8 34.7021 43.3553 34.7021 41.478C34.7021 39.6007 35.1201 38.156 35.9561 37.144C36.8067 36.1173 38.0094 35.604 39.5641 35.604C40.6641 35.604 41.7054 35.846 42.6881 36.33V37.364C41.6614 36.9093 40.6641 36.682 39.6961 36.682C38.5081 36.682 37.6061 37.0853 36.9901 37.892C36.3887 38.6987 36.0881 39.894 36.0881 41.478C36.0881 43.0473 36.3887 44.2353 36.9901 45.042C37.6061 45.8487 38.5081 46.252 39.6961 46.252C40.6934 46.252 41.7054 46.0247 42.7321 45.57V46.604ZM45.5687 47V30.478L46.8887 30.302V40.84L52.0807 35.934H53.6427L48.2087 41.082L53.8187 47H52.1467L46.8887 41.412V47H45.5687ZM55.6878 47V36.044L57.0078 35.868V47H55.6878ZM56.3478 33.25C56.0545 33.25 55.8125 33.162 55.6218 32.986C55.4458 32.81 55.3578 32.568 55.3578 32.26C55.3578 31.952 55.4458 31.71 55.6218 31.534C55.8125 31.358 56.0545 31.27 56.3478 31.27C56.6412 31.27 56.8758 31.358 57.0518 31.534C57.2425 31.71 57.3378 31.952 57.3378 32.26C57.3378 32.568 57.2425 32.81 57.0518 32.986C56.8758 33.162 56.6412 33.25 56.3478 33.25ZM68.0637 47V39.366C68.0637 37.562 67.147 36.66 65.3137 36.66C64.8297 36.66 64.2944 36.7407 63.7077 36.902C63.1357 37.0633 62.571 37.2833 62.0137 37.562V47H60.6937V36L61.8157 35.89L61.9037 36.66C63.1797 35.956 64.4264 35.604 65.6437 35.604C66.8317 35.604 67.7484 35.912 68.3937 36.528C69.0537 37.144 69.3837 38.0167 69.3837 39.146V47H68.0637ZM76.5263 52.126C75.221 52.126 74.1136 51.8987 73.2043 51.444L73.0283 50.322C74.231 50.8207 75.375 51.07 76.4603 51.07C78.9096 51.07 80.1343 49.9333 80.1343 47.66V46.142C79.577 46.45 79.005 46.692 78.4183 46.868C77.8463 47.044 77.311 47.132 76.8123 47.132C75.375 47.132 74.2456 46.648 73.4243 45.68C72.603 44.712 72.1923 43.37 72.1923 41.654C72.1923 39.7033 72.6543 38.2073 73.5783 37.166C74.517 36.1247 75.8663 35.604 77.6263 35.604C78.961 35.604 80.237 35.8387 81.4543 36.308V47.55C81.4543 49.0167 81.029 50.146 80.1783 50.938C79.3276 51.73 78.1103 52.126 76.5263 52.126ZM76.9883 46.076C77.4723 46.076 77.993 45.9953 78.5503 45.834C79.1076 45.6727 79.6356 45.4527 80.1343 45.174V37.012C79.3716 36.7773 78.5723 36.66 77.7363 36.66C76.3283 36.66 75.2796 37.0707 74.5903 37.892C73.9156 38.6987 73.5783 39.9453 73.5783 41.632C73.5783 43.084 73.8643 44.1913 74.4363 44.954C75.023 45.702 75.8736 46.076 76.9883 46.076ZM97.4189 47.044L97.3309 46.274C96.0696 46.978 94.8229 47.33 93.5909 47.33C92.4616 47.33 91.5669 47.0367 90.9069 46.45C90.2469 45.8487 89.9169 45.0273 89.9169 43.986C89.9169 42.886 90.2836 42.05 91.0169 41.478C91.7649 40.8913 92.8576 40.598 94.2949 40.598C95.1603 40.598 96.1429 40.7007 97.2429 40.906V39.41C97.2429 37.5767 96.2089 36.66 94.1409 36.66C93.5983 36.66 93.0043 36.7333 92.3589 36.88C91.7136 37.0267 91.1196 37.2173 90.5769 37.452V36.418C91.1049 36.1687 91.7063 35.9707 92.3809 35.824C93.0703 35.6773 93.7229 35.604 94.3389 35.604C95.7176 35.604 96.7589 35.934 97.4629 36.594C98.1816 37.2393 98.5409 38.178 98.5409 39.41V46.934L97.4189 47.044ZM93.8989 46.274C94.4269 46.274 94.9843 46.1933 95.5709 46.032C96.1576 45.8707 96.7149 45.6507 97.2429 45.372V41.852C96.3189 41.676 95.4096 41.588 94.5149 41.588C93.3856 41.588 92.5643 41.7787 92.0509 42.16C91.5376 42.5413 91.2809 43.1427 91.2809 43.964C91.2809 45.504 92.1536 46.274 93.8989 46.274ZM109.377 46.604C108.409 47.088 107.353 47.33 106.209 47.33C104.654 47.33 103.451 46.824 102.601 45.812C101.765 44.8 101.347 43.3553 101.347 41.478C101.347 39.6007 101.765 38.156 102.601 37.144C103.451 36.1173 104.654 35.604 106.209 35.604C107.309 35.604 108.35 35.846 109.333 36.33V37.364C108.306 36.9093 107.309 36.682 106.341 36.682C105.153 36.682 104.251 37.0853 103.635 37.892C103.033 38.6987 102.733 39.894 102.733 41.478C102.733 43.0473 103.033 44.2353 103.635 45.042C104.251 45.8487 105.153 46.252 106.341 46.252C107.338 46.252 108.35 46.0247 109.377 45.57V46.604ZM119.302 46.604C118.334 47.088 117.278 47.33 116.134 47.33C114.58 47.33 113.377 46.824 112.526 45.812C111.69 44.8 111.272 43.3553 111.272 41.478C111.272 39.6007 111.69 38.156 112.526 37.144C113.377 36.1173 114.58 35.604 116.134 35.604C117.234 35.604 118.276 35.846 119.258 36.33V37.364C118.232 36.9093 117.234 36.682 116.266 36.682C115.078 36.682 114.176 37.0853 113.56 37.892C112.959 38.6987 112.658 39.894 112.658 41.478C112.658 43.0473 112.959 44.2353 113.56 45.042C114.176 45.8487 115.078 46.252 116.266 46.252C117.264 46.252 118.276 46.0247 119.302 45.57V46.604ZM126.038 47.33C124.44 47.33 123.23 46.8387 122.408 45.856C121.602 44.8587 121.198 43.392 121.198 41.456C121.198 39.5347 121.602 38.0827 122.408 37.1C123.23 36.1027 124.44 35.604 126.038 35.604C127.637 35.604 128.84 36.1027 129.646 37.1C130.468 38.0827 130.878 39.5347 130.878 41.456C130.878 43.392 130.468 44.8587 129.646 45.856C128.84 46.8387 127.637 47.33 126.038 47.33ZM126.038 46.274C127.241 46.274 128.114 45.8927 128.656 45.13C129.214 44.3527 129.492 43.128 129.492 41.456C129.492 39.7987 129.214 38.5887 128.656 37.826C128.114 37.0487 127.241 36.66 126.038 36.66C124.836 36.66 123.956 37.0487 123.398 37.826C122.856 38.5887 122.584 39.7987 122.584 41.456C122.584 43.128 122.856 44.3527 123.398 45.13C123.956 45.8927 124.836 46.274 126.038 46.274ZM135.014 35.934V43.568C135.014 45.372 135.901 46.274 137.676 46.274C138.16 46.274 138.688 46.1933 139.26 46.032C139.847 45.8707 140.419 45.6507 140.976 45.372V35.934H142.296V46.934L141.174 47.044L141.086 46.274C139.81 46.978 138.563 47.33 137.346 47.33C136.187 47.33 135.285 47.022 134.64 46.406C134.009 45.7753 133.694 44.9027 133.694 43.788V35.934H135.014ZM153.357 47V39.366C153.357 37.562 152.44 36.66 150.607 36.66C150.123 36.66 149.587 36.7407 149.001 36.902C148.429 37.0633 147.864 37.2833 147.307 37.562V47H145.987V36L147.109 35.89L147.197 36.66C148.473 35.956 149.719 35.604 150.937 35.604C152.125 35.604 153.041 35.912 153.687 36.528C154.347 37.144 154.677 38.0167 154.677 39.146V47H153.357ZM159.839 36.946V43.986C159.839 44.7487 160.001 45.3133 160.323 45.68C160.646 46.032 161.145 46.208 161.819 46.208C162.259 46.208 162.758 46.1273 163.315 45.966V46.934C162.699 47.1393 162.135 47.242 161.621 47.242C160.609 47.242 159.839 46.9707 159.311 46.428C158.783 45.8707 158.519 45.0493 158.519 43.964V36.946H156.847V36L158.563 35.934L158.695 33.162L159.839 33.03V35.934H163.161V36.946H159.839ZM164.744 45.548C165.844 46.032 166.981 46.274 168.154 46.274C170.134 46.274 171.124 45.504 171.124 43.964C171.124 43.4653 170.977 43.062 170.684 42.754C170.405 42.446 169.936 42.1893 169.276 41.984L167.604 41.456C166.665 41.1627 165.983 40.796 165.558 40.356C165.133 39.9013 164.92 39.3293 164.92 38.64C164.92 37.716 165.279 36.9827 165.998 36.44C166.731 35.8827 167.714 35.604 168.946 35.604C169.987 35.604 170.977 35.802 171.916 36.198V37.232C170.933 36.8507 169.965 36.66 169.012 36.66C168.147 36.66 167.465 36.836 166.966 37.188C166.482 37.5253 166.24 37.9947 166.24 38.596C166.24 39.0213 166.372 39.366 166.636 39.63C166.915 39.8793 167.406 40.1213 168.11 40.356L169.848 40.928C170.743 41.2213 171.395 41.61 171.806 42.094C172.231 42.578 172.444 43.194 172.444 43.942C172.444 45.0273 172.077 45.8633 171.344 46.45C170.611 47.0367 169.577 47.33 168.242 47.33C167.01 47.33 165.903 47.1027 164.92 46.648L164.744 45.548ZM175.709 47.11C175.416 47.11 175.174 47.022 174.983 46.846C174.793 46.6553 174.697 46.406 174.697 46.098C174.697 45.79 174.793 45.548 174.983 45.372C175.174 45.1813 175.416 45.086 175.709 45.086C176.003 45.086 176.245 45.1813 176.435 45.372C176.626 45.548 176.721 45.79 176.721 46.098C176.721 46.406 176.626 46.6553 176.435 46.846C176.245 47.022 176.003 47.11 175.709 47.11Z" fill="#013D5B"/>
</g>
<defs>
<clipPath id="clip0_11093_3608">
<rect width="231" height="23" fill="white"/>
</clipPath>
</defs>
</svg>
