<svg width="231" height="25" viewBox="0 0 231 25" fill="none" xmlns="http://www.w3.org/2000/svg">
<g clip-path="url(#clip0_11093_3608)">
<path d="M4.972 -37V-51.278H0.33V-52.4H11V-51.278H6.358V-37H4.972ZM13.1703 -37V-53.522L14.4903 -53.698V-47.384C15.7223 -48.0587 16.9323 -48.396 18.1203 -48.396C19.3083 -48.396 20.2249 -48.088 20.8703 -47.472C21.5303 -46.856 21.8603 -45.9833 21.8603 -44.854V-37H20.5403V-44.634C20.5403 -46.438 19.6236 -47.34 17.7903 -47.34C17.3063 -47.34 16.7709 -47.2593 16.1843 -47.098C15.6123 -46.9367 15.0476 -46.7167 14.4903 -46.438V-37H13.1703ZM33.1829 -37.396C32.1709 -36.912 31.0855 -36.67 29.9269 -36.67C28.2402 -36.67 26.9422 -37.1687 26.0329 -38.166C25.1235 -39.1633 24.6689 -40.5933 24.6689 -42.456C24.6689 -44.304 25.0942 -45.756 25.9449 -46.812C26.7955 -47.868 27.9615 -48.396 29.4429 -48.396C30.7482 -48.396 31.7749 -47.9853 32.5229 -47.164C33.2855 -46.3573 33.6669 -45.25 33.6669 -43.842C33.6669 -43.314 33.6229 -42.808 33.5349 -42.324H25.9669C25.9815 -39.2587 27.3382 -37.726 30.0369 -37.726C31.1222 -37.726 32.1709 -37.9607 33.1829 -38.43V-37.396ZM29.4209 -47.362C28.4235 -47.362 27.6095 -46.9953 26.9789 -46.262C26.3482 -45.5287 26.0109 -44.546 25.9669 -43.314H32.3909C32.4202 -43.5487 32.4349 -43.754 32.4349 -43.93C32.4349 -45.0153 32.1709 -45.8587 31.6429 -46.46C31.1149 -47.0613 30.3742 -47.362 29.4209 -47.362ZM43.4297 -47.406C43.9871 -47.714 44.5517 -47.956 45.1237 -48.132C45.7104 -48.308 46.2531 -48.396 46.7517 -48.396C48.1891 -48.396 49.3184 -47.89 50.1397 -46.878C50.9611 -45.8807 51.3717 -44.4947 51.3717 -42.72C51.3717 -40.7693 50.9024 -39.2733 49.9637 -38.232C49.0397 -37.1907 47.6977 -36.67 45.9377 -36.67C44.6911 -36.67 43.4151 -36.8753 42.1097 -37.286V-53.522L43.4297 -53.698V-47.406ZM46.5757 -47.34C46.0917 -47.34 45.5711 -47.2593 45.0137 -47.098C44.4564 -46.9367 43.9284 -46.7167 43.4297 -46.438V-38.078C44.1924 -37.8433 44.9917 -37.726 45.8277 -37.726C47.2357 -37.726 48.2771 -38.1293 48.9517 -38.936C49.6411 -39.7573 49.9857 -41.0113 49.9857 -42.698C49.9857 -44.2087 49.6924 -45.36 49.1057 -46.152C48.5337 -46.944 47.6904 -47.34 46.5757 -47.34ZM62.1223 -37.396C61.1103 -36.912 60.025 -36.67 58.8663 -36.67C57.1797 -36.67 55.8817 -37.1687 54.9723 -38.166C54.063 -39.1633 53.6083 -40.5933 53.6083 -42.456C53.6083 -44.304 54.0337 -45.756 54.8843 -46.812C55.735 -47.868 56.901 -48.396 58.3823 -48.396C59.6877 -48.396 60.7143 -47.9853 61.4623 -47.164C62.225 -46.3573 62.6063 -45.25 62.6063 -43.842C62.6063 -43.314 62.5623 -42.808 62.4743 -42.324H54.9063C54.921 -39.2587 56.2777 -37.726 58.9763 -37.726C60.0617 -37.726 61.1103 -37.9607 62.1223 -38.43V-37.396ZM58.3603 -47.362C57.363 -47.362 56.549 -46.9953 55.9183 -46.262C55.2877 -45.5287 54.9503 -44.546 54.9063 -43.314H61.3303C61.3597 -43.5487 61.3743 -43.754 61.3743 -43.93C61.3743 -45.0153 61.1103 -45.8587 60.5823 -46.46C60.0543 -47.0613 59.3137 -47.362 58.3603 -47.362ZM64.6912 -38.452C65.7912 -37.968 66.9278 -37.726 68.1012 -37.726C70.0812 -37.726 71.0712 -38.496 71.0712 -40.036C71.0712 -40.5347 70.9245 -40.938 70.6312 -41.246C70.3525 -41.554 69.8832 -41.8107 69.2232 -42.016L67.5512 -42.544C66.6125 -42.8373 65.9305 -43.204 65.5052 -43.644C65.0798 -44.0987 64.8672 -44.6707 64.8672 -45.36C64.8672 -46.284 65.2265 -47.0173 65.9452 -47.56C66.6785 -48.1173 67.6612 -48.396 68.8932 -48.396C69.9345 -48.396 70.9245 -48.198 71.8632 -47.802V-46.768C70.8805 -47.1493 69.9125 -47.34 68.9592 -47.34C68.0938 -47.34 67.4118 -47.164 66.9132 -46.812C66.4292 -46.4747 66.1872 -46.0053 66.1872 -45.404C66.1872 -44.9787 66.3192 -44.634 66.5832 -44.37C66.8618 -44.1207 67.3532 -43.8787 68.0572 -43.644L69.7952 -43.072C70.6898 -42.7787 71.3425 -42.39 71.7532 -41.906C72.1785 -41.422 72.3912 -40.806 72.3912 -40.058C72.3912 -38.9727 72.0245 -38.1367 71.2912 -37.55C70.5578 -36.9633 69.5238 -36.67 68.1892 -36.67C66.9572 -36.67 65.8498 -36.8973 64.8672 -37.352L64.6912 -38.452ZM76.8666 -47.054V-40.014C76.8666 -39.2513 77.028 -38.6867 77.3506 -38.32C77.6733 -37.968 78.172 -37.792 78.8466 -37.792C79.2866 -37.792 79.7853 -37.8727 80.3426 -38.034V-37.066C79.7266 -36.8607 79.162 -36.758 78.6486 -36.758C77.6366 -36.758 76.8666 -37.0293 76.3386 -37.572C75.8106 -38.1293 75.5466 -38.9507 75.5466 -40.036V-47.054H73.8746V-48L75.5906 -48.066L75.7226 -50.838L76.8666 -50.97V-48.066H80.1886V-47.054H76.8666ZM89.4493 -47.406C90.0066 -47.714 90.5713 -47.956 91.1433 -48.132C91.7299 -48.308 92.2726 -48.396 92.7713 -48.396C94.2086 -48.396 95.3379 -47.89 96.1593 -46.878C96.9806 -45.8807 97.3912 -44.4947 97.3912 -42.72C97.3912 -40.7693 96.9219 -39.2733 95.9833 -38.232C95.0593 -37.1907 93.7173 -36.67 91.9573 -36.67C90.7106 -36.67 89.4346 -36.8753 88.1293 -37.286V-53.522L89.4493 -53.698V-47.406ZM92.5953 -47.34C92.1113 -47.34 91.5906 -47.2593 91.0333 -47.098C90.4759 -46.9367 89.9479 -46.7167 89.4493 -46.438V-38.078C90.2119 -37.8433 91.0113 -37.726 91.8473 -37.726C93.2553 -37.726 94.2966 -38.1293 94.9713 -38.936C95.6606 -39.7573 96.0053 -41.0113 96.0053 -42.698C96.0053 -44.2087 95.7119 -45.36 95.1253 -46.152C94.5533 -46.944 93.7099 -47.34 92.5953 -47.34ZM108.142 -37.396C107.13 -36.912 106.045 -36.67 104.886 -36.67C103.199 -36.67 101.901 -37.1687 100.992 -38.166C100.083 -39.1633 99.6279 -40.5933 99.6279 -42.456C99.6279 -44.304 100.053 -45.756 100.904 -46.812C101.755 -47.868 102.921 -48.396 104.402 -48.396C105.707 -48.396 106.734 -47.9853 107.482 -47.164C108.245 -46.3573 108.626 -45.25 108.626 -43.842C108.626 -43.314 108.582 -42.808 108.494 -42.324H100.926C100.941 -39.2587 102.297 -37.726 104.996 -37.726C106.081 -37.726 107.13 -37.9607 108.142 -38.43V-37.396ZM104.38 -47.362C103.383 -47.362 102.569 -46.9953 101.938 -46.262C101.307 -45.5287 100.97 -44.546 100.926 -43.314H107.35C107.379 -43.5487 107.394 -43.754 107.394 -43.93C107.394 -45.0153 107.13 -45.8587 106.602 -46.46C106.074 -47.0613 105.333 -47.362 104.38 -47.362ZM120.105 -53.698V-37.066L118.983 -36.956L118.895 -37.726C117.648 -37.022 116.504 -36.67 115.463 -36.67C114.025 -36.67 112.896 -37.1687 112.075 -38.166C111.253 -39.178 110.843 -40.5713 110.843 -42.346C110.843 -44.2967 111.305 -45.7927 112.229 -46.834C113.167 -47.8753 114.517 -48.396 116.277 -48.396C117.186 -48.396 118.022 -48.2787 118.785 -48.044V-53.522L120.105 -53.698ZM115.639 -37.726C116.123 -37.726 116.643 -37.8067 117.201 -37.968C117.758 -38.1293 118.286 -38.3493 118.785 -38.628V-46.988C118.022 -47.2227 117.223 -47.34 116.387 -47.34C114.979 -47.34 113.93 -46.9293 113.241 -46.108C112.566 -45.3013 112.229 -44.0547 112.229 -42.368C112.229 -40.8573 112.515 -39.706 113.087 -38.914C113.673 -38.122 114.524 -37.726 115.639 -37.726ZM125.421 -47.054V-40.014C125.421 -39.2513 125.583 -38.6867 125.905 -38.32C126.228 -37.968 126.727 -37.792 127.401 -37.792C127.841 -37.792 128.34 -37.8727 128.897 -38.034V-37.066C128.281 -36.8607 127.717 -36.758 127.203 -36.758C126.191 -36.758 125.421 -37.0293 124.893 -37.572C124.365 -38.1293 124.101 -38.9507 124.101 -40.036V-47.054H122.429V-48L124.145 -48.066L124.277 -50.838L125.421 -50.97V-48.066H128.743V-47.054H125.421ZM131.184 -37V-47.956L132.504 -48.132V-37H131.184ZM131.844 -50.75C131.551 -50.75 131.309 -50.838 131.118 -51.014C130.942 -51.19 130.854 -51.432 130.854 -51.74C130.854 -52.048 130.942 -52.29 131.118 -52.466C131.309 -52.642 131.551 -52.73 131.844 -52.73C132.137 -52.73 132.372 -52.642 132.548 -52.466C132.739 -52.29 132.834 -52.048 132.834 -51.74C132.834 -51.432 132.739 -51.19 132.548 -51.014C132.372 -50.838 132.137 -50.75 131.844 -50.75ZM149.434 -37V-44.854C149.434 -46.5113 148.649 -47.34 147.08 -47.34C146.17 -47.34 145.129 -47.01 143.956 -46.35C144.073 -45.954 144.132 -45.5287 144.132 -45.074V-37H142.812V-44.854C142.812 -46.5113 142.027 -47.34 140.458 -47.34C139.578 -47.34 138.595 -47.0393 137.51 -46.438V-37H136.19V-48L137.312 -48.11L137.4 -47.34C138.646 -48.044 139.776 -48.396 140.788 -48.396C142.078 -48.396 143.01 -47.9707 143.582 -47.12C145.004 -47.9707 146.28 -48.396 147.41 -48.396C148.48 -48.396 149.302 -48.11 149.874 -47.538C150.46 -46.966 150.754 -46.1447 150.754 -45.074V-37H149.434ZM162.089 -37.396C161.077 -36.912 159.992 -36.67 158.833 -36.67C157.146 -36.67 155.848 -37.1687 154.939 -38.166C154.03 -39.1633 153.575 -40.5933 153.575 -42.456C153.575 -44.304 154 -45.756 154.851 -46.812C155.702 -47.868 156.868 -48.396 158.349 -48.396C159.654 -48.396 160.681 -47.9853 161.429 -47.164C162.192 -46.3573 162.573 -45.25 162.573 -43.842C162.573 -43.314 162.529 -42.808 162.441 -42.324H154.873C154.888 -39.2587 156.244 -37.726 158.943 -37.726C160.028 -37.726 161.077 -37.9607 162.089 -38.43V-37.396ZM158.327 -47.362C157.33 -47.362 156.516 -46.9953 155.885 -46.262C155.254 -45.5287 154.917 -44.546 154.873 -43.314H161.297C161.326 -43.5487 161.341 -43.754 161.341 -43.93C161.341 -45.0153 161.077 -45.8587 160.549 -46.46C160.021 -47.0613 159.28 -47.362 158.327 -47.362ZM170.158 -38.452C171.258 -37.968 172.395 -37.726 173.568 -37.726C175.548 -37.726 176.538 -38.496 176.538 -40.036C176.538 -40.5347 176.391 -40.938 176.098 -41.246C175.819 -41.554 175.35 -41.8107 174.69 -42.016L173.018 -42.544C172.079 -42.8373 171.397 -43.204 170.972 -43.644C170.547 -44.0987 170.334 -44.6707 170.334 -45.36C170.334 -46.284 170.693 -47.0173 171.412 -47.56C172.145 -48.1173 173.128 -48.396 174.36 -48.396C175.401 -48.396 176.391 -48.198 177.33 -47.802V-46.768C176.347 -47.1493 175.379 -47.34 174.426 -47.34C173.561 -47.34 172.879 -47.164 172.38 -46.812C171.896 -46.4747 171.654 -46.0053 171.654 -45.404C171.654 -44.9787 171.786 -44.634 172.05 -44.37C172.329 -44.1207 172.82 -43.8787 173.524 -43.644L175.262 -43.072C176.157 -42.7787 176.809 -42.39 177.22 -41.906C177.645 -41.422 177.858 -40.806 177.858 -40.058C177.858 -38.9727 177.491 -38.1367 176.758 -37.55C176.025 -36.9633 174.991 -36.67 173.656 -36.67C172.424 -36.67 171.317 -36.8973 170.334 -37.352L170.158 -38.452ZM182.333 -47.054V-40.014C182.333 -39.2513 182.495 -38.6867 182.817 -38.32C183.14 -37.968 183.639 -37.792 184.313 -37.792C184.753 -37.792 185.252 -37.8727 185.809 -38.034V-37.066C185.193 -36.8607 184.629 -36.758 184.115 -36.758C183.103 -36.758 182.333 -37.0293 181.805 -37.572C181.277 -38.1293 181.013 -38.9507 181.013 -40.036V-47.054H179.341V-48L181.057 -48.066L181.189 -50.838L182.333 -50.97V-48.066H185.655V-47.054H182.333ZM192.21 -36.67C190.611 -36.67 189.401 -37.1613 188.58 -38.144C187.773 -39.1413 187.37 -40.608 187.37 -42.544C187.37 -44.4653 187.773 -45.9173 188.58 -46.9C189.401 -47.8973 190.611 -48.396 192.21 -48.396C193.809 -48.396 195.011 -47.8973 195.818 -46.9C196.639 -45.9173 197.05 -44.4653 197.05 -42.544C197.05 -40.608 196.639 -39.1413 195.818 -38.144C195.011 -37.1613 193.809 -36.67 192.21 -36.67ZM192.21 -37.726C193.413 -37.726 194.285 -38.1073 194.828 -38.87C195.385 -39.6473 195.664 -40.872 195.664 -42.544C195.664 -44.2013 195.385 -45.4113 194.828 -46.174C194.285 -46.9513 193.413 -47.34 192.21 -47.34C191.007 -47.34 190.127 -46.9513 189.57 -46.174C189.027 -45.4113 188.756 -44.2013 188.756 -42.544C188.756 -40.872 189.027 -39.6473 189.57 -38.87C190.127 -38.1073 191.007 -37.726 192.21 -37.726ZM200.02 -37V-48L201.142 -48.11L201.252 -47.12C202.235 -47.9267 203.283 -48.33 204.398 -48.33C204.794 -48.33 205.109 -48.286 205.344 -48.198V-47.12C204.963 -47.208 204.625 -47.252 204.332 -47.252C203.291 -47.252 202.293 -46.878 201.34 -46.13V-37H200.02ZM206.623 -33.194C207.664 -33.3847 208.478 -33.7513 209.065 -34.294C209.652 -34.8367 210.194 -35.702 210.693 -36.89L206.469 -48.066H207.855L211.309 -38.364L214.873 -48.066H216.193L211.969 -37.11C211.573 -36.054 211.155 -35.196 210.715 -34.536C210.29 -33.8613 209.784 -33.3333 209.197 -32.952C208.61 -32.556 207.848 -32.2553 206.909 -32.05L206.623 -33.194ZM220.483 -41.4C220.483 -42.324 220.63 -43.116 220.923 -43.776C221.216 -44.436 221.7 -45.074 222.375 -45.69C223.094 -46.3353 223.57 -46.856 223.805 -47.252C224.04 -47.6627 224.157 -48.132 224.157 -48.66C224.157 -49.496 223.878 -50.1413 223.321 -50.596C222.778 -51.0653 222.023 -51.3 221.055 -51.3C219.808 -51.3 218.576 -50.8527 217.359 -49.958V-51.058C217.946 -51.4833 218.576 -51.8133 219.251 -52.048C219.94 -52.2827 220.63 -52.4 221.319 -52.4C222.566 -52.4 223.57 -52.0627 224.333 -51.388C225.11 -50.728 225.499 -49.848 225.499 -48.748C225.499 -48.1173 225.338 -47.538 225.015 -47.01C224.692 -46.482 224.076 -45.8147 223.167 -45.008C222.58 -44.4947 222.155 -43.9667 221.891 -43.424C221.642 -42.8813 221.51 -42.2067 221.495 -41.4H220.483ZM220.989 -36.89C220.696 -36.89 220.454 -36.978 220.263 -37.154C220.072 -37.3447 219.977 -37.594 219.977 -37.902C219.977 -38.21 220.072 -38.452 220.263 -38.628C220.454 -38.8187 220.696 -38.914 220.989 -38.914C221.282 -38.914 221.524 -38.8187 221.715 -38.628C221.906 -38.452 222.001 -38.21 222.001 -37.902C222.001 -37.594 221.906 -37.3447 221.715 -37.154C221.524 -36.978 221.282 -36.89 220.989 -36.89ZM11.77 -24.4H13.112V-9H11.792L3.52 -22.112V-9H2.178V-24.4H3.498L11.77 -11.288V-24.4ZM21.2589 -8.67C19.6602 -8.67 18.4502 -9.16133 17.6289 -10.144C16.8222 -11.1413 16.4189 -12.608 16.4189 -14.544C16.4189 -16.4653 16.8222 -17.9173 17.6289 -18.9C18.4502 -19.8973 19.6602 -20.396 21.2589 -20.396C22.8575 -20.396 24.0602 -19.8973 24.8669 -18.9C25.6882 -17.9173 26.0989 -16.4653 26.0989 -14.544C26.0989 -12.608 25.6882 -11.1413 24.8669 -10.144C24.0602 -9.16133 22.8575 -8.67 21.2589 -8.67ZM21.2589 -9.726C22.4615 -9.726 23.3342 -10.1073 23.8769 -10.87C24.4342 -11.6473 24.7129 -12.872 24.7129 -14.544C24.7129 -16.2013 24.4342 -17.4113 23.8769 -18.174C23.3342 -18.9513 22.4615 -19.34 21.2589 -19.34C20.0562 -19.34 19.1762 -18.9513 18.6189 -18.174C18.0762 -17.4113 17.8049 -16.2013 17.8049 -14.544C17.8049 -12.872 18.0762 -11.6473 18.6189 -10.87C19.1762 -10.1073 20.0562 -9.726 21.2589 -9.726ZM34.8767 -9V-19.054H33.2047V-20L34.8767 -20.066V-22.552C34.8767 -23.6373 35.1407 -24.466 35.6687 -25.038C36.2114 -25.6247 36.996 -25.918 38.0227 -25.918C38.58 -25.918 39.1447 -25.8153 39.7167 -25.61V-24.642C39.1887 -24.8033 38.6827 -24.884 38.1987 -24.884C37.5094 -24.884 37.0034 -24.7007 36.6807 -24.334C36.358 -23.982 36.1967 -23.4247 36.1967 -22.662V-20.066H39.1667V-19.054H36.1967V-9H34.8767ZM49.1887 -9.396C48.1767 -8.912 47.0914 -8.67 45.9327 -8.67C44.2461 -8.67 42.9481 -9.16867 42.0387 -10.166C41.1294 -11.1633 40.6747 -12.5933 40.6747 -14.456C40.6747 -16.304 41.1001 -17.756 41.9507 -18.812C42.8014 -19.868 43.9674 -20.396 45.4487 -20.396C46.7541 -20.396 47.7807 -19.9853 48.5287 -19.164C49.2914 -18.3573 49.6727 -17.25 49.6727 -15.842C49.6727 -15.314 49.6287 -14.808 49.5407 -14.324H41.9727C41.9874 -11.2587 43.3441 -9.726 46.0427 -9.726C47.1281 -9.726 48.1767 -9.96067 49.1887 -10.43V-9.396ZM45.4267 -19.362C44.4294 -19.362 43.6154 -18.9953 42.9847 -18.262C42.3541 -17.5287 42.0167 -16.546 41.9727 -15.314H48.3967C48.4261 -15.5487 48.4407 -15.754 48.4407 -15.93C48.4407 -17.0153 48.1767 -17.8587 47.6487 -18.46C47.1207 -19.0613 46.3801 -19.362 45.4267 -19.362ZM60.4036 -9.396C59.3916 -8.912 58.3062 -8.67 57.1476 -8.67C55.4609 -8.67 54.1629 -9.16867 53.2536 -10.166C52.3442 -11.1633 51.8896 -12.5933 51.8896 -14.456C51.8896 -16.304 52.3149 -17.756 53.1656 -18.812C54.0162 -19.868 55.1822 -20.396 56.6636 -20.396C57.9689 -20.396 58.9956 -19.9853 59.7436 -19.164C60.5062 -18.3573 60.8876 -17.25 60.8876 -15.842C60.8876 -15.314 60.8436 -14.808 60.7556 -14.324H53.1876C53.2022 -11.2587 54.5589 -9.726 57.2576 -9.726C58.3429 -9.726 59.3916 -9.96067 60.4036 -10.43V-9.396ZM56.6416 -19.362C55.6442 -19.362 54.8302 -18.9953 54.1996 -18.262C53.5689 -17.5287 53.2316 -16.546 53.1876 -15.314H59.6116C59.6409 -15.5487 59.6556 -15.754 59.6556 -15.93C59.6556 -17.0153 59.3916 -17.8587 58.8636 -18.46C58.3356 -19.0613 57.5949 -19.362 56.6416 -19.362ZM62.9724 -10.452C64.0724 -9.968 65.2091 -9.726 66.3824 -9.726C68.3624 -9.726 69.3524 -10.496 69.3524 -12.036C69.3524 -12.5347 69.2058 -12.938 68.9124 -13.246C68.6338 -13.554 68.1644 -13.8107 67.5044 -14.016L65.8324 -14.544C64.8938 -14.8373 64.2118 -15.204 63.7864 -15.644C63.3611 -16.0987 63.1484 -16.6707 63.1484 -17.36C63.1484 -18.284 63.5078 -19.0173 64.2264 -19.56C64.9598 -20.1173 65.9424 -20.396 67.1744 -20.396C68.2158 -20.396 69.2058 -20.198 70.1444 -19.802V-18.768C69.1618 -19.1493 68.1938 -19.34 67.2404 -19.34C66.3751 -19.34 65.6931 -19.164 65.1944 -18.812C64.7104 -18.4747 64.4684 -18.0053 64.4684 -17.404C64.4684 -16.9787 64.6004 -16.634 64.8644 -16.37C65.1431 -16.1207 65.6344 -15.8787 66.3384 -15.644L68.0764 -15.072C68.9711 -14.7787 69.6238 -14.39 70.0344 -13.906C70.4598 -13.422 70.6724 -12.806 70.6724 -12.058C70.6724 -10.9727 70.3058 -10.1367 69.5724 -9.55C68.8391 -8.96333 67.8051 -8.67 66.4704 -8.67C65.2384 -8.67 64.1311 -8.89733 63.1484 -9.352L62.9724 -10.452ZM83.1339 -8.67C81.5352 -8.67 80.3252 -9.16133 79.5039 -10.144C78.6972 -11.1413 78.2939 -12.608 78.2939 -14.544C78.2939 -16.4653 78.6972 -17.9173 79.5039 -18.9C80.3252 -19.8973 81.5352 -20.396 83.1339 -20.396C84.7325 -20.396 85.9352 -19.8973 86.7419 -18.9C87.5632 -17.9173 87.9739 -16.4653 87.9739 -14.544C87.9739 -12.608 87.5632 -11.1413 86.7419 -10.144C85.9352 -9.16133 84.7325 -8.67 83.1339 -8.67ZM83.1339 -9.726C84.3365 -9.726 85.2092 -10.1073 85.7519 -10.87C86.3092 -11.6473 86.5879 -12.872 86.5879 -14.544C86.5879 -16.2013 86.3092 -17.4113 85.7519 -18.174C85.2092 -18.9513 84.3365 -19.34 83.1339 -19.34C81.9312 -19.34 81.0512 -18.9513 80.4939 -18.174C79.9512 -17.4113 79.6799 -16.2013 79.6799 -14.544C79.6799 -12.872 79.9512 -11.6473 80.4939 -10.87C81.0512 -10.1073 81.9312 -9.726 83.1339 -9.726ZM90.9437 -9V-20L92.0657 -20.11L92.1757 -19.12C93.1584 -19.9267 94.207 -20.33 95.3217 -20.33C95.7177 -20.33 96.033 -20.286 96.2677 -20.198V-19.12C95.8864 -19.208 95.549 -19.252 95.2557 -19.252C94.2144 -19.252 93.217 -18.878 92.2637 -18.13V-9H90.9437ZM117.25 -9V-16.854C117.25 -18.5113 116.466 -19.34 114.896 -19.34C113.987 -19.34 112.946 -19.01 111.772 -18.35C111.89 -17.954 111.948 -17.5287 111.948 -17.074V-9H110.628V-16.854C110.628 -18.5113 109.844 -19.34 108.274 -19.34C107.394 -19.34 106.412 -19.0393 105.326 -18.438V-9H104.006V-20L105.128 -20.11L105.216 -19.34C106.463 -20.044 107.592 -20.396 108.604 -20.396C109.895 -20.396 110.826 -19.9707 111.398 -19.12C112.821 -19.9707 114.097 -20.396 115.226 -20.396C116.297 -20.396 117.118 -20.11 117.69 -19.538C118.277 -18.966 118.57 -18.1447 118.57 -17.074V-9H117.25ZM122.118 -9V-19.956L123.438 -20.132V-9H122.118ZM122.778 -22.75C122.484 -22.75 122.242 -22.838 122.052 -23.014C121.876 -23.19 121.788 -23.432 121.788 -23.74C121.788 -24.048 121.876 -24.29 122.052 -24.466C122.242 -24.642 122.484 -24.73 122.778 -24.73C123.071 -24.73 123.306 -24.642 123.482 -24.466C123.672 -24.29 123.768 -24.048 123.768 -23.74C123.768 -23.432 123.672 -23.19 123.482 -23.014C123.306 -22.838 123.071 -22.75 122.778 -22.75ZM134.493 -9V-16.634C134.493 -18.438 133.577 -19.34 131.743 -19.34C131.259 -19.34 130.724 -19.2593 130.137 -19.098C129.565 -18.9367 129.001 -18.7167 128.443 -18.438V-9H127.123V-20L128.245 -20.11L128.333 -19.34C129.609 -20.044 130.856 -20.396 132.073 -20.396C133.261 -20.396 134.178 -20.088 134.823 -19.472C135.483 -18.856 135.813 -17.9833 135.813 -16.854V-9H134.493ZM139.348 -9V-19.956L140.668 -20.132V-9H139.348ZM140.008 -22.75C139.715 -22.75 139.473 -22.838 139.282 -23.014C139.106 -23.19 139.018 -23.432 139.018 -23.74C139.018 -24.048 139.106 -24.29 139.282 -24.466C139.473 -24.642 139.715 -24.73 140.008 -24.73C140.301 -24.73 140.536 -24.642 140.712 -24.466C140.903 -24.29 140.998 -24.048 140.998 -23.74C140.998 -23.432 140.903 -23.19 140.712 -23.014C140.536 -22.838 140.301 -22.75 140.008 -22.75ZM157.598 -9V-16.854C157.598 -18.5113 156.813 -19.34 155.244 -19.34C154.335 -19.34 153.293 -19.01 152.12 -18.35C152.237 -17.954 152.296 -17.5287 152.296 -17.074V-9H150.976V-16.854C150.976 -18.5113 150.191 -19.34 148.622 -19.34C147.742 -19.34 146.759 -19.0393 145.674 -18.438V-9H144.354V-20L145.476 -20.11L145.564 -19.34C146.811 -20.044 147.94 -20.396 148.952 -20.396C150.243 -20.396 151.174 -19.9707 151.746 -19.12C153.169 -19.9707 154.445 -20.396 155.574 -20.396C156.645 -20.396 157.466 -20.11 158.038 -19.538C158.625 -18.966 158.918 -18.1447 158.918 -17.074V-9H157.598ZM163.631 -20.066V-12.432C163.631 -10.628 164.519 -9.726 166.293 -9.726C166.777 -9.726 167.305 -9.80667 167.877 -9.968C168.464 -10.1293 169.036 -10.3493 169.593 -10.628V-20.066H170.913V-9.066L169.791 -8.956L169.703 -9.726C168.427 -9.022 167.181 -8.67 165.963 -8.67C164.805 -8.67 163.903 -8.978 163.257 -9.594C162.627 -10.2247 162.311 -11.0973 162.311 -12.212V-20.066H163.631ZM187.848 -9V-16.854C187.848 -18.5113 187.063 -19.34 185.494 -19.34C184.585 -19.34 183.543 -19.01 182.37 -18.35C182.487 -17.954 182.546 -17.5287 182.546 -17.074V-9H181.226V-16.854C181.226 -18.5113 180.441 -19.34 178.872 -19.34C177.992 -19.34 177.009 -19.0393 175.924 -18.438V-9H174.604V-20L175.726 -20.11L175.814 -19.34C177.061 -20.044 178.19 -20.396 179.202 -20.396C180.493 -20.396 181.424 -19.9707 181.996 -19.12C183.419 -19.9707 184.695 -20.396 185.824 -20.396C186.895 -20.396 187.716 -20.11 188.288 -19.538C188.875 -18.966 189.168 -18.1447 189.168 -17.074V-9H187.848ZM191.857 -10.452C192.957 -9.968 194.094 -9.726 195.267 -9.726C197.247 -9.726 198.237 -10.496 198.237 -12.036C198.237 -12.5347 198.091 -12.938 197.797 -13.246C197.519 -13.554 197.049 -13.8107 196.389 -14.016L194.717 -14.544C193.779 -14.8373 193.097 -15.204 192.671 -15.644C192.246 -16.0987 192.033 -16.6707 192.033 -17.36C192.033 -18.284 192.393 -19.0173 193.111 -19.56C193.845 -20.1173 194.827 -20.396 196.059 -20.396C197.101 -20.396 198.091 -20.198 199.029 -19.802V-18.768C198.047 -19.1493 197.079 -19.34 196.125 -19.34C195.26 -19.34 194.578 -19.164 194.079 -18.812C193.595 -18.4747 193.353 -18.0053 193.353 -17.404C193.353 -16.9787 193.485 -16.634 193.749 -16.37C194.028 -16.1207 194.519 -15.8787 195.223 -15.644L196.961 -15.072C197.856 -14.7787 198.509 -14.39 198.919 -13.906C199.345 -13.422 199.557 -12.806 199.557 -12.058C199.557 -10.9727 199.191 -10.1367 198.457 -9.55C197.724 -8.96333 196.69 -8.67 195.355 -8.67C194.123 -8.67 193.016 -8.89733 192.033 -9.352L191.857 -10.452ZM212.019 -8.67C210.42 -8.67 209.21 -9.16133 208.389 -10.144C207.582 -11.1413 207.179 -12.608 207.179 -14.544C207.179 -16.4653 207.582 -17.9173 208.389 -18.9C209.21 -19.8973 210.42 -20.396 212.019 -20.396C213.617 -20.396 214.82 -19.8973 215.627 -18.9C216.448 -17.9173 216.859 -16.4653 216.859 -14.544C216.859 -12.608 216.448 -11.1413 215.627 -10.144C214.82 -9.16133 213.617 -8.67 212.019 -8.67ZM212.019 -9.726C213.221 -9.726 214.094 -10.1073 214.637 -10.87C215.194 -11.6473 215.473 -12.872 215.473 -14.544C215.473 -16.2013 215.194 -17.4113 214.637 -18.174C214.094 -18.9513 213.221 -19.34 212.019 -19.34C210.816 -19.34 209.936 -18.9513 209.379 -18.174C208.836 -17.4113 208.565 -16.2013 208.565 -14.544C208.565 -12.872 208.836 -11.6473 209.379 -10.87C209.936 -10.1073 210.816 -9.726 212.019 -9.726ZM227.198 -9V-16.634C227.198 -18.438 226.282 -19.34 224.448 -19.34C223.964 -19.34 223.429 -19.2593 222.842 -19.098C222.27 -18.9367 221.706 -18.7167 221.148 -18.438V-9H219.828V-20L220.95 -20.11L221.038 -19.34C222.314 -20.044 223.561 -20.396 224.778 -20.396C225.966 -20.396 226.883 -20.088 227.528 -19.472C228.188 -18.856 228.518 -17.9833 228.518 -16.854V-9H227.198ZM9.152 18.604C8.184 19.088 7.128 19.33 5.984 19.33C4.42933 19.33 3.22667 18.824 2.376 17.812C1.54 16.8 1.122 15.3553 1.122 13.478C1.122 11.6007 1.54 10.156 2.376 9.144C3.22667 8.11733 4.42933 7.604 5.984 7.604C7.084 7.604 8.12533 7.846 9.108 8.33V9.364C8.08133 8.90933 7.084 8.682 6.116 8.682C4.928 8.682 4.026 9.08533 3.41 9.892C2.80867 10.6987 2.508 11.894 2.508 13.478C2.508 15.0473 2.80867 16.2353 3.41 17.042C4.026 17.8487 4.928 18.252 6.116 18.252C7.11333 18.252 8.12533 18.0247 9.152 17.57V18.604ZM11.9886 19V2.478L13.3086 2.302V8.616C14.5406 7.94133 15.7506 7.604 16.9386 7.604C18.1266 7.604 19.0433 7.912 19.6886 8.528C20.3486 9.144 20.6786 10.0167 20.6786 11.146V19H19.3586V11.366C19.3586 9.562 18.442 8.66 16.6086 8.66C16.1246 8.66 15.5893 8.74067 15.0026 8.902C14.4306 9.06333 13.866 9.28333 13.3086 9.562V19H11.9886ZM32.0012 18.604C30.9892 19.088 29.9039 19.33 28.7452 19.33C27.0586 19.33 25.7606 18.8313 24.8512 17.834C23.9419 16.8367 23.4872 15.4067 23.4872 13.544C23.4872 11.696 23.9126 10.244 24.7632 9.188C25.6139 8.132 26.7799 7.604 28.2612 7.604C29.5666 7.604 30.5932 8.01467 31.3412 8.836C32.1039 9.64267 32.4852 10.75 32.4852 12.158C32.4852 12.686 32.4412 13.192 32.3532 13.676H24.7852C24.7999 16.7413 26.1566 18.274 28.8552 18.274C29.9406 18.274 30.9892 18.0393 32.0012 17.57V18.604ZM28.2392 8.638C27.2419 8.638 26.4279 9.00467 25.7972 9.738C25.1666 10.4713 24.8292 11.454 24.7852 12.686H31.2092C31.2386 12.4513 31.2532 12.246 31.2532 12.07C31.2532 10.9847 30.9892 10.1413 30.4612 9.54C29.9332 8.93867 29.1926 8.638 28.2392 8.638ZM42.7321 18.604C41.7641 19.088 40.7081 19.33 39.5641 19.33C38.0094 19.33 36.8067 18.824 35.9561 17.812C35.1201 16.8 34.7021 15.3553 34.7021 13.478C34.7021 11.6007 35.1201 10.156 35.9561 9.144C36.8067 8.11733 38.0094 7.604 39.5641 7.604C40.6641 7.604 41.7054 7.846 42.6881 8.33V9.364C41.6614 8.90933 40.6641 8.682 39.6961 8.682C38.5081 8.682 37.6061 9.08533 36.9901 9.892C36.3887 10.6987 36.0881 11.894 36.0881 13.478C36.0881 15.0473 36.3887 16.2353 36.9901 17.042C37.6061 17.8487 38.5081 18.252 39.6961 18.252C40.6934 18.252 41.7054 18.0247 42.7321 17.57V18.604ZM45.5687 19V2.478L46.8887 2.302V12.84L52.0807 7.934H53.6427L48.2087 13.082L53.8187 19H52.1467L46.8887 13.412V19H45.5687ZM55.6878 19V8.044L57.0078 7.868V19H55.6878ZM56.3478 5.25C56.0545 5.25 55.8125 5.162 55.6218 4.986C55.4458 4.81 55.3578 4.568 55.3578 4.26C55.3578 3.952 55.4458 3.71 55.6218 3.534C55.8125 3.358 56.0545 3.27 56.3478 3.27C56.6412 3.27 56.8758 3.358 57.0518 3.534C57.2425 3.71 57.3378 3.952 57.3378 4.26C57.3378 4.568 57.2425 4.81 57.0518 4.986C56.8758 5.162 56.6412 5.25 56.3478 5.25ZM68.0637 19V11.366C68.0637 9.562 67.147 8.66 65.3137 8.66C64.8297 8.66 64.2944 8.74067 63.7077 8.902C63.1357 9.06333 62.571 9.28333 62.0137 9.562V19H60.6937V8L61.8157 7.89L61.9037 8.66C63.1797 7.956 64.4264 7.604 65.6437 7.604C66.8317 7.604 67.7484 7.912 68.3937 8.528C69.0537 9.144 69.3837 10.0167 69.3837 11.146V19H68.0637ZM76.5263 24.126C75.221 24.126 74.1136 23.8987 73.2043 23.444L73.0283 22.322C74.231 22.8207 75.375 23.07 76.4603 23.07C78.9096 23.07 80.1343 21.9333 80.1343 19.66V18.142C79.577 18.45 79.005 18.692 78.4183 18.868C77.8463 19.044 77.311 19.132 76.8123 19.132C75.375 19.132 74.2456 18.648 73.4243 17.68C72.603 16.712 72.1923 15.37 72.1923 13.654C72.1923 11.7033 72.6543 10.2073 73.5783 9.166C74.517 8.12467 75.8663 7.604 77.6263 7.604C78.961 7.604 80.237 7.83867 81.4543 8.308V19.55C81.4543 21.0167 81.029 22.146 80.1783 22.938C79.3276 23.73 78.1103 24.126 76.5263 24.126ZM76.9883 18.076C77.4723 18.076 77.993 17.9953 78.5503 17.834C79.1076 17.6727 79.6356 17.4527 80.1343 17.174V9.012C79.3716 8.77733 78.5723 8.66 77.7363 8.66C76.3283 8.66 75.2796 9.07067 74.5903 9.892C73.9156 10.6987 73.5783 11.9453 73.5783 13.632C73.5783 15.084 73.8643 16.1913 74.4363 16.954C75.023 17.702 75.8736 18.076 76.9883 18.076ZM97.4189 19.044L97.3309 18.274C96.0696 18.978 94.8229 19.33 93.5909 19.33C92.4616 19.33 91.5669 19.0367 90.9069 18.45C90.2469 17.8487 89.9169 17.0273 89.9169 15.986C89.9169 14.886 90.2836 14.05 91.0169 13.478C91.7649 12.8913 92.8576 12.598 94.2949 12.598C95.1603 12.598 96.1429 12.7007 97.2429 12.906V11.41C97.2429 9.57667 96.2089 8.66 94.1409 8.66C93.5983 8.66 93.0043 8.73333 92.3589 8.88C91.7136 9.02667 91.1196 9.21733 90.5769 9.452V8.418C91.1049 8.16867 91.7063 7.97067 92.3809 7.824C93.0703 7.67733 93.7229 7.604 94.3389 7.604C95.7176 7.604 96.7589 7.934 97.4629 8.594C98.1816 9.23933 98.5409 10.178 98.5409 11.41V18.934L97.4189 19.044ZM93.8989 18.274C94.4269 18.274 94.9843 18.1933 95.5709 18.032C96.1576 17.8707 96.7149 17.6507 97.2429 17.372V13.852C96.3189 13.676 95.4096 13.588 94.5149 13.588C93.3856 13.588 92.5643 13.7787 92.0509 14.16C91.5376 14.5413 91.2809 15.1427 91.2809 15.964C91.2809 17.504 92.1536 18.274 93.8989 18.274ZM109.377 18.604C108.409 19.088 107.353 19.33 106.209 19.33C104.654 19.33 103.451 18.824 102.601 17.812C101.765 16.8 101.347 15.3553 101.347 13.478C101.347 11.6007 101.765 10.156 102.601 9.144C103.451 8.11733 104.654 7.604 106.209 7.604C107.309 7.604 108.35 7.846 109.333 8.33V9.364C108.306 8.90933 107.309 8.682 106.341 8.682C105.153 8.682 104.251 9.08533 103.635 9.892C103.033 10.6987 102.733 11.894 102.733 13.478C102.733 15.0473 103.033 16.2353 103.635 17.042C104.251 17.8487 105.153 18.252 106.341 18.252C107.338 18.252 108.35 18.0247 109.377 17.57V18.604ZM119.302 18.604C118.334 19.088 117.278 19.33 116.134 19.33C114.58 19.33 113.377 18.824 112.526 17.812C111.69 16.8 111.272 15.3553 111.272 13.478C111.272 11.6007 111.69 10.156 112.526 9.144C113.377 8.11733 114.58 7.604 116.134 7.604C117.234 7.604 118.276 7.846 119.258 8.33V9.364C118.232 8.90933 117.234 8.682 116.266 8.682C115.078 8.682 114.176 9.08533 113.56 9.892C112.959 10.6987 112.658 11.894 112.658 13.478C112.658 15.0473 112.959 16.2353 113.56 17.042C114.176 17.8487 115.078 18.252 116.266 18.252C117.264 18.252 118.276 18.0247 119.302 17.57V18.604ZM126.038 19.33C124.44 19.33 123.23 18.8387 122.408 17.856C121.602 16.8587 121.198 15.392 121.198 13.456C121.198 11.5347 121.602 10.0827 122.408 9.1C123.23 8.10267 124.44 7.604 126.038 7.604C127.637 7.604 128.84 8.10267 129.646 9.1C130.468 10.0827 130.878 11.5347 130.878 13.456C130.878 15.392 130.468 16.8587 129.646 17.856C128.84 18.8387 127.637 19.33 126.038 19.33ZM126.038 18.274C127.241 18.274 128.114 17.8927 128.656 17.13C129.214 16.3527 129.492 15.128 129.492 13.456C129.492 11.7987 129.214 10.5887 128.656 9.826C128.114 9.04867 127.241 8.66 126.038 8.66C124.836 8.66 123.956 9.04867 123.398 9.826C122.856 10.5887 122.584 11.7987 122.584 13.456C122.584 15.128 122.856 16.3527 123.398 17.13C123.956 17.8927 124.836 18.274 126.038 18.274ZM135.014 7.934V15.568C135.014 17.372 135.901 18.274 137.676 18.274C138.16 18.274 138.688 18.1933 139.26 18.032C139.847 17.8707 140.419 17.6507 140.976 17.372V7.934H142.296V18.934L141.174 19.044L141.086 18.274C139.81 18.978 138.563 19.33 137.346 19.33C136.187 19.33 135.285 19.022 134.64 18.406C134.009 17.7753 133.694 16.9027 133.694 15.788V7.934H135.014ZM153.357 19V11.366C153.357 9.562 152.44 8.66 150.607 8.66C150.123 8.66 149.587 8.74067 149.001 8.902C148.429 9.06333 147.864 9.28333 147.307 9.562V19H145.987V8L147.109 7.89L147.197 8.66C148.473 7.956 149.719 7.604 150.937 7.604C152.125 7.604 153.041 7.912 153.687 8.528C154.347 9.144 154.677 10.0167 154.677 11.146V19H153.357ZM159.839 8.946V15.986C159.839 16.7487 160.001 17.3133 160.323 17.68C160.646 18.032 161.145 18.208 161.819 18.208C162.259 18.208 162.758 18.1273 163.315 17.966V18.934C162.699 19.1393 162.135 19.242 161.621 19.242C160.609 19.242 159.839 18.9707 159.311 18.428C158.783 17.8707 158.519 17.0493 158.519 15.964V8.946H156.847V8L158.563 7.934L158.695 5.162L159.839 5.03V7.934H163.161V8.946H159.839ZM164.744 17.548C165.844 18.032 166.981 18.274 168.154 18.274C170.134 18.274 171.124 17.504 171.124 15.964C171.124 15.4653 170.977 15.062 170.684 14.754C170.405 14.446 169.936 14.1893 169.276 13.984L167.604 13.456C166.665 13.1627 165.983 12.796 165.558 12.356C165.133 11.9013 164.92 11.3293 164.92 10.64C164.92 9.716 165.279 8.98267 165.998 8.44C166.731 7.88267 167.714 7.604 168.946 7.604C169.987 7.604 170.977 7.802 171.916 8.198V9.232C170.933 8.85067 169.965 8.66 169.012 8.66C168.147 8.66 167.465 8.836 166.966 9.188C166.482 9.52533 166.24 9.99467 166.24 10.596C166.24 11.0213 166.372 11.366 166.636 11.63C166.915 11.8793 167.406 12.1213 168.11 12.356L169.848 12.928C170.743 13.2213 171.395 13.61 171.806 14.094C172.231 14.578 172.444 15.194 172.444 15.942C172.444 17.0273 172.077 17.8633 171.344 18.45C170.611 19.0367 169.577 19.33 168.242 19.33C167.01 19.33 165.903 19.1027 164.92 18.648L164.744 17.548ZM175.709 19.11C175.416 19.11 175.174 19.022 174.983 18.846C174.793 18.6553 174.697 18.406 174.697 18.098C174.697 17.79 174.793 17.548 174.983 17.372C175.174 17.1813 175.416 17.086 175.709 17.086C176.003 17.086 176.245 17.1813 176.435 17.372C176.626 17.548 176.721 17.79 176.721 18.098C176.721 18.406 176.626 18.6553 176.435 18.846C176.245 19.022 176.003 19.11 175.709 19.11Z" fill="#013D5B"/>
</g>
<defs>
<clipPath id="clip0_11093_3608">
<rect width="231" height="25" fill="white"/>
</clipPath>
</defs>
</svg>
