<svg width="231" height="28" viewBox="0 0 231 28" fill="none" xmlns="http://www.w3.org/2000/svg">
<g clip-path="url(#clip0_11093_3608)">
<path d="M4.972 22V7.722H0.33V6.6H11V7.722H6.358V22H4.972ZM13.1703 22V5.478L14.4903 5.302V11.616C15.7223 10.9413 16.9323 10.604 18.1203 10.604C19.3083 10.604 20.2249 10.912 20.8703 11.528C21.5303 12.144 21.8603 13.0167 21.8603 14.146V22H20.5403V14.366C20.5403 12.562 19.6236 11.66 17.7903 11.66C17.3063 11.66 16.7709 11.7407 16.1843 11.902C15.6123 12.0633 15.0476 12.2833 14.4903 12.562V22H13.1703ZM33.1829 21.604C32.1709 22.088 31.0855 22.33 29.9269 22.33C28.2402 22.33 26.9422 21.8313 26.0329 20.834C25.1235 19.8367 24.6689 18.4067 24.6689 16.544C24.6689 14.696 25.0942 13.244 25.9449 12.188C26.7955 11.132 27.9615 10.604 29.4429 10.604C30.7482 10.604 31.7749 11.0147 32.5229 11.836C33.2855 12.6427 33.6669 13.75 33.6669 15.158C33.6669 15.686 33.6229 16.192 33.5349 16.676H25.9669C25.9815 19.7413 27.3382 21.274 30.0369 21.274C31.1222 21.274 32.1709 21.0393 33.1829 20.57V21.604ZM29.4209 11.638C28.4235 11.638 27.6095 12.0047 26.9789 12.738C26.3482 13.4713 26.0109 14.454 25.9669 15.686H32.3909C32.4202 15.4513 32.4349 15.246 32.4349 15.07C32.4349 13.9847 32.1709 13.1413 31.6429 12.54C31.1149 11.9387 30.3742 11.638 29.4209 11.638ZM43.4297 11.594C43.9871 11.286 44.5517 11.044 45.1237 10.868C45.7104 10.692 46.2531 10.604 46.7517 10.604C48.1891 10.604 49.3184 11.11 50.1397 12.122C50.9611 13.1193 51.3717 14.5053 51.3717 16.28C51.3717 18.2307 50.9024 19.7267 49.9637 20.768C49.0397 21.8093 47.6977 22.33 45.9377 22.33C44.6911 22.33 43.4151 22.1247 42.1097 21.714V5.478L43.4297 5.302V11.594ZM46.5757 11.66C46.0917 11.66 45.5711 11.7407 45.0137 11.902C44.4564 12.0633 43.9284 12.2833 43.4297 12.562V20.922C44.1924 21.1567 44.9917 21.274 45.8277 21.274C47.2357 21.274 48.2771 20.8707 48.9517 20.064C49.6411 19.2427 49.9857 17.9887 49.9857 16.302C49.9857 14.7913 49.6924 13.64 49.1057 12.848C48.5337 12.056 47.6904 11.66 46.5757 11.66ZM62.1223 21.604C61.1103 22.088 60.025 22.33 58.8663 22.33C57.1797 22.33 55.8817 21.8313 54.9723 20.834C54.063 19.8367 53.6083 18.4067 53.6083 16.544C53.6083 14.696 54.0337 13.244 54.8843 12.188C55.735 11.132 56.901 10.604 58.3823 10.604C59.6877 10.604 60.7143 11.0147 61.4623 11.836C62.225 12.6427 62.6063 13.75 62.6063 15.158C62.6063 15.686 62.5623 16.192 62.4743 16.676H54.9063C54.921 19.7413 56.2777 21.274 58.9763 21.274C60.0617 21.274 61.1103 21.0393 62.1223 20.57V21.604ZM58.3603 11.638C57.363 11.638 56.549 12.0047 55.9183 12.738C55.2877 13.4713 54.9503 14.454 54.9063 15.686H61.3303C61.3597 15.4513 61.3743 15.246 61.3743 15.07C61.3743 13.9847 61.1103 13.1413 60.5823 12.54C60.0543 11.9387 59.3137 11.638 58.3603 11.638ZM64.6912 20.548C65.7912 21.032 66.9278 21.274 68.1012 21.274C70.0812 21.274 71.0712 20.504 71.0712 18.964C71.0712 18.4653 70.9245 18.062 70.6312 17.754C70.3525 17.446 69.8832 17.1893 69.2232 16.984L67.5512 16.456C66.6125 16.1627 65.9305 15.796 65.5052 15.356C65.0798 14.9013 64.8672 14.3293 64.8672 13.64C64.8672 12.716 65.2265 11.9827 65.9452 11.44C66.6785 10.8827 67.6612 10.604 68.8932 10.604C69.9345 10.604 70.9245 10.802 71.8632 11.198V12.232C70.8805 11.8507 69.9125 11.66 68.9592 11.66C68.0938 11.66 67.4118 11.836 66.9132 12.188C66.4292 12.5253 66.1872 12.9947 66.1872 13.596C66.1872 14.0213 66.3192 14.366 66.5832 14.63C66.8618 14.8793 67.3532 15.1213 68.0572 15.356L69.7952 15.928C70.6898 16.2213 71.3425 16.61 71.7532 17.094C72.1785 17.578 72.3912 18.194 72.3912 18.942C72.3912 20.0273 72.0245 20.8633 71.2912 21.45C70.5578 22.0367 69.5238 22.33 68.1892 22.33C66.9572 22.33 65.8498 22.1027 64.8672 21.648L64.6912 20.548ZM76.8666 11.946V18.986C76.8666 19.7487 77.028 20.3133 77.3506 20.68C77.6733 21.032 78.172 21.208 78.8466 21.208C79.2866 21.208 79.7853 21.1273 80.3426 20.966V21.934C79.7266 22.1393 79.162 22.242 78.6486 22.242C77.6366 22.242 76.8666 21.9707 76.3386 21.428C75.8106 20.8707 75.5466 20.0493 75.5466 18.964V11.946H73.8746V11L75.5906 10.934L75.7226 8.162L76.8666 8.03V10.934H80.1886V11.946H76.8666ZM89.4493 11.594C90.0066 11.286 90.5713 11.044 91.1433 10.868C91.7299 10.692 92.2726 10.604 92.7713 10.604C94.2086 10.604 95.3379 11.11 96.1593 12.122C96.9806 13.1193 97.3912 14.5053 97.3912 16.28C97.3912 18.2307 96.9219 19.7267 95.9833 20.768C95.0593 21.8093 93.7173 22.33 91.9573 22.33C90.7106 22.33 89.4346 22.1247 88.1293 21.714V5.478L89.4493 5.302V11.594ZM92.5953 11.66C92.1113 11.66 91.5906 11.7407 91.0333 11.902C90.4759 12.0633 89.9479 12.2833 89.4493 12.562V20.922C90.2119 21.1567 91.0113 21.274 91.8473 21.274C93.2553 21.274 94.2966 20.8707 94.9713 20.064C95.6606 19.2427 96.0053 17.9887 96.0053 16.302C96.0053 14.7913 95.7119 13.64 95.1253 12.848C94.5533 12.056 93.7099 11.66 92.5953 11.66ZM108.142 21.604C107.13 22.088 106.045 22.33 104.886 22.33C103.199 22.33 101.901 21.8313 100.992 20.834C100.083 19.8367 99.6279 18.4067 99.6279 16.544C99.6279 14.696 100.053 13.244 100.904 12.188C101.755 11.132 102.921 10.604 104.402 10.604C105.707 10.604 106.734 11.0147 107.482 11.836C108.245 12.6427 108.626 13.75 108.626 15.158C108.626 15.686 108.582 16.192 108.494 16.676H100.926C100.941 19.7413 102.297 21.274 104.996 21.274C106.081 21.274 107.13 21.0393 108.142 20.57V21.604ZM104.38 11.638C103.383 11.638 102.569 12.0047 101.938 12.738C101.307 13.4713 100.97 14.454 100.926 15.686H107.35C107.379 15.4513 107.394 15.246 107.394 15.07C107.394 13.9847 107.13 13.1413 106.602 12.54C106.074 11.9387 105.333 11.638 104.38 11.638ZM120.105 5.302V21.934L118.983 22.044L118.895 21.274C117.648 21.978 116.504 22.33 115.463 22.33C114.025 22.33 112.896 21.8313 112.075 20.834C111.253 19.822 110.843 18.4287 110.843 16.654C110.843 14.7033 111.305 13.2073 112.229 12.166C113.167 11.1247 114.517 10.604 116.277 10.604C117.186 10.604 118.022 10.7213 118.785 10.956V5.478L120.105 5.302ZM115.639 21.274C116.123 21.274 116.643 21.1933 117.201 21.032C117.758 20.8707 118.286 20.6507 118.785 20.372V12.012C118.022 11.7773 117.223 11.66 116.387 11.66C114.979 11.66 113.93 12.0707 113.241 12.892C112.566 13.6987 112.229 14.9453 112.229 16.632C112.229 18.1427 112.515 19.294 113.087 20.086C113.673 20.878 114.524 21.274 115.639 21.274ZM125.421 11.946V18.986C125.421 19.7487 125.583 20.3133 125.905 20.68C126.228 21.032 126.727 21.208 127.401 21.208C127.841 21.208 128.34 21.1273 128.897 20.966V21.934C128.281 22.1393 127.717 22.242 127.203 22.242C126.191 22.242 125.421 21.9707 124.893 21.428C124.365 20.8707 124.101 20.0493 124.101 18.964V11.946H122.429V11L124.145 10.934L124.277 8.162L125.421 8.03V10.934H128.743V11.946H125.421ZM131.184 22V11.044L132.504 10.868V22H131.184ZM131.844 8.25C131.551 8.25 131.309 8.162 131.118 7.986C130.942 7.81 130.854 7.568 130.854 7.26C130.854 6.952 130.942 6.71 131.118 6.534C131.309 6.358 131.551 6.27 131.844 6.27C132.137 6.27 132.372 6.358 132.548 6.534C132.739 6.71 132.834 6.952 132.834 7.26C132.834 7.568 132.739 7.81 132.548 7.986C132.372 8.162 132.137 8.25 131.844 8.25ZM149.434 22V14.146C149.434 12.4887 148.649 11.66 147.08 11.66C146.17 11.66 145.129 11.99 143.956 12.65C144.073 13.046 144.132 13.4713 144.132 13.926V22H142.812V14.146C142.812 12.4887 142.027 11.66 140.458 11.66C139.578 11.66 138.595 11.9607 137.51 12.562V22H136.19V11L137.312 10.89L137.4 11.66C138.646 10.956 139.776 10.604 140.788 10.604C142.078 10.604 143.01 11.0293 143.582 11.88C145.004 11.0293 146.28 10.604 147.41 10.604C148.48 10.604 149.302 10.89 149.874 11.462C150.46 12.034 150.754 12.8553 150.754 13.926V22H149.434ZM162.089 21.604C161.077 22.088 159.992 22.33 158.833 22.33C157.146 22.33 155.848 21.8313 154.939 20.834C154.03 19.8367 153.575 18.4067 153.575 16.544C153.575 14.696 154 13.244 154.851 12.188C155.702 11.132 156.868 10.604 158.349 10.604C159.654 10.604 160.681 11.0147 161.429 11.836C162.192 12.6427 162.573 13.75 162.573 15.158C162.573 15.686 162.529 16.192 162.441 16.676H154.873C154.888 19.7413 156.244 21.274 158.943 21.274C160.028 21.274 161.077 21.0393 162.089 20.57V21.604ZM158.327 11.638C157.33 11.638 156.516 12.0047 155.885 12.738C155.254 13.4713 154.917 14.454 154.873 15.686H161.297C161.326 15.4513 161.341 15.246 161.341 15.07C161.341 13.9847 161.077 13.1413 160.549 12.54C160.021 11.9387 159.28 11.638 158.327 11.638ZM170.158 20.548C171.258 21.032 172.395 21.274 173.568 21.274C175.548 21.274 176.538 20.504 176.538 18.964C176.538 18.4653 176.391 18.062 176.098 17.754C175.819 17.446 175.35 17.1893 174.69 16.984L173.018 16.456C172.079 16.1627 171.397 15.796 170.972 15.356C170.547 14.9013 170.334 14.3293 170.334 13.64C170.334 12.716 170.693 11.9827 171.412 11.44C172.145 10.8827 173.128 10.604 174.36 10.604C175.401 10.604 176.391 10.802 177.33 11.198V12.232C176.347 11.8507 175.379 11.66 174.426 11.66C173.561 11.66 172.879 11.836 172.38 12.188C171.896 12.5253 171.654 12.9947 171.654 13.596C171.654 14.0213 171.786 14.366 172.05 14.63C172.329 14.8793 172.82 15.1213 173.524 15.356L175.262 15.928C176.157 16.2213 176.809 16.61 177.22 17.094C177.645 17.578 177.858 18.194 177.858 18.942C177.858 20.0273 177.491 20.8633 176.758 21.45C176.025 22.0367 174.991 22.33 173.656 22.33C172.424 22.33 171.317 22.1027 170.334 21.648L170.158 20.548ZM182.333 11.946V18.986C182.333 19.7487 182.495 20.3133 182.817 20.68C183.14 21.032 183.639 21.208 184.313 21.208C184.753 21.208 185.252 21.1273 185.809 20.966V21.934C185.193 22.1393 184.629 22.242 184.115 22.242C183.103 22.242 182.333 21.9707 181.805 21.428C181.277 20.8707 181.013 20.0493 181.013 18.964V11.946H179.341V11L181.057 10.934L181.189 8.162L182.333 8.03V10.934H185.655V11.946H182.333ZM192.21 22.33C190.611 22.33 189.401 21.8387 188.58 20.856C187.773 19.8587 187.37 18.392 187.37 16.456C187.37 14.5347 187.773 13.0827 188.58 12.1C189.401 11.1027 190.611 10.604 192.21 10.604C193.809 10.604 195.011 11.1027 195.818 12.1C196.639 13.0827 197.05 14.5347 197.05 16.456C197.05 18.392 196.639 19.8587 195.818 20.856C195.011 21.8387 193.809 22.33 192.21 22.33ZM192.21 21.274C193.413 21.274 194.285 20.8927 194.828 20.13C195.385 19.3527 195.664 18.128 195.664 16.456C195.664 14.7987 195.385 13.5887 194.828 12.826C194.285 12.0487 193.413 11.66 192.21 11.66C191.007 11.66 190.127 12.0487 189.57 12.826C189.027 13.5887 188.756 14.7987 188.756 16.456C188.756 18.128 189.027 19.3527 189.57 20.13C190.127 20.8927 191.007 21.274 192.21 21.274ZM200.02 22V11L201.142 10.89L201.252 11.88C202.235 11.0733 203.283 10.67 204.398 10.67C204.794 10.67 205.109 10.714 205.344 10.802V11.88C204.963 11.792 204.625 11.748 204.332 11.748C203.291 11.748 202.293 12.122 201.34 12.87V22H200.02ZM206.623 25.806C207.664 25.6153 208.478 25.2487 209.065 24.706C209.652 24.1633 210.194 23.298 210.693 22.11L206.469 10.934H207.855L211.309 20.636L214.873 10.934H216.193L211.969 21.89C211.573 22.946 211.155 23.804 210.715 24.464C210.29 25.1387 209.784 25.6667 209.197 26.048C208.61 26.444 207.848 26.7447 206.909 26.95L206.623 25.806ZM220.483 17.6C220.483 16.676 220.63 15.884 220.923 15.224C221.216 14.564 221.7 13.926 222.375 13.31C223.094 12.6647 223.57 12.144 223.805 11.748C224.04 11.3373 224.157 10.868 224.157 10.34C224.157 9.504 223.878 8.85867 223.321 8.404C222.778 7.93467 222.023 7.7 221.055 7.7C219.808 7.7 218.576 8.14733 217.359 9.042V7.942C217.946 7.51667 218.576 7.18667 219.251 6.952C219.94 6.71733 220.63 6.6 221.319 6.6C222.566 6.6 223.57 6.93733 224.333 7.612C225.11 8.272 225.499 9.152 225.499 10.252C225.499 10.8827 225.338 11.462 225.015 11.99C224.692 12.518 224.076 13.1853 223.167 13.992C222.58 14.5053 222.155 15.0333 221.891 15.576C221.642 16.1187 221.51 16.7933 221.495 17.6H220.483ZM220.989 22.11C220.696 22.11 220.454 22.022 220.263 21.846C220.072 21.6553 219.977 21.406 219.977 21.098C219.977 20.79 220.072 20.548 220.263 20.372C220.454 20.1813 220.696 20.086 220.989 20.086C221.282 20.086 221.524 20.1813 221.715 20.372C221.906 20.548 222.001 20.79 222.001 21.098C222.001 21.406 221.906 21.6553 221.715 21.846C221.524 22.022 221.282 22.11 220.989 22.11ZM11.77 34.6H13.112V50H11.792L3.52 36.888V50H2.178V34.6H3.498L11.77 47.712V34.6ZM21.2589 50.33C19.6602 50.33 18.4502 49.8387 17.6289 48.856C16.8222 47.8587 16.4189 46.392 16.4189 44.456C16.4189 42.5347 16.8222 41.0827 17.6289 40.1C18.4502 39.1027 19.6602 38.604 21.2589 38.604C22.8575 38.604 24.0602 39.1027 24.8669 40.1C25.6882 41.0827 26.0989 42.5347 26.0989 44.456C26.0989 46.392 25.6882 47.8587 24.8669 48.856C24.0602 49.8387 22.8575 50.33 21.2589 50.33ZM21.2589 49.274C22.4615 49.274 23.3342 48.8927 23.8769 48.13C24.4342 47.3527 24.7129 46.128 24.7129 44.456C24.7129 42.7987 24.4342 41.5887 23.8769 40.826C23.3342 40.0487 22.4615 39.66 21.2589 39.66C20.0562 39.66 19.1762 40.0487 18.6189 40.826C18.0762 41.5887 17.8049 42.7987 17.8049 44.456C17.8049 46.128 18.0762 47.3527 18.6189 48.13C19.1762 48.8927 20.0562 49.274 21.2589 49.274ZM34.8767 50V39.946H33.2047V39L34.8767 38.934V36.448C34.8767 35.3627 35.1407 34.534 35.6687 33.962C36.2114 33.3753 36.996 33.082 38.0227 33.082C38.58 33.082 39.1447 33.1847 39.7167 33.39V34.358C39.1887 34.1967 38.6827 34.116 38.1987 34.116C37.5094 34.116 37.0034 34.2993 36.6807 34.666C36.358 35.018 36.1967 35.5753 36.1967 36.338V38.934H39.1667V39.946H36.1967V50H34.8767ZM49.1887 49.604C48.1767 50.088 47.0914 50.33 45.9327 50.33C44.2461 50.33 42.9481 49.8313 42.0387 48.834C41.1294 47.8367 40.6747 46.4067 40.6747 44.544C40.6747 42.696 41.1001 41.244 41.9507 40.188C42.8014 39.132 43.9674 38.604 45.4487 38.604C46.7541 38.604 47.7807 39.0147 48.5287 39.836C49.2914 40.6427 49.6727 41.75 49.6727 43.158C49.6727 43.686 49.6287 44.192 49.5407 44.676H41.9727C41.9874 47.7413 43.3441 49.274 46.0427 49.274C47.1281 49.274 48.1767 49.0393 49.1887 48.57V49.604ZM45.4267 39.638C44.4294 39.638 43.6154 40.0047 42.9847 40.738C42.3541 41.4713 42.0167 42.454 41.9727 43.686H48.3967C48.4261 43.4513 48.4407 43.246 48.4407 43.07C48.4407 41.9847 48.1767 41.1413 47.6487 40.54C47.1207 39.9387 46.3801 39.638 45.4267 39.638ZM60.4036 49.604C59.3916 50.088 58.3062 50.33 57.1476 50.33C55.4609 50.33 54.1629 49.8313 53.2536 48.834C52.3442 47.8367 51.8896 46.4067 51.8896 44.544C51.8896 42.696 52.3149 41.244 53.1656 40.188C54.0162 39.132 55.1822 38.604 56.6636 38.604C57.9689 38.604 58.9956 39.0147 59.7436 39.836C60.5062 40.6427 60.8876 41.75 60.8876 43.158C60.8876 43.686 60.8436 44.192 60.7556 44.676H53.1876C53.2022 47.7413 54.5589 49.274 57.2576 49.274C58.3429 49.274 59.3916 49.0393 60.4036 48.57V49.604ZM56.6416 39.638C55.6442 39.638 54.8302 40.0047 54.1996 40.738C53.5689 41.4713 53.2316 42.454 53.1876 43.686H59.6116C59.6409 43.4513 59.6556 43.246 59.6556 43.07C59.6556 41.9847 59.3916 41.1413 58.8636 40.54C58.3356 39.9387 57.5949 39.638 56.6416 39.638ZM62.9724 48.548C64.0724 49.032 65.2091 49.274 66.3824 49.274C68.3624 49.274 69.3524 48.504 69.3524 46.964C69.3524 46.4653 69.2058 46.062 68.9124 45.754C68.6338 45.446 68.1644 45.1893 67.5044 44.984L65.8324 44.456C64.8938 44.1627 64.2118 43.796 63.7864 43.356C63.3611 42.9013 63.1484 42.3293 63.1484 41.64C63.1484 40.716 63.5078 39.9827 64.2264 39.44C64.9598 38.8827 65.9424 38.604 67.1744 38.604C68.2158 38.604 69.2058 38.802 70.1444 39.198V40.232C69.1618 39.8507 68.1938 39.66 67.2404 39.66C66.3751 39.66 65.6931 39.836 65.1944 40.188C64.7104 40.5253 64.4684 40.9947 64.4684 41.596C64.4684 42.0213 64.6004 42.366 64.8644 42.63C65.1431 42.8793 65.6344 43.1213 66.3384 43.356L68.0764 43.928C68.9711 44.2213 69.6238 44.61 70.0344 45.094C70.4598 45.578 70.6724 46.194 70.6724 46.942C70.6724 48.0273 70.3058 48.8633 69.5724 49.45C68.8391 50.0367 67.8051 50.33 66.4704 50.33C65.2384 50.33 64.1311 50.1027 63.1484 49.648L62.9724 48.548ZM83.1339 50.33C81.5352 50.33 80.3252 49.8387 79.5039 48.856C78.6972 47.8587 78.2939 46.392 78.2939 44.456C78.2939 42.5347 78.6972 41.0827 79.5039 40.1C80.3252 39.1027 81.5352 38.604 83.1339 38.604C84.7325 38.604 85.9352 39.1027 86.7419 40.1C87.5632 41.0827 87.9739 42.5347 87.9739 44.456C87.9739 46.392 87.5632 47.8587 86.7419 48.856C85.9352 49.8387 84.7325 50.33 83.1339 50.33ZM83.1339 49.274C84.3365 49.274 85.2092 48.8927 85.7519 48.13C86.3092 47.3527 86.5879 46.128 86.5879 44.456C86.5879 42.7987 86.3092 41.5887 85.7519 40.826C85.2092 40.0487 84.3365 39.66 83.1339 39.66C81.9312 39.66 81.0512 40.0487 80.4939 40.826C79.9512 41.5887 79.6799 42.7987 79.6799 44.456C79.6799 46.128 79.9512 47.3527 80.4939 48.13C81.0512 48.8927 81.9312 49.274 83.1339 49.274ZM90.9437 50V39L92.0657 38.89L92.1757 39.88C93.1584 39.0733 94.207 38.67 95.3217 38.67C95.7177 38.67 96.033 38.714 96.2677 38.802V39.88C95.8864 39.792 95.549 39.748 95.2557 39.748C94.2144 39.748 93.217 40.122 92.2637 40.87V50H90.9437ZM117.25 50V42.146C117.25 40.4887 116.466 39.66 114.896 39.66C113.987 39.66 112.946 39.99 111.772 40.65C111.89 41.046 111.948 41.4713 111.948 41.926V50H110.628V42.146C110.628 40.4887 109.844 39.66 108.274 39.66C107.394 39.66 106.412 39.9607 105.326 40.562V50H104.006V39L105.128 38.89L105.216 39.66C106.463 38.956 107.592 38.604 108.604 38.604C109.895 38.604 110.826 39.0293 111.398 39.88C112.821 39.0293 114.097 38.604 115.226 38.604C116.297 38.604 117.118 38.89 117.69 39.462C118.277 40.034 118.57 40.8553 118.57 41.926V50H117.25ZM122.118 50V39.044L123.438 38.868V50H122.118ZM122.778 36.25C122.484 36.25 122.242 36.162 122.052 35.986C121.876 35.81 121.788 35.568 121.788 35.26C121.788 34.952 121.876 34.71 122.052 34.534C122.242 34.358 122.484 34.27 122.778 34.27C123.071 34.27 123.306 34.358 123.482 34.534C123.672 34.71 123.768 34.952 123.768 35.26C123.768 35.568 123.672 35.81 123.482 35.986C123.306 36.162 123.071 36.25 122.778 36.25ZM134.493 50V42.366C134.493 40.562 133.577 39.66 131.743 39.66C131.259 39.66 130.724 39.7407 130.137 39.902C129.565 40.0633 129.001 40.2833 128.443 40.562V50H127.123V39L128.245 38.89L128.333 39.66C129.609 38.956 130.856 38.604 132.073 38.604C133.261 38.604 134.178 38.912 134.823 39.528C135.483 40.144 135.813 41.0167 135.813 42.146V50H134.493ZM139.348 50V39.044L140.668 38.868V50H139.348ZM140.008 36.25C139.715 36.25 139.473 36.162 139.282 35.986C139.106 35.81 139.018 35.568 139.018 35.26C139.018 34.952 139.106 34.71 139.282 34.534C139.473 34.358 139.715 34.27 140.008 34.27C140.301 34.27 140.536 34.358 140.712 34.534C140.903 34.71 140.998 34.952 140.998 35.26C140.998 35.568 140.903 35.81 140.712 35.986C140.536 36.162 140.301 36.25 140.008 36.25ZM157.598 50V42.146C157.598 40.4887 156.813 39.66 155.244 39.66C154.335 39.66 153.293 39.99 152.12 40.65C152.237 41.046 152.296 41.4713 152.296 41.926V50H150.976V42.146C150.976 40.4887 150.191 39.66 148.622 39.66C147.742 39.66 146.759 39.9607 145.674 40.562V50H144.354V39L145.476 38.89L145.564 39.66C146.811 38.956 147.94 38.604 148.952 38.604C150.243 38.604 151.174 39.0293 151.746 39.88C153.169 39.0293 154.445 38.604 155.574 38.604C156.645 38.604 157.466 38.89 158.038 39.462C158.625 40.034 158.918 40.8553 158.918 41.926V50H157.598ZM163.631 38.934V46.568C163.631 48.372 164.519 49.274 166.293 49.274C166.777 49.274 167.305 49.1933 167.877 49.032C168.464 48.8707 169.036 48.6507 169.593 48.372V38.934H170.913V49.934L169.791 50.044L169.703 49.274C168.427 49.978 167.181 50.33 165.963 50.33C164.805 50.33 163.903 50.022 163.257 49.406C162.627 48.7753 162.311 47.9027 162.311 46.788V38.934H163.631ZM187.848 50V42.146C187.848 40.4887 187.063 39.66 185.494 39.66C184.585 39.66 183.543 39.99 182.37 40.65C182.487 41.046 182.546 41.4713 182.546 41.926V50H181.226V42.146C181.226 40.4887 180.441 39.66 178.872 39.66C177.992 39.66 177.009 39.9607 175.924 40.562V50H174.604V39L175.726 38.89L175.814 39.66C177.061 38.956 178.19 38.604 179.202 38.604C180.493 38.604 181.424 39.0293 181.996 39.88C183.419 39.0293 184.695 38.604 185.824 38.604C186.895 38.604 187.716 38.89 188.288 39.462C188.875 40.034 189.168 40.8553 189.168 41.926V50H187.848ZM191.857 48.548C192.957 49.032 194.094 49.274 195.267 49.274C197.247 49.274 198.237 48.504 198.237 46.964C198.237 46.4653 198.091 46.062 197.797 45.754C197.519 45.446 197.049 45.1893 196.389 44.984L194.717 44.456C193.779 44.1627 193.097 43.796 192.671 43.356C192.246 42.9013 192.033 42.3293 192.033 41.64C192.033 40.716 192.393 39.9827 193.111 39.44C193.845 38.8827 194.827 38.604 196.059 38.604C197.101 38.604 198.091 38.802 199.029 39.198V40.232C198.047 39.8507 197.079 39.66 196.125 39.66C195.26 39.66 194.578 39.836 194.079 40.188C193.595 40.5253 193.353 40.9947 193.353 41.596C193.353 42.0213 193.485 42.366 193.749 42.63C194.028 42.8793 194.519 43.1213 195.223 43.356L196.961 43.928C197.856 44.2213 198.509 44.61 198.919 45.094C199.345 45.578 199.557 46.194 199.557 46.942C199.557 48.0273 199.191 48.8633 198.457 49.45C197.724 50.0367 196.69 50.33 195.355 50.33C194.123 50.33 193.016 50.1027 192.033 49.648L191.857 48.548ZM212.019 50.33C210.42 50.33 209.21 49.8387 208.389 48.856C207.582 47.8587 207.179 46.392 207.179 44.456C207.179 42.5347 207.582 41.0827 208.389 40.1C209.21 39.1027 210.42 38.604 212.019 38.604C213.617 38.604 214.82 39.1027 215.627 40.1C216.448 41.0827 216.859 42.5347 216.859 44.456C216.859 46.392 216.448 47.8587 215.627 48.856C214.82 49.8387 213.617 50.33 212.019 50.33ZM212.019 49.274C213.221 49.274 214.094 48.8927 214.637 48.13C215.194 47.3527 215.473 46.128 215.473 44.456C215.473 42.7987 215.194 41.5887 214.637 40.826C214.094 40.0487 213.221 39.66 212.019 39.66C210.816 39.66 209.936 40.0487 209.379 40.826C208.836 41.5887 208.565 42.7987 208.565 44.456C208.565 46.128 208.836 47.3527 209.379 48.13C209.936 48.8927 210.816 49.274 212.019 49.274ZM227.198 50V42.366C227.198 40.562 226.282 39.66 224.448 39.66C223.964 39.66 223.429 39.7407 222.842 39.902C222.27 40.0633 221.706 40.2833 221.148 40.562V50H219.828V39L220.95 38.89L221.038 39.66C222.314 38.956 223.561 38.604 224.778 38.604C225.966 38.604 226.883 38.912 227.528 39.528C228.188 40.144 228.518 41.0167 228.518 42.146V50H227.198ZM9.152 77.604C8.184 78.088 7.128 78.33 5.984 78.33C4.42933 78.33 3.22667 77.824 2.376 76.812C1.54 75.8 1.122 74.3553 1.122 72.478C1.122 70.6007 1.54 69.156 2.376 68.144C3.22667 67.1173 4.42933 66.604 5.984 66.604C7.084 66.604 8.12533 66.846 9.108 67.33V68.364C8.08133 67.9093 7.084 67.682 6.116 67.682C4.928 67.682 4.026 68.0853 3.41 68.892C2.80867 69.6987 2.508 70.894 2.508 72.478C2.508 74.0473 2.80867 75.2353 3.41 76.042C4.026 76.8487 4.928 77.252 6.116 77.252C7.11333 77.252 8.12533 77.0247 9.152 76.57V77.604ZM11.9886 78V61.478L13.3086 61.302V67.616C14.5406 66.9413 15.7506 66.604 16.9386 66.604C18.1266 66.604 19.0433 66.912 19.6886 67.528C20.3486 68.144 20.6786 69.0167 20.6786 70.146V78H19.3586V70.366C19.3586 68.562 18.442 67.66 16.6086 67.66C16.1246 67.66 15.5893 67.7407 15.0026 67.902C14.4306 68.0633 13.866 68.2833 13.3086 68.562V78H11.9886ZM32.0012 77.604C30.9892 78.088 29.9039 78.33 28.7452 78.33C27.0586 78.33 25.7606 77.8313 24.8512 76.834C23.9419 75.8367 23.4872 74.4067 23.4872 72.544C23.4872 70.696 23.9126 69.244 24.7632 68.188C25.6139 67.132 26.7799 66.604 28.2612 66.604C29.5666 66.604 30.5932 67.0147 31.3412 67.836C32.1039 68.6427 32.4852 69.75 32.4852 71.158C32.4852 71.686 32.4412 72.192 32.3532 72.676H24.7852C24.7999 75.7413 26.1566 77.274 28.8552 77.274C29.9406 77.274 30.9892 77.0393 32.0012 76.57V77.604ZM28.2392 67.638C27.2419 67.638 26.4279 68.0047 25.7972 68.738C25.1666 69.4713 24.8292 70.454 24.7852 71.686H31.2092C31.2386 71.4513 31.2532 71.246 31.2532 71.07C31.2532 69.9847 30.9892 69.1413 30.4612 68.54C29.9332 67.9387 29.1926 67.638 28.2392 67.638ZM42.7321 77.604C41.7641 78.088 40.7081 78.33 39.5641 78.33C38.0094 78.33 36.8067 77.824 35.9561 76.812C35.1201 75.8 34.7021 74.3553 34.7021 72.478C34.7021 70.6007 35.1201 69.156 35.9561 68.144C36.8067 67.1173 38.0094 66.604 39.5641 66.604C40.6641 66.604 41.7054 66.846 42.6881 67.33V68.364C41.6614 67.9093 40.6641 67.682 39.6961 67.682C38.5081 67.682 37.6061 68.0853 36.9901 68.892C36.3887 69.6987 36.0881 70.894 36.0881 72.478C36.0881 74.0473 36.3887 75.2353 36.9901 76.042C37.6061 76.8487 38.5081 77.252 39.6961 77.252C40.6934 77.252 41.7054 77.0247 42.7321 76.57V77.604ZM45.5687 78V61.478L46.8887 61.302V71.84L52.0807 66.934H53.6427L48.2087 72.082L53.8187 78H52.1467L46.8887 72.412V78H45.5687ZM55.6878 78V67.044L57.0078 66.868V78H55.6878ZM56.3478 64.25C56.0545 64.25 55.8125 64.162 55.6218 63.986C55.4458 63.81 55.3578 63.568 55.3578 63.26C55.3578 62.952 55.4458 62.71 55.6218 62.534C55.8125 62.358 56.0545 62.27 56.3478 62.27C56.6412 62.27 56.8758 62.358 57.0518 62.534C57.2425 62.71 57.3378 62.952 57.3378 63.26C57.3378 63.568 57.2425 63.81 57.0518 63.986C56.8758 64.162 56.6412 64.25 56.3478 64.25ZM68.0637 78V70.366C68.0637 68.562 67.147 67.66 65.3137 67.66C64.8297 67.66 64.2944 67.7407 63.7077 67.902C63.1357 68.0633 62.571 68.2833 62.0137 68.562V78H60.6937V67L61.8157 66.89L61.9037 67.66C63.1797 66.956 64.4264 66.604 65.6437 66.604C66.8317 66.604 67.7484 66.912 68.3937 67.528C69.0537 68.144 69.3837 69.0167 69.3837 70.146V78H68.0637ZM76.5263 83.126C75.221 83.126 74.1136 82.8987 73.2043 82.444L73.0283 81.322C74.231 81.8207 75.375 82.07 76.4603 82.07C78.9096 82.07 80.1343 80.9333 80.1343 78.66V77.142C79.577 77.45 79.005 77.692 78.4183 77.868C77.8463 78.044 77.311 78.132 76.8123 78.132C75.375 78.132 74.2456 77.648 73.4243 76.68C72.603 75.712 72.1923 74.37 72.1923 72.654C72.1923 70.7033 72.6543 69.2073 73.5783 68.166C74.517 67.1247 75.8663 66.604 77.6263 66.604C78.961 66.604 80.237 66.8387 81.4543 67.308V78.55C81.4543 80.0167 81.029 81.146 80.1783 81.938C79.3276 82.73 78.1103 83.126 76.5263 83.126ZM76.9883 77.076C77.4723 77.076 77.993 76.9953 78.5503 76.834C79.1076 76.6727 79.6356 76.4527 80.1343 76.174V68.012C79.3716 67.7773 78.5723 67.66 77.7363 67.66C76.3283 67.66 75.2796 68.0707 74.5903 68.892C73.9156 69.6987 73.5783 70.9453 73.5783 72.632C73.5783 74.084 73.8643 75.1913 74.4363 75.954C75.023 76.702 75.8736 77.076 76.9883 77.076ZM97.4189 78.044L97.3309 77.274C96.0696 77.978 94.8229 78.33 93.5909 78.33C92.4616 78.33 91.5669 78.0367 90.9069 77.45C90.2469 76.8487 89.9169 76.0273 89.9169 74.986C89.9169 73.886 90.2836 73.05 91.0169 72.478C91.7649 71.8913 92.8576 71.598 94.2949 71.598C95.1603 71.598 96.1429 71.7007 97.2429 71.906V70.41C97.2429 68.5767 96.2089 67.66 94.1409 67.66C93.5983 67.66 93.0043 67.7333 92.3589 67.88C91.7136 68.0267 91.1196 68.2173 90.5769 68.452V67.418C91.1049 67.1687 91.7063 66.9707 92.3809 66.824C93.0703 66.6773 93.7229 66.604 94.3389 66.604C95.7176 66.604 96.7589 66.934 97.4629 67.594C98.1816 68.2393 98.5409 69.178 98.5409 70.41V77.934L97.4189 78.044ZM93.8989 77.274C94.4269 77.274 94.9843 77.1933 95.5709 77.032C96.1576 76.8707 96.7149 76.6507 97.2429 76.372V72.852C96.3189 72.676 95.4096 72.588 94.5149 72.588C93.3856 72.588 92.5643 72.7787 92.0509 73.16C91.5376 73.5413 91.2809 74.1427 91.2809 74.964C91.2809 76.504 92.1536 77.274 93.8989 77.274ZM109.377 77.604C108.409 78.088 107.353 78.33 106.209 78.33C104.654 78.33 103.451 77.824 102.601 76.812C101.765 75.8 101.347 74.3553 101.347 72.478C101.347 70.6007 101.765 69.156 102.601 68.144C103.451 67.1173 104.654 66.604 106.209 66.604C107.309 66.604 108.35 66.846 109.333 67.33V68.364C108.306 67.9093 107.309 67.682 106.341 67.682C105.153 67.682 104.251 68.0853 103.635 68.892C103.033 69.6987 102.733 70.894 102.733 72.478C102.733 74.0473 103.033 75.2353 103.635 76.042C104.251 76.8487 105.153 77.252 106.341 77.252C107.338 77.252 108.35 77.0247 109.377 76.57V77.604ZM119.302 77.604C118.334 78.088 117.278 78.33 116.134 78.33C114.58 78.33 113.377 77.824 112.526 76.812C111.69 75.8 111.272 74.3553 111.272 72.478C111.272 70.6007 111.69 69.156 112.526 68.144C113.377 67.1173 114.58 66.604 116.134 66.604C117.234 66.604 118.276 66.846 119.258 67.33V68.364C118.232 67.9093 117.234 67.682 116.266 67.682C115.078 67.682 114.176 68.0853 113.56 68.892C112.959 69.6987 112.658 70.894 112.658 72.478C112.658 74.0473 112.959 75.2353 113.56 76.042C114.176 76.8487 115.078 77.252 116.266 77.252C117.264 77.252 118.276 77.0247 119.302 76.57V77.604ZM126.038 78.33C124.44 78.33 123.23 77.8387 122.408 76.856C121.602 75.8587 121.198 74.392 121.198 72.456C121.198 70.5347 121.602 69.0827 122.408 68.1C123.23 67.1027 124.44 66.604 126.038 66.604C127.637 66.604 128.84 67.1027 129.646 68.1C130.468 69.0827 130.878 70.5347 130.878 72.456C130.878 74.392 130.468 75.8587 129.646 76.856C128.84 77.8387 127.637 78.33 126.038 78.33ZM126.038 77.274C127.241 77.274 128.114 76.8927 128.656 76.13C129.214 75.3527 129.492 74.128 129.492 72.456C129.492 70.7987 129.214 69.5887 128.656 68.826C128.114 68.0487 127.241 67.66 126.038 67.66C124.836 67.66 123.956 68.0487 123.398 68.826C122.856 69.5887 122.584 70.7987 122.584 72.456C122.584 74.128 122.856 75.3527 123.398 76.13C123.956 76.8927 124.836 77.274 126.038 77.274ZM135.014 66.934V74.568C135.014 76.372 135.901 77.274 137.676 77.274C138.16 77.274 138.688 77.1933 139.26 77.032C139.847 76.8707 140.419 76.6507 140.976 76.372V66.934H142.296V77.934L141.174 78.044L141.086 77.274C139.81 77.978 138.563 78.33 137.346 78.33C136.187 78.33 135.285 78.022 134.64 77.406C134.009 76.7753 133.694 75.9027 133.694 74.788V66.934H135.014ZM153.357 78V70.366C153.357 68.562 152.44 67.66 150.607 67.66C150.123 67.66 149.587 67.7407 149.001 67.902C148.429 68.0633 147.864 68.2833 147.307 68.562V78H145.987V67L147.109 66.89L147.197 67.66C148.473 66.956 149.719 66.604 150.937 66.604C152.125 66.604 153.041 66.912 153.687 67.528C154.347 68.144 154.677 69.0167 154.677 70.146V78H153.357ZM159.839 67.946V74.986C159.839 75.7487 160.001 76.3133 160.323 76.68C160.646 77.032 161.145 77.208 161.819 77.208C162.259 77.208 162.758 77.1273 163.315 76.966V77.934C162.699 78.1393 162.135 78.242 161.621 78.242C160.609 78.242 159.839 77.9707 159.311 77.428C158.783 76.8707 158.519 76.0493 158.519 74.964V67.946H156.847V67L158.563 66.934L158.695 64.162L159.839 64.03V66.934H163.161V67.946H159.839ZM164.744 76.548C165.844 77.032 166.981 77.274 168.154 77.274C170.134 77.274 171.124 76.504 171.124 74.964C171.124 74.4653 170.977 74.062 170.684 73.754C170.405 73.446 169.936 73.1893 169.276 72.984L167.604 72.456C166.665 72.1627 165.983 71.796 165.558 71.356C165.133 70.9013 164.92 70.3293 164.92 69.64C164.92 68.716 165.279 67.9827 165.998 67.44C166.731 66.8827 167.714 66.604 168.946 66.604C169.987 66.604 170.977 66.802 171.916 67.198V68.232C170.933 67.8507 169.965 67.66 169.012 67.66C168.147 67.66 167.465 67.836 166.966 68.188C166.482 68.5253 166.24 68.9947 166.24 69.596C166.24 70.0213 166.372 70.366 166.636 70.63C166.915 70.8793 167.406 71.1213 168.11 71.356L169.848 71.928C170.743 72.2213 171.395 72.61 171.806 73.094C172.231 73.578 172.444 74.194 172.444 74.942C172.444 76.0273 172.077 76.8633 171.344 77.45C170.611 78.0367 169.577 78.33 168.242 78.33C167.01 78.33 165.903 78.1027 164.92 77.648L164.744 76.548ZM175.709 78.11C175.416 78.11 175.174 78.022 174.983 77.846C174.793 77.6553 174.697 77.406 174.697 77.098C174.697 76.79 174.793 76.548 174.983 76.372C175.174 76.1813 175.416 76.086 175.709 76.086C176.003 76.086 176.245 76.1813 176.435 76.372C176.626 76.548 176.721 76.79 176.721 77.098C176.721 77.406 176.626 77.6553 176.435 77.846C176.245 78.022 176.003 78.11 175.709 78.11Z" fill="#013D5B"/>
</g>
<defs>
<clipPath id="clip0_11093_3608">
<rect width="231" height="28" fill="white"/>
</clipPath>
</defs>
</svg>
