<svg width="201" height="97" viewBox="0 0 201 97" fill="none" xmlns="http://www.w3.org/2000/svg">
<path d="M157.695 39.2925C157.251 39.2925 156.888 38.9292 156.888 38.4852C156.888 38.0412 157.251 37.6779 157.695 37.6779C158.139 37.6779 158.502 38.0412 158.502 38.4852C158.502 38.9292 158.139 39.2925 157.695 39.2925Z" fill="#00AEEF"/>
<path d="M142.614 13.442L142.146 16.0255H65.9908C64.3842 15.2504 62.6001 14.8468 60.8159 14.8468C57.6189 14.8468 54.6156 16.0901 52.347 18.3587C52.0806 18.6251 51.8142 18.9157 51.572 19.2063C51.0795 19.7957 50.6516 20.4416 50.2803 21.1116C50.0946 21.4507 49.925 21.8059 49.7716 22.1612C49.15 23.6386 48.8271 25.2048 48.8271 26.8194C48.8271 28.4341 49.1419 30.0003 49.7716 31.4777C49.8362 31.6392 51.2813 35.2156 52.7103 38.7517H45.0407L40.3259 65.1351H60.5414L61.0096 62.5598H149.533L157.986 54.2362L160.609 38.6791L158.72 36.7092L162.813 13.434H142.606L142.614 13.442Z" fill="#C7CFDA"/>
<path d="M143.559 14.5803L143.09 17.1638H65.7243C64.2065 16.3887 62.5192 15.9851 60.8158 15.9851C57.9255 15.9851 55.2048 17.1153 53.1542 19.1659C52.912 19.4081 52.6779 19.6665 52.4519 19.9329C52.0078 20.4657 51.6122 21.0551 51.2812 21.6606C51.1117 21.9674 50.9583 22.2903 50.8211 22.6051C50.2559 23.9453 49.9653 25.3662 49.9653 26.8275C49.9653 28.2887 50.2559 29.7096 50.8211 31.0417C50.9018 31.2274 52.9766 36.3862 54.3894 39.8981H45.9933L41.6821 64.0129H59.5967L60.0165 61.6474H148.919L156.952 53.6145L159.398 39.0665L157.509 37.0967L161.465 14.5803H143.559Z" fill="black"/>
<path d="M146.053 55.5602L143.357 58.3132H146.554H147.741L150.421 55.5602H146.74H146.053Z" fill="#7C8A97"/>
<path d="M120.566 55.5602H119.323L116.562 58.3132H117.232H119.565L122.302 55.5602H120.566Z" fill="#7C8A97"/>
<path d="M81.3381 55.5602H80.1029L77.3418 58.3132H78.6254H81.0959L83.8327 55.5602H81.3381Z" fill="#7C8A97"/>
<path d="M91.0987 55.5602H90.5093L87.7483 58.3132H88.273H90.8565L93.5933 55.5602H91.0987Z" fill="#7C8A97"/>
<path d="M86.7392 55.5602H85.6251L82.864 58.3132H83.4049H85.504H85.9076L88.6445 55.5602H86.7392Z" fill="#7C8A97"/>
<path d="M102.175 55.5602H101.545L98.7844 58.3132H103.887H105.437L108.174 55.5602H102.563H102.175Z" fill="#7C8A97"/>
<path d="M97.3957 55.5602H96.0233L93.2622 58.3132H95.3128H96.5803H97.2262L99.963 55.5602H97.3957Z" fill="#7C8A97"/>
<path d="M113.478 55.5602H112.444L109.691 58.3132H113.284L115.964 55.5521C115.924 55.5521 115.884 55.5521 115.843 55.5521H113.478V55.5602Z" fill="#7C8A97"/>
<path d="M124.369 55.5521H124.118L121.422 58.3132H128.567L131.247 55.5521H125.047H124.369Z" fill="#7C8A97"/>
<path d="M135.3 55.5602L132.603 58.3132H135.8H136.987L139.667 55.5602H135.986H135.3Z" fill="#7C8A97"/>
<path d="M76.583 55.5602H75.1944L72.4333 58.3132H73.2407H75.5738L78.3107 55.5602H76.583Z" fill="#7C8A97"/>
<path d="M110.152 41.5288L108.569 50.5304C108.561 50.595 108.537 50.6596 108.513 50.7081C108.432 50.8614 108.295 50.9503 108.077 50.9503H106.115L107.859 41.1251H109.845C110.006 41.1251 110.095 41.1816 110.136 41.2785C110.168 41.3431 110.176 41.4238 110.16 41.5288M111.686 52.1855L112.872 45.4524L113.849 39.906L112.243 38.2349H104.92L102.175 53.8728H109.482L110.588 53.0332L111.694 52.1935L111.686 52.1855Z" fill="white"/>
<path d="M118.144 45.4362L119.597 53.0978C119.646 53.34 119.743 53.5337 119.888 53.6629C120.033 53.7921 120.219 53.8567 120.445 53.8567H122.948L125.693 38.2188H122.496L121.018 46.6634L119.412 38.2188H116.215L113.47 53.8567H115.835C116.352 53.8567 116.707 53.6064 116.796 53.0978L118.136 45.4362H118.144Z" fill="white"/>
<path d="M143.519 52.2501L143.599 52.1855L144.512 47.067L144.673 46.1547L143.066 44.4836H139.272L139.789 41.5611C139.837 41.2946 139.991 41.1332 140.281 41.1332H141.646C141.847 41.1332 141.944 41.222 141.968 41.3673C141.968 41.4157 141.968 41.4723 141.968 41.5368L141.847 42.2715L141.726 43.0062H144.318C144.834 43.0062 145.19 42.7559 145.279 42.2473L145.682 39.898L144.617 38.7919L144.076 38.2268H138.893L137.94 38.9534L136.68 39.906L135.655 45.7349L137.262 47.39H141.056L140.499 50.5385C140.491 50.6031 140.467 50.6677 140.443 50.7161C140.37 50.8776 140.225 50.9583 140.007 50.9583H138.424C138.158 50.9583 138.069 50.8211 138.109 50.5547L138.287 49.5294C138.311 49.4002 138.311 49.2872 138.295 49.1903C138.255 48.9077 138.045 48.7624 137.657 48.7624H135.001L134.396 52.1774L136.002 53.8486H141.411L142.517 53.009L143.543 52.2339L143.519 52.2501Z" fill="white"/>
<path d="M154.926 38.2268H149.743L148.79 38.9453L147.531 39.898L146.506 45.7269L148.112 47.3819H151.907L151.349 50.5305C151.341 50.595 151.317 50.6596 151.293 50.7081C151.212 50.8615 151.075 50.9503 150.857 50.9503H149.275C149.073 50.9503 148.976 50.8776 148.952 50.7242C148.952 50.6758 148.952 50.6193 148.952 50.5466L149.129 49.5213C149.194 49.1338 149.097 48.8997 148.831 48.8109C148.742 48.7786 148.629 48.7624 148.508 48.7624H145.852L145.246 52.1774L146.853 53.8486H152.262L154.474 52.1774L155.548 46.1467L153.941 44.4755H150.147L150.663 41.553C150.679 41.44 150.728 41.3431 150.792 41.2785C150.8 41.2704 150.809 41.2543 150.817 41.2462C150.897 41.1735 151.01 41.1332 151.156 41.1332H152.52C152.682 41.1332 152.77 41.1897 152.811 41.2866C152.843 41.3512 152.851 41.4319 152.835 41.5288L152.714 42.2634L152.593 42.9981H155.184C155.701 42.9981 156.056 42.7559 156.145 42.2392L156.549 39.898L156.484 39.8334L154.934 38.2268H154.926Z" fill="white"/>
<path d="M96.1444 48.3184L98.2193 40.9233L97.751 48.3184H96.1444ZM100.9 53.8567L100.972 50.8776L101.255 39.0907C101.255 38.6709 101.069 38.3883 100.738 38.2753C100.625 38.2349 100.504 38.2188 100.367 38.2188H96.1444L93.6175 46.0337L91.0906 53.8486H93.8597C93.8597 53.8486 93.8839 53.8486 93.9001 53.8486C94.1342 53.8486 94.328 53.784 94.4733 53.671C94.6267 53.5499 94.7316 53.3642 94.7962 53.122L95.3775 51.0714H97.5653L97.3877 53.8647H100.892L100.9 53.8567Z" fill="white"/>
<path d="M132.959 53.1543C132.959 53.1543 132.975 53.122 132.975 53.1058L133.354 50.9584H128.979L129.293 49.1742L129.608 47.39H132.063C132.321 47.39 132.523 47.3254 132.676 47.1962C132.829 47.067 132.942 46.8814 133.023 46.6311L133.718 44.4836H130.125L130.609 41.7145L130.706 41.1332H134.145C134.388 41.1332 134.598 41.0767 134.759 40.9556C134.937 40.8264 135.058 40.6407 135.106 40.3662L135.381 38.7435L135.469 38.2188H127.808L126.435 46.0337L125.063 53.8486H132.03C132.2 53.8486 132.345 53.8082 132.482 53.7517C132.733 53.6468 132.91 53.4449 132.975 53.1381" fill="white"/>
<path d="M88.9997 53.8567C89.1289 53.8567 89.25 53.8405 89.3549 53.8082C89.5648 53.7436 89.7344 53.6225 89.8474 53.4288C89.9039 53.3319 89.9443 53.2189 89.9604 53.0897L92.5761 38.2107H87.6595L85.843 43.7167L84.0266 49.2226L84.293 38.9696C84.293 38.7274 84.2365 38.5336 84.1154 38.4044C83.9943 38.2753 83.8086 38.2107 83.5502 38.2107H79.3279L76.583 53.8486H78.8354C79.005 53.8486 79.1503 53.8082 79.2875 53.7517C79.554 53.6387 79.7396 53.4288 79.7962 53.0816L81.6288 42.651L81.3382 53.8405H84.2203C84.3576 53.8405 84.4867 53.8244 84.5917 53.7921C84.9227 53.6952 85.1326 53.4611 85.2698 53.0574L88.709 42.651L86.7472 53.8405H88.9997V53.8567Z" fill="white"/>
<path d="M73.1035 51.1037H70.076L71.0206 45.8642H59.387L59.8553 43.2888H48.6738L48.3428 45.2022H57.5625L56.9731 48.4396H47.7696L47.4386 50.3529H58.5716L59.0399 47.7776H68.7359L67.1858 56.3352H57.4333L57.9016 53.7598H46.8412L46.5021 55.6732H55.6087L55.0275 58.9106H45.937L45.5979 60.8239H56.6179L57.0862 58.2486H68.7762L69.7289 53.009H72.7725L73.1035 51.1037Z" fill="#0072BC"/>
<path d="M145.787 20.5545H134.097L133.152 25.786H130.658L130.327 27.6993H132.805L131.853 32.9308H143.494L143.026 35.5062H154.199L154.538 33.6009H145.311L145.9 30.3554H155.104L155.443 28.4501H144.301L143.841 31.0255H134.145L135.695 22.4598H145.44L144.98 25.0352H156.04L156.379 23.1299H147.264L147.854 19.8844H156.944L157.283 17.9791H146.255L145.787 20.5545Z" fill="#0072BC"/>
<path d="M108.23 35.9179H113.3L115.512 34.2467L116.093 30.9448C116.142 30.7026 116.11 30.5088 116.005 30.3796C115.956 30.3151 115.884 30.2666 115.795 30.2343C115.706 30.202 115.593 30.1859 115.472 30.1859H112.816L112.388 32.5998C112.38 32.6482 112.364 32.6967 112.347 32.737C112.275 32.9147 112.13 33.0196 111.895 33.0196H110.644C110.507 33.0196 110.418 32.9792 110.37 32.9147C110.321 32.842 110.305 32.7451 110.329 32.624L111.912 23.6223C111.936 23.4851 111.984 23.3801 112.065 23.3075C112.146 23.2348 112.259 23.1944 112.404 23.1944H113.655C113.922 23.1944 114.011 23.3478 113.97 23.5981L113.567 25.9232H116.158C116.416 25.9232 116.634 25.8586 116.796 25.7375C116.877 25.6729 116.949 25.6003 116.998 25.5034C117.054 25.4065 117.095 25.2935 117.111 25.1643L117.668 21.9673L116.061 20.2961H110.991L108.779 21.9673L106.615 34.2548L108.222 35.926L108.23 35.9179Z" fill="white"/>
<path d="M71.7793 35.9179C72.0376 35.9179 72.2556 35.8533 72.4171 35.7323C72.5785 35.6112 72.6916 35.4174 72.74 35.159L74.5726 24.7284L74.282 35.9179H77.1642C77.584 35.9179 77.8665 35.7807 78.0522 35.482C78.1168 35.3851 78.1652 35.2721 78.2137 35.1348L81.6529 24.7284L79.6911 35.9179H81.9435C82.2019 35.9179 82.4199 35.8533 82.5813 35.7323C82.7428 35.6112 82.8558 35.4174 82.9043 35.159L85.52 20.28H80.6034L76.9623 31.292L77.2287 21.0389C77.2287 20.5464 77.0027 20.28 76.4941 20.28H72.2718L69.5269 35.9179H71.7793Z" fill="white"/>
<path d="M91.1631 22.9846L90.6948 30.3797H89.0883L91.1631 22.9846ZM85.0355 32.842L84.0425 35.918H86.8116C86.9408 35.918 87.0538 35.9018 87.1588 35.8695C87.3606 35.8049 87.514 35.6838 87.6189 35.4981C87.6754 35.4093 87.7158 35.2963 87.7481 35.1752L88.3294 33.1165H90.5172L90.3396 35.9099H93.8434L94.1986 21.1439C94.1986 21.0066 94.1744 20.8775 94.1341 20.7725C94.0937 20.6676 94.0372 20.5707 93.9564 20.498C93.8757 20.4254 93.7869 20.3689 93.6739 20.3285C93.5609 20.2881 93.4398 20.272 93.3025 20.272H89.0802L86.5533 28.0869L85.0193 32.834L85.0355 32.842Z" fill="white"/>
<path d="M100.795 23.1864H102.781C102.918 23.1864 103.007 23.2268 103.055 23.2914C103.104 23.364 103.12 23.4609 103.095 23.582L102.514 26.9324C102.474 27.1988 102.312 27.3603 102.022 27.3603H100.06L100.795 23.1864ZM97.7106 35.9179C97.8398 35.9179 97.9609 35.9018 98.0659 35.8695C98.1708 35.8372 98.2677 35.7888 98.3484 35.7323C98.5099 35.6112 98.6229 35.4174 98.6713 35.159L99.5433 30.2667H100.682L101.198 33.0923L101.715 35.9179H104.549C104.823 35.9179 105.009 35.7968 105.098 35.6112C105.154 35.4901 105.186 35.3447 105.154 35.159L104.105 29.7742L104.46 29.4997L105.647 28.5874L106.809 21.9512L105.203 20.28H97.8802L95.1353 35.9179H97.7268H97.7106Z" fill="white"/>
<path d="M116.981 35.9179H119.573C120.09 35.9179 120.445 35.6757 120.534 35.159L120.929 32.8905L121.494 29.6612H123.86L122.762 35.9179H125.353C125.87 35.9179 126.225 35.6757 126.314 35.159L128.93 20.28H125.515L124.958 23.4609L124.401 26.6418H122.035L123.149 20.28H119.734L118.362 28.0949L116.99 35.9099L116.981 35.9179Z" fill="white"/>
<path d="M73.7088 37.4519L68.9375 42.3766H72.3283L74.6453 40.0031L77.1319 37.4519H74.5807H73.7088Z" fill="#7C8A97"/>
<path d="M63.5044 42.3766H66.7175L71.5131 37.4519H69.8258H68.2838L63.5044 42.3766Z" fill="#7C8A97"/>
<path d="M157.364 40.5681V40.3582H157.501C157.574 40.3582 157.647 40.3744 157.647 40.4551C157.647 40.5601 157.566 40.5681 157.477 40.5681H157.356H157.364ZM157.364 40.657H157.485L157.663 40.9557H157.776L157.582 40.657C157.679 40.6408 157.76 40.5924 157.76 40.4713C157.76 40.334 157.679 40.2775 157.517 40.2775H157.259V40.9637H157.364V40.665V40.657ZM157.485 41.2059C157.808 41.2059 158.083 40.9557 158.083 40.6085C158.083 40.2614 157.808 40.0192 157.485 40.0192C157.162 40.0192 156.88 40.2694 156.88 40.6085C156.88 40.9476 157.154 41.2059 157.485 41.2059ZM157.009 40.6085C157.009 40.3259 157.219 40.116 157.493 40.116C157.768 40.116 157.978 40.3259 157.978 40.6085C157.978 40.8911 157.768 41.1091 157.493 41.1091C157.219 41.1091 157.009 40.8992 157.009 40.6085Z" fill="white"/>
<path d="M68.4856 26.8032C68.4856 31.0578 65.0302 34.5132 60.7756 34.5132C56.521 34.5132 53.0657 31.0578 53.0657 26.8032C53.0657 22.5486 56.521 19.0933 60.7756 19.0933C65.0302 19.0933 68.4856 22.5486 68.4856 26.8032Z" fill="white"/>
<path d="M62.7374 29.0072H63.5528L63.5125 27.8366L62.7374 29.0072ZM65.8295 28.9911H66.6368L66.5965 27.8204L65.8214 28.9911H65.8295ZM66.7095 30.4039H67.5975C66.3058 32.8501 63.7385 34.5212 60.7756 34.5212C56.521 34.5212 53.0657 31.0659 53.0657 26.8113C53.0657 22.5567 56.521 19.1013 60.7756 19.1013C65.0302 19.1013 68.4856 22.5567 68.4856 26.8113C68.4856 27.9496 68.2353 29.0314 67.7913 30.0083L67.5653 26.7628H65.5631L65.329 27.5944H65.6438L64.6589 29.1606L64.5216 26.7628H62.4952L62.2611 27.5944H62.5679L61.2439 29.6127H60.154C60.041 29.6127 59.5969 29.4997 59.5969 28.9588C59.5969 28.4179 60.1217 27.6186 60.6465 27.6186H60.8725C60.8322 27.7559 60.7595 28.0384 60.7595 28.0384H61.7283L62.0754 26.7709H60.5819C59.6535 26.7709 58.8946 27.4329 58.6604 28.1192L59.048 26.7709H57.7159L57.4817 27.6025H57.8289L57.4817 28.8215L56.6098 26.7709H55.3666L55.1324 27.6025H55.4715L54.6965 30.42H55.6895C55.6895 30.42 56.077 29.0234 56.1739 28.6601C56.3192 28.9991 56.9005 30.42 56.9005 30.42H58.0065L58.5151 28.6278C58.4667 28.8942 58.4667 29.1767 58.5151 29.4512C58.612 30.0406 59.1852 30.42 59.8068 30.42H61.8171L62.1642 29.8953H63.5851L63.6174 30.42H64.8688L65.1917 29.8953H66.6449L66.7014 30.42L66.7095 30.4039Z" fill="#00A3DE"/>
<path d="M68.9781 31.0256C68.9781 31.292 68.7601 31.518 68.4857 31.518C68.2112 31.518 67.9932 31.3001 67.9932 31.0256C67.9932 30.7511 68.2112 30.5331 68.4857 30.5331C68.7601 30.5331 68.9781 30.7511 68.9781 31.0256ZM68.4857 30.4039C68.1466 30.4039 67.864 30.6865 67.864 31.0256C67.864 31.3646 68.1466 31.6472 68.4857 31.6472C68.8247 31.6472 69.1073 31.3646 69.1073 31.0256C69.1073 30.6865 68.8328 30.4039 68.4857 30.4039Z" fill="#00A3DE"/>
<path d="M68.6471 30.8963C68.6471 30.9529 68.5906 31.0013 68.5341 31.0013H68.3726V30.7914H68.5341C68.5906 30.7914 68.6471 30.8318 68.6471 30.8963ZM68.7843 30.8963C68.7843 30.7591 68.6552 30.6703 68.5341 30.6703H68.2354V31.3969H68.3726V31.1224H68.4614L68.639 31.3969H68.8005L68.6148 31.1143C68.6713 31.0982 68.7843 31.0417 68.7843 30.8963Z" fill="#00A3DE"/>
<path d="M14.774 82.3069H16.7358L17.0587 82.6218L16.7358 84.4221L16.4129 84.745H14.3461L14.774 82.3069ZM12.2471 88.2569H13.7326L14.1604 85.8107H17.1879L18.1486 84.85L18.6169 82.2423L17.6562 81.2816H13.4904L12.2551 88.2569H12.2471Z" fill="black"/>
<path d="M21.1761 82.3069H23.1299L23.4447 82.6218L23.1783 84.0911L22.8473 84.4383H20.8048L21.1761 82.315V82.3069ZM22.2902 85.4878L22.8069 88.2569H24.3651L24.5588 87.1751H24.0018L23.6466 85.3021L24.6234 84.3252L24.9948 82.2423L24.0341 81.2816H19.8683L18.6331 88.2569H20.1185L20.6029 85.4878H22.2822H22.2902Z" fill="black"/>
<path d="M27.2229 87.1428L26.8677 86.7876L27.5782 82.7429L27.9415 82.3876H29.6934L30.0486 82.7429L29.3381 86.7795L28.9748 87.1428H27.2229ZM26.2864 88.2569H29.7579L30.7348 87.28L31.6148 82.2665L30.6379 81.2897H27.1664L26.1896 82.2665L25.3096 87.28L26.2864 88.2569Z" fill="black"/>
<path d="M32.8985 88.2569H36.2328L37.2177 87.272L38.2834 81.2736H36.7979L35.8291 86.7472L35.4739 87.1105H33.827L33.4798 86.7553L34.4567 81.2736H32.9712L31.9055 87.272L32.8985 88.2569Z" fill="black"/>
<path d="M40.003 87.1428L40.8426 82.3876H42.7963L43.1515 82.7429L42.433 86.7795L42.0778 87.1428H40.003ZM38.3237 88.2569H42.8448L43.8216 87.28L44.7097 82.2665L43.7328 81.2897H39.5589L38.3237 88.265V88.2569Z" fill="black"/>
<path d="M49.9735 82.3069H51.9353L52.2582 82.6218L51.9353 84.4221L51.6123 84.745H49.5456L49.9735 82.3069ZM47.4465 88.2569H48.932L49.3599 85.8107H52.3874L53.3481 84.85L53.8163 82.2423L52.8556 81.2816H48.6898L47.4546 88.2569H47.4465Z" fill="black"/>
<path d="M56.9327 82.1777L57.1829 85.5362H55.5118L56.9246 82.1777H56.9327ZM52.8799 88.2569H54.3654L55.0354 86.6665H57.2798L57.4009 88.2569H58.9106L58.184 81.2816H56.0123L52.888 88.2569H52.8799Z" fill="black"/>
<path d="M62.2448 82.3069H64.1985L64.5133 82.6218L64.2469 84.0911L63.9159 84.4383H61.8734L62.2448 82.315V82.3069ZM63.3508 85.4878L63.8675 88.2569H65.4256L65.6194 87.1751H65.0623L64.7071 85.3021L65.684 84.3252L66.0553 82.2423L65.0946 81.2816H60.9288L59.6936 88.2569H61.1791L61.6635 85.4878H63.3427H63.3508Z" fill="black"/>
<path d="M71.9974 82.4603L72.1992 81.2736H66.9677L66.7498 82.4603H68.655L67.6297 88.2569H69.0991L70.1163 82.4603H71.9974Z" fill="black"/>
<path d="M71.8359 88.2569H73.1519L74.0157 83.4291L75.6142 88.2569H77.1239L78.3591 81.2736H77.0432L76.1955 85.9964L74.6131 81.2736H73.0711L71.8359 88.2569Z" fill="black"/>
<path d="M78.4963 88.2569H82.9931L83.195 87.1428H80.1756L80.4985 85.2698H83.2273L83.421 84.1557H80.7003L81.0071 82.3877H83.9942L84.1961 81.2736H79.7235L78.4963 88.2569Z" fill="black"/>
<path d="M86.7069 82.3069H88.6606L88.9755 82.6218L88.7091 84.0911L88.3781 84.4383H86.3355L86.7069 82.315V82.3069ZM87.8129 85.4878L88.3296 88.2569H89.8878L90.0815 87.1751H89.5245L89.1693 85.3021L90.1461 84.3252L90.5175 82.2423L89.5568 81.2816H85.391L84.1558 88.2569H85.6412L86.1256 85.4878H87.8049H87.8129Z" fill="black"/>
<path d="M95.2564 87.1428L94.9012 86.7876L95.6116 82.7429L95.9749 82.3876H97.7268L98.082 82.7429L97.3716 86.7795L97.0083 87.1428H95.2564ZM94.3199 88.2569H97.7914L98.7682 87.28L99.6482 82.2665L98.6714 81.2897H95.1999L94.223 82.2665L93.343 87.28L94.3199 88.2569Z" fill="black"/>
<path d="M99.8662 88.2569H101.36L101.852 85.4151H104.484L104.67 84.3091H102.046L102.385 82.3877H105.267L105.469 81.2736H101.101L99.8662 88.2569Z" fill="black"/>
<path d="M107.754 88.2569H109.021L110.087 82.2746L110.547 88.2569H112.291L114.891 82.2908L113.833 88.2569H115.254L116.481 81.2736H114.148L111.669 86.9814L111.25 81.2736H108.989L107.754 88.2569Z" fill="black"/>
<path d="M120.122 82.1777L120.372 85.5362H118.701L120.114 82.1777H120.122ZM116.069 88.2569H117.555L118.225 86.6665H120.469L120.59 88.2569H122.1L121.373 81.2816H119.202L116.077 88.2569H116.069Z" fill="black"/>
<path d="M125.434 82.3069H127.388L127.703 82.6218L127.436 84.0911L127.105 84.4383H125.063L125.434 82.315V82.3069ZM126.548 85.4878L127.065 88.2569H128.623L128.817 87.1751H128.26L127.905 85.3021L128.881 84.3252L129.253 82.2423L128.292 81.2816H124.126L122.891 88.2569H124.377L124.861 85.4878H126.54H126.548Z" fill="black"/>
<path d="M130.545 88.2569H133.879L134.84 87.2962L135.098 85.8511H133.613L133.443 86.7957L133.096 87.1428H131.481L131.126 86.7876L131.836 82.7429L132.2 82.3877H133.847L134.17 82.7025L134 83.6552H135.486L135.736 82.2262L134.791 81.2736H131.417L130.44 82.2585L129.56 87.272L130.545 88.2569Z" fill="black"/>
<path d="M139.619 88.2569H141.104L142.332 81.2736H140.854L140.337 84.1799H138.004L138.521 81.2736H137.044L135.808 88.2569H137.286L137.77 85.4878H140.103L139.619 88.2569Z" fill="black"/>
<path d="M144.972 88.2569H146.231L147.297 82.2746L147.765 88.2569H149.501L152.1 82.2908L151.051 88.2569H152.464L153.699 81.2736H151.366L148.887 86.9814L148.459 81.2736H146.207L144.972 88.2569Z" fill="black"/>
<path d="M157.34 82.1777L157.59 85.5362H155.919L157.332 82.1777H157.34ZM153.287 88.2569H154.773L155.443 86.6665H157.687L157.808 88.2569H159.318L158.591 81.2816H156.42L153.295 88.2569H153.287Z" fill="black"/>
<path d="M161.788 87.1428L162.628 82.3876H164.581L164.937 82.7429L164.218 86.7795L163.863 87.1428H161.788ZM160.109 88.2569H164.63L165.607 87.28L166.495 82.2665L165.518 81.2897H161.344L160.109 88.265V88.2569Z" fill="black"/>
<path d="M166.713 88.2569H168.029L168.885 83.4291L170.483 88.2569H172.001L173.236 81.2736H171.92L171.072 85.9964L169.482 81.2736H167.948L166.713 88.2569Z" fill="black"/>
<path d="M173.365 88.2569H177.862L178.072 87.1428H175.044L175.367 85.2698H178.096L178.29 84.1557H175.569L175.884 82.3877H178.863L179.073 81.2736H174.6L173.365 88.2569Z" fill="black"/>
<path d="M179.88 88.2569H183.239L184.183 87.3043L184.571 85.1568L183.764 84.3495L181.237 83.9377L181.099 83.8086L181.301 82.6299L181.56 82.3715H183.255L183.505 82.6218L183.376 83.3484H184.853L185.063 82.1858L184.143 81.2736H180.841L179.888 82.2262L179.525 84.293L180.332 85.0922L182.859 85.504L183.005 85.6331L182.779 86.8925L182.52 87.1509H180.76L180.526 86.9168L180.655 86.1821H179.17L178.968 87.3447L179.88 88.2569Z" fill="black"/>
<path d="M186.024 88.2569H189.383L190.335 87.3043L190.715 85.1568L189.907 84.3495L187.38 83.9377L187.251 83.8086L187.453 82.6299L187.703 82.3715H189.407L189.657 82.6218L189.528 83.3484H191.005L191.215 82.1858L190.295 81.2736H186.985L186.04 82.2262L185.669 84.293L186.484 85.0922L189.011 85.504L189.148 85.6331L188.93 86.8925L188.664 87.1509H186.904L186.67 86.9168L186.807 86.1821H185.322L185.12 87.3447L186.024 88.2569Z" fill="black"/>
</svg>
