<svg width="136" height="70" viewBox="0 0 136 70" fill="none" xmlns="http://www.w3.org/2000/svg">
<path d="M79.9027 50.6305C79.9027 50.6305 79.884 50.6445 79.8746 50.6492C71.5514 56.5275 61.6944 62.7044 51.0893 69.1845L50.6685 69.4271C50.5282 69.5297 50.4908 69.721 50.5937 69.8656C50.6919 70.0102 50.8882 70.0429 51.0332 69.9403L51.3886 69.7537C60.3852 65.0697 70.7144 59.5086 81.1137 53.803C81.1699 53.7703 81.226 53.7423 81.2821 53.7097C80.7116 52.7766 80.2393 51.7502 79.9073 50.6259L79.9027 50.6305ZM134.532 6.50606C121.411 -7.93307 36.9959 5.05515 1.09847 12.8789L0.261471 13.0608C0.0884604 13.0935 -0.0237644 13.2568 0.00429141 13.4294C0.0370232 13.602 0.196007 13.7186 0.373694 13.686L1.20602 13.5227C30.9499 8.24155 92.799 0.912353 106.107 14.0825C110.166 18.0994 109.198 23.2732 104.494 29.3801C107.033 31.0083 108.838 33.5648 109.651 36.7699C128.032 24.5701 140.382 12.9395 134.537 6.51072L134.532 6.50606Z" fill="#CC2427"/>
</svg>
