<svg width="836" height="35" viewBox="0 0 836 35" fill="none" xmlns="http://www.w3.org/2000/svg">
<path d="M77.1552 23.358C79.5352 24.4007 81.7905 24.922 83.9212 24.922C85.9385 24.922 87.4912 24.48 88.5792 23.596C89.6898 22.6893 90.2452 21.3973 90.2452 19.72C90.2452 18.4507 89.8825 17.4307 89.1572 16.66C88.4318 15.8893 87.2192 15.2433 85.5192 14.722L83.1052 13.974C81.2465 13.4073 79.8865 12.6707 79.0252 11.764C78.1638 10.8347 77.7332 9.656 77.7332 8.228C77.7332 6.30134 78.4585 4.76 79.9092 3.604C81.3825 2.42534 83.3432 1.836 85.7912 1.836C87.7632 1.836 89.6672 2.25534 91.5032 3.094V4.794C89.5538 3.978 87.6725 3.57 85.8592 3.57C84.0005 3.57 82.5498 3.978 81.5072 4.794C80.4645 5.58734 79.9432 6.70934 79.9432 8.16C79.9432 9.18 80.2378 9.98467 80.8272 10.574C81.4165 11.1633 82.4478 11.696 83.9212 12.172L86.3352 12.954C88.5112 13.6567 90.0752 14.5407 91.0272 15.606C91.9792 16.6487 92.4552 18.0087 92.4552 19.686C92.4552 21.8393 91.6958 23.5393 90.1772 24.786C88.6812 26.0327 86.6298 26.656 84.0232 26.656C81.6205 26.656 79.4445 26.1687 77.4952 25.194L77.1552 23.358ZM108.2 26.146V14.348C108.2 11.56 106.783 10.166 103.95 10.166C103.202 10.166 102.375 10.2907 101.468 10.54C100.584 10.7893 99.7114 11.1293 98.8501 11.56V26.146H96.8101V9.146L98.5441 8.976L98.6801 10.166C100.652 9.078 102.579 8.534 104.46 8.534C106.296 8.534 107.713 9.01 108.71 9.962C109.73 10.914 110.24 12.2627 110.24 14.008V26.146H108.2ZM126.175 26.214L126.039 25.024C124.089 26.112 122.163 26.656 120.259 26.656C118.513 26.656 117.131 26.2027 116.111 25.296C115.091 24.3667 114.581 23.0973 114.581 21.488C114.581 19.788 115.147 18.496 116.281 17.612C117.437 16.7053 119.125 16.252 121.347 16.252C122.684 16.252 124.203 16.4107 125.903 16.728V14.416C125.903 11.5827 124.305 10.166 121.109 10.166C120.27 10.166 119.352 10.2793 118.355 10.506C117.357 10.7327 116.439 11.0273 115.601 11.39V9.792C116.417 9.40667 117.346 9.10067 118.389 8.874C119.454 8.64734 120.463 8.534 121.415 8.534C123.545 8.534 125.155 9.044 126.243 10.064C127.353 11.0613 127.909 12.512 127.909 14.416V26.044L126.175 26.214ZM120.735 25.024C121.551 25.024 122.412 24.8993 123.319 24.65C124.225 24.4007 125.087 24.0607 125.903 23.63V18.19C124.475 17.918 123.069 17.782 121.687 17.782C119.941 17.782 118.672 18.0767 117.879 18.666C117.085 19.2553 116.689 20.1847 116.689 21.454C116.689 23.834 118.037 25.024 120.735 25.024ZM138.943 34.068C136.925 34.068 135.214 33.7167 133.809 33.014L133.537 31.28C135.395 32.0507 137.163 32.436 138.841 32.436C142.626 32.436 144.519 30.6793 144.519 27.166V24.82C143.657 25.296 142.773 25.67 141.867 25.942C140.983 26.214 140.155 26.35 139.385 26.35C137.163 26.35 135.418 25.602 134.149 24.106C132.879 22.61 132.245 20.536 132.245 17.884C132.245 14.8693 132.959 12.5573 134.387 10.948C135.837 9.33867 137.923 8.534 140.643 8.534C142.705 8.534 144.677 8.89667 146.559 9.622V26.996C146.559 29.2627 145.901 31.008 144.587 32.232C143.272 33.456 141.391 34.068 138.943 34.068ZM139.657 24.718C140.405 24.718 141.209 24.5933 142.071 24.344C142.932 24.0947 143.748 23.7547 144.519 23.324V10.71C143.34 10.3473 142.105 10.166 140.813 10.166C138.637 10.166 137.016 10.8007 135.951 12.07C134.908 13.3167 134.387 15.2433 134.387 17.85C134.387 20.094 134.829 21.8053 135.713 22.984C136.619 24.14 137.934 24.718 139.657 24.718ZM158.481 23.562C160.476 24.5367 162.527 25.024 164.635 25.024C166.539 25.024 168.058 24.5593 169.191 23.63C170.325 22.7007 170.891 21.4427 170.891 19.856C170.891 18.3147 170.359 17.0793 169.293 16.15C168.228 15.2207 166.789 14.756 164.975 14.756H162.969V13.124H164.907C166.539 13.124 167.831 12.716 168.783 11.9C169.735 11.084 170.211 9.98467 170.211 8.602C170.211 7.15134 169.724 6.018 168.749 5.202C167.775 4.386 166.426 3.978 164.703 3.978C162.89 3.978 161.111 4.352 159.365 5.1V3.468C160.997 2.72 162.833 2.346 164.873 2.346C167.072 2.346 168.863 2.924 170.245 4.08C171.651 5.21334 172.353 6.67534 172.353 8.466C172.353 9.78067 171.968 10.914 171.197 11.866C170.449 12.818 169.395 13.498 168.035 13.906C169.599 14.2913 170.823 15.028 171.707 16.116C172.591 17.1813 173.033 18.4507 173.033 19.924C173.033 21.2613 172.671 22.4513 171.945 23.494C171.243 24.514 170.268 25.296 169.021 25.84C167.797 26.384 166.403 26.656 164.839 26.656C163.751 26.656 162.663 26.5313 161.575 26.282C160.487 26.0553 159.558 25.738 158.787 25.33L158.481 23.562ZM183.335 26.146L195.643 2.856H197.479L185.171 26.146H183.335ZM181.703 16.252C182.905 16.252 183.789 15.7533 184.355 14.756C184.945 13.7587 185.239 12.1947 185.239 10.064C185.239 7.93334 184.945 6.36934 184.355 5.372C183.789 4.37467 182.905 3.876 181.703 3.876C180.502 3.876 179.607 4.37467 179.017 5.372C178.451 6.36934 178.167 7.93334 178.167 10.064C178.167 12.1947 178.451 13.7587 179.017 14.756C179.607 15.7533 180.502 16.252 181.703 16.252ZM181.703 17.612C179.958 17.612 178.621 16.9773 177.691 15.708C176.762 14.416 176.297 12.5347 176.297 10.064C176.297 7.59334 176.762 5.72334 177.691 4.454C178.621 3.162 179.958 2.516 181.703 2.516C183.449 2.516 184.786 3.162 185.715 4.454C186.645 5.72334 187.109 7.59334 187.109 10.064C187.109 12.5347 186.645 14.416 185.715 15.708C184.786 16.9773 183.449 17.612 181.703 17.612ZM199.111 25.126C200.313 25.126 201.197 24.6273 201.763 23.63C202.353 22.6327 202.647 21.0687 202.647 18.938C202.647 16.8073 202.353 15.2433 201.763 14.246C201.197 13.2487 200.313 12.75 199.111 12.75C197.91 12.75 197.015 13.2487 196.425 14.246C195.859 15.2433 195.575 16.8073 195.575 18.938C195.575 21.0687 195.859 22.6327 196.425 23.63C197.015 24.6273 197.91 25.126 199.111 25.126ZM199.111 26.486C197.366 26.486 196.029 25.8513 195.099 24.582C194.17 23.29 193.705 21.4087 193.705 18.938C193.705 16.4673 194.17 14.5973 195.099 13.328C196.029 12.036 197.366 11.39 199.111 11.39C200.857 11.39 202.194 12.036 203.123 13.328C204.053 14.5973 204.517 16.4673 204.517 18.938C204.517 21.4087 204.053 23.29 203.123 24.582C202.194 25.8513 200.857 26.486 199.111 26.486ZM228.559 25.534C227.063 26.282 225.431 26.656 223.663 26.656C221.26 26.656 219.402 25.874 218.087 24.31C216.795 22.746 216.149 20.5133 216.149 17.612C216.149 14.7107 216.795 12.478 218.087 10.914C219.402 9.32734 221.26 8.534 223.663 8.534C225.363 8.534 226.972 8.908 228.491 9.656V11.254C226.904 10.5513 225.363 10.2 223.867 10.2C222.031 10.2 220.637 10.8233 219.685 12.07C218.756 13.3167 218.291 15.164 218.291 17.612C218.291 20.0373 218.756 21.8733 219.685 23.12C220.637 24.3667 222.031 24.99 223.867 24.99C225.408 24.99 226.972 24.6387 228.559 23.936V25.534ZM243.415 26.214L243.279 25.024C241.33 26.112 239.403 26.656 237.499 26.656C235.754 26.656 234.371 26.2027 233.351 25.296C232.331 24.3667 231.821 23.0973 231.821 21.488C231.821 19.788 232.388 18.496 233.521 17.612C234.677 16.7053 236.366 16.252 238.587 16.252C239.924 16.252 241.443 16.4107 243.143 16.728V14.416C243.143 11.5827 241.545 10.166 238.349 10.166C237.51 10.166 236.592 10.2793 235.595 10.506C234.598 10.7327 233.68 11.0273 232.841 11.39V9.792C233.657 9.40667 234.586 9.10067 235.629 8.874C236.694 8.64734 237.703 8.534 238.655 8.534C240.786 8.534 242.395 9.044 243.483 10.064C244.594 11.0613 245.149 12.512 245.149 14.416V26.044L243.415 26.214ZM237.975 25.024C238.791 25.024 239.652 24.8993 240.559 24.65C241.466 24.4007 242.327 24.0607 243.143 23.63V18.19C241.715 17.918 240.31 17.782 238.927 17.782C237.182 17.782 235.912 18.0767 235.119 18.666C234.326 19.2553 233.929 20.1847 233.929 21.454C233.929 23.834 235.278 25.024 237.975 25.024ZM249.281 23.902C250.981 24.65 252.738 25.024 254.551 25.024C257.611 25.024 259.141 23.834 259.141 21.454C259.141 20.6833 258.914 20.06 258.461 19.584C258.03 19.108 257.305 18.7113 256.285 18.394L253.701 17.578C252.25 17.1247 251.196 16.558 250.539 15.878C249.882 15.1753 249.553 14.2913 249.553 13.226C249.553 11.798 250.108 10.6647 251.219 9.826C252.352 8.96467 253.871 8.534 255.775 8.534C257.384 8.534 258.914 8.84 260.365 9.452V11.05C258.846 10.4607 257.35 10.166 255.877 10.166C254.54 10.166 253.486 10.438 252.715 10.982C251.967 11.5033 251.593 12.2287 251.593 13.158C251.593 13.8153 251.797 14.348 252.205 14.756C252.636 15.1413 253.395 15.5153 254.483 15.878L257.169 16.762C258.552 17.2153 259.56 17.816 260.195 18.564C260.852 19.312 261.181 20.264 261.181 21.42C261.181 23.0973 260.614 24.3893 259.481 25.296C258.348 26.2027 256.75 26.656 254.687 26.656C252.783 26.656 251.072 26.3047 249.553 25.602L249.281 23.902ZM265.582 26.146V0.612002L267.622 0.340002V10.098C269.526 9.05534 271.396 8.534 273.232 8.534C275.068 8.534 276.484 9.01 277.482 9.962C278.502 10.914 279.012 12.2627 279.012 14.008V26.146H276.972V14.348C276.972 11.56 275.555 10.166 272.722 10.166C271.974 10.166 271.146 10.2907 270.24 10.54C269.356 10.7893 268.483 11.1293 267.622 11.56V26.146H265.582ZM295.014 10.064C295.875 9.588 296.748 9.214 297.632 8.942C298.539 8.67 299.377 8.534 300.148 8.534C302.369 8.534 304.115 9.316 305.384 10.88C306.653 12.4213 307.288 14.5633 307.288 17.306C307.288 20.3207 306.563 22.6327 305.112 24.242C303.684 25.8513 301.61 26.656 298.89 26.656C296.963 26.656 294.991 26.3387 292.974 25.704V0.612002L295.014 0.340002V10.064ZM299.876 10.166C299.128 10.166 298.323 10.2907 297.462 10.54C296.601 10.7893 295.785 11.1293 295.014 11.56V24.48C296.193 24.8427 297.428 25.024 298.72 25.024C300.896 25.024 302.505 24.4007 303.548 23.154C304.613 21.8847 305.146 19.9467 305.146 17.34C305.146 15.0053 304.693 13.226 303.786 12.002C302.902 10.778 301.599 10.166 299.876 10.166ZM322.339 26.214L322.203 25.024C320.253 26.112 318.327 26.656 316.423 26.656C314.677 26.656 313.295 26.2027 312.275 25.296C311.255 24.3667 310.745 23.0973 310.745 21.488C310.745 19.788 311.311 18.496 312.445 17.612C313.601 16.7053 315.289 16.252 317.511 16.252C318.848 16.252 320.367 16.4107 322.067 16.728V14.416C322.067 11.5827 320.469 10.166 317.273 10.166C316.434 10.166 315.516 10.2793 314.519 10.506C313.521 10.7327 312.603 11.0273 311.765 11.39V9.792C312.581 9.40667 313.51 9.10067 314.553 8.874C315.618 8.64734 316.627 8.534 317.579 8.534C319.709 8.534 321.319 9.044 322.407 10.064C323.517 11.0613 324.073 12.512 324.073 14.416V26.044L322.339 26.214ZM316.899 25.024C317.715 25.024 318.576 24.8993 319.483 24.65C320.389 24.4007 321.251 24.0607 322.067 23.63V18.19C320.639 17.918 319.233 17.782 317.851 17.782C316.105 17.782 314.836 18.0767 314.043 18.666C313.249 19.2553 312.853 20.1847 312.853 21.454C312.853 23.834 314.201 25.024 316.899 25.024ZM340.819 25.534C339.323 26.282 337.691 26.656 335.923 26.656C333.52 26.656 331.661 25.874 330.347 24.31C329.055 22.746 328.409 20.5133 328.409 17.612C328.409 14.7107 329.055 12.478 330.347 10.914C331.661 9.32734 333.52 8.534 335.923 8.534C337.623 8.534 339.232 8.908 340.751 9.656V11.254C339.164 10.5513 337.623 10.2 336.127 10.2C334.291 10.2 332.897 10.8233 331.945 12.07C331.015 13.3167 330.551 15.164 330.551 17.612C330.551 20.0373 331.015 21.8733 331.945 23.12C332.897 24.3667 334.291 24.99 336.127 24.99C337.668 24.99 339.232 24.6387 340.819 23.936V25.534ZM345.203 26.146V0.612002L347.243 0.340002V16.626L355.267 9.044H357.681L349.283 17L357.953 26.146H355.369L347.243 17.51V26.146H345.203ZM375.699 26.656C373.229 26.656 371.359 25.8967 370.089 24.378C368.843 22.8367 368.219 20.57 368.219 17.578C368.219 14.6087 368.843 12.3647 370.089 10.846C371.359 9.30467 373.229 8.534 375.699 8.534C378.17 8.534 380.029 9.30467 381.275 10.846C382.545 12.3647 383.179 14.6087 383.179 17.578C383.179 20.57 382.545 22.8367 381.275 24.378C380.029 25.8967 378.17 26.656 375.699 26.656ZM375.699 25.024C377.558 25.024 378.907 24.4347 379.745 23.256C380.607 22.0547 381.037 20.162 381.037 17.578C381.037 15.0167 380.607 13.1467 379.745 11.968C378.907 10.7667 377.558 10.166 375.699 10.166C373.841 10.166 372.481 10.7667 371.619 11.968C370.781 13.1467 370.361 15.0167 370.361 17.578C370.361 20.162 370.781 22.0547 371.619 23.256C372.481 24.4347 373.841 25.024 375.699 25.024ZM399.159 26.146V14.348C399.159 11.56 397.742 10.166 394.909 10.166C394.161 10.166 393.334 10.2907 392.427 10.54C391.543 10.7893 390.67 11.1293 389.809 11.56V26.146H387.769V9.146L389.503 8.976L389.639 10.166C391.611 9.078 393.538 8.534 395.419 8.534C397.255 8.534 398.672 9.01 399.669 9.962C400.689 10.914 401.199 12.2627 401.199 14.008V26.146H399.159ZM415.638 26.146V10.608H413.054V9.146L415.638 9.044V5.202C415.638 3.52467 416.046 2.244 416.862 1.36C417.7 0.453335 418.913 1.90735e-06 420.5 1.90735e-06C421.361 1.90735e-06 422.234 0.158669 423.118 0.476002V1.972C422.302 1.72267 421.52 1.598 420.772 1.598C419.706 1.598 418.924 1.88134 418.426 2.448C417.927 2.992 417.678 3.85334 417.678 5.032V9.044H422.268V10.608H417.678V26.146H415.638ZM432.078 26.656C429.608 26.656 427.738 25.8967 426.468 24.378C425.222 22.8367 424.598 20.57 424.598 17.578C424.598 14.6087 425.222 12.3647 426.468 10.846C427.738 9.30467 429.608 8.534 432.078 8.534C434.549 8.534 436.408 9.30467 437.654 10.846C438.924 12.3647 439.558 14.6087 439.558 17.578C439.558 20.57 438.924 22.8367 437.654 24.378C436.408 25.8967 434.549 26.656 432.078 26.656ZM432.078 25.024C433.937 25.024 435.286 24.4347 436.124 23.256C436.986 22.0547 437.416 20.162 437.416 17.578C437.416 15.0167 436.986 13.1467 436.124 11.968C435.286 10.7667 433.937 10.166 432.078 10.166C430.22 10.166 428.86 10.7667 427.998 11.968C427.16 13.1467 426.74 15.0167 426.74 17.578C426.74 20.162 427.16 22.0547 427.998 23.256C428.86 24.4347 430.22 25.024 432.078 25.024ZM450.506 26.656C448.035 26.656 446.165 25.8967 444.896 24.378C443.649 22.8367 443.026 20.57 443.026 17.578C443.026 14.6087 443.649 12.3647 444.896 10.846C446.165 9.30467 448.035 8.534 450.506 8.534C452.977 8.534 454.835 9.30467 456.082 10.846C457.351 12.3647 457.986 14.6087 457.986 17.578C457.986 20.57 457.351 22.8367 456.082 24.378C454.835 25.8967 452.977 26.656 450.506 26.656ZM450.506 25.024C452.365 25.024 453.713 24.4347 454.552 23.256C455.413 22.0547 455.844 20.162 455.844 17.578C455.844 15.0167 455.413 13.1467 454.552 11.968C453.713 10.7667 452.365 10.166 450.506 10.166C448.647 10.166 447.287 10.7667 446.426 11.968C445.587 13.1467 445.168 15.0167 445.168 17.578C445.168 20.162 445.587 22.0547 446.426 23.256C447.287 24.4347 448.647 25.024 450.506 25.024ZM475.768 0.340002V26.044L474.034 26.214L473.898 25.024C471.971 26.112 470.203 26.656 468.594 26.656C466.372 26.656 464.627 25.8853 463.358 24.344C462.088 22.78 461.454 20.6267 461.454 17.884C461.454 14.8693 462.168 12.5573 463.596 10.948C465.046 9.33867 467.132 8.534 469.852 8.534C471.257 8.534 472.549 8.71534 473.728 9.078V0.612002L475.768 0.340002ZM468.866 25.024C469.614 25.024 470.418 24.8993 471.28 24.65C472.141 24.4007 472.957 24.0607 473.728 23.63V10.71C472.549 10.3473 471.314 10.166 470.022 10.166C467.846 10.166 466.225 10.8007 465.16 12.07C464.117 13.3167 463.596 15.2433 463.596 17.85C463.596 20.1847 464.038 21.964 464.922 23.188C465.828 24.412 467.143 25.024 468.866 25.024ZM500.44 26.214L500.304 25.024C498.355 26.112 496.428 26.656 494.524 26.656C492.779 26.656 491.396 26.2027 490.376 25.296C489.356 24.3667 488.846 23.0973 488.846 21.488C488.846 19.788 489.413 18.496 490.546 17.612C491.702 16.7053 493.391 16.252 495.612 16.252C496.95 16.252 498.468 16.4107 500.168 16.728V14.416C500.168 11.5827 498.57 10.166 495.374 10.166C494.536 10.166 493.618 10.2793 492.62 10.506C491.623 10.7327 490.705 11.0273 489.866 11.39V9.792C490.682 9.40667 491.612 9.10067 492.654 8.874C493.72 8.64734 494.728 8.534 495.68 8.534C497.811 8.534 499.42 9.044 500.508 10.064C501.619 11.0613 502.174 12.512 502.174 14.416V26.044L500.44 26.214ZM495 25.024C495.816 25.024 496.678 24.8993 497.584 24.65C498.491 24.4007 499.352 24.0607 500.168 23.63V18.19C498.74 17.918 497.335 17.782 495.952 17.782C494.207 17.782 492.938 18.0767 492.144 18.666C491.351 19.2553 490.954 20.1847 490.954 21.454C490.954 23.834 492.303 25.024 495 25.024ZM519.022 26.146V14.348C519.022 11.56 517.606 10.166 514.772 10.166C514.024 10.166 513.197 10.2907 512.29 10.54C511.406 10.7893 510.534 11.1293 509.672 11.56V26.146H507.632V9.146L509.366 8.976L509.502 10.166C511.474 9.078 513.401 8.534 515.282 8.534C517.118 8.534 518.535 9.01 519.532 9.962C520.552 10.914 521.062 12.2627 521.062 14.008V26.146H519.022ZM539.717 0.340002V26.044L537.983 26.214L537.847 25.024C535.92 26.112 534.152 26.656 532.543 26.656C530.322 26.656 528.576 25.8853 527.307 24.344C526.038 22.78 525.403 20.6267 525.403 17.884C525.403 14.8693 526.117 12.5573 527.545 10.948C528.996 9.33867 531.081 8.534 533.801 8.534C535.206 8.534 536.498 8.71534 537.677 9.078V0.612002L539.717 0.340002ZM532.815 25.024C533.563 25.024 534.368 24.8993 535.229 24.65C536.09 24.4007 536.906 24.0607 537.677 23.63V10.71C536.498 10.3473 535.263 10.166 533.971 10.166C531.795 10.166 530.174 10.8007 529.109 12.07C528.066 13.3167 527.545 15.2433 527.545 17.85C527.545 20.1847 527.987 21.964 528.871 23.188C529.778 24.412 531.092 25.024 532.815 25.024ZM554.394 26.146V10.608H551.81V9.146L554.394 9.044V5.202C554.394 3.52467 554.802 2.244 555.618 1.36C556.456 0.453335 557.669 1.90735e-06 559.256 1.90735e-06C560.117 1.90735e-06 560.99 0.158669 561.874 0.476002V1.972C561.058 1.72267 560.276 1.598 559.528 1.598C558.462 1.598 557.68 1.88134 557.182 2.448C556.683 2.992 556.434 3.85334 556.434 5.032V9.044H561.024V10.608H556.434V26.146H554.394ZM566.61 9.044V20.842C566.61 23.63 567.981 25.024 570.724 25.024C571.472 25.024 572.288 24.8993 573.172 24.65C574.079 24.4007 574.963 24.0607 575.824 23.63V9.044H577.864V26.044L576.13 26.214L575.994 25.024C574.022 26.112 572.095 26.656 570.214 26.656C568.423 26.656 567.029 26.18 566.032 25.228C565.057 24.2533 564.57 22.9047 564.57 21.182V9.044H566.61ZM594.958 26.146V14.348C594.958 11.56 593.541 10.166 590.708 10.166C589.96 10.166 589.133 10.2907 588.226 10.54C587.342 10.7893 586.469 11.1293 585.608 11.56V26.146H583.568V9.146L585.302 8.976L585.438 10.166C587.41 9.078 589.337 8.534 591.218 8.534C593.054 8.534 594.471 9.01 595.468 9.962C596.488 10.914 596.998 12.2627 596.998 14.008V26.146H594.958ZM624.9 26.146L620.31 11.322L615.856 26.146H613.918L608.478 9.044H610.552L614.904 23.63L619.188 9.044H621.466L625.818 23.732L630.136 9.044H632.108L626.838 26.146H624.9ZM635.332 26.146V9.214L637.372 8.942V26.146H635.332ZM636.352 4.896C635.898 4.896 635.524 4.76 635.23 4.488C634.958 4.216 634.822 3.842 634.822 3.366C634.822 2.89 634.958 2.516 635.23 2.244C635.524 1.972 635.898 1.836 636.352 1.836C636.805 1.836 637.168 1.972 637.44 2.244C637.734 2.516 637.882 2.89 637.882 3.366C637.882 3.842 637.734 4.216 637.44 4.488C637.168 4.76 636.805 4.896 636.352 4.896ZM645.584 10.608V21.488C645.584 22.6667 645.833 23.5393 646.332 24.106C646.831 24.65 647.601 24.922 648.644 24.922C649.324 24.922 650.095 24.7973 650.956 24.548V26.044C650.004 26.3613 649.131 26.52 648.338 26.52C646.774 26.52 645.584 26.1007 644.768 25.262C643.952 24.4007 643.544 23.1313 643.544 21.454V10.608H640.96V9.146L643.612 9.044L643.816 4.76L645.584 4.556V9.044H650.718V10.608H645.584ZM654.49 26.146V0.612002L656.53 0.340002V10.098C658.434 9.05534 660.304 8.534 662.14 8.534C663.976 8.534 665.392 9.01 666.39 9.962C667.41 10.914 667.92 12.2627 667.92 14.008V26.146H665.88V14.348C665.88 11.56 664.463 10.166 661.63 10.166C660.882 10.166 660.054 10.2907 659.148 10.54C658.264 10.7893 657.391 11.1293 656.53 11.56V26.146H654.49ZM680.522 23.358C682.902 24.4007 685.158 24.922 687.288 24.922C689.306 24.922 690.858 24.48 691.946 23.596C693.057 22.6893 693.612 21.3973 693.612 19.72C693.612 18.4507 693.25 17.4307 692.524 16.66C691.799 15.8893 690.586 15.2433 688.886 14.722L686.472 13.974C684.614 13.4073 683.254 12.6707 682.392 11.764C681.531 10.8347 681.1 9.656 681.1 8.228C681.1 6.30134 681.826 4.76 683.276 3.604C684.75 2.42534 686.71 1.836 689.158 1.836C691.13 1.836 693.034 2.25534 694.87 3.094V4.794C692.921 3.978 691.04 3.57 689.226 3.57C687.368 3.57 685.917 3.978 684.874 4.794C683.832 5.58734 683.31 6.70934 683.31 8.16C683.31 9.18 683.605 9.98467 684.194 10.574C684.784 11.1633 685.815 11.696 687.288 12.172L689.702 12.954C691.878 13.6567 693.442 14.5407 694.394 15.606C695.346 16.6487 695.822 18.0087 695.822 19.686C695.822 21.8393 695.063 23.5393 693.544 24.786C692.048 26.0327 689.997 26.656 687.39 26.656C684.988 26.656 682.812 26.1687 680.862 25.194L680.522 23.358ZM710.649 26.214L710.513 25.024C708.564 26.112 706.637 26.656 704.733 26.656C702.988 26.656 701.605 26.2027 700.585 25.296C699.565 24.3667 699.055 23.0973 699.055 21.488C699.055 19.788 699.622 18.496 700.755 17.612C701.911 16.7053 703.6 16.252 705.821 16.252C707.159 16.252 708.677 16.4107 710.377 16.728V14.416C710.377 11.5827 708.779 10.166 705.583 10.166C704.745 10.166 703.827 10.2793 702.829 10.506C701.832 10.7327 700.914 11.0273 700.075 11.39V9.792C700.891 9.40667 701.821 9.10067 702.863 8.874C703.929 8.64734 704.937 8.534 705.889 8.534C708.02 8.534 709.629 9.044 710.717 10.064C711.828 11.0613 712.383 12.512 712.383 14.416V26.044L710.649 26.214ZM705.209 25.024C706.025 25.024 706.887 24.8993 707.793 24.65C708.7 24.4007 709.561 24.0607 710.377 23.63V18.19C708.949 17.918 707.544 17.782 706.161 17.782C704.416 17.782 703.147 18.0767 702.353 18.666C701.56 19.2553 701.163 20.1847 701.163 21.454C701.163 23.834 702.512 25.024 705.209 25.024ZM721.717 26.146L715.257 9.044H717.399L722.737 23.97L728.245 9.044H730.285L723.689 26.146H721.717ZM739.44 26.656C736.969 26.656 735.099 25.8967 733.83 24.378C732.583 22.8367 731.96 20.57 731.96 17.578C731.96 14.6087 732.583 12.3647 733.83 10.846C735.099 9.30467 736.969 8.534 739.44 8.534C741.91 8.534 743.769 9.30467 745.016 10.846C746.285 12.3647 746.92 14.6087 746.92 17.578C746.92 20.57 746.285 22.8367 745.016 24.378C743.769 25.8967 741.91 26.656 739.44 26.656ZM739.44 25.024C741.298 25.024 742.647 24.4347 743.486 23.256C744.347 22.0547 744.778 20.162 744.778 17.578C744.778 15.0167 744.347 13.1467 743.486 11.968C742.647 10.7667 741.298 10.166 739.44 10.166C737.581 10.166 736.221 10.7667 735.36 11.968C734.521 13.1467 734.102 15.0167 734.102 17.578C734.102 20.162 734.521 22.0547 735.36 23.256C736.221 24.4347 737.581 25.024 739.44 25.024ZM751.509 26.146V9.146L753.243 8.976L753.413 10.506C754.932 9.25934 756.553 8.636 758.275 8.636C758.887 8.636 759.375 8.704 759.737 8.84V10.506C759.148 10.37 758.627 10.302 758.173 10.302C756.564 10.302 755.023 10.88 753.549 12.036V26.146H751.509Z" fill="#013D5B"/>
</svg>
