<svg width="358" height="66" viewBox="0 0 358 66" fill="none" xmlns="http://www.w3.org/2000/svg">
<path d="M18.4469 24.453C16.4889 25.399 14.3549 25.872 12.0449 25.872C8.74488 25.872 6.17088 24.816 4.32288 22.704C2.47488 20.57 1.55088 17.611 1.55088 13.827C1.55088 10.065 2.46388 7.11695 4.28988 4.98295C6.13788 2.84895 8.66788 1.78195 11.8799 1.78195C14.0579 1.78195 16.0929 2.25495 17.9849 3.20095V4.88395C16.0489 3.93795 14.0689 3.46495 12.0449 3.46495C9.36088 3.46495 7.30388 4.35595 5.87388 6.13795C4.44388 7.91995 3.72888 10.483 3.72888 13.827C3.72888 17.193 4.44388 19.767 5.87388 21.549C7.32588 23.309 9.43788 24.189 12.2099 24.189C13.6839 24.189 15.1249 23.958 16.5329 23.496V15.114H13.5299L13.7609 13.431H18.4469V24.453ZM34.9706 24.783C33.4526 25.509 31.8246 25.872 30.0866 25.872C27.5566 25.872 25.6096 25.124 24.2456 23.628C22.8816 22.132 22.1996 19.987 22.1996 17.193C22.1996 14.421 22.8376 12.243 24.1136 10.659C25.3896 9.07495 27.1386 8.28295 29.3606 8.28295C31.3186 8.28295 32.8586 8.89895 33.9806 10.131C35.1246 11.341 35.6966 13.002 35.6966 15.114C35.6966 15.906 35.6306 16.665 35.4986 17.391H24.1466C24.1686 21.989 26.2036 24.288 30.2516 24.288C31.8796 24.288 33.4526 23.936 34.9706 23.232V24.783ZM29.3276 9.83395C27.8316 9.83395 26.6106 10.384 25.6646 11.484C24.7186 12.584 24.2126 14.058 24.1466 15.906H33.7826C33.8266 15.554 33.8486 15.246 33.8486 14.982C33.8486 13.354 33.4526 12.089 32.6606 11.187C31.8686 10.285 30.7576 9.83395 29.3276 9.83395ZM42.5529 10.296V20.856C42.5529 22 42.7949 22.847 43.2789 23.397C43.7629 23.925 44.5109 24.189 45.5229 24.189C46.1829 24.189 46.9309 24.068 47.7669 23.826V25.278C46.8429 25.586 45.9959 25.74 45.2259 25.74C43.7079 25.74 42.5529 25.333 41.7609 24.519C40.9689 23.683 40.5729 22.451 40.5729 20.823V10.296H38.0649V8.87695L40.6389 8.77795L40.8369 4.61995L42.5529 4.42195V8.77795H47.5359V10.296H42.5529ZM65.6178 25.872C63.2198 25.872 61.4048 25.135 60.1728 23.661C58.9628 22.165 58.3578 19.965 58.3578 17.061C58.3578 14.179 58.9628 12.001 60.1728 10.527C61.4048 9.03095 63.2198 8.28295 65.6178 8.28295C68.0158 8.28295 69.8198 9.03095 71.0298 10.527C72.2618 12.001 72.8778 14.179 72.8778 17.061C72.8778 19.965 72.2618 22.165 71.0298 23.661C69.8198 25.135 68.0158 25.872 65.6178 25.872ZM65.6178 24.288C67.4218 24.288 68.7308 23.716 69.5448 22.572C70.3808 21.406 70.7988 19.569 70.7988 17.061C70.7988 14.575 70.3808 12.76 69.5448 11.616C68.7308 10.45 67.4218 9.86695 65.6178 9.86695C63.8138 9.86695 62.4938 10.45 61.6578 11.616C60.8438 12.76 60.4368 14.575 60.4368 17.061C60.4368 19.569 60.8438 21.406 61.6578 22.572C62.4938 23.716 63.8138 24.288 65.6178 24.288ZM88.3875 25.377V13.926C88.3875 11.22 87.0125 9.86695 84.2625 9.86695C83.5365 9.86695 82.7335 9.98795 81.8535 10.23C80.9955 10.472 80.1485 10.802 79.3125 11.22V25.377H77.3325V8.87695L79.0155 8.71195L79.1475 9.86695C81.0615 8.81095 82.9315 8.28295 84.7575 8.28295C86.5395 8.28295 87.9145 8.74495 88.8825 9.66895C89.8725 10.593 90.3675 11.902 90.3675 13.596V25.377H88.3875ZM101.642 31.086C103.204 30.8 104.425 30.25 105.305 29.436C106.185 28.622 106.999 27.324 107.747 25.542L101.411 8.77795H103.49L108.671 23.331L114.017 8.77795H115.997L109.661 25.212C109.067 26.796 108.44 28.083 107.78 29.073C107.142 30.085 106.383 30.877 105.503 31.449C104.623 32.043 103.479 32.494 102.071 32.802L101.642 31.086ZM124.882 25.872C122.484 25.872 120.669 25.135 119.437 23.661C118.227 22.165 117.622 19.965 117.622 17.061C117.622 14.179 118.227 12.001 119.437 10.527C120.669 9.03095 122.484 8.28295 124.882 8.28295C127.28 8.28295 129.084 9.03095 130.294 10.527C131.526 12.001 132.142 14.179 132.142 17.061C132.142 19.965 131.526 22.165 130.294 23.661C129.084 25.135 127.28 25.872 124.882 25.872ZM124.882 24.288C126.686 24.288 127.995 23.716 128.809 22.572C129.645 21.406 130.063 19.569 130.063 17.061C130.063 14.575 129.645 12.76 128.809 11.616C127.995 10.45 126.686 9.86695 124.882 9.86695C123.078 9.86695 121.758 10.45 120.922 11.616C120.108 12.76 119.701 14.575 119.701 17.061C119.701 19.569 120.108 21.406 120.922 22.572C121.758 23.716 123.078 24.288 124.882 24.288ZM138.346 8.77795V20.229C138.346 22.935 139.677 24.288 142.339 24.288C143.065 24.288 143.857 24.167 144.715 23.925C145.595 23.683 146.453 23.353 147.289 22.935V8.77795H149.269V25.278L147.586 25.443L147.454 24.288C145.54 25.344 143.67 25.872 141.844 25.872C140.106 25.872 138.753 25.41 137.785 24.486C136.839 23.54 136.366 22.231 136.366 20.559V8.77795H138.346ZM154.805 25.377V8.87695L156.488 8.71195L156.653 10.197C158.127 8.98695 159.7 8.38195 161.372 8.38195C161.966 8.38195 162.439 8.44795 162.791 8.57995V10.197C162.219 10.065 161.713 9.99895 161.273 9.99895C159.711 9.99895 158.215 10.56 156.785 11.682V25.377H154.805ZM174.861 25.377V10.296H172.353V8.87695L174.861 8.77795V5.04895C174.861 3.42095 175.257 2.17795 176.049 1.31995C176.863 0.439952 178.04 -4.86374e-05 179.58 -4.86374e-05C180.416 -4.86374e-05 181.263 0.153951 182.121 0.461951V1.91395C181.329 1.67195 180.57 1.55095 179.844 1.55095C178.81 1.55095 178.051 1.82595 177.567 2.37595C177.083 2.90395 176.841 3.73995 176.841 4.88395V8.77795H181.296V10.296H176.841V25.377H174.861ZM196.329 24.783C194.811 25.509 193.183 25.872 191.445 25.872C188.915 25.872 186.968 25.124 185.604 23.628C184.24 22.132 183.558 19.987 183.558 17.193C183.558 14.421 184.196 12.243 185.472 10.659C186.748 9.07495 188.497 8.28295 190.719 8.28295C192.677 8.28295 194.217 8.89895 195.339 10.131C196.483 11.341 197.055 13.002 197.055 15.114C197.055 15.906 196.989 16.665 196.857 17.391H185.505C185.527 21.989 187.562 24.288 191.61 24.288C193.238 24.288 194.811 23.936 196.329 23.232V24.783ZM190.686 9.83395C189.19 9.83395 187.969 10.384 187.023 11.484C186.077 12.584 185.571 14.058 185.505 15.906H195.141C195.185 15.554 195.207 15.246 195.207 14.982C195.207 13.354 194.811 12.089 194.019 11.187C193.227 10.285 192.116 9.83395 190.686 9.83395ZM213.151 24.783C211.633 25.509 210.005 25.872 208.267 25.872C205.737 25.872 203.79 25.124 202.426 23.628C201.062 22.132 200.38 19.987 200.38 17.193C200.38 14.421 201.018 12.243 202.294 10.659C203.57 9.07495 205.319 8.28295 207.541 8.28295C209.499 8.28295 211.039 8.89895 212.161 10.131C213.305 11.341 213.877 13.002 213.877 15.114C213.877 15.906 213.811 16.665 213.679 17.391H202.327C202.349 21.989 204.384 24.288 208.432 24.288C210.06 24.288 211.633 23.936 213.151 23.232V24.783ZM207.508 9.83395C206.012 9.83395 204.791 10.384 203.845 11.484C202.899 12.584 202.393 14.058 202.327 15.906H211.963C212.007 15.554 212.029 15.246 212.029 14.982C212.029 13.354 211.633 12.089 210.841 11.187C210.049 10.285 208.938 9.83395 207.508 9.83395ZM220.734 10.296V20.856C220.734 22 220.976 22.847 221.46 23.397C221.944 23.925 222.692 24.189 223.704 24.189C224.364 24.189 225.112 24.068 225.948 23.826V25.278C225.024 25.586 224.177 25.74 223.407 25.74C221.889 25.74 220.734 25.333 219.942 24.519C219.15 23.683 218.754 22.451 218.754 20.823V10.296H216.246V8.87695L218.82 8.77795L219.018 4.61995L220.734 4.42195V8.77795H225.717V10.296H220.734ZM230.631 18.777L230.334 2.27695L232.446 2.01295L232.149 18.777H230.631ZM231.39 25.542C230.95 25.542 230.587 25.41 230.301 25.146C230.015 24.86 229.872 24.486 229.872 24.024C229.872 23.562 230.015 23.199 230.301 22.935C230.587 22.649 230.95 22.506 231.39 22.506C231.83 22.506 232.193 22.649 232.479 22.935C232.765 23.199 232.908 23.562 232.908 24.024C232.908 24.486 232.765 24.86 232.479 25.146C232.193 25.41 231.83 25.542 231.39 25.542ZM6.96288 65.377V43.96H-0.000117168V42.277H16.0049V43.96H9.04188V65.377H6.96288ZM19.2603 65.377V40.594L21.2403 40.33V49.801C23.0883 48.789 24.9033 48.283 26.6853 48.283C28.4673 48.283 29.8423 48.745 30.8103 49.669C31.8003 50.593 32.2953 51.902 32.2953 53.596V65.377H30.3153V53.926C30.3153 51.22 28.9403 49.867 26.1903 49.867C25.4643 49.867 24.6613 49.988 23.7813 50.23C22.9233 50.472 22.0763 50.802 21.2403 51.22V65.377H19.2603ZM49.2792 64.783C47.7612 65.509 46.1332 65.872 44.3952 65.872C41.8652 65.872 39.9182 65.124 38.5542 63.628C37.1902 62.132 36.5082 59.987 36.5082 57.193C36.5082 54.421 37.1462 52.243 38.4222 50.659C39.6982 49.075 41.4472 48.283 43.6692 48.283C45.6272 48.283 47.1672 48.899 48.2892 50.131C49.4332 51.341 50.0052 53.002 50.0052 55.114C50.0052 55.906 49.9392 56.665 49.8072 57.391H38.4552C38.4772 61.989 40.5122 64.288 44.5602 64.288C46.1882 64.288 47.7612 63.936 49.2792 63.232V64.783ZM43.6362 49.834C42.1402 49.834 40.9192 50.384 39.9732 51.484C39.0272 52.584 38.5212 54.058 38.4552 55.906H48.0912C48.1352 55.554 48.1572 55.246 48.1572 54.982C48.1572 53.354 47.7612 52.089 46.9692 51.187C46.1772 50.285 45.0662 49.834 43.6362 49.834ZM63.1645 65.377V42.277H76.4635V43.96H65.2435V53.332H75.0445V55.015H65.2435V65.377H63.1645ZM80.0396 65.377V48.943L82.0196 48.679V65.377H80.0396ZM81.0296 44.752C80.5896 44.752 80.2266 44.62 79.9406 44.356C79.6766 44.092 79.5446 43.729 79.5446 43.267C79.5446 42.805 79.6766 42.442 79.9406 42.178C80.2266 41.914 80.5896 41.782 81.0296 41.782C81.4696 41.782 81.8216 41.914 82.0856 42.178C82.3716 42.442 82.5146 42.805 82.5146 43.267C82.5146 43.729 82.3716 44.092 82.0856 44.356C81.8216 44.62 81.4696 44.752 81.0296 44.752ZM98.6034 65.377V53.926C98.6034 51.22 97.2284 49.867 94.4784 49.867C93.7524 49.867 92.9494 49.988 92.0694 50.23C91.2114 50.472 90.3644 50.802 89.5284 51.22V65.377H87.5484V48.877L89.2314 48.712L89.3634 49.867C91.2774 48.811 93.1474 48.283 94.9734 48.283C96.7554 48.283 98.1304 48.745 99.0984 49.669C100.088 50.593 100.583 51.902 100.583 53.596V65.377H98.6034ZM116.049 65.443L115.917 64.288C114.025 65.344 112.155 65.872 110.307 65.872C108.613 65.872 107.271 65.432 106.281 64.552C105.291 63.65 104.796 62.418 104.796 60.856C104.796 59.206 105.346 57.952 106.446 57.094C107.568 56.214 109.207 55.774 111.363 55.774C112.661 55.774 114.135 55.928 115.785 56.236V53.992C115.785 51.242 114.234 49.867 111.132 49.867C110.318 49.867 109.427 49.977 108.459 50.197C107.491 50.417 106.6 50.703 105.786 51.055V49.504C106.578 49.13 107.48 48.833 108.492 48.613C109.526 48.393 110.505 48.283 111.429 48.283C113.497 48.283 115.059 48.778 116.115 49.768C117.193 50.736 117.732 52.144 117.732 53.992V65.278L116.049 65.443ZM110.769 64.288C111.561 64.288 112.397 64.167 113.277 63.925C114.157 63.683 114.993 63.353 115.785 62.935V57.655C114.399 57.391 113.035 57.259 111.693 57.259C109.999 57.259 108.767 57.545 107.997 58.117C107.227 58.689 106.842 59.591 106.842 60.823C106.842 63.133 108.151 64.288 110.769 64.288ZM123.03 65.377V40.594L125.01 40.33V65.377H123.03ZM139.284 65.377V42.277H152.583V43.96H141.363V53.332H151.164V55.015H141.363V65.377H139.284ZM161.685 65.872C159.287 65.872 157.472 65.135 156.24 63.661C155.03 62.165 154.425 59.965 154.425 57.061C154.425 54.179 155.03 52.001 156.24 50.527C157.472 49.031 159.287 48.283 161.685 48.283C164.083 48.283 165.887 49.031 167.097 50.527C168.329 52.001 168.945 54.179 168.945 57.061C168.945 59.965 168.329 62.165 167.097 63.661C165.887 65.135 164.083 65.872 161.685 65.872ZM161.685 64.288C163.489 64.288 164.798 63.716 165.612 62.572C166.448 61.406 166.866 59.569 166.866 57.061C166.866 54.575 166.448 52.76 165.612 51.616C164.798 50.45 163.489 49.867 161.685 49.867C159.881 49.867 158.561 50.45 157.725 51.616C156.911 52.76 156.504 54.575 156.504 57.061C156.504 59.569 156.911 61.406 157.725 62.572C158.561 63.716 159.881 64.288 161.685 64.288ZM175.149 48.778V60.229C175.149 62.935 176.48 64.288 179.142 64.288C179.868 64.288 180.66 64.167 181.518 63.925C182.398 63.683 183.256 63.353 184.092 62.935V48.778H186.072V65.278L184.389 65.443L184.257 64.288C182.343 65.344 180.473 65.872 178.647 65.872C176.909 65.872 175.556 65.41 174.588 64.486C173.642 63.54 173.169 62.231 173.169 60.559V48.778H175.149ZM191.608 65.377V48.877L193.291 48.712L193.456 50.197C194.93 48.987 196.503 48.382 198.175 48.382C198.769 48.382 199.242 48.448 199.594 48.58V50.197C199.022 50.065 198.516 49.999 198.076 49.999C196.514 49.999 195.018 50.56 193.588 51.682V65.377H191.608ZM208.463 56.962C207.011 56.962 205.702 56.61 204.536 55.906C203.392 55.202 202.501 54.278 201.863 53.134C201.225 51.968 200.906 50.714 200.906 49.372C200.906 47.92 201.258 46.611 201.962 45.445C202.666 44.279 203.59 43.377 204.734 42.739C205.878 42.101 207.121 41.782 208.463 41.782C209.915 41.782 211.213 42.134 212.357 42.838C213.523 43.542 214.425 44.477 215.063 45.643C215.701 46.787 216.02 48.03 216.02 49.372C216.02 50.824 215.668 52.133 214.964 53.299C214.26 54.465 213.336 55.367 212.192 56.005C211.048 56.643 209.805 56.962 208.463 56.962ZM208.463 55.807C209.673 55.807 210.751 55.521 211.697 54.949C212.665 54.355 213.402 53.574 213.908 52.606C214.436 51.638 214.7 50.56 214.7 49.372C214.7 48.118 214.414 46.996 213.842 46.006C213.27 45.016 212.511 44.257 211.565 43.729C210.619 43.201 209.585 42.937 208.463 42.937C207.253 42.937 206.164 43.234 205.196 43.828C204.25 44.4 203.513 45.17 202.985 46.138C202.479 47.106 202.226 48.184 202.226 49.372C202.226 50.626 202.512 51.748 203.084 52.738C203.656 53.728 204.415 54.487 205.361 55.015C206.307 55.543 207.341 55.807 208.463 55.807ZM210.443 53.398L208.397 50.098H207.011V53.398H205.889V45.313C206.813 45.159 207.627 45.082 208.331 45.082C209.277 45.082 210.014 45.313 210.542 45.775C211.092 46.215 211.367 46.82 211.367 47.59C211.367 48.778 210.751 49.559 209.519 49.933L211.73 53.398H210.443ZM207.011 49.207H208.166C208.804 49.207 209.299 49.064 209.651 48.778C210.025 48.492 210.212 48.096 210.212 47.59C210.212 47.084 210.036 46.699 209.684 46.435C209.354 46.149 208.87 46.006 208.232 46.006C207.858 46.006 207.451 46.039 207.011 46.105V49.207ZM227.766 65.377V48.943L229.746 48.679V65.377H227.766ZM228.756 44.752C228.316 44.752 227.953 44.62 227.667 44.356C227.403 44.092 227.271 43.729 227.271 43.267C227.271 42.805 227.403 42.442 227.667 42.178C227.953 41.914 228.316 41.782 228.756 41.782C229.196 41.782 229.548 41.914 229.812 42.178C230.098 42.442 230.241 42.805 230.241 43.267C230.241 43.729 230.098 44.092 229.812 44.356C229.548 44.62 229.196 44.752 228.756 44.752ZM233.988 63.199C235.638 63.925 237.343 64.288 239.103 64.288C242.073 64.288 243.558 63.133 243.558 60.823C243.558 60.075 243.338 59.47 242.898 59.008C242.48 58.546 241.776 58.161 240.786 57.853L238.278 57.061C236.87 56.621 235.847 56.071 235.209 55.411C234.571 54.729 234.252 53.871 234.252 52.837C234.252 51.451 234.791 50.351 235.869 49.537C236.969 48.701 238.443 48.283 240.291 48.283C241.853 48.283 243.338 48.58 244.746 49.174V50.725C243.272 50.153 241.82 49.867 240.39 49.867C239.092 49.867 238.069 50.131 237.321 50.659C236.595 51.165 236.232 51.869 236.232 52.771C236.232 53.409 236.43 53.926 236.826 54.322C237.244 54.696 237.981 55.059 239.037 55.411L241.644 56.269C242.986 56.709 243.965 57.292 244.581 58.018C245.219 58.744 245.538 59.668 245.538 60.79C245.538 62.418 244.988 63.672 243.888 64.552C242.788 65.432 241.237 65.872 239.235 65.872C237.387 65.872 235.726 65.531 234.252 64.849L233.988 63.199ZM268.223 65.443L268.091 64.288C266.199 65.344 264.329 65.872 262.481 65.872C260.787 65.872 259.445 65.432 258.455 64.552C257.465 63.65 256.97 62.418 256.97 60.856C256.97 59.206 257.52 57.952 258.62 57.094C259.742 56.214 261.381 55.774 263.537 55.774C264.835 55.774 266.309 55.928 267.959 56.236V53.992C267.959 51.242 266.408 49.867 263.306 49.867C262.492 49.867 261.601 49.977 260.633 50.197C259.665 50.417 258.774 50.703 257.96 51.055V49.504C258.752 49.13 259.654 48.833 260.666 48.613C261.7 48.393 262.679 48.283 263.603 48.283C265.671 48.283 267.233 48.778 268.289 49.768C269.367 50.736 269.906 52.144 269.906 53.992V65.278L268.223 65.443ZM262.943 64.288C263.735 64.288 264.571 64.167 265.451 63.925C266.331 63.683 267.167 63.353 267.959 62.935V57.655C266.573 57.391 265.209 57.259 263.867 57.259C262.173 57.259 260.941 57.545 260.171 58.117C259.401 58.689 259.016 59.591 259.016 60.823C259.016 63.133 260.325 64.288 262.943 64.288ZM275.666 65.377V50.296H273.158V48.877L275.666 48.778V45.049C275.666 43.421 276.062 42.178 276.854 41.32C277.668 40.44 278.845 40 280.385 40C281.089 40 281.738 40.088 282.332 40.264V41.749C281.738 41.617 281.177 41.551 280.649 41.551C279.615 41.551 278.856 41.826 278.372 42.376C277.888 42.904 277.646 43.74 277.646 44.884V48.778H282.101V50.296H277.646V65.377H275.666ZM285.764 65.377V40.594L287.744 40.33V65.377H285.764ZM303.447 65.443L303.315 64.288C301.423 65.344 299.553 65.872 297.705 65.872C296.011 65.872 294.669 65.432 293.679 64.552C292.689 63.65 292.194 62.418 292.194 60.856C292.194 59.206 292.744 57.952 293.844 57.094C294.966 56.214 296.605 55.774 298.761 55.774C300.059 55.774 301.533 55.928 303.183 56.236V53.992C303.183 51.242 301.632 49.867 298.53 49.867C297.716 49.867 296.825 49.977 295.857 50.197C294.889 50.417 293.998 50.703 293.184 51.055V49.504C293.976 49.13 294.878 48.833 295.89 48.613C296.924 48.393 297.903 48.283 298.827 48.283C300.895 48.283 302.457 48.778 303.513 49.768C304.591 50.736 305.13 52.144 305.13 53.992V65.278L303.447 65.443ZM298.167 64.288C298.959 64.288 299.795 64.167 300.675 63.925C301.555 63.683 302.391 63.353 303.183 62.935V57.655C301.797 57.391 300.433 57.259 299.091 57.259C297.397 57.259 296.165 57.545 295.395 58.117C294.625 58.689 294.24 59.591 294.24 60.823C294.24 63.133 295.549 64.288 298.167 64.288ZM330.293 65.377V53.596C330.293 51.11 329.116 49.867 326.762 49.867C325.398 49.867 323.836 50.362 322.076 51.352C322.252 51.946 322.34 52.584 322.34 53.266V65.377H320.36V53.596C320.36 51.11 319.183 49.867 316.829 49.867C315.509 49.867 314.035 50.318 312.407 51.22V65.377H310.427V48.877L312.11 48.712L312.242 49.867C314.112 48.811 315.806 48.283 317.324 48.283C319.26 48.283 320.657 48.921 321.515 50.197C323.649 48.921 325.563 48.283 327.257 48.283C328.863 48.283 330.095 48.712 330.953 49.57C331.833 50.428 332.273 51.66 332.273 53.266V65.377H330.293ZM349.276 64.783C347.758 65.509 346.13 65.872 344.392 65.872C341.862 65.872 339.915 65.124 338.551 63.628C337.187 62.132 336.505 59.987 336.505 57.193C336.505 54.421 337.143 52.243 338.419 50.659C339.695 49.075 341.444 48.283 343.666 48.283C345.624 48.283 347.164 48.899 348.286 50.131C349.43 51.341 350.002 53.002 350.002 55.114C350.002 55.906 349.936 56.665 349.804 57.391H338.452C338.474 61.989 340.509 64.288 344.557 64.288C346.185 64.288 347.758 63.936 349.276 63.232V64.783ZM343.633 49.834C342.137 49.834 340.916 50.384 339.97 51.484C339.024 52.584 338.518 54.058 338.452 55.906H348.088C348.132 55.554 348.154 55.246 348.154 54.982C348.154 53.354 347.758 52.089 346.966 51.187C346.174 50.285 345.063 49.834 343.633 49.834ZM355.671 58.777L355.374 42.277L357.486 42.013L357.189 58.777H355.671ZM356.43 65.542C355.99 65.542 355.627 65.41 355.341 65.146C355.055 64.86 354.912 64.486 354.912 64.024C354.912 63.562 355.055 63.199 355.341 62.935C355.627 62.649 355.99 62.506 356.43 62.506C356.87 62.506 357.233 62.649 357.519 62.935C357.805 63.199 357.948 63.562 357.948 64.024C357.948 64.486 357.805 64.86 357.519 65.146C357.233 65.41 356.87 65.542 356.43 65.542Z" fill="#013D5B"/>
</svg>
