<svg width="197" height="24" viewBox="0 0 197 24" fill="none" xmlns="http://www.w3.org/2000/svg">
<g clip-path="url(#clip0_11090_3601)">
<path d="M4.068 -6V-17.682H0.27V-18.6H9V-17.682H5.202V-6H4.068ZM10.7757 -6V-19.518L11.8557 -19.662V-14.496C12.8637 -15.048 13.8537 -15.324 14.8257 -15.324C15.7977 -15.324 16.5477 -15.072 17.0757 -14.568C17.6157 -14.064 17.8857 -13.35 17.8857 -12.426V-6H16.8057V-12.246C16.8057 -13.722 16.0557 -14.46 14.5557 -14.46C14.1597 -14.46 13.7217 -14.394 13.2417 -14.262C12.7737 -14.13 12.3117 -13.95 11.8557 -13.722V-6H10.7757ZM27.1496 -6.324C26.3216 -5.928 25.4336 -5.73 24.4856 -5.73C23.1056 -5.73 22.0436 -6.138 21.2996 -6.954C20.5556 -7.77 20.1836 -8.94 20.1836 -10.464C20.1836 -11.976 20.5316 -13.164 21.2276 -14.028C21.9236 -14.892 22.8776 -15.324 24.0896 -15.324C25.1576 -15.324 25.9976 -14.988 26.6096 -14.316C27.2336 -13.656 27.5456 -12.75 27.5456 -11.598C27.5456 -11.166 27.5096 -10.752 27.4376 -10.356H21.2456C21.2576 -7.848 22.3676 -6.594 24.5756 -6.594C25.4636 -6.594 26.3216 -6.786 27.1496 -7.17V-6.324ZM24.0716 -14.478C23.2556 -14.478 22.5896 -14.178 22.0736 -13.578C21.5576 -12.978 21.2816 -12.174 21.2456 -11.166H26.5016C26.5256 -11.358 26.5376 -11.526 26.5376 -11.67C26.5376 -12.558 26.3216 -13.248 25.8896 -13.74C25.4576 -14.232 24.8516 -14.478 24.0716 -14.478ZM35.5334 -14.514C35.9894 -14.766 36.4514 -14.964 36.9194 -15.108C37.3994 -15.252 37.8434 -15.324 38.2514 -15.324C39.4274 -15.324 40.3514 -14.91 41.0234 -14.082C41.6954 -13.266 42.0314 -12.132 42.0314 -10.68C42.0314 -9.084 41.6474 -7.86 40.8794 -7.008C40.1234 -6.156 39.0254 -5.73 37.5854 -5.73C36.5654 -5.73 35.5214 -5.898 34.4534 -6.234V-19.518L35.5334 -19.662V-14.514ZM38.1074 -14.46C37.7114 -14.46 37.2854 -14.394 36.8294 -14.262C36.3734 -14.13 35.9414 -13.95 35.5334 -13.722V-6.882C36.1574 -6.69 36.8114 -6.594 37.4954 -6.594C38.6474 -6.594 39.4994 -6.924 40.0514 -7.584C40.6154 -8.256 40.8974 -9.282 40.8974 -10.662C40.8974 -11.898 40.6574 -12.84 40.1774 -13.488C39.7094 -14.136 39.0194 -14.46 38.1074 -14.46ZM50.8274 -6.324C49.9994 -5.928 49.1114 -5.73 48.1634 -5.73C46.7834 -5.73 45.7214 -6.138 44.9774 -6.954C44.2334 -7.77 43.8614 -8.94 43.8614 -10.464C43.8614 -11.976 44.2094 -13.164 44.9054 -14.028C45.6014 -14.892 46.5554 -15.324 47.7674 -15.324C48.8354 -15.324 49.6754 -14.988 50.2874 -14.316C50.9114 -13.656 51.2234 -12.75 51.2234 -11.598C51.2234 -11.166 51.1874 -10.752 51.1154 -10.356H44.9234C44.9354 -7.848 46.0454 -6.594 48.2534 -6.594C49.1414 -6.594 49.9994 -6.786 50.8274 -7.17V-6.324ZM47.7494 -14.478C46.9334 -14.478 46.2674 -14.178 45.7514 -13.578C45.2354 -12.978 44.9594 -12.174 44.9234 -11.166H50.1794C50.2034 -11.358 50.2154 -11.526 50.2154 -11.67C50.2154 -12.558 49.9994 -13.248 49.5674 -13.74C49.1354 -14.232 48.5294 -14.478 47.7494 -14.478ZM52.9291 -7.188C53.8291 -6.792 54.7591 -6.594 55.7191 -6.594C57.3391 -6.594 58.1491 -7.224 58.1491 -8.484C58.1491 -8.892 58.0291 -9.222 57.7891 -9.474C57.5611 -9.726 57.1771 -9.936 56.6371 -10.104L55.2691 -10.536C54.5011 -10.776 53.9431 -11.076 53.5951 -11.436C53.2471 -11.808 53.0731 -12.276 53.0731 -12.84C53.0731 -13.596 53.3671 -14.196 53.9551 -14.64C54.5551 -15.096 55.3591 -15.324 56.3671 -15.324C57.2191 -15.324 58.0291 -15.162 58.7971 -14.838V-13.992C57.9931 -14.304 57.2011 -14.46 56.4211 -14.46C55.7131 -14.46 55.1551 -14.316 54.7471 -14.028C54.3511 -13.752 54.1531 -13.368 54.1531 -12.876C54.1531 -12.528 54.2611 -12.246 54.4771 -12.03C54.7051 -11.826 55.1071 -11.628 55.6831 -11.436L57.1051 -10.968C57.8371 -10.728 58.3711 -10.41 58.7071 -10.014C59.0551 -9.618 59.2291 -9.114 59.2291 -8.502C59.2291 -7.614 58.9291 -6.93 58.3291 -6.45C57.7291 -5.97 56.8831 -5.73 55.7911 -5.73C54.7831 -5.73 53.8771 -5.916 53.0731 -6.288L52.9291 -7.188ZM62.8909 -14.226V-8.466C62.8909 -7.842 63.0229 -7.38 63.2869 -7.08C63.5509 -6.792 63.9589 -6.648 64.5109 -6.648C64.8709 -6.648 65.2789 -6.714 65.7349 -6.846V-6.054C65.2309 -5.886 64.7689 -5.802 64.3489 -5.802C63.5209 -5.802 62.8909 -6.024 62.4589 -6.468C62.0269 -6.924 61.8109 -7.596 61.8109 -8.484V-14.226H60.4429V-15L61.8469 -15.054L61.9549 -17.322L62.8909 -17.43V-15.054H65.6089V-14.226H62.8909ZM73.1858 -14.514C73.6418 -14.766 74.1038 -14.964 74.5718 -15.108C75.0518 -15.252 75.4958 -15.324 75.9038 -15.324C77.0798 -15.324 78.0038 -14.91 78.6758 -14.082C79.3478 -13.266 79.6837 -12.132 79.6837 -10.68C79.6837 -9.084 79.2998 -7.86 78.5318 -7.008C77.7758 -6.156 76.6778 -5.73 75.2378 -5.73C74.2178 -5.73 73.1738 -5.898 72.1058 -6.234V-19.518L73.1858 -19.662V-14.514ZM75.7598 -14.46C75.3638 -14.46 74.9378 -14.394 74.4818 -14.262C74.0258 -14.13 73.5938 -13.95 73.1858 -13.722V-6.882C73.8098 -6.69 74.4638 -6.594 75.1478 -6.594C76.2998 -6.594 77.1518 -6.924 77.7038 -7.584C78.2678 -8.256 78.5498 -9.282 78.5498 -10.662C78.5498 -11.898 78.3098 -12.84 77.8298 -13.488C77.3618 -14.136 76.6718 -14.46 75.7598 -14.46ZM88.4797 -6.324C87.6517 -5.928 86.7637 -5.73 85.8157 -5.73C84.4357 -5.73 83.3737 -6.138 82.6297 -6.954C81.8857 -7.77 81.5137 -8.94 81.5137 -10.464C81.5137 -11.976 81.8617 -13.164 82.5577 -14.028C83.2537 -14.892 84.2077 -15.324 85.4197 -15.324C86.4877 -15.324 87.3277 -14.988 87.9397 -14.316C88.5637 -13.656 88.8757 -12.75 88.8757 -11.598C88.8757 -11.166 88.8397 -10.752 88.7677 -10.356H82.5757C82.5877 -7.848 83.6977 -6.594 85.9057 -6.594C86.7937 -6.594 87.6517 -6.786 88.4797 -7.17V-6.324ZM85.4017 -14.478C84.5857 -14.478 83.9197 -14.178 83.4037 -13.578C82.8877 -12.978 82.6117 -12.174 82.5757 -11.166H87.8317C87.8557 -11.358 87.8677 -11.526 87.8677 -11.67C87.8677 -12.558 87.6517 -13.248 87.2197 -13.74C86.7877 -14.232 86.1817 -14.478 85.4017 -14.478ZM98.2675 -19.662V-6.054L97.3495 -5.964L97.2775 -6.594C96.2575 -6.018 95.3215 -5.73 94.4695 -5.73C93.2935 -5.73 92.3695 -6.138 91.6975 -6.954C91.0255 -7.782 90.6895 -8.922 90.6895 -10.374C90.6895 -11.97 91.0675 -13.194 91.8235 -14.046C92.5915 -14.898 93.6955 -15.324 95.1355 -15.324C95.8795 -15.324 96.5635 -15.228 97.1875 -15.036V-19.518L98.2675 -19.662ZM94.6135 -6.594C95.0095 -6.594 95.4355 -6.66 95.8915 -6.792C96.3475 -6.924 96.7795 -7.104 97.1875 -7.332V-14.172C96.5635 -14.364 95.9095 -14.46 95.2255 -14.46C94.0735 -14.46 93.2155 -14.124 92.6515 -13.452C92.0995 -12.792 91.8235 -11.772 91.8235 -10.392C91.8235 -9.156 92.0575 -8.214 92.5255 -7.566C93.0055 -6.918 93.7015 -6.594 94.6135 -6.594ZM102.617 -14.226V-8.466C102.617 -7.842 102.749 -7.38 103.013 -7.08C103.277 -6.792 103.685 -6.648 104.237 -6.648C104.597 -6.648 105.005 -6.714 105.461 -6.846V-6.054C104.957 -5.886 104.495 -5.802 104.075 -5.802C103.247 -5.802 102.617 -6.024 102.185 -6.468C101.753 -6.924 101.537 -7.596 101.537 -8.484V-14.226H100.169V-15L101.573 -15.054L101.681 -17.322L102.617 -17.43V-15.054H105.335V-14.226H102.617ZM107.332 -6V-14.964L108.412 -15.108V-6H107.332ZM107.872 -17.25C107.632 -17.25 107.434 -17.322 107.278 -17.466C107.134 -17.61 107.062 -17.808 107.062 -18.06C107.062 -18.312 107.134 -18.51 107.278 -18.654C107.434 -18.798 107.632 -18.87 107.872 -18.87C108.112 -18.87 108.304 -18.798 108.448 -18.654C108.604 -18.51 108.682 -18.312 108.682 -18.06C108.682 -17.808 108.604 -17.61 108.448 -17.466C108.304 -17.322 108.112 -17.25 107.872 -17.25ZM122.264 -6V-12.426C122.264 -13.782 121.622 -14.46 120.338 -14.46C119.594 -14.46 118.742 -14.19 117.782 -13.65C117.878 -13.326 117.926 -12.978 117.926 -12.606V-6H116.846V-12.426C116.846 -13.782 116.204 -14.46 114.92 -14.46C114.2 -14.46 113.396 -14.214 112.508 -13.722V-6H111.428V-15L112.346 -15.09L112.418 -14.46C113.438 -15.036 114.362 -15.324 115.19 -15.324C116.246 -15.324 117.008 -14.976 117.476 -14.28C118.64 -14.976 119.684 -15.324 120.608 -15.324C121.484 -15.324 122.156 -15.09 122.624 -14.622C123.104 -14.154 123.344 -13.482 123.344 -12.606V-6H122.264ZM132.618 -6.324C131.79 -5.928 130.902 -5.73 129.954 -5.73C128.574 -5.73 127.512 -6.138 126.768 -6.954C126.024 -7.77 125.652 -8.94 125.652 -10.464C125.652 -11.976 126 -13.164 126.696 -14.028C127.392 -14.892 128.346 -15.324 129.558 -15.324C130.626 -15.324 131.466 -14.988 132.078 -14.316C132.702 -13.656 133.014 -12.75 133.014 -11.598C133.014 -11.166 132.978 -10.752 132.906 -10.356H126.714C126.726 -7.848 127.836 -6.594 130.044 -6.594C130.932 -6.594 131.79 -6.786 132.618 -7.17V-6.324ZM129.54 -14.478C128.724 -14.478 128.058 -14.178 127.542 -13.578C127.026 -12.978 126.75 -12.174 126.714 -11.166H131.97C131.994 -11.358 132.006 -11.526 132.006 -11.67C132.006 -12.558 131.79 -13.248 131.358 -13.74C130.926 -14.232 130.32 -14.478 129.54 -14.478ZM139.22 -7.188C140.12 -6.792 141.05 -6.594 142.01 -6.594C143.63 -6.594 144.44 -7.224 144.44 -8.484C144.44 -8.892 144.32 -9.222 144.08 -9.474C143.852 -9.726 143.468 -9.936 142.928 -10.104L141.56 -10.536C140.792 -10.776 140.234 -11.076 139.886 -11.436C139.538 -11.808 139.364 -12.276 139.364 -12.84C139.364 -13.596 139.658 -14.196 140.246 -14.64C140.846 -15.096 141.65 -15.324 142.658 -15.324C143.51 -15.324 144.32 -15.162 145.088 -14.838V-13.992C144.284 -14.304 143.492 -14.46 142.712 -14.46C142.004 -14.46 141.446 -14.316 141.038 -14.028C140.642 -13.752 140.444 -13.368 140.444 -12.876C140.444 -12.528 140.552 -12.246 140.768 -12.03C140.996 -11.826 141.398 -11.628 141.974 -11.436L143.396 -10.968C144.128 -10.728 144.662 -10.41 144.998 -10.014C145.346 -9.618 145.52 -9.114 145.52 -8.502C145.52 -7.614 145.22 -6.93 144.62 -6.45C144.02 -5.97 143.174 -5.73 142.082 -5.73C141.074 -5.73 140.168 -5.916 139.364 -6.288L139.22 -7.188ZM149.182 -14.226V-8.466C149.182 -7.842 149.314 -7.38 149.578 -7.08C149.842 -6.792 150.25 -6.648 150.802 -6.648C151.162 -6.648 151.57 -6.714 152.026 -6.846V-6.054C151.522 -5.886 151.06 -5.802 150.64 -5.802C149.812 -5.802 149.182 -6.024 148.75 -6.468C148.318 -6.924 148.102 -7.596 148.102 -8.484V-14.226H146.734V-15L148.138 -15.054L148.246 -17.322L149.182 -17.43V-15.054H151.9V-14.226H149.182ZM157.263 -5.73C155.955 -5.73 154.965 -6.132 154.293 -6.936C153.633 -7.752 153.303 -8.952 153.303 -10.536C153.303 -12.108 153.633 -13.296 154.293 -14.1C154.965 -14.916 155.955 -15.324 157.263 -15.324C158.571 -15.324 159.555 -14.916 160.215 -14.1C160.887 -13.296 161.223 -12.108 161.223 -10.536C161.223 -8.952 160.887 -7.752 160.215 -6.936C159.555 -6.132 158.571 -5.73 157.263 -5.73ZM157.263 -6.594C158.247 -6.594 158.961 -6.906 159.405 -7.53C159.861 -8.166 160.089 -9.168 160.089 -10.536C160.089 -11.892 159.861 -12.882 159.405 -13.506C158.961 -14.142 158.247 -14.46 157.263 -14.46C156.279 -14.46 155.559 -14.142 155.103 -13.506C154.659 -12.882 154.437 -11.892 154.437 -10.536C154.437 -9.168 154.659 -8.166 155.103 -7.53C155.559 -6.906 156.279 -6.594 157.263 -6.594ZM163.653 -6V-15L164.571 -15.09L164.661 -14.28C165.465 -14.94 166.323 -15.27 167.235 -15.27C167.559 -15.27 167.817 -15.234 168.009 -15.162V-14.28C167.697 -14.352 167.421 -14.388 167.181 -14.388C166.329 -14.388 165.513 -14.082 164.733 -13.47V-6H163.653ZM169.055 -2.886C169.907 -3.042 170.573 -3.342 171.053 -3.786C171.533 -4.23 171.977 -4.938 172.385 -5.91L168.929 -15.054H170.063L172.889 -7.116L175.805 -15.054H176.885L173.429 -6.09C173.105 -5.226 172.763 -4.524 172.403 -3.984C172.055 -3.432 171.641 -3 171.161 -2.688C170.681 -2.364 170.057 -2.118 169.289 -1.95L169.055 -2.886ZM180.395 -9.6C180.395 -10.356 180.515 -11.004 180.755 -11.544C180.995 -12.084 181.391 -12.606 181.943 -13.11C182.531 -13.638 182.921 -14.064 183.113 -14.388C183.305 -14.724 183.401 -15.108 183.401 -15.54C183.401 -16.224 183.173 -16.752 182.717 -17.124C182.273 -17.508 181.655 -17.7 180.863 -17.7C179.843 -17.7 178.835 -17.334 177.839 -16.602V-17.502C178.319 -17.85 178.835 -18.12 179.387 -18.312C179.951 -18.504 180.515 -18.6 181.079 -18.6C182.099 -18.6 182.921 -18.324 183.545 -17.772C184.181 -17.232 184.499 -16.512 184.499 -15.612C184.499 -15.096 184.367 -14.622 184.103 -14.19C183.839 -13.758 183.335 -13.212 182.591 -12.552C182.111 -12.132 181.763 -11.7 181.547 -11.256C181.343 -10.812 181.235 -10.26 181.223 -9.6H180.395ZM180.809 -5.91C180.569 -5.91 180.371 -5.982 180.215 -6.126C180.059 -6.282 179.981 -6.486 179.981 -6.738C179.981 -6.99 180.059 -7.188 180.215 -7.332C180.371 -7.488 180.569 -7.566 180.809 -7.566C181.049 -7.566 181.247 -7.488 181.403 -7.332C181.559 -7.188 181.637 -6.99 181.637 -6.738C181.637 -6.486 181.559 -6.282 181.403 -6.126C181.247 -5.982 181.049 -5.91 180.809 -5.91ZM9.63 5.4H10.728V18H9.648L2.88 7.272V18H1.782V5.4H2.862L9.63 16.128V5.4ZM17.3936 18.27C16.0856 18.27 15.0956 17.868 14.4236 17.064C13.7636 16.248 13.4336 15.048 13.4336 13.464C13.4336 11.892 13.7636 10.704 14.4236 9.9C15.0956 9.084 16.0856 8.676 17.3936 8.676C18.7016 8.676 19.6856 9.084 20.3456 9.9C21.0176 10.704 21.3536 11.892 21.3536 13.464C21.3536 15.048 21.0176 16.248 20.3456 17.064C19.6856 17.868 18.7016 18.27 17.3936 18.27ZM17.3936 17.406C18.3776 17.406 19.0916 17.094 19.5356 16.47C19.9916 15.834 20.2196 14.832 20.2196 13.464C20.2196 12.108 19.9916 11.118 19.5356 10.494C19.0916 9.858 18.3776 9.54 17.3936 9.54C16.4096 9.54 15.6896 9.858 15.2336 10.494C14.7896 11.118 14.5676 12.108 14.5676 13.464C14.5676 14.832 14.7896 15.834 15.2336 16.47C15.6896 17.094 16.4096 17.406 17.3936 17.406ZM28.5355 18V9.774H27.1675V9L28.5355 8.946V6.912C28.5355 6.024 28.7515 5.346 29.1835 4.878C29.6275 4.398 30.2695 4.158 31.1095 4.158C31.5655 4.158 32.0275 4.242 32.4955 4.41V5.202C32.0635 5.07 31.6495 5.004 31.2535 5.004C30.6895 5.004 30.2755 5.154 30.0115 5.454C29.7475 5.742 29.6155 6.198 29.6155 6.822V8.946H32.0455V9.774H29.6155V18H28.5355ZM40.2453 17.676C39.4173 18.072 38.5293 18.27 37.5813 18.27C36.2013 18.27 35.1393 17.862 34.3953 17.046C33.6513 16.23 33.2793 15.06 33.2793 13.536C33.2793 12.024 33.6273 10.836 34.3233 9.972C35.0193 9.108 35.9733 8.676 37.1853 8.676C38.2533 8.676 39.0933 9.012 39.7053 9.684C40.3293 10.344 40.6413 11.25 40.6413 12.402C40.6413 12.834 40.6053 13.248 40.5333 13.644H34.3413C34.3533 16.152 35.4633 17.406 37.6713 17.406C38.5593 17.406 39.4173 17.214 40.2453 16.83V17.676ZM37.1673 9.522C36.3513 9.522 35.6853 9.822 35.1693 10.422C34.6533 11.022 34.3773 11.826 34.3413 12.834H39.5973C39.6213 12.642 39.6333 12.474 39.6333 12.33C39.6333 11.442 39.4173 10.752 38.9853 10.26C38.5533 9.768 37.9473 9.522 37.1673 9.522ZM49.4211 17.676C48.5931 18.072 47.7051 18.27 46.7571 18.27C45.3771 18.27 44.3151 17.862 43.5711 17.046C42.8271 16.23 42.4551 15.06 42.4551 13.536C42.4551 12.024 42.8031 10.836 43.4991 9.972C44.1951 9.108 45.1491 8.676 46.3611 8.676C47.4291 8.676 48.2691 9.012 48.8811 9.684C49.5051 10.344 49.8171 11.25 49.8171 12.402C49.8171 12.834 49.7811 13.248 49.7091 13.644H43.5171C43.5291 16.152 44.6391 17.406 46.8471 17.406C47.7351 17.406 48.5931 17.214 49.4211 16.83V17.676ZM46.3431 9.522C45.5271 9.522 44.8611 9.822 44.3451 10.422C43.8291 11.022 43.5531 11.826 43.5171 12.834H48.7731C48.7971 12.642 48.8091 12.474 48.8091 12.33C48.8091 11.442 48.5931 10.752 48.1611 10.26C47.7291 9.768 47.1231 9.522 46.3431 9.522ZM51.5229 16.812C52.4229 17.208 53.3529 17.406 54.3129 17.406C55.9329 17.406 56.7429 16.776 56.7429 15.516C56.7429 15.108 56.6229 14.778 56.3829 14.526C56.1549 14.274 55.7709 14.064 55.2309 13.896L53.8629 13.464C53.0949 13.224 52.5369 12.924 52.1889 12.564C51.8409 12.192 51.6669 11.724 51.6669 11.16C51.6669 10.404 51.9609 9.804 52.5489 9.36C53.1489 8.904 53.9529 8.676 54.9609 8.676C55.8129 8.676 56.6229 8.838 57.3909 9.162V10.008C56.5869 9.696 55.7949 9.54 55.0149 9.54C54.3069 9.54 53.7489 9.684 53.3409 9.972C52.9449 10.248 52.7469 10.632 52.7469 11.124C52.7469 11.472 52.8549 11.754 53.0709 11.97C53.2989 12.174 53.7009 12.372 54.2769 12.564L55.6989 13.032C56.4309 13.272 56.9649 13.59 57.3009 13.986C57.6489 14.382 57.8229 14.886 57.8229 15.498C57.8229 16.386 57.5229 17.07 56.9229 17.55C56.3229 18.03 55.4769 18.27 54.3849 18.27C53.3769 18.27 52.4709 18.084 51.6669 17.712L51.5229 16.812ZM68.0186 18.27C66.7106 18.27 65.7206 17.868 65.0486 17.064C64.3886 16.248 64.0586 15.048 64.0586 13.464C64.0586 11.892 64.3886 10.704 65.0486 9.9C65.7206 9.084 66.7106 8.676 68.0186 8.676C69.3266 8.676 70.3106 9.084 70.9706 9.9C71.6426 10.704 71.9786 11.892 71.9786 13.464C71.9786 15.048 71.6426 16.248 70.9706 17.064C70.3106 17.868 69.3266 18.27 68.0186 18.27ZM68.0186 17.406C69.0026 17.406 69.7166 17.094 70.1606 16.47C70.6166 15.834 70.8446 14.832 70.8446 13.464C70.8446 12.108 70.6166 11.118 70.1606 10.494C69.7166 9.858 69.0026 9.54 68.0186 9.54C67.0346 9.54 66.3146 9.858 65.8586 10.494C65.4146 11.118 65.1926 12.108 65.1926 13.464C65.1926 14.832 65.4146 15.834 65.8586 16.47C66.3146 17.094 67.0346 17.406 68.0186 17.406ZM74.4085 18V9L75.3265 8.91L75.4165 9.72C76.2205 9.06 77.0785 8.73 77.9905 8.73C78.3145 8.73 78.5725 8.766 78.7645 8.838V9.72C78.4525 9.648 78.1765 9.612 77.9365 9.612C77.0845 9.612 76.2685 9.918 75.4885 10.53V18H74.4085ZM95.932 18V11.574C95.932 10.218 95.29 9.54 94.006 9.54C93.262 9.54 92.41 9.81 91.45 10.35C91.546 10.674 91.594 11.022 91.594 11.394V18H90.514V11.574C90.514 10.218 89.872 9.54 88.588 9.54C87.868 9.54 87.064 9.786 86.176 10.278V18H85.096V9L86.014 8.91L86.086 9.54C87.106 8.964 88.03 8.676 88.858 8.676C89.914 8.676 90.676 9.024 91.144 9.72C92.308 9.024 93.352 8.676 94.276 8.676C95.152 8.676 95.824 8.91 96.292 9.378C96.772 9.846 97.012 10.518 97.012 11.394V18H95.932ZM99.9143 18V9.036L100.994 8.892V18H99.9143ZM100.454 6.75C100.214 6.75 100.016 6.678 99.8603 6.534C99.7163 6.39 99.6443 6.192 99.6443 5.94C99.6443 5.688 99.7163 5.49 99.8603 5.346C100.016 5.202 100.214 5.13 100.454 5.13C100.694 5.13 100.886 5.202 101.03 5.346C101.186 5.49 101.264 5.688 101.264 5.94C101.264 6.192 101.186 6.39 101.03 6.534C100.886 6.678 100.694 6.75 100.454 6.75ZM110.04 18V11.754C110.04 10.278 109.29 9.54 107.79 9.54C107.394 9.54 106.956 9.606 106.476 9.738C106.008 9.87 105.546 10.05 105.09 10.278V18H104.01V9L104.928 8.91L105 9.54C106.044 8.964 107.064 8.676 108.06 8.676C109.032 8.676 109.782 8.928 110.31 9.432C110.85 9.936 111.12 10.65 111.12 11.574V18H110.04ZM114.012 18V9.036L115.092 8.892V18H114.012ZM114.552 6.75C114.312 6.75 114.114 6.678 113.958 6.534C113.814 6.39 113.742 6.192 113.742 5.94C113.742 5.688 113.814 5.49 113.958 5.346C114.114 5.202 114.312 5.13 114.552 5.13C114.792 5.13 114.984 5.202 115.128 5.346C115.284 5.49 115.362 5.688 115.362 5.94C115.362 6.192 115.284 6.39 115.128 6.534C114.984 6.678 114.792 6.75 114.552 6.75ZM128.944 18V11.574C128.944 10.218 128.302 9.54 127.018 9.54C126.274 9.54 125.422 9.81 124.462 10.35C124.558 10.674 124.606 11.022 124.606 11.394V18H123.526V11.574C123.526 10.218 122.884 9.54 121.6 9.54C120.88 9.54 120.076 9.786 119.188 10.278V18H118.108V9L119.026 8.91L119.098 9.54C120.118 8.964 121.042 8.676 121.87 8.676C122.926 8.676 123.688 9.024 124.156 9.72C125.32 9.024 126.364 8.676 127.288 8.676C128.164 8.676 128.836 8.91 129.304 9.378C129.784 9.846 130.024 10.518 130.024 11.394V18H128.944ZM133.88 8.946V15.192C133.88 16.668 134.606 17.406 136.058 17.406C136.454 17.406 136.886 17.34 137.354 17.208C137.834 17.076 138.302 16.896 138.758 16.668V8.946H139.838V17.946L138.92 18.036L138.848 17.406C137.804 17.982 136.784 18.27 135.788 18.27C134.84 18.27 134.102 18.018 133.574 17.514C133.058 16.998 132.8 16.284 132.8 15.372V8.946H133.88ZM153.694 18V11.574C153.694 10.218 153.052 9.54 151.768 9.54C151.024 9.54 150.172 9.81 149.212 10.35C149.308 10.674 149.356 11.022 149.356 11.394V18H148.276V11.574C148.276 10.218 147.634 9.54 146.35 9.54C145.63 9.54 144.826 9.786 143.938 10.278V18H142.858V9L143.776 8.91L143.848 9.54C144.868 8.964 145.792 8.676 146.62 8.676C147.676 8.676 148.438 9.024 148.906 9.72C150.07 9.024 151.114 8.676 152.038 8.676C152.914 8.676 153.586 8.91 154.054 9.378C154.534 9.846 154.774 10.518 154.774 11.394V18H153.694ZM156.974 16.812C157.874 17.208 158.804 17.406 159.764 17.406C161.384 17.406 162.194 16.776 162.194 15.516C162.194 15.108 162.074 14.778 161.834 14.526C161.606 14.274 161.222 14.064 160.682 13.896L159.314 13.464C158.546 13.224 157.988 12.924 157.64 12.564C157.292 12.192 157.118 11.724 157.118 11.16C157.118 10.404 157.412 9.804 158 9.36C158.6 8.904 159.404 8.676 160.412 8.676C161.264 8.676 162.074 8.838 162.842 9.162V10.008C162.038 9.696 161.246 9.54 160.466 9.54C159.758 9.54 159.2 9.684 158.792 9.972C158.396 10.248 158.198 10.632 158.198 11.124C158.198 11.472 158.306 11.754 158.522 11.97C158.75 12.174 159.152 12.372 159.728 12.564L161.15 13.032C161.882 13.272 162.416 13.59 162.752 13.986C163.1 14.382 163.274 14.886 163.274 15.498C163.274 16.386 162.974 17.07 162.374 17.55C161.774 18.03 160.928 18.27 159.836 18.27C158.828 18.27 157.922 18.084 157.118 17.712L156.974 16.812ZM173.47 18.27C172.162 18.27 171.172 17.868 170.5 17.064C169.84 16.248 169.51 15.048 169.51 13.464C169.51 11.892 169.84 10.704 170.5 9.9C171.172 9.084 172.162 8.676 173.47 8.676C174.778 8.676 175.762 9.084 176.422 9.9C177.094 10.704 177.43 11.892 177.43 13.464C177.43 15.048 177.094 16.248 176.422 17.064C175.762 17.868 174.778 18.27 173.47 18.27ZM173.47 17.406C174.454 17.406 175.168 17.094 175.612 16.47C176.068 15.834 176.296 14.832 176.296 13.464C176.296 12.108 176.068 11.118 175.612 10.494C175.168 9.858 174.454 9.54 173.47 9.54C172.486 9.54 171.766 9.858 171.31 10.494C170.866 11.118 170.644 12.108 170.644 13.464C170.644 14.832 170.866 15.834 171.31 16.47C171.766 17.094 172.486 17.406 173.47 17.406ZM185.89 18V11.754C185.89 10.278 185.14 9.54 183.64 9.54C183.244 9.54 182.806 9.606 182.326 9.738C181.858 9.87 181.396 10.05 180.94 10.278V18H179.86V9L180.778 8.91L180.85 9.54C181.894 8.964 182.914 8.676 183.91 8.676C184.882 8.676 185.632 8.928 186.16 9.432C186.7 9.936 186.97 10.65 186.97 11.574V18H185.89ZM7.488 41.676C6.696 42.072 5.832 42.27 4.896 42.27C3.624 42.27 2.64 41.856 1.944 41.028C1.26 40.2 0.918 39.018 0.918 37.482C0.918 35.946 1.26 34.764 1.944 33.936C2.64 33.096 3.624 32.676 4.896 32.676C5.796 32.676 6.648 32.874 7.452 33.27V34.116C6.612 33.744 5.796 33.558 5.004 33.558C4.032 33.558 3.294 33.888 2.79 34.548C2.298 35.208 2.052 36.186 2.052 37.482C2.052 38.766 2.298 39.738 2.79 40.398C3.294 41.058 4.032 41.388 5.004 41.388C5.82 41.388 6.648 41.202 7.488 40.83V41.676ZM9.80888 42V28.482L10.8889 28.338V33.504C11.8969 32.952 12.8869 32.676 13.8589 32.676C14.8309 32.676 15.5809 32.928 16.1089 33.432C16.6489 33.936 16.9189 34.65 16.9189 35.574V42H15.8389V35.754C15.8389 34.278 15.0889 33.54 13.5889 33.54C13.1929 33.54 12.7549 33.606 12.2749 33.738C11.8069 33.87 11.3449 34.05 10.8889 34.278V42H9.80888ZM26.1828 41.676C25.3548 42.072 24.4668 42.27 23.5188 42.27C22.1388 42.27 21.0768 41.862 20.3328 41.046C19.5888 40.23 19.2168 39.06 19.2168 37.536C19.2168 36.024 19.5648 34.836 20.2608 33.972C20.9568 33.108 21.9108 32.676 23.1228 32.676C24.1908 32.676 25.0308 33.012 25.6428 33.684C26.2668 34.344 26.5788 35.25 26.5788 36.402C26.5788 36.834 26.5428 37.248 26.4708 37.644H20.2788C20.2908 40.152 21.4008 41.406 23.6088 41.406C24.4968 41.406 25.3548 41.214 26.1828 40.83V41.676ZM23.1048 33.522C22.2888 33.522 21.6228 33.822 21.1068 34.422C20.5908 35.022 20.3148 35.826 20.2788 36.834H25.5348C25.5588 36.642 25.5708 36.474 25.5708 36.33C25.5708 35.442 25.3548 34.752 24.9228 34.26C24.4908 33.768 23.8848 33.522 23.1048 33.522ZM34.9626 41.676C34.1706 42.072 33.3066 42.27 32.3706 42.27C31.0986 42.27 30.1146 41.856 29.4186 41.028C28.7346 40.2 28.3926 39.018 28.3926 37.482C28.3926 35.946 28.7346 34.764 29.4186 33.936C30.1146 33.096 31.0986 32.676 32.3706 32.676C33.2706 32.676 34.1226 32.874 34.9266 33.27V34.116C34.0866 33.744 33.2706 33.558 32.4786 33.558C31.5066 33.558 30.7686 33.888 30.2646 34.548C29.7726 35.208 29.5266 36.186 29.5266 37.482C29.5266 38.766 29.7726 39.738 30.2646 40.398C30.7686 41.058 31.5066 41.388 32.4786 41.388C33.2946 41.388 34.1226 41.202 34.9626 40.83V41.676ZM37.2835 42V28.482L38.3635 28.338V36.96L42.6115 32.946H43.8895L39.4435 37.158L44.0335 42H42.6655L38.3635 37.428V42H37.2835ZM45.5628 42V33.036L46.6428 32.892V42H45.5628ZM46.1028 30.75C45.8628 30.75 45.6648 30.678 45.5088 30.534C45.3648 30.39 45.2928 30.192 45.2928 29.94C45.2928 29.688 45.3648 29.49 45.5088 29.346C45.6648 29.202 45.8628 29.13 46.1028 29.13C46.3428 29.13 46.5348 29.202 46.6788 29.346C46.8348 29.49 46.9128 29.688 46.9128 29.94C46.9128 30.192 46.8348 30.39 46.6788 30.534C46.5348 30.678 46.3428 30.75 46.1028 30.75ZM55.6885 42V35.754C55.6885 34.278 54.9385 33.54 53.4385 33.54C53.0425 33.54 52.6045 33.606 52.1245 33.738C51.6565 33.87 51.1945 34.05 50.7385 34.278V42H49.6585V33L50.5765 32.91L50.6485 33.54C51.6925 32.964 52.7125 32.676 53.7085 32.676C54.6805 32.676 55.4305 32.928 55.9585 33.432C56.4985 33.936 56.7685 34.65 56.7685 35.574V42H55.6885ZM62.6124 46.194C61.5444 46.194 60.6384 46.008 59.8944 45.636L59.7504 44.718C60.7344 45.126 61.6704 45.33 62.5584 45.33C64.5624 45.33 65.5644 44.4 65.5644 42.54V41.298C65.1084 41.55 64.6404 41.748 64.1604 41.892C63.6924 42.036 63.2544 42.108 62.8464 42.108C61.6704 42.108 60.7464 41.712 60.0744 40.92C59.4024 40.128 59.0664 39.03 59.0664 37.626C59.0664 36.03 59.4444 34.806 60.2004 33.954C60.9684 33.102 62.0724 32.676 63.5124 32.676C64.6044 32.676 65.6484 32.868 66.6444 33.252V42.45C66.6444 43.65 66.2964 44.574 65.6004 45.222C64.9044 45.87 63.9084 46.194 62.6124 46.194ZM62.9904 41.244C63.3864 41.244 63.8124 41.178 64.2684 41.046C64.7244 40.914 65.1564 40.734 65.5644 40.506V33.828C64.9404 33.636 64.2864 33.54 63.6024 33.54C62.4504 33.54 61.5924 33.876 61.0284 34.548C60.4764 35.208 60.2004 36.228 60.2004 37.608C60.2004 38.796 60.4344 39.702 60.9024 40.326C61.3824 40.938 62.0784 41.244 62.9904 41.244ZM79.7064 42.036L79.6344 41.406C78.6024 41.982 77.5824 42.27 76.5744 42.27C75.6504 42.27 74.9184 42.03 74.3784 41.55C73.8384 41.058 73.5684 40.386 73.5684 39.534C73.5684 38.634 73.8684 37.95 74.4684 37.482C75.0804 37.002 75.9744 36.762 77.1504 36.762C77.8584 36.762 78.6624 36.846 79.5624 37.014V35.79C79.5624 34.29 78.7164 33.54 77.0244 33.54C76.5804 33.54 76.0944 33.6 75.5664 33.72C75.0384 33.84 74.5524 33.996 74.1084 34.188V33.342C74.5404 33.138 75.0324 32.976 75.5844 32.856C76.1484 32.736 76.6824 32.676 77.1864 32.676C78.3144 32.676 79.1664 32.946 79.7424 33.486C80.3304 34.014 80.6244 34.782 80.6244 35.79V41.946L79.7064 42.036ZM76.8264 41.406C77.2584 41.406 77.7144 41.34 78.1944 41.208C78.6744 41.076 79.1304 40.896 79.5624 40.668V37.788C78.8064 37.644 78.0624 37.572 77.3304 37.572C76.4064 37.572 75.7344 37.728 75.3144 38.04C74.8944 38.352 74.6844 38.844 74.6844 39.516C74.6844 40.776 75.3984 41.406 76.8264 41.406ZM89.49 41.676C88.698 42.072 87.834 42.27 86.898 42.27C85.626 42.27 84.642 41.856 83.946 41.028C83.262 40.2 82.92 39.018 82.92 37.482C82.92 35.946 83.262 34.764 83.946 33.936C84.642 33.096 85.626 32.676 86.898 32.676C87.798 32.676 88.65 32.874 89.454 33.27V34.116C88.614 33.744 87.798 33.558 87.006 33.558C86.034 33.558 85.296 33.888 84.792 34.548C84.3 35.208 84.054 36.186 84.054 37.482C84.054 38.766 84.3 39.738 84.792 40.398C85.296 41.058 86.034 41.388 87.006 41.388C87.822 41.388 88.65 41.202 89.49 40.83V41.676ZM97.611 41.676C96.819 42.072 95.955 42.27 95.019 42.27C93.747 42.27 92.763 41.856 92.067 41.028C91.383 40.2 91.041 39.018 91.041 37.482C91.041 35.946 91.383 34.764 92.067 33.936C92.763 33.096 93.747 32.676 95.019 32.676C95.919 32.676 96.771 32.874 97.575 33.27V34.116C96.735 33.744 95.919 33.558 95.127 33.558C94.155 33.558 93.417 33.888 92.913 34.548C92.421 35.208 92.175 36.186 92.175 37.482C92.175 38.766 92.421 39.738 92.913 40.398C93.417 41.058 94.155 41.388 95.127 41.388C95.943 41.388 96.771 41.202 97.611 40.83V41.676ZM103.122 42.27C101.814 42.27 100.824 41.868 100.152 41.064C99.4921 40.248 99.1621 39.048 99.1621 37.464C99.1621 35.892 99.4921 34.704 100.152 33.9C100.824 33.084 101.814 32.676 103.122 32.676C104.43 32.676 105.414 33.084 106.074 33.9C106.746 34.704 107.082 35.892 107.082 37.464C107.082 39.048 106.746 40.248 106.074 41.064C105.414 41.868 104.43 42.27 103.122 42.27ZM103.122 41.406C104.106 41.406 104.82 41.094 105.264 40.47C105.72 39.834 105.948 38.832 105.948 37.464C105.948 36.108 105.72 35.118 105.264 34.494C104.82 33.858 104.106 33.54 103.122 33.54C102.138 33.54 101.418 33.858 100.962 34.494C100.518 35.118 100.296 36.108 100.296 37.464C100.296 38.832 100.518 39.834 100.962 40.47C101.418 41.094 102.138 41.406 103.122 41.406ZM110.466 32.946V39.192C110.466 40.668 111.192 41.406 112.644 41.406C113.04 41.406 113.472 41.34 113.94 41.208C114.42 41.076 114.888 40.896 115.344 40.668V32.946H116.424V41.946L115.506 42.036L115.434 41.406C114.39 41.982 113.37 42.27 112.374 42.27C111.426 42.27 110.688 42.018 110.16 41.514C109.644 40.998 109.386 40.284 109.386 39.372V32.946H110.466ZM125.474 42V35.754C125.474 34.278 124.724 33.54 123.224 33.54C122.828 33.54 122.39 33.606 121.91 33.738C121.442 33.87 120.98 34.05 120.524 34.278V42H119.444V33L120.362 32.91L120.434 33.54C121.478 32.964 122.498 32.676 123.494 32.676C124.466 32.676 125.216 32.928 125.744 33.432C126.284 33.936 126.554 34.65 126.554 35.574V42H125.474ZM130.778 33.774V39.534C130.778 40.158 130.91 40.62 131.174 40.92C131.438 41.208 131.846 41.352 132.398 41.352C132.758 41.352 133.166 41.286 133.622 41.154V41.946C133.118 42.114 132.656 42.198 132.236 42.198C131.408 42.198 130.778 41.976 130.346 41.532C129.914 41.076 129.698 40.404 129.698 39.516V33.774H128.33V33L129.734 32.946L129.842 30.678L130.778 30.57V32.946H133.496V33.774H130.778ZM134.79 40.812C135.69 41.208 136.62 41.406 137.58 41.406C139.2 41.406 140.01 40.776 140.01 39.516C140.01 39.108 139.89 38.778 139.65 38.526C139.422 38.274 139.038 38.064 138.498 37.896L137.13 37.464C136.362 37.224 135.804 36.924 135.456 36.564C135.108 36.192 134.934 35.724 134.934 35.16C134.934 34.404 135.228 33.804 135.816 33.36C136.416 32.904 137.22 32.676 138.228 32.676C139.08 32.676 139.89 32.838 140.658 33.162V34.008C139.854 33.696 139.062 33.54 138.282 33.54C137.574 33.54 137.016 33.684 136.608 33.972C136.212 34.248 136.014 34.632 136.014 35.124C136.014 35.472 136.122 35.754 136.338 35.97C136.566 36.174 136.968 36.372 137.544 36.564L138.966 37.032C139.698 37.272 140.232 37.59 140.568 37.986C140.916 38.382 141.09 38.886 141.09 39.498C141.09 40.386 140.79 41.07 140.19 41.55C139.59 42.03 138.744 42.27 137.652 42.27C136.644 42.27 135.738 42.084 134.934 41.712L134.79 40.812ZM143.762 42.09C143.522 42.09 143.324 42.018 143.168 41.874C143.012 41.718 142.934 41.514 142.934 41.262C142.934 41.01 143.012 40.812 143.168 40.668C143.324 40.512 143.522 40.434 143.762 40.434C144.002 40.434 144.2 40.512 144.356 40.668C144.512 40.812 144.59 41.01 144.59 41.262C144.59 41.514 144.512 41.718 144.356 41.874C144.2 42.018 144.002 42.09 143.762 42.09Z" fill="#013D5B"/>
</g>
<defs>
<clipPath id="clip0_11090_3601">
<rect width="197" height="24" fill="white"/>
</clipPath>
</defs>
</svg>
