<svg width="197" height="23" viewBox="0 0 197 23" fill="none" xmlns="http://www.w3.org/2000/svg">
<g clip-path="url(#clip0_11090_3601)">
<path d="M4.068 17V5.318H0.27V4.4H9V5.318H5.202V17H4.068ZM10.7757 17V3.482L11.8557 3.338V8.504C12.8637 7.952 13.8537 7.676 14.8257 7.676C15.7977 7.676 16.5477 7.928 17.0757 8.432C17.6157 8.936 17.8857 9.65 17.8857 10.574V17H16.8057V10.754C16.8057 9.278 16.0557 8.54 14.5557 8.54C14.1597 8.54 13.7217 8.606 13.2417 8.738C12.7737 8.87 12.3117 9.05 11.8557 9.278V17H10.7757ZM27.1496 16.676C26.3216 17.072 25.4336 17.27 24.4856 17.27C23.1056 17.27 22.0436 16.862 21.2996 16.046C20.5556 15.23 20.1836 14.06 20.1836 12.536C20.1836 11.024 20.5316 9.836 21.2276 8.972C21.9236 8.108 22.8776 7.676 24.0896 7.676C25.1576 7.676 25.9976 8.012 26.6096 8.684C27.2336 9.344 27.5456 10.25 27.5456 11.402C27.5456 11.834 27.5096 12.248 27.4376 12.644H21.2456C21.2576 15.152 22.3676 16.406 24.5756 16.406C25.4636 16.406 26.3216 16.214 27.1496 15.83V16.676ZM24.0716 8.522C23.2556 8.522 22.5896 8.822 22.0736 9.422C21.5576 10.022 21.2816 10.826 21.2456 11.834H26.5016C26.5256 11.642 26.5376 11.474 26.5376 11.33C26.5376 10.442 26.3216 9.752 25.8896 9.26C25.4576 8.768 24.8516 8.522 24.0716 8.522ZM35.5334 8.486C35.9894 8.234 36.4514 8.036 36.9194 7.892C37.3994 7.748 37.8434 7.676 38.2514 7.676C39.4274 7.676 40.3514 8.09 41.0234 8.918C41.6954 9.734 42.0314 10.868 42.0314 12.32C42.0314 13.916 41.6474 15.14 40.8794 15.992C40.1234 16.844 39.0254 17.27 37.5854 17.27C36.5654 17.27 35.5214 17.102 34.4534 16.766V3.482L35.5334 3.338V8.486ZM38.1074 8.54C37.7114 8.54 37.2854 8.606 36.8294 8.738C36.3734 8.87 35.9414 9.05 35.5334 9.278V16.118C36.1574 16.31 36.8114 16.406 37.4954 16.406C38.6474 16.406 39.4994 16.076 40.0514 15.416C40.6154 14.744 40.8974 13.718 40.8974 12.338C40.8974 11.102 40.6574 10.16 40.1774 9.512C39.7094 8.864 39.0194 8.54 38.1074 8.54ZM50.8274 16.676C49.9994 17.072 49.1114 17.27 48.1634 17.27C46.7834 17.27 45.7214 16.862 44.9774 16.046C44.2334 15.23 43.8614 14.06 43.8614 12.536C43.8614 11.024 44.2094 9.836 44.9054 8.972C45.6014 8.108 46.5554 7.676 47.7674 7.676C48.8354 7.676 49.6754 8.012 50.2874 8.684C50.9114 9.344 51.2234 10.25 51.2234 11.402C51.2234 11.834 51.1874 12.248 51.1154 12.644H44.9234C44.9354 15.152 46.0454 16.406 48.2534 16.406C49.1414 16.406 49.9994 16.214 50.8274 15.83V16.676ZM47.7494 8.522C46.9334 8.522 46.2674 8.822 45.7514 9.422C45.2354 10.022 44.9594 10.826 44.9234 11.834H50.1794C50.2034 11.642 50.2154 11.474 50.2154 11.33C50.2154 10.442 49.9994 9.752 49.5674 9.26C49.1354 8.768 48.5294 8.522 47.7494 8.522ZM52.9291 15.812C53.8291 16.208 54.7591 16.406 55.7191 16.406C57.3391 16.406 58.1491 15.776 58.1491 14.516C58.1491 14.108 58.0291 13.778 57.7891 13.526C57.5611 13.274 57.1771 13.064 56.6371 12.896L55.2691 12.464C54.5011 12.224 53.9431 11.924 53.5951 11.564C53.2471 11.192 53.0731 10.724 53.0731 10.16C53.0731 9.404 53.3671 8.804 53.9551 8.36C54.5551 7.904 55.3591 7.676 56.3671 7.676C57.2191 7.676 58.0291 7.838 58.7971 8.162V9.008C57.9931 8.696 57.2011 8.54 56.4211 8.54C55.7131 8.54 55.1551 8.684 54.7471 8.972C54.3511 9.248 54.1531 9.632 54.1531 10.124C54.1531 10.472 54.2611 10.754 54.4771 10.97C54.7051 11.174 55.1071 11.372 55.6831 11.564L57.1051 12.032C57.8371 12.272 58.3711 12.59 58.7071 12.986C59.0551 13.382 59.2291 13.886 59.2291 14.498C59.2291 15.386 58.9291 16.07 58.3291 16.55C57.7291 17.03 56.8831 17.27 55.7911 17.27C54.7831 17.27 53.8771 17.084 53.0731 16.712L52.9291 15.812ZM62.8909 8.774V14.534C62.8909 15.158 63.0229 15.62 63.2869 15.92C63.5509 16.208 63.9589 16.352 64.5109 16.352C64.8709 16.352 65.2789 16.286 65.7349 16.154V16.946C65.2309 17.114 64.7689 17.198 64.3489 17.198C63.5209 17.198 62.8909 16.976 62.4589 16.532C62.0269 16.076 61.8109 15.404 61.8109 14.516V8.774H60.4429V8L61.8469 7.946L61.9549 5.678L62.8909 5.57V7.946H65.6089V8.774H62.8909ZM73.1858 8.486C73.6418 8.234 74.1038 8.036 74.5718 7.892C75.0518 7.748 75.4958 7.676 75.9038 7.676C77.0798 7.676 78.0038 8.09 78.6758 8.918C79.3478 9.734 79.6837 10.868 79.6837 12.32C79.6837 13.916 79.2998 15.14 78.5318 15.992C77.7758 16.844 76.6778 17.27 75.2378 17.27C74.2178 17.27 73.1738 17.102 72.1058 16.766V3.482L73.1858 3.338V8.486ZM75.7598 8.54C75.3638 8.54 74.9378 8.606 74.4818 8.738C74.0258 8.87 73.5938 9.05 73.1858 9.278V16.118C73.8098 16.31 74.4638 16.406 75.1478 16.406C76.2998 16.406 77.1518 16.076 77.7038 15.416C78.2678 14.744 78.5498 13.718 78.5498 12.338C78.5498 11.102 78.3098 10.16 77.8298 9.512C77.3618 8.864 76.6718 8.54 75.7598 8.54ZM88.4797 16.676C87.6517 17.072 86.7637 17.27 85.8157 17.27C84.4357 17.27 83.3737 16.862 82.6297 16.046C81.8857 15.23 81.5137 14.06 81.5137 12.536C81.5137 11.024 81.8617 9.836 82.5577 8.972C83.2537 8.108 84.2077 7.676 85.4197 7.676C86.4877 7.676 87.3277 8.012 87.9397 8.684C88.5637 9.344 88.8757 10.25 88.8757 11.402C88.8757 11.834 88.8397 12.248 88.7677 12.644H82.5757C82.5877 15.152 83.6977 16.406 85.9057 16.406C86.7937 16.406 87.6517 16.214 88.4797 15.83V16.676ZM85.4017 8.522C84.5857 8.522 83.9197 8.822 83.4037 9.422C82.8877 10.022 82.6117 10.826 82.5757 11.834H87.8317C87.8557 11.642 87.8677 11.474 87.8677 11.33C87.8677 10.442 87.6517 9.752 87.2197 9.26C86.7877 8.768 86.1817 8.522 85.4017 8.522ZM98.2675 3.338V16.946L97.3495 17.036L97.2775 16.406C96.2575 16.982 95.3215 17.27 94.4695 17.27C93.2935 17.27 92.3695 16.862 91.6975 16.046C91.0255 15.218 90.6895 14.078 90.6895 12.626C90.6895 11.03 91.0675 9.806 91.8235 8.954C92.5915 8.102 93.6955 7.676 95.1355 7.676C95.8795 7.676 96.5635 7.772 97.1875 7.964V3.482L98.2675 3.338ZM94.6135 16.406C95.0095 16.406 95.4355 16.34 95.8915 16.208C96.3475 16.076 96.7795 15.896 97.1875 15.668V8.828C96.5635 8.636 95.9095 8.54 95.2255 8.54C94.0735 8.54 93.2155 8.876 92.6515 9.548C92.0995 10.208 91.8235 11.228 91.8235 12.608C91.8235 13.844 92.0575 14.786 92.5255 15.434C93.0055 16.082 93.7015 16.406 94.6135 16.406ZM102.617 8.774V14.534C102.617 15.158 102.749 15.62 103.013 15.92C103.277 16.208 103.685 16.352 104.237 16.352C104.597 16.352 105.005 16.286 105.461 16.154V16.946C104.957 17.114 104.495 17.198 104.075 17.198C103.247 17.198 102.617 16.976 102.185 16.532C101.753 16.076 101.537 15.404 101.537 14.516V8.774H100.169V8L101.573 7.946L101.681 5.678L102.617 5.57V7.946H105.335V8.774H102.617ZM107.332 17V8.036L108.412 7.892V17H107.332ZM107.872 5.75C107.632 5.75 107.434 5.678 107.278 5.534C107.134 5.39 107.062 5.192 107.062 4.94C107.062 4.688 107.134 4.49 107.278 4.346C107.434 4.202 107.632 4.13 107.872 4.13C108.112 4.13 108.304 4.202 108.448 4.346C108.604 4.49 108.682 4.688 108.682 4.94C108.682 5.192 108.604 5.39 108.448 5.534C108.304 5.678 108.112 5.75 107.872 5.75ZM122.264 17V10.574C122.264 9.218 121.622 8.54 120.338 8.54C119.594 8.54 118.742 8.81 117.782 9.35C117.878 9.674 117.926 10.022 117.926 10.394V17H116.846V10.574C116.846 9.218 116.204 8.54 114.92 8.54C114.2 8.54 113.396 8.786 112.508 9.278V17H111.428V8L112.346 7.91L112.418 8.54C113.438 7.964 114.362 7.676 115.19 7.676C116.246 7.676 117.008 8.024 117.476 8.72C118.64 8.024 119.684 7.676 120.608 7.676C121.484 7.676 122.156 7.91 122.624 8.378C123.104 8.846 123.344 9.518 123.344 10.394V17H122.264ZM132.618 16.676C131.79 17.072 130.902 17.27 129.954 17.27C128.574 17.27 127.512 16.862 126.768 16.046C126.024 15.23 125.652 14.06 125.652 12.536C125.652 11.024 126 9.836 126.696 8.972C127.392 8.108 128.346 7.676 129.558 7.676C130.626 7.676 131.466 8.012 132.078 8.684C132.702 9.344 133.014 10.25 133.014 11.402C133.014 11.834 132.978 12.248 132.906 12.644H126.714C126.726 15.152 127.836 16.406 130.044 16.406C130.932 16.406 131.79 16.214 132.618 15.83V16.676ZM129.54 8.522C128.724 8.522 128.058 8.822 127.542 9.422C127.026 10.022 126.75 10.826 126.714 11.834H131.97C131.994 11.642 132.006 11.474 132.006 11.33C132.006 10.442 131.79 9.752 131.358 9.26C130.926 8.768 130.32 8.522 129.54 8.522ZM139.22 15.812C140.12 16.208 141.05 16.406 142.01 16.406C143.63 16.406 144.44 15.776 144.44 14.516C144.44 14.108 144.32 13.778 144.08 13.526C143.852 13.274 143.468 13.064 142.928 12.896L141.56 12.464C140.792 12.224 140.234 11.924 139.886 11.564C139.538 11.192 139.364 10.724 139.364 10.16C139.364 9.404 139.658 8.804 140.246 8.36C140.846 7.904 141.65 7.676 142.658 7.676C143.51 7.676 144.32 7.838 145.088 8.162V9.008C144.284 8.696 143.492 8.54 142.712 8.54C142.004 8.54 141.446 8.684 141.038 8.972C140.642 9.248 140.444 9.632 140.444 10.124C140.444 10.472 140.552 10.754 140.768 10.97C140.996 11.174 141.398 11.372 141.974 11.564L143.396 12.032C144.128 12.272 144.662 12.59 144.998 12.986C145.346 13.382 145.52 13.886 145.52 14.498C145.52 15.386 145.22 16.07 144.62 16.55C144.02 17.03 143.174 17.27 142.082 17.27C141.074 17.27 140.168 17.084 139.364 16.712L139.22 15.812ZM149.182 8.774V14.534C149.182 15.158 149.314 15.62 149.578 15.92C149.842 16.208 150.25 16.352 150.802 16.352C151.162 16.352 151.57 16.286 152.026 16.154V16.946C151.522 17.114 151.06 17.198 150.64 17.198C149.812 17.198 149.182 16.976 148.75 16.532C148.318 16.076 148.102 15.404 148.102 14.516V8.774H146.734V8L148.138 7.946L148.246 5.678L149.182 5.57V7.946H151.9V8.774H149.182ZM157.263 17.27C155.955 17.27 154.965 16.868 154.293 16.064C153.633 15.248 153.303 14.048 153.303 12.464C153.303 10.892 153.633 9.704 154.293 8.9C154.965 8.084 155.955 7.676 157.263 7.676C158.571 7.676 159.555 8.084 160.215 8.9C160.887 9.704 161.223 10.892 161.223 12.464C161.223 14.048 160.887 15.248 160.215 16.064C159.555 16.868 158.571 17.27 157.263 17.27ZM157.263 16.406C158.247 16.406 158.961 16.094 159.405 15.47C159.861 14.834 160.089 13.832 160.089 12.464C160.089 11.108 159.861 10.118 159.405 9.494C158.961 8.858 158.247 8.54 157.263 8.54C156.279 8.54 155.559 8.858 155.103 9.494C154.659 10.118 154.437 11.108 154.437 12.464C154.437 13.832 154.659 14.834 155.103 15.47C155.559 16.094 156.279 16.406 157.263 16.406ZM163.653 17V8L164.571 7.91L164.661 8.72C165.465 8.06 166.323 7.73 167.235 7.73C167.559 7.73 167.817 7.766 168.009 7.838V8.72C167.697 8.648 167.421 8.612 167.181 8.612C166.329 8.612 165.513 8.918 164.733 9.53V17H163.653ZM169.055 20.114C169.907 19.958 170.573 19.658 171.053 19.214C171.533 18.77 171.977 18.062 172.385 17.09L168.929 7.946H170.063L172.889 15.884L175.805 7.946H176.885L173.429 16.91C173.105 17.774 172.763 18.476 172.403 19.016C172.055 19.568 171.641 20 171.161 20.312C170.681 20.636 170.057 20.882 169.289 21.05L169.055 20.114ZM180.395 13.4C180.395 12.644 180.515 11.996 180.755 11.456C180.995 10.916 181.391 10.394 181.943 9.89C182.531 9.362 182.921 8.936 183.113 8.612C183.305 8.276 183.401 7.892 183.401 7.46C183.401 6.776 183.173 6.248 182.717 5.876C182.273 5.492 181.655 5.3 180.863 5.3C179.843 5.3 178.835 5.666 177.839 6.398V5.498C178.319 5.15 178.835 4.88 179.387 4.688C179.951 4.496 180.515 4.4 181.079 4.4C182.099 4.4 182.921 4.676 183.545 5.228C184.181 5.768 184.499 6.488 184.499 7.388C184.499 7.904 184.367 8.378 184.103 8.81C183.839 9.242 183.335 9.788 182.591 10.448C182.111 10.868 181.763 11.3 181.547 11.744C181.343 12.188 181.235 12.74 181.223 13.4H180.395ZM180.809 17.09C180.569 17.09 180.371 17.018 180.215 16.874C180.059 16.718 179.981 16.514 179.981 16.262C179.981 16.01 180.059 15.812 180.215 15.668C180.371 15.512 180.569 15.434 180.809 15.434C181.049 15.434 181.247 15.512 181.403 15.668C181.559 15.812 181.637 16.01 181.637 16.262C181.637 16.514 181.559 16.718 181.403 16.874C181.247 17.018 181.049 17.09 180.809 17.09ZM9.63 28.4H10.728V41H9.648L2.88 30.272V41H1.782V28.4H2.862L9.63 39.128V28.4ZM17.3936 41.27C16.0856 41.27 15.0956 40.868 14.4236 40.064C13.7636 39.248 13.4336 38.048 13.4336 36.464C13.4336 34.892 13.7636 33.704 14.4236 32.9C15.0956 32.084 16.0856 31.676 17.3936 31.676C18.7016 31.676 19.6856 32.084 20.3456 32.9C21.0176 33.704 21.3536 34.892 21.3536 36.464C21.3536 38.048 21.0176 39.248 20.3456 40.064C19.6856 40.868 18.7016 41.27 17.3936 41.27ZM17.3936 40.406C18.3776 40.406 19.0916 40.094 19.5356 39.47C19.9916 38.834 20.2196 37.832 20.2196 36.464C20.2196 35.108 19.9916 34.118 19.5356 33.494C19.0916 32.858 18.3776 32.54 17.3936 32.54C16.4096 32.54 15.6896 32.858 15.2336 33.494C14.7896 34.118 14.5676 35.108 14.5676 36.464C14.5676 37.832 14.7896 38.834 15.2336 39.47C15.6896 40.094 16.4096 40.406 17.3936 40.406ZM28.5355 41V32.774H27.1675V32L28.5355 31.946V29.912C28.5355 29.024 28.7515 28.346 29.1835 27.878C29.6275 27.398 30.2695 27.158 31.1095 27.158C31.5655 27.158 32.0275 27.242 32.4955 27.41V28.202C32.0635 28.07 31.6495 28.004 31.2535 28.004C30.6895 28.004 30.2755 28.154 30.0115 28.454C29.7475 28.742 29.6155 29.198 29.6155 29.822V31.946H32.0455V32.774H29.6155V41H28.5355ZM40.2453 40.676C39.4173 41.072 38.5293 41.27 37.5813 41.27C36.2013 41.27 35.1393 40.862 34.3953 40.046C33.6513 39.23 33.2793 38.06 33.2793 36.536C33.2793 35.024 33.6273 33.836 34.3233 32.972C35.0193 32.108 35.9733 31.676 37.1853 31.676C38.2533 31.676 39.0933 32.012 39.7053 32.684C40.3293 33.344 40.6413 34.25 40.6413 35.402C40.6413 35.834 40.6053 36.248 40.5333 36.644H34.3413C34.3533 39.152 35.4633 40.406 37.6713 40.406C38.5593 40.406 39.4173 40.214 40.2453 39.83V40.676ZM37.1673 32.522C36.3513 32.522 35.6853 32.822 35.1693 33.422C34.6533 34.022 34.3773 34.826 34.3413 35.834H39.5973C39.6213 35.642 39.6333 35.474 39.6333 35.33C39.6333 34.442 39.4173 33.752 38.9853 33.26C38.5533 32.768 37.9473 32.522 37.1673 32.522ZM49.4211 40.676C48.5931 41.072 47.7051 41.27 46.7571 41.27C45.3771 41.27 44.3151 40.862 43.5711 40.046C42.8271 39.23 42.4551 38.06 42.4551 36.536C42.4551 35.024 42.8031 33.836 43.4991 32.972C44.1951 32.108 45.1491 31.676 46.3611 31.676C47.4291 31.676 48.2691 32.012 48.8811 32.684C49.5051 33.344 49.8171 34.25 49.8171 35.402C49.8171 35.834 49.7811 36.248 49.7091 36.644H43.5171C43.5291 39.152 44.6391 40.406 46.8471 40.406C47.7351 40.406 48.5931 40.214 49.4211 39.83V40.676ZM46.3431 32.522C45.5271 32.522 44.8611 32.822 44.3451 33.422C43.8291 34.022 43.5531 34.826 43.5171 35.834H48.7731C48.7971 35.642 48.8091 35.474 48.8091 35.33C48.8091 34.442 48.5931 33.752 48.1611 33.26C47.7291 32.768 47.1231 32.522 46.3431 32.522ZM51.5229 39.812C52.4229 40.208 53.3529 40.406 54.3129 40.406C55.9329 40.406 56.7429 39.776 56.7429 38.516C56.7429 38.108 56.6229 37.778 56.3829 37.526C56.1549 37.274 55.7709 37.064 55.2309 36.896L53.8629 36.464C53.0949 36.224 52.5369 35.924 52.1889 35.564C51.8409 35.192 51.6669 34.724 51.6669 34.16C51.6669 33.404 51.9609 32.804 52.5489 32.36C53.1489 31.904 53.9529 31.676 54.9609 31.676C55.8129 31.676 56.6229 31.838 57.3909 32.162V33.008C56.5869 32.696 55.7949 32.54 55.0149 32.54C54.3069 32.54 53.7489 32.684 53.3409 32.972C52.9449 33.248 52.7469 33.632 52.7469 34.124C52.7469 34.472 52.8549 34.754 53.0709 34.97C53.2989 35.174 53.7009 35.372 54.2769 35.564L55.6989 36.032C56.4309 36.272 56.9649 36.59 57.3009 36.986C57.6489 37.382 57.8229 37.886 57.8229 38.498C57.8229 39.386 57.5229 40.07 56.9229 40.55C56.3229 41.03 55.4769 41.27 54.3849 41.27C53.3769 41.27 52.4709 41.084 51.6669 40.712L51.5229 39.812ZM68.0186 41.27C66.7106 41.27 65.7206 40.868 65.0486 40.064C64.3886 39.248 64.0586 38.048 64.0586 36.464C64.0586 34.892 64.3886 33.704 65.0486 32.9C65.7206 32.084 66.7106 31.676 68.0186 31.676C69.3266 31.676 70.3106 32.084 70.9706 32.9C71.6426 33.704 71.9786 34.892 71.9786 36.464C71.9786 38.048 71.6426 39.248 70.9706 40.064C70.3106 40.868 69.3266 41.27 68.0186 41.27ZM68.0186 40.406C69.0026 40.406 69.7166 40.094 70.1606 39.47C70.6166 38.834 70.8446 37.832 70.8446 36.464C70.8446 35.108 70.6166 34.118 70.1606 33.494C69.7166 32.858 69.0026 32.54 68.0186 32.54C67.0346 32.54 66.3146 32.858 65.8586 33.494C65.4146 34.118 65.1926 35.108 65.1926 36.464C65.1926 37.832 65.4146 38.834 65.8586 39.47C66.3146 40.094 67.0346 40.406 68.0186 40.406ZM74.4085 41V32L75.3265 31.91L75.4165 32.72C76.2205 32.06 77.0785 31.73 77.9905 31.73C78.3145 31.73 78.5725 31.766 78.7645 31.838V32.72C78.4525 32.648 78.1765 32.612 77.9365 32.612C77.0845 32.612 76.2685 32.918 75.4885 33.53V41H74.4085ZM95.932 41V34.574C95.932 33.218 95.29 32.54 94.006 32.54C93.262 32.54 92.41 32.81 91.45 33.35C91.546 33.674 91.594 34.022 91.594 34.394V41H90.514V34.574C90.514 33.218 89.872 32.54 88.588 32.54C87.868 32.54 87.064 32.786 86.176 33.278V41H85.096V32L86.014 31.91L86.086 32.54C87.106 31.964 88.03 31.676 88.858 31.676C89.914 31.676 90.676 32.024 91.144 32.72C92.308 32.024 93.352 31.676 94.276 31.676C95.152 31.676 95.824 31.91 96.292 32.378C96.772 32.846 97.012 33.518 97.012 34.394V41H95.932ZM99.9143 41V32.036L100.994 31.892V41H99.9143ZM100.454 29.75C100.214 29.75 100.016 29.678 99.8603 29.534C99.7163 29.39 99.6443 29.192 99.6443 28.94C99.6443 28.688 99.7163 28.49 99.8603 28.346C100.016 28.202 100.214 28.13 100.454 28.13C100.694 28.13 100.886 28.202 101.03 28.346C101.186 28.49 101.264 28.688 101.264 28.94C101.264 29.192 101.186 29.39 101.03 29.534C100.886 29.678 100.694 29.75 100.454 29.75ZM110.04 41V34.754C110.04 33.278 109.29 32.54 107.79 32.54C107.394 32.54 106.956 32.606 106.476 32.738C106.008 32.87 105.546 33.05 105.09 33.278V41H104.01V32L104.928 31.91L105 32.54C106.044 31.964 107.064 31.676 108.06 31.676C109.032 31.676 109.782 31.928 110.31 32.432C110.85 32.936 111.12 33.65 111.12 34.574V41H110.04ZM114.012 41V32.036L115.092 31.892V41H114.012ZM114.552 29.75C114.312 29.75 114.114 29.678 113.958 29.534C113.814 29.39 113.742 29.192 113.742 28.94C113.742 28.688 113.814 28.49 113.958 28.346C114.114 28.202 114.312 28.13 114.552 28.13C114.792 28.13 114.984 28.202 115.128 28.346C115.284 28.49 115.362 28.688 115.362 28.94C115.362 29.192 115.284 29.39 115.128 29.534C114.984 29.678 114.792 29.75 114.552 29.75ZM128.944 41V34.574C128.944 33.218 128.302 32.54 127.018 32.54C126.274 32.54 125.422 32.81 124.462 33.35C124.558 33.674 124.606 34.022 124.606 34.394V41H123.526V34.574C123.526 33.218 122.884 32.54 121.6 32.54C120.88 32.54 120.076 32.786 119.188 33.278V41H118.108V32L119.026 31.91L119.098 32.54C120.118 31.964 121.042 31.676 121.87 31.676C122.926 31.676 123.688 32.024 124.156 32.72C125.32 32.024 126.364 31.676 127.288 31.676C128.164 31.676 128.836 31.91 129.304 32.378C129.784 32.846 130.024 33.518 130.024 34.394V41H128.944ZM133.88 31.946V38.192C133.88 39.668 134.606 40.406 136.058 40.406C136.454 40.406 136.886 40.34 137.354 40.208C137.834 40.076 138.302 39.896 138.758 39.668V31.946H139.838V40.946L138.92 41.036L138.848 40.406C137.804 40.982 136.784 41.27 135.788 41.27C134.84 41.27 134.102 41.018 133.574 40.514C133.058 39.998 132.8 39.284 132.8 38.372V31.946H133.88ZM153.694 41V34.574C153.694 33.218 153.052 32.54 151.768 32.54C151.024 32.54 150.172 32.81 149.212 33.35C149.308 33.674 149.356 34.022 149.356 34.394V41H148.276V34.574C148.276 33.218 147.634 32.54 146.35 32.54C145.63 32.54 144.826 32.786 143.938 33.278V41H142.858V32L143.776 31.91L143.848 32.54C144.868 31.964 145.792 31.676 146.62 31.676C147.676 31.676 148.438 32.024 148.906 32.72C150.07 32.024 151.114 31.676 152.038 31.676C152.914 31.676 153.586 31.91 154.054 32.378C154.534 32.846 154.774 33.518 154.774 34.394V41H153.694ZM156.974 39.812C157.874 40.208 158.804 40.406 159.764 40.406C161.384 40.406 162.194 39.776 162.194 38.516C162.194 38.108 162.074 37.778 161.834 37.526C161.606 37.274 161.222 37.064 160.682 36.896L159.314 36.464C158.546 36.224 157.988 35.924 157.64 35.564C157.292 35.192 157.118 34.724 157.118 34.16C157.118 33.404 157.412 32.804 158 32.36C158.6 31.904 159.404 31.676 160.412 31.676C161.264 31.676 162.074 31.838 162.842 32.162V33.008C162.038 32.696 161.246 32.54 160.466 32.54C159.758 32.54 159.2 32.684 158.792 32.972C158.396 33.248 158.198 33.632 158.198 34.124C158.198 34.472 158.306 34.754 158.522 34.97C158.75 35.174 159.152 35.372 159.728 35.564L161.15 36.032C161.882 36.272 162.416 36.59 162.752 36.986C163.1 37.382 163.274 37.886 163.274 38.498C163.274 39.386 162.974 40.07 162.374 40.55C161.774 41.03 160.928 41.27 159.836 41.27C158.828 41.27 157.922 41.084 157.118 40.712L156.974 39.812ZM173.47 41.27C172.162 41.27 171.172 40.868 170.5 40.064C169.84 39.248 169.51 38.048 169.51 36.464C169.51 34.892 169.84 33.704 170.5 32.9C171.172 32.084 172.162 31.676 173.47 31.676C174.778 31.676 175.762 32.084 176.422 32.9C177.094 33.704 177.43 34.892 177.43 36.464C177.43 38.048 177.094 39.248 176.422 40.064C175.762 40.868 174.778 41.27 173.47 41.27ZM173.47 40.406C174.454 40.406 175.168 40.094 175.612 39.47C176.068 38.834 176.296 37.832 176.296 36.464C176.296 35.108 176.068 34.118 175.612 33.494C175.168 32.858 174.454 32.54 173.47 32.54C172.486 32.54 171.766 32.858 171.31 33.494C170.866 34.118 170.644 35.108 170.644 36.464C170.644 37.832 170.866 38.834 171.31 39.47C171.766 40.094 172.486 40.406 173.47 40.406ZM185.89 41V34.754C185.89 33.278 185.14 32.54 183.64 32.54C183.244 32.54 182.806 32.606 182.326 32.738C181.858 32.87 181.396 33.05 180.94 33.278V41H179.86V32L180.778 31.91L180.85 32.54C181.894 31.964 182.914 31.676 183.91 31.676C184.882 31.676 185.632 31.928 186.16 32.432C186.7 32.936 186.97 33.65 186.97 34.574V41H185.89ZM7.488 64.676C6.696 65.072 5.832 65.27 4.896 65.27C3.624 65.27 2.64 64.856 1.944 64.028C1.26 63.2 0.918 62.018 0.918 60.482C0.918 58.946 1.26 57.764 1.944 56.936C2.64 56.096 3.624 55.676 4.896 55.676C5.796 55.676 6.648 55.874 7.452 56.27V57.116C6.612 56.744 5.796 56.558 5.004 56.558C4.032 56.558 3.294 56.888 2.79 57.548C2.298 58.208 2.052 59.186 2.052 60.482C2.052 61.766 2.298 62.738 2.79 63.398C3.294 64.058 4.032 64.388 5.004 64.388C5.82 64.388 6.648 64.202 7.488 63.83V64.676ZM9.80888 65V51.482L10.8889 51.338V56.504C11.8969 55.952 12.8869 55.676 13.8589 55.676C14.8309 55.676 15.5809 55.928 16.1089 56.432C16.6489 56.936 16.9189 57.65 16.9189 58.574V65H15.8389V58.754C15.8389 57.278 15.0889 56.54 13.5889 56.54C13.1929 56.54 12.7549 56.606 12.2749 56.738C11.8069 56.87 11.3449 57.05 10.8889 57.278V65H9.80888ZM26.1828 64.676C25.3548 65.072 24.4668 65.27 23.5188 65.27C22.1388 65.27 21.0768 64.862 20.3328 64.046C19.5888 63.23 19.2168 62.06 19.2168 60.536C19.2168 59.024 19.5648 57.836 20.2608 56.972C20.9568 56.108 21.9108 55.676 23.1228 55.676C24.1908 55.676 25.0308 56.012 25.6428 56.684C26.2668 57.344 26.5788 58.25 26.5788 59.402C26.5788 59.834 26.5428 60.248 26.4708 60.644H20.2788C20.2908 63.152 21.4008 64.406 23.6088 64.406C24.4968 64.406 25.3548 64.214 26.1828 63.83V64.676ZM23.1048 56.522C22.2888 56.522 21.6228 56.822 21.1068 57.422C20.5908 58.022 20.3148 58.826 20.2788 59.834H25.5348C25.5588 59.642 25.5708 59.474 25.5708 59.33C25.5708 58.442 25.3548 57.752 24.9228 57.26C24.4908 56.768 23.8848 56.522 23.1048 56.522ZM34.9626 64.676C34.1706 65.072 33.3066 65.27 32.3706 65.27C31.0986 65.27 30.1146 64.856 29.4186 64.028C28.7346 63.2 28.3926 62.018 28.3926 60.482C28.3926 58.946 28.7346 57.764 29.4186 56.936C30.1146 56.096 31.0986 55.676 32.3706 55.676C33.2706 55.676 34.1226 55.874 34.9266 56.27V57.116C34.0866 56.744 33.2706 56.558 32.4786 56.558C31.5066 56.558 30.7686 56.888 30.2646 57.548C29.7726 58.208 29.5266 59.186 29.5266 60.482C29.5266 61.766 29.7726 62.738 30.2646 63.398C30.7686 64.058 31.5066 64.388 32.4786 64.388C33.2946 64.388 34.1226 64.202 34.9626 63.83V64.676ZM37.2835 65V51.482L38.3635 51.338V59.96L42.6115 55.946H43.8895L39.4435 60.158L44.0335 65H42.6655L38.3635 60.428V65H37.2835ZM45.5628 65V56.036L46.6428 55.892V65H45.5628ZM46.1028 53.75C45.8628 53.75 45.6648 53.678 45.5088 53.534C45.3648 53.39 45.2928 53.192 45.2928 52.94C45.2928 52.688 45.3648 52.49 45.5088 52.346C45.6648 52.202 45.8628 52.13 46.1028 52.13C46.3428 52.13 46.5348 52.202 46.6788 52.346C46.8348 52.49 46.9128 52.688 46.9128 52.94C46.9128 53.192 46.8348 53.39 46.6788 53.534C46.5348 53.678 46.3428 53.75 46.1028 53.75ZM55.6885 65V58.754C55.6885 57.278 54.9385 56.54 53.4385 56.54C53.0425 56.54 52.6045 56.606 52.1245 56.738C51.6565 56.87 51.1945 57.05 50.7385 57.278V65H49.6585V56L50.5765 55.91L50.6485 56.54C51.6925 55.964 52.7125 55.676 53.7085 55.676C54.6805 55.676 55.4305 55.928 55.9585 56.432C56.4985 56.936 56.7685 57.65 56.7685 58.574V65H55.6885ZM62.6124 69.194C61.5444 69.194 60.6384 69.008 59.8944 68.636L59.7504 67.718C60.7344 68.126 61.6704 68.33 62.5584 68.33C64.5624 68.33 65.5644 67.4 65.5644 65.54V64.298C65.1084 64.55 64.6404 64.748 64.1604 64.892C63.6924 65.036 63.2544 65.108 62.8464 65.108C61.6704 65.108 60.7464 64.712 60.0744 63.92C59.4024 63.128 59.0664 62.03 59.0664 60.626C59.0664 59.03 59.4444 57.806 60.2004 56.954C60.9684 56.102 62.0724 55.676 63.5124 55.676C64.6044 55.676 65.6484 55.868 66.6444 56.252V65.45C66.6444 66.65 66.2964 67.574 65.6004 68.222C64.9044 68.87 63.9084 69.194 62.6124 69.194ZM62.9904 64.244C63.3864 64.244 63.8124 64.178 64.2684 64.046C64.7244 63.914 65.1564 63.734 65.5644 63.506V56.828C64.9404 56.636 64.2864 56.54 63.6024 56.54C62.4504 56.54 61.5924 56.876 61.0284 57.548C60.4764 58.208 60.2004 59.228 60.2004 60.608C60.2004 61.796 60.4344 62.702 60.9024 63.326C61.3824 63.938 62.0784 64.244 62.9904 64.244ZM79.7064 65.036L79.6344 64.406C78.6024 64.982 77.5824 65.27 76.5744 65.27C75.6504 65.27 74.9184 65.03 74.3784 64.55C73.8384 64.058 73.5684 63.386 73.5684 62.534C73.5684 61.634 73.8684 60.95 74.4684 60.482C75.0804 60.002 75.9744 59.762 77.1504 59.762C77.8584 59.762 78.6624 59.846 79.5624 60.014V58.79C79.5624 57.29 78.7164 56.54 77.0244 56.54C76.5804 56.54 76.0944 56.6 75.5664 56.72C75.0384 56.84 74.5524 56.996 74.1084 57.188V56.342C74.5404 56.138 75.0324 55.976 75.5844 55.856C76.1484 55.736 76.6824 55.676 77.1864 55.676C78.3144 55.676 79.1664 55.946 79.7424 56.486C80.3304 57.014 80.6244 57.782 80.6244 58.79V64.946L79.7064 65.036ZM76.8264 64.406C77.2584 64.406 77.7144 64.34 78.1944 64.208C78.6744 64.076 79.1304 63.896 79.5624 63.668V60.788C78.8064 60.644 78.0624 60.572 77.3304 60.572C76.4064 60.572 75.7344 60.728 75.3144 61.04C74.8944 61.352 74.6844 61.844 74.6844 62.516C74.6844 63.776 75.3984 64.406 76.8264 64.406ZM89.49 64.676C88.698 65.072 87.834 65.27 86.898 65.27C85.626 65.27 84.642 64.856 83.946 64.028C83.262 63.2 82.92 62.018 82.92 60.482C82.92 58.946 83.262 57.764 83.946 56.936C84.642 56.096 85.626 55.676 86.898 55.676C87.798 55.676 88.65 55.874 89.454 56.27V57.116C88.614 56.744 87.798 56.558 87.006 56.558C86.034 56.558 85.296 56.888 84.792 57.548C84.3 58.208 84.054 59.186 84.054 60.482C84.054 61.766 84.3 62.738 84.792 63.398C85.296 64.058 86.034 64.388 87.006 64.388C87.822 64.388 88.65 64.202 89.49 63.83V64.676ZM97.611 64.676C96.819 65.072 95.955 65.27 95.019 65.27C93.747 65.27 92.763 64.856 92.067 64.028C91.383 63.2 91.041 62.018 91.041 60.482C91.041 58.946 91.383 57.764 92.067 56.936C92.763 56.096 93.747 55.676 95.019 55.676C95.919 55.676 96.771 55.874 97.575 56.27V57.116C96.735 56.744 95.919 56.558 95.127 56.558C94.155 56.558 93.417 56.888 92.913 57.548C92.421 58.208 92.175 59.186 92.175 60.482C92.175 61.766 92.421 62.738 92.913 63.398C93.417 64.058 94.155 64.388 95.127 64.388C95.943 64.388 96.771 64.202 97.611 63.83V64.676ZM103.122 65.27C101.814 65.27 100.824 64.868 100.152 64.064C99.4921 63.248 99.1621 62.048 99.1621 60.464C99.1621 58.892 99.4921 57.704 100.152 56.9C100.824 56.084 101.814 55.676 103.122 55.676C104.43 55.676 105.414 56.084 106.074 56.9C106.746 57.704 107.082 58.892 107.082 60.464C107.082 62.048 106.746 63.248 106.074 64.064C105.414 64.868 104.43 65.27 103.122 65.27ZM103.122 64.406C104.106 64.406 104.82 64.094 105.264 63.47C105.72 62.834 105.948 61.832 105.948 60.464C105.948 59.108 105.72 58.118 105.264 57.494C104.82 56.858 104.106 56.54 103.122 56.54C102.138 56.54 101.418 56.858 100.962 57.494C100.518 58.118 100.296 59.108 100.296 60.464C100.296 61.832 100.518 62.834 100.962 63.47C101.418 64.094 102.138 64.406 103.122 64.406ZM110.466 55.946V62.192C110.466 63.668 111.192 64.406 112.644 64.406C113.04 64.406 113.472 64.34 113.94 64.208C114.42 64.076 114.888 63.896 115.344 63.668V55.946H116.424V64.946L115.506 65.036L115.434 64.406C114.39 64.982 113.37 65.27 112.374 65.27C111.426 65.27 110.688 65.018 110.16 64.514C109.644 63.998 109.386 63.284 109.386 62.372V55.946H110.466ZM125.474 65V58.754C125.474 57.278 124.724 56.54 123.224 56.54C122.828 56.54 122.39 56.606 121.91 56.738C121.442 56.87 120.98 57.05 120.524 57.278V65H119.444V56L120.362 55.91L120.434 56.54C121.478 55.964 122.498 55.676 123.494 55.676C124.466 55.676 125.216 55.928 125.744 56.432C126.284 56.936 126.554 57.65 126.554 58.574V65H125.474ZM130.778 56.774V62.534C130.778 63.158 130.91 63.62 131.174 63.92C131.438 64.208 131.846 64.352 132.398 64.352C132.758 64.352 133.166 64.286 133.622 64.154V64.946C133.118 65.114 132.656 65.198 132.236 65.198C131.408 65.198 130.778 64.976 130.346 64.532C129.914 64.076 129.698 63.404 129.698 62.516V56.774H128.33V56L129.734 55.946L129.842 53.678L130.778 53.57V55.946H133.496V56.774H130.778ZM134.79 63.812C135.69 64.208 136.62 64.406 137.58 64.406C139.2 64.406 140.01 63.776 140.01 62.516C140.01 62.108 139.89 61.778 139.65 61.526C139.422 61.274 139.038 61.064 138.498 60.896L137.13 60.464C136.362 60.224 135.804 59.924 135.456 59.564C135.108 59.192 134.934 58.724 134.934 58.16C134.934 57.404 135.228 56.804 135.816 56.36C136.416 55.904 137.22 55.676 138.228 55.676C139.08 55.676 139.89 55.838 140.658 56.162V57.008C139.854 56.696 139.062 56.54 138.282 56.54C137.574 56.54 137.016 56.684 136.608 56.972C136.212 57.248 136.014 57.632 136.014 58.124C136.014 58.472 136.122 58.754 136.338 58.97C136.566 59.174 136.968 59.372 137.544 59.564L138.966 60.032C139.698 60.272 140.232 60.59 140.568 60.986C140.916 61.382 141.09 61.886 141.09 62.498C141.09 63.386 140.79 64.07 140.19 64.55C139.59 65.03 138.744 65.27 137.652 65.27C136.644 65.27 135.738 65.084 134.934 64.712L134.79 63.812ZM143.762 65.09C143.522 65.09 143.324 65.018 143.168 64.874C143.012 64.718 142.934 64.514 142.934 64.262C142.934 64.01 143.012 63.812 143.168 63.668C143.324 63.512 143.522 63.434 143.762 63.434C144.002 63.434 144.2 63.512 144.356 63.668C144.512 63.812 144.59 64.01 144.59 64.262C144.59 64.514 144.512 64.718 144.356 64.874C144.2 65.018 144.002 65.09 143.762 65.09Z" fill="#013D5B"/>
</g>
<defs>
<clipPath id="clip0_11090_3601">
<rect width="197" height="23" fill="white"/>
</clipPath>
</defs>
</svg>
