<svg width="312" height="48" viewBox="0 0 312 48" fill="none" xmlns="http://www.w3.org/2000/svg">
<path d="M-3.44589e-06 18.279C1.89 19.107 3.681 19.521 5.373 19.521C6.975 19.521 8.208 19.17 9.072 18.468C9.954 17.748 10.395 16.722 10.395 15.39C10.395 14.382 10.107 13.572 9.531 12.96C8.955 12.348 7.992 11.835 6.642 11.421L4.725 10.827C3.249 10.377 2.169 9.792 1.485 9.072C0.800997 8.334 0.458997 7.398 0.458997 6.264C0.458997 4.734 1.035 3.51 2.187 2.592C3.357 1.656 4.914 1.188 6.858 1.188C8.424 1.188 9.936 1.521 11.394 2.187V3.537C9.846 2.889 8.352 2.565 6.912 2.565C5.436 2.565 4.284 2.889 3.456 3.537C2.628 4.167 2.214 5.058 2.214 6.21C2.214 7.02 2.448 7.659 2.916 8.127C3.384 8.595 4.203 9.018 5.373 9.396L7.29 10.017C9.018 10.575 10.26 11.277 11.016 12.123C11.772 12.951 12.15 14.031 12.15 15.363C12.15 17.073 11.547 18.423 10.341 19.413C9.153 20.403 7.524 20.898 5.454 20.898C3.546 20.898 1.818 20.511 0.269996 19.737L-3.44589e-06 18.279ZM24.6533 20.493V11.124C24.6533 8.91 23.5283 7.803 21.2783 7.803C20.6843 7.803 20.0273 7.902 19.3073 8.1C18.6053 8.298 17.9123 8.568 17.2283 8.91V20.493H15.6083V6.993L16.9853 6.858L17.0933 7.803C18.6593 6.939 20.1893 6.507 21.6833 6.507C23.1413 6.507 24.2663 6.885 25.0583 7.641C25.8683 8.397 26.2733 9.468 26.2733 10.854V20.493H24.6533ZM38.9272 20.547L38.8192 19.602C37.2712 20.466 35.7412 20.898 34.2292 20.898C32.8432 20.898 31.7452 20.538 30.9352 19.818C30.1252 19.08 29.7202 18.072 29.7202 16.794C29.7202 15.444 30.1702 14.418 31.0702 13.716C31.9882 12.996 33.3292 12.636 35.0932 12.636C36.1552 12.636 37.3612 12.762 38.7112 13.014V11.178C38.7112 8.928 37.4422 7.803 34.9042 7.803C34.2382 7.803 33.5092 7.893 32.7172 8.073C31.9252 8.253 31.1962 8.487 30.5302 8.775V7.506C31.1782 7.2 31.9162 6.957 32.7442 6.777C33.5902 6.597 34.3912 6.507 35.1472 6.507C36.8392 6.507 38.1172 6.912 38.9812 7.722C39.8632 8.514 40.3042 9.666 40.3042 11.178V20.412L38.9272 20.547ZM34.6072 19.602C35.2552 19.602 35.9392 19.503 36.6592 19.305C37.3792 19.107 38.0632 18.837 38.7112 18.495V14.175C37.5772 13.959 36.4612 13.851 35.3632 13.851C33.9772 13.851 32.9692 14.085 32.3392 14.553C31.7092 15.021 31.3942 15.759 31.3942 16.767C31.3942 18.657 32.4652 19.602 34.6072 19.602ZM49.0666 26.784C47.4646 26.784 46.1056 26.505 44.9896 25.947L44.7736 24.57C46.2496 25.182 47.6536 25.488 48.9856 25.488C51.9916 25.488 53.4946 24.093 53.4946 21.303V19.44C52.8106 19.818 52.1086 20.115 51.3886 20.331C50.6866 20.547 50.0296 20.655 49.4176 20.655C47.6536 20.655 46.2676 20.061 45.2596 18.873C44.2516 17.685 43.7476 16.038 43.7476 13.932C43.7476 11.538 44.3146 9.702 45.4486 8.424C46.6006 7.146 48.2566 6.507 50.4166 6.507C52.0546 6.507 53.6206 6.795 55.1146 7.371V21.168C55.1146 22.968 54.5926 24.354 53.5486 25.326C52.5046 26.298 51.0106 26.784 49.0666 26.784ZM49.6336 19.359C50.2276 19.359 50.8666 19.26 51.5506 19.062C52.2346 18.864 52.8826 18.594 53.4946 18.252V8.235C52.5586 7.947 51.5776 7.803 50.5516 7.803C48.8236 7.803 47.5366 8.307 46.6906 9.315C45.8626 10.305 45.4486 11.835 45.4486 13.905C45.4486 15.687 45.7996 17.046 46.5016 17.982C47.2216 18.9 48.2656 19.359 49.6336 19.359ZM64.5825 18.441C66.1665 19.215 67.7955 19.602 69.4695 19.602C70.9815 19.602 72.1875 19.233 73.0875 18.495C73.9875 17.757 74.4375 16.758 74.4375 15.498C74.4375 14.274 74.0145 13.293 73.1685 12.555C72.3225 11.817 71.1795 11.448 69.7395 11.448H68.1465V10.152H69.6855C70.9815 10.152 72.0075 9.828 72.7635 9.18C73.5195 8.532 73.8975 7.659 73.8975 6.561C73.8975 5.409 73.5105 4.509 72.7365 3.861C71.9625 3.213 70.8915 2.889 69.5235 2.889C68.0835 2.889 66.6705 3.186 65.2845 3.78V2.484C66.5805 1.89 68.0385 1.593 69.6585 1.593C71.4045 1.593 72.8265 2.052 73.9245 2.97C75.0405 3.87 75.5985 5.031 75.5985 6.453C75.5985 7.497 75.2925 8.397 74.6805 9.153C74.0865 9.909 73.2495 10.449 72.1695 10.773C73.4115 11.079 74.3835 11.664 75.0855 12.528C75.7875 13.374 76.1385 14.382 76.1385 15.552C76.1385 16.614 75.8505 17.559 75.2745 18.387C74.7165 19.197 73.9425 19.818 72.9525 20.25C71.9805 20.682 70.8735 20.898 69.6315 20.898C68.7675 20.898 67.9035 20.799 67.0395 20.601C66.1755 20.421 65.4375 20.169 64.8255 19.845L64.5825 18.441ZM84.3195 20.493L94.0935 1.998H95.5515L85.7775 20.493H84.3195ZM83.0235 12.636C83.9775 12.636 84.6795 12.24 85.1295 11.448C85.5975 10.656 85.8315 9.414 85.8315 7.722C85.8315 6.03 85.5975 4.788 85.1295 3.996C84.6795 3.204 83.9775 2.808 83.0235 2.808C82.0695 2.808 81.3585 3.204 80.8905 3.996C80.4405 4.788 80.2155 6.03 80.2155 7.722C80.2155 9.414 80.4405 10.656 80.8905 11.448C81.3585 12.24 82.0695 12.636 83.0235 12.636ZM83.0235 13.716C81.6375 13.716 80.5755 13.212 79.8375 12.204C79.0995 11.178 78.7305 9.684 78.7305 7.722C78.7305 5.76 79.0995 4.275 79.8375 3.267C80.5755 2.241 81.6375 1.728 83.0235 1.728C84.4095 1.728 85.4715 2.241 86.2095 3.267C86.9475 4.275 87.3165 5.76 87.3165 7.722C87.3165 9.684 86.9475 11.178 86.2095 12.204C85.4715 13.212 84.4095 13.716 83.0235 13.716ZM96.8475 19.683C97.8015 19.683 98.5035 19.287 98.9535 18.495C99.4215 17.703 99.6555 16.461 99.6555 14.769C99.6555 13.077 99.4215 11.835 98.9535 11.043C98.5035 10.251 97.8015 9.855 96.8475 9.855C95.8935 9.855 95.1825 10.251 94.7145 11.043C94.2645 11.835 94.0395 13.077 94.0395 14.769C94.0395 16.461 94.2645 17.703 94.7145 18.495C95.1825 19.287 95.8935 19.683 96.8475 19.683ZM96.8475 20.763C95.4615 20.763 94.3995 20.259 93.6615 19.251C92.9235 18.225 92.5545 16.731 92.5545 14.769C92.5545 12.807 92.9235 11.322 93.6615 10.314C94.3995 9.288 95.4615 8.775 96.8475 8.775C98.2335 8.775 99.2955 9.288 100.034 10.314C100.772 11.322 101.141 12.807 101.141 14.769C101.141 16.731 100.772 18.225 100.034 19.251C99.2955 20.259 98.2335 20.763 96.8475 20.763ZM120.232 20.007C119.044 20.601 117.748 20.898 116.344 20.898C114.436 20.898 112.96 20.277 111.916 19.035C110.89 17.793 110.377 16.02 110.377 13.716C110.377 11.412 110.89 9.639 111.916 8.397C112.96 7.137 114.436 6.507 116.344 6.507C117.694 6.507 118.972 6.804 120.178 7.398V8.667C118.918 8.109 117.694 7.83 116.506 7.83C115.048 7.83 113.941 8.325 113.185 9.315C112.447 10.305 112.078 11.772 112.078 13.716C112.078 15.642 112.447 17.1 113.185 18.09C113.941 19.08 115.048 19.575 116.506 19.575C117.73 19.575 118.972 19.296 120.232 18.738V20.007ZM132.03 20.547L131.922 19.602C130.374 20.466 128.844 20.898 127.332 20.898C125.946 20.898 124.848 20.538 124.038 19.818C123.228 19.08 122.823 18.072 122.823 16.794C122.823 15.444 123.273 14.418 124.173 13.716C125.091 12.996 126.432 12.636 128.196 12.636C129.258 12.636 130.464 12.762 131.814 13.014V11.178C131.814 8.928 130.545 7.803 128.007 7.803C127.341 7.803 126.612 7.893 125.82 8.073C125.028 8.253 124.299 8.487 123.633 8.775V7.506C124.281 7.2 125.019 6.957 125.847 6.777C126.693 6.597 127.494 6.507 128.25 6.507C129.942 6.507 131.22 6.912 132.084 7.722C132.966 8.514 133.407 9.666 133.407 11.178V20.412L132.03 20.547ZM127.71 19.602C128.358 19.602 129.042 19.503 129.762 19.305C130.482 19.107 131.166 18.837 131.814 18.495V14.175C130.68 13.959 129.564 13.851 128.466 13.851C127.08 13.851 126.072 14.085 125.442 14.553C124.812 15.021 124.497 15.759 124.497 16.767C124.497 18.657 125.568 19.602 127.71 19.602ZM136.688 18.711C138.038 19.305 139.433 19.602 140.873 19.602C143.303 19.602 144.518 18.657 144.518 16.767C144.518 16.155 144.338 15.66 143.978 15.282C143.636 14.904 143.06 14.589 142.25 14.337L140.198 13.689C139.046 13.329 138.209 12.879 137.687 12.339C137.165 11.781 136.904 11.079 136.904 10.233C136.904 9.099 137.345 8.199 138.227 7.533C139.127 6.849 140.333 6.507 141.845 6.507C143.123 6.507 144.338 6.75 145.49 7.236V8.505C144.284 8.037 143.096 7.803 141.926 7.803C140.864 7.803 140.027 8.019 139.415 8.451C138.821 8.865 138.524 9.441 138.524 10.179C138.524 10.701 138.686 11.124 139.01 11.448C139.352 11.754 139.955 12.051 140.819 12.339L142.952 13.041C144.05 13.401 144.851 13.878 145.355 14.472C145.877 15.066 146.138 15.822 146.138 16.74C146.138 18.072 145.688 19.098 144.788 19.818C143.888 20.538 142.619 20.898 140.981 20.898C139.469 20.898 138.11 20.619 136.904 20.061L136.688 18.711ZM149.633 20.493V0.216001L151.253 2.38419e-07V7.749C152.765 6.921 154.25 6.507 155.708 6.507C157.166 6.507 158.291 6.885 159.083 7.641C159.893 8.397 160.298 9.468 160.298 10.854V20.493H158.678V11.124C158.678 8.91 157.553 7.803 155.303 7.803C154.709 7.803 154.052 7.902 153.332 8.1C152.63 8.298 151.937 8.568 151.253 8.91V20.493H149.633ZM173.006 7.722C173.69 7.344 174.383 7.047 175.085 6.831C175.805 6.615 176.471 6.507 177.083 6.507C178.847 6.507 180.233 7.128 181.241 8.37C182.249 9.594 182.753 11.295 182.753 13.473C182.753 15.867 182.177 17.703 181.025 18.981C179.891 20.259 178.244 20.898 176.084 20.898C174.554 20.898 172.988 20.646 171.386 20.142V0.216001L173.006 2.38419e-07V7.722ZM176.867 7.803C176.273 7.803 175.634 7.902 174.95 8.1C174.266 8.298 173.618 8.568 173.006 8.91V19.17C173.942 19.458 174.923 19.602 175.949 19.602C177.677 19.602 178.955 19.107 179.783 18.117C180.629 17.109 181.052 15.57 181.052 13.5C181.052 11.646 180.692 10.233 179.972 9.261C179.27 8.289 178.235 7.803 176.867 7.803ZM194.705 20.547L194.597 19.602C193.049 20.466 191.519 20.898 190.007 20.898C188.621 20.898 187.523 20.538 186.713 19.818C185.903 19.08 185.498 18.072 185.498 16.794C185.498 15.444 185.948 14.418 186.848 13.716C187.766 12.996 189.107 12.636 190.871 12.636C191.933 12.636 193.139 12.762 194.489 13.014V11.178C194.489 8.928 193.22 7.803 190.682 7.803C190.016 7.803 189.287 7.893 188.495 8.073C187.703 8.253 186.974 8.487 186.308 8.775V7.506C186.956 7.2 187.694 6.957 188.522 6.777C189.368 6.597 190.169 6.507 190.925 6.507C192.617 6.507 193.895 6.912 194.759 7.722C195.641 8.514 196.082 9.666 196.082 11.178V20.412L194.705 20.547ZM190.385 19.602C191.033 19.602 191.717 19.503 192.437 19.305C193.157 19.107 193.841 18.837 194.489 18.495V14.175C193.355 13.959 192.239 13.851 191.141 13.851C189.755 13.851 188.747 14.085 188.117 14.553C187.487 15.021 187.172 15.759 187.172 16.767C187.172 18.657 188.243 19.602 190.385 19.602ZM209.38 20.007C208.192 20.601 206.896 20.898 205.492 20.898C203.584 20.898 202.108 20.277 201.064 19.035C200.038 17.793 199.525 16.02 199.525 13.716C199.525 11.412 200.038 9.639 201.064 8.397C202.108 7.137 203.584 6.507 205.492 6.507C206.842 6.507 208.12 6.804 209.326 7.398V8.667C208.066 8.109 206.842 7.83 205.654 7.83C204.196 7.83 203.089 8.325 202.333 9.315C201.595 10.305 201.226 11.772 201.226 13.716C201.226 15.642 201.595 17.1 202.333 18.09C203.089 19.08 204.196 19.575 205.654 19.575C206.878 19.575 208.12 19.296 209.38 18.738V20.007ZM212.861 20.493V0.216001L214.481 2.38419e-07V12.933L220.853 6.912H222.77L216.101 13.23L222.986 20.493H220.934L214.481 13.635V20.493H212.861ZM6.129 47.898C4.167 47.898 2.682 47.295 1.674 46.089C0.683997 44.865 0.188997 43.065 0.188997 40.689C0.188997 38.331 0.683997 36.549 1.674 35.343C2.682 34.119 4.167 33.507 6.129 33.507C8.091 33.507 9.567 34.119 10.557 35.343C11.565 36.549 12.069 38.331 12.069 40.689C12.069 43.065 11.565 44.865 10.557 46.089C9.567 47.295 8.091 47.898 6.129 47.898ZM6.129 46.602C7.605 46.602 8.676 46.134 9.342 45.198C10.026 44.244 10.368 42.741 10.368 40.689C10.368 38.655 10.026 37.17 9.342 36.234C8.676 35.28 7.605 34.803 6.129 34.803C4.653 34.803 3.573 35.28 2.889 36.234C2.223 37.17 1.89 38.655 1.89 40.689C1.89 42.741 2.223 44.244 2.889 45.198C3.573 46.134 4.653 46.602 6.129 46.602ZM24.7588 47.493V38.124C24.7588 35.91 23.6338 34.803 21.3838 34.803C20.7898 34.803 20.1328 34.902 19.4128 35.1C18.7108 35.298 18.0178 35.568 17.3338 35.91V47.493H15.7138V33.993L17.0908 33.858L17.1988 34.803C18.7648 33.939 20.2948 33.507 21.7888 33.507C23.2468 33.507 24.3718 33.885 25.1638 34.641C25.9738 35.397 26.3788 36.468 26.3788 37.854V47.493H24.7588ZM37.8447 47.493V35.154H35.7927V33.993L37.8447 33.912V30.861C37.8447 29.529 38.1687 28.512 38.8167 27.81C39.4827 27.09 40.4457 26.73 41.7057 26.73C42.3897 26.73 43.0827 26.856 43.7847 27.108V28.296C43.1367 28.098 42.5157 27.999 41.9217 27.999C41.0757 27.999 40.4547 28.224 40.0587 28.674C39.6627 29.106 39.4647 29.79 39.4647 30.726V33.912H43.1097V35.154H39.4647V47.493H37.8447ZM50.9005 47.898C48.9385 47.898 47.4535 47.295 46.4455 46.089C45.4555 44.865 44.9605 43.065 44.9605 40.689C44.9605 38.331 45.4555 36.549 46.4455 35.343C47.4535 34.119 48.9385 33.507 50.9005 33.507C52.8625 33.507 54.3385 34.119 55.3285 35.343C56.3365 36.549 56.8405 38.331 56.8405 40.689C56.8405 43.065 56.3365 44.865 55.3285 46.089C54.3385 47.295 52.8625 47.898 50.9005 47.898ZM50.9005 46.602C52.3765 46.602 53.4475 46.134 54.1135 45.198C54.7975 44.244 55.1395 42.741 55.1395 40.689C55.1395 38.655 54.7975 37.17 54.1135 36.234C53.4475 35.28 52.3765 34.803 50.9005 34.803C49.4245 34.803 48.3445 35.28 47.6605 36.234C46.9945 37.17 46.6615 38.655 46.6615 40.689C46.6615 42.741 46.9945 44.244 47.6605 45.198C48.3445 46.134 49.4245 46.602 50.9005 46.602ZM65.5343 47.898C63.5723 47.898 62.0873 47.295 61.0793 46.089C60.0893 44.865 59.5943 43.065 59.5943 40.689C59.5943 38.331 60.0893 36.549 61.0793 35.343C62.0873 34.119 63.5723 33.507 65.5343 33.507C67.4963 33.507 68.9723 34.119 69.9623 35.343C70.9703 36.549 71.4743 38.331 71.4743 40.689C71.4743 43.065 70.9703 44.865 69.9623 46.089C68.9723 47.295 67.4963 47.898 65.5343 47.898ZM65.5343 46.602C67.0103 46.602 68.0813 46.134 68.7473 45.198C69.4313 44.244 69.7733 42.741 69.7733 40.689C69.7733 38.655 69.4313 37.17 68.7473 36.234C68.0813 35.28 67.0103 34.803 65.5343 34.803C64.0583 34.803 62.9783 35.28 62.2943 36.234C61.6283 37.17 61.2953 38.655 61.2953 40.689C61.2953 42.741 61.6283 44.244 62.2943 45.198C62.9783 46.134 64.0583 46.602 65.5343 46.602ZM85.5951 27V47.412L84.2181 47.547L84.1101 46.602C82.5801 47.466 81.1761 47.898 79.8981 47.898C78.1341 47.898 76.7481 47.286 75.7401 46.062C74.7321 44.82 74.2281 43.11 74.2281 40.932C74.2281 38.538 74.7951 36.702 75.9291 35.424C77.0811 34.146 78.7371 33.507 80.8971 33.507C82.0131 33.507 83.0391 33.651 83.9751 33.939V27.216L85.5951 27ZM80.1141 46.602C80.7081 46.602 81.3471 46.503 82.0311 46.305C82.7151 46.107 83.3631 45.837 83.9751 45.495V35.235C83.0391 34.947 82.0581 34.803 81.0321 34.803C79.3041 34.803 78.0171 35.307 77.1711 36.315C76.3431 37.305 75.9291 38.835 75.9291 40.905C75.9291 42.759 76.2801 44.172 76.9821 45.144C77.7021 46.116 78.7461 46.602 80.1141 46.602ZM105.188 47.547L105.08 46.602C103.532 47.466 102.002 47.898 100.49 47.898C99.104 47.898 98.006 47.538 97.196 46.818C96.386 46.08 95.981 45.072 95.981 43.794C95.981 42.444 96.431 41.418 97.331 40.716C98.249 39.996 99.59 39.636 101.354 39.636C102.416 39.636 103.622 39.762 104.972 40.014V38.178C104.972 35.928 103.703 34.803 101.165 34.803C100.499 34.803 99.77 34.893 98.978 35.073C98.186 35.253 97.457 35.487 96.791 35.775V34.506C97.439 34.2 98.177 33.957 99.005 33.777C99.851 33.597 100.652 33.507 101.408 33.507C103.1 33.507 104.378 33.912 105.242 34.722C106.124 35.514 106.565 36.666 106.565 38.178V47.412L105.188 47.547ZM100.868 46.602C101.516 46.602 102.2 46.503 102.92 46.305C103.64 46.107 104.324 45.837 104.972 45.495V41.175C103.838 40.959 102.722 40.851 101.624 40.851C100.238 40.851 99.23 41.085 98.6 41.553C97.97 42.021 97.655 42.759 97.655 43.767C97.655 45.657 98.726 46.602 100.868 46.602ZM119.944 47.493V38.124C119.944 35.91 118.819 34.803 116.569 34.803C115.975 34.803 115.318 34.902 114.598 35.1C113.896 35.298 113.203 35.568 112.519 35.91V47.493H110.899V33.993L112.276 33.858L112.384 34.803C113.95 33.939 115.48 33.507 116.974 33.507C118.432 33.507 119.557 33.885 120.349 34.641C121.159 35.397 121.564 36.468 121.564 37.854V47.493H119.944ZM136.378 27V47.412L135.001 47.547L134.893 46.602C133.363 47.466 131.959 47.898 130.681 47.898C128.917 47.898 127.531 47.286 126.523 46.062C125.515 44.82 125.011 43.11 125.011 40.932C125.011 38.538 125.578 36.702 126.712 35.424C127.864 34.146 129.52 33.507 131.68 33.507C132.796 33.507 133.822 33.651 134.758 33.939V27.216L136.378 27ZM130.897 46.602C131.491 46.602 132.13 46.503 132.814 46.305C133.498 46.107 134.146 45.837 134.758 45.495V35.235C133.822 34.947 132.841 34.803 131.815 34.803C130.087 34.803 128.8 35.307 127.954 36.315C127.126 37.305 126.712 38.835 126.712 40.905C126.712 42.759 127.063 44.172 127.765 45.144C128.485 46.116 129.529 46.602 130.897 46.602ZM148.033 47.493V35.154H145.981V33.993L148.033 33.912V30.861C148.033 29.529 148.357 28.512 149.005 27.81C149.671 27.09 150.634 26.73 151.894 26.73C152.578 26.73 153.271 26.856 153.973 27.108V28.296C153.325 28.098 152.704 27.999 152.11 27.999C151.264 27.999 150.643 28.224 150.247 28.674C149.851 29.106 149.653 29.79 149.653 30.726V33.912H153.298V35.154H149.653V47.493H148.033ZM157.735 33.912V43.281C157.735 45.495 158.824 46.602 161.002 46.602C161.596 46.602 162.244 46.503 162.946 46.305C163.666 46.107 164.368 45.837 165.052 45.495V33.912H166.672V47.412L165.295 47.547L165.187 46.602C163.621 47.466 162.091 47.898 160.597 47.898C159.175 47.898 158.068 47.52 157.276 46.764C156.502 45.99 156.115 44.919 156.115 43.551V33.912H157.735ZM180.246 47.493V38.124C180.246 35.91 179.121 34.803 176.871 34.803C176.277 34.803 175.62 34.902 174.9 35.1C174.198 35.298 173.505 35.568 172.821 35.91V47.493H171.201V33.993L172.578 33.858L172.686 34.803C174.252 33.939 175.782 33.507 177.276 33.507C178.734 33.507 179.859 33.885 180.651 34.641C181.461 35.397 181.866 36.468 181.866 37.854V47.493H180.246ZM204.024 47.493L200.379 35.721L196.842 47.493H195.303L190.983 33.912H192.63L196.086 45.495L199.488 33.912H201.297L204.753 45.576L208.182 33.912H209.748L205.563 47.493H204.024ZM212.308 47.493V34.047L213.928 33.831V47.493H212.308ZM213.118 30.618C212.758 30.618 212.461 30.51 212.227 30.294C212.011 30.078 211.903 29.781 211.903 29.403C211.903 29.025 212.011 28.728 212.227 28.512C212.461 28.296 212.758 28.188 213.118 28.188C213.478 28.188 213.766 28.296 213.982 28.512C214.216 28.728 214.333 29.025 214.333 29.403C214.333 29.781 214.216 30.078 213.982 30.294C213.766 30.51 213.478 30.618 213.118 30.618ZM220.449 35.154V43.794C220.449 44.73 220.647 45.423 221.043 45.873C221.439 46.305 222.051 46.521 222.879 46.521C223.419 46.521 224.031 46.422 224.715 46.224V47.412C223.959 47.664 223.266 47.79 222.636 47.79C221.394 47.79 220.449 47.457 219.801 46.791C219.153 46.107 218.829 45.099 218.829 43.767V35.154H216.777V33.993L218.883 33.912L219.045 30.51L220.449 30.348V33.912H224.526V35.154H220.449ZM227.521 47.493V27.216L229.141 27V34.749C230.653 33.921 232.138 33.507 233.596 33.507C235.054 33.507 236.179 33.885 236.971 34.641C237.781 35.397 238.186 36.468 238.186 37.854V47.493H236.566V38.124C236.566 35.91 235.441 34.803 233.191 34.803C232.597 34.803 231.94 34.902 231.22 35.1C230.518 35.298 229.825 35.568 229.141 35.91V47.493H227.521ZM248.194 45.279C250.084 46.107 251.875 46.521 253.567 46.521C255.169 46.521 256.402 46.17 257.266 45.468C258.148 44.748 258.589 43.722 258.589 42.39C258.589 41.382 258.301 40.572 257.725 39.96C257.149 39.348 256.186 38.835 254.836 38.421L252.919 37.827C251.443 37.377 250.363 36.792 249.679 36.072C248.995 35.334 248.653 34.398 248.653 33.264C248.653 31.734 249.229 30.51 250.381 29.592C251.551 28.656 253.108 28.188 255.052 28.188C256.618 28.188 258.13 28.521 259.588 29.187V30.537C258.04 29.889 256.546 29.565 255.106 29.565C253.63 29.565 252.478 29.889 251.65 30.537C250.822 31.167 250.408 32.058 250.408 33.21C250.408 34.02 250.642 34.659 251.11 35.127C251.578 35.595 252.397 36.018 253.567 36.396L255.484 37.017C257.212 37.575 258.454 38.277 259.21 39.123C259.966 39.951 260.344 41.031 260.344 42.363C260.344 44.073 259.741 45.423 258.535 46.413C257.347 47.403 255.718 47.898 253.648 47.898C251.74 47.898 250.012 47.511 248.464 46.737L248.194 45.279ZM272.119 47.547L272.011 46.602C270.463 47.466 268.933 47.898 267.421 47.898C266.035 47.898 264.937 47.538 264.127 46.818C263.317 46.08 262.912 45.072 262.912 43.794C262.912 42.444 263.362 41.418 264.262 40.716C265.18 39.996 266.521 39.636 268.285 39.636C269.347 39.636 270.553 39.762 271.903 40.014V38.178C271.903 35.928 270.634 34.803 268.096 34.803C267.43 34.803 266.701 34.893 265.909 35.073C265.117 35.253 264.388 35.487 263.722 35.775V34.506C264.37 34.2 265.108 33.957 265.936 33.777C266.782 33.597 267.583 33.507 268.339 33.507C270.031 33.507 271.309 33.912 272.173 34.722C273.055 35.514 273.496 36.666 273.496 38.178V47.412L272.119 47.547ZM267.799 46.602C268.447 46.602 269.131 46.503 269.851 46.305C270.571 46.107 271.255 45.837 271.903 45.495V41.175C270.769 40.959 269.653 40.851 268.555 40.851C267.169 40.851 266.161 41.085 265.531 41.553C264.901 42.021 264.586 42.759 264.586 43.767C264.586 45.657 265.657 46.602 267.799 46.602ZM280.908 47.493L275.778 33.912H277.479L281.718 45.765L286.092 33.912H287.712L282.474 47.493H280.908ZM294.982 47.898C293.02 47.898 291.535 47.295 290.527 46.089C289.537 44.865 289.042 43.065 289.042 40.689C289.042 38.331 289.537 36.549 290.527 35.343C291.535 34.119 293.02 33.507 294.982 33.507C296.944 33.507 298.42 34.119 299.41 35.343C300.418 36.549 300.922 38.331 300.922 40.689C300.922 43.065 300.418 44.865 299.41 46.089C298.42 47.295 296.944 47.898 294.982 47.898ZM294.982 46.602C296.458 46.602 297.529 46.134 298.195 45.198C298.879 44.244 299.221 42.741 299.221 40.689C299.221 38.655 298.879 37.17 298.195 36.234C297.529 35.28 296.458 34.803 294.982 34.803C293.506 34.803 292.426 35.28 291.742 36.234C291.076 37.17 290.743 38.655 290.743 40.689C290.743 42.741 291.076 44.244 291.742 45.198C292.426 46.134 293.506 46.602 294.982 46.602ZM304.566 47.493V33.993L305.943 33.858L306.078 35.073C307.284 34.083 308.571 33.588 309.939 33.588C310.425 33.588 310.812 33.642 311.1 33.75V35.073C310.632 34.965 310.218 34.911 309.858 34.911C308.58 34.911 307.356 35.37 306.186 36.288V47.493H304.566Z" fill="#013D5B"/>
</svg>
