<svg width="276" height="48" viewBox="0 0 276 48" fill="none" xmlns="http://www.w3.org/2000/svg">
<path d="M0.594006 18.2789C2.48401 19.1069 4.27501 19.5209 5.96701 19.5209C7.56901 19.5209 8.80201 19.1699 9.66601 18.4679C10.548 17.7479 10.989 16.7219 10.989 15.3899C10.989 14.3819 10.701 13.5719 10.125 12.9599C9.54901 12.3479 8.58601 11.8349 7.23601 11.4209L5.31901 10.8269C3.84301 10.3769 2.76301 9.79192 2.07901 9.07192C1.39501 8.33392 1.05301 7.39792 1.05301 6.26392C1.05301 4.73392 1.62901 3.50992 2.78101 2.59192C3.95101 1.65592 5.50801 1.18792 7.45201 1.18792C9.01801 1.18792 10.53 1.52092 11.988 2.18692V3.53692C10.44 2.88892 8.94601 2.56492 7.50601 2.56492C6.03001 2.56492 4.87801 2.88892 4.05001 3.53692C3.22201 4.16692 2.80801 5.05792 2.80801 6.20992C2.80801 7.01992 3.04201 7.65892 3.51001 8.12692C3.97801 8.59492 4.79701 9.01792 5.96701 9.39592L7.88401 10.0169C9.61201 10.5749 10.854 11.2769 11.61 12.1229C12.366 12.9509 12.744 14.0309 12.744 15.3629C12.744 17.0729 12.141 18.4229 10.935 19.4129C9.74701 20.4029 8.11801 20.8979 6.04801 20.8979C4.14001 20.8979 2.41201 20.5109 0.864006 19.7369L0.594006 18.2789ZM25.2473 20.4929V11.1239C25.2473 8.90992 24.1223 7.80292 21.8723 7.80292C21.2783 7.80292 20.6213 7.90192 19.9013 8.09992C19.1993 8.29792 18.5063 8.56792 17.8223 8.90992V20.4929H16.2023V6.99292L17.5793 6.85792L17.6873 7.80292C19.2533 6.93892 20.7833 6.50692 22.2773 6.50692C23.7353 6.50692 24.8603 6.88492 25.6523 7.64092C26.4623 8.39692 26.8673 9.46792 26.8673 10.8539V20.4929H25.2473ZM39.5213 20.5469L39.4133 19.6019C37.8653 20.4659 36.3353 20.8979 34.8233 20.8979C33.4373 20.8979 32.3393 20.5379 31.5293 19.8179C30.7193 19.0799 30.3143 18.0719 30.3143 16.7939C30.3143 15.4439 30.7643 14.4179 31.6643 13.7159C32.5823 12.9959 33.9233 12.6359 35.6873 12.6359C36.7493 12.6359 37.9553 12.7619 39.3053 13.0139V11.1779C39.3053 8.92792 38.0363 7.80292 35.4983 7.80292C34.8323 7.80292 34.1033 7.89292 33.3113 8.07292C32.5193 8.25292 31.7903 8.48692 31.1243 8.77492V7.50592C31.7723 7.19992 32.5103 6.95692 33.3383 6.77692C34.1843 6.59692 34.9853 6.50692 35.7413 6.50692C37.4333 6.50692 38.7113 6.91192 39.5753 7.72192C40.4573 8.51392 40.8983 9.66592 40.8983 11.1779V20.4119L39.5213 20.5469ZM35.2013 19.6019C35.8493 19.6019 36.5333 19.5029 37.2533 19.3049C37.9733 19.1069 38.6573 18.8369 39.3053 18.4949V14.1749C38.1713 13.9589 37.0553 13.8509 35.9573 13.8509C34.5713 13.8509 33.5633 14.0849 32.9333 14.5529C32.3033 15.0209 31.9883 15.7589 31.9883 16.7669C31.9883 18.6569 33.0593 19.6019 35.2013 19.6019ZM49.6606 26.7839C48.0586 26.7839 46.6996 26.5049 45.5836 25.9469L45.3676 24.5699C46.8436 25.1819 48.2476 25.4879 49.5796 25.4879C52.5856 25.4879 54.0886 24.0929 54.0886 21.3029V19.4399C53.4046 19.8179 52.7026 20.1149 51.9826 20.3309C51.2806 20.5469 50.6236 20.6549 50.0116 20.6549C48.2476 20.6549 46.8616 20.0609 45.8536 18.8729C44.8456 17.6849 44.3416 16.0379 44.3416 13.9319C44.3416 11.5379 44.9086 9.70192 46.0426 8.42392C47.1946 7.14592 48.8506 6.50692 51.0106 6.50692C52.6486 6.50692 54.2146 6.79492 55.7086 7.37092V21.1679C55.7086 22.9679 55.1866 24.3539 54.1426 25.3259C53.0986 26.2979 51.6046 26.7839 49.6606 26.7839ZM50.2276 19.3589C50.8216 19.3589 51.4606 19.2599 52.1446 19.0619C52.8286 18.8639 53.4766 18.5939 54.0886 18.2519V8.23492C53.1526 7.94692 52.1716 7.80292 51.1456 7.80292C49.4176 7.80292 48.1306 8.30692 47.2846 9.31492C46.4566 10.3049 46.0426 11.8349 46.0426 13.9049C46.0426 15.6869 46.3936 17.0459 47.0956 17.9819C47.8156 18.8999 48.8596 19.3589 50.2276 19.3589ZM65.1765 18.4409C66.7605 19.2149 68.3895 19.6019 70.0635 19.6019C71.5755 19.6019 72.7815 19.2329 73.6815 18.4949C74.5815 17.7569 75.0315 16.7579 75.0315 15.4979C75.0315 14.2739 74.6085 13.2929 73.7625 12.5549C72.9165 11.8169 71.7735 11.4479 70.3335 11.4479H68.7405V10.1519H70.2795C71.5755 10.1519 72.6015 9.82792 73.3575 9.17992C74.1135 8.53192 74.4915 7.65892 74.4915 6.56092C74.4915 5.40892 74.1045 4.50892 73.3305 3.86092C72.5565 3.21292 71.4855 2.88892 70.1175 2.88892C68.6775 2.88892 67.2645 3.18592 65.8785 3.77992V2.48392C67.1745 1.88992 68.6325 1.59292 70.2525 1.59292C71.9985 1.59292 73.4205 2.05192 74.5185 2.96992C75.6345 3.86992 76.1925 5.03092 76.1925 6.45292C76.1925 7.49692 75.8865 8.39692 75.2745 9.15292C74.6805 9.90892 73.8435 10.4489 72.7635 10.7729C74.0055 11.0789 74.9775 11.6639 75.6795 12.5279C76.3815 13.3739 76.7325 14.3819 76.7325 15.5519C76.7325 16.6139 76.4445 17.5589 75.8685 18.3869C75.3105 19.1969 74.5365 19.8179 73.5465 20.2499C72.5745 20.6819 71.4675 20.8979 70.2255 20.8979C69.3615 20.8979 68.4975 20.7989 67.6335 20.6009C66.7695 20.4209 66.0315 20.1689 65.4195 19.8449L65.1765 18.4409ZM84.9135 20.4929L94.6875 1.99792H96.1455L86.3715 20.4929H84.9135ZM83.6175 12.6359C84.5715 12.6359 85.2735 12.2399 85.7235 11.4479C86.1915 10.6559 86.4255 9.41392 86.4255 7.72192C86.4255 6.02992 86.1915 4.78792 85.7235 3.99592C85.2735 3.20392 84.5715 2.80792 83.6175 2.80792C82.6635 2.80792 81.9525 3.20392 81.4845 3.99592C81.0345 4.78792 80.8095 6.02992 80.8095 7.72192C80.8095 9.41392 81.0345 10.6559 81.4845 11.4479C81.9525 12.2399 82.6635 12.6359 83.6175 12.6359ZM83.6175 13.7159C82.2315 13.7159 81.1695 13.2119 80.4315 12.2039C79.6935 11.1779 79.3245 9.68392 79.3245 7.72192C79.3245 5.75992 79.6935 4.27492 80.4315 3.26692C81.1695 2.24092 82.2315 1.72792 83.6175 1.72792C85.0035 1.72792 86.0655 2.24092 86.8035 3.26692C87.5415 4.27492 87.9105 5.75992 87.9105 7.72192C87.9105 9.68392 87.5415 11.1779 86.8035 12.2039C86.0655 13.2119 85.0035 13.7159 83.6175 13.7159ZM97.4415 19.6829C98.3955 19.6829 99.0975 19.2869 99.5475 18.4949C100.016 17.7029 100.25 16.4609 100.25 14.7689C100.25 13.0769 100.016 11.8349 99.5475 11.0429C99.0975 10.2509 98.3955 9.85492 97.4415 9.85492C96.4875 9.85492 95.7765 10.2509 95.3085 11.0429C94.8585 11.8349 94.6335 13.0769 94.6335 14.7689C94.6335 16.4609 94.8585 17.7029 95.3085 18.4949C95.7765 19.2869 96.4875 19.6829 97.4415 19.6829ZM97.4415 20.7629C96.0555 20.7629 94.9935 20.2589 94.2555 19.2509C93.5175 18.2249 93.1485 16.7309 93.1485 14.7689C93.1485 12.8069 93.5175 11.3219 94.2555 10.3139C94.9935 9.28792 96.0555 8.77492 97.4415 8.77492C98.8275 8.77492 99.8895 9.28792 100.628 10.3139C101.366 11.3219 101.735 12.8069 101.735 14.7689C101.735 16.7309 101.366 18.2249 100.628 19.2509C99.8895 20.2589 98.8275 20.7629 97.4415 20.7629ZM120.826 20.0069C119.638 20.6009 118.342 20.8979 116.938 20.8979C115.03 20.8979 113.554 20.2769 112.51 19.0349C111.484 17.7929 110.971 16.0199 110.971 13.7159C110.971 11.4119 111.484 9.63892 112.51 8.39692C113.554 7.13692 115.03 6.50692 116.938 6.50692C118.288 6.50692 119.566 6.80392 120.772 7.39792V8.66692C119.512 8.10892 118.288 7.82992 117.1 7.82992C115.642 7.82992 114.535 8.32492 113.779 9.31492C113.041 10.3049 112.672 11.7719 112.672 13.7159C112.672 15.6419 113.041 17.0999 113.779 18.0899C114.535 19.0799 115.642 19.5749 117.1 19.5749C118.324 19.5749 119.566 19.2959 120.826 18.7379V20.0069ZM132.624 20.5469L132.516 19.6019C130.968 20.4659 129.438 20.8979 127.926 20.8979C126.54 20.8979 125.442 20.5379 124.632 19.8179C123.822 19.0799 123.417 18.0719 123.417 16.7939C123.417 15.4439 123.867 14.4179 124.767 13.7159C125.685 12.9959 127.026 12.6359 128.79 12.6359C129.852 12.6359 131.058 12.7619 132.408 13.0139V11.1779C132.408 8.92792 131.139 7.80292 128.601 7.80292C127.935 7.80292 127.206 7.89292 126.414 8.07292C125.622 8.25292 124.893 8.48692 124.227 8.77492V7.50592C124.875 7.19992 125.613 6.95692 126.441 6.77692C127.287 6.59692 128.088 6.50692 128.844 6.50692C130.536 6.50692 131.814 6.91192 132.678 7.72192C133.56 8.51392 134.001 9.66592 134.001 11.1779V20.4119L132.624 20.5469ZM128.304 19.6019C128.952 19.6019 129.636 19.5029 130.356 19.3049C131.076 19.1069 131.76 18.8369 132.408 18.4949V14.1749C131.274 13.9589 130.158 13.8509 129.06 13.8509C127.674 13.8509 126.666 14.0849 126.036 14.5529C125.406 15.0209 125.091 15.7589 125.091 16.7669C125.091 18.6569 126.162 19.6019 128.304 19.6019ZM137.282 18.7109C138.632 19.3049 140.027 19.6019 141.467 19.6019C143.897 19.6019 145.112 18.6569 145.112 16.7669C145.112 16.1549 144.932 15.6599 144.572 15.2819C144.23 14.9039 143.654 14.5889 142.844 14.3369L140.792 13.6889C139.64 13.3289 138.803 12.8789 138.281 12.3389C137.759 11.7809 137.498 11.0789 137.498 10.2329C137.498 9.09892 137.939 8.19892 138.821 7.53292C139.721 6.84892 140.927 6.50692 142.439 6.50692C143.717 6.50692 144.932 6.74992 146.084 7.23592V8.50492C144.878 8.03692 143.69 7.80292 142.52 7.80292C141.458 7.80292 140.621 8.01892 140.009 8.45092C139.415 8.86492 139.118 9.44092 139.118 10.1789C139.118 10.7009 139.28 11.1239 139.604 11.4479C139.946 11.7539 140.549 12.0509 141.413 12.3389L143.546 13.0409C144.644 13.4009 145.445 13.8779 145.949 14.4719C146.471 15.0659 146.732 15.8219 146.732 16.7399C146.732 18.0719 146.282 19.0979 145.382 19.8179C144.482 20.5379 143.213 20.8979 141.575 20.8979C140.063 20.8979 138.704 20.6189 137.498 20.0609L137.282 18.7109ZM150.227 20.4929V0.215919L151.847 -8.17776e-05V7.74892C153.359 6.92092 154.844 6.50692 156.302 6.50692C157.76 6.50692 158.885 6.88492 159.677 7.64092C160.487 8.39692 160.892 9.46792 160.892 10.8539V20.4929H159.272V11.1239C159.272 8.90992 158.147 7.80292 155.897 7.80292C155.303 7.80292 154.646 7.90192 153.926 8.09992C153.224 8.29792 152.531 8.56792 151.847 8.90992V20.4929H150.227ZM173.6 7.72192C174.284 7.34392 174.977 7.04692 175.679 6.83092C176.399 6.61492 177.065 6.50692 177.677 6.50692C179.441 6.50692 180.827 7.12792 181.835 8.36992C182.843 9.59392 183.347 11.2949 183.347 13.4729C183.347 15.8669 182.771 17.7029 181.619 18.9809C180.485 20.2589 178.838 20.8979 176.678 20.8979C175.148 20.8979 173.582 20.6459 171.98 20.1419V0.215919L173.6 -8.17776e-05V7.72192ZM177.461 7.80292C176.867 7.80292 176.228 7.90192 175.544 8.09992C174.86 8.29792 174.212 8.56792 173.6 8.90992V19.1699C174.536 19.4579 175.517 19.6019 176.543 19.6019C178.271 19.6019 179.549 19.1069 180.377 18.1169C181.223 17.1089 181.646 15.5699 181.646 13.4999C181.646 11.6459 181.286 10.2329 180.566 9.26092C179.864 8.28892 178.829 7.80292 177.461 7.80292ZM195.299 20.5469L195.191 19.6019C193.643 20.4659 192.113 20.8979 190.601 20.8979C189.215 20.8979 188.117 20.5379 187.307 19.8179C186.497 19.0799 186.092 18.0719 186.092 16.7939C186.092 15.4439 186.542 14.4179 187.442 13.7159C188.36 12.9959 189.701 12.6359 191.465 12.6359C192.527 12.6359 193.733 12.7619 195.083 13.0139V11.1779C195.083 8.92792 193.814 7.80292 191.276 7.80292C190.61 7.80292 189.881 7.89292 189.089 8.07292C188.297 8.25292 187.568 8.48692 186.902 8.77492V7.50592C187.55 7.19992 188.288 6.95692 189.116 6.77692C189.962 6.59692 190.763 6.50692 191.519 6.50692C193.211 6.50692 194.489 6.91192 195.353 7.72192C196.235 8.51392 196.676 9.66592 196.676 11.1779V20.4119L195.299 20.5469ZM190.979 19.6019C191.627 19.6019 192.311 19.5029 193.031 19.3049C193.751 19.1069 194.435 18.8369 195.083 18.4949V14.1749C193.949 13.9589 192.833 13.8509 191.735 13.8509C190.349 13.8509 189.341 14.0849 188.711 14.5529C188.081 15.0209 187.766 15.7589 187.766 16.7669C187.766 18.6569 188.837 19.6019 190.979 19.6019ZM209.974 20.0069C208.786 20.6009 207.49 20.8979 206.086 20.8979C204.178 20.8979 202.702 20.2769 201.658 19.0349C200.632 17.7929 200.119 16.0199 200.119 13.7159C200.119 11.4119 200.632 9.63892 201.658 8.39692C202.702 7.13692 204.178 6.50692 206.086 6.50692C207.436 6.50692 208.714 6.80392 209.92 7.39792V8.66692C208.66 8.10892 207.436 7.82992 206.248 7.82992C204.79 7.82992 203.683 8.32492 202.927 9.31492C202.189 10.3049 201.82 11.7719 201.82 13.7159C201.82 15.6419 202.189 17.0999 202.927 18.0899C203.683 19.0799 204.79 19.5749 206.248 19.5749C207.472 19.5749 208.714 19.2959 209.974 18.7379V20.0069ZM213.455 20.4929V0.215919L215.075 -8.17776e-05V12.9329L221.447 6.91192H223.364L216.695 13.2299L223.58 20.4929H221.528L215.075 13.6349V20.4929H213.455ZM237.673 20.8979C235.711 20.8979 234.226 20.2949 233.218 19.0889C232.228 17.8649 231.733 16.0649 231.733 13.6889C231.733 11.3309 232.228 9.54892 233.218 8.34292C234.226 7.11892 235.711 6.50692 237.673 6.50692C239.635 6.50692 241.111 7.11892 242.101 8.34292C243.109 9.54892 243.613 11.3309 243.613 13.6889C243.613 16.0649 243.109 17.8649 242.101 19.0889C241.111 20.2949 239.635 20.8979 237.673 20.8979ZM237.673 19.6019C239.149 19.6019 240.22 19.1339 240.886 18.1979C241.57 17.2439 241.912 15.7409 241.912 13.6889C241.912 11.6549 241.57 10.1699 240.886 9.23392C240.22 8.27992 239.149 7.80292 237.673 7.80292C236.197 7.80292 235.117 8.27992 234.433 9.23392C233.767 10.1699 233.434 11.6549 233.434 13.6889C233.434 15.7409 233.767 17.2439 234.433 18.1979C235.117 19.1339 236.197 19.6019 237.673 19.6019ZM256.303 20.4929V11.1239C256.303 8.90992 255.178 7.80292 252.928 7.80292C252.334 7.80292 251.677 7.90192 250.957 8.09992C250.255 8.29792 249.562 8.56792 248.878 8.90992V20.4929H247.258V6.99292L248.635 6.85792L248.743 7.80292C250.309 6.93892 251.839 6.50692 253.333 6.50692C254.791 6.50692 255.916 6.88492 256.708 7.64092C257.518 8.39692 257.923 9.46792 257.923 10.8539V20.4929H256.303ZM2.05201 47.4929V35.1539H5.90645e-06V33.9929L2.05201 33.9119V30.8609C2.05201 29.5289 2.37601 28.5119 3.02401 27.8099C3.69001 27.0899 4.65301 26.7299 5.91301 26.7299C6.59701 26.7299 7.29001 26.8559 7.99201 27.1079V28.2959C7.34401 28.0979 6.72301 27.9989 6.12901 27.9989C5.28301 27.9989 4.66201 28.2239 4.26601 28.6739C3.87001 29.1059 3.67201 29.7899 3.67201 30.7259V33.9119H7.31701V35.1539H3.67201V47.4929H2.05201ZM15.1078 47.8979C13.1458 47.8979 11.6608 47.2949 10.6528 46.0889C9.66277 44.8649 9.16777 43.0649 9.16777 40.6889C9.16777 38.3309 9.66277 36.5489 10.6528 35.3429C11.6608 34.1189 13.1458 33.5069 15.1078 33.5069C17.0698 33.5069 18.5458 34.1189 19.5358 35.3429C20.5438 36.5489 21.0478 38.3309 21.0478 40.6889C21.0478 43.0649 20.5438 44.8649 19.5358 46.0889C18.5458 47.2949 17.0698 47.8979 15.1078 47.8979ZM15.1078 46.6019C16.5838 46.6019 17.6548 46.1339 18.3208 45.1979C19.0048 44.2439 19.3468 42.7409 19.3468 40.6889C19.3468 38.6549 19.0048 37.1699 18.3208 36.2339C17.6548 35.2799 16.5838 34.8029 15.1078 34.8029C13.6318 34.8029 12.5518 35.2799 11.8678 36.2339C11.2018 37.1699 10.8688 38.6549 10.8688 40.6889C10.8688 42.7409 11.2018 44.2439 11.8678 45.1979C12.5518 46.1339 13.6318 46.6019 15.1078 46.6019ZM29.7416 47.8979C27.7796 47.8979 26.2946 47.2949 25.2866 46.0889C24.2966 44.8649 23.8016 43.0649 23.8016 40.6889C23.8016 38.3309 24.2966 36.5489 25.2866 35.3429C26.2946 34.1189 27.7796 33.5069 29.7416 33.5069C31.7036 33.5069 33.1796 34.1189 34.1696 35.3429C35.1776 36.5489 35.6816 38.3309 35.6816 40.6889C35.6816 43.0649 35.1776 44.8649 34.1696 46.0889C33.1796 47.2949 31.7036 47.8979 29.7416 47.8979ZM29.7416 46.6019C31.2176 46.6019 32.2886 46.1339 32.9546 45.1979C33.6386 44.2439 33.9806 42.7409 33.9806 40.6889C33.9806 38.6549 33.6386 37.1699 32.9546 36.2339C32.2886 35.2799 31.2176 34.8029 29.7416 34.8029C28.2656 34.8029 27.1856 35.2799 26.5016 36.2339C25.8356 37.1699 25.5026 38.6549 25.5026 40.6889C25.5026 42.7409 25.8356 44.2439 26.5016 45.1979C27.1856 46.1339 28.2656 46.6019 29.7416 46.6019ZM49.8024 26.9999V47.4119L48.4254 47.5469L48.3174 46.6019C46.7874 47.4659 45.3833 47.8979 44.1053 47.8979C42.3413 47.8979 40.9553 47.2859 39.9473 46.0619C38.9393 44.8199 38.4353 43.1099 38.4353 40.9319C38.4353 38.5379 39.0023 36.7019 40.1363 35.4239C41.2883 34.1459 42.9443 33.5069 45.1043 33.5069C46.2203 33.5069 47.2464 33.6509 48.1824 33.9389V27.2159L49.8024 26.9999ZM44.3214 46.6019C44.9154 46.6019 45.5543 46.5029 46.2383 46.3049C46.9224 46.1069 47.5704 45.8369 48.1824 45.4949V35.2349C47.2464 34.9469 46.2653 34.8029 45.2393 34.8029C43.5113 34.8029 42.2244 35.3069 41.3783 36.3149C40.5503 37.3049 40.1363 38.8349 40.1363 40.9049C40.1363 42.7589 40.4873 44.1719 41.1893 45.1439C41.9093 46.1159 42.9533 46.6019 44.3214 46.6019ZM69.3953 47.5469L69.2873 46.6019C67.7393 47.4659 66.2093 47.8979 64.6973 47.8979C63.3113 47.8979 62.2133 47.5379 61.4033 46.8179C60.5933 46.0799 60.1883 45.0719 60.1883 43.7939C60.1883 42.4439 60.6383 41.4179 61.5383 40.7159C62.4563 39.9959 63.7973 39.6359 65.5613 39.6359C66.6233 39.6359 67.8293 39.7619 69.1793 40.0139V38.1779C69.1793 35.9279 67.9103 34.8029 65.3723 34.8029C64.7063 34.8029 63.9773 34.8929 63.1853 35.0729C62.3933 35.2529 61.6643 35.4869 60.9983 35.7749V34.5059C61.6463 34.1999 62.3843 33.9569 63.2123 33.7769C64.0583 33.5969 64.8593 33.5069 65.6153 33.5069C67.3073 33.5069 68.5853 33.9119 69.4493 34.7219C70.3313 35.5139 70.7723 36.6659 70.7723 38.1779V47.4119L69.3953 47.5469ZM65.0753 46.6019C65.7233 46.6019 66.4073 46.5029 67.1273 46.3049C67.8473 46.1069 68.5313 45.8369 69.1793 45.4949V41.1749C68.0453 40.9589 66.9293 40.8509 65.8313 40.8509C64.4453 40.8509 63.4373 41.0849 62.8073 41.5529C62.1773 42.0209 61.8623 42.7589 61.8623 43.7669C61.8623 45.6569 62.9333 46.6019 65.0753 46.6019ZM84.1516 47.4929V38.1239C84.1516 35.9099 83.0266 34.8029 80.7766 34.8029C80.1826 34.8029 79.5256 34.9019 78.8056 35.0999C78.1036 35.2979 77.4106 35.5679 76.7266 35.9099V47.4929H75.1066V33.9929L76.4836 33.8579L76.5916 34.8029C78.1576 33.9389 79.6876 33.5069 81.1816 33.5069C82.6396 33.5069 83.7646 33.8849 84.5566 34.6409C85.3666 35.3969 85.7716 36.4679 85.7716 37.8539V47.4929H84.1516ZM100.586 26.9999V47.4119L99.2086 47.5469L99.1006 46.6019C97.5706 47.4659 96.1666 47.8979 94.8886 47.8979C93.1246 47.8979 91.7386 47.2859 90.7306 46.0619C89.7226 44.8199 89.2186 43.1099 89.2186 40.9319C89.2186 38.5379 89.7856 36.7019 90.9196 35.4239C92.0716 34.1459 93.7276 33.5069 95.8876 33.5069C97.0036 33.5069 98.0296 33.6509 98.9656 33.9389V27.2159L100.586 26.9999ZM95.1046 46.6019C95.6986 46.6019 96.3376 46.5029 97.0216 46.3049C97.7056 46.1069 98.3536 45.8369 98.9656 45.4949V35.2349C98.0296 34.9469 97.0486 34.8029 96.0226 34.8029C94.2946 34.8029 93.0076 35.3069 92.1616 36.3149C91.3336 37.3049 90.9196 38.8349 90.9196 40.9049C90.9196 42.7589 91.2706 44.1719 91.9726 45.1439C92.6926 46.1159 93.7366 46.6019 95.1046 46.6019ZM112.24 47.4929V35.1539H110.188V33.9929L112.24 33.9119V30.8609C112.24 29.5289 112.564 28.5119 113.212 27.8099C113.878 27.0899 114.841 26.7299 116.101 26.7299C116.785 26.7299 117.478 26.8559 118.18 27.1079V28.2959C117.532 28.0979 116.911 27.9989 116.317 27.9989C115.471 27.9989 114.85 28.2239 114.454 28.6739C114.058 29.1059 113.86 29.7899 113.86 30.7259V33.9119H117.505V35.1539H113.86V47.4929H112.24ZM121.942 33.9119V43.2809C121.942 45.4949 123.031 46.6019 125.209 46.6019C125.803 46.6019 126.451 46.5029 127.153 46.3049C127.873 46.1069 128.575 45.8369 129.259 45.4949V33.9119H130.879V47.4119L129.502 47.5469L129.394 46.6019C127.828 47.4659 126.298 47.8979 124.804 47.8979C123.382 47.8979 122.275 47.5199 121.483 46.7639C120.709 45.9899 120.322 44.9189 120.322 43.5509V33.9119H121.942ZM144.453 47.4929V38.1239C144.453 35.9099 143.328 34.8029 141.078 34.8029C140.484 34.8029 139.827 34.9019 139.107 35.0999C138.405 35.2979 137.712 35.5679 137.028 35.9099V47.4929H135.408V33.9929L136.785 33.8579L136.893 34.8029C138.459 33.9389 139.989 33.5069 141.483 33.5069C142.941 33.5069 144.066 33.8849 144.858 34.6409C145.668 35.3969 146.073 36.4679 146.073 37.8539V47.4929H144.453ZM168.231 47.4929L164.586 35.7209L161.049 47.4929H159.51L155.19 33.9119H156.837L160.293 45.4949L163.695 33.9119H165.504L168.96 45.5759L172.389 33.9119H173.955L169.77 47.4929H168.231ZM176.515 47.4929V34.0469L178.135 33.8309V47.4929H176.515ZM177.325 30.6179C176.965 30.6179 176.668 30.5099 176.434 30.2939C176.218 30.0779 176.11 29.7809 176.11 29.4029C176.11 29.0249 176.218 28.7279 176.434 28.5119C176.668 28.2959 176.965 28.1879 177.325 28.1879C177.685 28.1879 177.973 28.2959 178.189 28.5119C178.423 28.7279 178.54 29.0249 178.54 29.4029C178.54 29.7809 178.423 30.0779 178.189 30.2939C177.973 30.5099 177.685 30.6179 177.325 30.6179ZM184.656 35.1539V43.7939C184.656 44.7299 184.854 45.4229 185.25 45.8729C185.646 46.3049 186.258 46.5209 187.086 46.5209C187.626 46.5209 188.238 46.4219 188.922 46.2239V47.4119C188.166 47.6639 187.473 47.7899 186.843 47.7899C185.601 47.7899 184.656 47.4569 184.008 46.7909C183.36 46.1069 183.036 45.0989 183.036 43.7669V35.1539H180.984V33.9929L183.09 33.9119L183.252 30.5099L184.656 30.3479V33.9119H188.733V35.1539H184.656ZM191.729 47.4929V27.2159L193.349 26.9999V34.7489C194.861 33.9209 196.346 33.5069 197.804 33.5069C199.262 33.5069 200.387 33.8849 201.179 34.6409C201.989 35.3969 202.394 36.4679 202.394 37.8539V47.4929H200.774V38.1239C200.774 35.9099 199.649 34.8029 197.399 34.8029C196.805 34.8029 196.148 34.9019 195.428 35.0999C194.726 35.2979 194.033 35.5679 193.349 35.9099V47.4929H191.729ZM212.402 45.2789C214.292 46.1069 216.083 46.5209 217.775 46.5209C219.377 46.5209 220.61 46.1699 221.474 45.4679C222.356 44.7479 222.797 43.7219 222.797 42.3899C222.797 41.3819 222.509 40.5719 221.933 39.9599C221.357 39.3479 220.394 38.8349 219.044 38.4209L217.127 37.8269C215.651 37.3769 214.571 36.7919 213.887 36.0719C213.203 35.3339 212.861 34.3979 212.861 33.2639C212.861 31.7339 213.437 30.5099 214.589 29.5919C215.759 28.6559 217.316 28.1879 219.26 28.1879C220.826 28.1879 222.338 28.5209 223.796 29.1869V30.5369C222.248 29.8889 220.754 29.5649 219.314 29.5649C217.838 29.5649 216.686 29.8889 215.858 30.5369C215.03 31.1669 214.616 32.0579 214.616 33.2099C214.616 34.0199 214.85 34.6589 215.318 35.1269C215.786 35.5949 216.605 36.0179 217.775 36.3959L219.692 37.0169C221.42 37.5749 222.662 38.2769 223.418 39.1229C224.174 39.9509 224.552 41.0309 224.552 42.3629C224.552 44.0729 223.949 45.4229 222.743 46.4129C221.555 47.4029 219.926 47.8979 217.856 47.8979C215.948 47.8979 214.22 47.5109 212.672 46.7369L212.402 45.2789ZM236.326 47.5469L236.218 46.6019C234.67 47.4659 233.14 47.8979 231.628 47.8979C230.242 47.8979 229.144 47.5379 228.334 46.8179C227.524 46.0799 227.119 45.0719 227.119 43.7939C227.119 42.4439 227.569 41.4179 228.469 40.7159C229.387 39.9959 230.728 39.6359 232.492 39.6359C233.554 39.6359 234.76 39.7619 236.11 40.0139V38.1779C236.11 35.9279 234.841 34.8029 232.303 34.8029C231.637 34.8029 230.908 34.8929 230.116 35.0729C229.324 35.2529 228.595 35.4869 227.929 35.7749V34.5059C228.577 34.1999 229.315 33.9569 230.143 33.7769C230.989 33.5969 231.79 33.5069 232.546 33.5069C234.238 33.5069 235.516 33.9119 236.38 34.7219C237.262 35.5139 237.703 36.6659 237.703 38.1779V47.4119L236.326 47.5469ZM232.006 46.6019C232.654 46.6019 233.338 46.5029 234.058 46.3049C234.778 46.1069 235.462 45.8369 236.11 45.4949V41.1749C234.976 40.9589 233.86 40.8509 232.762 40.8509C231.376 40.8509 230.368 41.0849 229.738 41.5529C229.108 42.0209 228.793 42.7589 228.793 43.7669C228.793 45.6569 229.864 46.6019 232.006 46.6019ZM245.115 47.4929L239.985 33.9119H241.686L245.925 45.7649L250.299 33.9119H251.919L246.681 47.4929H245.115ZM259.189 47.8979C257.227 47.8979 255.742 47.2949 254.734 46.0889C253.744 44.8649 253.249 43.0649 253.249 40.6889C253.249 38.3309 253.744 36.5489 254.734 35.3429C255.742 34.1189 257.227 33.5069 259.189 33.5069C261.151 33.5069 262.627 34.1189 263.617 35.3429C264.625 36.5489 265.129 38.3309 265.129 40.6889C265.129 43.0649 264.625 44.8649 263.617 46.0889C262.627 47.2949 261.151 47.8979 259.189 47.8979ZM259.189 46.6019C260.665 46.6019 261.736 46.1339 262.402 45.1979C263.086 44.2439 263.428 42.7409 263.428 40.6889C263.428 38.6549 263.086 37.1699 262.402 36.2339C261.736 35.2799 260.665 34.8029 259.189 34.8029C257.713 34.8029 256.633 35.2799 255.949 36.2339C255.283 37.1699 254.95 38.6549 254.95 40.6889C254.95 42.7409 255.283 44.2439 255.949 45.1979C256.633 46.1339 257.713 46.6019 259.189 46.6019ZM268.774 47.4929V33.9929L270.151 33.8579L270.286 35.0729C271.492 34.0829 272.779 33.5879 274.147 33.5879C274.633 33.5879 275.02 33.6419 275.308 33.7499V35.0729C274.84 34.9649 274.426 34.9109 274.066 34.9109C272.788 34.9109 271.564 35.3699 270.394 36.2879V47.4929H268.774Z" fill="#013D5B"/>
</svg>
