<svg width="358" height="62" viewBox="0 0 358 62" fill="none" xmlns="http://www.w3.org/2000/svg">
<path d="M18.447 24.453C16.489 25.399 14.355 25.872 12.045 25.872C8.74501 25.872 6.17101 24.816 4.32301 22.704C2.47501 20.57 1.551 17.611 1.551 13.827C1.551 10.065 2.46401 7.11701 4.29001 4.98301C6.13801 2.84901 8.66801 1.78201 11.88 1.78201C14.058 1.78201 16.093 2.25501 17.985 3.20101V4.88401C16.049 3.93801 14.069 3.46501 12.045 3.46501C9.36101 3.46501 7.30401 4.35601 5.87401 6.13801C4.44401 7.92001 3.72901 10.483 3.72901 13.827C3.72901 17.193 4.44401 19.767 5.87401 21.549C7.326 23.309 9.43801 24.189 12.21 24.189C13.684 24.189 15.125 23.958 16.533 23.496V15.114H13.53L13.761 13.431H18.447V24.453ZM34.9707 24.783C33.4527 25.509 31.8247 25.872 30.0867 25.872C27.5567 25.872 25.6097 25.124 24.2457 23.628C22.8817 22.132 22.1997 19.987 22.1997 17.193C22.1997 14.421 22.8377 12.243 24.1137 10.659C25.3897 9.07501 27.1387 8.28301 29.3607 8.28301C31.3187 8.28301 32.8587 8.89901 33.9807 10.131C35.1247 11.341 35.6967 13.002 35.6967 15.114C35.6967 15.906 35.6307 16.665 35.4987 17.391H24.1467C24.1687 21.989 26.2037 24.288 30.2517 24.288C31.8797 24.288 33.4527 23.936 34.9707 23.232V24.783ZM29.3277 9.83401C27.8317 9.83401 26.6107 10.384 25.6647 11.484C24.7187 12.584 24.2127 14.058 24.1467 15.906H33.7827C33.8267 15.554 33.8487 15.246 33.8487 14.982C33.8487 13.354 33.4527 12.089 32.6607 11.187C31.8687 10.285 30.7577 9.83401 29.3277 9.83401ZM42.553 10.296V20.856C42.553 22 42.795 22.847 43.279 23.397C43.763 23.925 44.511 24.189 45.523 24.189C46.183 24.189 46.931 24.068 47.767 23.826V25.278C46.843 25.586 45.996 25.74 45.226 25.74C43.708 25.74 42.553 25.333 41.761 24.519C40.969 23.683 40.573 22.451 40.573 20.823V10.296H38.065V8.87701L40.639 8.77801L40.837 4.62001L42.553 4.42201V8.77801H47.536V10.296H42.553ZM65.6179 25.872C63.2199 25.872 61.4049 25.135 60.1729 23.661C58.9629 22.165 58.3579 19.965 58.3579 17.061C58.3579 14.179 58.9629 12.001 60.1729 10.527C61.4049 9.03101 63.2199 8.28301 65.6179 8.28301C68.0159 8.28301 69.8199 9.03101 71.0299 10.527C72.2619 12.001 72.8779 14.179 72.8779 17.061C72.8779 19.965 72.2619 22.165 71.0299 23.661C69.8199 25.135 68.0159 25.872 65.6179 25.872ZM65.6179 24.288C67.4219 24.288 68.7309 23.716 69.5449 22.572C70.3809 21.406 70.7989 19.569 70.7989 17.061C70.7989 14.575 70.3809 12.76 69.5449 11.616C68.7309 10.45 67.4219 9.86701 65.6179 9.86701C63.8139 9.86701 62.4939 10.45 61.6579 11.616C60.8439 12.76 60.4369 14.575 60.4369 17.061C60.4369 19.569 60.8439 21.406 61.6579 22.572C62.4939 23.716 63.8139 24.288 65.6179 24.288ZM88.3877 25.377V13.926C88.3877 11.22 87.0127 9.86701 84.2627 9.86701C83.5367 9.86701 82.7337 9.98801 81.8537 10.23C80.9957 10.472 80.1487 10.802 79.3127 11.22V25.377H77.3327V8.87701L79.0157 8.71201L79.1477 9.86701C81.0617 8.81101 82.9317 8.28301 84.7577 8.28301C86.5397 8.28301 87.9147 8.74501 88.8827 9.66901C89.8727 10.593 90.3677 11.902 90.3677 13.596V25.377H88.3877ZM101.643 31.086C103.205 30.8 104.426 30.25 105.306 29.436C106.186 28.622 107 27.324 107.748 25.542L101.412 8.77801H103.491L108.672 23.331L114.018 8.77801H115.998L109.662 25.212C109.068 26.796 108.441 28.083 107.781 29.073C107.143 30.085 106.384 30.877 105.504 31.449C104.624 32.043 103.48 32.494 102.072 32.802L101.643 31.086ZM124.883 25.872C122.485 25.872 120.67 25.135 119.438 23.661C118.228 22.165 117.623 19.965 117.623 17.061C117.623 14.179 118.228 12.001 119.438 10.527C120.67 9.03101 122.485 8.28301 124.883 8.28301C127.281 8.28301 129.085 9.03101 130.295 10.527C131.527 12.001 132.143 14.179 132.143 17.061C132.143 19.965 131.527 22.165 130.295 23.661C129.085 25.135 127.281 25.872 124.883 25.872ZM124.883 24.288C126.687 24.288 127.996 23.716 128.81 22.572C129.646 21.406 130.064 19.569 130.064 17.061C130.064 14.575 129.646 12.76 128.81 11.616C127.996 10.45 126.687 9.86701 124.883 9.86701C123.079 9.86701 121.759 10.45 120.923 11.616C120.109 12.76 119.702 14.575 119.702 17.061C119.702 19.569 120.109 21.406 120.923 22.572C121.759 23.716 123.079 24.288 124.883 24.288ZM138.346 8.77801V20.229C138.346 22.935 139.677 24.288 142.339 24.288C143.065 24.288 143.857 24.167 144.715 23.925C145.595 23.683 146.453 23.353 147.289 22.935V8.77801H149.269V25.278L147.586 25.443L147.454 24.288C145.54 25.344 143.67 25.872 141.844 25.872C140.106 25.872 138.753 25.41 137.785 24.486C136.839 23.54 136.366 22.231 136.366 20.559V8.77801H138.346ZM154.805 25.377V8.87701L156.488 8.71201L156.653 10.197C158.127 8.98701 159.7 8.38201 161.372 8.38201C161.966 8.38201 162.439 8.44801 162.791 8.58001V10.197C162.219 10.065 161.713 9.99901 161.273 9.99901C159.711 9.99901 158.215 10.56 156.785 11.682V25.377H154.805ZM174.861 25.377V10.296H172.353V8.87701L174.861 8.77801V5.04901C174.861 3.42101 175.257 2.17801 176.049 1.32001C176.863 0.440013 178.04 1.23978e-05 179.58 1.23978e-05C180.416 1.23978e-05 181.263 0.154012 182.121 0.462012V1.91401C181.329 1.67201 180.57 1.55101 179.844 1.55101C178.81 1.55101 178.051 1.82601 177.567 2.37601C177.083 2.90401 176.841 3.74001 176.841 4.88401V8.77801H181.296V10.296H176.841V25.377H174.861ZM196.329 24.783C194.811 25.509 193.183 25.872 191.445 25.872C188.915 25.872 186.968 25.124 185.604 23.628C184.24 22.132 183.558 19.987 183.558 17.193C183.558 14.421 184.196 12.243 185.472 10.659C186.748 9.07501 188.497 8.28301 190.719 8.28301C192.677 8.28301 194.217 8.89901 195.339 10.131C196.483 11.341 197.055 13.002 197.055 15.114C197.055 15.906 196.989 16.665 196.857 17.391H185.505C185.527 21.989 187.562 24.288 191.61 24.288C193.238 24.288 194.811 23.936 196.329 23.232V24.783ZM190.686 9.83401C189.19 9.83401 187.969 10.384 187.023 11.484C186.077 12.584 185.571 14.058 185.505 15.906H195.141C195.185 15.554 195.207 15.246 195.207 14.982C195.207 13.354 194.811 12.089 194.019 11.187C193.227 10.285 192.116 9.83401 190.686 9.83401ZM213.151 24.783C211.633 25.509 210.005 25.872 208.267 25.872C205.737 25.872 203.79 25.124 202.426 23.628C201.062 22.132 200.38 19.987 200.38 17.193C200.38 14.421 201.018 12.243 202.294 10.659C203.57 9.07501 205.319 8.28301 207.541 8.28301C209.499 8.28301 211.039 8.89901 212.161 10.131C213.305 11.341 213.877 13.002 213.877 15.114C213.877 15.906 213.811 16.665 213.679 17.391H202.327C202.349 21.989 204.384 24.288 208.432 24.288C210.06 24.288 211.633 23.936 213.151 23.232V24.783ZM207.508 9.83401C206.012 9.83401 204.791 10.384 203.845 11.484C202.899 12.584 202.393 14.058 202.327 15.906H211.963C212.007 15.554 212.029 15.246 212.029 14.982C212.029 13.354 211.633 12.089 210.841 11.187C210.049 10.285 208.938 9.83401 207.508 9.83401ZM220.734 10.296V20.856C220.734 22 220.976 22.847 221.46 23.397C221.944 23.925 222.692 24.189 223.704 24.189C224.364 24.189 225.112 24.068 225.948 23.826V25.278C225.024 25.586 224.177 25.74 223.407 25.74C221.889 25.74 220.734 25.333 219.942 24.519C219.15 23.683 218.754 22.451 218.754 20.823V10.296H216.246V8.87701L218.82 8.77801L219.018 4.62001L220.734 4.42201V8.77801H225.717V10.296H220.734ZM230.632 18.777L230.335 2.27701L232.447 2.01301L232.15 18.777H230.632ZM231.391 25.542C230.951 25.542 230.588 25.41 230.302 25.146C230.016 24.86 229.873 24.486 229.873 24.024C229.873 23.562 230.016 23.199 230.302 22.935C230.588 22.649 230.951 22.506 231.391 22.506C231.831 22.506 232.194 22.649 232.48 22.935C232.766 23.199 232.909 23.562 232.909 24.024C232.909 24.486 232.766 24.86 232.48 25.146C232.194 25.41 231.831 25.542 231.391 25.542ZM6.96301 61.377V39.96H4.90248e-06V38.277H16.005V39.96H9.04201V61.377H6.96301ZM19.2604 61.377V36.594L21.2404 36.33V45.801C23.0884 44.789 24.9034 44.283 26.6854 44.283C28.4674 44.283 29.8424 44.745 30.8104 45.669C31.8004 46.593 32.2954 47.902 32.2954 49.596V61.377H30.3154V49.926C30.3154 47.22 28.9404 45.867 26.1904 45.867C25.4644 45.867 24.6614 45.988 23.7814 46.23C22.9234 46.472 22.0764 46.802 21.2404 47.22V61.377H19.2604ZM49.2793 60.783C47.7613 61.509 46.1333 61.872 44.3953 61.872C41.8653 61.872 39.9183 61.124 38.5543 59.628C37.1903 58.132 36.5083 55.987 36.5083 53.193C36.5083 50.421 37.1463 48.243 38.4223 46.659C39.6983 45.075 41.4473 44.283 43.6693 44.283C45.6273 44.283 47.1673 44.899 48.2893 46.131C49.4333 47.341 50.0053 49.002 50.0053 51.114C50.0053 51.906 49.9393 52.665 49.8073 53.391H38.4553C38.4773 57.989 40.5123 60.288 44.5603 60.288C46.1883 60.288 47.7613 59.936 49.2793 59.232V60.783ZM43.6363 45.834C42.1403 45.834 40.9193 46.384 39.9733 47.484C39.0273 48.584 38.5213 50.058 38.4553 51.906H48.0913C48.1353 51.554 48.1573 51.246 48.1573 50.982C48.1573 49.354 47.7613 48.089 46.9693 47.187C46.1773 46.285 45.0663 45.834 43.6363 45.834ZM63.1646 61.377V38.277H76.4636V39.96H65.2436V49.332H75.0446V51.015H65.2436V61.377H63.1646ZM80.0397 61.377V44.943L82.0197 44.679V61.377H80.0397ZM81.0297 40.752C80.5897 40.752 80.2267 40.62 79.9407 40.356C79.6767 40.092 79.5447 39.729 79.5447 39.267C79.5447 38.805 79.6767 38.442 79.9407 38.178C80.2267 37.914 80.5897 37.782 81.0297 37.782C81.4697 37.782 81.8217 37.914 82.0857 38.178C82.3717 38.442 82.5147 38.805 82.5147 39.267C82.5147 39.729 82.3717 40.092 82.0857 40.356C81.8217 40.62 81.4697 40.752 81.0297 40.752ZM98.6035 61.377V49.926C98.6035 47.22 97.2285 45.867 94.4785 45.867C93.7525 45.867 92.9495 45.988 92.0695 46.23C91.2115 46.472 90.3645 46.802 89.5285 47.22V61.377H87.5485V44.877L89.2315 44.712L89.3635 45.867C91.2775 44.811 93.1475 44.283 94.9735 44.283C96.7555 44.283 98.1305 44.745 99.0985 45.669C100.088 46.593 100.583 47.902 100.583 49.596V61.377H98.6035ZM116.049 61.443L115.917 60.288C114.025 61.344 112.155 61.872 110.307 61.872C108.613 61.872 107.271 61.432 106.281 60.552C105.291 59.65 104.796 58.418 104.796 56.856C104.796 55.206 105.346 53.952 106.446 53.094C107.568 52.214 109.207 51.774 111.363 51.774C112.661 51.774 114.135 51.928 115.785 52.236V49.992C115.785 47.242 114.234 45.867 111.132 45.867C110.318 45.867 109.427 45.977 108.459 46.197C107.491 46.417 106.6 46.703 105.786 47.055V45.504C106.578 45.13 107.48 44.833 108.492 44.613C109.526 44.393 110.505 44.283 111.429 44.283C113.497 44.283 115.059 44.778 116.115 45.768C117.193 46.736 117.732 48.144 117.732 49.992V61.278L116.049 61.443ZM110.769 60.288C111.561 60.288 112.397 60.167 113.277 59.925C114.157 59.683 114.993 59.353 115.785 58.935V53.655C114.399 53.391 113.035 53.259 111.693 53.259C109.999 53.259 108.767 53.545 107.997 54.117C107.227 54.689 106.842 55.591 106.842 56.823C106.842 59.133 108.151 60.288 110.769 60.288ZM123.03 61.377V36.594L125.01 36.33V61.377H123.03ZM139.284 61.377V38.277H152.583V39.96H141.363V49.332H151.164V51.015H141.363V61.377H139.284ZM161.685 61.872C159.287 61.872 157.472 61.135 156.24 59.661C155.03 58.165 154.425 55.965 154.425 53.061C154.425 50.179 155.03 48.001 156.24 46.527C157.472 45.031 159.287 44.283 161.685 44.283C164.083 44.283 165.887 45.031 167.097 46.527C168.329 48.001 168.945 50.179 168.945 53.061C168.945 55.965 168.329 58.165 167.097 59.661C165.887 61.135 164.083 61.872 161.685 61.872ZM161.685 60.288C163.489 60.288 164.798 59.716 165.612 58.572C166.448 57.406 166.866 55.569 166.866 53.061C166.866 50.575 166.448 48.76 165.612 47.616C164.798 46.45 163.489 45.867 161.685 45.867C159.881 45.867 158.561 46.45 157.725 47.616C156.911 48.76 156.504 50.575 156.504 53.061C156.504 55.569 156.911 57.406 157.725 58.572C158.561 59.716 159.881 60.288 161.685 60.288ZM175.149 44.778V56.229C175.149 58.935 176.48 60.288 179.142 60.288C179.868 60.288 180.66 60.167 181.518 59.925C182.398 59.683 183.256 59.353 184.092 58.935V44.778H186.072V61.278L184.389 61.443L184.257 60.288C182.343 61.344 180.473 61.872 178.647 61.872C176.909 61.872 175.556 61.41 174.588 60.486C173.642 59.54 173.169 58.231 173.169 56.559V44.778H175.149ZM191.608 61.377V44.877L193.291 44.712L193.456 46.197C194.93 44.987 196.503 44.382 198.175 44.382C198.769 44.382 199.242 44.448 199.594 44.58V46.197C199.022 46.065 198.516 45.999 198.076 45.999C196.514 45.999 195.018 46.56 193.588 47.682V61.377H191.608ZM208.463 52.962C207.011 52.962 205.702 52.61 204.536 51.906C203.392 51.202 202.501 50.278 201.863 49.134C201.225 47.968 200.906 46.714 200.906 45.372C200.906 43.92 201.258 42.611 201.962 41.445C202.666 40.279 203.59 39.377 204.734 38.739C205.878 38.101 207.121 37.782 208.463 37.782C209.915 37.782 211.213 38.134 212.357 38.838C213.523 39.542 214.425 40.477 215.063 41.643C215.701 42.787 216.02 44.03 216.02 45.372C216.02 46.824 215.668 48.133 214.964 49.299C214.26 50.465 213.336 51.367 212.192 52.005C211.048 52.643 209.805 52.962 208.463 52.962ZM208.463 51.807C209.673 51.807 210.751 51.521 211.697 50.949C212.665 50.355 213.402 49.574 213.908 48.606C214.436 47.638 214.7 46.56 214.7 45.372C214.7 44.118 214.414 42.996 213.842 42.006C213.27 41.016 212.511 40.257 211.565 39.729C210.619 39.201 209.585 38.937 208.463 38.937C207.253 38.937 206.164 39.234 205.196 39.828C204.25 40.4 203.513 41.17 202.985 42.138C202.479 43.106 202.226 44.184 202.226 45.372C202.226 46.626 202.512 47.748 203.084 48.738C203.656 49.728 204.415 50.487 205.361 51.015C206.307 51.543 207.341 51.807 208.463 51.807ZM210.443 49.398L208.397 46.098H207.011V49.398H205.889V41.313C206.813 41.159 207.627 41.082 208.331 41.082C209.277 41.082 210.014 41.313 210.542 41.775C211.092 42.215 211.367 42.82 211.367 43.59C211.367 44.778 210.751 45.559 209.519 45.933L211.73 49.398H210.443ZM207.011 45.207H208.166C208.804 45.207 209.299 45.064 209.651 44.778C210.025 44.492 210.212 44.096 210.212 43.59C210.212 43.084 210.036 42.699 209.684 42.435C209.354 42.149 208.87 42.006 208.232 42.006C207.858 42.006 207.451 42.039 207.011 42.105V45.207ZM227.766 61.377V44.943L229.746 44.679V61.377H227.766ZM228.756 40.752C228.316 40.752 227.953 40.62 227.667 40.356C227.403 40.092 227.271 39.729 227.271 39.267C227.271 38.805 227.403 38.442 227.667 38.178C227.953 37.914 228.316 37.782 228.756 37.782C229.196 37.782 229.548 37.914 229.812 38.178C230.098 38.442 230.241 38.805 230.241 39.267C230.241 39.729 230.098 40.092 229.812 40.356C229.548 40.62 229.196 40.752 228.756 40.752ZM233.988 59.199C235.638 59.925 237.343 60.288 239.103 60.288C242.073 60.288 243.558 59.133 243.558 56.823C243.558 56.075 243.338 55.47 242.898 55.008C242.48 54.546 241.776 54.161 240.786 53.853L238.278 53.061C236.87 52.621 235.847 52.071 235.209 51.411C234.571 50.729 234.252 49.871 234.252 48.837C234.252 47.451 234.791 46.351 235.869 45.537C236.969 44.701 238.443 44.283 240.291 44.283C241.853 44.283 243.338 44.58 244.746 45.174V46.725C243.272 46.153 241.82 45.867 240.39 45.867C239.092 45.867 238.069 46.131 237.321 46.659C236.595 47.165 236.232 47.869 236.232 48.771C236.232 49.409 236.43 49.926 236.826 50.322C237.244 50.696 237.981 51.059 239.037 51.411L241.644 52.269C242.986 52.709 243.965 53.292 244.581 54.018C245.219 54.744 245.538 55.668 245.538 56.79C245.538 58.418 244.988 59.672 243.888 60.552C242.788 61.432 241.237 61.872 239.235 61.872C237.387 61.872 235.726 61.531 234.252 60.849L233.988 59.199ZM268.223 61.443L268.091 60.288C266.199 61.344 264.329 61.872 262.481 61.872C260.787 61.872 259.445 61.432 258.455 60.552C257.465 59.65 256.97 58.418 256.97 56.856C256.97 55.206 257.52 53.952 258.62 53.094C259.742 52.214 261.381 51.774 263.537 51.774C264.835 51.774 266.309 51.928 267.959 52.236V49.992C267.959 47.242 266.408 45.867 263.306 45.867C262.492 45.867 261.601 45.977 260.633 46.197C259.665 46.417 258.774 46.703 257.96 47.055V45.504C258.752 45.13 259.654 44.833 260.666 44.613C261.7 44.393 262.679 44.283 263.603 44.283C265.671 44.283 267.233 44.778 268.289 45.768C269.367 46.736 269.906 48.144 269.906 49.992V61.278L268.223 61.443ZM262.943 60.288C263.735 60.288 264.571 60.167 265.451 59.925C266.331 59.683 267.167 59.353 267.959 58.935V53.655C266.573 53.391 265.209 53.259 263.867 53.259C262.173 53.259 260.941 53.545 260.171 54.117C259.401 54.689 259.016 55.591 259.016 56.823C259.016 59.133 260.325 60.288 262.943 60.288ZM275.666 61.377V46.296H273.158V44.877L275.666 44.778V41.049C275.666 39.421 276.062 38.178 276.854 37.32C277.668 36.44 278.845 36 280.385 36C281.089 36 281.738 36.088 282.332 36.264V37.749C281.738 37.617 281.177 37.551 280.649 37.551C279.615 37.551 278.856 37.826 278.372 38.376C277.888 38.904 277.646 39.74 277.646 40.884V44.778H282.101V46.296H277.646V61.377H275.666ZM285.764 61.377V36.594L287.744 36.33V61.377H285.764ZM303.447 61.443L303.315 60.288C301.423 61.344 299.553 61.872 297.705 61.872C296.011 61.872 294.669 61.432 293.679 60.552C292.689 59.65 292.194 58.418 292.194 56.856C292.194 55.206 292.744 53.952 293.844 53.094C294.966 52.214 296.605 51.774 298.761 51.774C300.059 51.774 301.533 51.928 303.183 52.236V49.992C303.183 47.242 301.632 45.867 298.53 45.867C297.716 45.867 296.825 45.977 295.857 46.197C294.889 46.417 293.998 46.703 293.184 47.055V45.504C293.976 45.13 294.878 44.833 295.89 44.613C296.924 44.393 297.903 44.283 298.827 44.283C300.895 44.283 302.457 44.778 303.513 45.768C304.591 46.736 305.13 48.144 305.13 49.992V61.278L303.447 61.443ZM298.167 60.288C298.959 60.288 299.795 60.167 300.675 59.925C301.555 59.683 302.391 59.353 303.183 58.935V53.655C301.797 53.391 300.433 53.259 299.091 53.259C297.397 53.259 296.165 53.545 295.395 54.117C294.625 54.689 294.24 55.591 294.24 56.823C294.24 59.133 295.549 60.288 298.167 60.288ZM330.293 61.377V49.596C330.293 47.11 329.116 45.867 326.762 45.867C325.398 45.867 323.836 46.362 322.076 47.352C322.252 47.946 322.34 48.584 322.34 49.266V61.377H320.36V49.596C320.36 47.11 319.183 45.867 316.829 45.867C315.509 45.867 314.035 46.318 312.407 47.22V61.377H310.427V44.877L312.11 44.712L312.242 45.867C314.112 44.811 315.806 44.283 317.324 44.283C319.26 44.283 320.657 44.921 321.515 46.197C323.649 44.921 325.563 44.283 327.257 44.283C328.863 44.283 330.095 44.712 330.953 45.57C331.833 46.428 332.273 47.66 332.273 49.266V61.377H330.293ZM349.276 60.783C347.758 61.509 346.13 61.872 344.392 61.872C341.862 61.872 339.915 61.124 338.551 59.628C337.187 58.132 336.505 55.987 336.505 53.193C336.505 50.421 337.143 48.243 338.419 46.659C339.695 45.075 341.444 44.283 343.666 44.283C345.624 44.283 347.164 44.899 348.286 46.131C349.43 47.341 350.002 49.002 350.002 51.114C350.002 51.906 349.936 52.665 349.804 53.391H338.452C338.474 57.989 340.509 60.288 344.557 60.288C346.185 60.288 347.758 59.936 349.276 59.232V60.783ZM343.633 45.834C342.137 45.834 340.916 46.384 339.97 47.484C339.024 48.584 338.518 50.058 338.452 51.906H348.088C348.132 51.554 348.154 51.246 348.154 50.982C348.154 49.354 347.758 48.089 346.966 47.187C346.174 46.285 345.063 45.834 343.633 45.834ZM355.671 54.777L355.374 38.277L357.486 38.013L357.189 54.777H355.671ZM356.43 61.542C355.99 61.542 355.627 61.41 355.341 61.146C355.055 60.86 354.912 60.486 354.912 60.024C354.912 59.562 355.055 59.199 355.341 58.935C355.627 58.649 355.99 58.506 356.43 58.506C356.87 58.506 357.233 58.649 357.519 58.935C357.805 59.199 357.948 59.562 357.948 60.024C357.948 60.486 357.805 60.86 357.519 61.146C357.233 61.41 356.87 61.542 356.43 61.542Z" fill="#013D5B"/>
</svg>
