<svg width="192" height="39" viewBox="0 0 192 39" fill="none" xmlns="http://www.w3.org/2000/svg">
<path d="M10.062 13.338C8.99401 13.854 7.83001 14.112 6.57001 14.112C4.77001 14.112 3.36601 13.536 2.35801 12.384C1.35001 11.22 0.846011 9.60604 0.846011 7.54204C0.846011 5.49004 1.34401 3.88204 2.34001 2.71804C3.34801 1.55404 4.72801 0.97204 6.48001 0.97204C7.66801 0.97204 8.77801 1.23004 9.81001 1.74604V2.66404C8.75401 2.14804 7.67401 1.89004 6.57001 1.89004C5.10601 1.89004 3.98401 2.37604 3.20401 3.34804C2.42401 4.32004 2.03401 5.71804 2.03401 7.54204C2.03401 9.37804 2.42401 10.782 3.20401 11.754C3.99601 12.714 5.14801 13.194 6.66001 13.194C7.46401 13.194 8.25001 13.068 9.01801 12.816V8.24404H7.38001L7.50601 7.32604H10.062V13.338ZM19.0749 13.518C18.2469 13.914 17.3589 14.112 16.4109 14.112C15.0309 14.112 13.9689 13.704 13.2249 12.888C12.4809 12.072 12.1089 10.902 12.1089 9.37804C12.1089 7.86604 12.4569 6.67804 13.1529 5.81404C13.8489 4.95004 14.8029 4.51804 16.0149 4.51804C17.0829 4.51804 17.9229 4.85404 18.5349 5.52604C19.1589 6.18604 19.4709 7.09204 19.4709 8.24404C19.4709 8.67604 19.4349 9.09004 19.3629 9.48604H13.1709C13.1829 11.994 14.2929 13.248 16.5009 13.248C17.3889 13.248 18.2469 13.056 19.0749 12.672V13.518ZM15.9969 5.36404C15.1809 5.36404 14.5149 5.66404 13.9989 6.26404C13.4829 6.86404 13.2069 7.66804 13.1709 8.67604H18.4269C18.4509 8.48404 18.4629 8.31604 18.4629 8.17204C18.4629 7.28404 18.2469 6.59404 17.8149 6.10204C17.3829 5.61004 16.7769 5.36404 15.9969 5.36404ZM23.2107 5.61604V11.376C23.2107 12 23.3427 12.462 23.6067 12.762C23.8707 13.05 24.2787 13.194 24.8307 13.194C25.1907 13.194 25.5987 13.128 26.0547 12.996V13.788C25.5507 13.956 25.0887 14.04 24.6687 14.04C23.8407 14.04 23.2107 13.818 22.7787 13.374C22.3467 12.918 22.1307 12.246 22.1307 11.358V5.61604H20.7627V4.84204L22.1667 4.78804L22.2747 2.52004L23.2107 2.41204V4.78804H25.9287V5.61604H23.2107ZM35.7916 14.112C34.4836 14.112 33.4936 13.71 32.8216 12.906C32.1616 12.09 31.8316 10.89 31.8316 9.30604C31.8316 7.73404 32.1616 6.54604 32.8216 5.74204C33.4936 4.92604 34.4836 4.51804 35.7916 4.51804C37.0996 4.51804 38.0836 4.92604 38.7436 5.74204C39.4156 6.54604 39.7516 7.73404 39.7516 9.30604C39.7516 10.89 39.4156 12.09 38.7436 12.906C38.0836 13.71 37.0996 14.112 35.7916 14.112ZM35.7916 13.248C36.7756 13.248 37.4896 12.936 37.9336 12.312C38.3896 11.676 38.6176 10.674 38.6176 9.30604C38.6176 7.95004 38.3896 6.96004 37.9336 6.33604C37.4896 5.70004 36.7756 5.38204 35.7916 5.38204C34.8076 5.38204 34.0876 5.70004 33.6316 6.33604C33.1876 6.96004 32.9656 7.95004 32.9656 9.30604C32.9656 10.674 33.1876 11.676 33.6316 12.312C34.0876 12.936 34.8076 13.248 35.7916 13.248ZM48.2115 13.842V7.59604C48.2115 6.12004 47.4615 5.38204 45.9615 5.38204C45.5655 5.38204 45.1275 5.44804 44.6475 5.58004C44.1795 5.71204 43.7175 5.89204 43.2615 6.12004V13.842H42.1815V4.84204L43.0995 4.75204L43.1715 5.38204C44.2155 4.80604 45.2355 4.51804 46.2315 4.51804C47.2035 4.51804 47.9535 4.77004 48.4815 5.27404C49.0215 5.77804 49.2915 6.49204 49.2915 7.41604V13.842H48.2115ZM55.4414 16.956C56.2934 16.8 56.9594 16.5 57.4394 16.056C57.9194 15.612 58.3634 14.904 58.7714 13.932L55.3154 4.78804H56.4494L59.2754 12.726L62.1914 4.78804H63.2714L59.8154 13.752C59.4914 14.616 59.1494 15.318 58.7894 15.858C58.4414 16.41 58.0274 16.842 57.5474 17.154C57.0674 17.478 56.4434 17.724 55.6754 17.892L55.4414 16.956ZM68.1178 14.112C66.8098 14.112 65.8198 13.71 65.1478 12.906C64.4878 12.09 64.1578 10.89 64.1578 9.30604C64.1578 7.73404 64.4878 6.54604 65.1478 5.74204C65.8198 4.92604 66.8098 4.51804 68.1178 4.51804C69.4258 4.51804 70.4098 4.92604 71.0698 5.74204C71.7418 6.54604 72.0778 7.73404 72.0778 9.30604C72.0778 10.89 71.7418 12.09 71.0698 12.906C70.4098 13.71 69.4258 14.112 68.1178 14.112ZM68.1178 13.248C69.1018 13.248 69.8158 12.936 70.2598 12.312C70.7158 11.676 70.9438 10.674 70.9438 9.30604C70.9438 7.95004 70.7158 6.96004 70.2598 6.33604C69.8158 5.70004 69.1018 5.38204 68.1178 5.38204C67.1338 5.38204 66.4138 5.70004 65.9578 6.33604C65.5138 6.96004 65.2918 7.95004 65.2918 9.30604C65.2918 10.674 65.5138 11.676 65.9578 12.312C66.4138 12.936 67.1338 13.248 68.1178 13.248ZM75.4616 4.78804V11.034C75.4616 12.51 76.1876 13.248 77.6396 13.248C78.0356 13.248 78.4676 13.182 78.9356 13.05C79.4156 12.918 79.8836 12.738 80.3396 12.51V4.78804H81.4196V13.788L80.5016 13.878L80.4296 13.248C79.3856 13.824 78.3656 14.112 77.3696 14.112C76.4216 14.112 75.6836 13.86 75.1556 13.356C74.6396 12.84 74.3816 12.126 74.3816 11.214V4.78804H75.4616ZM84.4393 13.842V4.84204L85.3573 4.75204L85.4473 5.56204C86.2513 4.90204 87.1093 4.57204 88.0213 4.57204C88.3453 4.57204 88.6033 4.60804 88.7953 4.68004V5.56204C88.4833 5.49004 88.2073 5.45404 87.9673 5.45404C87.1153 5.45404 86.2993 5.76004 85.5193 6.37204V13.842H84.4393ZM95.3788 13.842V5.61604H94.0108V4.84204L95.3788 4.78804V2.75404C95.3788 1.86604 95.5948 1.18804 96.0268 0.72004C96.4708 0.24004 97.1128 4.00543e-05 97.9528 4.00543e-05C98.4088 4.00543e-05 98.8708 0.08404 99.3388 0.25204V1.04404C98.9068 0.91204 98.4928 0.84604 98.0968 0.84604C97.5328 0.84604 97.1188 0.99604 96.8548 1.29604C96.5908 1.58404 96.4588 2.04004 96.4588 2.66404V4.78804H98.8888V5.61604H96.4588V13.842H95.3788ZM107.089 13.518C106.261 13.914 105.373 14.112 104.425 14.112C103.045 14.112 101.983 13.704 101.239 12.888C100.495 12.072 100.123 10.902 100.123 9.37804C100.123 7.86604 100.471 6.67804 101.167 5.81404C101.863 4.95004 102.817 4.51804 104.029 4.51804C105.097 4.51804 105.937 4.85404 106.549 5.52604C107.173 6.18604 107.485 7.09204 107.485 8.24404C107.485 8.67604 107.449 9.09004 107.377 9.48604H101.185C101.197 11.994 102.307 13.248 104.515 13.248C105.403 13.248 106.261 13.056 107.089 12.672V13.518ZM104.011 5.36404C103.195 5.36404 102.529 5.66404 102.013 6.26404C101.497 6.86404 101.221 7.66804 101.185 8.67604H106.441C106.465 8.48404 106.477 8.31604 106.477 8.17204C106.477 7.28404 106.261 6.59404 105.829 6.10204C105.397 5.61004 104.791 5.36404 104.011 5.36404ZM116.264 13.518C115.436 13.914 114.548 14.112 113.6 14.112C112.22 14.112 111.158 13.704 110.414 12.888C109.67 12.072 109.298 10.902 109.298 9.37804C109.298 7.86604 109.646 6.67804 110.342 5.81404C111.038 4.95004 111.992 4.51804 113.204 4.51804C114.272 4.51804 115.112 4.85404 115.724 5.52604C116.348 6.18604 116.66 7.09204 116.66 8.24404C116.66 8.67604 116.624 9.09004 116.552 9.48604H110.36C110.372 11.994 111.482 13.248 113.69 13.248C114.578 13.248 115.436 13.056 116.264 12.672V13.518ZM113.186 5.36404C112.37 5.36404 111.704 5.66404 111.188 6.26404C110.672 6.86404 110.396 7.66804 110.36 8.67604H115.616C115.64 8.48404 115.652 8.31604 115.652 8.17204C115.652 7.28404 115.436 6.59404 115.004 6.10204C114.572 5.61004 113.966 5.36404 113.186 5.36404ZM120.4 5.61604V11.376C120.4 12 120.532 12.462 120.796 12.762C121.06 13.05 121.468 13.194 122.02 13.194C122.38 13.194 122.788 13.128 123.244 12.996V13.788C122.74 13.956 122.278 14.04 121.858 14.04C121.03 14.04 120.4 13.818 119.968 13.374C119.536 12.918 119.32 12.246 119.32 11.358V5.61604H117.952V4.84204L119.356 4.78804L119.464 2.52004L120.4 2.41204V4.78804H123.118V5.61604H120.4ZM125.799 10.242L125.637 1.24204L126.789 1.09804L126.627 10.242H125.799ZM126.213 13.932C125.973 13.932 125.775 13.86 125.619 13.716C125.463 13.56 125.385 13.356 125.385 13.104C125.385 12.852 125.463 12.654 125.619 12.51C125.775 12.354 125.973 12.276 126.213 12.276C126.453 12.276 126.651 12.354 126.807 12.51C126.963 12.654 127.041 12.852 127.041 13.104C127.041 13.356 126.963 13.56 126.807 13.716C126.651 13.86 126.453 13.932 126.213 13.932ZM3.79801 37.842V26.16H1.09971e-05V25.242H8.73001V26.16H4.93201V37.842H3.79801ZM10.5057 37.842V24.324L11.5857 24.18V29.346C12.5937 28.794 13.5837 28.518 14.5557 28.518C15.5277 28.518 16.2777 28.77 16.8057 29.274C17.3457 29.778 17.6157 30.492 17.6157 31.416V37.842H16.5357V31.596C16.5357 30.12 15.7857 29.382 14.2857 29.382C13.8897 29.382 13.4517 29.448 12.9717 29.58C12.5037 29.712 12.0417 29.892 11.5857 30.12V37.842H10.5057ZM26.8796 37.518C26.0516 37.914 25.1636 38.112 24.2156 38.112C22.8356 38.112 21.7736 37.704 21.0296 36.888C20.2856 36.072 19.9136 34.902 19.9136 33.378C19.9136 31.866 20.2616 30.678 20.9576 29.814C21.6536 28.95 22.6076 28.518 23.8196 28.518C24.8876 28.518 25.7276 28.854 26.3396 29.526C26.9636 30.186 27.2756 31.092 27.2756 32.244C27.2756 32.676 27.2396 33.09 27.1676 33.486H20.9756C20.9876 35.994 22.0976 37.248 24.3056 37.248C25.1936 37.248 26.0516 37.056 26.8796 36.672V37.518ZM23.8016 29.364C22.9856 29.364 22.3196 29.664 21.8036 30.264C21.2876 30.864 21.0116 31.668 20.9756 32.676H26.2316C26.2556 32.484 26.2676 32.316 26.2676 32.172C26.2676 31.284 26.0516 30.594 25.6196 30.102C25.1876 29.61 24.5816 29.364 23.8016 29.364ZM34.4354 37.842V29.616H33.0674V28.842L34.4354 28.788V26.754C34.4354 25.866 34.6514 25.188 35.0834 24.72C35.5274 24.24 36.1694 24 37.0094 24C37.3934 24 37.7474 24.048 38.0714 24.144V24.954C37.7474 24.882 37.4414 24.846 37.1534 24.846C36.5894 24.846 36.1754 24.996 35.9114 25.296C35.6474 25.584 35.5154 26.04 35.5154 26.664V28.788H37.9454V29.616H35.5154V37.842H34.4354ZM39.9434 37.842V28.878L41.0234 28.734V37.842H39.9434ZM40.4834 26.592C40.2434 26.592 40.0454 26.52 39.8894 26.376C39.7454 26.232 39.6734 26.034 39.6734 25.782C39.6734 25.53 39.7454 25.332 39.8894 25.188C40.0454 25.044 40.2434 24.972 40.4834 24.972C40.7234 24.972 40.9154 25.044 41.0594 25.188C41.2154 25.332 41.2934 25.53 41.2934 25.782C41.2934 26.034 41.2154 26.232 41.0594 26.376C40.9154 26.52 40.7234 26.592 40.4834 26.592ZM50.0747 37.842V31.596C50.0747 30.12 49.3247 29.382 47.8247 29.382C47.4287 29.382 46.9907 29.448 46.5107 29.58C46.0427 29.712 45.5807 29.892 45.1247 30.12V37.842H44.0447V28.842L44.9627 28.752L45.0347 29.382C46.0787 28.806 47.0987 28.518 48.0947 28.518C49.0667 28.518 49.8167 28.77 50.3447 29.274C50.8847 29.778 51.1547 30.492 51.1547 31.416V37.842H50.0747ZM59.5907 37.878L59.5187 37.248C58.4867 37.824 57.4667 38.112 56.4587 38.112C55.5347 38.112 54.8027 37.872 54.2627 37.392C53.7227 36.9 53.4527 36.228 53.4527 35.376C53.4527 34.476 53.7527 33.792 54.3527 33.324C54.9647 32.844 55.8587 32.604 57.0347 32.604C57.7427 32.604 58.5467 32.688 59.4467 32.856V31.632C59.4467 30.132 58.6007 29.382 56.9087 29.382C56.4647 29.382 55.9787 29.442 55.4507 29.562C54.9227 29.682 54.4367 29.838 53.9927 30.03V29.184C54.4247 28.98 54.9167 28.818 55.4687 28.698C56.0327 28.578 56.5667 28.518 57.0707 28.518C58.1987 28.518 59.0507 28.788 59.6267 29.328C60.2147 29.856 60.5087 30.624 60.5087 31.632V37.788L59.5907 37.878ZM56.7107 37.248C57.1427 37.248 57.5987 37.182 58.0787 37.05C58.5587 36.918 59.0147 36.738 59.4467 36.51V33.63C58.6907 33.486 57.9467 33.414 57.2147 33.414C56.2907 33.414 55.6187 33.57 55.1987 33.882C54.7787 34.194 54.5687 34.686 54.5687 35.358C54.5687 36.618 55.2827 37.248 56.7107 37.248ZM63.3983 37.842V24.324L64.4783 24.18V37.842H63.3983ZM72.264 37.842V25.242H79.518V26.16H73.398V31.272H78.744V32.19H73.398V37.842H72.264ZM84.483 38.112C83.175 38.112 82.185 37.71 81.513 36.906C80.853 36.09 80.523 34.89 80.523 33.306C80.523 31.734 80.853 30.546 81.513 29.742C82.185 28.926 83.175 28.518 84.483 28.518C85.791 28.518 86.775 28.926 87.435 29.742C88.107 30.546 88.443 31.734 88.443 33.306C88.443 34.89 88.107 36.09 87.435 36.906C86.775 37.71 85.791 38.112 84.483 38.112ZM84.483 37.248C85.467 37.248 86.181 36.936 86.625 36.312C87.081 35.676 87.309 34.674 87.309 33.306C87.309 31.95 87.081 30.96 86.625 30.336C86.181 29.7 85.467 29.382 84.483 29.382C83.499 29.382 82.779 29.7 82.323 30.336C81.879 30.96 81.657 31.95 81.657 33.306C81.657 34.674 81.879 35.676 82.323 36.312C82.779 36.936 83.499 37.248 84.483 37.248ZM91.8269 28.788V35.034C91.8269 36.51 92.5529 37.248 94.0049 37.248C94.4009 37.248 94.8329 37.182 95.3009 37.05C95.7809 36.918 96.2489 36.738 96.7049 36.51V28.788H97.7849V37.788L96.8669 37.878L96.7949 37.248C95.7509 37.824 94.7309 38.112 93.7349 38.112C92.7869 38.112 92.0489 37.86 91.5209 37.356C91.0049 36.84 90.7469 36.126 90.7469 35.214V28.788H91.8269ZM100.805 37.842V28.842L101.723 28.752L101.813 29.562C102.617 28.902 103.475 28.572 104.387 28.572C104.711 28.572 104.969 28.608 105.161 28.68V29.562C104.849 29.49 104.573 29.454 104.333 29.454C103.481 29.454 102.665 29.76 101.885 30.372V37.842H100.805ZM109.998 33.252C109.206 33.252 108.492 33.06 107.856 32.676C107.232 32.292 106.746 31.788 106.398 31.164C106.05 30.528 105.876 29.844 105.876 29.112C105.876 28.32 106.068 27.606 106.452 26.97C106.836 26.334 107.34 25.842 107.964 25.494C108.588 25.146 109.266 24.972 109.998 24.972C110.79 24.972 111.498 25.164 112.122 25.548C112.758 25.932 113.25 26.442 113.598 27.078C113.946 27.702 114.12 28.38 114.12 29.112C114.12 29.904 113.928 30.618 113.544 31.254C113.16 31.89 112.656 32.382 112.032 32.73C111.408 33.078 110.73 33.252 109.998 33.252ZM109.998 32.622C110.658 32.622 111.246 32.466 111.762 32.154C112.29 31.83 112.692 31.404 112.968 30.876C113.256 30.348 113.4 29.76 113.4 29.112C113.4 28.428 113.244 27.816 112.932 27.276C112.62 26.736 112.206 26.322 111.69 26.034C111.174 25.746 110.61 25.602 109.998 25.602C109.338 25.602 108.744 25.764 108.216 26.088C107.7 26.4 107.298 26.82 107.01 27.348C106.734 27.876 106.596 28.464 106.596 29.112C106.596 29.796 106.752 30.408 107.064 30.948C107.376 31.488 107.79 31.902 108.306 32.19C108.822 32.478 109.386 32.622 109.998 32.622ZM111.078 31.308L109.962 29.508H109.206V31.308H108.594V26.898C109.098 26.814 109.542 26.772 109.926 26.772C110.442 26.772 110.844 26.898 111.132 27.15C111.432 27.39 111.582 27.72 111.582 28.14C111.582 28.788 111.246 29.214 110.574 29.418L111.78 31.308H111.078ZM109.206 29.022H109.836C110.184 29.022 110.454 28.944 110.646 28.788C110.85 28.632 110.952 28.416 110.952 28.14C110.952 27.864 110.856 27.654 110.664 27.51C110.484 27.354 110.22 27.276 109.872 27.276C109.668 27.276 109.446 27.294 109.206 27.33V29.022ZM120.527 37.842V28.878L121.607 28.734V37.842H120.527ZM121.067 26.592C120.827 26.592 120.629 26.52 120.473 26.376C120.329 26.232 120.257 26.034 120.257 25.782C120.257 25.53 120.329 25.332 120.473 25.188C120.629 25.044 120.827 24.972 121.067 24.972C121.307 24.972 121.499 25.044 121.643 25.188C121.799 25.332 121.877 25.53 121.877 25.782C121.877 26.034 121.799 26.232 121.643 26.376C121.499 26.52 121.307 26.592 121.067 26.592ZM123.921 36.654C124.821 37.05 125.751 37.248 126.711 37.248C128.331 37.248 129.141 36.618 129.141 35.358C129.141 34.95 129.021 34.62 128.781 34.368C128.553 34.116 128.169 33.906 127.629 33.738L126.261 33.306C125.493 33.066 124.935 32.766 124.587 32.406C124.239 32.034 124.065 31.566 124.065 31.002C124.065 30.246 124.359 29.646 124.947 29.202C125.547 28.746 126.351 28.518 127.359 28.518C128.211 28.518 129.021 28.68 129.789 29.004V29.85C128.985 29.538 128.193 29.382 127.413 29.382C126.705 29.382 126.147 29.526 125.739 29.814C125.343 30.09 125.145 30.474 125.145 30.966C125.145 31.314 125.253 31.596 125.469 31.812C125.697 32.016 126.099 32.214 126.675 32.406L128.097 32.874C128.829 33.114 129.363 33.432 129.699 33.828C130.047 34.224 130.221 34.728 130.221 35.34C130.221 36.228 129.921 36.912 129.321 37.392C128.721 37.872 127.875 38.112 126.783 38.112C125.775 38.112 124.869 37.926 124.065 37.554L123.921 36.654ZM142.595 37.878L142.523 37.248C141.491 37.824 140.471 38.112 139.463 38.112C138.539 38.112 137.807 37.872 137.267 37.392C136.727 36.9 136.457 36.228 136.457 35.376C136.457 34.476 136.757 33.792 137.357 33.324C137.969 32.844 138.863 32.604 140.039 32.604C140.747 32.604 141.551 32.688 142.451 32.856V31.632C142.451 30.132 141.605 29.382 139.913 29.382C139.469 29.382 138.983 29.442 138.455 29.562C137.927 29.682 137.441 29.838 136.997 30.03V29.184C137.429 28.98 137.921 28.818 138.473 28.698C139.037 28.578 139.571 28.518 140.075 28.518C141.203 28.518 142.055 28.788 142.631 29.328C143.219 29.856 143.513 30.624 143.513 31.632V37.788L142.595 37.878ZM139.715 37.248C140.147 37.248 140.603 37.182 141.083 37.05C141.563 36.918 142.019 36.738 142.451 36.51V33.63C141.695 33.486 140.951 33.414 140.219 33.414C139.295 33.414 138.623 33.57 138.203 33.882C137.783 34.194 137.573 34.686 137.573 35.358C137.573 36.618 138.287 37.248 139.715 37.248ZM146.654 37.842V29.616H145.286V28.842L146.654 28.788V26.754C146.654 25.866 146.87 25.188 147.302 24.72C147.746 24.24 148.388 24 149.228 24C149.612 24 149.966 24.048 150.29 24.144V24.954C149.966 24.882 149.66 24.846 149.372 24.846C148.808 24.846 148.394 24.996 148.13 25.296C147.866 25.584 147.734 26.04 147.734 26.664V28.788H150.164V29.616H147.734V37.842H146.654ZM152.162 37.842V24.324L153.242 24.18V37.842H152.162ZM161.807 37.878L161.735 37.248C160.703 37.824 159.683 38.112 158.675 38.112C157.751 38.112 157.019 37.872 156.479 37.392C155.939 36.9 155.669 36.228 155.669 35.376C155.669 34.476 155.969 33.792 156.569 33.324C157.181 32.844 158.075 32.604 159.251 32.604C159.959 32.604 160.763 32.688 161.663 32.856V31.632C161.663 30.132 160.817 29.382 159.125 29.382C158.681 29.382 158.195 29.442 157.667 29.562C157.139 29.682 156.653 29.838 156.209 30.03V29.184C156.641 28.98 157.133 28.818 157.685 28.698C158.249 28.578 158.783 28.518 159.287 28.518C160.415 28.518 161.267 28.788 161.843 29.328C162.431 29.856 162.725 30.624 162.725 31.632V37.788L161.807 37.878ZM158.927 37.248C159.359 37.248 159.815 37.182 160.295 37.05C160.775 36.918 161.231 36.738 161.663 36.51V33.63C160.907 33.486 160.163 33.414 159.431 33.414C158.507 33.414 157.835 33.57 157.415 33.882C156.995 34.194 156.785 34.686 156.785 35.358C156.785 36.618 157.499 37.248 158.927 37.248ZM176.451 37.842V31.416C176.451 30.06 175.809 29.382 174.525 29.382C173.781 29.382 172.929 29.652 171.969 30.192C172.065 30.516 172.113 30.864 172.113 31.236V37.842H171.033V31.416C171.033 30.06 170.391 29.382 169.107 29.382C168.387 29.382 167.583 29.628 166.695 30.12V37.842H165.615V28.842L166.533 28.752L166.605 29.382C167.625 28.806 168.549 28.518 169.377 28.518C170.433 28.518 171.195 28.866 171.663 29.562C172.827 28.866 173.871 28.518 174.795 28.518C175.671 28.518 176.343 28.752 176.811 29.22C177.291 29.688 177.531 30.36 177.531 31.236V37.842H176.451ZM186.805 37.518C185.977 37.914 185.089 38.112 184.141 38.112C182.761 38.112 181.699 37.704 180.955 36.888C180.211 36.072 179.839 34.902 179.839 33.378C179.839 31.866 180.187 30.678 180.883 29.814C181.579 28.95 182.533 28.518 183.745 28.518C184.813 28.518 185.653 28.854 186.265 29.526C186.889 30.186 187.201 31.092 187.201 32.244C187.201 32.676 187.165 33.09 187.093 33.486H180.901C180.913 35.994 182.023 37.248 184.231 37.248C185.119 37.248 185.977 37.056 186.805 36.672V37.518ZM183.727 29.364C182.911 29.364 182.245 29.664 181.729 30.264C181.213 30.864 180.937 31.668 180.901 32.676H186.157C186.181 32.484 186.193 32.316 186.193 32.172C186.193 31.284 185.977 30.594 185.545 30.102C185.113 29.61 184.507 29.364 183.727 29.364ZM190.293 34.242L190.131 25.242L191.283 25.098L191.121 34.242H190.293ZM190.707 37.932C190.467 37.932 190.269 37.86 190.113 37.716C189.957 37.56 189.879 37.356 189.879 37.104C189.879 36.852 189.957 36.654 190.113 36.51C190.269 36.354 190.467 36.276 190.707 36.276C190.947 36.276 191.145 36.354 191.301 36.51C191.457 36.654 191.535 36.852 191.535 37.104C191.535 37.356 191.457 37.56 191.301 37.716C191.145 37.86 190.947 37.932 190.707 37.932Z" fill="#013D5B"/>
</svg>
