<svg width="291" height="51" viewBox="0 0 291 51" fill="none" xmlns="http://www.w3.org/2000/svg">
<path d="M2.07901 20.493V1.998C2.87101 1.836 3.74401 1.701 4.69801 1.593C5.67001 1.485 6.49801 1.431 7.18201 1.431C9.25201 1.431 10.89 1.935 12.096 2.943C13.302 3.951 13.905 5.319 13.905 7.047C13.905 8.433 13.518 9.585 12.744 10.503C11.988 11.421 10.899 12.051 9.47701 12.393L14.823 20.493H12.825L7.80301 12.663C7.65901 12.681 7.50601 12.69 7.34401 12.69C7.20001 12.69 7.04701 12.69 6.88501 12.69H3.75301V20.493H2.07901ZM6.99301 2.781C6.05701 2.781 4.97701 2.889 3.75301 3.105V11.34H6.85801C8.58601 11.34 9.90001 10.98 10.8 10.26C11.718 9.522 12.177 8.451 12.177 7.047C12.177 5.661 11.736 4.608 10.854 3.888C9.97201 3.15 8.68501 2.781 6.99301 2.781ZM25.6521 20.547L25.5441 19.602C23.9961 20.466 22.4661 20.898 20.9541 20.898C19.5681 20.898 18.4701 20.538 17.6601 19.818C16.8501 19.08 16.4451 18.072 16.4451 16.794C16.4451 15.444 16.8951 14.418 17.7951 13.716C18.7131 12.996 20.0541 12.636 21.8181 12.636C22.8801 12.636 24.0861 12.762 25.4361 13.014V11.178C25.4361 8.928 24.1671 7.803 21.6291 7.803C20.9631 7.803 20.2341 7.893 19.4421 8.073C18.6501 8.253 17.9211 8.487 17.2551 8.775V7.506C17.9031 7.2 18.6411 6.957 19.4691 6.777C20.3151 6.597 21.1161 6.507 21.8721 6.507C23.5641 6.507 24.8421 6.912 25.7061 7.722C26.5881 8.514 27.0291 9.666 27.0291 11.178V20.412L25.6521 20.547ZM21.3321 19.602C21.9801 19.602 22.6641 19.503 23.3841 19.305C24.1041 19.107 24.7881 18.837 25.4361 18.495V14.175C24.3021 13.959 23.1861 13.851 22.0881 13.851C20.7021 13.851 19.6941 14.085 19.0641 14.553C18.4341 15.021 18.1191 15.759 18.1191 16.767C18.1191 18.657 19.1901 19.602 21.3321 19.602ZM40.3275 20.007C39.1395 20.601 37.8435 20.898 36.4395 20.898C34.5315 20.898 33.0555 20.277 32.0115 19.035C30.9855 17.793 30.4725 16.02 30.4725 13.716C30.4725 11.412 30.9855 9.639 32.0115 8.397C33.0555 7.137 34.5315 6.507 36.4395 6.507C37.7895 6.507 39.0675 6.804 40.2735 7.398V8.667C39.0135 8.109 37.7895 7.83 36.6015 7.83C35.1435 7.83 34.0365 8.325 33.2805 9.315C32.5425 10.305 32.1735 11.772 32.1735 13.716C32.1735 15.642 32.5425 17.1 33.2805 18.09C34.0365 19.08 35.1435 19.575 36.6015 19.575C37.8255 19.575 39.0675 19.296 40.3275 18.738V20.007ZM43.8088 20.493V0.216001L45.4288 2.38419e-07V12.933L51.8008 6.912H53.7178L47.0488 13.23L53.9338 20.493H51.8818L45.4288 13.635V20.493H43.8088ZM64.4087 6.912V16.281C64.4087 18.495 65.4977 19.602 67.6757 19.602C68.2697 19.602 68.9177 19.503 69.6197 19.305C70.3397 19.107 71.0417 18.837 71.7257 18.495V6.912H73.3457V20.412L71.9687 20.547L71.8607 19.602C70.2947 20.466 68.7647 20.898 67.2707 20.898C65.8487 20.898 64.7417 20.52 63.9497 19.764C63.1757 18.99 62.7887 17.919 62.7887 16.551V6.912H64.4087ZM77.8752 26.514V6.993L79.2522 6.858L79.3602 7.803C80.8902 6.939 82.2942 6.507 83.5722 6.507C85.3362 6.507 86.7222 7.128 87.7302 8.37C88.7382 9.594 89.2422 11.295 89.2422 13.473C89.2422 15.867 88.6662 17.703 87.5142 18.981C86.3802 20.259 84.7332 20.898 82.5732 20.898C81.4572 20.898 80.4312 20.754 79.4952 20.466V26.298L77.8752 26.514ZM83.3562 7.803C82.7622 7.803 82.1232 7.902 81.4392 8.1C80.7552 8.298 80.1072 8.568 79.4952 8.91V19.17C80.4312 19.458 81.4122 19.602 82.4382 19.602C84.1662 19.602 85.4442 19.107 86.2722 18.117C87.1182 17.109 87.5412 15.57 87.5412 13.5C87.5412 11.646 87.1812 10.233 86.4612 9.261C85.7592 8.289 84.7242 7.803 83.3562 7.803ZM97.8191 18.441C99.4031 19.215 101.032 19.602 102.706 19.602C104.218 19.602 105.424 19.233 106.324 18.495C107.224 17.757 107.674 16.758 107.674 15.498C107.674 14.274 107.251 13.293 106.405 12.555C105.559 11.817 104.416 11.448 102.976 11.448H101.383V10.152H102.922C104.218 10.152 105.244 9.828 106 9.18C106.756 8.532 107.134 7.659 107.134 6.561C107.134 5.409 106.747 4.509 105.973 3.861C105.199 3.213 104.128 2.889 102.76 2.889C101.32 2.889 99.9071 3.186 98.5211 3.78V2.484C99.8171 1.89 101.275 1.593 102.895 1.593C104.641 1.593 106.063 2.052 107.161 2.97C108.277 3.87 108.835 5.031 108.835 6.453C108.835 7.497 108.529 8.397 107.917 9.153C107.323 9.909 106.486 10.449 105.406 10.773C106.648 11.079 107.62 11.664 108.322 12.528C109.024 13.374 109.375 14.382 109.375 15.552C109.375 16.614 109.087 17.559 108.511 18.387C107.953 19.197 107.179 19.818 106.189 20.25C105.217 20.682 104.11 20.898 102.868 20.898C102.004 20.898 101.14 20.799 100.276 20.601C99.4121 20.421 98.6741 20.169 98.0621 19.845L97.8191 18.441ZM117.556 20.493L127.33 1.998H128.788L119.014 20.493H117.556ZM116.26 12.636C117.214 12.636 117.916 12.24 118.366 11.448C118.834 10.656 119.068 9.414 119.068 7.722C119.068 6.03 118.834 4.788 118.366 3.996C117.916 3.204 117.214 2.808 116.26 2.808C115.306 2.808 114.595 3.204 114.127 3.996C113.677 4.788 113.452 6.03 113.452 7.722C113.452 9.414 113.677 10.656 114.127 11.448C114.595 12.24 115.306 12.636 116.26 12.636ZM116.26 13.716C114.874 13.716 113.812 13.212 113.074 12.204C112.336 11.178 111.967 9.684 111.967 7.722C111.967 5.76 112.336 4.275 113.074 3.267C113.812 2.241 114.874 1.728 116.26 1.728C117.646 1.728 118.708 2.241 119.446 3.267C120.184 4.275 120.553 5.76 120.553 7.722C120.553 9.684 120.184 11.178 119.446 12.204C118.708 13.212 117.646 13.716 116.26 13.716ZM130.084 19.683C131.038 19.683 131.74 19.287 132.19 18.495C132.658 17.703 132.892 16.461 132.892 14.769C132.892 13.077 132.658 11.835 132.19 11.043C131.74 10.251 131.038 9.855 130.084 9.855C129.13 9.855 128.419 10.251 127.951 11.043C127.501 11.835 127.276 13.077 127.276 14.769C127.276 16.461 127.501 17.703 127.951 18.495C128.419 19.287 129.13 19.683 130.084 19.683ZM130.084 20.763C128.698 20.763 127.636 20.259 126.898 19.251C126.16 18.225 125.791 16.731 125.791 14.769C125.791 12.807 126.16 11.322 126.898 10.314C127.636 9.288 128.698 8.775 130.084 8.775C131.47 8.775 132.532 9.288 133.27 10.314C134.008 11.322 134.377 12.807 134.377 14.769C134.377 16.731 134.008 18.225 133.27 19.251C132.532 20.259 131.47 20.763 130.084 20.763ZM153.469 20.007C152.281 20.601 150.985 20.898 149.581 20.898C147.673 20.898 146.197 20.277 145.153 19.035C144.127 17.793 143.614 16.02 143.614 13.716C143.614 11.412 144.127 9.639 145.153 8.397C146.197 7.137 147.673 6.507 149.581 6.507C150.931 6.507 152.209 6.804 153.415 7.398V8.667C152.155 8.109 150.931 7.83 149.743 7.83C148.285 7.83 147.178 8.325 146.422 9.315C145.684 10.305 145.315 11.772 145.315 13.716C145.315 15.642 145.684 17.1 146.422 18.09C147.178 19.08 148.285 19.575 149.743 19.575C150.967 19.575 152.209 19.296 153.469 18.738V20.007ZM165.266 20.547L165.158 19.602C163.61 20.466 162.08 20.898 160.568 20.898C159.182 20.898 158.084 20.538 157.274 19.818C156.464 19.08 156.059 18.072 156.059 16.794C156.059 15.444 156.509 14.418 157.409 13.716C158.327 12.996 159.668 12.636 161.432 12.636C162.494 12.636 163.7 12.762 165.05 13.014V11.178C165.05 8.928 163.781 7.803 161.243 7.803C160.577 7.803 159.848 7.893 159.056 8.073C158.264 8.253 157.535 8.487 156.869 8.775V7.506C157.517 7.2 158.255 6.957 159.083 6.777C159.929 6.597 160.73 6.507 161.486 6.507C163.178 6.507 164.456 6.912 165.32 7.722C166.202 8.514 166.643 9.666 166.643 11.178V20.412L165.266 20.547ZM160.946 19.602C161.594 19.602 162.278 19.503 162.998 19.305C163.718 19.107 164.402 18.837 165.05 18.495V14.175C163.916 13.959 162.8 13.851 161.702 13.851C160.316 13.851 159.308 14.085 158.678 14.553C158.048 15.021 157.733 15.759 157.733 16.767C157.733 18.657 158.804 19.602 160.946 19.602ZM169.925 18.711C171.275 19.305 172.67 19.602 174.11 19.602C176.54 19.602 177.755 18.657 177.755 16.767C177.755 16.155 177.575 15.66 177.215 15.282C176.873 14.904 176.297 14.589 175.487 14.337L173.435 13.689C172.283 13.329 171.446 12.879 170.924 12.339C170.402 11.781 170.141 11.079 170.141 10.233C170.141 9.099 170.582 8.199 171.464 7.533C172.364 6.849 173.57 6.507 175.082 6.507C176.36 6.507 177.575 6.75 178.727 7.236V8.505C177.521 8.037 176.333 7.803 175.163 7.803C174.101 7.803 173.264 8.019 172.652 8.451C172.058 8.865 171.761 9.441 171.761 10.179C171.761 10.701 171.923 11.124 172.247 11.448C172.589 11.754 173.192 12.051 174.056 12.339L176.189 13.041C177.287 13.401 178.088 13.878 178.592 14.472C179.114 15.066 179.375 15.822 179.375 16.74C179.375 18.072 178.925 19.098 178.025 19.818C177.125 20.538 175.856 20.898 174.218 20.898C172.706 20.898 171.347 20.619 170.141 20.061L169.925 18.711ZM182.869 20.493V0.216001L184.489 2.38419e-07V7.749C186.001 6.921 187.486 6.507 188.944 6.507C190.402 6.507 191.527 6.885 192.319 7.641C193.129 8.397 193.534 9.468 193.534 10.854V20.493H191.914V11.124C191.914 8.91 190.789 7.803 188.539 7.803C187.945 7.803 187.288 7.902 186.568 8.1C185.866 8.298 185.173 8.568 184.489 8.91V20.493H182.869ZM206.242 7.722C206.926 7.344 207.619 7.047 208.321 6.831C209.041 6.615 209.707 6.507 210.319 6.507C212.083 6.507 213.469 7.128 214.477 8.37C215.485 9.594 215.989 11.295 215.989 13.473C215.989 15.867 215.413 17.703 214.261 18.981C213.127 20.259 211.48 20.898 209.32 20.898C207.79 20.898 206.224 20.646 204.622 20.142V0.216001L206.242 2.38419e-07V7.722ZM210.103 7.803C209.509 7.803 208.87 7.902 208.186 8.1C207.502 8.298 206.854 8.568 206.242 8.91V19.17C207.178 19.458 208.159 19.602 209.185 19.602C210.913 19.602 212.191 19.107 213.019 18.117C213.865 17.109 214.288 15.57 214.288 13.5C214.288 11.646 213.928 10.233 213.208 9.261C212.506 8.289 211.471 7.803 210.103 7.803ZM227.941 20.547L227.833 19.602C226.285 20.466 224.755 20.898 223.243 20.898C221.857 20.898 220.759 20.538 219.949 19.818C219.139 19.08 218.734 18.072 218.734 16.794C218.734 15.444 219.184 14.418 220.084 13.716C221.002 12.996 222.343 12.636 224.107 12.636C225.169 12.636 226.375 12.762 227.725 13.014V11.178C227.725 8.928 226.456 7.803 223.918 7.803C223.252 7.803 222.523 7.893 221.731 8.073C220.939 8.253 220.21 8.487 219.544 8.775V7.506C220.192 7.2 220.93 6.957 221.758 6.777C222.604 6.597 223.405 6.507 224.161 6.507C225.853 6.507 227.131 6.912 227.995 7.722C228.877 8.514 229.318 9.666 229.318 11.178V20.412L227.941 20.547ZM223.621 19.602C224.269 19.602 224.953 19.503 225.673 19.305C226.393 19.107 227.077 18.837 227.725 18.495V14.175C226.591 13.959 225.475 13.851 224.377 13.851C222.991 13.851 221.983 14.085 221.353 14.553C220.723 15.021 220.408 15.759 220.408 16.767C220.408 18.657 221.479 19.602 223.621 19.602ZM242.617 20.007C241.429 20.601 240.133 20.898 238.729 20.898C236.821 20.898 235.345 20.277 234.301 19.035C233.275 17.793 232.762 16.02 232.762 13.716C232.762 11.412 233.275 9.639 234.301 8.397C235.345 7.137 236.821 6.507 238.729 6.507C240.079 6.507 241.357 6.804 242.563 7.398V8.667C241.303 8.109 240.079 7.83 238.891 7.83C237.433 7.83 236.326 8.325 235.57 9.315C234.832 10.305 234.463 11.772 234.463 13.716C234.463 15.642 234.832 17.1 235.57 18.09C236.326 19.08 237.433 19.575 238.891 19.575C240.115 19.575 241.357 19.296 242.617 18.738V20.007ZM246.098 20.493V0.216001L247.718 2.38419e-07V12.933L254.09 6.912H256.007L249.338 13.23L256.223 20.493H254.171L247.718 13.635V20.493H246.098ZM270.316 20.898C268.354 20.898 266.869 20.295 265.861 19.089C264.871 17.865 264.376 16.065 264.376 13.689C264.376 11.331 264.871 9.549 265.861 8.343C266.869 7.119 268.354 6.507 270.316 6.507C272.278 6.507 273.754 7.119 274.744 8.343C275.752 9.549 276.256 11.331 276.256 13.689C276.256 16.065 275.752 17.865 274.744 19.089C273.754 20.295 272.278 20.898 270.316 20.898ZM270.316 19.602C271.792 19.602 272.863 19.134 273.529 18.198C274.213 17.244 274.555 15.741 274.555 13.689C274.555 11.655 274.213 10.17 273.529 9.234C272.863 8.28 271.792 7.803 270.316 7.803C268.84 7.803 267.76 8.28 267.076 9.234C266.41 10.17 266.077 11.655 266.077 13.689C266.077 15.741 266.41 17.244 267.076 18.198C267.76 19.134 268.84 19.602 270.316 19.602ZM288.946 20.493V11.124C288.946 8.91 287.821 7.803 285.571 7.803C284.977 7.803 284.32 7.902 283.6 8.1C282.898 8.298 282.205 8.568 281.521 8.91V20.493H279.901V6.993L281.278 6.858L281.386 7.803C282.952 6.939 284.482 6.507 285.976 6.507C287.434 6.507 288.559 6.885 289.351 7.641C290.161 8.397 290.566 9.468 290.566 10.854V20.493H288.946ZM2.05201 50.493V38.154H5.90645e-06V36.993L2.05201 36.912V33.861C2.05201 32.529 2.37601 31.512 3.02401 30.81C3.69001 30.09 4.65301 29.73 5.91301 29.73C6.59701 29.73 7.29001 29.856 7.99201 30.108V31.296C7.34401 31.098 6.72301 30.999 6.12901 30.999C5.28301 30.999 4.66201 31.224 4.26601 31.674C3.87001 32.106 3.67201 32.79 3.67201 33.726V36.912H7.31701V38.154H3.67201V50.493H2.05201ZM15.1078 50.898C13.1458 50.898 11.6608 50.295 10.6528 49.089C9.66277 47.865 9.16777 46.065 9.16777 43.689C9.16777 41.331 9.66277 39.549 10.6528 38.343C11.6608 37.119 13.1458 36.507 15.1078 36.507C17.0698 36.507 18.5458 37.119 19.5358 38.343C20.5438 39.549 21.0478 41.331 21.0478 43.689C21.0478 46.065 20.5438 47.865 19.5358 49.089C18.5458 50.295 17.0698 50.898 15.1078 50.898ZM15.1078 49.602C16.5838 49.602 17.6548 49.134 18.3208 48.198C19.0048 47.244 19.3468 45.741 19.3468 43.689C19.3468 41.655 19.0048 40.17 18.3208 39.234C17.6548 38.28 16.5838 37.803 15.1078 37.803C13.6318 37.803 12.5518 38.28 11.8678 39.234C11.2018 40.17 10.8688 41.655 10.8688 43.689C10.8688 45.741 11.2018 47.244 11.8678 48.198C12.5518 49.134 13.6318 49.602 15.1078 49.602ZM29.7416 50.898C27.7796 50.898 26.2946 50.295 25.2866 49.089C24.2966 47.865 23.8016 46.065 23.8016 43.689C23.8016 41.331 24.2966 39.549 25.2866 38.343C26.2946 37.119 27.7796 36.507 29.7416 36.507C31.7036 36.507 33.1796 37.119 34.1696 38.343C35.1776 39.549 35.6816 41.331 35.6816 43.689C35.6816 46.065 35.1776 47.865 34.1696 49.089C33.1796 50.295 31.7036 50.898 29.7416 50.898ZM29.7416 49.602C31.2176 49.602 32.2886 49.134 32.9546 48.198C33.6386 47.244 33.9806 45.741 33.9806 43.689C33.9806 41.655 33.6386 40.17 32.9546 39.234C32.2886 38.28 31.2176 37.803 29.7416 37.803C28.2656 37.803 27.1856 38.28 26.5016 39.234C25.8356 40.17 25.5026 41.655 25.5026 43.689C25.5026 45.741 25.8356 47.244 26.5016 48.198C27.1856 49.134 28.2656 49.602 29.7416 49.602ZM49.8024 30V50.412L48.4254 50.547L48.3174 49.602C46.7874 50.466 45.3833 50.898 44.1053 50.898C42.3413 50.898 40.9553 50.286 39.9473 49.062C38.9393 47.82 38.4353 46.11 38.4353 43.932C38.4353 41.538 39.0023 39.702 40.1363 38.424C41.2883 37.146 42.9443 36.507 45.1043 36.507C46.2203 36.507 47.2464 36.651 48.1824 36.939V30.216L49.8024 30ZM44.3214 49.602C44.9154 49.602 45.5543 49.503 46.2383 49.305C46.9224 49.107 47.5704 48.837 48.1824 48.495V38.235C47.2464 37.947 46.2653 37.803 45.2393 37.803C43.5113 37.803 42.2244 38.307 41.3783 39.315C40.5503 40.305 40.1363 41.835 40.1363 43.905C40.1363 45.759 40.4873 47.172 41.1893 48.144C41.9093 49.116 42.9533 49.602 44.3214 49.602ZM69.3953 50.547L69.2873 49.602C67.7393 50.466 66.2093 50.898 64.6973 50.898C63.3113 50.898 62.2133 50.538 61.4033 49.818C60.5933 49.08 60.1883 48.072 60.1883 46.794C60.1883 45.444 60.6383 44.418 61.5383 43.716C62.4563 42.996 63.7973 42.636 65.5613 42.636C66.6233 42.636 67.8293 42.762 69.1793 43.014V41.178C69.1793 38.928 67.9103 37.803 65.3723 37.803C64.7063 37.803 63.9773 37.893 63.1853 38.073C62.3933 38.253 61.6643 38.487 60.9983 38.775V37.506C61.6463 37.2 62.3843 36.957 63.2123 36.777C64.0583 36.597 64.8593 36.507 65.6153 36.507C67.3073 36.507 68.5853 36.912 69.4493 37.722C70.3313 38.514 70.7723 39.666 70.7723 41.178V50.412L69.3953 50.547ZM65.0753 49.602C65.7233 49.602 66.4073 49.503 67.1273 49.305C67.8473 49.107 68.5313 48.837 69.1793 48.495V44.175C68.0453 43.959 66.9293 43.851 65.8313 43.851C64.4453 43.851 63.4373 44.085 62.8073 44.553C62.1773 45.021 61.8623 45.759 61.8623 46.767C61.8623 48.657 62.9333 49.602 65.0753 49.602ZM84.1516 50.493V41.124C84.1516 38.91 83.0266 37.803 80.7766 37.803C80.1826 37.803 79.5256 37.902 78.8056 38.1C78.1036 38.298 77.4106 38.568 76.7266 38.91V50.493H75.1066V36.993L76.4836 36.858L76.5916 37.803C78.1576 36.939 79.6876 36.507 81.1816 36.507C82.6396 36.507 83.7646 36.885 84.5566 37.641C85.3666 38.397 85.7716 39.468 85.7716 40.854V50.493H84.1516ZM100.586 30V50.412L99.2086 50.547L99.1006 49.602C97.5706 50.466 96.1666 50.898 94.8886 50.898C93.1246 50.898 91.7386 50.286 90.7306 49.062C89.7226 47.82 89.2186 46.11 89.2186 43.932C89.2186 41.538 89.7856 39.702 90.9196 38.424C92.0716 37.146 93.7276 36.507 95.8876 36.507C97.0036 36.507 98.0296 36.651 98.9656 36.939V30.216L100.586 30ZM95.1046 49.602C95.6986 49.602 96.3376 49.503 97.0216 49.305C97.7056 49.107 98.3536 48.837 98.9656 48.495V38.235C98.0296 37.947 97.0486 37.803 96.0226 37.803C94.2946 37.803 93.0076 38.307 92.1616 39.315C91.3336 40.305 90.9196 41.835 90.9196 43.905C90.9196 45.759 91.2706 47.172 91.9726 48.144C92.6926 49.116 93.7366 49.602 95.1046 49.602ZM112.24 50.493V38.154H110.188V36.993L112.24 36.912V33.861C112.24 32.529 112.564 31.512 113.212 30.81C113.878 30.09 114.841 29.73 116.101 29.73C116.785 29.73 117.478 29.856 118.18 30.108V31.296C117.532 31.098 116.911 30.999 116.317 30.999C115.471 30.999 114.85 31.224 114.454 31.674C114.058 32.106 113.86 32.79 113.86 33.726V36.912H117.505V38.154H113.86V50.493H112.24ZM121.942 36.912V46.281C121.942 48.495 123.031 49.602 125.209 49.602C125.803 49.602 126.451 49.503 127.153 49.305C127.873 49.107 128.575 48.837 129.259 48.495V36.912H130.879V50.412L129.502 50.547L129.394 49.602C127.828 50.466 126.298 50.898 124.804 50.898C123.382 50.898 122.275 50.52 121.483 49.764C120.709 48.99 120.322 47.919 120.322 46.551V36.912H121.942ZM144.453 50.493V41.124C144.453 38.91 143.328 37.803 141.078 37.803C140.484 37.803 139.827 37.902 139.107 38.1C138.405 38.298 137.712 38.568 137.028 38.91V50.493H135.408V36.993L136.785 36.858L136.893 37.803C138.459 36.939 139.989 36.507 141.483 36.507C142.941 36.507 144.066 36.885 144.858 37.641C145.668 38.397 146.073 39.468 146.073 40.854V50.493H144.453ZM168.231 50.493L164.586 38.721L161.049 50.493H159.51L155.19 36.912H156.837L160.293 48.495L163.695 36.912H165.504L168.96 48.576L172.389 36.912H173.955L169.77 50.493H168.231ZM176.515 50.493V37.047L178.135 36.831V50.493H176.515ZM177.325 33.618C176.965 33.618 176.668 33.51 176.434 33.294C176.218 33.078 176.11 32.781 176.11 32.403C176.11 32.025 176.218 31.728 176.434 31.512C176.668 31.296 176.965 31.188 177.325 31.188C177.685 31.188 177.973 31.296 178.189 31.512C178.423 31.728 178.54 32.025 178.54 32.403C178.54 32.781 178.423 33.078 178.189 33.294C177.973 33.51 177.685 33.618 177.325 33.618ZM184.656 38.154V46.794C184.656 47.73 184.854 48.423 185.25 48.873C185.646 49.305 186.258 49.521 187.086 49.521C187.626 49.521 188.238 49.422 188.922 49.224V50.412C188.166 50.664 187.473 50.79 186.843 50.79C185.601 50.79 184.656 50.457 184.008 49.791C183.36 49.107 183.036 48.099 183.036 46.767V38.154H180.984V36.993L183.09 36.912L183.252 33.51L184.656 33.348V36.912H188.733V38.154H184.656ZM191.729 50.493V30.216L193.349 30V37.749C194.861 36.921 196.346 36.507 197.804 36.507C199.262 36.507 200.387 36.885 201.179 37.641C201.989 38.397 202.394 39.468 202.394 40.854V50.493H200.774V41.124C200.774 38.91 199.649 37.803 197.399 37.803C196.805 37.803 196.148 37.902 195.428 38.1C194.726 38.298 194.033 38.568 193.349 38.91V50.493H191.729ZM212.402 48.279C214.292 49.107 216.083 49.521 217.775 49.521C219.377 49.521 220.61 49.17 221.474 48.468C222.356 47.748 222.797 46.722 222.797 45.39C222.797 44.382 222.509 43.572 221.933 42.96C221.357 42.348 220.394 41.835 219.044 41.421L217.127 40.827C215.651 40.377 214.571 39.792 213.887 39.072C213.203 38.334 212.861 37.398 212.861 36.264C212.861 34.734 213.437 33.51 214.589 32.592C215.759 31.656 217.316 31.188 219.26 31.188C220.826 31.188 222.338 31.521 223.796 32.187V33.537C222.248 32.889 220.754 32.565 219.314 32.565C217.838 32.565 216.686 32.889 215.858 33.537C215.03 34.167 214.616 35.058 214.616 36.21C214.616 37.02 214.85 37.659 215.318 38.127C215.786 38.595 216.605 39.018 217.775 39.396L219.692 40.017C221.42 40.575 222.662 41.277 223.418 42.123C224.174 42.951 224.552 44.031 224.552 45.363C224.552 47.073 223.949 48.423 222.743 49.413C221.555 50.403 219.926 50.898 217.856 50.898C215.948 50.898 214.22 50.511 212.672 49.737L212.402 48.279ZM236.326 50.547L236.218 49.602C234.67 50.466 233.14 50.898 231.628 50.898C230.242 50.898 229.144 50.538 228.334 49.818C227.524 49.08 227.119 48.072 227.119 46.794C227.119 45.444 227.569 44.418 228.469 43.716C229.387 42.996 230.728 42.636 232.492 42.636C233.554 42.636 234.76 42.762 236.11 43.014V41.178C236.11 38.928 234.841 37.803 232.303 37.803C231.637 37.803 230.908 37.893 230.116 38.073C229.324 38.253 228.595 38.487 227.929 38.775V37.506C228.577 37.2 229.315 36.957 230.143 36.777C230.989 36.597 231.79 36.507 232.546 36.507C234.238 36.507 235.516 36.912 236.38 37.722C237.262 38.514 237.703 39.666 237.703 41.178V50.412L236.326 50.547ZM232.006 49.602C232.654 49.602 233.338 49.503 234.058 49.305C234.778 49.107 235.462 48.837 236.11 48.495V44.175C234.976 43.959 233.86 43.851 232.762 43.851C231.376 43.851 230.368 44.085 229.738 44.553C229.108 45.021 228.793 45.759 228.793 46.767C228.793 48.657 229.864 49.602 232.006 49.602ZM245.115 50.493L239.985 36.912H241.686L245.925 48.765L250.299 36.912H251.919L246.681 50.493H245.115ZM259.189 50.898C257.227 50.898 255.742 50.295 254.734 49.089C253.744 47.865 253.249 46.065 253.249 43.689C253.249 41.331 253.744 39.549 254.734 38.343C255.742 37.119 257.227 36.507 259.189 36.507C261.151 36.507 262.627 37.119 263.617 38.343C264.625 39.549 265.129 41.331 265.129 43.689C265.129 46.065 264.625 47.865 263.617 49.089C262.627 50.295 261.151 50.898 259.189 50.898ZM259.189 49.602C260.665 49.602 261.736 49.134 262.402 48.198C263.086 47.244 263.428 45.741 263.428 43.689C263.428 41.655 263.086 40.17 262.402 39.234C261.736 38.28 260.665 37.803 259.189 37.803C257.713 37.803 256.633 38.28 255.949 39.234C255.283 40.17 254.95 41.655 254.95 43.689C254.95 45.741 255.283 47.244 255.949 48.198C256.633 49.134 257.713 49.602 259.189 49.602ZM268.774 50.493V36.993L270.151 36.858L270.286 38.073C271.492 37.083 272.779 36.588 274.147 36.588C274.633 36.588 275.02 36.642 275.308 36.75V38.073C274.84 37.965 274.426 37.911 274.066 37.911C272.788 37.911 271.564 38.37 270.394 39.288V50.493H268.774Z" fill="#013D5B"/>
</svg>
