<svg width="233" height="66" viewBox="0 0 233 66" fill="none" xmlns="http://www.w3.org/2000/svg">
<path d="M17.1301 22.77L12.2401 4.05002L7.32005 22.77H5.31005L5.37485e-05 1.77002H1.92005L6.36005 20.34L11.1601 1.77002H13.3201L18.1201 20.4L22.5901 1.77002H24.4801L19.1701 22.77H17.1301ZM27.5555 22.77V0.240018L29.3555 1.7643e-05V8.61002C31.0355 7.69002 32.6855 7.23002 34.3055 7.23002C35.9255 7.23002 37.1755 7.65002 38.0555 8.49002C38.9555 9.33002 39.4055 10.52 39.4055 12.06V22.77H37.6055V12.36C37.6055 9.90002 36.3555 8.67002 33.8555 8.67002C33.1955 8.67002 32.4655 8.78002 31.6655 9.00002C30.8855 9.22002 30.1155 9.52002 29.3555 9.90002V22.77H27.5555ZM54.8454 22.23C53.4654 22.89 51.9854 23.22 50.4054 23.22C48.1054 23.22 46.3354 22.54 45.0954 21.18C43.8554 19.82 43.2354 17.87 43.2354 15.33C43.2354 12.81 43.8154 10.83 44.9754 9.39002C46.1354 7.95002 47.7254 7.23002 49.7454 7.23002C51.5254 7.23002 52.9254 7.79002 53.9454 8.91002C54.9854 10.01 55.5054 11.52 55.5054 13.44C55.5054 14.16 55.4454 14.85 55.3254 15.51H45.0054C45.0254 19.69 46.8754 21.78 50.5554 21.78C52.0354 21.78 53.4654 21.46 54.8454 20.82V22.23ZM49.7154 8.64002C48.3554 8.64002 47.2454 9.14002 46.3854 10.14C45.5254 11.14 45.0654 12.48 45.0054 14.16H53.7654C53.8054 13.84 53.8254 13.56 53.8254 13.32C53.8254 11.84 53.4654 10.69 52.7454 9.87002C52.0254 9.05002 51.0154 8.64002 49.7154 8.64002ZM69.5684 22.77V12.36C69.5684 9.90002 68.3184 8.67002 65.8184 8.67002C65.1584 8.67002 64.4284 8.78002 63.6284 9.00002C62.8484 9.22002 62.0784 9.52002 61.3184 9.90002V22.77H59.5184V7.77002L61.0484 7.62002L61.1684 8.67002C62.9084 7.71002 64.6084 7.23002 66.2684 7.23002C67.8884 7.23002 69.1384 7.65002 70.0184 8.49002C70.9184 9.33002 71.3684 10.52 71.3684 12.06V22.77H69.5684ZM83.6883 22.77V7.83002L85.4883 7.59002V22.77H83.6883ZM84.5883 4.02002C84.1883 4.02002 83.8583 3.90002 83.5983 3.66002C83.3583 3.42002 83.2383 3.09002 83.2383 2.67002C83.2383 2.25002 83.3583 1.92002 83.5983 1.68002C83.8583 1.44002 84.1883 1.32002 84.5883 1.32002C84.9883 1.32002 85.3083 1.44002 85.5483 1.68002C85.8083 1.92002 85.9383 2.25002 85.9383 2.67002C85.9383 3.09002 85.8083 3.42002 85.5483 3.66002C85.3083 3.90002 84.9883 4.02002 84.5883 4.02002ZM92.7345 9.06002V18.66C92.7345 19.7 92.9545 20.47 93.3945 20.97C93.8345 21.45 94.5145 21.69 95.4345 21.69C96.0345 21.69 96.7145 21.58 97.4745 21.36V22.68C96.6345 22.96 95.8645 23.1 95.1645 23.1C93.7845 23.1 92.7345 22.73 92.0145 21.99C91.2945 21.23 90.9345 20.11 90.9345 18.63V9.06002H88.6545V7.77002L90.9945 7.68002L91.1745 3.90002L92.7345 3.72002V7.68002H97.2645V9.06002H92.7345ZM108.093 22.77V7.77002L109.623 7.62002L109.773 8.97002C111.113 7.87002 112.543 7.32002 114.063 7.32002C114.603 7.32002 115.033 7.38002 115.353 7.50002V8.97002C114.833 8.85002 114.373 8.79002 113.973 8.79002C112.553 8.79002 111.193 9.30002 109.893 10.32V22.77H108.093ZM127.352 22.83L127.232 21.78C125.512 22.74 123.812 23.22 122.132 23.22C120.592 23.22 119.372 22.82 118.472 22.02C117.572 21.2 117.122 20.08 117.122 18.66C117.122 17.16 117.622 16.02 118.622 15.24C119.642 14.44 121.132 14.04 123.092 14.04C124.272 14.04 125.612 14.18 127.112 14.46V12.42C127.112 9.92002 125.702 8.67002 122.882 8.67002C122.142 8.67002 121.332 8.77002 120.452 8.97002C119.572 9.17002 118.762 9.43002 118.022 9.75002V8.34002C118.742 8.00002 119.562 7.73002 120.482 7.53002C121.422 7.33002 122.312 7.23002 123.152 7.23002C125.032 7.23002 126.452 7.68002 127.412 8.58002C128.392 9.46002 128.882 10.74 128.882 12.42V22.68L127.352 22.83ZM122.552 21.78C123.272 21.78 124.032 21.67 124.832 21.45C125.632 21.23 126.392 20.93 127.112 20.55V15.75C125.852 15.51 124.612 15.39 123.392 15.39C121.852 15.39 120.732 15.65 120.032 16.17C119.332 16.69 118.982 17.51 118.982 18.63C118.982 20.73 120.172 21.78 122.552 21.78ZM133.698 22.77V7.83002L135.498 7.59002V22.77H133.698ZM134.598 4.02002C134.198 4.02002 133.868 3.90002 133.608 3.66002C133.368 3.42002 133.248 3.09002 133.248 2.67002C133.248 2.25002 133.368 1.92002 133.608 1.68002C133.868 1.44002 134.198 1.32002 134.598 1.32002C134.998 1.32002 135.318 1.44002 135.558 1.68002C135.818 1.92002 135.948 2.25002 135.948 2.67002C135.948 3.09002 135.818 3.42002 135.558 3.66002C135.318 3.90002 134.998 4.02002 134.598 4.02002ZM150.574 22.77V12.36C150.574 9.90002 149.324 8.67002 146.824 8.67002C146.164 8.67002 145.434 8.78002 144.634 9.00002C143.854 9.22002 143.084 9.52002 142.324 9.90002V22.77H140.524V7.77002L142.054 7.62002L142.174 8.67002C143.914 7.71002 145.614 7.23002 147.274 7.23002C148.894 7.23002 150.144 7.65002 151.024 8.49002C151.924 9.33002 152.374 10.52 152.374 12.06V22.77H150.574ZM156.024 20.79C157.524 21.45 159.074 21.78 160.674 21.78C163.374 21.78 164.724 20.73 164.724 18.63C164.724 17.95 164.524 17.4 164.124 16.98C163.744 16.56 163.104 16.21 162.204 15.93L159.924 15.21C158.644 14.81 157.714 14.31 157.134 13.71C156.554 13.09 156.264 12.31 156.264 11.37C156.264 10.11 156.754 9.11002 157.734 8.37002C158.734 7.61002 160.074 7.23002 161.754 7.23002C163.174 7.23002 164.524 7.50002 165.804 8.04002V9.45002C164.464 8.93002 163.144 8.67002 161.844 8.67002C160.664 8.67002 159.734 8.91002 159.054 9.39002C158.394 9.85002 158.064 10.49 158.064 11.31C158.064 11.89 158.244 12.36 158.604 12.72C158.984 13.06 159.654 13.39 160.614 13.71L162.984 14.49C164.204 14.89 165.094 15.42 165.654 16.08C166.234 16.74 166.524 17.58 166.524 18.6C166.524 20.08 166.024 21.22 165.024 22.02C164.024 22.82 162.614 23.22 160.794 23.22C159.114 23.22 157.604 22.91 156.264 22.29L156.024 20.79ZM187.867 22.23C186.547 22.89 185.107 23.22 183.547 23.22C181.427 23.22 179.787 22.53 178.627 21.15C177.487 19.77 176.917 17.8 176.917 15.24C176.917 12.68 177.487 10.71 178.627 9.33002C179.787 7.93002 181.427 7.23002 183.547 7.23002C185.047 7.23002 186.467 7.56002 187.807 8.22002V9.63002C186.407 9.01002 185.047 8.70002 183.727 8.70002C182.107 8.70002 180.877 9.25002 180.037 10.35C179.217 11.45 178.807 13.08 178.807 15.24C178.807 17.38 179.217 19 180.037 20.1C180.877 21.2 182.107 21.75 183.727 21.75C185.087 21.75 186.467 21.44 187.867 20.82V22.23ZM200.975 22.83L200.855 21.78C199.135 22.74 197.435 23.22 195.755 23.22C194.215 23.22 192.995 22.82 192.095 22.02C191.195 21.2 190.745 20.08 190.745 18.66C190.745 17.16 191.245 16.02 192.245 15.24C193.265 14.44 194.755 14.04 196.715 14.04C197.895 14.04 199.235 14.18 200.735 14.46V12.42C200.735 9.92002 199.325 8.67002 196.505 8.67002C195.765 8.67002 194.955 8.77002 194.075 8.97002C193.195 9.17002 192.385 9.43002 191.645 9.75002V8.34002C192.365 8.00002 193.185 7.73002 194.105 7.53002C195.045 7.33002 195.935 7.23002 196.775 7.23002C198.655 7.23002 200.075 7.68002 201.035 8.58002C202.015 9.46002 202.505 10.74 202.505 12.42V22.68L200.975 22.83ZM196.175 21.78C196.895 21.78 197.655 21.67 198.455 21.45C199.255 21.23 200.015 20.93 200.735 20.55V15.75C199.475 15.51 198.235 15.39 197.015 15.39C195.475 15.39 194.355 15.65 193.655 16.17C192.955 16.69 192.605 17.51 192.605 18.63C192.605 20.73 193.795 21.78 196.175 21.78ZM206.151 20.79C207.651 21.45 209.201 21.78 210.801 21.78C213.501 21.78 214.851 20.73 214.851 18.63C214.851 17.95 214.651 17.4 214.251 16.98C213.871 16.56 213.231 16.21 212.331 15.93L210.051 15.21C208.771 14.81 207.841 14.31 207.261 13.71C206.681 13.09 206.391 12.31 206.391 11.37C206.391 10.11 206.881 9.11002 207.861 8.37002C208.861 7.61002 210.201 7.23002 211.881 7.23002C213.301 7.23002 214.651 7.50002 215.931 8.04002V9.45002C214.591 8.93002 213.271 8.67002 211.971 8.67002C210.791 8.67002 209.861 8.91002 209.181 9.39002C208.521 9.85002 208.191 10.49 208.191 11.31C208.191 11.89 208.371 12.36 208.731 12.72C209.111 13.06 209.781 13.39 210.741 13.71L213.111 14.49C214.331 14.89 215.221 15.42 215.781 16.08C216.361 16.74 216.651 17.58 216.651 18.6C216.651 20.08 216.151 21.22 215.151 22.02C214.151 22.82 212.741 23.22 210.921 23.22C209.241 23.22 207.731 22.91 206.391 22.29L206.151 20.79ZM220.534 22.77V0.240018L222.334 1.7643e-05V8.61002C224.014 7.69002 225.664 7.23002 227.284 7.23002C228.904 7.23002 230.154 7.65002 231.034 8.49002C231.934 9.33002 232.384 10.52 232.384 12.06V22.77H230.584V12.36C230.584 9.90002 229.334 8.67002 226.834 8.67002C226.174 8.67002 225.444 8.78002 224.644 9.00002C223.864 9.22002 223.094 9.52002 222.334 9.90002V22.77H220.534ZM3.75005 44.58C4.51005 44.16 5.28005 43.83 6.06005 43.59C6.86005 43.35 7.60005 43.23 8.28005 43.23C10.2401 43.23 11.7801 43.92 12.9001 45.3C14.0201 46.66 14.5801 48.55 14.5801 50.97C14.5801 53.63 13.9401 55.67 12.6601 57.09C11.4001 58.51 9.57005 59.22 7.17005 59.22C5.47005 59.22 3.73005 58.94 1.95005 58.38V36.24L3.75005 36V44.58ZM8.04005 44.67C7.38005 44.67 6.67005 44.78 5.91005 45C5.15005 45.22 4.43005 45.52 3.75005 45.9V57.3C4.79005 57.62 5.88005 57.78 7.02005 57.78C8.94005 57.78 10.3601 57.23 11.2801 56.13C12.2201 55.01 12.6901 53.3 12.6901 51C12.6901 48.94 12.2901 47.37 11.4901 46.29C10.7101 45.21 9.56005 44.67 8.04005 44.67ZM27.86 58.83L27.74 57.78C26.02 58.74 24.32 59.22 22.64 59.22C21.1 59.22 19.88 58.82 18.98 58.02C18.08 57.2 17.63 56.08 17.63 54.66C17.63 53.16 18.13 52.02 19.13 51.24C20.15 50.44 21.64 50.04 23.6 50.04C24.78 50.04 26.12 50.18 27.62 50.46V48.42C27.62 45.92 26.21 44.67 23.39 44.67C22.65 44.67 21.84 44.77 20.96 44.97C20.08 45.17 19.27 45.43 18.53 45.75V44.34C19.25 44 20.07 43.73 20.99 43.53C21.93 43.33 22.82 43.23 23.66 43.23C25.54 43.23 26.96 43.68 27.92 44.58C28.9 45.46 29.39 46.74 29.39 48.42V58.68L27.86 58.83ZM23.06 57.78C23.78 57.78 24.54 57.67 25.34 57.45C26.14 57.23 26.9 56.93 27.62 56.55V51.75C26.36 51.51 25.12 51.39 23.9 51.39C22.36 51.39 21.24 51.65 20.54 52.17C19.84 52.69 19.49 53.51 19.49 54.63C19.49 56.73 20.68 57.78 23.06 57.78ZM44.1659 58.23C42.8459 58.89 41.4059 59.22 39.8459 59.22C37.7259 59.22 36.0859 58.53 34.9259 57.15C33.7859 55.77 33.2159 53.8 33.2159 51.24C33.2159 48.68 33.7859 46.71 34.9259 45.33C36.0859 43.93 37.7259 43.23 39.8459 43.23C41.3459 43.23 42.7659 43.56 44.1059 44.22V45.63C42.7059 45.01 41.3459 44.7 40.0259 44.7C38.4059 44.7 37.1759 45.25 36.3359 46.35C35.5159 47.45 35.1059 49.08 35.1059 51.24C35.1059 53.38 35.5159 55 36.3359 56.1C37.1759 57.2 38.4059 57.75 40.0259 57.75C41.3859 57.75 42.7659 57.44 44.1659 56.82V58.23ZM48.034 58.77V36.24L49.834 36V50.37L56.914 43.68H59.044L51.634 50.7L59.284 58.77H57.004L49.834 51.15V58.77H48.034ZM60.1229 63.3C60.6629 62.6 61.0929 61.86 61.4129 61.08C61.7529 60.3 61.9329 59.56 61.9529 58.86C61.6529 58.78 61.4229 58.63 61.2629 58.41C61.1029 58.17 61.0229 57.88 61.0229 57.54C61.0229 57.12 61.1529 56.79 61.4129 56.55C61.6729 56.29 62.0029 56.16 62.4029 56.16C62.8429 56.16 63.1829 56.32 63.4229 56.64C63.6629 56.94 63.7829 57.36 63.7829 57.9C63.7829 58.78 63.4929 59.77 62.9129 60.87C62.3529 61.99 61.6429 62.94 60.7829 63.72L60.1229 63.3ZM75.5145 58.77V43.83L77.3145 43.59V58.77H75.5145ZM76.4145 40.02C76.0145 40.02 75.6845 39.9 75.4245 39.66C75.1845 39.42 75.0645 39.09 75.0645 38.67C75.0645 38.25 75.1845 37.92 75.4245 37.68C75.6845 37.44 76.0145 37.32 76.4145 37.32C76.8145 37.32 77.1345 37.44 77.3745 37.68C77.6345 37.92 77.7645 38.25 77.7645 38.67C77.7645 39.09 77.6345 39.42 77.3745 39.66C77.1345 39.9 76.8145 40.02 76.4145 40.02ZM84.5607 45.06V54.66C84.5607 55.7 84.7807 56.47 85.2207 56.97C85.6607 57.45 86.3407 57.69 87.2607 57.69C87.8607 57.69 88.5407 57.58 89.3007 57.36V58.68C88.4607 58.96 87.6907 59.1 86.9907 59.1C85.6107 59.1 84.5607 58.73 83.8407 57.99C83.1207 57.23 82.7607 56.11 82.7607 54.63V45.06H80.4807V43.77L82.8207 43.68L83.0007 39.9L84.5607 39.72V43.68H89.0907V45.06H84.5607ZM99.9188 65.46V43.77L101.449 43.62L101.569 44.67C103.269 43.71 104.829 43.23 106.249 43.23C108.209 43.23 109.749 43.92 110.869 45.3C111.989 46.66 112.549 48.55 112.549 50.97C112.549 53.63 111.909 55.67 110.629 57.09C109.369 58.51 107.539 59.22 105.139 59.22C103.899 59.22 102.759 59.06 101.719 58.74V65.22L99.9188 65.46ZM106.009 44.67C105.349 44.67 104.639 44.78 103.879 45C103.119 45.22 102.399 45.52 101.719 45.9V57.3C102.759 57.62 103.849 57.78 104.989 57.78C106.909 57.78 108.329 57.23 109.249 56.13C110.189 55.01 110.659 53.3 110.659 51C110.659 48.94 110.259 47.37 109.459 46.29C108.679 45.21 107.529 44.67 106.009 44.67ZM122.199 59.22C120.019 59.22 118.369 58.55 117.249 57.21C116.149 55.85 115.599 53.85 115.599 51.21C115.599 48.59 116.149 46.61 117.249 45.27C118.369 43.91 120.019 43.23 122.199 43.23C124.379 43.23 126.019 43.91 127.119 45.27C128.239 46.61 128.799 48.59 128.799 51.21C128.799 53.85 128.239 55.85 127.119 57.21C126.019 58.55 124.379 59.22 122.199 59.22ZM122.199 57.78C123.839 57.78 125.029 57.26 125.769 56.22C126.529 55.16 126.909 53.49 126.909 51.21C126.909 48.95 126.529 47.3 125.769 46.26C125.029 45.2 123.839 44.67 122.199 44.67C120.559 44.67 119.359 45.2 118.599 46.26C117.859 47.3 117.489 48.95 117.489 51.21C117.489 53.49 117.859 55.16 118.599 56.22C119.359 57.26 120.559 57.78 122.199 57.78ZM134.438 43.68V54.09C134.438 56.55 135.648 57.78 138.068 57.78C138.728 57.78 139.448 57.67 140.228 57.45C141.028 57.23 141.808 56.93 142.568 56.55V43.68H144.368V58.68L142.838 58.83L142.718 57.78C140.978 58.74 139.278 59.22 137.618 59.22C136.038 59.22 134.808 58.8 133.928 57.96C133.068 57.1 132.638 55.91 132.638 54.39V43.68H134.438ZM149.401 58.77V43.77L150.931 43.62L151.081 44.97C152.421 43.87 153.851 43.32 155.371 43.32C155.911 43.32 156.341 43.38 156.661 43.5V44.97C156.141 44.85 155.681 44.79 155.281 44.79C153.861 44.79 152.501 45.3 151.201 46.32V58.77H149.401ZM158.544 56.79C160.044 57.45 161.594 57.78 163.194 57.78C165.894 57.78 167.244 56.73 167.244 54.63C167.244 53.95 167.044 53.4 166.644 52.98C166.264 52.56 165.624 52.21 164.724 51.93L162.444 51.21C161.164 50.81 160.234 50.31 159.654 49.71C159.074 49.09 158.784 48.31 158.784 47.37C158.784 46.11 159.274 45.11 160.254 44.37C161.254 43.61 162.594 43.23 164.274 43.23C165.694 43.23 167.044 43.5 168.324 44.04V45.45C166.984 44.93 165.664 44.67 164.364 44.67C163.184 44.67 162.254 44.91 161.574 45.39C160.914 45.85 160.584 46.49 160.584 47.31C160.584 47.89 160.764 48.36 161.124 48.72C161.504 49.06 162.174 49.39 163.134 49.71L165.504 50.49C166.724 50.89 167.614 51.42 168.174 52.08C168.754 52.74 169.044 53.58 169.044 54.6C169.044 56.08 168.544 57.22 167.544 58.02C166.544 58.82 165.134 59.22 163.314 59.22C161.634 59.22 160.124 58.91 158.784 58.29L158.544 56.79ZM174.067 52.77L173.797 37.77L175.717 37.53L175.447 52.77H174.067ZM174.757 58.92C174.357 58.92 174.027 58.8 173.767 58.56C173.507 58.3 173.377 57.96 173.377 57.54C173.377 57.12 173.507 56.79 173.767 56.55C174.027 56.29 174.357 56.16 174.757 56.16C175.157 56.16 175.487 56.29 175.747 56.55C176.007 56.79 176.137 57.12 176.137 57.54C176.137 57.96 176.007 58.3 175.747 58.56C175.487 58.8 175.157 58.92 174.757 58.92Z" fill="#013D5B"/>
</svg>
