<svg width="499" height="28" viewBox="0 0 499 28" fill="none" xmlns="http://www.w3.org/2000/svg">
<path d="M488.787 18.981C490.137 19.575 491.532 19.872 492.972 19.872C495.402 19.872 496.617 18.927 496.617 17.037C496.617 16.425 496.437 15.93 496.077 15.552C495.735 15.174 495.159 14.859 494.349 14.607L492.297 13.959C491.145 13.599 490.308 13.149 489.786 12.609C489.264 12.051 489.003 11.349 489.003 10.503C489.003 9.369 489.444 8.469 490.326 7.803C491.226 7.119 492.432 6.777 493.944 6.777C495.222 6.777 496.437 7.02 497.589 7.506V8.775C496.383 8.307 495.195 8.073 494.025 8.073C492.963 8.073 492.126 8.289 491.514 8.721C490.92 9.135 490.623 9.711 490.623 10.449C490.623 10.971 490.785 11.394 491.109 11.718C491.451 12.024 492.054 12.321 492.918 12.609L495.051 13.311C496.149 13.671 496.95 14.148 497.454 14.742C497.976 15.336 498.237 16.092 498.237 17.01C498.237 18.342 497.787 19.368 496.887 20.088C495.987 20.808 494.718 21.168 493.08 21.168C491.568 21.168 490.209 20.889 489.003 20.331L488.787 18.981Z" fill="#013D5B"/>
<path d="M482.768 8.424V17.064C482.768 18 482.966 18.693 483.362 19.143C483.758 19.575 484.37 19.791 485.198 19.791C485.738 19.791 486.35 19.692 487.034 19.494V20.682C486.278 20.934 485.585 21.06 484.955 21.06C483.713 21.06 482.768 20.727 482.12 20.061C481.472 19.377 481.148 18.369 481.148 17.037V8.424H479.096V7.263L481.202 7.182L481.364 3.78L482.768 3.618V7.182H486.845V8.424H482.768Z" fill="#013D5B"/>
<path d="M474.812 20.763V11.394C474.812 9.18 473.687 8.073 471.437 8.073C470.843 8.073 470.186 8.172 469.466 8.37C468.764 8.568 468.071 8.838 467.387 9.18V20.763H465.767V7.263L467.144 7.128L467.252 8.073C468.818 7.209 470.348 6.777 471.842 6.777C473.3 6.777 474.425 7.155 475.217 7.911C476.027 8.667 476.432 9.738 476.432 11.124V20.763H474.812Z" fill="#013D5B"/>
<path d="M452.3 7.182V16.551C452.3 18.765 453.389 19.872 455.567 19.872C456.161 19.872 456.809 19.773 457.511 19.575C458.231 19.377 458.933 19.107 459.617 18.765V7.182H461.237V20.682L459.86 20.817L459.752 19.872C458.186 20.736 456.656 21.168 455.162 21.168C453.74 21.168 452.633 20.79 451.841 20.034C451.067 19.26 450.68 18.189 450.68 16.821V7.182H452.3Z" fill="#013D5B"/>
<path d="M441.285 21.168C439.323 21.168 437.838 20.565 436.83 19.359C435.84 18.135 435.345 16.335 435.345 13.959C435.345 11.601 435.84 9.819 436.83 8.613C437.838 7.389 439.323 6.777 441.285 6.777C443.247 6.777 444.723 7.389 445.713 8.613C446.721 9.819 447.225 11.601 447.225 13.959C447.225 16.335 446.721 18.135 445.713 19.359C444.723 20.565 443.247 21.168 441.285 21.168ZM441.285 19.872C442.761 19.872 443.832 19.404 444.498 18.468C445.182 17.514 445.524 16.011 445.524 13.959C445.524 11.925 445.182 10.44 444.498 9.504C443.832 8.55 442.761 8.073 441.285 8.073C439.809 8.073 438.729 8.55 438.045 9.504C437.379 10.44 437.046 11.925 437.046 13.959C437.046 16.011 437.379 17.514 438.045 18.468C438.729 19.404 439.809 19.872 441.285 19.872Z" fill="#013D5B"/>
<path d="M433.018 20.277C431.83 20.871 430.534 21.168 429.13 21.168C427.222 21.168 425.746 20.547 424.702 19.305C423.676 18.063 423.163 16.29 423.163 13.986C423.163 11.682 423.676 9.909 424.702 8.667C425.746 7.407 427.222 6.777 429.13 6.777C430.48 6.777 431.758 7.074 432.964 7.668V8.937C431.704 8.379 430.48 8.1 429.292 8.1C427.834 8.1 426.727 8.595 425.971 9.585C425.233 10.575 424.864 12.042 424.864 13.986C424.864 15.912 425.233 17.37 425.971 18.36C426.727 19.35 427.834 19.845 429.292 19.845C430.516 19.845 431.758 19.566 433.018 19.008V20.277Z" fill="#013D5B"/>
<path d="M420.836 20.277C419.648 20.871 418.352 21.168 416.948 21.168C415.04 21.168 413.564 20.547 412.52 19.305C411.494 18.063 410.981 16.29 410.981 13.986C410.981 11.682 411.494 9.909 412.52 8.667C413.564 7.407 415.04 6.777 416.948 6.777C418.298 6.777 419.576 7.074 420.782 7.668V8.937C419.522 8.379 418.298 8.1 417.11 8.1C415.652 8.1 414.545 8.595 413.789 9.585C413.051 10.575 412.682 12.042 412.682 13.986C412.682 15.912 413.051 17.37 413.789 18.36C414.545 19.35 415.652 19.845 417.11 19.845C418.334 19.845 419.576 19.566 420.836 19.008V20.277Z" fill="#013D5B"/>
<path d="M406.161 20.817L406.053 19.872C404.505 20.736 402.975 21.168 401.463 21.168C400.077 21.168 398.979 20.808 398.169 20.088C397.359 19.35 396.954 18.342 396.954 17.064C396.954 15.714 397.404 14.688 398.304 13.986C399.222 13.266 400.563 12.906 402.327 12.906C403.389 12.906 404.595 13.032 405.945 13.284V11.448C405.945 9.198 404.676 8.073 402.138 8.073C401.472 8.073 400.743 8.163 399.951 8.343C399.159 8.523 398.43 8.757 397.764 9.045V7.776C398.412 7.47 399.15 7.227 399.978 7.047C400.824 6.867 401.625 6.777 402.381 6.777C404.073 6.777 405.351 7.182 406.215 7.992C407.097 8.784 407.538 9.936 407.538 11.448V20.682L406.161 20.817ZM401.841 19.872C402.489 19.872 403.173 19.773 403.893 19.575C404.613 19.377 405.297 19.107 405.945 18.765V14.445C404.811 14.229 403.695 14.121 402.597 14.121C401.211 14.121 400.203 14.355 399.573 14.823C398.943 15.291 398.628 16.029 398.628 17.037C398.628 18.927 399.699 19.872 401.841 19.872Z" fill="#013D5B"/>
<path d="M380.52 27.054C378.918 27.054 377.559 26.775 376.443 26.217L376.227 24.84C377.703 25.452 379.107 25.758 380.439 25.758C383.445 25.758 384.948 24.363 384.948 21.573V19.71C384.264 20.088 383.562 20.385 382.842 20.601C382.14 20.817 381.483 20.925 380.871 20.925C379.107 20.925 377.721 20.331 376.713 19.143C375.705 17.955 375.201 16.308 375.201 14.202C375.201 11.808 375.768 9.972 376.902 8.694C378.054 7.416 379.71 6.777 381.87 6.777C383.508 6.777 385.074 7.065 386.568 7.641V21.438C386.568 23.238 386.046 24.624 385.002 25.596C383.958 26.568 382.464 27.054 380.52 27.054ZM381.087 19.629C381.681 19.629 382.32 19.53 383.004 19.332C383.688 19.134 384.336 18.864 384.948 18.522V8.505C384.012 8.217 383.031 8.073 382.005 8.073C380.277 8.073 378.99 8.577 378.144 9.585C377.316 10.575 376.902 12.105 376.902 14.175C376.902 15.957 377.253 17.316 377.955 18.252C378.675 19.17 379.719 19.629 381.087 19.629Z" fill="#013D5B"/>
<path d="M370.134 20.763V11.394C370.134 9.18 369.009 8.073 366.759 8.073C366.165 8.073 365.508 8.172 364.788 8.37C364.086 8.568 363.393 8.838 362.709 9.18V20.763H361.089V7.263L362.466 7.128L362.574 8.073C364.14 7.209 365.67 6.777 367.164 6.777C368.622 6.777 369.747 7.155 370.539 7.911C371.349 8.667 371.754 9.738 371.754 11.124V20.763H370.134Z" fill="#013D5B"/>
<path d="M354.946 20.763V7.317L356.566 7.101V20.763H354.946ZM355.756 3.888C355.396 3.888 355.099 3.78 354.865 3.564C354.649 3.348 354.541 3.051 354.541 2.673C354.541 2.295 354.649 1.998 354.865 1.782C355.099 1.566 355.396 1.458 355.756 1.458C356.116 1.458 356.404 1.566 356.62 1.782C356.854 1.998 356.971 2.295 356.971 2.673C356.971 3.051 356.854 3.348 356.62 3.564C356.404 3.78 356.116 3.888 355.756 3.888Z" fill="#013D5B"/>
<path d="M342.527 20.763V0.485999L344.147 0.269999V13.203L350.519 7.182H352.436L345.767 13.5L352.652 20.763H350.6L344.147 13.905V20.763H342.527Z" fill="#013D5B"/>
<path d="M339.045 20.277C337.857 20.871 336.561 21.168 335.157 21.168C333.249 21.168 331.773 20.547 330.729 19.305C329.703 18.063 329.19 16.29 329.19 13.986C329.19 11.682 329.703 9.909 330.729 8.667C331.773 7.407 333.249 6.777 335.157 6.777C336.507 6.777 337.785 7.074 338.991 7.668V8.937C337.731 8.379 336.507 8.1 335.319 8.1C333.861 8.1 332.754 8.595 331.998 9.585C331.26 10.575 330.891 12.042 330.891 13.986C330.891 15.912 331.26 17.37 331.998 18.36C332.754 19.35 333.861 19.845 335.319 19.845C336.543 19.845 337.785 19.566 339.045 19.008V20.277Z" fill="#013D5B"/>
<path d="M325.876 20.277C324.634 20.871 323.302 21.168 321.88 21.168C319.81 21.168 318.217 20.556 317.101 19.332C315.985 18.108 315.427 16.353 315.427 14.067C315.427 11.799 315.949 10.017 316.993 8.721C318.037 7.425 319.468 6.777 321.286 6.777C322.888 6.777 324.148 7.281 325.066 8.289C326.002 9.279 326.47 10.638 326.47 12.366C326.47 13.014 326.416 13.635 326.308 14.229H317.02C317.038 17.991 318.703 19.872 322.015 19.872C323.347 19.872 324.634 19.584 325.876 19.008V20.277ZM321.259 8.046C320.035 8.046 319.036 8.496 318.262 9.396C317.488 10.296 317.074 11.502 317.02 13.014H324.904C324.94 12.726 324.958 12.474 324.958 12.258C324.958 10.926 324.634 9.891 323.986 9.153C323.338 8.415 322.429 8.046 321.259 8.046Z" fill="#013D5B"/>
<path d="M301.315 20.763V0.485999L302.935 0.269999V8.019C304.447 7.191 305.932 6.777 307.39 6.777C308.848 6.777 309.973 7.155 310.765 7.911C311.575 8.667 311.98 9.738 311.98 11.124V20.763H310.36V11.394C310.36 9.18 309.235 8.073 306.985 8.073C306.391 8.073 305.734 8.172 305.014 8.37C304.312 8.568 303.619 8.838 302.935 9.18V20.763H301.315Z" fill="#013D5B"/>
<path d="M297.833 20.277C296.645 20.871 295.349 21.168 293.945 21.168C292.037 21.168 290.561 20.547 289.517 19.305C288.491 18.063 287.979 16.29 287.979 13.986C287.979 11.682 288.491 9.909 289.517 8.667C290.561 7.407 292.037 6.777 293.945 6.777C295.295 6.777 296.574 7.074 297.78 7.668V8.937C296.52 8.379 295.296 8.1 294.108 8.1C292.65 8.1 291.542 8.595 290.786 9.585C290.048 10.575 289.68 12.042 289.68 13.986C289.68 15.912 290.048 17.37 290.786 18.36C291.542 19.35 292.65 19.845 294.108 19.845C295.332 19.845 296.573 19.566 297.833 19.008V20.277Z" fill="#013D5B"/>
<path d="M276.161 20.763V11.394C276.161 9.18 275.036 8.073 272.786 8.073C272.192 8.073 271.535 8.172 270.815 8.37C270.113 8.568 269.42 8.838 268.736 9.18V20.763H267.116V7.263L268.493 7.128L268.601 8.073C270.167 7.209 271.697 6.777 273.191 6.777C274.649 6.777 275.774 7.155 276.566 7.911C277.376 8.667 277.781 9.738 277.781 11.124V20.763H276.161Z" fill="#013D5B"/>
<path d="M257.532 21.168C255.57 21.168 254.085 20.565 253.077 19.359C252.087 18.135 251.592 16.335 251.592 13.959C251.592 11.601 252.087 9.819 253.077 8.613C254.085 7.389 255.57 6.777 257.532 6.777C259.494 6.777 260.97 7.389 261.96 8.613C262.968 9.819 263.472 11.601 263.472 13.959C263.472 16.335 262.968 18.135 261.96 19.359C260.97 20.565 259.494 21.168 257.532 21.168ZM257.532 19.872C259.008 19.872 260.079 19.404 260.745 18.468C261.429 17.514 261.771 16.011 261.771 13.959C261.771 11.925 261.429 10.44 260.745 9.504C260.079 8.55 259.008 8.073 257.532 8.073C256.056 8.073 254.976 8.55 254.292 9.504C253.626 10.44 253.293 11.925 253.293 13.959C253.293 16.011 253.626 17.514 254.292 18.468C254.976 19.404 256.056 19.872 257.532 19.872Z" fill="#013D5B"/>
<path d="M232.788 18.981C234.138 19.575 235.533 19.872 236.973 19.872C239.403 19.872 240.618 18.927 240.618 17.037C240.618 16.425 240.438 15.93 240.078 15.552C239.736 15.174 239.16 14.859 238.35 14.607L236.298 13.959C235.146 13.599 234.309 13.149 233.787 12.609C233.265 12.051 233.004 11.349 233.004 10.503C233.004 9.369 233.445 8.469 234.327 7.803C235.227 7.119 236.433 6.777 237.945 6.777C239.223 6.777 240.438 7.02 241.59 7.506V8.775C240.384 8.307 239.196 8.073 238.026 8.073C236.964 8.073 236.127 8.289 235.515 8.721C234.921 9.135 234.624 9.711 234.624 10.449C234.624 10.971 234.786 11.394 235.11 11.718C235.452 12.024 236.055 12.321 236.919 12.609L239.052 13.311C240.15 13.671 240.951 14.148 241.455 14.742C241.977 15.336 242.238 16.092 242.238 17.01C242.238 18.342 241.788 19.368 240.888 20.088C239.988 20.808 238.719 21.168 237.081 21.168C235.569 21.168 234.21 20.889 233.004 20.331L232.788 18.981Z" fill="#013D5B"/>
<path d="M227.868 20.763V11.124C227.868 9.09 226.905 8.073 224.979 8.073C223.863 8.073 222.585 8.478 221.145 9.288C221.289 9.774 221.361 10.296 221.361 10.854V20.763H219.741V11.124C219.741 9.09 218.778 8.073 216.852 8.073C215.772 8.073 214.566 8.442 213.234 9.18V20.763H211.614V7.263L212.991 7.128L213.099 8.073C214.629 7.209 216.015 6.777 217.257 6.777C218.841 6.777 219.984 7.299 220.686 8.343C222.432 7.299 223.998 6.777 225.384 6.777C226.698 6.777 227.706 7.128 228.408 7.83C229.128 8.532 229.488 9.54 229.488 10.854V20.763H227.868Z" fill="#013D5B"/>
<path d="M198.147 7.182V16.551C198.147 18.765 199.236 19.872 201.414 19.872C202.008 19.872 202.656 19.773 203.358 19.575C204.078 19.377 204.78 19.107 205.464 18.765V7.182H207.084V20.682L205.707 20.817L205.599 19.872C204.033 20.736 202.503 21.168 201.009 21.168C199.587 21.168 198.48 20.79 197.688 20.034C196.914 19.26 196.527 18.189 196.527 16.821V7.182H198.147Z" fill="#013D5B"/>
<path d="M190.743 20.763V11.124C190.743 9.09 189.78 8.073 187.854 8.073C186.738 8.073 185.46 8.478 184.02 9.288C184.164 9.774 184.236 10.296 184.236 10.854V20.763H182.616V11.124C182.616 9.09 181.653 8.073 179.727 8.073C178.647 8.073 177.441 8.442 176.109 9.18V20.763H174.489V7.263L175.866 7.128L175.974 8.073C177.504 7.209 178.89 6.777 180.132 6.777C181.716 6.777 182.859 7.299 183.561 8.343C185.307 7.299 186.873 6.777 188.259 6.777C189.573 6.777 190.581 7.128 191.283 7.83C192.003 8.532 192.363 9.54 192.363 10.854V20.763H190.743Z" fill="#013D5B"/>
<path d="M168.345 20.763V7.317L169.965 7.101V20.763H168.345ZM169.155 3.888C168.795 3.888 168.498 3.78 168.264 3.564C168.048 3.348 167.94 3.051 167.94 2.673C167.94 2.295 168.048 1.998 168.264 1.782C168.498 1.566 168.795 1.458 169.155 1.458C169.515 1.458 169.803 1.566 170.019 1.782C170.253 1.998 170.37 2.295 170.37 2.673C170.37 3.051 170.253 3.348 170.019 3.564C169.803 3.78 169.515 3.888 169.155 3.888Z" fill="#013D5B"/>
<path d="M162.387 20.763V11.394C162.387 9.18 161.262 8.073 159.012 8.073C158.418 8.073 157.761 8.172 157.041 8.37C156.339 8.568 155.646 8.838 154.962 9.18V20.763H153.342V7.263L154.719 7.128L154.827 8.073C156.393 7.209 157.923 6.777 159.417 6.777C160.875 6.777 162 7.155 162.792 7.911C163.602 8.667 164.007 9.738 164.007 11.124V20.763H162.387Z" fill="#013D5B"/>
<path d="M147.199 20.763V7.317L148.819 7.101V20.763H147.199ZM148.009 3.888C147.649 3.888 147.352 3.78 147.118 3.564C146.902 3.348 146.794 3.051 146.794 2.673C146.794 2.295 146.902 1.998 147.118 1.782C147.352 1.566 147.649 1.458 148.009 1.458C148.369 1.458 148.657 1.566 148.873 1.782C149.107 1.998 149.224 2.295 149.224 2.673C149.224 3.051 149.107 3.348 148.873 3.564C148.657 3.78 148.369 3.888 148.009 3.888Z" fill="#013D5B"/>
<path d="M141.225 20.763V11.124C141.225 9.09 140.262 8.073 138.336 8.073C137.22 8.073 135.942 8.478 134.502 9.288C134.646 9.774 134.718 10.296 134.718 10.854V20.763H133.098V11.124C133.098 9.09 132.135 8.073 130.209 8.073C129.129 8.073 127.923 8.442 126.591 9.18V20.763H124.971V7.263L126.348 7.128L126.456 8.073C127.986 7.209 129.372 6.777 130.614 6.777C132.198 6.777 133.341 7.299 134.043 8.343C135.789 7.299 137.355 6.777 138.741 6.777C140.055 6.777 141.063 7.128 141.765 7.83C142.485 8.532 142.845 9.54 142.845 10.854V20.763H141.225Z" fill="#013D5B"/>
<path d="M108.94 20.763V7.263L110.317 7.128L110.452 8.343C111.658 7.353 112.945 6.858 114.313 6.858C114.799 6.858 115.186 6.912 115.474 7.02V8.343C115.006 8.235 114.592 8.181 114.232 8.181C112.954 8.181 111.73 8.64 110.56 9.558V20.763H108.94Z" fill="#013D5B"/>
<path d="M99.355 21.168C97.393 21.168 95.908 20.565 94.9 19.359C93.91 18.135 93.415 16.335 93.415 13.959C93.415 11.601 93.91 9.819 94.9 8.613C95.908 7.389 97.393 6.777 99.355 6.777C101.317 6.777 102.793 7.389 103.783 8.613C104.791 9.819 105.295 11.601 105.295 13.959C105.295 16.335 104.791 18.135 103.783 19.359C102.793 20.565 101.317 21.168 99.355 21.168ZM99.355 19.872C100.831 19.872 101.902 19.404 102.568 18.468C103.252 17.514 103.594 16.011 103.594 13.959C103.594 11.925 103.252 10.44 102.568 9.504C101.902 8.55 100.831 8.073 99.355 8.073C97.879 8.073 96.799 8.55 96.115 9.504C95.449 10.44 95.116 11.925 95.116 13.959C95.116 16.011 95.449 17.514 96.115 18.468C96.799 19.404 97.879 19.872 99.355 19.872Z" fill="#013D5B"/>
<path d="M74.6113 18.981C75.9613 19.575 77.3563 19.872 78.7963 19.872C81.2263 19.872 82.4413 18.927 82.4413 17.037C82.4413 16.425 82.2613 15.93 81.9013 15.552C81.5593 15.174 80.9833 14.859 80.1733 14.607L78.1213 13.959C76.9693 13.599 76.1323 13.149 75.6103 12.609C75.0883 12.051 74.8273 11.349 74.8273 10.503C74.8273 9.369 75.2683 8.469 76.1503 7.803C77.0503 7.119 78.2563 6.777 79.7683 6.777C81.0463 6.777 82.2613 7.02 83.4133 7.506V8.775C82.2073 8.307 81.0193 8.073 79.8493 8.073C78.7873 8.073 77.9503 8.289 77.3383 8.721C76.7443 9.135 76.4473 9.711 76.4473 10.449C76.4473 10.971 76.6093 11.394 76.9333 11.718C77.2753 12.024 77.8783 12.321 78.7423 12.609L80.8753 13.311C81.9733 13.671 82.7743 14.148 83.2783 14.742C83.8003 15.336 84.0613 16.092 84.0613 17.01C84.0613 18.342 83.6113 19.368 82.7113 20.088C81.8113 20.808 80.5423 21.168 78.9043 21.168C77.3923 21.168 76.0333 20.889 74.8273 20.331L74.6113 18.981Z" fill="#013D5B"/>
<path d="M71.4588 20.277C70.2168 20.871 68.8848 21.168 67.4628 21.168C65.3928 21.168 63.7998 20.556 62.6838 19.332C61.5678 18.108 61.0098 16.353 61.0098 14.067C61.0098 11.799 61.5318 10.017 62.5758 8.721C63.6198 7.425 65.0508 6.777 66.8688 6.777C68.4708 6.777 69.7308 7.281 70.6488 8.289C71.5848 9.279 72.0528 10.638 72.0528 12.366C72.0528 13.014 71.9988 13.635 71.8908 14.229H62.6028C62.6208 17.991 64.2858 19.872 67.5978 19.872C68.9298 19.872 70.2168 19.584 71.4588 19.008V20.277ZM66.8418 8.046C65.6178 8.046 64.6188 8.496 63.8448 9.396C63.0708 10.296 62.6568 11.502 62.6028 13.014H70.4868C70.5228 12.726 70.5408 12.474 70.5408 12.258C70.5408 10.926 70.2168 9.891 69.5688 9.153C68.9208 8.415 68.0118 8.046 66.8418 8.046Z" fill="#013D5B"/>
<path d="M57.6951 20.277C56.4531 20.871 55.1211 21.168 53.6991 21.168C51.6291 21.168 50.0361 20.556 48.9201 19.332C47.8041 18.108 47.2461 16.353 47.2461 14.067C47.2461 11.799 47.7681 10.017 48.8121 8.721C49.8561 7.425 51.2871 6.777 53.1051 6.777C54.7071 6.777 55.9671 7.281 56.8851 8.289C57.8211 9.279 58.2891 10.638 58.2891 12.366C58.2891 13.014 58.2351 13.635 58.1271 14.229H48.8391C48.8571 17.991 50.5221 19.872 53.8341 19.872C55.1661 19.872 56.4531 19.584 57.6951 19.008V20.277ZM53.0781 8.046C51.8541 8.046 50.8551 8.496 50.0811 9.396C49.3071 10.296 48.8931 11.502 48.8391 13.014H56.7231C56.7591 12.726 56.7771 12.474 56.7771 12.258C56.7771 10.926 56.4531 9.891 55.8051 9.153C55.1571 8.415 54.2481 8.046 53.0781 8.046Z" fill="#013D5B"/>
<path d="M40.1302 20.763V8.424H38.0782V7.263L40.1302 7.182V4.131C40.1302 2.799 40.4542 1.782 41.1022 1.08C41.7682 0.36 42.7312 0 43.9912 0C44.6752 0 45.3682 0.126 46.0702 0.378V1.566C45.4222 1.368 44.8012 1.269 44.2072 1.269C43.3612 1.269 42.7402 1.494 42.3442 1.944C41.9482 2.376 41.7502 3.06 41.7502 3.996V7.182H45.3952V8.424H41.7502V20.763H40.1302Z" fill="#013D5B"/>
<path d="M23.4174 21.168C21.4554 21.168 19.9704 20.565 18.9624 19.359C17.9724 18.135 17.4774 16.335 17.4774 13.959C17.4774 11.601 17.9724 9.819 18.9624 8.613C19.9704 7.389 21.4554 6.777 23.4174 6.777C25.3794 6.777 26.8554 7.389 27.8454 8.613C28.8534 9.819 29.3574 11.601 29.3574 13.959C29.3574 16.335 28.8534 18.135 27.8454 19.359C26.8554 20.565 25.3794 21.168 23.4174 21.168ZM23.4174 19.872C24.8934 19.872 25.9644 19.404 26.6304 18.468C27.3144 17.514 27.6564 16.011 27.6564 13.959C27.6564 11.925 27.3144 10.44 26.6304 9.504C25.9644 8.55 24.8934 8.073 23.4174 8.073C21.9414 8.073 20.8614 8.55 20.1774 9.504C19.5114 10.44 19.1784 11.925 19.1784 13.959C19.1784 16.011 19.5114 17.514 20.1774 18.468C20.8614 19.404 21.9414 19.872 23.4174 19.872Z" fill="#013D5B"/>
<path d="M11.772 1.863H13.419V20.763H11.799L1.647 4.671V20.763H0V1.863H1.62L11.772 17.955V1.863Z" fill="#013D5B"/>
</svg>
