<svg width="602" height="19" viewBox="0 0 602 19" fill="none" xmlns="http://www.w3.org/2000/svg">
<path d="M-3.01898e-05 16.248C1.67997 16.984 3.27197 17.352 4.77597 17.352C6.19997 17.352 7.29597 17.04 8.06397 16.416C8.84797 15.776 9.23997 14.864 9.23997 13.68C9.23997 12.784 8.98397 12.064 8.47197 11.52C7.95997 10.976 7.10397 10.52 5.90397 10.152L4.19997 9.624C2.88797 9.224 1.92797 8.704 1.31997 8.064C0.71197 7.408 0.40797 6.576 0.40797 5.568C0.40797 4.208 0.91997 3.12 1.94397 2.304C2.98397 1.472 4.36797 1.056 6.09597 1.056C7.48797 1.056 8.83197 1.352 10.128 1.944V3.144C8.75197 2.568 7.42397 2.28 6.14397 2.28C4.83197 2.28 3.80797 2.568 3.07197 3.144C2.33597 3.704 1.96797 4.496 1.96797 5.52C1.96797 6.24 2.17597 6.808 2.59197 7.224C3.00797 7.64 3.73597 8.016 4.77597 8.352L6.47997 8.904C8.01597 9.4 9.11997 10.024 9.79197 10.776C10.464 11.512 10.8 12.472 10.8 13.656C10.8 15.176 10.264 16.376 9.19197 17.256C8.13597 18.136 6.68797 18.576 4.84797 18.576C3.15197 18.576 1.61597 18.232 0.23997 17.544L-3.01898e-05 16.248ZM13.874 18.216V0.192L15.314 0V6.888C16.658 6.152 17.978 5.784 19.274 5.784C20.57 5.784 21.57 6.12 22.274 6.792C22.994 7.464 23.354 8.416 23.354 9.648V18.216H21.914V9.888C21.914 7.92 20.914 6.936 18.914 6.936C18.386 6.936 17.802 7.024 17.162 7.2C16.538 7.376 15.922 7.616 15.314 7.92V18.216H13.874ZM31.698 18.576C29.954 18.576 28.634 18.04 27.738 16.968C26.858 15.88 26.418 14.28 26.418 12.168C26.418 10.072 26.858 8.488 27.738 7.416C28.634 6.328 29.954 5.784 31.698 5.784C33.442 5.784 34.754 6.328 35.634 7.416C36.53 8.488 36.978 10.072 36.978 12.168C36.978 14.28 36.53 15.88 35.634 16.968C34.754 18.04 33.442 18.576 31.698 18.576ZM31.698 17.424C33.01 17.424 33.962 17.008 34.554 16.176C35.162 15.328 35.466 13.992 35.466 12.168C35.466 10.36 35.162 9.04 34.554 8.208C33.962 7.36 33.01 6.936 31.698 6.936C30.386 6.936 29.426 7.36 28.818 8.208C28.226 9.04 27.93 10.36 27.93 12.168C27.93 13.992 28.226 15.328 28.818 16.176C29.426 17.008 30.386 17.424 31.698 17.424ZM44.7058 18.576C42.9618 18.576 41.6418 18.04 40.7458 16.968C39.8658 15.88 39.4258 14.28 39.4258 12.168C39.4258 10.072 39.8658 8.488 40.7458 7.416C41.6418 6.328 42.9618 5.784 44.7058 5.784C46.4498 5.784 47.7618 6.328 48.6418 7.416C49.5378 8.488 49.9858 10.072 49.9858 12.168C49.9858 14.28 49.5378 15.88 48.6418 16.968C47.7618 18.04 46.4498 18.576 44.7058 18.576ZM44.7058 17.424C46.0178 17.424 46.9698 17.008 47.5618 16.176C48.1698 15.328 48.4738 13.992 48.4738 12.168C48.4738 10.36 48.1698 9.04 47.5618 8.208C46.9698 7.36 46.0178 6.936 44.7058 6.936C43.3938 6.936 42.4338 7.36 41.8258 8.208C41.2338 9.04 40.9378 10.36 40.9378 12.168C40.9378 13.992 41.2338 15.328 41.8258 16.176C42.4338 17.008 43.3938 17.424 44.7058 17.424ZM55.0016 7.248V14.928C55.0016 15.76 55.1776 16.376 55.5296 16.776C55.8816 17.16 56.4256 17.352 57.1616 17.352C57.6416 17.352 58.1856 17.264 58.7936 17.088V18.144C58.1216 18.368 57.5056 18.48 56.9456 18.48C55.8416 18.48 55.0016 18.184 54.4256 17.592C53.8496 16.984 53.5616 16.088 53.5616 14.904V7.248H51.7376V6.216L53.6096 6.144L53.7536 3.12L55.0016 2.976V6.144H58.6256V7.248H55.0016ZM74.6801 18.264L74.5841 17.424C73.2081 18.192 71.8481 18.576 70.5041 18.576C69.2721 18.576 68.2961 18.256 67.5761 17.616C66.8561 16.96 66.4961 16.064 66.4961 14.928C66.4961 13.728 66.8961 12.816 67.6961 12.192C68.5121 11.552 69.7041 11.232 71.2721 11.232C72.2161 11.232 73.2881 11.344 74.4881 11.568V9.936C74.4881 7.936 73.3601 6.936 71.1041 6.936C70.5121 6.936 69.8641 7.016 69.1601 7.176C68.4561 7.336 67.8081 7.544 67.2161 7.8V6.672C67.7921 6.4 68.4481 6.184 69.1841 6.024C69.9361 5.864 70.6481 5.784 71.3201 5.784C72.8241 5.784 73.9601 6.144 74.7281 6.864C75.5121 7.568 75.9041 8.592 75.9041 9.936V18.144L74.6801 18.264ZM70.8401 17.424C71.4161 17.424 72.0241 17.336 72.6641 17.16C73.3041 16.984 73.9121 16.744 74.4881 16.44V12.6C73.4801 12.408 72.4881 12.312 71.5121 12.312C70.2801 12.312 69.3841 12.52 68.8241 12.936C68.2641 13.352 67.9841 14.008 67.9841 14.904C67.9841 16.584 68.9361 17.424 70.8401 17.424ZM87.7968 18.216V9.888C87.7968 7.92 86.7968 6.936 84.7968 6.936C84.2688 6.936 83.6848 7.024 83.0448 7.2C82.4208 7.376 81.8048 7.616 81.1968 7.92V18.216H79.7568V6.216L80.9808 6.096L81.0768 6.936C82.4688 6.168 83.8288 5.784 85.1568 5.784C86.4528 5.784 87.4528 6.12 88.1568 6.792C88.8768 7.464 89.2368 8.416 89.2368 9.648V18.216H87.7968ZM102.405 0V18.144L101.181 18.264L101.085 17.424C99.7248 18.192 98.4768 18.576 97.3408 18.576C95.7728 18.576 94.5408 18.032 93.6448 16.944C92.7488 15.84 92.3008 14.32 92.3008 12.384C92.3008 10.256 92.8048 8.624 93.8128 7.488C94.8368 6.352 96.3088 5.784 98.2288 5.784C99.2208 5.784 100.133 5.912 100.965 6.168V0.192L102.405 0ZM97.5328 17.424C98.0608 17.424 98.6288 17.336 99.2368 17.16C99.8448 16.984 100.421 16.744 100.965 16.44V7.32C100.133 7.064 99.2608 6.936 98.3488 6.936C96.8128 6.936 95.6688 7.384 94.9168 8.28C94.1808 9.16 93.8128 10.52 93.8128 12.36C93.8128 14.008 94.1248 15.264 94.7488 16.128C95.3888 16.992 96.3168 17.424 97.5328 17.424ZM111.493 16.632C112.693 17.16 113.933 17.424 115.213 17.424C117.373 17.424 118.453 16.584 118.453 14.904C118.453 14.36 118.293 13.92 117.973 13.584C117.669 13.248 117.157 12.968 116.437 12.744L114.613 12.168C113.589 11.848 112.845 11.448 112.381 10.968C111.917 10.472 111.685 9.848 111.685 9.096C111.685 8.088 112.077 7.288 112.861 6.696C113.661 6.088 114.733 5.784 116.077 5.784C117.213 5.784 118.293 6 119.317 6.432V7.56C118.245 7.144 117.189 6.936 116.149 6.936C115.205 6.936 114.461 7.128 113.917 7.512C113.389 7.88 113.125 8.392 113.125 9.048C113.125 9.512 113.269 9.888 113.557 10.176C113.861 10.448 114.397 10.712 115.165 10.968L117.061 11.592C118.037 11.912 118.749 12.336 119.197 12.864C119.661 13.392 119.893 14.064 119.893 14.88C119.893 16.064 119.493 16.976 118.693 17.616C117.893 18.256 116.765 18.576 115.309 18.576C113.965 18.576 112.757 18.328 111.685 17.832L111.493 16.632ZM130.967 17.784C129.911 18.312 128.759 18.576 127.511 18.576C125.815 18.576 124.503 18.024 123.575 16.92C122.663 15.816 122.207 14.24 122.207 12.192C122.207 10.144 122.663 8.568 123.575 7.464C124.503 6.344 125.815 5.784 127.511 5.784C128.711 5.784 129.847 6.048 130.919 6.576V7.704C129.799 7.208 128.711 6.96 127.655 6.96C126.359 6.96 125.375 7.4 124.703 8.28C124.047 9.16 123.719 10.464 123.719 12.192C123.719 13.904 124.047 15.2 124.703 16.08C125.375 16.96 126.359 17.4 127.655 17.4C128.743 17.4 129.847 17.152 130.967 16.656V17.784ZM138.315 18.576C136.571 18.576 135.251 18.04 134.355 16.968C133.475 15.88 133.035 14.28 133.035 12.168C133.035 10.072 133.475 8.488 134.355 7.416C135.251 6.328 136.571 5.784 138.315 5.784C140.059 5.784 141.371 6.328 142.251 7.416C143.147 8.488 143.595 10.072 143.595 12.168C143.595 14.28 143.147 15.88 142.251 16.968C141.371 18.04 140.059 18.576 138.315 18.576ZM138.315 17.424C139.627 17.424 140.579 17.008 141.171 16.176C141.779 15.328 142.083 13.992 142.083 12.168C142.083 10.36 141.779 9.04 141.171 8.208C140.579 7.36 139.627 6.936 138.315 6.936C137.003 6.936 136.043 7.36 135.435 8.208C134.843 9.04 134.547 10.36 134.547 12.168C134.547 13.992 134.843 15.328 135.435 16.176C136.043 17.008 137.003 17.424 138.315 17.424ZM146.835 18.216V6.216L148.059 6.096L148.179 7.176C149.251 6.296 150.395 5.856 151.611 5.856C152.043 5.856 152.387 5.904 152.643 6V7.176C152.227 7.08 151.859 7.032 151.539 7.032C150.403 7.032 149.315 7.44 148.275 8.256V18.216H146.835ZM163.347 17.784C162.243 18.312 161.059 18.576 159.795 18.576C157.955 18.576 156.539 18.032 155.547 16.944C154.555 15.856 154.059 14.296 154.059 12.264C154.059 10.248 154.523 8.664 155.451 7.512C156.379 6.36 157.651 5.784 159.267 5.784C160.691 5.784 161.811 6.232 162.627 7.128C163.459 8.008 163.875 9.216 163.875 10.752C163.875 11.328 163.827 11.88 163.731 12.408H155.475C155.491 15.752 156.971 17.424 159.915 17.424C161.099 17.424 162.243 17.168 163.347 16.656V17.784ZM159.243 6.912C158.155 6.912 157.267 7.312 156.579 8.112C155.891 8.912 155.523 9.984 155.475 11.328H162.483C162.515 11.072 162.531 10.848 162.531 10.656C162.531 9.472 162.243 8.552 161.667 7.896C161.091 7.24 160.283 6.912 159.243 6.912ZM171.477 16.392C172.885 17.08 174.333 17.424 175.821 17.424C177.165 17.424 178.237 17.096 179.037 16.44C179.837 15.784 180.237 14.896 180.237 13.776C180.237 12.688 179.861 11.816 179.109 11.16C178.357 10.504 177.341 10.176 176.061 10.176H174.645V9.024H176.013C177.165 9.024 178.077 8.736 178.749 8.16C179.421 7.584 179.757 6.808 179.757 5.832C179.757 4.808 179.413 4.008 178.725 3.432C178.037 2.856 177.085 2.568 175.869 2.568C174.589 2.568 173.333 2.832 172.101 3.36V2.208C173.253 1.68 174.549 1.416 175.989 1.416C177.541 1.416 178.805 1.824 179.781 2.64C180.773 3.44 181.269 4.472 181.269 5.736C181.269 6.664 180.997 7.464 180.453 8.136C179.925 8.808 179.181 9.288 178.221 9.576C179.325 9.848 180.189 10.368 180.813 11.136C181.437 11.888 181.749 12.784 181.749 13.824C181.749 14.768 181.493 15.608 180.981 16.344C180.485 17.064 179.797 17.616 178.917 18C178.053 18.384 177.069 18.576 175.965 18.576C175.197 18.576 174.429 18.488 173.661 18.312C172.893 18.152 172.237 17.928 171.693 17.64L171.477 16.392ZM189.021 18.216L197.709 1.776H199.005L190.317 18.216H189.021ZM187.869 11.232C188.717 11.232 189.341 10.88 189.741 10.176C190.157 9.472 190.365 8.368 190.365 6.864C190.365 5.36 190.157 4.256 189.741 3.552C189.341 2.848 188.717 2.496 187.869 2.496C187.021 2.496 186.389 2.848 185.973 3.552C185.573 4.256 185.373 5.36 185.373 6.864C185.373 8.368 185.573 9.472 185.973 10.176C186.389 10.88 187.021 11.232 187.869 11.232ZM187.869 12.192C186.637 12.192 185.693 11.744 185.037 10.848C184.381 9.936 184.053 8.608 184.053 6.864C184.053 5.12 184.381 3.8 185.037 2.904C185.693 1.992 186.637 1.536 187.869 1.536C189.101 1.536 190.045 1.992 190.701 2.904C191.357 3.8 191.685 5.12 191.685 6.864C191.685 8.608 191.357 9.936 190.701 10.848C190.045 11.744 189.101 12.192 187.869 12.192ZM200.157 17.496C201.005 17.496 201.629 17.144 202.029 16.44C202.445 15.736 202.653 14.632 202.653 13.128C202.653 11.624 202.445 10.52 202.029 9.816C201.629 9.112 201.005 8.76 200.157 8.76C199.309 8.76 198.677 9.112 198.261 9.816C197.861 10.52 197.661 11.624 197.661 13.128C197.661 14.632 197.861 15.736 198.261 16.44C198.677 17.144 199.309 17.496 200.157 17.496ZM200.157 18.456C198.925 18.456 197.981 18.008 197.325 17.112C196.669 16.2 196.341 14.872 196.341 13.128C196.341 11.384 196.669 10.064 197.325 9.168C197.981 8.256 198.925 7.8 200.157 7.8C201.389 7.8 202.333 8.256 202.989 9.168C203.645 10.064 203.973 11.384 203.973 13.128C203.973 14.872 203.645 16.2 202.989 17.112C202.333 18.008 201.389 18.456 200.157 18.456ZM220.944 17.784C219.888 18.312 218.736 18.576 217.488 18.576C215.792 18.576 214.48 18.024 213.552 16.92C212.64 15.816 212.184 14.24 212.184 12.192C212.184 10.144 212.64 8.568 213.552 7.464C214.48 6.344 215.792 5.784 217.488 5.784C218.688 5.784 219.824 6.048 220.896 6.576V7.704C219.776 7.208 218.688 6.96 217.632 6.96C216.336 6.96 215.352 7.4 214.68 8.28C214.024 9.16 213.696 10.464 213.696 12.192C213.696 13.904 214.024 15.2 214.68 16.08C215.352 16.96 216.336 17.4 217.632 17.4C218.72 17.4 219.824 17.152 220.944 16.656V17.784ZM231.43 18.264L231.334 17.424C229.958 18.192 228.598 18.576 227.254 18.576C226.022 18.576 225.046 18.256 224.326 17.616C223.606 16.96 223.246 16.064 223.246 14.928C223.246 13.728 223.646 12.816 224.446 12.192C225.262 11.552 226.454 11.232 228.022 11.232C228.966 11.232 230.038 11.344 231.238 11.568V9.936C231.238 7.936 230.11 6.936 227.854 6.936C227.262 6.936 226.614 7.016 225.91 7.176C225.206 7.336 224.558 7.544 223.966 7.8V6.672C224.542 6.4 225.198 6.184 225.934 6.024C226.686 5.864 227.398 5.784 228.07 5.784C229.574 5.784 230.71 6.144 231.478 6.864C232.262 7.568 232.654 8.592 232.654 9.936V18.144L231.43 18.264ZM227.59 17.424C228.166 17.424 228.774 17.336 229.414 17.16C230.054 16.984 230.662 16.744 231.238 16.44V12.6C230.23 12.408 229.238 12.312 228.262 12.312C227.03 12.312 226.134 12.52 225.574 12.936C225.014 13.352 224.734 14.008 224.734 14.904C224.734 16.584 225.686 17.424 227.59 17.424ZM235.571 16.632C236.771 17.16 238.011 17.424 239.291 17.424C241.451 17.424 242.531 16.584 242.531 14.904C242.531 14.36 242.371 13.92 242.051 13.584C241.747 13.248 241.235 12.968 240.515 12.744L238.691 12.168C237.667 11.848 236.923 11.448 236.459 10.968C235.995 10.472 235.763 9.848 235.763 9.096C235.763 8.088 236.155 7.288 236.939 6.696C237.739 6.088 238.811 5.784 240.155 5.784C241.291 5.784 242.371 6 243.395 6.432V7.56C242.323 7.144 241.267 6.936 240.227 6.936C239.283 6.936 238.539 7.128 237.995 7.512C237.467 7.88 237.203 8.392 237.203 9.048C237.203 9.512 237.347 9.888 237.635 10.176C237.939 10.448 238.475 10.712 239.243 10.968L241.139 11.592C242.115 11.912 242.827 12.336 243.275 12.864C243.739 13.392 243.971 14.064 243.971 14.88C243.971 16.064 243.571 16.976 242.771 17.616C241.971 18.256 240.843 18.576 239.387 18.576C238.043 18.576 236.835 18.328 235.763 17.832L235.571 16.632ZM247.077 18.216V0.192L248.517 0V6.888C249.861 6.152 251.181 5.784 252.477 5.784C253.773 5.784 254.773 6.12 255.477 6.792C256.197 7.464 256.557 8.416 256.557 9.648V18.216H255.117V9.888C255.117 7.92 254.117 6.936 252.117 6.936C251.589 6.936 251.005 7.024 250.365 7.2C249.741 7.376 249.125 7.616 248.517 7.92V18.216H247.077ZM267.853 6.864C268.461 6.528 269.077 6.264 269.701 6.072C270.341 5.88 270.933 5.784 271.477 5.784C273.045 5.784 274.277 6.336 275.173 7.44C276.069 8.528 276.517 10.04 276.517 11.976C276.517 14.104 276.005 15.736 274.981 16.872C273.973 18.008 272.509 18.576 270.589 18.576C269.229 18.576 267.837 18.352 266.413 17.904V0.192L267.853 0V6.864ZM271.285 6.936C270.757 6.936 270.189 7.024 269.581 7.2C268.973 7.376 268.397 7.616 267.853 7.92V17.04C268.685 17.296 269.557 17.424 270.469 17.424C272.005 17.424 273.141 16.984 273.877 16.104C274.629 15.208 275.005 13.84 275.005 12C275.005 10.352 274.685 9.096 274.045 8.232C273.421 7.368 272.501 6.936 271.285 6.936ZM287.141 18.264L287.045 17.424C285.669 18.192 284.309 18.576 282.965 18.576C281.733 18.576 280.757 18.256 280.037 17.616C279.317 16.96 278.957 16.064 278.957 14.928C278.957 13.728 279.357 12.816 280.157 12.192C280.973 11.552 282.165 11.232 283.733 11.232C284.677 11.232 285.749 11.344 286.949 11.568V9.936C286.949 7.936 285.821 6.936 283.565 6.936C282.973 6.936 282.325 7.016 281.621 7.176C280.917 7.336 280.269 7.544 279.677 7.8V6.672C280.253 6.4 280.909 6.184 281.645 6.024C282.397 5.864 283.109 5.784 283.781 5.784C285.285 5.784 286.421 6.144 287.189 6.864C287.973 7.568 288.365 8.592 288.365 9.936V18.144L287.141 18.264ZM283.301 17.424C283.877 17.424 284.485 17.336 285.125 17.16C285.765 16.984 286.373 16.744 286.949 16.44V12.6C285.941 12.408 284.949 12.312 283.973 12.312C282.741 12.312 281.845 12.52 281.285 12.936C280.725 13.352 280.445 14.008 280.445 14.904C280.445 16.584 281.397 17.424 283.301 17.424ZM300.186 17.784C299.13 18.312 297.978 18.576 296.73 18.576C295.034 18.576 293.722 18.024 292.794 16.92C291.882 15.816 291.426 14.24 291.426 12.192C291.426 10.144 291.882 8.568 292.794 7.464C293.722 6.344 295.034 5.784 296.73 5.784C297.93 5.784 299.066 6.048 300.138 6.576V7.704C299.018 7.208 297.93 6.96 296.874 6.96C295.578 6.96 294.594 7.4 293.922 8.28C293.266 9.16 292.938 10.464 292.938 12.192C292.938 13.904 293.266 15.2 293.922 16.08C294.594 16.96 295.578 17.4 296.874 17.4C297.962 17.4 299.066 17.152 300.186 16.656V17.784ZM303.28 18.216V0.192L304.72 0V11.496L310.384 6.144H312.088L306.16 11.76L312.28 18.216H310.456L304.72 12.12V18.216H303.28ZM324.807 18.576C323.063 18.576 321.743 18.04 320.847 16.968C319.967 15.88 319.527 14.28 319.527 12.168C319.527 10.072 319.967 8.488 320.847 7.416C321.743 6.328 323.063 5.784 324.807 5.784C326.551 5.784 327.863 6.328 328.743 7.416C329.639 8.488 330.087 10.072 330.087 12.168C330.087 14.28 329.639 15.88 328.743 16.968C327.863 18.04 326.551 18.576 324.807 18.576ZM324.807 17.424C326.119 17.424 327.071 17.008 327.663 16.176C328.271 15.328 328.575 13.992 328.575 12.168C328.575 10.36 328.271 9.04 327.663 8.208C327.071 7.36 326.119 6.936 324.807 6.936C323.495 6.936 322.535 7.36 321.927 8.208C321.335 9.04 321.039 10.36 321.039 12.168C321.039 13.992 321.335 15.328 321.927 16.176C322.535 17.008 323.495 17.424 324.807 17.424ZM341.367 18.216V9.888C341.367 7.92 340.367 6.936 338.367 6.936C337.839 6.936 337.255 7.024 336.615 7.2C335.991 7.376 335.375 7.616 334.767 7.92V18.216H333.327V6.216L334.551 6.096L334.647 6.936C336.039 6.168 337.399 5.784 338.727 5.784C340.023 5.784 341.023 6.12 341.727 6.792C342.447 7.464 342.807 8.416 342.807 9.648V18.216H341.367ZM354.103 6.864C354.711 6.528 355.327 6.264 355.951 6.072C356.591 5.88 357.183 5.784 357.727 5.784C359.295 5.784 360.527 6.336 361.423 7.44C362.319 8.528 362.767 10.04 362.767 11.976C362.767 14.104 362.255 15.736 361.231 16.872C360.223 18.008 358.759 18.576 356.839 18.576C355.479 18.576 354.087 18.352 352.663 17.904V0.192L354.103 0V6.864ZM357.535 6.936C357.007 6.936 356.439 7.024 355.831 7.2C355.223 7.376 354.647 7.616 354.103 7.92V17.04C354.935 17.296 355.807 17.424 356.719 17.424C358.255 17.424 359.391 16.984 360.127 16.104C360.879 15.208 361.255 13.84 361.255 12C361.255 10.352 360.935 9.096 360.295 8.232C359.671 7.368 358.751 6.936 357.535 6.936ZM365.999 18.216V6.264L367.439 6.072V18.216H365.999ZM366.719 3.216C366.399 3.216 366.135 3.12 365.927 2.928C365.735 2.736 365.639 2.472 365.639 2.136C365.639 1.8 365.735 1.536 365.927 1.344C366.135 1.152 366.399 1.056 366.719 1.056C367.039 1.056 367.295 1.152 367.487 1.344C367.695 1.536 367.799 1.8 367.799 2.136C367.799 2.472 367.695 2.736 367.487 2.928C367.295 3.12 367.039 3.216 366.719 3.216ZM373.236 7.248V14.928C373.236 15.76 373.412 16.376 373.764 16.776C374.116 17.16 374.66 17.352 375.396 17.352C375.876 17.352 376.42 17.264 377.028 17.088V18.144C376.356 18.368 375.74 18.48 375.18 18.48C374.076 18.48 373.236 18.184 372.66 17.592C372.084 16.984 371.796 16.088 371.796 14.904V7.248H369.972V6.216L371.844 6.144L371.988 3.12L373.236 2.976V6.144H376.86V7.248H373.236ZM388.018 17.784C386.914 18.312 385.73 18.576 384.466 18.576C382.626 18.576 381.21 18.032 380.218 16.944C379.226 15.856 378.73 14.296 378.73 12.264C378.73 10.248 379.194 8.664 380.122 7.512C381.05 6.36 382.322 5.784 383.938 5.784C385.362 5.784 386.482 6.232 387.298 7.128C388.13 8.008 388.546 9.216 388.546 10.752C388.546 11.328 388.498 11.88 388.402 12.408H380.146C380.162 15.752 381.642 17.424 384.586 17.424C385.77 17.424 386.914 17.168 388.018 16.656V17.784ZM383.914 6.912C382.826 6.912 381.938 7.312 381.25 8.112C380.562 8.912 380.194 9.984 380.146 11.328H387.154C387.186 11.072 387.202 10.848 387.202 10.656C387.202 9.472 386.914 8.552 386.338 7.896C385.762 7.24 384.954 6.912 383.914 6.912ZM390.821 16.632C392.021 17.16 393.261 17.424 394.541 17.424C396.701 17.424 397.781 16.584 397.781 14.904C397.781 14.36 397.621 13.92 397.301 13.584C396.997 13.248 396.485 12.968 395.765 12.744L393.941 12.168C392.917 11.848 392.173 11.448 391.709 10.968C391.245 10.472 391.013 9.848 391.013 9.096C391.013 8.088 391.405 7.288 392.189 6.696C392.989 6.088 394.061 5.784 395.405 5.784C396.541 5.784 397.621 6 398.645 6.432V7.56C397.573 7.144 396.517 6.936 395.477 6.936C394.533 6.936 393.789 7.128 393.245 7.512C392.717 7.88 392.453 8.392 392.453 9.048C392.453 9.512 392.597 9.888 392.885 10.176C393.189 10.448 393.725 10.712 394.493 10.968L396.389 11.592C397.365 11.912 398.077 12.336 398.525 12.864C398.989 13.392 399.221 14.064 399.221 14.88C399.221 16.064 398.821 16.976 398.021 17.616C397.221 18.256 396.093 18.576 394.637 18.576C393.293 18.576 392.085 18.328 391.013 17.832L390.821 16.632ZM415.719 18.264L415.623 17.424C414.247 18.192 412.887 18.576 411.543 18.576C410.311 18.576 409.335 18.256 408.615 17.616C407.895 16.96 407.535 16.064 407.535 14.928C407.535 13.728 407.935 12.816 408.735 12.192C409.551 11.552 410.743 11.232 412.311 11.232C413.255 11.232 414.327 11.344 415.527 11.568V9.936C415.527 7.936 414.399 6.936 412.143 6.936C411.551 6.936 410.903 7.016 410.199 7.176C409.495 7.336 408.847 7.544 408.255 7.8V6.672C408.831 6.4 409.487 6.184 410.223 6.024C410.975 5.864 411.687 5.784 412.359 5.784C413.863 5.784 414.999 6.144 415.767 6.864C416.551 7.568 416.943 8.592 416.943 9.936V18.144L415.719 18.264ZM411.879 17.424C412.455 17.424 413.063 17.336 413.703 17.16C414.343 16.984 414.951 16.744 415.527 16.44V12.6C414.519 12.408 413.527 12.312 412.551 12.312C411.319 12.312 410.423 12.52 409.863 12.936C409.303 13.352 409.023 14.008 409.023 14.904C409.023 16.584 409.975 17.424 411.879 17.424ZM428.836 18.216V9.888C428.836 7.92 427.836 6.936 425.836 6.936C425.308 6.936 424.724 7.024 424.084 7.2C423.46 7.376 422.844 7.616 422.236 7.92V18.216H420.796V6.216L422.02 6.096L422.116 6.936C423.508 6.168 424.868 5.784 426.196 5.784C427.492 5.784 428.492 6.12 429.196 6.792C429.916 7.464 430.276 8.416 430.276 9.648V18.216H428.836ZM443.444 0V18.144L442.22 18.264L442.124 17.424C440.764 18.192 439.516 18.576 438.38 18.576C436.812 18.576 435.58 18.032 434.684 16.944C433.788 15.84 433.34 14.32 433.34 12.384C433.34 10.256 433.844 8.624 434.852 7.488C435.876 6.352 437.348 5.784 439.268 5.784C440.26 5.784 441.172 5.912 442.004 6.168V0.192L443.444 0ZM438.572 17.424C439.1 17.424 439.668 17.336 440.276 17.16C440.884 16.984 441.46 16.744 442.004 16.44V7.32C441.172 7.064 440.3 6.936 439.388 6.936C437.852 6.936 436.708 7.384 435.956 8.28C435.22 9.16 434.852 10.52 434.852 12.36C434.852 14.008 435.164 15.264 435.788 16.128C436.428 16.992 437.356 17.424 438.572 17.424ZM454.908 6.864C455.516 6.528 456.132 6.264 456.756 6.072C457.396 5.88 457.988 5.784 458.532 5.784C460.1 5.784 461.332 6.336 462.228 7.44C463.124 8.528 463.572 10.04 463.572 11.976C463.572 14.104 463.06 15.736 462.036 16.872C461.028 18.008 459.564 18.576 457.644 18.576C456.284 18.576 454.892 18.352 453.468 17.904V0.192L454.908 0V6.864ZM458.34 6.936C457.812 6.936 457.244 7.024 456.636 7.2C456.028 7.376 455.452 7.616 454.908 7.92V17.04C455.74 17.296 456.612 17.424 457.524 17.424C459.06 17.424 460.196 16.984 460.932 16.104C461.684 15.208 462.06 13.84 462.06 12C462.06 10.352 461.74 9.096 461.1 8.232C460.476 7.368 459.556 6.936 458.34 6.936ZM474.196 18.264L474.1 17.424C472.724 18.192 471.364 18.576 470.02 18.576C468.788 18.576 467.812 18.256 467.092 17.616C466.372 16.96 466.012 16.064 466.012 14.928C466.012 13.728 466.412 12.816 467.212 12.192C468.028 11.552 469.22 11.232 470.788 11.232C471.732 11.232 472.804 11.344 474.004 11.568V9.936C474.004 7.936 472.876 6.936 470.62 6.936C470.028 6.936 469.38 7.016 468.676 7.176C467.972 7.336 467.324 7.544 466.732 7.8V6.672C467.308 6.4 467.964 6.184 468.7 6.024C469.452 5.864 470.164 5.784 470.836 5.784C472.34 5.784 473.476 6.144 474.244 6.864C475.028 7.568 475.42 8.592 475.42 9.936V18.144L474.196 18.264ZM470.356 17.424C470.932 17.424 471.54 17.336 472.18 17.16C472.82 16.984 473.428 16.744 474.004 16.44V12.6C472.996 12.408 472.004 12.312 471.028 12.312C469.796 12.312 468.9 12.52 468.34 12.936C467.78 13.352 467.5 14.008 467.5 14.904C467.5 16.584 468.452 17.424 470.356 17.424ZM479.272 18.216V0.192L480.712 0V18.216H479.272ZM484.733 18.216V0.192L486.173 0V18.216H484.733ZM506.034 18.216L502.794 7.752L499.65 18.216H498.282L494.442 6.144H495.906L498.978 16.44L502.002 6.144H503.61L506.682 16.512L509.73 6.144H511.122L507.402 18.216H506.034ZM513.397 18.216V6.264L514.837 6.072V18.216H513.397ZM514.117 3.216C513.797 3.216 513.533 3.12 513.325 2.928C513.133 2.736 513.037 2.472 513.037 2.136C513.037 1.8 513.133 1.536 513.325 1.344C513.533 1.152 513.797 1.056 514.117 1.056C514.437 1.056 514.693 1.152 514.885 1.344C515.093 1.536 515.197 1.8 515.197 2.136C515.197 2.472 515.093 2.736 514.885 2.928C514.693 3.12 514.437 3.216 514.117 3.216ZM520.634 7.248V14.928C520.634 15.76 520.81 16.376 521.162 16.776C521.514 17.16 522.058 17.352 522.794 17.352C523.274 17.352 523.818 17.264 524.426 17.088V18.144C523.754 18.368 523.138 18.48 522.578 18.48C521.474 18.48 520.634 18.184 520.058 17.592C519.482 16.984 519.194 16.088 519.194 14.904V7.248H517.37V6.216L519.242 6.144L519.386 3.12L520.634 2.976V6.144H524.258V7.248H520.634ZM526.921 18.216V0.192L528.361 0V6.888C529.705 6.152 531.025 5.784 532.321 5.784C533.617 5.784 534.617 6.12 535.321 6.792C536.041 7.464 536.401 8.416 536.401 9.648V18.216H534.961V9.888C534.961 7.92 533.961 6.936 531.961 6.936C531.433 6.936 530.849 7.024 530.209 7.2C529.585 7.376 528.969 7.616 528.361 7.92V18.216H526.921ZM545.297 16.248C546.977 16.984 548.569 17.352 550.073 17.352C551.497 17.352 552.593 17.04 553.361 16.416C554.145 15.776 554.537 14.864 554.537 13.68C554.537 12.784 554.281 12.064 553.769 11.52C553.257 10.976 552.401 10.52 551.201 10.152L549.497 9.624C548.185 9.224 547.225 8.704 546.617 8.064C546.009 7.408 545.705 6.576 545.705 5.568C545.705 4.208 546.217 3.12 547.241 2.304C548.281 1.472 549.665 1.056 551.393 1.056C552.785 1.056 554.129 1.352 555.425 1.944V3.144C554.049 2.568 552.721 2.28 551.441 2.28C550.129 2.28 549.105 2.568 548.369 3.144C547.633 3.704 547.265 4.496 547.265 5.52C547.265 6.24 547.473 6.808 547.889 7.224C548.305 7.64 549.033 8.016 550.073 8.352L551.777 8.904C553.313 9.4 554.417 10.024 555.089 10.776C555.761 11.512 556.097 12.472 556.097 13.656C556.097 15.176 555.561 16.376 554.489 17.256C553.433 18.136 551.985 18.576 550.145 18.576C548.449 18.576 546.913 18.232 545.537 17.544L545.297 16.248ZM566.563 18.264L566.467 17.424C565.091 18.192 563.731 18.576 562.387 18.576C561.155 18.576 560.179 18.256 559.459 17.616C558.739 16.96 558.379 16.064 558.379 14.928C558.379 13.728 558.779 12.816 559.579 12.192C560.395 11.552 561.587 11.232 563.155 11.232C564.099 11.232 565.171 11.344 566.371 11.568V9.936C566.371 7.936 565.243 6.936 562.987 6.936C562.395 6.936 561.747 7.016 561.043 7.176C560.339 7.336 559.691 7.544 559.099 7.8V6.672C559.675 6.4 560.331 6.184 561.067 6.024C561.819 5.864 562.531 5.784 563.203 5.784C564.707 5.784 565.843 6.144 566.611 6.864C567.395 7.568 567.787 8.592 567.787 9.936V18.144L566.563 18.264ZM562.723 17.424C563.299 17.424 563.907 17.336 564.547 17.16C565.187 16.984 565.795 16.744 566.371 16.44V12.6C565.363 12.408 564.371 12.312 563.395 12.312C562.163 12.312 561.267 12.52 560.707 12.936C560.147 13.352 559.867 14.008 559.867 14.904C559.867 16.584 560.819 17.424 562.723 17.424ZM574.376 18.216L569.816 6.144H571.328L575.096 16.68L578.984 6.144H580.424L575.768 18.216H574.376ZM586.885 18.576C585.141 18.576 583.821 18.04 582.925 16.968C582.045 15.88 581.605 14.28 581.605 12.168C581.605 10.072 582.045 8.488 582.925 7.416C583.821 6.328 585.141 5.784 586.885 5.784C588.629 5.784 589.941 6.328 590.821 7.416C591.717 8.488 592.165 10.072 592.165 12.168C592.165 14.28 591.717 15.88 590.821 16.968C589.941 18.04 588.629 18.576 586.885 18.576ZM586.885 17.424C588.197 17.424 589.149 17.008 589.741 16.176C590.349 15.328 590.653 13.992 590.653 12.168C590.653 10.36 590.349 9.04 589.741 8.208C589.149 7.36 588.197 6.936 586.885 6.936C585.573 6.936 584.613 7.36 584.005 8.208C583.413 9.04 583.117 10.36 583.117 12.168C583.117 13.992 583.413 15.328 584.005 16.176C584.613 17.008 585.573 17.424 586.885 17.424ZM595.405 18.216V6.216L596.629 6.096L596.749 7.176C597.821 6.296 598.965 5.856 600.181 5.856C600.613 5.856 600.957 5.904 601.213 6V7.176C600.797 7.08 600.429 7.032 600.109 7.032C598.973 7.032 597.885 7.44 596.845 8.256V18.216H595.405Z" fill="#013D5B"/>
</svg>
