<svg width="238" height="28" viewBox="0 0 238 28" fill="none" xmlns="http://www.w3.org/2000/svg">
<g clip-path="url(#clip0_11148_4432)">
<path d="M17.7 25L12.81 6.28L7.89 25H5.88L0.57 4H2.49L6.93 22.57L11.73 4H13.89L18.69 22.63L23.16 4H25.05L19.74 25H17.7ZM28.1255 25V2.47L29.9255 2.23V10.84C31.6055 9.92 33.2555 9.46 34.8755 9.46C36.4955 9.46 37.7455 9.88 38.6255 10.72C39.5255 11.56 39.9755 12.75 39.9755 14.29V25H38.1755V14.59C38.1755 12.13 36.9255 10.9 34.4255 10.9C33.7655 10.9 33.0355 11.01 32.2355 11.23C31.4555 11.45 30.6855 11.75 29.9255 12.13V25H28.1255ZM55.4154 24.46C54.0354 25.12 52.5554 25.45 50.9754 25.45C48.6754 25.45 46.9054 24.77 45.6654 23.41C44.4254 22.05 43.8054 20.1 43.8054 17.56C43.8054 15.04 44.3854 13.06 45.5454 11.62C46.7054 10.18 48.2954 9.46 50.3154 9.46C52.0954 9.46 53.4954 10.02 54.5154 11.14C55.5554 12.24 56.0754 13.75 56.0754 15.67C56.0754 16.39 56.0154 17.08 55.8954 17.74H45.5754C45.5954 21.92 47.4454 24.01 51.1254 24.01C52.6054 24.01 54.0354 23.69 55.4154 23.05V24.46ZM50.2854 10.87C48.9254 10.87 47.8154 11.37 46.9554 12.37C46.0954 13.37 45.6354 14.71 45.5754 16.39H54.3354C54.3754 16.07 54.3954 15.79 54.3954 15.55C54.3954 14.07 54.0354 12.92 53.3154 12.1C52.5954 11.28 51.5854 10.87 50.2854 10.87ZM70.1384 25V14.59C70.1384 12.13 68.8884 10.9 66.3884 10.9C65.7284 10.9 64.9984 11.01 64.1984 11.23C63.4184 11.45 62.6484 11.75 61.8884 12.13V25H60.0884V10L61.6184 9.85L61.7384 10.9C63.4784 9.94 65.1784 9.46 66.8384 9.46C68.4584 9.46 69.7084 9.88 70.5884 10.72C71.4884 11.56 71.9384 12.75 71.9384 14.29V25H70.1384ZM84.2583 25V10.06L86.0583 9.82V25H84.2583ZM85.1583 6.25C84.7583 6.25 84.4283 6.13 84.1683 5.89C83.9283 5.65 83.8083 5.32 83.8083 4.9C83.8083 4.48 83.9283 4.15 84.1683 3.91C84.4283 3.67 84.7583 3.55 85.1583 3.55C85.5583 3.55 85.8783 3.67 86.1183 3.91C86.3783 4.15 86.5083 4.48 86.5083 4.9C86.5083 5.32 86.3783 5.65 86.1183 5.89C85.8783 6.13 85.5583 6.25 85.1583 6.25ZM93.3045 11.29V20.89C93.3045 21.93 93.5245 22.7 93.9645 23.2C94.4045 23.68 95.0845 23.92 96.0045 23.92C96.6045 23.92 97.2845 23.81 98.0445 23.59V24.91C97.2045 25.19 96.4345 25.33 95.7345 25.33C94.3545 25.33 93.3045 24.96 92.5845 24.22C91.8645 23.46 91.5045 22.34 91.5045 20.86V11.29H89.2245V10L91.5645 9.91L91.7445 6.13L93.3045 5.95V9.91H97.8345V11.29H93.3045ZM108.663 25V10L110.193 9.85L110.343 11.2C111.683 10.1 113.113 9.55 114.633 9.55C115.173 9.55 115.603 9.61 115.923 9.73V11.2C115.403 11.08 114.943 11.02 114.543 11.02C113.123 11.02 111.763 11.53 110.463 12.55V25H108.663ZM127.922 25.06L127.802 24.01C126.082 24.97 124.382 25.45 122.702 25.45C121.162 25.45 119.942 25.05 119.042 24.25C118.142 23.43 117.692 22.31 117.692 20.89C117.692 19.39 118.192 18.25 119.192 17.47C120.212 16.67 121.702 16.27 123.662 16.27C124.842 16.27 126.182 16.41 127.682 16.69V14.65C127.682 12.15 126.272 10.9 123.452 10.9C122.712 10.9 121.902 11 121.022 11.2C120.142 11.4 119.332 11.66 118.592 11.98V10.57C119.312 10.23 120.132 9.96 121.052 9.76C121.992 9.56 122.882 9.46 123.722 9.46C125.602 9.46 127.022 9.91 127.982 10.81C128.962 11.69 129.452 12.97 129.452 14.65V24.91L127.922 25.06ZM123.122 24.01C123.842 24.01 124.602 23.9 125.402 23.68C126.202 23.46 126.962 23.16 127.682 22.78V17.98C126.422 17.74 125.182 17.62 123.962 17.62C122.422 17.62 121.302 17.88 120.602 18.4C119.902 18.92 119.552 19.74 119.552 20.86C119.552 22.96 120.742 24.01 123.122 24.01ZM134.268 25V10.06L136.068 9.82V25H134.268ZM135.168 6.25C134.768 6.25 134.438 6.13 134.178 5.89C133.938 5.65 133.818 5.32 133.818 4.9C133.818 4.48 133.938 4.15 134.178 3.91C134.438 3.67 134.768 3.55 135.168 3.55C135.568 3.55 135.888 3.67 136.128 3.91C136.388 4.15 136.518 4.48 136.518 4.9C136.518 5.32 136.388 5.65 136.128 5.89C135.888 6.13 135.568 6.25 135.168 6.25ZM151.144 25V14.59C151.144 12.13 149.894 10.9 147.394 10.9C146.734 10.9 146.004 11.01 145.204 11.23C144.424 11.45 143.654 11.75 142.894 12.13V25H141.094V10L142.624 9.85L142.744 10.9C144.484 9.94 146.184 9.46 147.844 9.46C149.464 9.46 150.714 9.88 151.594 10.72C152.494 11.56 152.944 12.75 152.944 14.29V25H151.144ZM156.594 23.02C158.094 23.68 159.644 24.01 161.244 24.01C163.944 24.01 165.294 22.96 165.294 20.86C165.294 20.18 165.094 19.63 164.694 19.21C164.314 18.79 163.674 18.44 162.774 18.16L160.494 17.44C159.214 17.04 158.284 16.54 157.704 15.94C157.124 15.32 156.834 14.54 156.834 13.6C156.834 12.34 157.324 11.34 158.304 10.6C159.304 9.84 160.644 9.46 162.324 9.46C163.744 9.46 165.094 9.73 166.374 10.27V11.68C165.034 11.16 163.714 10.9 162.414 10.9C161.234 10.9 160.304 11.14 159.624 11.62C158.964 12.08 158.634 12.72 158.634 13.54C158.634 14.12 158.814 14.59 159.174 14.95C159.554 15.29 160.224 15.62 161.184 15.94L163.554 16.72C164.774 17.12 165.664 17.65 166.224 18.31C166.804 18.97 167.094 19.81 167.094 20.83C167.094 22.31 166.594 23.45 165.594 24.25C164.594 25.05 163.184 25.45 161.364 25.45C159.684 25.45 158.174 25.14 156.834 24.52L156.594 23.02ZM188.437 24.46C187.117 25.12 185.677 25.45 184.117 25.45C181.997 25.45 180.357 24.76 179.197 23.38C178.057 22 177.487 20.03 177.487 17.47C177.487 14.91 178.057 12.94 179.197 11.56C180.357 10.16 181.997 9.46 184.117 9.46C185.617 9.46 187.037 9.79 188.377 10.45V11.86C186.977 11.24 185.617 10.93 184.297 10.93C182.677 10.93 181.447 11.48 180.607 12.58C179.787 13.68 179.377 15.31 179.377 17.47C179.377 19.61 179.787 21.23 180.607 22.33C181.447 23.43 182.677 23.98 184.297 23.98C185.657 23.98 187.037 23.67 188.437 23.05V24.46ZM201.545 25.06L201.425 24.01C199.705 24.97 198.005 25.45 196.325 25.45C194.785 25.45 193.565 25.05 192.665 24.25C191.765 23.43 191.315 22.31 191.315 20.89C191.315 19.39 191.815 18.25 192.815 17.47C193.835 16.67 195.325 16.27 197.285 16.27C198.465 16.27 199.805 16.41 201.305 16.69V14.65C201.305 12.15 199.895 10.9 197.075 10.9C196.335 10.9 195.525 11 194.645 11.2C193.765 11.4 192.955 11.66 192.215 11.98V10.57C192.935 10.23 193.755 9.96 194.675 9.76C195.615 9.56 196.505 9.46 197.345 9.46C199.225 9.46 200.645 9.91 201.605 10.81C202.585 11.69 203.075 12.97 203.075 14.65V24.91L201.545 25.06ZM196.745 24.01C197.465 24.01 198.225 23.9 199.025 23.68C199.825 23.46 200.585 23.16 201.305 22.78V17.98C200.045 17.74 198.805 17.62 197.585 17.62C196.045 17.62 194.925 17.88 194.225 18.4C193.525 18.92 193.175 19.74 193.175 20.86C193.175 22.96 194.365 24.01 196.745 24.01ZM206.721 23.02C208.221 23.68 209.771 24.01 211.371 24.01C214.071 24.01 215.421 22.96 215.421 20.86C215.421 20.18 215.221 19.63 214.821 19.21C214.441 18.79 213.801 18.44 212.901 18.16L210.621 17.44C209.341 17.04 208.411 16.54 207.831 15.94C207.251 15.32 206.961 14.54 206.961 13.6C206.961 12.34 207.451 11.34 208.431 10.6C209.431 9.84 210.771 9.46 212.451 9.46C213.871 9.46 215.221 9.73 216.501 10.27V11.68C215.161 11.16 213.841 10.9 212.541 10.9C211.361 10.9 210.431 11.14 209.751 11.62C209.091 12.08 208.761 12.72 208.761 13.54C208.761 14.12 208.941 14.59 209.301 14.95C209.681 15.29 210.351 15.62 211.311 15.94L213.681 16.72C214.901 17.12 215.791 17.65 216.351 18.31C216.931 18.97 217.221 19.81 217.221 20.83C217.221 22.31 216.721 23.45 215.721 24.25C214.721 25.05 213.311 25.45 211.491 25.45C209.811 25.45 208.301 25.14 206.961 24.52L206.721 23.02ZM221.104 25V2.47L222.904 2.23V10.84C224.584 9.92 226.234 9.46 227.854 9.46C229.474 9.46 230.724 9.88 231.604 10.72C232.504 11.56 232.954 12.75 232.954 14.29V25H231.154V14.59C231.154 12.13 229.904 10.9 227.404 10.9C226.744 10.9 226.014 11.01 225.214 11.23C224.434 11.45 223.664 11.75 222.904 12.13V25H221.104ZM4.32 46.81C5.08 46.39 5.85 46.06 6.63 45.82C7.43 45.58 8.17 45.46 8.85 45.46C10.81 45.46 12.35 46.15 13.47 47.53C14.59 48.89 15.15 50.78 15.15 53.2C15.15 55.86 14.51 57.9 13.23 59.32C11.97 60.74 10.14 61.45 7.74 61.45C6.04 61.45 4.3 61.17 2.52 60.61V38.47L4.32 38.23V46.81ZM8.61 46.9C7.95 46.9 7.24 47.01 6.48 47.23C5.72 47.45 5 47.75 4.32 48.13V59.53C5.36 59.85 6.45 60.01 7.59 60.01C9.51 60.01 10.93 59.46 11.85 58.36C12.79 57.24 13.26 55.53 13.26 53.23C13.26 51.17 12.86 49.6 12.06 48.52C11.28 47.44 10.13 46.9 8.61 46.9ZM28.4299 61.06L28.3099 60.01C26.5899 60.97 24.8899 61.45 23.2099 61.45C21.6699 61.45 20.4499 61.05 19.5499 60.25C18.6499 59.43 18.1999 58.31 18.1999 56.89C18.1999 55.39 18.6999 54.25 19.6999 53.47C20.7199 52.67 22.2099 52.27 24.1699 52.27C25.3499 52.27 26.6899 52.41 28.1899 52.69V50.65C28.1899 48.15 26.7799 46.9 23.9599 46.9C23.2199 46.9 22.4099 47 21.5299 47.2C20.6499 47.4 19.8399 47.66 19.0999 47.98V46.57C19.8199 46.23 20.6399 45.96 21.5599 45.76C22.4999 45.56 23.3899 45.46 24.2299 45.46C26.1099 45.46 27.5299 45.91 28.4899 46.81C29.4699 47.69 29.9599 48.97 29.9599 50.65V60.91L28.4299 61.06ZM23.6299 60.01C24.3499 60.01 25.1099 59.9 25.9099 59.68C26.7099 59.46 27.4699 59.16 28.1899 58.78V53.98C26.9299 53.74 25.6899 53.62 24.4699 53.62C22.9299 53.62 21.8099 53.88 21.1099 54.4C20.4099 54.92 20.0599 55.74 20.0599 56.86C20.0599 58.96 21.2499 60.01 23.6299 60.01ZM44.7359 60.46C43.4159 61.12 41.9759 61.45 40.4159 61.45C38.2959 61.45 36.6559 60.76 35.4959 59.38C34.3559 58 33.7859 56.03 33.7859 53.47C33.7859 50.91 34.3559 48.94 35.4959 47.56C36.6559 46.16 38.2959 45.46 40.4159 45.46C41.9159 45.46 43.3359 45.79 44.6759 46.45V47.86C43.2759 47.24 41.9159 46.93 40.5959 46.93C38.9759 46.93 37.7459 47.48 36.9059 48.58C36.0859 49.68 35.6759 51.31 35.6759 53.47C35.6759 55.61 36.0859 57.23 36.9059 58.33C37.7459 59.43 38.9759 59.98 40.5959 59.98C41.9559 59.98 43.3359 59.67 44.7359 59.05V60.46ZM48.604 61V38.47L50.404 38.23V52.6L57.484 45.91H59.614L52.204 52.93L59.854 61H57.574L50.404 53.38V61H48.604ZM60.6928 65.53C61.2328 64.83 61.6628 64.09 61.9828 63.31C62.3228 62.53 62.5028 61.79 62.5228 61.09C62.2228 61.01 61.9928 60.86 61.8328 60.64C61.6728 60.4 61.5928 60.11 61.5928 59.77C61.5928 59.35 61.7228 59.02 61.9828 58.78C62.2428 58.52 62.5728 58.39 62.9728 58.39C63.4128 58.39 63.7528 58.55 63.9928 58.87C64.2328 59.17 64.3528 59.59 64.3528 60.13C64.3528 61.01 64.0628 62 63.4828 63.1C62.9228 64.22 62.2128 65.17 61.3528 65.95L60.6928 65.53ZM76.0845 61V46.06L77.8845 45.82V61H76.0845ZM76.9845 42.25C76.5845 42.25 76.2545 42.13 75.9945 41.89C75.7545 41.65 75.6345 41.32 75.6345 40.9C75.6345 40.48 75.7545 40.15 75.9945 39.91C76.2545 39.67 76.5845 39.55 76.9845 39.55C77.3845 39.55 77.7045 39.67 77.9445 39.91C78.2045 40.15 78.3345 40.48 78.3345 40.9C78.3345 41.32 78.2045 41.65 77.9445 41.89C77.7045 42.13 77.3845 42.25 76.9845 42.25ZM85.1306 47.29V56.89C85.1306 57.93 85.3506 58.7 85.7906 59.2C86.2306 59.68 86.9106 59.92 87.8306 59.92C88.4306 59.92 89.1106 59.81 89.8706 59.59V60.91C89.0306 61.19 88.2606 61.33 87.5606 61.33C86.1806 61.33 85.1306 60.96 84.4106 60.22C83.6906 59.46 83.3306 58.34 83.3306 56.86V47.29H81.0506V46L83.3906 45.91L83.5706 42.13L85.1306 41.95V45.91H89.6606V47.29H85.1306ZM100.489 67.69V46L102.019 45.85L102.139 46.9C103.839 45.94 105.399 45.46 106.819 45.46C108.779 45.46 110.319 46.15 111.439 47.53C112.559 48.89 113.119 50.78 113.119 53.2C113.119 55.86 112.479 57.9 111.199 59.32C109.939 60.74 108.109 61.45 105.709 61.45C104.469 61.45 103.329 61.29 102.289 60.97V67.45L100.489 67.69ZM106.579 46.9C105.919 46.9 105.209 47.01 104.449 47.23C103.689 47.45 102.969 47.75 102.289 48.13V59.53C103.329 59.85 104.419 60.01 105.559 60.01C107.479 60.01 108.899 59.46 109.819 58.36C110.759 57.24 111.229 55.53 111.229 53.23C111.229 51.17 110.829 49.6 110.029 48.52C109.249 47.44 108.099 46.9 106.579 46.9ZM122.769 61.45C120.589 61.45 118.939 60.78 117.819 59.44C116.719 58.08 116.169 56.08 116.169 53.44C116.169 50.82 116.719 48.84 117.819 47.5C118.939 46.14 120.589 45.46 122.769 45.46C124.949 45.46 126.589 46.14 127.689 47.5C128.809 48.84 129.369 50.82 129.369 53.44C129.369 56.08 128.809 58.08 127.689 59.44C126.589 60.78 124.949 61.45 122.769 61.45ZM122.769 60.01C124.409 60.01 125.599 59.49 126.339 58.45C127.099 57.39 127.479 55.72 127.479 53.44C127.479 51.18 127.099 49.53 126.339 48.49C125.599 47.43 124.409 46.9 122.769 46.9C121.129 46.9 119.929 47.43 119.169 48.49C118.429 49.53 118.059 51.18 118.059 53.44C118.059 55.72 118.429 57.39 119.169 58.45C119.929 59.49 121.129 60.01 122.769 60.01ZM135.008 45.91V56.32C135.008 58.78 136.218 60.01 138.638 60.01C139.298 60.01 140.018 59.9 140.798 59.68C141.598 59.46 142.378 59.16 143.138 58.78V45.91H144.938V60.91L143.408 61.06L143.288 60.01C141.548 60.97 139.848 61.45 138.188 61.45C136.608 61.45 135.378 61.03 134.498 60.19C133.638 59.33 133.208 58.14 133.208 56.62V45.91H135.008ZM149.971 61V46L151.501 45.85L151.651 47.2C152.991 46.1 154.421 45.55 155.941 45.55C156.481 45.55 156.911 45.61 157.231 45.73V47.2C156.711 47.08 156.251 47.02 155.851 47.02C154.431 47.02 153.071 47.53 151.771 48.55V61H149.971ZM159.114 59.02C160.614 59.68 162.164 60.01 163.764 60.01C166.464 60.01 167.814 58.96 167.814 56.86C167.814 56.18 167.614 55.63 167.214 55.21C166.834 54.79 166.194 54.44 165.294 54.16L163.014 53.44C161.734 53.04 160.804 52.54 160.224 51.94C159.644 51.32 159.354 50.54 159.354 49.6C159.354 48.34 159.844 47.34 160.824 46.6C161.824 45.84 163.164 45.46 164.844 45.46C166.264 45.46 167.614 45.73 168.894 46.27V47.68C167.554 47.16 166.234 46.9 164.934 46.9C163.754 46.9 162.824 47.14 162.144 47.62C161.484 48.08 161.154 48.72 161.154 49.54C161.154 50.12 161.334 50.59 161.694 50.95C162.074 51.29 162.744 51.62 163.704 51.94L166.074 52.72C167.294 53.12 168.184 53.65 168.744 54.31C169.324 54.97 169.614 55.81 169.614 56.83C169.614 58.31 169.114 59.45 168.114 60.25C167.114 61.05 165.704 61.45 163.884 61.45C162.204 61.45 160.694 61.14 159.354 60.52L159.114 59.02ZM174.637 55L174.367 40L176.287 39.76L176.017 55H174.637ZM175.327 61.15C174.927 61.15 174.597 61.03 174.337 60.79C174.077 60.53 173.947 60.19 173.947 59.77C173.947 59.35 174.077 59.02 174.337 58.78C174.597 58.52 174.927 58.39 175.327 58.39C175.727 58.39 176.057 58.52 176.317 58.78C176.577 59.02 176.707 59.35 176.707 59.77C176.707 60.19 176.577 60.53 176.317 60.79C176.057 61.03 175.727 61.15 175.327 61.15Z" fill="#013D5B"/>
</g>
<defs>
<clipPath id="clip0_11148_4432">
<rect width="238" height="28" fill="white"/>
</clipPath>
</defs>
</svg>
