<svg width="125" height="17" viewBox="0 0 125 17" fill="none" xmlns="http://www.w3.org/2000/svg">
<path d="M123.192 15.73V8.09599C123.192 6.29199 122.276 5.38998 120.442 5.38998C119.958 5.38998 119.423 5.47065 118.836 5.63198C118.264 5.79332 117.7 6.01332 117.142 6.29198V15.73H115.822V4.72998L116.944 4.61998L117.032 5.38998C118.308 4.68598 119.555 4.33398 120.772 4.33398C121.96 4.33398 122.877 4.64198 123.522 5.25798C124.182 5.87398 124.512 6.74665 124.512 7.87598V15.73H123.192Z" fill="#013D5B"/>
<path d="M108.012 16.06C106.414 16.06 105.204 15.5687 104.382 14.586C103.576 13.5886 103.172 12.122 103.172 10.186C103.172 8.26465 103.576 6.81265 104.382 5.82998C105.204 4.83265 106.414 4.33398 108.012 4.33398C109.611 4.33398 110.814 4.83265 111.62 5.82998C112.442 6.81265 112.852 8.26465 112.852 10.186C112.852 12.122 112.442 13.5886 111.62 14.586C110.814 15.5687 109.611 16.06 108.012 16.06ZM108.012 15.004C109.215 15.004 110.088 14.6227 110.63 13.86C111.188 13.0827 111.466 11.858 111.466 10.186C111.466 8.52865 111.188 7.31865 110.63 6.55598C110.088 5.77865 109.215 5.38998 108.012 5.38998C106.81 5.38998 105.93 5.77865 105.372 6.55598C104.83 7.31865 104.558 8.52865 104.558 10.186C104.558 11.858 104.83 13.0827 105.372 13.86C105.93 14.6227 106.81 15.004 108.012 15.004Z" fill="#013D5B"/>
<path d="M87.851 14.278C88.951 14.762 90.0876 15.004 91.261 15.004C93.241 15.004 94.231 14.234 94.231 12.694C94.231 12.1953 94.0843 11.792 93.791 11.484C93.5123 11.176 93.043 10.9193 92.383 10.714L90.711 10.186C89.7723 9.89265 89.0903 9.52598 88.665 9.08598C88.2396 8.63132 88.027 8.05932 88.027 7.36998C88.027 6.44598 88.3863 5.71265 89.105 5.16998C89.8383 4.61265 90.821 4.33398 92.053 4.33398C93.0943 4.33398 94.0843 4.53198 95.023 4.92798V5.96198C94.0403 5.58065 93.0723 5.38998 92.119 5.38998C91.2536 5.38998 90.5716 5.56598 90.073 5.91798C89.589 6.25532 89.347 6.72465 89.347 7.32598C89.347 7.75132 89.479 8.09599 89.743 8.35999C90.0216 8.60932 90.513 8.85132 91.217 9.08598L92.955 9.65799C93.8496 9.95132 94.5023 10.34 94.913 10.824C95.3383 11.308 95.551 11.924 95.551 12.672C95.551 13.7573 95.1843 14.5933 94.451 15.18C93.7176 15.7667 92.6836 16.06 91.349 16.06C90.117 16.06 89.0096 15.8327 88.027 15.378L87.851 14.278Z" fill="#013D5B"/>
<path d="M83.8417 15.73V7.87598C83.8417 6.21865 83.057 5.38998 81.4877 5.38998C80.5783 5.38998 79.537 5.71999 78.3637 6.37999C78.481 6.77599 78.5397 7.20132 78.5397 7.65598V15.73H77.2197V7.87598C77.2197 6.21865 76.435 5.38998 74.8657 5.38998C73.9857 5.38998 73.003 5.69065 71.9177 6.29198V15.73H70.5977V4.72998L71.7197 4.61998L71.8077 5.38998C73.0543 4.68598 74.1837 4.33398 75.1957 4.33398C76.4863 4.33398 77.4177 4.75932 77.9897 5.60999C79.4123 4.75932 80.6883 4.33398 81.8177 4.33398C82.8883 4.33398 83.7097 4.61998 84.2817 5.19198C84.8683 5.76398 85.1617 6.58532 85.1617 7.65598V15.73H83.8417Z" fill="#013D5B"/>
<path d="M59.6249 4.66397V12.298C59.6249 14.102 60.5123 15.004 62.2869 15.004C62.7709 15.004 63.2989 14.9233 63.8709 14.762C64.4576 14.6006 65.0296 14.3806 65.5869 14.102V4.66397H66.9069V15.664L65.7849 15.774L65.6969 15.004C64.4209 15.708 63.1743 16.06 61.9569 16.06C60.7983 16.06 59.8963 15.752 59.2509 15.136C58.6203 14.5053 58.3049 13.6326 58.3049 12.518V4.66397H59.6249Z" fill="#013D5B"/>
<path d="M53.5917 15.73V7.87598C53.5917 6.21865 52.807 5.38998 51.2377 5.38998C50.3283 5.38998 49.287 5.71999 48.1137 6.37999C48.231 6.77599 48.2897 7.20132 48.2897 7.65598V15.73H46.9697V7.87598C46.9697 6.21865 46.185 5.38998 44.6157 5.38998C43.7357 5.38998 42.753 5.69065 41.6677 6.29198V15.73H40.3477V4.72998L41.4697 4.61998L41.5577 5.38998C42.8043 4.68598 43.9337 4.33398 44.9457 4.33398C46.2363 4.33398 47.1677 4.75932 47.7397 5.60999C49.1623 4.75932 50.4383 4.33398 51.5677 4.33398C52.6383 4.33398 53.4597 4.61998 54.0317 5.19198C54.6183 5.76398 54.9117 6.58532 54.9117 7.65598V15.73H53.5917Z" fill="#013D5B"/>
<path d="M35.3417 15.73V4.774L36.6617 4.598V15.73H35.3417ZM36.0017 1.98C35.7084 1.98 35.4664 1.892 35.2757 1.716C35.0997 1.54 35.0117 1.298 35.0117 0.989998C35.0117 0.681997 35.0997 0.439999 35.2757 0.264C35.4664 0.0879996 35.7084 0 36.0017 0C36.295 0 36.5297 0.0879996 36.7057 0.264C36.8964 0.439999 36.9917 0.681997 36.9917 0.989998C36.9917 1.298 36.8964 1.54 36.7057 1.716C36.5297 1.892 36.295 1.98 36.0017 1.98Z" fill="#013D5B"/>
<path d="M30.4872 15.73V8.09599C30.4872 6.29199 29.5705 5.38998 27.7372 5.38998C27.2532 5.38998 26.7179 5.47065 26.1312 5.63198C25.5592 5.79332 24.9945 6.01332 24.4372 6.29198V15.73H23.1172V4.72998L24.2392 4.61998L24.3272 5.38998C25.6032 4.68598 26.8499 4.33398 28.0672 4.33398C29.2552 4.33398 30.1719 4.64198 30.8172 5.25798C31.4772 5.87398 31.8072 6.74665 31.8072 7.87598V15.73H30.4872Z" fill="#013D5B"/>
<path d="M18.1112 15.73V4.774L19.4312 4.598V15.73H18.1112ZM18.7712 1.98C18.4779 1.98 18.2359 1.892 18.0452 1.716C17.8693 1.54 17.7812 1.298 17.7812 0.989998C17.7812 0.681997 17.8693 0.439999 18.0452 0.264C18.2359 0.0879996 18.4779 0 18.7712 0C19.0646 0 19.2993 0.0879996 19.4753 0.264C19.6659 0.439999 19.7613 0.681997 19.7613 0.989998C19.7613 1.298 19.6659 1.54 19.4753 1.716C19.2993 1.892 19.0646 1.98 18.7712 1.98Z" fill="#013D5B"/>
<path d="M13.244 15.73V7.87598C13.244 6.21865 12.4593 5.38998 10.89 5.38998C9.98067 5.38998 8.93933 5.71999 7.766 6.37999C7.88333 6.77599 7.942 7.20132 7.942 7.65598V15.73H6.622V7.87598C6.622 6.21865 5.83733 5.38998 4.268 5.38998C3.388 5.38998 2.40533 5.69065 1.32 6.29198V15.73H0V4.72998L1.122 4.61998L1.21 5.38998C2.45667 4.68598 3.586 4.33398 4.598 4.33398C5.88867 4.33398 6.82 4.75932 7.392 5.60999C8.81467 4.75932 10.0907 4.33398 11.22 4.33398C12.2907 4.33398 13.112 4.61998 13.684 5.19198C14.2707 5.76398 14.564 6.58532 14.564 7.65598V15.73H13.244Z" fill="#013D5B"/>
</svg>
