<svg width="172" height="22" viewBox="0 0 172 22" fill="none" xmlns="http://www.w3.org/2000/svg">
<path d="M163.622 15.246C164.722 15.73 165.858 15.972 167.032 15.972C169.012 15.972 170.002 15.202 170.002 13.662C170.002 13.1633 169.855 12.76 169.562 12.452C169.283 12.144 168.814 11.8873 168.154 11.682L166.482 11.154C165.543 10.8607 164.861 10.494 164.436 10.054C164.01 9.59934 163.798 9.02734 163.798 8.33801C163.798 7.41401 164.157 6.68067 164.876 6.13801C165.609 5.58067 166.592 5.302 167.824 5.302C168.865 5.302 169.855 5.5 170.794 5.896V6.93001C169.811 6.54867 168.843 6.358 167.89 6.358C167.024 6.358 166.342 6.53401 165.844 6.88601C165.36 7.22334 165.118 7.69267 165.118 8.29401C165.118 8.71934 165.25 9.064 165.514 9.328C165.792 9.57734 166.284 9.81934 166.988 10.054L168.726 10.626C169.62 10.9193 170.273 11.308 170.684 11.792C171.109 12.276 171.322 12.892 171.322 13.64C171.322 14.7253 170.955 15.5613 170.222 16.148C169.488 16.7347 168.454 17.028 167.12 17.028C165.888 17.028 164.78 16.8007 163.798 16.346L163.622 15.246Z" fill="#013D5B"/>
<path d="M158.717 6.644V13.684C158.717 14.4467 158.879 15.0113 159.201 15.378C159.524 15.73 160.023 15.906 160.697 15.906C161.137 15.906 161.636 15.8253 162.193 15.664V16.632C161.577 16.8373 161.013 16.94 160.499 16.94C159.487 16.94 158.717 16.6687 158.189 16.126C157.661 15.5687 157.397 14.7473 157.397 13.662V6.644H155.725V5.698L157.441 5.632L157.573 2.86L158.717 2.728V5.632H162.039V6.644H158.717Z" fill="#013D5B"/>
<path d="M152.235 16.698V9.064C152.235 7.26 151.318 6.358 149.485 6.358C149.001 6.358 148.465 6.43867 147.879 6.60001C147.307 6.76134 146.742 6.98134 146.185 7.26V16.698H144.865V5.69801L145.987 5.58801L146.075 6.358C147.351 5.654 148.597 5.302 149.815 5.302C151.003 5.302 151.919 5.61001 152.565 6.22601C153.225 6.84201 153.555 7.71467 153.555 8.844V16.698H152.235Z" fill="#013D5B"/>
<path d="M133.892 5.63199V13.266C133.892 15.07 134.779 15.972 136.554 15.972C137.038 15.972 137.566 15.8913 138.138 15.73C138.725 15.5687 139.297 15.3487 139.854 15.07V5.63199H141.174V16.632L140.052 16.742L139.964 15.972C138.688 16.676 137.441 17.028 136.224 17.028C135.065 17.028 134.163 16.72 133.518 16.104C132.887 15.4733 132.572 14.6007 132.572 13.486V5.63199H133.892Z" fill="#013D5B"/>
<path d="M124.916 17.028C123.318 17.028 122.108 16.5367 121.286 15.554C120.48 14.5567 120.076 13.09 120.076 11.154C120.076 9.23267 120.48 7.78067 121.286 6.798C122.108 5.80067 123.318 5.302 124.916 5.302C126.515 5.302 127.718 5.80067 128.524 6.798C129.346 7.78067 129.756 9.23267 129.756 11.154C129.756 13.09 129.346 14.5567 128.524 15.554C127.718 16.5367 126.515 17.028 124.916 17.028ZM124.916 15.972C126.119 15.972 126.992 15.5907 127.534 14.828C128.092 14.0507 128.37 12.826 128.37 11.154C128.37 9.49667 128.092 8.28667 127.534 7.524C126.992 6.74667 126.119 6.358 124.916 6.358C123.714 6.358 122.834 6.74667 122.276 7.524C121.734 8.28667 121.462 9.49667 121.462 11.154C121.462 12.826 121.734 14.0507 122.276 14.828C122.834 15.5907 123.714 15.972 124.916 15.972Z" fill="#013D5B"/>
<path d="M118.18 16.302C117.212 16.786 116.156 17.028 115.012 17.028C113.458 17.028 112.255 16.522 111.404 15.51C110.568 14.498 110.15 13.0533 110.15 11.176C110.15 9.29867 110.568 7.854 111.404 6.842C112.255 5.81534 113.458 5.302 115.012 5.302C116.112 5.302 117.154 5.54401 118.136 6.02801V7.062C117.11 6.60734 116.112 6.38 115.144 6.38C113.956 6.38 113.054 6.78334 112.438 7.59C111.837 8.39667 111.536 9.592 111.536 11.176C111.536 12.7453 111.837 13.9333 112.438 14.74C113.054 15.5467 113.956 15.95 115.144 15.95C116.142 15.95 117.154 15.7227 118.18 15.268V16.302Z" fill="#013D5B"/>
<path d="M108.255 16.302C107.287 16.786 106.231 17.028 105.087 17.028C103.532 17.028 102.329 16.522 101.479 15.51C100.643 14.498 100.225 13.0533 100.225 11.176C100.225 9.29867 100.643 7.854 101.479 6.842C102.329 5.81534 103.532 5.302 105.087 5.302C106.187 5.302 107.228 5.54401 108.211 6.02801V7.062C107.184 6.60734 106.187 6.38 105.219 6.38C104.031 6.38 103.129 6.78334 102.513 7.59C101.911 8.39667 101.611 9.592 101.611 11.176C101.611 12.7453 101.911 13.9333 102.513 14.74C103.129 15.5467 104.031 15.95 105.219 15.95C106.216 15.95 107.228 15.7227 108.255 15.268V16.302Z" fill="#013D5B"/>
<path d="M96.2969 16.742L96.2089 15.972C94.9476 16.676 93.7009 17.028 92.4689 17.028C91.3396 17.028 90.4449 16.7347 89.7849 16.148C89.1249 15.5467 88.7949 14.7253 88.7949 13.684C88.7949 12.584 89.1616 11.748 89.8949 11.176C90.6429 10.5893 91.7356 10.296 93.1729 10.296C94.0383 10.296 95.0209 10.3987 96.1209 10.604V9.108C96.1209 7.27467 95.0869 6.358 93.0189 6.358C92.4763 6.358 91.8823 6.43134 91.2369 6.578C90.5916 6.72467 89.9976 6.91533 89.4549 7.15V6.116C89.9829 5.86667 90.5843 5.66867 91.2589 5.522C91.9483 5.37534 92.6009 5.302 93.2169 5.302C94.5956 5.302 95.6369 5.63201 96.3409 6.29201C97.0596 6.93734 97.4189 7.876 97.4189 9.108V16.632L96.2969 16.742ZM92.7769 15.972C93.3049 15.972 93.8623 15.8913 94.4489 15.73C95.0356 15.5687 95.5929 15.3487 96.1209 15.07V11.55C95.1969 11.374 94.2876 11.286 93.3929 11.286C92.2636 11.286 91.4423 11.4767 90.9289 11.858C90.4156 12.2393 90.1589 12.8407 90.1589 13.662C90.1589 15.202 91.0316 15.972 92.7769 15.972Z" fill="#013D5B"/>
<path d="M75.4043 21.824C74.099 21.824 72.9916 21.5967 72.0823 21.142L71.9063 20.02C73.109 20.5187 74.253 20.768 75.3383 20.768C77.7876 20.768 79.0123 19.6313 79.0123 17.358V15.84C78.455 16.148 77.883 16.39 77.2963 16.566C76.7243 16.742 76.189 16.83 75.6903 16.83C74.253 16.83 73.1236 16.346 72.3023 15.378C71.481 14.41 71.0703 13.068 71.0703 11.352C71.0703 9.40134 71.5323 7.90534 72.4563 6.86401C73.395 5.82267 74.7443 5.302 76.5043 5.302C77.839 5.302 79.115 5.53667 80.3323 6.006V17.248C80.3323 18.7147 79.907 19.844 79.0563 20.636C78.2056 21.428 76.9883 21.824 75.4043 21.824ZM75.8663 15.774C76.3503 15.774 76.871 15.6933 77.4283 15.532C77.9856 15.3707 78.5136 15.1507 79.0123 14.872V6.71001C78.2496 6.47534 77.4503 6.358 76.6143 6.358C75.2063 6.358 74.1576 6.76867 73.4683 7.59C72.7936 8.39667 72.4563 9.64333 72.4563 11.33C72.4563 12.782 72.7423 13.8893 73.3143 14.652C73.901 15.4 74.7516 15.774 75.8663 15.774Z" fill="#013D5B"/>
<path d="M66.9417 16.698V9.064C66.9417 7.26 66.025 6.358 64.1917 6.358C63.7077 6.358 63.1723 6.43867 62.5857 6.60001C62.0137 6.76134 61.449 6.98134 60.8917 7.26V16.698H59.5717V5.69801L60.6937 5.58801L60.7817 6.358C62.0577 5.654 63.3043 5.302 64.5217 5.302C65.7097 5.302 66.6263 5.61001 67.2717 6.22601C67.9317 6.84201 68.2617 7.71467 68.2617 8.844V16.698H66.9417Z" fill="#013D5B"/>
<path d="M54.5658 16.698V5.74199L55.8858 5.56599V16.698H54.5658ZM55.2258 2.94799C54.9325 2.94799 54.6905 2.85999 54.4998 2.68399C54.3238 2.50799 54.2358 2.26599 54.2358 1.95799C54.2358 1.64999 54.3238 1.40799 54.4998 1.23199C54.6905 1.05599 54.9325 0.967987 55.2258 0.967987C55.5192 0.967987 55.7538 1.05599 55.9298 1.23199C56.1205 1.40799 56.2158 1.64999 56.2158 1.95799C56.2158 2.26599 56.1205 2.50799 55.9298 2.68399C55.7538 2.85999 55.5192 2.94799 55.2258 2.94799Z" fill="#013D5B"/>
<path d="M44.4467 16.698V0.175995L45.7667 0V10.538L50.9587 5.632H52.5207L47.0867 10.78L52.6967 16.698H51.0247L45.7667 11.11V16.698H44.4467Z" fill="#013D5B"/>
<path d="M41.6101 16.302C40.6421 16.786 39.5861 17.028 38.4421 17.028C36.8874 17.028 35.6847 16.522 34.8341 15.51C33.9981 14.498 33.5801 13.0533 33.5801 11.176C33.5801 9.29867 33.9981 7.854 34.8341 6.842C35.6847 5.81534 36.8874 5.302 38.4421 5.302C39.5421 5.302 40.5834 5.54401 41.5661 6.02801V7.062C40.5394 6.60734 39.5421 6.38 38.5741 6.38C37.3861 6.38 36.4841 6.78334 35.8681 7.59C35.2667 8.39667 34.9661 9.592 34.9661 11.176C34.9661 12.7453 35.2667 13.9333 35.8681 14.74C36.4841 15.5467 37.3861 15.95 38.5741 15.95C39.5714 15.95 40.5834 15.7227 41.6101 15.268V16.302Z" fill="#013D5B"/>
<path d="M30.8792 16.302C29.8672 16.786 28.7819 17.028 27.6232 17.028C25.9366 17.028 24.6386 16.5293 23.7292 15.532C22.8199 14.5347 22.3652 13.1047 22.3652 11.242C22.3652 9.394 22.7906 7.94201 23.6412 6.88601C24.4919 5.83001 25.6579 5.302 27.1392 5.302C28.4446 5.302 29.4712 5.71267 30.2192 6.534C30.9819 7.34067 31.3632 8.448 31.3632 9.856C31.3632 10.384 31.3192 10.89 31.2312 11.374H23.6632C23.6779 14.4393 25.0346 15.972 27.7332 15.972C28.8186 15.972 29.8672 15.7373 30.8792 15.268V16.302ZM27.1172 6.33601C26.1199 6.33601 25.3059 6.70267 24.6752 7.436C24.0446 8.16934 23.7072 9.152 23.6632 10.384H30.0872C30.1166 10.1493 30.1312 9.94401 30.1312 9.76801C30.1312 8.68267 29.8672 7.83934 29.3392 7.23801C28.8112 6.63667 28.0706 6.33601 27.1172 6.33601Z" fill="#013D5B"/>
<path d="M10.8666 16.698V0.175995L12.1866 0V6.314C13.4186 5.63933 14.6286 5.30199 15.8166 5.30199C17.0046 5.30199 17.9212 5.61 18.5666 6.226C19.2266 6.842 19.5566 7.71466 19.5566 8.84399V16.698H18.2366V9.064C18.2366 7.25999 17.3199 6.35799 15.4866 6.35799C15.0026 6.35799 14.4672 6.43866 13.8806 6.6C13.3086 6.76133 12.7439 6.98133 12.1866 7.25999V16.698H10.8666Z" fill="#013D5B"/>
<path d="M8.03 16.302C7.062 16.786 6.006 17.028 4.862 17.028C3.30733 17.028 2.10467 16.522 1.254 15.51C0.418 14.498 0 13.0533 0 11.176C0 9.29867 0.418 7.854 1.254 6.842C2.10467 5.81534 3.30733 5.302 4.862 5.302C5.962 5.302 7.00333 5.54401 7.986 6.02801V7.062C6.95933 6.60734 5.962 6.38 4.994 6.38C3.806 6.38 2.904 6.78334 2.288 7.59C1.68667 8.39667 1.386 9.592 1.386 11.176C1.386 12.7453 1.68667 13.9333 2.288 14.74C2.904 15.5467 3.806 15.95 4.994 15.95C5.99133 15.95 7.00333 15.7227 8.03 15.268V16.302Z" fill="#013D5B"/>
</svg>
