<svg width="180" height="34" viewBox="0 0 180 34" fill="none" xmlns="http://www.w3.org/2000/svg">
<g clip-path="url(#clip0_11148_4432)">
<path d="M17.7 -11L12.81 -29.72L7.89 -11H5.88L0.57 -32H2.49L6.93 -13.43L11.73 -32H13.89L18.69 -13.37L23.16 -32H25.05L19.74 -11H17.7ZM28.1255 -11V-33.53L29.9255 -33.77V-25.16C31.6055 -26.08 33.2555 -26.54 34.8755 -26.54C36.4955 -26.54 37.7455 -26.12 38.6255 -25.28C39.5255 -24.44 39.9755 -23.25 39.9755 -21.71V-11H38.1755V-21.41C38.1755 -23.87 36.9255 -25.1 34.4255 -25.1C33.7655 -25.1 33.0355 -24.99 32.2355 -24.77C31.4555 -24.55 30.6855 -24.25 29.9255 -23.87V-11H28.1255ZM55.4154 -11.54C54.0354 -10.88 52.5554 -10.55 50.9754 -10.55C48.6754 -10.55 46.9054 -11.23 45.6654 -12.59C44.4254 -13.95 43.8054 -15.9 43.8054 -18.44C43.8054 -20.96 44.3854 -22.94 45.5454 -24.38C46.7054 -25.82 48.2954 -26.54 50.3154 -26.54C52.0954 -26.54 53.4954 -25.98 54.5154 -24.86C55.5554 -23.76 56.0754 -22.25 56.0754 -20.33C56.0754 -19.61 56.0154 -18.92 55.8954 -18.26H45.5754C45.5954 -14.08 47.4454 -11.99 51.1254 -11.99C52.6054 -11.99 54.0354 -12.31 55.4154 -12.95V-11.54ZM50.2854 -25.13C48.9254 -25.13 47.8154 -24.63 46.9554 -23.63C46.0954 -22.63 45.6354 -21.29 45.5754 -19.61H54.3354C54.3754 -19.93 54.3954 -20.21 54.3954 -20.45C54.3954 -21.93 54.0354 -23.08 53.3154 -23.9C52.5954 -24.72 51.5854 -25.13 50.2854 -25.13ZM70.1384 -11V-21.41C70.1384 -23.87 68.8884 -25.1 66.3884 -25.1C65.7284 -25.1 64.9984 -24.99 64.1984 -24.77C63.4184 -24.55 62.6484 -24.25 61.8884 -23.87V-11H60.0884V-26L61.6184 -26.15L61.7384 -25.1C63.4784 -26.06 65.1784 -26.54 66.8384 -26.54C68.4584 -26.54 69.7084 -26.12 70.5884 -25.28C71.4884 -24.44 71.9384 -23.25 71.9384 -21.71V-11H70.1384ZM84.2583 -11V-25.94L86.0583 -26.18V-11H84.2583ZM85.1583 -29.75C84.7583 -29.75 84.4283 -29.87 84.1683 -30.11C83.9283 -30.35 83.8083 -30.68 83.8083 -31.1C83.8083 -31.52 83.9283 -31.85 84.1683 -32.09C84.4283 -32.33 84.7583 -32.45 85.1583 -32.45C85.5583 -32.45 85.8783 -32.33 86.1183 -32.09C86.3783 -31.85 86.5083 -31.52 86.5083 -31.1C86.5083 -30.68 86.3783 -30.35 86.1183 -30.11C85.8783 -29.87 85.5583 -29.75 85.1583 -29.75ZM93.3045 -24.71V-15.11C93.3045 -14.07 93.5245 -13.3 93.9645 -12.8C94.4045 -12.32 95.0845 -12.08 96.0045 -12.08C96.6045 -12.08 97.2845 -12.19 98.0445 -12.41V-11.09C97.2045 -10.81 96.4345 -10.67 95.7345 -10.67C94.3545 -10.67 93.3045 -11.04 92.5845 -11.78C91.8645 -12.54 91.5045 -13.66 91.5045 -15.14V-24.71H89.2245V-26L91.5645 -26.09L91.7445 -29.87L93.3045 -30.05V-26.09H97.8345V-24.71H93.3045ZM108.663 -11V-26L110.193 -26.15L110.343 -24.8C111.683 -25.9 113.113 -26.45 114.633 -26.45C115.173 -26.45 115.603 -26.39 115.923 -26.27V-24.8C115.403 -24.92 114.943 -24.98 114.543 -24.98C113.123 -24.98 111.763 -24.47 110.463 -23.45V-11H108.663ZM127.922 -10.94L127.802 -11.99C126.082 -11.03 124.382 -10.55 122.702 -10.55C121.162 -10.55 119.942 -10.95 119.042 -11.75C118.142 -12.57 117.692 -13.69 117.692 -15.11C117.692 -16.61 118.192 -17.75 119.192 -18.53C120.212 -19.33 121.702 -19.73 123.662 -19.73C124.842 -19.73 126.182 -19.59 127.682 -19.31V-21.35C127.682 -23.85 126.272 -25.1 123.452 -25.1C122.712 -25.1 121.902 -25 121.022 -24.8C120.142 -24.6 119.332 -24.34 118.592 -24.02V-25.43C119.312 -25.77 120.132 -26.04 121.052 -26.24C121.992 -26.44 122.882 -26.54 123.722 -26.54C125.602 -26.54 127.022 -26.09 127.982 -25.19C128.962 -24.31 129.452 -23.03 129.452 -21.35V-11.09L127.922 -10.94ZM123.122 -11.99C123.842 -11.99 124.602 -12.1 125.402 -12.32C126.202 -12.54 126.962 -12.84 127.682 -13.22V-18.02C126.422 -18.26 125.182 -18.38 123.962 -18.38C122.422 -18.38 121.302 -18.12 120.602 -17.6C119.902 -17.08 119.552 -16.26 119.552 -15.14C119.552 -13.04 120.742 -11.99 123.122 -11.99ZM134.268 -11V-25.94L136.068 -26.18V-11H134.268ZM135.168 -29.75C134.768 -29.75 134.438 -29.87 134.178 -30.11C133.938 -30.35 133.818 -30.68 133.818 -31.1C133.818 -31.52 133.938 -31.85 134.178 -32.09C134.438 -32.33 134.768 -32.45 135.168 -32.45C135.568 -32.45 135.888 -32.33 136.128 -32.09C136.388 -31.85 136.518 -31.52 136.518 -31.1C136.518 -30.68 136.388 -30.35 136.128 -30.11C135.888 -29.87 135.568 -29.75 135.168 -29.75ZM151.144 -11V-21.41C151.144 -23.87 149.894 -25.1 147.394 -25.1C146.734 -25.1 146.004 -24.99 145.204 -24.77C144.424 -24.55 143.654 -24.25 142.894 -23.87V-11H141.094V-26L142.624 -26.15L142.744 -25.1C144.484 -26.06 146.184 -26.54 147.844 -26.54C149.464 -26.54 150.714 -26.12 151.594 -25.28C152.494 -24.44 152.944 -23.25 152.944 -21.71V-11H151.144ZM156.594 -12.98C158.094 -12.32 159.644 -11.99 161.244 -11.99C163.944 -11.99 165.294 -13.04 165.294 -15.14C165.294 -15.82 165.094 -16.37 164.694 -16.79C164.314 -17.21 163.674 -17.56 162.774 -17.84L160.494 -18.56C159.214 -18.96 158.284 -19.46 157.704 -20.06C157.124 -20.68 156.834 -21.46 156.834 -22.4C156.834 -23.66 157.324 -24.66 158.304 -25.4C159.304 -26.16 160.644 -26.54 162.324 -26.54C163.744 -26.54 165.094 -26.27 166.374 -25.73V-24.32C165.034 -24.84 163.714 -25.1 162.414 -25.1C161.234 -25.1 160.304 -24.86 159.624 -24.38C158.964 -23.92 158.634 -23.28 158.634 -22.46C158.634 -21.88 158.814 -21.41 159.174 -21.05C159.554 -20.71 160.224 -20.38 161.184 -20.06L163.554 -19.28C164.774 -18.88 165.664 -18.35 166.224 -17.69C166.804 -17.03 167.094 -16.19 167.094 -15.17C167.094 -13.69 166.594 -12.55 165.594 -11.75C164.594 -10.95 163.184 -10.55 161.364 -10.55C159.684 -10.55 158.174 -10.86 156.834 -11.48L156.594 -12.98ZM188.437 -11.54C187.117 -10.88 185.677 -10.55 184.117 -10.55C181.997 -10.55 180.357 -11.24 179.197 -12.62C178.057 -14 177.487 -15.97 177.487 -18.53C177.487 -21.09 178.057 -23.06 179.197 -24.44C180.357 -25.84 181.997 -26.54 184.117 -26.54C185.617 -26.54 187.037 -26.21 188.377 -25.55V-24.14C186.977 -24.76 185.617 -25.07 184.297 -25.07C182.677 -25.07 181.447 -24.52 180.607 -23.42C179.787 -22.32 179.377 -20.69 179.377 -18.53C179.377 -16.39 179.787 -14.77 180.607 -13.67C181.447 -12.57 182.677 -12.02 184.297 -12.02C185.657 -12.02 187.037 -12.33 188.437 -12.95V-11.54ZM201.545 -10.94L201.425 -11.99C199.705 -11.03 198.005 -10.55 196.325 -10.55C194.785 -10.55 193.565 -10.95 192.665 -11.75C191.765 -12.57 191.315 -13.69 191.315 -15.11C191.315 -16.61 191.815 -17.75 192.815 -18.53C193.835 -19.33 195.325 -19.73 197.285 -19.73C198.465 -19.73 199.805 -19.59 201.305 -19.31V-21.35C201.305 -23.85 199.895 -25.1 197.075 -25.1C196.335 -25.1 195.525 -25 194.645 -24.8C193.765 -24.6 192.955 -24.34 192.215 -24.02V-25.43C192.935 -25.77 193.755 -26.04 194.675 -26.24C195.615 -26.44 196.505 -26.54 197.345 -26.54C199.225 -26.54 200.645 -26.09 201.605 -25.19C202.585 -24.31 203.075 -23.03 203.075 -21.35V-11.09L201.545 -10.94ZM196.745 -11.99C197.465 -11.99 198.225 -12.1 199.025 -12.32C199.825 -12.54 200.585 -12.84 201.305 -13.22V-18.02C200.045 -18.26 198.805 -18.38 197.585 -18.38C196.045 -18.38 194.925 -18.12 194.225 -17.6C193.525 -17.08 193.175 -16.26 193.175 -15.14C193.175 -13.04 194.365 -11.99 196.745 -11.99ZM206.721 -12.98C208.221 -12.32 209.771 -11.99 211.371 -11.99C214.071 -11.99 215.421 -13.04 215.421 -15.14C215.421 -15.82 215.221 -16.37 214.821 -16.79C214.441 -17.21 213.801 -17.56 212.901 -17.84L210.621 -18.56C209.341 -18.96 208.411 -19.46 207.831 -20.06C207.251 -20.68 206.961 -21.46 206.961 -22.4C206.961 -23.66 207.451 -24.66 208.431 -25.4C209.431 -26.16 210.771 -26.54 212.451 -26.54C213.871 -26.54 215.221 -26.27 216.501 -25.73V-24.32C215.161 -24.84 213.841 -25.1 212.541 -25.1C211.361 -25.1 210.431 -24.86 209.751 -24.38C209.091 -23.92 208.761 -23.28 208.761 -22.46C208.761 -21.88 208.941 -21.41 209.301 -21.05C209.681 -20.71 210.351 -20.38 211.311 -20.06L213.681 -19.28C214.901 -18.88 215.791 -18.35 216.351 -17.69C216.931 -17.03 217.221 -16.19 217.221 -15.17C217.221 -13.69 216.721 -12.55 215.721 -11.75C214.721 -10.95 213.311 -10.55 211.491 -10.55C209.811 -10.55 208.301 -10.86 206.961 -11.48L206.721 -12.98ZM221.104 -11V-33.53L222.904 -33.77V-25.16C224.584 -26.08 226.234 -26.54 227.854 -26.54C229.474 -26.54 230.724 -26.12 231.604 -25.28C232.504 -24.44 232.954 -23.25 232.954 -21.71V-11H231.154V-21.41C231.154 -23.87 229.904 -25.1 227.404 -25.1C226.744 -25.1 226.014 -24.99 225.214 -24.77C224.434 -24.55 223.664 -24.25 222.904 -23.87V-11H221.104ZM4.32 10.81C5.08 10.39 5.85 10.06 6.63 9.82C7.43 9.58 8.17 9.46 8.85 9.46C10.81 9.46 12.35 10.15 13.47 11.53C14.59 12.89 15.15 14.78 15.15 17.2C15.15 19.86 14.51 21.9 13.23 23.32C11.97 24.74 10.14 25.45 7.74 25.45C6.04 25.45 4.3 25.17 2.52 24.61V2.47L4.32 2.23V10.81ZM8.61 10.9C7.95 10.9 7.24 11.01 6.48 11.23C5.72 11.45 5 11.75 4.32 12.13V23.53C5.36 23.85 6.45 24.01 7.59 24.01C9.51 24.01 10.93 23.46 11.85 22.36C12.79 21.24 13.26 19.53 13.26 17.23C13.26 15.17 12.86 13.6 12.06 12.52C11.28 11.44 10.13 10.9 8.61 10.9ZM28.4299 25.06L28.3099 24.01C26.5899 24.97 24.8899 25.45 23.2099 25.45C21.6699 25.45 20.4499 25.05 19.5499 24.25C18.6499 23.43 18.1999 22.31 18.1999 20.89C18.1999 19.39 18.6999 18.25 19.6999 17.47C20.7199 16.67 22.2099 16.27 24.1699 16.27C25.3499 16.27 26.6899 16.41 28.1899 16.69V14.65C28.1899 12.15 26.7799 10.9 23.9599 10.9C23.2199 10.9 22.4099 11 21.5299 11.2C20.6499 11.4 19.8399 11.66 19.0999 11.98V10.57C19.8199 10.23 20.6399 9.96 21.5599 9.76C22.4999 9.56 23.3899 9.46 24.2299 9.46C26.1099 9.46 27.5299 9.91 28.4899 10.81C29.4699 11.69 29.9599 12.97 29.9599 14.65V24.91L28.4299 25.06ZM23.6299 24.01C24.3499 24.01 25.1099 23.9 25.9099 23.68C26.7099 23.46 27.4699 23.16 28.1899 22.78V17.98C26.9299 17.74 25.6899 17.62 24.4699 17.62C22.9299 17.62 21.8099 17.88 21.1099 18.4C20.4099 18.92 20.0599 19.74 20.0599 20.86C20.0599 22.96 21.2499 24.01 23.6299 24.01ZM44.7359 24.46C43.4159 25.12 41.9759 25.45 40.4159 25.45C38.2959 25.45 36.6559 24.76 35.4959 23.38C34.3559 22 33.7859 20.03 33.7859 17.47C33.7859 14.91 34.3559 12.94 35.4959 11.56C36.6559 10.16 38.2959 9.46 40.4159 9.46C41.9159 9.46 43.3359 9.79 44.6759 10.45V11.86C43.2759 11.24 41.9159 10.93 40.5959 10.93C38.9759 10.93 37.7459 11.48 36.9059 12.58C36.0859 13.68 35.6759 15.31 35.6759 17.47C35.6759 19.61 36.0859 21.23 36.9059 22.33C37.7459 23.43 38.9759 23.98 40.5959 23.98C41.9559 23.98 43.3359 23.67 44.7359 23.05V24.46ZM48.604 25V2.47L50.404 2.23V16.6L57.484 9.91H59.614L52.204 16.93L59.854 25H57.574L50.404 17.38V25H48.604ZM60.6928 29.53C61.2328 28.83 61.6628 28.09 61.9828 27.31C62.3228 26.53 62.5028 25.79 62.5228 25.09C62.2228 25.01 61.9928 24.86 61.8328 24.64C61.6728 24.4 61.5928 24.11 61.5928 23.77C61.5928 23.35 61.7228 23.02 61.9828 22.78C62.2428 22.52 62.5728 22.39 62.9728 22.39C63.4128 22.39 63.7528 22.55 63.9928 22.87C64.2328 23.17 64.3528 23.59 64.3528 24.13C64.3528 25.01 64.0628 26 63.4828 27.1C62.9228 28.22 62.2128 29.17 61.3528 29.95L60.6928 29.53ZM76.0845 25V10.06L77.8845 9.82V25H76.0845ZM76.9845 6.25C76.5845 6.25 76.2545 6.13 75.9945 5.89C75.7545 5.65 75.6345 5.32 75.6345 4.9C75.6345 4.48 75.7545 4.15 75.9945 3.91C76.2545 3.67 76.5845 3.55 76.9845 3.55C77.3845 3.55 77.7045 3.67 77.9445 3.91C78.2045 4.15 78.3345 4.48 78.3345 4.9C78.3345 5.32 78.2045 5.65 77.9445 5.89C77.7045 6.13 77.3845 6.25 76.9845 6.25ZM85.1306 11.29V20.89C85.1306 21.93 85.3506 22.7 85.7906 23.2C86.2306 23.68 86.9106 23.92 87.8306 23.92C88.4306 23.92 89.1106 23.81 89.8706 23.59V24.91C89.0306 25.19 88.2606 25.33 87.5606 25.33C86.1806 25.33 85.1306 24.96 84.4106 24.22C83.6906 23.46 83.3306 22.34 83.3306 20.86V11.29H81.0506V10L83.3906 9.91L83.5706 6.13L85.1306 5.95V9.91H89.6606V11.29H85.1306ZM100.489 31.69V10L102.019 9.85L102.139 10.9C103.839 9.94 105.399 9.46 106.819 9.46C108.779 9.46 110.319 10.15 111.439 11.53C112.559 12.89 113.119 14.78 113.119 17.2C113.119 19.86 112.479 21.9 111.199 23.32C109.939 24.74 108.109 25.45 105.709 25.45C104.469 25.45 103.329 25.29 102.289 24.97V31.45L100.489 31.69ZM106.579 10.9C105.919 10.9 105.209 11.01 104.449 11.23C103.689 11.45 102.969 11.75 102.289 12.13V23.53C103.329 23.85 104.419 24.01 105.559 24.01C107.479 24.01 108.899 23.46 109.819 22.36C110.759 21.24 111.229 19.53 111.229 17.23C111.229 15.17 110.829 13.6 110.029 12.52C109.249 11.44 108.099 10.9 106.579 10.9ZM122.769 25.45C120.589 25.45 118.939 24.78 117.819 23.44C116.719 22.08 116.169 20.08 116.169 17.44C116.169 14.82 116.719 12.84 117.819 11.5C118.939 10.14 120.589 9.46 122.769 9.46C124.949 9.46 126.589 10.14 127.689 11.5C128.809 12.84 129.369 14.82 129.369 17.44C129.369 20.08 128.809 22.08 127.689 23.44C126.589 24.78 124.949 25.45 122.769 25.45ZM122.769 24.01C124.409 24.01 125.599 23.49 126.339 22.45C127.099 21.39 127.479 19.72 127.479 17.44C127.479 15.18 127.099 13.53 126.339 12.49C125.599 11.43 124.409 10.9 122.769 10.9C121.129 10.9 119.929 11.43 119.169 12.49C118.429 13.53 118.059 15.18 118.059 17.44C118.059 19.72 118.429 21.39 119.169 22.45C119.929 23.49 121.129 24.01 122.769 24.01ZM135.008 9.91V20.32C135.008 22.78 136.218 24.01 138.638 24.01C139.298 24.01 140.018 23.9 140.798 23.68C141.598 23.46 142.378 23.16 143.138 22.78V9.91H144.938V24.91L143.408 25.06L143.288 24.01C141.548 24.97 139.848 25.45 138.188 25.45C136.608 25.45 135.378 25.03 134.498 24.19C133.638 23.33 133.208 22.14 133.208 20.62V9.91H135.008ZM149.971 25V10L151.501 9.85L151.651 11.2C152.991 10.1 154.421 9.55 155.941 9.55C156.481 9.55 156.911 9.61 157.231 9.73V11.2C156.711 11.08 156.251 11.02 155.851 11.02C154.431 11.02 153.071 11.53 151.771 12.55V25H149.971ZM159.114 23.02C160.614 23.68 162.164 24.01 163.764 24.01C166.464 24.01 167.814 22.96 167.814 20.86C167.814 20.18 167.614 19.63 167.214 19.21C166.834 18.79 166.194 18.44 165.294 18.16L163.014 17.44C161.734 17.04 160.804 16.54 160.224 15.94C159.644 15.32 159.354 14.54 159.354 13.6C159.354 12.34 159.844 11.34 160.824 10.6C161.824 9.84 163.164 9.46 164.844 9.46C166.264 9.46 167.614 9.73 168.894 10.27V11.68C167.554 11.16 166.234 10.9 164.934 10.9C163.754 10.9 162.824 11.14 162.144 11.62C161.484 12.08 161.154 12.72 161.154 13.54C161.154 14.12 161.334 14.59 161.694 14.95C162.074 15.29 162.744 15.62 163.704 15.94L166.074 16.72C167.294 17.12 168.184 17.65 168.744 18.31C169.324 18.97 169.614 19.81 169.614 20.83C169.614 22.31 169.114 23.45 168.114 24.25C167.114 25.05 165.704 25.45 163.884 25.45C162.204 25.45 160.694 25.14 159.354 24.52L159.114 23.02ZM174.637 19L174.367 4L176.287 3.76L176.017 19H174.637ZM175.327 25.15C174.927 25.15 174.597 25.03 174.337 24.79C174.077 24.53 173.947 24.19 173.947 23.77C173.947 23.35 174.077 23.02 174.337 22.78C174.597 22.52 174.927 22.39 175.327 22.39C175.727 22.39 176.057 22.52 176.317 22.78C176.577 23.02 176.707 23.35 176.707 23.77C176.707 24.19 176.577 24.53 176.317 24.79C176.057 25.03 175.727 25.15 175.327 25.15Z" fill="#013D5B"/>
</g>
<defs>
<clipPath id="clip0_11148_4432">
<rect width="180" height="34" fill="white"/>
</clipPath>
</defs>
</svg>
