<svg width="95" height="18" viewBox="0 0 95 18" fill="none" xmlns="http://www.w3.org/2000/svg">
<path d="M88.7657 16.918V5.91801L89.8877 5.80801L89.9977 6.79801C90.9804 5.99135 92.0291 5.58801 93.1437 5.58801C93.5397 5.58801 93.8551 5.63201 94.0897 5.72001V6.79801C93.7084 6.71001 93.3711 6.66601 93.0778 6.66601C92.0364 6.66601 91.0391 7.04001 90.0857 7.78801V16.918H88.7657Z" fill="#013D5B"/>
<path d="M80.956 17.248C79.3573 17.248 78.1473 16.7567 77.326 15.774C76.5193 14.7767 76.116 13.31 76.116 11.374C76.116 9.45267 76.5193 8.00067 77.326 7.018C78.1473 6.02067 79.3573 5.522 80.956 5.522C82.5546 5.522 83.7573 6.02067 84.564 7.018C85.3853 8.00067 85.796 9.45267 85.796 11.374C85.796 13.31 85.3853 14.7767 84.564 15.774C83.7573 16.7567 82.5546 17.248 80.956 17.248ZM80.956 16.192C82.1586 16.192 83.0313 15.8107 83.574 15.048C84.1313 14.2707 84.41 13.046 84.41 11.374C84.41 9.71667 84.1313 8.50667 83.574 7.744C83.0313 6.96667 82.1586 6.578 80.956 6.578C79.7533 6.578 78.8733 6.96667 78.316 7.744C77.7733 8.50667 77.502 9.71667 77.502 11.374C77.502 13.046 77.7733 14.2707 78.316 15.048C78.8733 15.8107 79.7533 16.192 80.956 16.192Z" fill="#013D5B"/>
<path d="M60.7944 15.466C61.8944 15.95 63.0311 16.192 64.2044 16.192C66.1844 16.192 67.1744 15.422 67.1744 13.882C67.1744 13.3833 67.0278 12.98 66.7344 12.672C66.4558 12.364 65.9864 12.1073 65.3264 11.902L63.6544 11.374C62.7158 11.0807 62.0338 10.714 61.6084 10.274C61.1831 9.81934 60.9704 9.24734 60.9704 8.558C60.9704 7.634 61.3298 6.90067 62.0484 6.358C62.7818 5.80067 63.7644 5.522 64.9964 5.522C66.0378 5.522 67.0278 5.72 67.9664 6.116V7.15C66.9838 6.76867 66.0158 6.578 65.0624 6.578C64.1971 6.578 63.5151 6.754 63.0164 7.106C62.5324 7.44334 62.2904 7.91267 62.2904 8.514C62.2904 8.93934 62.4224 9.284 62.6864 9.548C62.9651 9.79734 63.4564 10.0393 64.1604 10.274L65.8984 10.846C66.7931 11.1393 67.4458 11.528 67.8564 12.012C68.2818 12.496 68.4944 13.112 68.4944 13.86C68.4944 14.9453 68.1278 15.7813 67.3944 16.368C66.6611 16.9547 65.6271 17.248 64.2924 17.248C63.0604 17.248 61.9531 17.0207 60.9704 16.566L60.7944 15.466Z" fill="#013D5B"/>
<path d="M58.2257 16.522C57.2137 17.006 56.1283 17.248 54.9697 17.248C53.283 17.248 51.985 16.7493 51.0757 15.752C50.1663 14.7547 49.7117 13.3247 49.7117 11.462C49.7117 9.614 50.137 8.162 50.9877 7.106C51.8383 6.05 53.0043 5.522 54.4857 5.522C55.791 5.522 56.8177 5.93267 57.5657 6.754C58.3283 7.56067 58.7097 8.668 58.7097 10.076C58.7097 10.604 58.6657 11.11 58.5777 11.594H51.0097C51.0243 14.6593 52.381 16.192 55.0797 16.192C56.165 16.192 57.2137 15.9573 58.2257 15.488V16.522ZM54.4637 6.556C53.4663 6.556 52.6523 6.92267 52.0217 7.656C51.391 8.38934 51.0537 9.372 51.0097 10.604H57.4337C57.463 10.3693 57.4777 10.164 57.4777 9.988C57.4777 8.90267 57.2137 8.05934 56.6857 7.458C56.1577 6.85667 55.417 6.556 54.4637 6.556Z" fill="#013D5B"/>
<path d="M47.0108 16.522C45.9988 17.006 44.9135 17.248 43.7548 17.248C42.0682 17.248 40.7702 16.7493 39.8608 15.752C38.9515 14.7547 38.4968 13.3247 38.4968 11.462C38.4968 9.614 38.9222 8.162 39.7728 7.106C40.6235 6.05 41.7895 5.522 43.2708 5.522C44.5762 5.522 45.6028 5.93267 46.3508 6.754C47.1135 7.56067 47.4948 8.668 47.4948 10.076C47.4948 10.604 47.4508 11.11 47.3628 11.594H39.7948C39.8095 14.6593 41.1662 16.192 43.8648 16.192C44.9502 16.192 45.9988 15.9573 47.0108 15.488V16.522ZM43.2488 6.556C42.2515 6.556 41.4375 6.92267 40.8068 7.656C40.1762 8.38934 39.8388 9.372 39.7948 10.604H46.2188C46.2482 10.3693 46.2628 10.164 46.2628 9.988C46.2628 8.90267 45.9988 8.05934 45.4708 7.458C44.9428 6.85667 44.2022 6.556 43.2488 6.556Z" fill="#013D5B"/>
<path d="M32.6987 16.918V6.864H31.0267V5.918L32.6987 5.852V3.366C32.6987 2.28067 32.9627 1.452 33.4907 0.880001C34.0334 0.293334 34.8181 0 35.8447 0C36.4021 0 36.9667 0.102667 37.5387 0.308V1.276C37.0107 1.11467 36.5047 1.034 36.0207 1.034C35.3314 1.034 34.8254 1.21733 34.5027 1.584C34.1801 1.936 34.0187 2.49333 34.0187 3.256V5.852H36.9887V6.864H34.0187V16.918H32.6987Z" fill="#013D5B"/>
<path d="M19.081 17.248C17.4823 17.248 16.2723 16.7567 15.451 15.774C14.6443 14.7767 14.241 13.31 14.241 11.374C14.241 9.45267 14.6443 8.00067 15.451 7.018C16.2723 6.02067 17.4823 5.522 19.081 5.522C20.6796 5.522 21.8823 6.02067 22.689 7.018C23.5103 8.00067 23.921 9.45267 23.921 11.374C23.921 13.31 23.5103 14.7767 22.689 15.774C21.8823 16.7567 20.6796 17.248 19.081 17.248ZM19.081 16.192C20.2836 16.192 21.1563 15.8107 21.699 15.048C22.2563 14.2707 22.535 13.046 22.535 11.374C22.535 9.71667 22.2563 8.50667 21.699 7.744C21.1563 6.96667 20.2836 6.578 19.081 6.578C17.8783 6.578 16.9983 6.96667 16.441 7.744C15.8983 8.50667 15.627 9.71667 15.627 11.374C15.627 13.046 15.8983 14.2707 16.441 15.048C16.9983 15.8107 17.8783 16.192 19.081 16.192Z" fill="#013D5B"/>
<path d="M9.592 1.51801H10.934V16.918H9.614L1.342 3.80601V16.918H0V1.51801H1.32L9.592 14.63V1.51801Z" fill="#013D5B"/>
</svg>
