<svg width="171" height="50" viewBox="0 0 171 50" fill="none" xmlns="http://www.w3.org/2000/svg">
<path d="M12.562 16.698L8.976 2.97L5.368 16.698H3.894L7.59959e-07 1.298H1.408L4.664 14.916L8.184 1.298H9.768L13.288 14.96L16.566 1.298H17.952L14.058 16.698H12.562ZM20.2073 16.698V0.175997L21.5273 -3.33786e-06V6.314C22.7593 5.63933 23.9693 5.302 25.1573 5.302C26.3453 5.302 27.262 5.61 27.9073 6.226C28.5673 6.842 28.8973 7.71466 28.8973 8.844V16.698H27.5773V9.064C27.5773 7.26 26.6607 6.358 24.8273 6.358C24.3433 6.358 23.808 6.43866 23.2213 6.6C22.6493 6.76133 22.0847 6.98133 21.5273 7.26V16.698H20.2073ZM40.22 16.302C39.208 16.786 38.1226 17.028 36.964 17.028C35.2773 17.028 33.9793 16.5293 33.07 15.532C32.1606 14.5347 31.706 13.1047 31.706 11.242C31.706 9.394 32.1313 7.942 32.982 6.886C33.8326 5.83 34.9986 5.302 36.48 5.302C37.7853 5.302 38.812 5.71266 39.56 6.534C40.3226 7.34066 40.704 8.448 40.704 9.856C40.704 10.384 40.66 10.89 40.572 11.374H33.004C33.0186 14.4393 34.3753 15.972 37.074 15.972C38.1593 15.972 39.208 15.7373 40.22 15.268V16.302ZM36.458 6.336C35.4606 6.336 34.6466 6.70266 34.016 7.436C33.3853 8.16933 33.048 9.152 33.004 10.384H39.428C39.4573 10.1493 39.472 9.944 39.472 9.768C39.472 8.68266 39.208 7.83933 38.68 7.238C38.152 6.63666 37.4113 6.336 36.458 6.336ZM51.0168 16.698V9.064C51.0168 7.26 50.1001 6.358 48.2668 6.358C47.7828 6.358 47.2475 6.43866 46.6608 6.6C46.0888 6.76133 45.5241 6.98133 44.9668 7.26V16.698H43.6468V5.698L44.7688 5.588L44.8568 6.358C46.1328 5.654 47.3795 5.302 48.5968 5.302C49.7848 5.302 50.7015 5.61 51.3468 6.226C52.0068 6.842 52.3368 7.71466 52.3368 8.844V16.698H51.0168ZM61.3714 16.698V5.742L62.6914 5.566V16.698H61.3714ZM62.0314 2.948C61.7381 2.948 61.4961 2.86 61.3054 2.684C61.1294 2.508 61.0414 2.266 61.0414 1.958C61.0414 1.65 61.1294 1.408 61.3054 1.232C61.4961 1.056 61.7381 0.967997 62.0314 0.967997C62.3247 0.967997 62.5594 1.056 62.7354 1.232C62.9261 1.408 63.0214 1.65 63.0214 1.958C63.0214 2.266 62.9261 2.508 62.7354 2.684C62.5594 2.86 62.3247 2.948 62.0314 2.948ZM68.0053 6.644V13.684C68.0053 14.4467 68.1666 15.0113 68.4893 15.378C68.8119 15.73 69.3106 15.906 69.9853 15.906C70.4253 15.906 70.9239 15.8253 71.4813 15.664V16.632C70.8653 16.8373 70.3006 16.94 69.7873 16.94C68.7753 16.94 68.0053 16.6687 67.4773 16.126C66.9493 15.5687 66.6853 14.7473 66.6853 13.662V6.644H65.0133V5.698L66.7293 5.632L66.8613 2.86L68.0053 2.728V5.632H71.3273V6.644H68.0053ZM79.2679 16.698V5.698L80.3899 5.588L80.4999 6.578C81.4826 5.77133 82.5312 5.368 83.6459 5.368C84.0419 5.368 84.3572 5.412 84.5919 5.5V6.578C84.2106 6.49 83.8732 6.446 83.5799 6.446C82.5386 6.446 81.5412 6.82 80.5879 7.568V16.698H79.2679ZM93.3915 16.742L93.3035 15.972C92.0422 16.676 90.7955 17.028 89.5635 17.028C88.4342 17.028 87.5395 16.7347 86.8795 16.148C86.2195 15.5467 85.8895 14.7253 85.8895 13.684C85.8895 12.584 86.2562 11.748 86.9895 11.176C87.7375 10.5893 88.8302 10.296 90.2675 10.296C91.1329 10.296 92.1155 10.3987 93.2155 10.604V9.108C93.2155 7.27466 92.1815 6.358 90.1135 6.358C89.5709 6.358 88.9769 6.43133 88.3315 6.578C87.6862 6.72466 87.0922 6.91533 86.5495 7.15V6.116C87.0775 5.86666 87.6789 5.66866 88.3535 5.522C89.0429 5.37533 89.6955 5.302 90.3115 5.302C91.6902 5.302 92.7315 5.632 93.4355 6.292C94.1542 6.93733 94.5135 7.876 94.5135 9.108V16.632L93.3915 16.742ZM89.8715 15.972C90.3995 15.972 90.9569 15.8913 91.5435 15.73C92.1302 15.5687 92.6875 15.3487 93.2155 15.07V11.55C92.2915 11.374 91.3822 11.286 90.4875 11.286C89.3582 11.286 88.5369 11.4767 88.0235 11.858C87.5102 12.2393 87.2535 12.8407 87.2535 13.662C87.2535 15.202 88.1262 15.972 89.8715 15.972ZM98.0452 16.698V5.742L99.3652 5.566V16.698H98.0452ZM98.7052 2.948C98.4119 2.948 98.1699 2.86 97.9792 2.684C97.8032 2.508 97.7152 2.266 97.7152 1.958C97.7152 1.65 97.8032 1.408 97.9792 1.232C98.1699 1.056 98.4119 0.967997 98.7052 0.967997C98.9986 0.967997 99.2332 1.056 99.4092 1.232C99.5999 1.408 99.6952 1.65 99.6952 1.958C99.6952 2.266 99.5999 2.508 99.4092 2.684C99.2332 2.86 98.9986 2.948 98.7052 2.948ZM110.421 16.698V9.064C110.421 7.26 109.504 6.358 107.671 6.358C107.187 6.358 106.652 6.43866 106.065 6.6C105.493 6.76133 104.928 6.98133 104.371 7.26V16.698H103.051V5.698L104.173 5.588L104.261 6.358C105.537 5.654 106.784 5.302 108.001 5.302C109.189 5.302 110.106 5.61 110.751 6.226C111.411 6.842 111.741 7.71466 111.741 8.844V16.698H110.421ZM114.418 15.246C115.518 15.73 116.654 15.972 117.828 15.972C119.808 15.972 120.798 15.202 120.798 13.662C120.798 13.1633 120.651 12.76 120.358 12.452C120.079 12.144 119.61 11.8873 118.95 11.682L117.278 11.154C116.339 10.8607 115.657 10.494 115.232 10.054C114.806 9.59933 114.594 9.02733 114.594 8.338C114.594 7.414 114.953 6.68066 115.672 6.138C116.405 5.58066 117.388 5.302 118.62 5.302C119.661 5.302 120.651 5.5 121.59 5.896V6.93C120.607 6.54866 119.639 6.358 118.686 6.358C117.82 6.358 117.138 6.534 116.64 6.886C116.156 7.22333 115.914 7.69266 115.914 8.294C115.914 8.71933 116.046 9.064 116.31 9.328C116.588 9.57733 117.08 9.81933 117.784 10.054L119.522 10.626C120.416 10.9193 121.069 11.308 121.48 11.792C121.905 12.276 122.118 12.892 122.118 13.64C122.118 14.7253 121.751 15.5613 121.018 16.148C120.284 16.7347 119.25 17.028 117.916 17.028C116.684 17.028 115.576 16.8007 114.594 16.346L114.418 15.246ZM137.769 16.302C136.801 16.786 135.745 17.028 134.601 17.028C133.046 17.028 131.844 16.522 130.993 15.51C130.157 14.498 129.739 13.0533 129.739 11.176C129.739 9.29866 130.157 7.854 130.993 6.842C131.844 5.81533 133.046 5.302 134.601 5.302C135.701 5.302 136.742 5.544 137.725 6.028V7.062C136.698 6.60733 135.701 6.38 134.733 6.38C133.545 6.38 132.643 6.78333 132.027 7.59C131.426 8.39666 131.125 9.592 131.125 11.176C131.125 12.7453 131.426 13.9333 132.027 14.74C132.643 15.5467 133.545 15.95 134.733 15.95C135.73 15.95 136.742 15.7227 137.769 15.268V16.302ZM147.382 16.742L147.294 15.972C146.032 16.676 144.786 17.028 143.554 17.028C142.424 17.028 141.53 16.7347 140.87 16.148C140.21 15.5467 139.88 14.7253 139.88 13.684C139.88 12.584 140.246 11.748 140.98 11.176C141.728 10.5893 142.82 10.296 144.258 10.296C145.123 10.296 146.106 10.3987 147.206 10.604V9.108C147.206 7.27466 146.172 6.358 144.104 6.358C143.561 6.358 142.967 6.43133 142.322 6.578C141.676 6.72466 141.082 6.91533 140.54 7.15V6.116C141.068 5.86666 141.669 5.66866 142.344 5.522C143.033 5.37533 143.686 5.302 144.302 5.302C145.68 5.302 146.722 5.632 147.426 6.292C148.144 6.93733 148.504 7.876 148.504 9.108V16.632L147.382 16.742ZM143.862 15.972C144.39 15.972 144.947 15.8913 145.534 15.73C146.12 15.5687 146.678 15.3487 147.206 15.07V11.55C146.282 11.374 145.372 11.286 144.478 11.286C143.348 11.286 142.527 11.4767 142.014 11.858C141.5 12.2393 141.244 12.8407 141.244 13.662C141.244 15.202 142.116 15.972 143.862 15.972ZM151.177 15.246C152.277 15.73 153.414 15.972 154.587 15.972C156.567 15.972 157.557 15.202 157.557 13.662C157.557 13.1633 157.411 12.76 157.117 12.452C156.839 12.144 156.369 11.8873 155.709 11.682L154.037 11.154C153.099 10.8607 152.417 10.494 151.991 10.054C151.566 9.59933 151.353 9.02733 151.353 8.338C151.353 7.414 151.713 6.68066 152.431 6.138C153.165 5.58066 154.147 5.302 155.379 5.302C156.421 5.302 157.411 5.5 158.349 5.896V6.93C157.367 6.54866 156.399 6.358 155.445 6.358C154.58 6.358 153.898 6.534 153.399 6.886C152.915 7.22333 152.673 7.69266 152.673 8.294C152.673 8.71933 152.805 9.064 153.069 9.328C153.348 9.57733 153.839 9.81933 154.543 10.054L156.281 10.626C157.176 10.9193 157.829 11.308 158.239 11.792C158.665 12.276 158.877 12.892 158.877 13.64C158.877 14.7253 158.511 15.5613 157.777 16.148C157.044 16.7347 156.01 17.028 154.675 17.028C153.443 17.028 152.336 16.8007 151.353 16.346L151.177 15.246ZM161.725 16.698V0.175997L163.045 -3.33786e-06V6.314C164.277 5.63933 165.487 5.302 166.675 5.302C167.863 5.302 168.78 5.61 169.425 6.226C170.085 6.842 170.415 7.71466 170.415 8.844V16.698H169.095V9.064C169.095 7.26 168.178 6.358 166.345 6.358C165.861 6.358 165.326 6.43866 164.739 6.6C164.167 6.76133 163.602 6.98133 163.045 7.26V16.698H161.725ZM2.75 34.292C3.30733 33.984 3.872 33.742 4.444 33.566C5.03067 33.39 5.57333 33.302 6.072 33.302C7.50933 33.302 8.63867 33.808 9.46 34.82C10.2813 35.8173 10.692 37.2033 10.692 38.978C10.692 40.9287 10.2227 42.4247 9.284 43.466C8.36 44.5073 7.018 45.028 5.258 45.028C4.01133 45.028 2.73533 44.8227 1.43 44.412V28.176L2.75 28V34.292ZM5.896 34.358C5.412 34.358 4.89133 34.4387 4.334 34.6C3.77667 34.7613 3.24867 34.9813 2.75 35.26V43.62C3.51267 43.8547 4.312 43.972 5.148 43.972C6.556 43.972 7.59733 43.5687 8.272 42.762C8.96133 41.9407 9.306 40.6867 9.306 39C9.306 37.4893 9.01267 36.338 8.426 35.546C7.854 34.754 7.01067 34.358 5.896 34.358ZM20.4306 44.742L20.3426 43.972C19.0813 44.676 17.8346 45.028 16.6026 45.028C15.4733 45.028 14.5786 44.7347 13.9186 44.148C13.2586 43.5467 12.9286 42.7253 12.9286 41.684C12.9286 40.584 13.2953 39.748 14.0286 39.176C14.7766 38.5893 15.8693 38.296 17.3066 38.296C18.1719 38.296 19.1546 38.3987 20.2546 38.604V37.108C20.2546 35.2747 19.2206 34.358 17.1526 34.358C16.6099 34.358 16.0159 34.4313 15.3706 34.578C14.7253 34.7247 14.1313 34.9153 13.5886 35.15V34.116C14.1166 33.8667 14.7179 33.6687 15.3926 33.522C16.0819 33.3753 16.7346 33.302 17.3506 33.302C18.7293 33.302 19.7706 33.632 20.4746 34.292C21.1933 34.9373 21.5526 35.876 21.5526 37.108V44.632L20.4306 44.742ZM16.9106 43.972C17.4386 43.972 17.9959 43.8913 18.5826 43.73C19.1693 43.5687 19.7266 43.3487 20.2546 43.07V39.55C19.3306 39.374 18.4213 39.286 17.5266 39.286C16.3973 39.286 15.5759 39.4767 15.0626 39.858C14.5493 40.2393 14.2926 40.8407 14.2926 41.662C14.2926 43.202 15.1653 43.972 16.9106 43.972ZM32.3883 44.302C31.4203 44.786 30.3643 45.028 29.2203 45.028C27.6656 45.028 26.463 44.522 25.6123 43.51C24.7763 42.498 24.3583 41.0533 24.3583 39.176C24.3583 37.2987 24.7763 35.854 25.6123 34.842C26.463 33.8153 27.6656 33.302 29.2203 33.302C30.3203 33.302 31.3616 33.544 32.3443 34.028V35.062C31.3176 34.6073 30.3203 34.38 29.3523 34.38C28.1643 34.38 27.2623 34.7833 26.6463 35.59C26.045 36.3967 25.7443 37.592 25.7443 39.176C25.7443 40.7453 26.045 41.9333 26.6463 42.74C27.2623 43.5467 28.1643 43.95 29.3523 43.95C30.3496 43.95 31.3616 43.7227 32.3883 43.268V44.302ZM35.2249 44.698V28.176L36.5449 28V38.538L41.7369 33.632H43.2989L37.8649 38.78L43.4749 44.698H41.8029L36.5449 39.11V44.698H35.2249ZM44.0901 48.02C44.4861 47.5067 44.8014 46.964 45.0361 46.392C45.2854 45.82 45.4174 45.2773 45.4321 44.764C45.2121 44.7053 45.0434 44.5953 44.9261 44.434C44.8087 44.258 44.7501 44.0453 44.7501 43.796C44.7501 43.488 44.8454 43.246 45.0361 43.07C45.2267 42.8793 45.4687 42.784 45.7621 42.784C46.0847 42.784 46.3341 42.9013 46.5101 43.136C46.6861 43.356 46.7741 43.664 46.7741 44.06C46.7741 44.7053 46.5614 45.4313 46.1361 46.238C45.7254 47.0593 45.2047 47.756 44.5741 48.328L44.0901 48.02ZM55.3773 44.698V33.742L56.6973 33.566V44.698H55.3773ZM56.0373 30.948C55.7439 30.948 55.5019 30.86 55.3113 30.684C55.1353 30.508 55.0473 30.266 55.0473 29.958C55.0473 29.65 55.1353 29.408 55.3113 29.232C55.5019 29.056 55.7439 28.968 56.0373 28.968C56.3306 28.968 56.5653 29.056 56.7413 29.232C56.9319 29.408 57.0273 29.65 57.0273 29.958C57.0273 30.266 56.9319 30.508 56.7413 30.684C56.5653 30.86 56.3306 30.948 56.0373 30.948ZM62.0111 34.644V41.684C62.0111 42.4467 62.1725 43.0113 62.4951 43.378C62.8178 43.73 63.3165 43.906 63.9911 43.906C64.4311 43.906 64.9298 43.8253 65.4871 43.664V44.632C64.8711 44.8373 64.3065 44.94 63.7931 44.94C62.7811 44.94 62.0111 44.6687 61.4831 44.126C60.9551 43.5687 60.6911 42.7473 60.6911 41.662V34.644H59.0191V33.698L60.7351 33.632L60.8671 30.86L62.0111 30.728V33.632H65.3331V34.644H62.0111ZM73.2738 49.604V33.698L74.3958 33.588L74.4838 34.358C75.7304 33.654 76.8744 33.302 77.9158 33.302C79.3531 33.302 80.4824 33.808 81.3038 34.82C82.1251 35.8173 82.5358 37.2033 82.5358 38.978C82.5358 40.9287 82.0664 42.4247 81.1278 43.466C80.2038 44.5073 78.8618 45.028 77.1018 45.028C76.1924 45.028 75.3564 44.9107 74.5938 44.676V49.428L73.2738 49.604ZM77.7398 34.358C77.2558 34.358 76.7351 34.4387 76.1778 34.6C75.6204 34.7613 75.0924 34.9813 74.5938 35.26V43.62C75.3564 43.8547 76.1558 43.972 76.9918 43.972C78.3998 43.972 79.4411 43.5687 80.1158 42.762C80.8051 41.9407 81.1498 40.6867 81.1498 39C81.1498 37.4893 80.8564 36.338 80.2698 35.546C79.6978 34.754 78.8544 34.358 77.7398 34.358ZM89.6124 45.028C88.0137 45.028 86.8037 44.5367 85.9824 43.554C85.1757 42.5567 84.7724 41.09 84.7724 39.154C84.7724 37.2327 85.1757 35.7807 85.9824 34.798C86.8037 33.8007 88.0137 33.302 89.6124 33.302C91.211 33.302 92.4137 33.8007 93.2204 34.798C94.0417 35.7807 94.4524 37.2327 94.4524 39.154C94.4524 41.09 94.0417 42.5567 93.2204 43.554C92.4137 44.5367 91.211 45.028 89.6124 45.028ZM89.6124 43.972C90.815 43.972 91.6877 43.5907 92.2304 42.828C92.7877 42.0507 93.0664 40.826 93.0664 39.154C93.0664 37.4967 92.7877 36.2867 92.2304 35.524C91.6877 34.7467 90.815 34.358 89.6124 34.358C88.4097 34.358 87.5297 34.7467 86.9724 35.524C86.4297 36.2867 86.1584 37.4967 86.1584 39.154C86.1584 40.826 86.4297 42.0507 86.9724 42.828C87.5297 43.5907 88.4097 43.972 89.6124 43.972ZM98.5882 33.632V41.266C98.5882 43.07 99.4755 43.972 101.25 43.972C101.734 43.972 102.262 43.8913 102.834 43.73C103.421 43.5687 103.993 43.3487 104.55 43.07V33.632H105.87V44.632L104.748 44.742L104.66 43.972C103.384 44.676 102.138 45.028 100.92 45.028C99.7615 45.028 98.8595 44.72 98.2142 44.104C97.5835 43.4733 97.2682 42.6007 97.2682 41.486V33.632H98.5882ZM109.561 44.698V33.698L110.683 33.588L110.793 34.578C111.776 33.7713 112.824 33.368 113.939 33.368C114.335 33.368 114.65 33.412 114.885 33.5V34.578C114.504 34.49 114.166 34.446 113.873 34.446C112.832 34.446 111.834 34.82 110.881 35.568V44.698H109.561ZM116.265 43.246C117.365 43.73 118.502 43.972 119.675 43.972C121.655 43.972 122.645 43.202 122.645 41.662C122.645 41.1633 122.499 40.76 122.205 40.452C121.927 40.144 121.457 39.8873 120.797 39.682L119.125 39.154C118.187 38.8607 117.505 38.494 117.079 38.054C116.654 37.5993 116.441 37.0273 116.441 36.338C116.441 35.414 116.801 34.6807 117.519 34.138C118.253 33.5807 119.235 33.302 120.467 33.302C121.509 33.302 122.499 33.5 123.437 33.896V34.93C122.455 34.5487 121.487 34.358 120.533 34.358C119.668 34.358 118.986 34.534 118.487 34.886C118.003 35.2233 117.761 35.6927 117.761 36.294C117.761 36.7193 117.893 37.064 118.157 37.328C118.436 37.5773 118.927 37.8193 119.631 38.054L121.369 38.626C122.264 38.9193 122.917 39.308 123.327 39.792C123.753 40.276 123.965 40.892 123.965 41.64C123.965 42.7253 123.599 43.5613 122.865 44.148C122.132 44.7347 121.098 45.028 119.763 45.028C118.531 45.028 117.424 44.8007 116.441 44.346L116.265 43.246ZM127.649 40.298L127.451 29.298L128.859 29.122L128.661 40.298H127.649ZM128.155 44.808C127.861 44.808 127.619 44.72 127.429 44.544C127.238 44.3533 127.143 44.104 127.143 43.796C127.143 43.488 127.238 43.246 127.429 43.07C127.619 42.8793 127.861 42.784 128.155 42.784C128.448 42.784 128.69 42.8793 128.881 43.07C129.071 43.246 129.167 43.488 129.167 43.796C129.167 44.104 129.071 44.3533 128.881 44.544C128.69 44.72 128.448 44.808 128.155 44.808Z" fill="#013D5B"/>
</svg>
