<svg width="264" height="76" viewBox="0 0 264 76" fill="none" xmlns="http://www.w3.org/2000/svg">
<path d="M19.414 25.806L13.872 4.59003L8.296 25.806H6.018L3.94881e-06 2.00603H2.176L7.208 23.052L12.648 2.00603H15.096L20.536 23.12L25.602 2.00603H27.744L21.726 25.806H19.414ZM31.2295 25.806V0.272029L33.2695 2.81334e-05V9.75803C35.1735 8.71536 37.0435 8.19403 38.8795 8.19403C40.7155 8.19403 42.1322 8.67003 43.1295 9.62203C44.1495 10.574 44.6595 11.9227 44.6595 13.668V25.806H42.6195V14.008C42.6195 11.22 41.2029 9.82603 38.3695 9.82603C37.6215 9.82603 36.7942 9.9507 35.8875 10.2C35.0035 10.4494 34.1309 10.7894 33.2695 11.22V25.806H31.2295ZM62.1581 25.194C60.5941 25.942 58.9168 26.316 57.1261 26.316C54.5194 26.316 52.5134 25.5454 51.1081 24.004C49.7028 22.4627 49.0001 20.2527 49.0001 17.374C49.0001 14.518 49.6574 12.274 50.9721 10.642C52.2868 9.01003 54.0888 8.19403 56.3781 8.19403C58.3954 8.19403 59.9821 8.8287 61.1381 10.098C62.3168 11.3447 62.9061 13.056 62.9061 15.232C62.9061 16.048 62.8381 16.83 62.7021 17.578H51.0061C51.0288 22.3154 53.1254 24.684 57.2961 24.684C58.9734 24.684 60.5941 24.3214 62.1581 23.596V25.194ZM56.3441 9.79203C54.8028 9.79203 53.5448 10.3587 52.5701 11.492C51.5954 12.6254 51.0741 14.144 51.0061 16.048H60.9341C60.9794 15.6854 61.0021 15.368 61.0021 15.096C61.0021 13.4187 60.5941 12.1154 59.7781 11.186C58.9621 10.2567 57.8174 9.79203 56.3441 9.79203ZM78.8441 25.806V14.008C78.8441 11.22 77.4275 9.82603 74.5941 9.82603C73.8461 9.82603 73.0188 9.9507 72.1121 10.2C71.2281 10.4494 70.3555 10.7894 69.4941 11.22V25.806H67.4541V8.80603L69.1881 8.63603L69.3241 9.82603C71.2961 8.73803 73.2228 8.19403 75.1041 8.19403C76.9401 8.19403 78.3568 8.67003 79.3541 9.62203C80.3741 10.574 80.8841 11.9227 80.8841 13.668V25.806H78.8441ZM94.8467 25.806V8.87403L96.8867 8.60203V25.806H94.8467ZM95.8667 4.55603C95.4134 4.55603 95.0394 4.42003 94.7447 4.14803C94.4727 3.87603 94.3367 3.50203 94.3367 3.02603C94.3367 2.55003 94.4727 2.17603 94.7447 1.90403C95.0394 1.63203 95.4134 1.49603 95.8667 1.49603C96.3201 1.49603 96.6827 1.63203 96.9547 1.90403C97.2494 2.17603 97.3967 2.55003 97.3967 3.02603C97.3967 3.50203 97.2494 3.87603 96.9547 4.14803C96.6827 4.42003 96.3201 4.55603 95.8667 4.55603ZM105.099 10.268V21.148C105.099 22.3267 105.348 23.1994 105.847 23.766C106.346 24.31 107.116 24.582 108.159 24.582C108.839 24.582 109.61 24.4574 110.471 24.208V25.704C109.519 26.0214 108.646 26.18 107.853 26.18C106.289 26.18 105.099 25.7607 104.283 24.922C103.467 24.0607 103.059 22.7914 103.059 21.114V10.268H100.475V8.80603L103.127 8.70403L103.331 4.42003L105.099 4.21603V8.70403H110.233V10.268H105.099ZM122.505 25.806V8.80603L124.239 8.63603L124.409 10.166C125.928 8.91936 127.548 8.29603 129.271 8.29603C129.883 8.29603 130.37 8.36403 130.733 8.50003V10.166C130.144 10.03 129.622 9.96203 129.169 9.96203C127.56 9.96203 126.018 10.54 124.545 11.696V25.806H122.505ZM144.332 25.874L144.196 24.684C142.247 25.772 140.32 26.316 138.416 26.316C136.671 26.316 135.288 25.8627 134.268 24.956C133.248 24.0267 132.738 22.7574 132.738 21.148C132.738 19.448 133.305 18.156 134.438 17.272C135.594 16.3654 137.283 15.912 139.504 15.912C140.842 15.912 142.36 16.0707 144.06 16.388V14.076C144.06 11.2427 142.462 9.82603 139.266 9.82603C138.428 9.82603 137.51 9.93936 136.512 10.166C135.515 10.3927 134.597 10.6874 133.758 11.05V9.45203C134.574 9.0667 135.504 8.7607 136.546 8.53403C137.612 8.30736 138.62 8.19403 139.572 8.19403C141.703 8.19403 143.312 8.70403 144.4 9.72403C145.511 10.7214 146.066 12.172 146.066 14.076V25.704L144.332 25.874ZM138.892 24.684C139.708 24.684 140.57 24.5594 141.476 24.31C142.383 24.0607 143.244 23.7207 144.06 23.29V17.85C142.632 17.578 141.227 17.442 139.844 17.442C138.099 17.442 136.83 17.7367 136.036 18.326C135.243 18.9154 134.846 19.8447 134.846 21.114C134.846 23.494 136.195 24.684 138.892 24.684ZM151.524 25.806V8.87403L153.564 8.60203V25.806H151.524ZM152.544 4.55603C152.091 4.55603 151.717 4.42003 151.422 4.14803C151.15 3.87603 151.014 3.50203 151.014 3.02603C151.014 2.55003 151.15 2.17603 151.422 1.90403C151.717 1.63203 152.091 1.49603 152.544 1.49603C152.998 1.49603 153.36 1.63203 153.632 1.90403C153.927 2.17603 154.074 2.55003 154.074 3.02603C154.074 3.50203 153.927 3.87603 153.632 4.14803C153.36 4.42003 152.998 4.55603 152.544 4.55603ZM170.651 25.806V14.008C170.651 11.22 169.234 9.82603 166.401 9.82603C165.653 9.82603 164.825 9.9507 163.919 10.2C163.035 10.4494 162.162 10.7894 161.301 11.22V25.806H159.261V8.80603L160.995 8.63603L161.131 9.82603C163.103 8.73803 165.029 8.19403 166.911 8.19403C168.747 8.19403 170.163 8.67003 171.161 9.62203C172.181 10.574 172.691 11.9227 172.691 13.668V25.806H170.651ZM176.827 23.562C178.527 24.31 180.284 24.684 182.097 24.684C185.157 24.684 186.687 23.494 186.687 21.114C186.687 20.3434 186.461 19.72 186.007 19.244C185.577 18.768 184.851 18.3714 183.831 18.054L181.247 17.238C179.797 16.7847 178.743 16.218 178.085 15.538C177.428 14.8354 177.099 13.9514 177.099 12.886C177.099 11.458 177.655 10.3247 178.765 9.48603C179.899 8.6247 181.417 8.19403 183.321 8.19403C184.931 8.19403 186.461 8.50003 187.911 9.11203V10.71C186.393 10.1207 184.897 9.82603 183.423 9.82603C182.086 9.82603 181.032 10.098 180.261 10.642C179.513 11.1634 179.139 11.8887 179.139 12.818C179.139 13.4754 179.343 14.008 179.751 14.416C180.182 14.8014 180.941 15.1754 182.029 15.538L184.715 16.422C186.098 16.8754 187.107 17.476 187.741 18.224C188.399 18.972 188.727 19.924 188.727 21.08C188.727 22.7574 188.161 24.0494 187.027 24.956C185.894 25.8627 184.296 26.316 182.233 26.316C180.329 26.316 178.618 25.9647 177.099 25.262L176.827 23.562ZM212.916 25.194C211.42 25.942 209.788 26.316 208.02 26.316C205.617 26.316 203.759 25.534 202.444 23.97C201.152 22.406 200.506 20.1734 200.506 17.272C200.506 14.3707 201.152 12.138 202.444 10.574C203.759 8.98736 205.617 8.19403 208.02 8.19403C209.72 8.19403 211.329 8.56803 212.848 9.31603V10.914C211.261 10.2114 209.72 9.86003 208.224 9.86003C206.388 9.86003 204.994 10.4834 204.042 11.73C203.113 12.9767 202.648 14.824 202.648 17.272C202.648 19.6974 203.113 21.5334 204.042 22.78C204.994 24.0267 206.388 24.65 208.224 24.65C209.765 24.65 211.329 24.2987 212.916 23.596V25.194ZM227.772 25.874L227.636 24.684C225.687 25.772 223.76 26.316 221.856 26.316C220.111 26.316 218.728 25.8627 217.708 24.956C216.688 24.0267 216.178 22.7574 216.178 21.148C216.178 19.448 216.745 18.156 217.878 17.272C219.034 16.3654 220.723 15.912 222.944 15.912C224.281 15.912 225.8 16.0707 227.5 16.388V14.076C227.5 11.2427 225.902 9.82603 222.706 9.82603C221.867 9.82603 220.949 9.93936 219.952 10.166C218.955 10.3927 218.037 10.6874 217.198 11.05V9.45203C218.014 9.0667 218.943 8.7607 219.986 8.53403C221.051 8.30736 222.06 8.19403 223.012 8.19403C225.143 8.19403 226.752 8.70403 227.84 9.72403C228.951 10.7214 229.506 12.172 229.506 14.076V25.704L227.772 25.874ZM222.332 24.684C223.148 24.684 224.009 24.5594 224.916 24.31C225.823 24.0607 226.684 23.7207 227.5 23.29V17.85C226.072 17.578 224.667 17.442 223.284 17.442C221.539 17.442 220.269 17.7367 219.476 18.326C218.683 18.9154 218.286 19.8447 218.286 21.114C218.286 23.494 219.635 24.684 222.332 24.684ZM233.638 23.562C235.338 24.31 237.095 24.684 238.908 24.684C241.968 24.684 243.498 23.494 243.498 21.114C243.498 20.3434 243.271 19.72 242.818 19.244C242.387 18.768 241.662 18.3714 240.642 18.054L238.058 17.238C236.607 16.7847 235.553 16.218 234.896 15.538C234.239 14.8354 233.91 13.9514 233.91 12.886C233.91 11.458 234.465 10.3247 235.576 9.48603C236.709 8.6247 238.228 8.19403 240.132 8.19403C241.741 8.19403 243.271 8.50003 244.722 9.11203V10.71C243.203 10.1207 241.707 9.82603 240.234 9.82603C238.897 9.82603 237.843 10.098 237.072 10.642C236.324 11.1634 235.95 11.8887 235.95 12.818C235.95 13.4754 236.154 14.008 236.562 14.416C236.993 14.8014 237.752 15.1754 238.84 15.538L241.526 16.422C242.909 16.8754 243.917 17.476 244.552 18.224C245.209 18.972 245.538 19.924 245.538 21.08C245.538 22.7574 244.971 24.0494 243.838 24.956C242.705 25.8627 241.107 26.316 239.044 26.316C237.14 26.316 235.429 25.9647 233.91 25.262L233.638 23.562ZM249.939 25.806V0.272029L251.979 2.81334e-05V9.75803C253.883 8.71536 255.753 8.19403 257.589 8.19403C259.425 8.19403 260.841 8.67003 261.839 9.62203C262.859 10.574 263.369 11.9227 263.369 13.668V25.806H261.329V14.008C261.329 11.22 259.912 9.82603 257.079 9.82603C256.331 9.82603 255.503 9.9507 254.597 10.2C253.713 10.4494 252.84 10.7894 251.979 11.22V25.806H249.939ZM4.25 51.724C5.11134 51.248 5.984 50.874 6.868 50.602C7.77467 50.33 8.61334 50.194 9.384 50.194C11.6053 50.194 13.3507 50.976 14.62 52.54C15.8893 54.0814 16.524 56.2234 16.524 58.966C16.524 61.9807 15.7987 64.2927 14.348 65.902C12.92 67.5114 10.846 68.316 8.126 68.316C6.19934 68.316 4.22734 67.9987 2.21 67.364V42.272L4.25 42V51.724ZM9.112 51.826C8.364 51.826 7.55934 51.9507 6.698 52.2C5.83667 52.4494 5.02067 52.7894 4.25 53.22V66.14C5.42867 66.5027 6.664 66.684 7.956 66.684C10.132 66.684 11.7413 66.0607 12.784 64.814C13.8493 63.5447 14.382 61.6067 14.382 59C14.382 56.6654 13.9287 54.886 13.022 53.662C12.138 52.438 10.8347 51.826 9.112 51.826ZM31.5746 67.874L31.4386 66.684C29.4892 67.772 27.5626 68.316 25.6586 68.316C23.9132 68.316 22.5306 67.8627 21.5106 66.956C20.4906 66.0267 19.9806 64.7574 19.9806 63.148C19.9806 61.448 20.5472 60.156 21.6806 59.272C22.8366 58.3654 24.5252 57.912 26.7466 57.912C28.0839 57.912 29.6026 58.0707 31.3026 58.388V56.076C31.3026 53.2427 29.7046 51.826 26.5086 51.826C25.6699 51.826 24.7519 51.9394 23.7546 52.166C22.7572 52.3927 21.8392 52.6874 21.0006 53.05V51.452C21.8166 51.0667 22.7459 50.7607 23.7886 50.534C24.8539 50.3074 25.8626 50.194 26.8146 50.194C28.9452 50.194 30.5546 50.704 31.6426 51.724C32.7532 52.7214 33.3086 54.172 33.3086 56.076V67.704L31.5746 67.874ZM26.1346 66.684C26.9506 66.684 27.8119 66.5594 28.7186 66.31C29.6252 66.0607 30.4866 65.7207 31.3026 65.29V59.85C29.8746 59.578 28.4692 59.442 27.0866 59.442C25.3412 59.442 24.0719 59.7367 23.2786 60.326C22.4852 60.9154 22.0886 61.8447 22.0886 63.114C22.0886 65.494 23.4372 66.684 26.1346 66.684ZM50.0546 67.194C48.5586 67.942 46.9266 68.316 45.1586 68.316C42.756 68.316 40.8973 67.534 39.5826 65.97C38.2906 64.406 37.6446 62.1734 37.6446 59.272C37.6446 56.3707 38.2906 54.138 39.5826 52.574C40.8973 50.9874 42.756 50.194 45.1586 50.194C46.8586 50.194 48.468 50.568 49.9866 51.316V52.914C48.4 52.2114 46.8586 51.86 45.3626 51.86C43.5266 51.86 42.1326 52.4834 41.1806 53.73C40.2513 54.9767 39.7866 56.824 39.7866 59.272C39.7866 61.6974 40.2513 63.5334 41.1806 64.78C42.1326 66.0267 43.5266 66.65 45.3626 66.65C46.904 66.65 48.468 66.2987 50.0546 65.596V67.194ZM54.4385 67.806V42.272L56.4785 42V58.286L64.5025 50.704H66.9165L58.5185 58.66L67.1885 67.806H64.6045L56.4785 59.17V67.806H54.4385ZM68.1392 72.94C68.7512 72.1467 69.2385 71.308 69.6012 70.424C69.9865 69.54 70.1905 68.7014 70.2132 67.908C69.8732 67.8174 69.6125 67.6474 69.4312 67.398C69.2499 67.126 69.1592 66.7974 69.1592 66.412C69.1592 65.936 69.3065 65.562 69.6012 65.29C69.8959 64.9954 70.2699 64.848 70.7232 64.848C71.2219 64.848 71.6072 65.0294 71.8792 65.392C72.1512 65.732 72.2872 66.208 72.2872 66.82C72.2872 67.8174 71.9585 68.9394 71.3012 70.186C70.6665 71.4554 69.8619 72.532 68.8872 73.416L68.1392 72.94ZM85.5831 67.806V50.874L87.6231 50.602V67.806H85.5831ZM86.6031 46.556C86.1497 46.556 85.7757 46.42 85.4811 46.148C85.2091 45.876 85.0731 45.502 85.0731 45.026C85.0731 44.55 85.2091 44.176 85.4811 43.904C85.7757 43.632 86.1497 43.496 86.6031 43.496C87.0564 43.496 87.4191 43.632 87.6911 43.904C87.9857 44.176 88.1331 44.55 88.1331 45.026C88.1331 45.502 87.9857 45.876 87.6911 46.148C87.4191 46.42 87.0564 46.556 86.6031 46.556ZM95.8354 52.268V63.148C95.8354 64.3267 96.0847 65.1994 96.5834 65.766C97.082 66.31 97.8527 66.582 98.8954 66.582C99.5754 66.582 100.346 66.4574 101.207 66.208V67.704C100.255 68.0214 99.3827 68.18 98.5894 68.18C97.0254 68.18 95.8354 67.7607 95.0194 66.922C94.2034 66.0607 93.7954 64.7914 93.7954 63.114V52.268H91.2114V50.806L93.8634 50.704L94.0674 46.42L95.8354 46.216V50.704H100.969V52.268H95.8354ZM113.241 75.388V50.806L114.975 50.636L115.111 51.826C117.038 50.738 118.806 50.194 120.415 50.194C122.637 50.194 124.382 50.976 125.651 52.54C126.921 54.0814 127.555 56.2234 127.555 58.966C127.555 61.9807 126.83 64.2927 125.379 65.902C123.951 67.5114 121.877 68.316 119.157 68.316C117.752 68.316 116.46 68.1347 115.281 67.772V75.116L113.241 75.388ZM120.143 51.826C119.395 51.826 118.591 51.9507 117.729 52.2C116.868 52.4494 116.052 52.7894 115.281 53.22V66.14C116.46 66.5027 117.695 66.684 118.987 66.684C121.163 66.684 122.773 66.0607 123.815 64.814C124.881 63.5447 125.413 61.6067 125.413 59C125.413 56.6654 124.96 54.886 124.053 53.662C123.169 52.438 121.866 51.826 120.143 51.826ZM138.492 68.316C136.021 68.316 134.151 67.5567 132.882 66.038C131.635 64.4967 131.012 62.23 131.012 59.238C131.012 56.2687 131.635 54.0247 132.882 52.506C134.151 50.9647 136.021 50.194 138.492 50.194C140.962 50.194 142.821 50.9647 144.068 52.506C145.337 54.0247 145.972 56.2687 145.972 59.238C145.972 62.23 145.337 64.4967 144.068 66.038C142.821 67.5567 140.962 68.316 138.492 68.316ZM138.492 66.684C140.35 66.684 141.699 66.0947 142.538 64.916C143.399 63.7147 143.83 61.822 143.83 59.238C143.83 56.6767 143.399 54.8067 142.538 53.628C141.699 52.4267 140.35 51.826 138.492 51.826C136.633 51.826 135.273 52.4267 134.412 53.628C133.573 54.8067 133.154 56.6767 133.154 59.238C133.154 61.822 133.573 63.7147 134.412 64.916C135.273 66.0947 136.633 66.684 138.492 66.684ZM152.364 50.704V62.502C152.364 65.29 153.735 66.684 156.478 66.684C157.226 66.684 158.042 66.5594 158.926 66.31C159.832 66.0607 160.716 65.7207 161.578 65.29V50.704H163.618V67.704L161.884 67.874L161.748 66.684C159.776 67.772 157.849 68.316 155.968 68.316C154.177 68.316 152.783 67.84 151.786 66.888C150.811 65.9134 150.324 64.5647 150.324 62.842V50.704H152.364ZM169.321 67.806V50.806L171.055 50.636L171.225 52.166C172.744 50.9194 174.365 50.296 176.087 50.296C176.699 50.296 177.187 50.364 177.549 50.5V52.166C176.96 52.03 176.439 51.962 175.985 51.962C174.376 51.962 172.835 52.54 171.361 53.696V67.806H169.321ZM179.683 65.562C181.383 66.31 183.139 66.684 184.953 66.684C188.013 66.684 189.543 65.494 189.543 63.114C189.543 62.3434 189.316 61.72 188.863 61.244C188.432 60.768 187.707 60.3714 186.687 60.054L184.103 59.238C182.652 58.7847 181.598 58.218 180.941 57.538C180.283 56.8354 179.955 55.9514 179.955 54.886C179.955 53.458 180.51 52.3247 181.621 51.486C182.754 50.6247 184.273 50.194 186.177 50.194C187.786 50.194 189.316 50.5 190.767 51.112V52.71C189.248 52.1207 187.752 51.826 186.279 51.826C184.941 51.826 183.887 52.098 183.117 52.642C182.369 53.1634 181.995 53.8887 181.995 54.818C181.995 55.4754 182.199 56.008 182.607 56.416C183.037 56.8014 183.797 57.1754 184.885 57.538L187.571 58.422C188.953 58.8754 189.962 59.476 190.597 60.224C191.254 60.972 191.583 61.924 191.583 63.08C191.583 64.7574 191.016 66.0494 189.883 66.956C188.749 67.8627 187.151 68.316 185.089 68.316C183.185 68.316 181.473 67.9647 179.955 67.262L179.683 65.562ZM197.275 61.006L196.969 44.006L199.145 43.734L198.839 61.006H197.275ZM198.057 67.976C197.604 67.976 197.23 67.84 196.935 67.568C196.641 67.2734 196.493 66.888 196.493 66.412C196.493 65.936 196.641 65.562 196.935 65.29C197.23 64.9954 197.604 64.848 198.057 64.848C198.511 64.848 198.885 64.9954 199.179 65.29C199.474 65.562 199.621 65.936 199.621 66.412C199.621 66.888 199.474 67.2734 199.179 67.568C198.885 67.84 198.511 67.976 198.057 67.976Z" fill="#013D5B"/>
</svg>
