<svg width="141" height="68" viewBox="0 0 141 68" fill="none" xmlns="http://www.w3.org/2000/svg">
<path d="M110.622 27.5635C110.31 27.5635 110.056 27.3086 110.056 26.9971C110.056 26.6856 110.31 26.4308 110.622 26.4308C110.933 26.4308 111.188 26.6856 111.188 26.9971C111.188 27.3086 110.933 27.5635 110.622 27.5635Z" fill="#00AEEF"/>
<path d="M100.043 9.42943L99.7143 11.2417H46.2921C45.1651 10.698 43.9135 10.4149 42.6619 10.4149C40.4192 10.4149 38.3124 11.287 36.721 12.8784C36.5341 13.0653 36.3473 13.2692 36.1774 13.4731C35.8319 13.8865 35.5317 14.3395 35.2712 14.8096C35.141 15.0475 35.022 15.2966 34.9144 15.5458C34.4784 16.5822 34.2518 17.6809 34.2518 18.8136C34.2518 19.9462 34.4727 21.0449 34.9144 22.0813C34.9597 22.1946 35.9735 24.7034 36.9759 27.184H31.5957L28.2883 45.6918H42.4693L42.7978 43.8851H104.896L110.826 38.0463L112.666 27.133L111.341 25.7512L114.212 9.42377H100.037L100.043 9.42943Z" fill="#C7CFDA"/>
<path d="M100.705 10.228L100.377 12.0402H46.1052C45.0404 11.4966 43.8568 11.2134 42.6618 11.2134C40.6344 11.2134 38.7258 12.0063 37.2873 13.4447C37.1174 13.6146 36.9532 13.7959 36.7946 13.9828C36.4831 14.3565 36.2056 14.77 35.9734 15.1947C35.8545 15.4099 35.7469 15.6364 35.6506 15.8573C35.2542 16.7974 35.0503 17.7942 35.0503 18.8192C35.0503 19.8443 35.2542 20.8411 35.6506 21.7755C35.7073 21.9058 37.1627 25.5246 38.1538 27.9882H32.264L29.2397 44.9046H41.8067L42.1012 43.2452H104.466L110.101 37.6102L111.817 27.4049L110.492 26.023L113.267 10.228H100.705Z" fill="black"/>
<path d="M102.455 38.975L100.564 40.9062H102.807H103.639L105.519 38.975H102.937H102.455Z" fill="#7C8A97"/>
<path d="M84.5762 38.975H83.7041L81.7672 40.9062H82.2373H83.874L85.7938 38.975H84.5762Z" fill="#7C8A97"/>
<path d="M57.0581 38.975H56.1916L54.2548 40.9062H55.1552H56.8882L58.8081 38.975H57.0581Z" fill="#7C8A97"/>
<path d="M63.9051 38.975H63.4917L61.5548 40.9062H61.9229H63.7352L65.6551 38.975H63.9051Z" fill="#7C8A97"/>
<path d="M60.8468 38.975H60.0653L58.1284 40.9062H58.5079H59.9803H60.2635L62.1834 38.975H60.8468Z" fill="#7C8A97"/>
<path d="M71.6751 38.975H71.2334L69.2965 40.9062H72.8757H73.9631L75.883 38.975H71.9469H71.6751Z" fill="#7C8A97"/>
<path d="M68.3225 38.975H67.3597L65.4229 40.9062H66.8613H67.7505H68.2036L70.1234 38.975H68.3225Z" fill="#7C8A97"/>
<path d="M79.6039 38.975H78.879L76.9478 40.9062H79.4679L81.3482 38.9694C81.3198 38.9694 81.2915 38.9694 81.2632 38.9694H79.6039V38.975Z" fill="#7C8A97"/>
<path d="M87.2436 38.9694H87.0681L85.1765 40.9062H90.1886L92.0688 38.9694H87.7194H87.2436Z" fill="#7C8A97"/>
<path d="M94.9118 38.975L93.0203 40.9062H95.2629H96.0954L97.9757 38.975H95.3932H94.9118Z" fill="#7C8A97"/>
<path d="M53.7224 38.975H52.7483L50.8114 40.9062H51.3777H53.0144L54.9343 38.975H53.7224Z" fill="#7C8A97"/>
<path d="M77.2705 29.1322L76.1605 35.4468C76.1549 35.4921 76.1379 35.5374 76.1209 35.5714C76.0643 35.679 75.968 35.7413 75.8151 35.7413H74.4389L75.6622 28.849H77.0553C77.1686 28.849 77.2309 28.8886 77.2592 28.9566C77.2819 29.0019 77.2875 29.0585 77.2762 29.1322M78.3466 36.6078L79.1791 31.8846L79.8644 27.9938L78.7373 26.8215H73.6007L71.6752 37.7914H76.8005L77.5764 37.2024L78.3522 36.6134L78.3466 36.6078Z" fill="white"/>
<path d="M82.8772 31.8733L83.8966 37.2478C83.9306 37.4177 83.9986 37.5536 84.1005 37.6442C84.2024 37.7348 84.3327 37.7801 84.4913 37.7801H86.2469L88.1724 26.8102H85.9297L84.8934 32.7341L83.7664 26.8102H81.5237L79.5981 37.7801H81.2575C81.62 37.7801 81.8691 37.6046 81.9314 37.2478L82.8716 31.8733H82.8772Z" fill="white"/>
<path d="M100.677 36.6531L100.734 36.6078L101.374 33.0173L101.487 32.3773L100.36 31.205H97.6982L98.0607 29.1549C98.0947 28.968 98.2023 28.8547 98.4062 28.8547H99.3633C99.5048 28.8547 99.5728 28.917 99.5898 29.019C99.5898 29.0529 99.5898 29.0926 99.5898 29.1379L99.5048 29.6532L99.4199 30.1686H101.238C101.6 30.1686 101.849 29.993 101.912 29.6363L102.195 27.9882L101.447 27.2124L101.068 26.8159H97.4321L96.7638 27.3256L95.8803 27.9939L95.1611 32.0828L96.2881 33.2438H98.9498L98.5591 35.4525C98.5534 35.4978 98.5364 35.5431 98.5194 35.5771C98.4685 35.6904 98.3665 35.747 98.2136 35.747H97.1036C96.9167 35.747 96.8544 35.6507 96.8827 35.4638L97.0073 34.7446C97.0243 34.654 97.0243 34.5747 97.013 34.5067C96.9847 34.3085 96.8374 34.2066 96.5656 34.2066H94.7023L94.2776 36.6022L95.4046 37.7745H99.199L99.9749 37.1855L100.694 36.6418L100.677 36.6531Z" fill="white"/>
<path d="M108.679 26.8159H105.044L104.375 27.32L103.492 27.9882L102.773 32.0772L103.9 33.2381H106.561L106.171 35.4468C106.165 35.4921 106.148 35.5375 106.131 35.5714C106.074 35.679 105.978 35.7413 105.825 35.7413H104.715C104.573 35.7413 104.505 35.6904 104.489 35.5828C104.489 35.5488 104.489 35.5091 104.489 35.4582L104.613 34.7389C104.658 34.4671 104.59 34.3028 104.404 34.2405C104.341 34.2179 104.262 34.2066 104.177 34.2066H102.314L101.889 36.6022L103.016 37.7745H106.81L108.362 36.6022L109.115 32.3716L107.988 31.1993H105.327L105.689 29.1492C105.7 29.0699 105.734 29.002 105.78 28.9567C105.785 28.951 105.791 28.9397 105.797 28.934C105.853 28.883 105.933 28.8547 106.035 28.8547H106.992C107.105 28.8547 107.167 28.8944 107.196 28.9623C107.218 29.0076 107.224 29.0643 107.213 29.1322L107.128 29.6476L107.043 30.1629H108.861C109.223 30.1629 109.472 29.993 109.535 29.6306L109.818 27.9882L109.772 27.9429L108.685 26.8159H108.679Z" fill="white"/>
<path d="M67.4447 33.8951L68.9001 28.7075L68.5717 33.8951H67.4447ZM70.7804 37.7801L70.8313 35.6903L71.0295 27.4219C71.0295 27.1274 70.8993 26.9292 70.6671 26.8499C70.5878 26.8216 70.5029 26.8102 70.4066 26.8102H67.4447L65.672 32.2923L63.8994 37.7745H65.8419C65.8419 37.7745 65.8589 37.7745 65.8703 37.7745C66.0345 37.7745 66.1704 37.7291 66.2723 37.6499C66.38 37.5649 66.4536 37.4347 66.4989 37.2648L66.9066 35.8263H68.4414L68.3168 37.7858H70.7747L70.7804 37.7801Z" fill="white"/>
<path d="M93.2695 37.2874C93.2695 37.2874 93.2808 37.2648 93.2808 37.2534L93.5469 35.747H90.4774L90.6983 34.4954L90.9192 33.2438H92.6408C92.822 33.2438 92.9636 33.1985 93.0712 33.1079C93.1788 33.0173 93.2581 32.887 93.3148 32.7114L93.8018 31.205H91.2816L91.6214 29.2625L91.6894 28.8547H94.102C94.2719 28.8547 94.4191 28.8151 94.5324 28.7301C94.657 28.6395 94.7419 28.5092 94.7759 28.3167L94.9685 27.1784L95.0307 26.8102H89.6562L88.6935 32.2923L87.7307 37.7745H92.6182C92.7371 37.7745 92.839 37.7461 92.9353 37.7065C93.1109 37.6329 93.2355 37.4913 93.2808 37.2761" fill="white"/>
<path d="M62.4326 37.7801C62.5232 37.7801 62.6082 37.7688 62.6818 37.7461C62.8291 37.7008 62.948 37.6159 63.0273 37.4799C63.0669 37.412 63.0952 37.3327 63.1066 37.2421L64.9415 26.8046H61.4925L60.2183 30.667L58.944 34.5294L59.1309 27.3369C59.1309 27.167 59.0913 27.0311 59.0063 26.9405C58.9214 26.8499 58.7911 26.8046 58.6099 26.8046H55.6479L53.7224 37.7744H55.3025C55.4214 37.7744 55.5234 37.7461 55.6196 37.7065C55.8065 37.6272 55.9368 37.4799 55.9764 37.2364L57.262 29.9194L57.0581 37.7688H59.0799C59.1762 37.7688 59.2668 37.7574 59.3404 37.7348C59.5726 37.6668 59.7199 37.5026 59.8162 37.2194L62.2287 29.9194L60.8525 37.7688H62.4326V37.7801Z" fill="white"/>
<path d="M51.2814 35.8489H49.1577L49.8203 32.1734H41.6594L41.9879 30.3668H34.1442L33.912 31.709H40.3795L39.9661 33.98H33.5099L33.2777 35.3222H41.0874L41.4159 33.5156H48.2176L47.1302 39.5188H40.2889L40.6174 37.7122H32.8586L32.6207 39.0544H39.009L38.6012 41.3254H32.2243L31.9865 42.6676H39.7169L40.0454 40.861H48.2459L48.9142 37.1855H51.0492L51.2814 35.8489Z" fill="#0072BC"/>
<path d="M102.269 14.4188H94.068L93.4054 18.0887H91.6554L91.4232 19.4309H93.1619L92.4936 23.1007H100.66L100.332 24.9073H108.17L108.408 23.5708H101.934L102.348 21.2941H108.804L109.042 19.9576H101.226L100.904 21.7642H94.102L95.1893 15.7554H102.025L101.702 17.562H109.461L109.699 16.2254H103.305L103.718 13.9488H110.095L110.333 12.6122H102.597L102.269 14.4188Z" fill="#0072BC"/>
<path d="M75.9226 25.1962H79.4792L81.0309 24.0238L81.4387 21.7075C81.4727 21.5376 81.45 21.4017 81.3764 21.3111C81.3424 21.2658 81.2914 21.2318 81.2291 21.2092C81.1668 21.1865 81.0875 21.1752 81.0026 21.1752H79.1394L78.8392 22.8685C78.8335 22.9025 78.8222 22.9365 78.8109 22.9648C78.7599 23.0894 78.658 23.163 78.4937 23.163H77.6159C77.5196 23.163 77.4574 23.1347 77.4234 23.0894C77.3894 23.0384 77.3781 22.9705 77.3951 22.8855L78.5051 16.5709C78.5221 16.4746 78.556 16.401 78.6127 16.35C78.6693 16.2991 78.7486 16.2707 78.8505 16.2707H79.7283C79.9152 16.2707 79.9775 16.3783 79.9492 16.5539L79.666 18.185H81.484C81.6652 18.185 81.8181 18.1396 81.9314 18.0547C81.988 18.0094 82.039 17.9584 82.073 17.8905C82.1126 17.8225 82.1409 17.7432 82.1522 17.6526L82.543 15.4099L81.416 14.2376H77.8594L76.3077 15.4099L74.7899 24.0295L75.9169 25.2018L75.9226 25.1962Z" fill="white"/>
<path d="M50.3527 25.1962C50.5339 25.1962 50.6868 25.1509 50.8001 25.0659C50.9133 24.981 50.9926 24.8451 51.0266 24.6638L52.3122 17.3468L52.1083 25.1962H54.1301C54.4246 25.1962 54.6228 25.0999 54.7531 24.8904C54.7984 24.8224 54.8323 24.7431 54.8663 24.6469L57.2789 17.3468L55.9027 25.1962H57.4828C57.664 25.1962 57.8169 25.1509 57.9302 25.0659C58.0435 24.981 58.1227 24.8451 58.1567 24.6638L59.9916 14.2263H56.5427L53.9885 21.9511L54.1754 14.7587C54.1754 14.4132 54.0168 14.2263 53.66 14.2263H50.6981L48.7726 25.1962H50.3527Z" fill="white"/>
<path d="M63.9503 16.1235L63.6218 21.3111H62.4948L63.9503 16.1235ZM59.6518 23.0385L58.9552 25.1962H60.8977C60.9883 25.1962 61.0676 25.1849 61.1412 25.1622C61.2828 25.1169 61.3904 25.0319 61.4641 24.9017C61.5037 24.8394 61.532 24.7601 61.5547 24.6752L61.9624 23.231H63.4972L63.3726 25.1905H65.8305L66.0797 14.8323C66.0797 14.736 66.0627 14.6454 66.0344 14.5718C66.006 14.4981 65.9664 14.4302 65.9098 14.3792C65.8531 14.3282 65.7908 14.2886 65.7116 14.2603C65.6323 14.232 65.5473 14.2206 65.451 14.2206H62.4891L60.7165 19.7027L59.6405 23.0328L59.6518 23.0385Z" fill="white"/>
<path d="M70.7067 16.2651H72.0999C72.1961 16.2651 72.2584 16.2934 72.2924 16.3387C72.3264 16.3897 72.3377 16.4577 72.3207 16.5426L71.913 18.8929C71.8847 19.0798 71.7714 19.1931 71.5675 19.1931H70.1913L70.7067 16.2651ZM68.5433 25.1962C68.6339 25.1962 68.7189 25.1849 68.7925 25.1622C68.8661 25.1396 68.9341 25.1056 68.9907 25.0659C69.104 24.981 69.1833 24.8451 69.2172 24.6638L69.8289 21.2319H70.6274L70.9899 23.214L71.3523 25.1962H73.3401C73.5327 25.1962 73.6629 25.1112 73.7252 24.981C73.7649 24.896 73.7875 24.7941 73.7649 24.6638L73.0287 20.8864L73.2778 20.6938L74.1104 20.0539L74.9259 15.3986L73.7989 14.2263H68.6622L66.7367 25.1962H68.5546H68.5433Z" fill="white"/>
<path d="M82.0616 25.1962H83.8796C84.242 25.1962 84.4912 25.0263 84.5535 24.6638L84.831 23.0724L85.2275 20.8071H86.8868L86.1166 25.1962H87.9345C88.297 25.1962 88.5462 25.0263 88.6085 24.6638L90.4434 14.2263H88.0478L87.657 16.4577L87.2662 18.689H85.6069L86.3884 14.2263H83.9928L83.0301 19.7084L82.0673 25.1905L82.0616 25.1962Z" fill="white"/>
<path d="M51.7063 26.2722L48.3593 29.7269H50.7379L52.3632 28.0618L54.1075 26.2722H52.3179H51.7063Z" fill="#7C8A97"/>
<path d="M44.5477 29.7269H46.8017L50.1658 26.2722H48.9821H47.9004L44.5477 29.7269Z" fill="#7C8A97"/>
<path d="M110.39 28.4583V28.311H110.486C110.537 28.311 110.588 28.3224 110.588 28.379C110.588 28.4526 110.531 28.4583 110.469 28.4583H110.384H110.39ZM110.39 28.5206H110.475L110.599 28.7301H110.679L110.543 28.5206C110.611 28.5093 110.667 28.4753 110.667 28.3903C110.667 28.2941 110.611 28.2544 110.497 28.2544H110.316V28.7358H110.39V28.5262V28.5206ZM110.475 28.9057C110.701 28.9057 110.894 28.7301 110.894 28.4866C110.894 28.2431 110.701 28.0732 110.475 28.0732C110.248 28.0732 110.05 28.2487 110.05 28.4866C110.05 28.7245 110.242 28.9057 110.475 28.9057ZM110.141 28.4866C110.141 28.2884 110.288 28.1411 110.48 28.1411C110.673 28.1411 110.82 28.2884 110.82 28.4866C110.82 28.6848 110.673 28.8377 110.48 28.8377C110.288 28.8377 110.141 28.6905 110.141 28.4866Z" fill="white"/>
<path d="M48.0421 18.8023C48.0421 21.7869 45.6182 24.2108 42.6336 24.2108C39.649 24.2108 37.2251 21.7869 37.2251 18.8023C37.2251 15.8177 39.649 13.3938 42.6336 13.3938C45.6182 13.3938 48.0421 15.8177 48.0421 18.8023Z" fill="white"/>
<path d="M44.0098 20.3484H44.5818L44.5534 19.5272L44.0098 20.3484ZM46.1788 20.3371H46.7452L46.7168 19.5159L46.1732 20.3371H46.1788ZM46.7961 21.3281H47.4191C46.513 23.0441 44.712 24.2164 42.6336 24.2164C39.649 24.2164 37.2251 21.7925 37.2251 18.808C37.2251 15.8234 39.649 13.3995 42.6336 13.3995C45.6182 13.3995 48.0421 15.8234 48.0421 18.808C48.0421 19.6065 47.8665 20.3654 47.555 21.0506L47.3964 18.774H45.9919L45.8277 19.3573H46.0486L45.3576 20.456L45.2614 18.774H43.8399L43.6756 19.3573H43.8908L42.9621 20.7731H42.1975C42.1182 20.7731 41.8067 20.6938 41.8067 20.3144C41.8067 19.935 42.1749 19.3743 42.543 19.3743H42.7015C42.6732 19.4706 42.6223 19.6688 42.6223 19.6688H43.3019L43.5454 18.7796H42.4977C41.8464 18.7796 41.314 19.244 41.1498 19.7254L41.4216 18.7796H40.4872L40.3229 19.363H40.5665L40.3229 20.2181L39.7113 18.7796H38.8391L38.6749 19.363H38.9128L38.3691 21.3395H39.0657C39.0657 21.3395 39.3375 20.3597 39.4055 20.1049C39.5074 20.3427 39.9152 21.3395 39.9152 21.3395H40.6911L41.0478 20.0822C41.0139 20.2691 41.0139 20.4673 41.0478 20.6599C41.1158 21.0733 41.5179 21.3395 41.954 21.3395H43.3641L43.6077 20.9714H44.6044L44.6271 21.3395H45.5049L45.7314 20.9714H46.7508L46.7905 21.3395L46.7961 21.3281Z" fill="#00A3DE"/>
<path d="M48.3875 21.7642C48.3875 21.9511 48.2346 22.1097 48.042 22.1097C47.8495 22.1097 47.6966 21.9568 47.6966 21.7642C47.6966 21.5716 47.8495 21.4187 48.042 21.4187C48.2346 21.4187 48.3875 21.5716 48.3875 21.7642ZM48.042 21.3281C47.8042 21.3281 47.606 21.5263 47.606 21.7642C47.606 22.0021 47.8042 22.2003 48.042 22.2003C48.2799 22.2003 48.4781 22.0021 48.4781 21.7642C48.4781 21.5263 48.2856 21.3281 48.042 21.3281Z" fill="#00A3DE"/>
<path d="M48.1553 21.6736C48.1553 21.7132 48.1156 21.7472 48.076 21.7472H47.9627V21.6H48.076C48.1156 21.6 48.1553 21.6283 48.1553 21.6736ZM48.2516 21.6736C48.2516 21.5773 48.1609 21.515 48.076 21.515H47.8665V22.0247H47.9627V21.8322H48.025L48.1496 22.0247H48.2629L48.1326 21.8265C48.1723 21.8152 48.2516 21.7755 48.2516 21.6736Z" fill="#00A3DE"/>
<path d="M10.3639 57.7377H11.7401L11.9667 57.9585L11.7401 59.2215L11.5136 59.448H10.0638L10.3639 57.7377ZM8.59131 61.9116H9.63336L9.93352 60.1956H12.0573L12.7312 59.5216L13.0597 57.6924L12.3857 57.0184H9.46346L8.59697 61.9116H8.59131Z" fill="black"/>
<path d="M14.8549 57.7377H16.2254L16.4463 57.9585L16.2594 58.9893L16.0272 59.2328H14.5944L14.8549 57.7433V57.7377ZM15.6364 59.969L15.9989 61.9116H17.0919L17.2278 61.1527H16.837L16.5879 59.8388L17.2731 59.1535L17.5336 57.6924L16.8597 57.0184H13.9374L13.0709 61.9116H14.113L14.4528 59.969H15.6307H15.6364Z" fill="black"/>
<path d="M19.0967 61.13L18.8475 60.8808L19.3459 58.0435L19.6008 57.7943H20.8297L21.0789 58.0435L20.5805 60.8752L20.3257 61.13H19.0967ZM18.4398 61.9116H20.875L21.5603 61.2263L22.1776 57.7094L21.4923 57.0241H19.0571L18.3718 57.7094L17.7545 61.2263L18.4398 61.9116Z" fill="black"/>
<path d="M23.0781 61.9115H25.417L26.1079 61.2206L26.8555 57.0128H25.8135L25.1338 60.8525L24.8847 61.1073H23.7293L23.4858 60.8582L24.1711 57.0128H23.129L22.3815 61.2206L23.0781 61.9115Z" fill="black"/>
<path d="M28.0618 61.13L28.6507 57.7943H30.0213L30.2705 58.0435L29.7664 60.8752L29.5172 61.13H28.0618ZM26.8838 61.9116H30.0553L30.7405 61.2263L31.3635 57.7094L30.6782 57.0241H27.7503L26.8838 61.9172V61.9116Z" fill="black"/>
<path d="M35.0561 57.7377H36.4323L36.6588 57.9585L36.4323 59.2215L36.2057 59.448H34.7559L35.0561 57.7377ZM33.2834 61.9116H34.3255L34.6257 60.1956H36.7494L37.4233 59.5216L37.7518 57.6924L37.0779 57.0184H34.1556L33.2891 61.9116H33.2834Z" fill="black"/>
<path d="M39.9378 57.6471L40.1134 60.003H38.9411L39.9322 57.6471H39.9378ZM37.0948 61.9116H38.1369L38.607 60.7959H40.1814L40.2663 61.9116H41.3254L40.8157 57.0184H39.2922L37.1005 61.9116H37.0948Z" fill="black"/>
<path d="M43.6642 57.7377H45.0348L45.2556 57.9585L45.0688 58.9893L44.8366 59.2328H43.4037L43.6642 57.7433V57.7377ZM44.4401 59.969L44.8026 61.9116H45.8956L46.0315 61.1527H45.6407L45.3916 59.8388L46.0768 59.1535L46.3373 57.6924L45.6634 57.0184H42.7411L41.8746 61.9116H42.9167L43.2565 59.969H44.4345H44.4401Z" fill="black"/>
<path d="M50.5056 57.8453L50.6472 57.0128H46.9774L46.8245 57.8453H48.161L47.4418 61.9115H48.4725L49.1861 57.8453H50.5056Z" fill="black"/>
<path d="M50.3923 61.9115H51.3155L51.9214 58.5249L53.0428 61.9115H54.1018L54.9683 57.0128H54.0452L53.4505 60.3258L52.3405 57.0128H51.2588L50.3923 61.9115Z" fill="black"/>
<path d="M55.0646 61.9115H58.2191L58.3606 61.13H56.2425L56.4691 59.8161H58.3833L58.5192 59.0346H56.6107L56.8259 57.7943H58.9213L59.0629 57.0128H55.9254L55.0646 61.9115Z" fill="black"/>
<path d="M60.8242 57.7377H62.1947L62.4156 57.9585L62.2287 58.9893L61.9965 59.2328H60.5636L60.8242 57.7433V57.7377ZM61.6 59.969L61.9625 61.9116H63.0555L63.1914 61.1527H62.8007L62.5515 59.8388L63.2367 59.1535L63.4973 57.6924L62.8233 57.0184H59.901L59.0345 61.9116H60.0766L60.4164 59.969H61.5944H61.6Z" fill="black"/>
<path d="M66.8217 61.13L66.5725 60.8808L67.0709 58.0435L67.3257 57.7943H68.5547L68.8039 58.0435L68.3055 60.8752L68.0506 61.13H66.8217ZM66.1648 61.9116H68.6L69.2852 61.2263L69.9026 57.7094L69.2173 57.0241H66.7821L66.0968 57.7094L65.4795 61.2263L66.1648 61.9116Z" fill="black"/>
<path d="M70.0554 61.9115H71.1031L71.4486 59.918H73.2948L73.4251 59.1422H71.5845L71.8224 57.7943H73.8442L73.9858 57.0128H70.9219L70.0554 61.9115Z" fill="black"/>
<path d="M75.5885 61.9115H76.4776L77.2252 57.715L77.548 61.9115H78.7713L80.5949 57.7263L79.853 61.9115H80.8497L81.7106 57.0128H80.0739L78.3352 61.0167L78.0407 57.0128H76.455L75.5885 61.9115Z" fill="black"/>
<path d="M84.2647 57.6471L84.4403 60.003H83.268L84.2591 57.6471H84.2647ZM81.4218 61.9116H82.4638L82.9339 60.7959H84.5083L84.5932 61.9116H85.6523L85.1426 57.0184H83.6191L81.4274 61.9116H81.4218Z" fill="black"/>
<path d="M87.9912 57.7377H89.3617L89.5826 57.9585L89.3957 58.9893L89.1635 59.2328H87.7307L87.9912 57.7433V57.7377ZM88.7728 59.969L89.1352 61.9116H90.2282L90.3642 61.1527H89.9734L89.7242 59.8388L90.4095 59.1535L90.67 57.6924L89.996 57.0184H87.0738L86.2073 61.9116H87.2493L87.5891 59.969H88.7671H88.7728Z" fill="black"/>
<path d="M91.5761 61.9115H93.915L94.589 61.2376L94.7702 60.2239H93.7281L93.6092 60.8865L93.3657 61.13H92.233L91.9838 60.8808L92.4822 58.0435L92.737 57.7943H93.8924L94.1189 58.0152L94 58.6834H95.042L95.2176 57.681L94.555 57.0128H92.1877L91.5024 57.7037L90.8851 61.2206L91.5761 61.9115Z" fill="black"/>
<path d="M97.9416 61.9115H98.9837L99.8445 57.0128H98.8081L98.4457 59.0516H96.809L97.1714 57.0128H96.135L95.2686 61.9115H96.3049L96.6447 59.969H98.2814L97.9416 61.9115Z" fill="black"/>
<path d="M101.697 61.9115H102.58L103.328 57.715L103.656 61.9115H104.874L106.697 57.7263L105.961 61.9115H106.952L107.819 57.0128H106.182L104.443 61.0167L104.143 57.0128H102.563L101.697 61.9115Z" fill="black"/>
<path d="M110.373 57.6471L110.548 60.003H109.376L110.367 57.6471H110.373ZM107.53 61.9116H108.572L109.042 60.7959H110.616L110.701 61.9116H111.76L111.25 57.0184H109.727L107.535 61.9116H107.53Z" fill="black"/>
<path d="M113.493 61.13L114.082 57.7943H115.453L115.702 58.0435L115.198 60.8752L114.949 61.13H113.493ZM112.315 61.9116H115.487L116.172 61.2263L116.795 57.7094L116.11 57.0241H113.182L112.315 61.9172V61.9116Z" fill="black"/>
<path d="M116.948 61.9115H117.871L118.471 58.5249L119.593 61.9115H120.657L121.524 57.0128H120.601L120.006 60.3258L118.89 57.0128H117.814L116.948 61.9115Z" fill="black"/>
<path d="M121.614 61.9115H124.769L124.916 61.13H122.792L123.019 59.8161H124.933L125.069 59.0346H123.16L123.381 57.7943H125.471L125.618 57.0128H122.481L121.614 61.9115Z" fill="black"/>
<path d="M126.185 61.9115H128.541L129.203 61.2433L129.475 59.7368L128.909 59.1705L127.136 58.8817L127.04 58.791L127.182 57.9642L127.363 57.783H128.552L128.728 57.9585L128.637 58.4682H129.673L129.821 57.6527L129.175 57.0128H126.859L126.19 57.681L125.936 59.1308L126.502 59.6915L128.275 59.9803L128.376 60.071L128.218 60.9544L128.037 61.1357H126.802L126.638 60.9714L126.728 60.4561H125.686L125.545 61.2716L126.185 61.9115Z" fill="black"/>
<path d="M130.495 61.9115H132.85L133.519 61.2433L133.785 59.7368L133.219 59.1705L131.446 58.8817L131.355 58.791L131.497 57.9642L131.672 57.783H132.867L133.043 57.9585L132.952 58.4682H133.989L134.136 57.6527L133.49 57.0128H131.168L130.506 57.681L130.245 59.1308L130.817 59.6915L132.59 59.9803L132.686 60.071L132.533 60.9544L132.346 61.1357H131.112L130.948 60.9714L131.044 60.4561H130.002L129.86 61.2716L130.495 61.9115Z" fill="black"/>
</svg>
