<svg width="47" height="29" viewBox="0 0 47 29" fill="none" xmlns="http://www.w3.org/2000/svg">
<g clip-path="url(#clip0_6900_3104)">
<path fill-rule="evenodd" clip-rule="evenodd" d="M10.9556 10.5259H17.2926C22.9852 10.5259 26.637 14.0704 26.637 19.6555C26.637 25.2407 22.663 28.7852 16.2185 28.7852H11.063V10.5259H10.9556ZM16.863 14.7148C16.6482 14.7148 16.3259 14.7148 15.8963 14.7148V24.5963C19.1185 24.5963 21.5889 23.3074 21.5889 19.5481C21.5889 15.7889 19.5482 14.7148 16.863 14.7148Z" fill="#013D5B"/>
<path fill-rule="evenodd" clip-rule="evenodd" d="M46.1852 15.7889V10.9555C44.8963 10.4185 43.5 10.0963 42.2111 10.0963C36.9482 10.0963 32.7593 14.1778 32.7593 19.5481C32.7593 24.9185 36.9482 28.7852 42.1037 28.7852C47.2593 28.7852 45.2185 28.3555 46.1852 27.6037V22.7704C44.6815 23.737 43.7148 24.0592 42.3185 24.0592C39.6334 24.0592 37.5926 22.1259 37.5926 19.2259C37.5926 16.3259 39.6334 14.2852 42.3185 14.2852C45.0037 14.2852 44.7889 14.8222 46.1852 15.6815V15.7889Z" fill="#013D5B"/>
<path fill-rule="evenodd" clip-rule="evenodd" d="M0 6.87407V7.73333H3.54444V6.87407C2.57778 6.87407 2.36296 6.65926 2.36296 6.01482V1.61111L4.4037 7.73333H5.26296L7.51852 1.61111V5.90741C7.51852 6.48025 7.12469 6.80247 6.33704 6.87407V7.73333H10.4185V6.87407C9.23704 6.87407 9.23704 6.76667 9.23704 6.12222V1.82593C9.23704 1.18148 9.23704 0.859259 10.4185 0.859259V0H6.98148L5.15556 4.94074L3.54444 0H0V0.859259C0.966667 0.859259 1.18148 0.859259 1.18148 1.71852V5.8C1.18148 6.55185 1.18148 6.76667 0 6.76667V6.87407Z" fill="#013D5B"/>
<path fill-rule="evenodd" clip-rule="evenodd" d="M16.9702 6.8741V7.73336H20.1924V6.8741C19.4406 6.8741 19.4406 6.76669 19.4406 5.69262V4.72595C19.4406 3.86669 19.8702 3.11484 20.6221 3.11484C21.3739 3.11484 21.4813 3.54447 21.4813 4.18891V6.12224C21.4813 6.76669 21.4813 6.8741 20.6221 6.8741V7.73336H23.5221V6.8741C22.8776 6.8741 22.7702 6.8741 22.7702 6.12224V4.72595C22.7702 3.75928 23.1998 3.00743 24.0591 3.00743C24.9183 3.00743 24.8109 3.43706 24.8109 4.18891V6.22965C24.8109 6.76669 24.8109 6.8741 24.0591 6.8741V7.73336H27.2813V6.8741C26.3146 6.8741 26.2072 6.8741 26.2072 6.33706V4.0815C26.2072 2.79261 25.885 2.04076 24.5961 2.04076C23.3072 2.04076 23.4146 2.36299 22.7702 3.00743C22.6628 2.68521 22.448 2.47039 22.1258 2.25558C21.8035 2.04076 21.4813 1.93336 21.1591 2.04076C20.2998 2.04076 19.7628 2.47039 19.3332 3.11484V2.25558H16.8628V3.00743C17.8295 3.00743 17.9369 3.00743 17.9369 3.86669V5.69262C17.9369 6.48027 17.5788 6.8741 16.8628 6.8741H16.9702Z" fill="#013D5B"/>
<path fill-rule="evenodd" clip-rule="evenodd" d="M0.107422 10.5259V28.7852H5.04816V21.8037H9.8815V17.6148H5.15557V14.8222H10.3111V10.6333H0.107422V10.5259Z" fill="#013D5B"/>
<path fill-rule="evenodd" clip-rule="evenodd" d="M27.7112 0H29.9667V2.79259C30.6112 2.25556 30.9334 2.04074 31.5778 2.04074C32.8667 2.04074 33.726 3.22222 33.726 4.94074C33.726 6.65926 32.8667 7.94815 31.363 7.94815C31.0408 7.94815 30.7186 7.94815 30.3964 7.73333C30.0741 7.62593 29.8593 7.41111 29.6445 7.1963L29.2149 7.84074H28.5704V1.82593C28.5704 0.966667 28.5704 0.859259 27.6038 0.859259V0.107407L27.7112 0ZM32.3297 4.94074C32.3297 3.65185 31.9001 3.00741 31.2556 3.00741C30.6112 3.00741 30.0741 3.65185 30.0741 5.04815C30.0741 6.44444 30.5038 6.98148 31.2556 6.98148C32.0075 6.98148 32.4371 6.33704 32.4371 4.94074H32.3297Z" fill="#013D5B"/>
<path fill-rule="evenodd" clip-rule="evenodd" d="M40.8149 6.87407V7.73333H44.3594V6.87407C43.3927 6.87407 43.2853 6.87407 43.2853 6.12222V4.94073C43.2853 3.86666 43.6075 2.79259 44.5742 2.79259C44.6816 2.79259 44.789 2.79259 44.8964 2.79259C44.789 2.79259 44.5742 2.89999 44.4668 3.11481C44.4668 3.22222 44.3594 3.43703 44.252 3.54444C44.252 3.54444 44.252 3.75925 44.252 3.86666C44.252 3.86666 44.252 4.08147 44.4668 4.08147C44.4668 4.08147 44.5742 4.18888 44.6816 4.18888C44.6816 4.18888 44.8964 4.18888 45.0038 4.18888C45.5409 4.18888 45.8631 3.75925 45.8631 3.22222C45.8631 3.0074 45.8631 2.89999 45.8631 2.68518C45.8631 2.57777 45.7557 2.36296 45.6483 2.25555C45.5409 2.14814 45.4335 2.04073 45.2186 1.93333C45.0038 1.82592 44.8964 1.93333 44.789 1.93333C44.252 1.93333 43.8223 2.25555 43.2853 2.79259V2.04073H40.8149V2.79259C41.6742 2.79259 41.889 2.79259 41.889 3.54444V5.79999C41.889 6.55185 41.889 6.65925 40.8149 6.65925V6.87407Z" fill="#013D5B"/>
<path fill-rule="evenodd" clip-rule="evenodd" d="M36.3035 5.15557C36.3035 6.22964 36.8405 6.9815 37.6998 6.9815C38.5591 6.9815 38.8813 6.55187 38.9887 5.80001H39.9554C39.7405 7.19631 38.8813 7.94816 37.5924 7.94816C36.3035 7.94816 34.7998 6.9815 34.7998 5.15557C34.7998 3.32964 35.8739 2.14816 37.3776 2.14816C38.8813 2.14816 39.8479 3.32964 39.8479 5.15557H36.1961H36.3035ZM37.485 3.00742C36.8405 3.00742 36.4109 3.43705 36.4109 4.29631H38.4517C38.4517 3.43705 38.1294 3.00742 37.485 3.00742Z" fill="#013D5B"/>
<path fill-rule="evenodd" clip-rule="evenodd" d="M12.5667 5.15557C12.5667 6.22964 13.1037 6.9815 13.963 6.9815C14.8222 6.9815 15.1445 6.55187 15.2519 5.80001H16.2185C16.0037 7.19631 15.1445 7.94816 13.8556 7.94816C12.5667 7.94816 11.063 6.9815 11.063 5.15557C11.063 3.32964 12.1371 2.14816 13.7482 2.14816C15.3593 2.14816 16.2185 3.32964 16.2185 5.15557H12.5667ZM13.6408 3.00742C12.9963 3.00742 12.5667 3.43705 12.5667 4.29631H14.6074C14.6074 3.43705 14.2852 3.00742 13.6408 3.00742Z" fill="#013D5B"/>
<path fill-rule="evenodd" clip-rule="evenodd" d="M27.1741 28.7852H32.1148V10.5259H27.1741V28.7852Z" fill="#013D5B"/>
</g>
<defs>
<clipPath id="clip0_6900_3104">
<rect width="46.1852" height="29" fill="white"/>
</clipPath>
</defs>
</svg>
