<svg width="422" height="111" viewBox="0 0 422 111" fill="none" xmlns="http://www.w3.org/2000/svg">
<path d="M18.942 47.076C16.984 48.022 14.85 48.495 12.54 48.495C9.24 48.495 6.666 47.439 4.818 45.327C2.97 43.193 2.046 40.234 2.046 36.45C2.046 32.688 2.959 29.74 4.785 27.606C6.633 25.472 9.163 24.405 12.375 24.405C14.553 24.405 16.588 24.878 18.48 25.824V27.507C16.544 26.561 14.564 26.088 12.54 26.088C9.856 26.088 7.799 26.979 6.369 28.761C4.939 30.543 4.224 33.106 4.224 36.45C4.224 39.816 4.939 42.39 6.369 44.172C7.821 45.932 9.933 46.812 12.705 46.812C14.179 46.812 15.62 46.581 17.028 46.119V37.737H14.025L14.256 36.054H18.942V47.076ZM35.4657 47.406C33.9477 48.132 32.3197 48.495 30.5817 48.495C28.0517 48.495 26.1047 47.747 24.7407 46.251C23.3767 44.755 22.6947 42.61 22.6947 39.816C22.6947 37.044 23.3327 34.866 24.6087 33.282C25.8847 31.698 27.6337 30.906 29.8557 30.906C31.8137 30.906 33.3537 31.522 34.4757 32.754C35.6197 33.964 36.1917 35.625 36.1917 37.737C36.1917 38.529 36.1257 39.288 35.9937 40.014H24.6417C24.6637 44.612 26.6987 46.911 30.7467 46.911C32.3747 46.911 33.9477 46.559 35.4657 45.855V47.406ZM29.8227 32.457C28.3267 32.457 27.1057 33.007 26.1597 34.107C25.2137 35.207 24.7077 36.681 24.6417 38.529H34.2777C34.3217 38.177 34.3437 37.869 34.3437 37.605C34.3437 35.977 33.9477 34.712 33.1557 33.81C32.3637 32.908 31.2527 32.457 29.8227 32.457ZM43.048 32.919V43.479C43.048 44.623 43.29 45.47 43.774 46.02C44.258 46.548 45.006 46.812 46.018 46.812C46.678 46.812 47.426 46.691 48.262 46.449V47.901C47.338 48.209 46.491 48.363 45.721 48.363C44.203 48.363 43.048 47.956 42.256 47.142C41.464 46.306 41.068 45.074 41.068 43.446V32.919H38.56V31.5L41.134 31.401L41.332 27.243L43.048 27.045V31.401H48.031V32.919H43.048ZM66.1129 48.495C63.7149 48.495 61.8999 47.758 60.6679 46.284C59.4579 44.788 58.8529 42.588 58.8529 39.684C58.8529 36.802 59.4579 34.624 60.6679 33.15C61.8999 31.654 63.7149 30.906 66.1129 30.906C68.5109 30.906 70.3149 31.654 71.5249 33.15C72.7569 34.624 73.3729 36.802 73.3729 39.684C73.3729 42.588 72.7569 44.788 71.5249 46.284C70.3149 47.758 68.5109 48.495 66.1129 48.495ZM66.1129 46.911C67.9169 46.911 69.2259 46.339 70.0399 45.195C70.8759 44.029 71.2939 42.192 71.2939 39.684C71.2939 37.198 70.8759 35.383 70.0399 34.239C69.2259 33.073 67.9169 32.49 66.1129 32.49C64.3089 32.49 62.9889 33.073 62.1529 34.239C61.3389 35.383 60.9319 37.198 60.9319 39.684C60.9319 42.192 61.3389 44.029 62.1529 45.195C62.9889 46.339 64.3089 46.911 66.1129 46.911ZM88.8827 48V36.549C88.8827 33.843 87.5077 32.49 84.7577 32.49C84.0317 32.49 83.2287 32.611 82.3487 32.853C81.4907 33.095 80.6437 33.425 79.8077 33.843V48H77.8277V31.5L79.5107 31.335L79.6427 32.49C81.5567 31.434 83.4267 30.906 85.2527 30.906C87.0347 30.906 88.4097 31.368 89.3777 32.292C90.3677 33.216 90.8627 34.525 90.8627 36.219V48H88.8827ZM102.138 53.709C103.7 53.423 104.921 52.873 105.801 52.059C106.681 51.245 107.495 49.947 108.243 48.165L101.907 31.401H103.986L109.167 45.954L114.513 31.401H116.493L110.157 47.835C109.563 49.419 108.936 50.706 108.276 51.696C107.638 52.708 106.879 53.5 105.999 54.072C105.119 54.666 103.975 55.117 102.567 55.425L102.138 53.709ZM125.378 48.495C122.98 48.495 121.165 47.758 119.933 46.284C118.723 44.788 118.118 42.588 118.118 39.684C118.118 36.802 118.723 34.624 119.933 33.15C121.165 31.654 122.98 30.906 125.378 30.906C127.776 30.906 129.58 31.654 130.79 33.15C132.022 34.624 132.638 36.802 132.638 39.684C132.638 42.588 132.022 44.788 130.79 46.284C129.58 47.758 127.776 48.495 125.378 48.495ZM125.378 46.911C127.182 46.911 128.491 46.339 129.305 45.195C130.141 44.029 130.559 42.192 130.559 39.684C130.559 37.198 130.141 35.383 129.305 34.239C128.491 33.073 127.182 32.49 125.378 32.49C123.574 32.49 122.254 33.073 121.418 34.239C120.604 35.383 120.197 37.198 120.197 39.684C120.197 42.192 120.604 44.029 121.418 45.195C122.254 46.339 123.574 46.911 125.378 46.911ZM138.841 31.401V42.852C138.841 45.558 140.172 46.911 142.834 46.911C143.56 46.911 144.352 46.79 145.21 46.548C146.09 46.306 146.948 45.976 147.784 45.558V31.401H149.764V47.901L148.081 48.066L147.949 46.911C146.035 47.967 144.165 48.495 142.339 48.495C140.601 48.495 139.248 48.033 138.28 47.109C137.334 46.163 136.861 44.854 136.861 43.182V31.401H138.841ZM155.3 48V31.5L156.983 31.335L157.148 32.82C158.622 31.61 160.195 31.005 161.867 31.005C162.461 31.005 162.934 31.071 163.286 31.203V32.82C162.714 32.688 162.208 32.622 161.768 32.622C160.206 32.622 158.71 33.183 157.28 34.305V48H155.3ZM175.356 48V32.919H172.848V31.5L175.356 31.401V27.672C175.356 26.044 175.752 24.801 176.544 23.943C177.358 23.063 178.535 22.623 180.075 22.623C180.911 22.623 181.758 22.777 182.616 23.085V24.537C181.824 24.295 181.065 24.174 180.339 24.174C179.305 24.174 178.546 24.449 178.062 24.999C177.578 25.527 177.336 26.363 177.336 27.507V31.401H181.791V32.919H177.336V48H175.356ZM196.824 47.406C195.306 48.132 193.678 48.495 191.94 48.495C189.41 48.495 187.463 47.747 186.099 46.251C184.735 44.755 184.053 42.61 184.053 39.816C184.053 37.044 184.691 34.866 185.967 33.282C187.243 31.698 188.992 30.906 191.214 30.906C193.172 30.906 194.712 31.522 195.834 32.754C196.978 33.964 197.55 35.625 197.55 37.737C197.55 38.529 197.484 39.288 197.352 40.014H186C186.022 44.612 188.057 46.911 192.105 46.911C193.733 46.911 195.306 46.559 196.824 45.855V47.406ZM191.181 32.457C189.685 32.457 188.464 33.007 187.518 34.107C186.572 35.207 186.066 36.681 186 38.529H195.636C195.68 38.177 195.702 37.869 195.702 37.605C195.702 35.977 195.306 34.712 194.514 33.81C193.722 32.908 192.611 32.457 191.181 32.457ZM213.646 47.406C212.128 48.132 210.5 48.495 208.762 48.495C206.232 48.495 204.285 47.747 202.921 46.251C201.557 44.755 200.875 42.61 200.875 39.816C200.875 37.044 201.513 34.866 202.789 33.282C204.065 31.698 205.814 30.906 208.036 30.906C209.994 30.906 211.534 31.522 212.656 32.754C213.8 33.964 214.372 35.625 214.372 37.737C214.372 38.529 214.306 39.288 214.174 40.014H202.822C202.844 44.612 204.879 46.911 208.927 46.911C210.555 46.911 212.128 46.559 213.646 45.855V47.406ZM208.003 32.457C206.507 32.457 205.286 33.007 204.34 34.107C203.394 35.207 202.888 36.681 202.822 38.529H212.458C212.502 38.177 212.524 37.869 212.524 37.605C212.524 35.977 212.128 34.712 211.336 33.81C210.544 32.908 209.433 32.457 208.003 32.457ZM221.229 32.919V43.479C221.229 44.623 221.471 45.47 221.955 46.02C222.439 46.548 223.187 46.812 224.199 46.812C224.859 46.812 225.607 46.691 226.443 46.449V47.901C225.519 48.209 224.672 48.363 223.902 48.363C222.384 48.363 221.229 47.956 220.437 47.142C219.645 46.306 219.249 45.074 219.249 43.446V32.919H216.741V31.5L219.315 31.401L219.513 27.243L221.229 27.045V31.401H226.212V32.919H221.229ZM231.127 41.4L230.83 24.9L232.942 24.636L232.645 41.4H231.127ZM231.886 48.165C231.446 48.165 231.083 48.033 230.797 47.769C230.511 47.483 230.368 47.109 230.368 46.647C230.368 46.185 230.511 45.822 230.797 45.558C231.083 45.272 231.446 45.129 231.886 45.129C232.326 45.129 232.689 45.272 232.975 45.558C233.261 45.822 233.404 46.185 233.404 46.647C233.404 47.109 233.261 47.483 232.975 47.769C232.689 48.033 232.326 48.165 231.886 48.165ZM7.458 88V66.583H0.495V64.9H16.5V66.583H9.537V88H7.458ZM19.7554 88V63.217L21.7354 62.953V72.424C23.5834 71.412 25.3984 70.906 27.1804 70.906C28.9624 70.906 30.3374 71.368 31.3054 72.292C32.2954 73.216 32.7904 74.525 32.7904 76.219V88H30.8104V76.549C30.8104 73.843 29.4354 72.49 26.6854 72.49C25.9594 72.49 25.1564 72.611 24.2764 72.853C23.4184 73.095 22.5714 73.425 21.7354 73.843V88H19.7554ZM49.7743 87.406C48.2563 88.132 46.6283 88.495 44.8903 88.495C42.3603 88.495 40.4133 87.747 39.0493 86.251C37.6853 84.755 37.0033 82.61 37.0033 79.816C37.0033 77.044 37.6413 74.866 38.9173 73.282C40.1933 71.698 41.9423 70.906 44.1643 70.906C46.1223 70.906 47.6623 71.522 48.7843 72.754C49.9283 73.964 50.5003 75.625 50.5003 77.737C50.5003 78.529 50.4343 79.288 50.3023 80.014H38.9503C38.9723 84.612 41.0073 86.911 45.0553 86.911C46.6833 86.911 48.2563 86.559 49.7743 85.855V87.406ZM44.1313 72.457C42.6353 72.457 41.4143 73.007 40.4683 74.107C39.5223 75.207 39.0163 76.681 38.9503 78.529H48.5863C48.6303 78.177 48.6523 77.869 48.6523 77.605C48.6523 75.977 48.2563 74.712 47.4643 73.81C46.6723 72.908 45.5613 72.457 44.1313 72.457ZM63.6596 88V64.9H76.9586V66.583H65.7386V75.955H75.5396V77.638H65.7386V88H63.6596ZM80.5347 88V71.566L82.5147 71.302V88H80.5347ZM81.5247 67.375C81.0847 67.375 80.7217 67.243 80.4357 66.979C80.1717 66.715 80.0397 66.352 80.0397 65.89C80.0397 65.428 80.1717 65.065 80.4357 64.801C80.7217 64.537 81.0847 64.405 81.5247 64.405C81.9647 64.405 82.3167 64.537 82.5807 64.801C82.8667 65.065 83.0097 65.428 83.0097 65.89C83.0097 66.352 82.8667 66.715 82.5807 66.979C82.3167 67.243 81.9647 67.375 81.5247 67.375ZM99.0985 88V76.549C99.0985 73.843 97.7235 72.49 94.9735 72.49C94.2475 72.49 93.4445 72.611 92.5645 72.853C91.7065 73.095 90.8595 73.425 90.0235 73.843V88H88.0435V71.5L89.7265 71.335L89.8585 72.49C91.7725 71.434 93.6425 70.906 95.4685 70.906C97.2505 70.906 98.6255 71.368 99.5935 72.292C100.583 73.216 101.078 74.525 101.078 76.219V88H99.0985ZM116.544 88.066L116.412 86.911C114.52 87.967 112.65 88.495 110.802 88.495C109.108 88.495 107.766 88.055 106.776 87.175C105.786 86.273 105.291 85.041 105.291 83.479C105.291 81.829 105.841 80.575 106.941 79.717C108.063 78.837 109.702 78.397 111.858 78.397C113.156 78.397 114.63 78.551 116.28 78.859V76.615C116.28 73.865 114.729 72.49 111.627 72.49C110.813 72.49 109.922 72.6 108.954 72.82C107.986 73.04 107.095 73.326 106.281 73.678V72.127C107.073 71.753 107.975 71.456 108.987 71.236C110.021 71.016 111 70.906 111.924 70.906C113.992 70.906 115.554 71.401 116.61 72.391C117.688 73.359 118.227 74.767 118.227 76.615V87.901L116.544 88.066ZM111.264 86.911C112.056 86.911 112.892 86.79 113.772 86.548C114.652 86.306 115.488 85.976 116.28 85.558V80.278C114.894 80.014 113.53 79.882 112.188 79.882C110.494 79.882 109.262 80.168 108.492 80.74C107.722 81.312 107.337 82.214 107.337 83.446C107.337 85.756 108.646 86.911 111.264 86.911ZM123.525 88V63.217L125.505 62.953V88H123.525ZM139.779 88V64.9H153.078V66.583H141.858V75.955H151.659V77.638H141.858V88H139.779ZM162.18 88.495C159.782 88.495 157.967 87.758 156.735 86.284C155.525 84.788 154.92 82.588 154.92 79.684C154.92 76.802 155.525 74.624 156.735 73.15C157.967 71.654 159.782 70.906 162.18 70.906C164.578 70.906 166.382 71.654 167.592 73.15C168.824 74.624 169.44 76.802 169.44 79.684C169.44 82.588 168.824 84.788 167.592 86.284C166.382 87.758 164.578 88.495 162.18 88.495ZM162.18 86.911C163.984 86.911 165.293 86.339 166.107 85.195C166.943 84.029 167.361 82.192 167.361 79.684C167.361 77.198 166.943 75.383 166.107 74.239C165.293 73.073 163.984 72.49 162.18 72.49C160.376 72.49 159.056 73.073 158.22 74.239C157.406 75.383 156.999 77.198 156.999 79.684C156.999 82.192 157.406 84.029 158.22 85.195C159.056 86.339 160.376 86.911 162.18 86.911ZM175.644 71.401V82.852C175.644 85.558 176.975 86.911 179.637 86.911C180.363 86.911 181.155 86.79 182.013 86.548C182.893 86.306 183.751 85.976 184.587 85.558V71.401H186.567V87.901L184.884 88.066L184.752 86.911C182.838 87.967 180.968 88.495 179.142 88.495C177.404 88.495 176.051 88.033 175.083 87.109C174.137 86.163 173.664 84.854 173.664 83.182V71.401H175.644ZM192.103 88V71.5L193.786 71.335L193.951 72.82C195.425 71.61 196.998 71.005 198.67 71.005C199.264 71.005 199.737 71.071 200.089 71.203V72.82C199.517 72.688 199.011 72.622 198.571 72.622C197.009 72.622 195.513 73.183 194.083 74.305V88H192.103ZM208.958 79.585C207.506 79.585 206.197 79.233 205.031 78.529C203.887 77.825 202.996 76.901 202.358 75.757C201.72 74.591 201.401 73.337 201.401 71.995C201.401 70.543 201.753 69.234 202.457 68.068C203.161 66.902 204.085 66 205.229 65.362C206.373 64.724 207.616 64.405 208.958 64.405C210.41 64.405 211.708 64.757 212.852 65.461C214.018 66.165 214.92 67.1 215.558 68.266C216.196 69.41 216.515 70.653 216.515 71.995C216.515 73.447 216.163 74.756 215.459 75.922C214.755 77.088 213.831 77.99 212.687 78.628C211.543 79.266 210.3 79.585 208.958 79.585ZM208.958 78.43C210.168 78.43 211.246 78.144 212.192 77.572C213.16 76.978 213.897 76.197 214.403 75.229C214.931 74.261 215.195 73.183 215.195 71.995C215.195 70.741 214.909 69.619 214.337 68.629C213.765 67.639 213.006 66.88 212.06 66.352C211.114 65.824 210.08 65.56 208.958 65.56C207.748 65.56 206.659 65.857 205.691 66.451C204.745 67.023 204.008 67.793 203.48 68.761C202.974 69.729 202.721 70.807 202.721 71.995C202.721 73.249 203.007 74.371 203.579 75.361C204.151 76.351 204.91 77.11 205.856 77.638C206.802 78.166 207.836 78.43 208.958 78.43ZM210.938 76.021L208.892 72.721H207.506V76.021H206.384V67.936C207.308 67.782 208.122 67.705 208.826 67.705C209.772 67.705 210.509 67.936 211.037 68.398C211.587 68.838 211.862 69.443 211.862 70.213C211.862 71.401 211.246 72.182 210.014 72.556L212.225 76.021H210.938ZM207.506 71.83H208.661C209.299 71.83 209.794 71.687 210.146 71.401C210.52 71.115 210.707 70.719 210.707 70.213C210.707 69.707 210.531 69.322 210.179 69.058C209.849 68.772 209.365 68.629 208.727 68.629C208.353 68.629 207.946 68.662 207.506 68.728V71.83ZM228.261 88V71.566L230.241 71.302V88H228.261ZM229.251 67.375C228.811 67.375 228.448 67.243 228.162 66.979C227.898 66.715 227.766 66.352 227.766 65.89C227.766 65.428 227.898 65.065 228.162 64.801C228.448 64.537 228.811 64.405 229.251 64.405C229.691 64.405 230.043 64.537 230.307 64.801C230.593 65.065 230.736 65.428 230.736 65.89C230.736 66.352 230.593 66.715 230.307 66.979C230.043 67.243 229.691 67.375 229.251 67.375ZM234.483 85.822C236.133 86.548 237.838 86.911 239.598 86.911C242.568 86.911 244.053 85.756 244.053 83.446C244.053 82.698 243.833 82.093 243.393 81.631C242.975 81.169 242.271 80.784 241.281 80.476L238.773 79.684C237.365 79.244 236.342 78.694 235.704 78.034C235.066 77.352 234.747 76.494 234.747 75.46C234.747 74.074 235.286 72.974 236.364 72.16C237.464 71.324 238.938 70.906 240.786 70.906C242.348 70.906 243.833 71.203 245.241 71.797V73.348C243.767 72.776 242.315 72.49 240.885 72.49C239.587 72.49 238.564 72.754 237.816 73.282C237.09 73.788 236.727 74.492 236.727 75.394C236.727 76.032 236.925 76.549 237.321 76.945C237.739 77.319 238.476 77.682 239.532 78.034L242.139 78.892C243.481 79.332 244.46 79.915 245.076 80.641C245.714 81.367 246.033 82.291 246.033 83.413C246.033 85.041 245.483 86.295 244.383 87.175C243.283 88.055 241.732 88.495 239.73 88.495C237.882 88.495 236.221 88.154 234.747 87.472L234.483 85.822ZM268.718 88.066L268.586 86.911C266.694 87.967 264.824 88.495 262.976 88.495C261.282 88.495 259.94 88.055 258.95 87.175C257.96 86.273 257.465 85.041 257.465 83.479C257.465 81.829 258.015 80.575 259.115 79.717C260.237 78.837 261.876 78.397 264.032 78.397C265.33 78.397 266.804 78.551 268.454 78.859V76.615C268.454 73.865 266.903 72.49 263.801 72.49C262.987 72.49 262.096 72.6 261.128 72.82C260.16 73.04 259.269 73.326 258.455 73.678V72.127C259.247 71.753 260.149 71.456 261.161 71.236C262.195 71.016 263.174 70.906 264.098 70.906C266.166 70.906 267.728 71.401 268.784 72.391C269.862 73.359 270.401 74.767 270.401 76.615V87.901L268.718 88.066ZM263.438 86.911C264.23 86.911 265.066 86.79 265.946 86.548C266.826 86.306 267.662 85.976 268.454 85.558V80.278C267.068 80.014 265.704 79.882 264.362 79.882C262.668 79.882 261.436 80.168 260.666 80.74C259.896 81.312 259.511 82.214 259.511 83.446C259.511 85.756 260.82 86.911 263.438 86.911ZM276.161 88V72.919H273.653V71.5L276.161 71.401V67.672C276.161 66.044 276.557 64.801 277.349 63.943C278.163 63.063 279.34 62.623 280.88 62.623C281.584 62.623 282.233 62.711 282.827 62.887V64.372C282.233 64.24 281.672 64.174 281.144 64.174C280.11 64.174 279.351 64.449 278.867 64.999C278.383 65.527 278.141 66.363 278.141 67.507V71.401H282.596V72.919H278.141V88H276.161ZM286.259 88V63.217L288.239 62.953V88H286.259ZM303.942 88.066L303.81 86.911C301.918 87.967 300.048 88.495 298.2 88.495C296.506 88.495 295.164 88.055 294.174 87.175C293.184 86.273 292.689 85.041 292.689 83.479C292.689 81.829 293.239 80.575 294.339 79.717C295.461 78.837 297.1 78.397 299.256 78.397C300.554 78.397 302.028 78.551 303.678 78.859V76.615C303.678 73.865 302.127 72.49 299.025 72.49C298.211 72.49 297.32 72.6 296.352 72.82C295.384 73.04 294.493 73.326 293.679 73.678V72.127C294.471 71.753 295.373 71.456 296.385 71.236C297.419 71.016 298.398 70.906 299.322 70.906C301.39 70.906 302.952 71.401 304.008 72.391C305.086 73.359 305.625 74.767 305.625 76.615V87.901L303.942 88.066ZM298.662 86.911C299.454 86.911 300.29 86.79 301.17 86.548C302.05 86.306 302.886 85.976 303.678 85.558V80.278C302.292 80.014 300.928 79.882 299.586 79.882C297.892 79.882 296.66 80.168 295.89 80.74C295.12 81.312 294.735 82.214 294.735 83.446C294.735 85.756 296.044 86.911 298.662 86.911ZM330.788 88V76.219C330.788 73.733 329.611 72.49 327.257 72.49C325.893 72.49 324.331 72.985 322.571 73.975C322.747 74.569 322.835 75.207 322.835 75.889V88H320.855V76.219C320.855 73.733 319.678 72.49 317.324 72.49C316.004 72.49 314.53 72.941 312.902 73.843V88H310.922V71.5L312.605 71.335L312.737 72.49C314.607 71.434 316.301 70.906 317.819 70.906C319.755 70.906 321.152 71.544 322.01 72.82C324.144 71.544 326.058 70.906 327.752 70.906C329.358 70.906 330.59 71.335 331.448 72.193C332.328 73.051 332.768 74.283 332.768 75.889V88H330.788ZM349.771 87.406C348.253 88.132 346.625 88.495 344.887 88.495C342.357 88.495 340.41 87.747 339.046 86.251C337.682 84.755 337 82.61 337 79.816C337 77.044 337.638 74.866 338.914 73.282C340.19 71.698 341.939 70.906 344.161 70.906C346.119 70.906 347.659 71.522 348.781 72.754C349.925 73.964 350.497 75.625 350.497 77.737C350.497 78.529 350.431 79.288 350.299 80.014H338.947C338.969 84.612 341.004 86.911 345.052 86.911C346.68 86.911 348.253 86.559 349.771 85.855V87.406ZM344.128 72.457C342.632 72.457 341.411 73.007 340.465 74.107C339.519 75.207 339.013 76.681 338.947 78.529H348.583C348.627 78.177 348.649 77.869 348.649 77.605C348.649 75.977 348.253 74.712 347.461 73.81C346.669 72.908 345.558 72.457 344.128 72.457ZM356.166 81.4L355.869 64.9L357.981 64.636L357.684 81.4H356.166ZM356.925 88.165C356.485 88.165 356.122 88.033 355.836 87.769C355.55 87.483 355.407 87.109 355.407 86.647C355.407 86.185 355.55 85.822 355.836 85.558C356.122 85.272 356.485 85.129 356.925 85.129C357.365 85.129 357.728 85.272 358.014 85.558C358.3 85.822 358.443 86.185 358.443 86.647C358.443 87.109 358.3 87.483 358.014 87.769C357.728 88.033 357.365 88.165 356.925 88.165Z" fill="#013D5B"/>
<path fill-rule="evenodd" clip-rule="evenodd" d="M406.454 43.4544C407.86 42.0486 410.14 42.0486 411.545 43.4544L420.545 52.4544C421.951 53.8603 421.951 56.1397 420.545 57.5456L411.545 66.5456C410.14 67.9515 407.86 67.9515 406.454 66.5456C405.048 65.1397 405.048 62.8603 406.454 61.4544L412.909 55L406.454 48.5456C405.048 47.1397 405.048 44.8603 406.454 43.4544Z" fill="#013D5B"/>
</svg>
