<svg width="387" height="63" viewBox="0 0 387 63" fill="none" xmlns="http://www.w3.org/2000/svg">
<path fill-rule="evenodd" clip-rule="evenodd" d="M371.454 21.4544C372.86 20.0485 375.14 20.0485 376.545 21.4544L385.545 30.4544C386.951 31.8603 386.951 34.1397 385.545 35.5455L376.545 44.5455C375.14 45.9514 372.86 45.9514 371.454 44.5455C370.048 43.1397 370.048 40.8603 371.454 39.4544L377.909 33L371.454 26.5455C370.048 25.1397 370.048 22.8603 371.454 21.4544Z" fill="#013D5B"/>
<path d="M2.772 27V7.82C4.9 7.428 6.76667 7.232 8.372 7.232C10.4253 7.232 12.012 7.66133 13.132 8.52C14.2707 9.37867 14.84 10.592 14.84 12.16C14.84 13.28 14.532 14.2413 13.916 15.044C13.3187 15.828 12.4413 16.3973 11.284 16.752C12.2173 16.92 13.0107 17.228 13.664 17.676C14.3173 18.124 14.812 18.6933 15.148 19.384C15.5027 20.0747 15.68 20.8587 15.68 21.736C15.68 23.4347 15.1013 24.7413 13.944 25.656C12.8053 26.552 11.1533 27 8.988 27H2.772ZM8.932 25.6C12.236 25.6 13.888 24.2747 13.888 21.624C13.888 20.336 13.4493 19.3373 12.572 18.628C11.6947 17.9187 10.444 17.564 8.82 17.564H4.508V25.6H8.932ZM8.176 8.632C7.13067 8.632 5.908 8.744 4.508 8.968V16.22H8.708C10.052 16.22 11.116 15.8747 11.9 15.184C12.684 14.4747 13.076 13.5133 13.076 12.3C13.076 9.85467 11.4427 8.632 8.176 8.632ZM19.1684 27V13L20.5964 12.86L20.7364 14.12C21.9871 13.0933 23.3217 12.58 24.7404 12.58C25.2444 12.58 25.6457 12.636 25.9444 12.748V14.12C25.4591 14.008 25.0297 13.952 24.6564 13.952C23.3311 13.952 22.0617 14.428 20.8484 15.38V27H19.1684ZM28.7934 27V13.056L30.4734 12.832V27H28.7934ZM29.6334 9.5C29.2601 9.5 28.9521 9.388 28.7094 9.164C28.4854 8.94 28.3734 8.632 28.3734 8.24C28.3734 7.848 28.4854 7.54 28.7094 7.316C28.9521 7.092 29.2601 6.98 29.6334 6.98C30.0067 6.98 30.3054 7.092 30.5294 7.316C30.7721 7.54 30.8934 7.848 30.8934 8.24C30.8934 8.632 30.7721 8.94 30.5294 9.164C30.3054 9.388 30.0067 9.5 29.6334 9.5ZM44.5445 27V17.284C44.5445 14.988 43.3778 13.84 41.0445 13.84C40.4285 13.84 39.7472 13.9427 39.0005 14.148C38.2725 14.3533 37.5538 14.6333 36.8445 14.988V27H35.1645V13L36.5925 12.86L36.7045 13.84C38.3285 12.944 39.9152 12.496 41.4645 12.496C42.9765 12.496 44.1432 12.888 44.9645 13.672C45.8045 14.456 46.2245 15.5667 46.2245 17.004V27H44.5445ZM55.3151 33.524C53.6538 33.524 52.2444 33.2347 51.0871 32.656L50.8631 31.228C52.3938 31.8627 53.8498 32.18 55.2311 32.18C58.3484 32.18 59.9071 30.7333 59.9071 27.84V25.908C59.1978 26.3 58.4698 26.608 57.7231 26.832C56.9951 27.056 56.3138 27.168 55.6791 27.168C53.8498 27.168 52.4124 26.552 51.3671 25.32C50.3218 24.088 49.7991 22.38 49.7991 20.196C49.7991 17.7133 50.3871 15.8093 51.5631 14.484C52.7578 13.1587 54.4751 12.496 56.7151 12.496C58.4138 12.496 60.0378 12.7947 61.5871 13.392V27.7C61.5871 29.5667 61.0458 31.004 59.9631 32.012C58.8804 33.02 57.3311 33.524 55.3151 33.524ZM55.9031 25.824C56.5191 25.824 57.1818 25.7213 57.8911 25.516C58.6004 25.3107 59.2724 25.0307 59.9071 24.676V14.288C58.9364 13.9893 57.9191 13.84 56.8551 13.84C55.0631 13.84 53.7284 14.3627 52.8511 15.408C51.9924 16.4347 51.5631 18.0213 51.5631 20.168C51.5631 22.016 51.9271 23.4253 52.6551 24.396C53.4018 25.348 54.4844 25.824 55.9031 25.824ZM71.3497 31.844C72.675 31.6013 73.711 31.1347 74.4577 30.444C75.2044 29.7533 75.895 28.652 76.5297 27.14L71.1537 12.916H72.9177L77.3137 25.264L81.8497 12.916H83.5297L78.1537 26.86C77.6497 28.204 77.1177 29.296 76.5577 30.136C76.0164 30.9947 75.3724 31.6667 74.6257 32.152C73.879 32.656 72.9084 33.0387 71.7137 33.3L71.3497 31.844ZM91.0685 27.42C89.0338 27.42 87.4938 26.7947 86.4485 25.544C85.4218 24.2747 84.9085 22.408 84.9085 19.944C84.9085 17.4987 85.4218 15.6507 86.4485 14.4C87.4938 13.1307 89.0338 12.496 91.0685 12.496C93.1031 12.496 94.6338 13.1307 95.6605 14.4C96.7058 15.6507 97.2285 17.4987 97.2285 19.944C97.2285 22.408 96.7058 24.2747 95.6605 25.544C94.6338 26.7947 93.1031 27.42 91.0685 27.42ZM91.0685 26.076C92.5991 26.076 93.7098 25.5907 94.4005 24.62C95.1098 23.6307 95.4645 22.072 95.4645 19.944C95.4645 17.8347 95.1098 16.2947 94.4005 15.324C93.7098 14.3347 92.5991 13.84 91.0685 13.84C89.5378 13.84 88.4178 14.3347 87.7085 15.324C87.0178 16.2947 86.6725 17.8347 86.6725 19.944C86.6725 22.072 87.0178 23.6307 87.7085 24.62C88.4178 25.5907 89.5378 26.076 91.0685 26.076ZM102.492 12.916V22.632C102.492 24.928 103.622 26.076 105.88 26.076C106.496 26.076 107.168 25.9733 107.896 25.768C108.643 25.5627 109.371 25.2827 110.08 24.928V12.916H111.76V26.916L110.332 27.056L110.22 26.076C108.596 26.972 107.01 27.42 105.46 27.42C103.986 27.42 102.838 27.028 102.016 26.244C101.214 25.4413 100.812 24.3307 100.812 22.912V12.916H102.492ZM116.457 27V13L117.885 12.86L118.025 14.12C119.276 13.0933 120.611 12.58 122.029 12.58C122.533 12.58 122.935 12.636 123.233 12.748V14.12C122.748 14.008 122.319 13.952 121.945 13.952C120.62 13.952 119.351 14.428 118.137 15.38V27H116.457ZM145.178 27L143.33 21.708H134.594L132.802 27H130.982L137.926 7.4H139.97L146.942 27H145.178ZM135.07 20.364H142.882L138.934 9.052L135.07 20.364ZM148.045 20.672V19.216H155.353V20.672H148.045ZM163.706 33.524C162.044 33.524 160.635 33.2347 159.478 32.656L159.254 31.228C160.784 31.8627 162.24 32.18 163.622 32.18C166.739 32.18 168.298 30.7333 168.298 27.84V25.908C167.588 26.3 166.86 26.608 166.114 26.832C165.386 27.056 164.704 27.168 164.07 27.168C162.24 27.168 160.803 26.552 159.758 25.32C158.712 24.088 158.19 22.38 158.19 20.196C158.19 17.7133 158.778 15.8093 159.954 14.484C161.148 13.1587 162.866 12.496 165.106 12.496C166.804 12.496 168.428 12.7947 169.978 13.392V27.7C169.978 29.5667 169.436 31.004 168.354 32.012C167.271 33.02 165.722 33.524 163.706 33.524ZM164.294 25.824C164.91 25.824 165.572 25.7213 166.282 25.516C166.991 25.3107 167.663 25.0307 168.298 24.676V14.288C167.327 13.9893 166.31 13.84 165.246 13.84C163.454 13.84 162.119 14.3627 161.242 15.408C160.383 16.4347 159.954 18.0213 159.954 20.168C159.954 22.016 160.318 23.4253 161.046 24.396C161.792 25.348 162.875 25.824 164.294 25.824ZM183.296 27.056L183.184 26.076C181.579 26.972 179.992 27.42 178.424 27.42C176.987 27.42 175.848 27.0467 175.008 26.3C174.168 25.5347 173.748 24.4893 173.748 23.164C173.748 21.764 174.215 20.7 175.148 19.972C176.1 19.2253 177.491 18.852 179.32 18.852C180.422 18.852 181.672 18.9827 183.072 19.244V17.34C183.072 15.0067 181.756 13.84 179.124 13.84C178.434 13.84 177.678 13.9333 176.856 14.12C176.035 14.3067 175.279 14.5493 174.588 14.848V13.532C175.26 13.2147 176.026 12.9627 176.884 12.776C177.762 12.5893 178.592 12.496 179.376 12.496C181.131 12.496 182.456 12.916 183.352 13.756C184.267 14.5773 184.724 15.772 184.724 17.34V26.916L183.296 27.056ZM178.816 26.076C179.488 26.076 180.198 25.9733 180.944 25.768C181.691 25.5627 182.4 25.2827 183.072 24.928V20.448C181.896 20.224 180.739 20.112 179.6 20.112C178.163 20.112 177.118 20.3547 176.464 20.84C175.811 21.3253 175.484 22.0907 175.484 23.136C175.484 25.096 176.595 26.076 178.816 26.076ZM206.075 27V17.004C206.075 14.8947 205.077 13.84 203.079 13.84C201.922 13.84 200.597 14.26 199.103 15.1C199.253 15.604 199.327 16.1453 199.327 16.724V27H197.647V17.004C197.647 14.8947 196.649 13.84 194.651 13.84C193.531 13.84 192.281 14.2227 190.899 14.988V27H189.219V13L190.647 12.86L190.759 13.84C192.346 12.944 193.783 12.496 195.071 12.496C196.714 12.496 197.899 13.0373 198.627 14.12C200.438 13.0373 202.062 12.496 203.499 12.496C204.862 12.496 205.907 12.86 206.635 13.588C207.382 14.316 207.755 15.3613 207.755 16.724V27H206.075ZM222.182 26.496C220.894 27.112 219.513 27.42 218.038 27.42C215.891 27.42 214.239 26.7853 213.082 25.516C211.925 24.2467 211.346 22.4267 211.346 20.056C211.346 17.704 211.887 15.856 212.97 14.512C214.053 13.168 215.537 12.496 217.422 12.496C219.083 12.496 220.39 13.0187 221.342 14.064C222.313 15.0907 222.798 16.5 222.798 18.292C222.798 18.964 222.742 19.608 222.63 20.224H212.998C213.017 24.1253 214.743 26.076 218.178 26.076C219.559 26.076 220.894 25.7773 222.182 25.18V26.496ZM217.394 13.812C216.125 13.812 215.089 14.2787 214.286 15.212C213.483 16.1453 213.054 17.396 212.998 18.964H221.174C221.211 18.6653 221.23 18.404 221.23 18.18C221.23 16.7987 220.894 15.7253 220.222 14.96C219.55 14.1947 218.607 13.812 217.394 13.812ZM235.615 14.204V23.164C235.615 24.1347 235.821 24.8533 236.231 25.32C236.642 25.768 237.277 25.992 238.135 25.992C238.695 25.992 239.33 25.8893 240.039 25.684V26.916C239.255 27.1773 238.537 27.308 237.883 27.308C236.595 27.308 235.615 26.9627 234.943 26.272C234.271 25.5627 233.935 24.5173 233.935 23.136V14.204H231.807V13L233.991 12.916L234.159 9.388L235.615 9.22V12.916H239.843V14.204H235.615ZM248.186 27.42C246.151 27.42 244.611 26.7947 243.566 25.544C242.539 24.2747 242.026 22.408 242.026 19.944C242.026 17.4987 242.539 15.6507 243.566 14.4C244.611 13.1307 246.151 12.496 248.186 12.496C250.22 12.496 251.751 13.1307 252.778 14.4C253.823 15.6507 254.346 17.4987 254.346 19.944C254.346 22.408 253.823 24.2747 252.778 25.544C251.751 26.7947 250.22 27.42 248.186 27.42ZM248.186 26.076C249.716 26.076 250.827 25.5907 251.518 24.62C252.227 23.6307 252.582 22.072 252.582 19.944C252.582 17.8347 252.227 16.2947 251.518 15.324C250.827 14.3347 249.716 13.84 248.186 13.84C246.655 13.84 245.535 14.3347 244.826 15.324C244.135 16.2947 243.79 17.8347 243.79 19.944C243.79 22.072 244.135 23.6307 244.826 24.62C245.535 25.5907 246.655 26.076 248.186 26.076ZM14.7 60.216C13.0947 61.0187 11.4147 61.42 9.66 61.42C7.17733 61.42 5.236 60.524 3.836 58.732C2.436 56.9213 1.736 54.4107 1.736 51.2C1.736 47.9893 2.436 45.488 3.836 43.696C5.236 41.8853 7.17733 40.98 9.66 40.98C11.3587 40.98 13.0107 41.3813 14.616 42.184V43.612C13.7573 43.2013 12.9547 42.9027 12.208 42.716C11.4613 42.5293 10.6867 42.436 9.884 42.436C7.812 42.436 6.244 43.1827 5.18 44.676C4.13467 46.1507 3.612 48.3253 3.612 51.2C3.612 54.0747 4.13467 56.2587 5.18 57.752C6.244 59.2267 7.812 59.964 9.884 59.964C11.4707 59.964 13.076 59.572 14.7 58.788V60.216ZM18.5395 61V39.972L20.2195 39.748V47.784C21.7875 46.9253 23.3275 46.496 24.8395 46.496C26.3515 46.496 27.5182 46.888 28.3395 47.672C29.1795 48.456 29.5995 49.5667 29.5995 51.004V61H27.9195V51.284C27.9195 48.988 26.7528 47.84 24.4195 47.84C23.8035 47.84 23.1222 47.9427 22.3755 48.148C21.6475 48.3533 20.9288 48.6333 20.2195 48.988V61H18.5395ZM35.5821 46.916V56.632C35.5821 58.928 36.7114 60.076 38.9701 60.076C39.5861 60.076 40.2581 59.9733 40.9861 59.768C41.7328 59.5627 42.4608 59.2827 43.1701 58.928V46.916H44.8501V60.916L43.4221 61.056L43.3101 60.076C41.6861 60.972 40.0994 61.42 38.5501 61.42C37.0754 61.42 35.9274 61.028 35.1061 60.244C34.3034 59.4413 33.9021 58.3307 33.9021 56.912V46.916H35.5821ZM58.8433 60.496C57.6113 61.112 56.2673 61.42 54.8113 61.42C52.8326 61.42 51.302 60.776 50.2193 59.488C49.1553 58.2 48.6233 56.3613 48.6233 53.972C48.6233 51.5827 49.1553 49.744 50.2193 48.456C51.302 47.1493 52.8326 46.496 54.8113 46.496C56.2113 46.496 57.5366 46.804 58.7873 47.42V48.736C57.4806 48.1573 56.2113 47.868 54.9793 47.868C53.4673 47.868 52.3193 48.3813 51.5353 49.408C50.77 50.4347 50.3873 51.956 50.3873 53.972C50.3873 55.9693 50.77 57.4813 51.5353 58.508C52.3193 59.5347 53.4673 60.048 54.9793 60.048C56.2486 60.048 57.5366 59.7587 58.8433 59.18V60.496ZM62.4536 61V39.972L64.1336 39.748V53.16L70.7416 46.916H72.7296L65.8136 53.468L72.9536 61H70.8256L64.1336 53.888V61H62.4536ZM73.7365 47.476C74.2405 46.8227 74.6418 46.1413 74.9405 45.432C75.2578 44.704 75.4258 44.0227 75.4445 43.388C75.1645 43.3133 74.9498 43.1733 74.8005 42.968C74.6511 42.744 74.5765 42.4733 74.5765 42.156C74.5765 41.764 74.6978 41.456 74.9405 41.232C75.1831 40.9893 75.4911 40.868 75.8645 40.868C76.2751 40.868 76.5925 41.0173 76.8165 41.316C77.0405 41.596 77.1525 41.988 77.1525 42.492C77.1525 43.3133 76.8818 44.2373 76.3405 45.264C75.8178 46.272 75.1551 47.14 74.3525 47.868L73.7365 47.476ZM79.135 59.152C80.535 59.768 81.9817 60.076 83.475 60.076C85.995 60.076 87.255 59.096 87.255 57.136C87.255 56.5013 87.0683 55.988 86.695 55.596C86.3403 55.204 85.743 54.8773 84.903 54.616L82.775 53.944C81.5803 53.5707 80.7123 53.104 80.171 52.544C79.6297 51.9653 79.359 51.2373 79.359 50.36C79.359 49.184 79.8163 48.2507 80.731 47.56C81.6643 46.8507 82.915 46.496 84.483 46.496C85.8083 46.496 87.0683 46.748 88.263 47.252V48.568C87.0123 48.0827 85.7803 47.84 84.567 47.84C83.4657 47.84 82.5977 48.064 81.963 48.512C81.347 48.9413 81.039 49.5387 81.039 50.304C81.039 50.8453 81.207 51.284 81.543 51.62C81.8977 51.9373 82.523 52.2453 83.419 52.544L85.631 53.272C86.7697 53.6453 87.6003 54.14 88.123 54.756C88.6643 55.372 88.935 56.156 88.935 57.108C88.935 58.4893 88.4683 59.5533 87.535 60.3C86.6017 61.0467 85.2857 61.42 83.587 61.42C82.019 61.42 80.6097 61.1307 79.359 60.552L79.135 59.152ZM113.279 60.216C111.618 61.0187 109.807 61.42 107.847 61.42C105.047 61.42 102.863 60.524 101.295 58.732C99.727 56.9213 98.943 54.4107 98.943 51.2C98.943 48.008 99.7177 45.5067 101.267 43.696C102.835 41.8853 104.982 40.98 107.707 40.98C109.555 40.98 111.282 41.3813 112.887 42.184V43.612C111.244 42.8093 109.564 42.408 107.847 42.408C105.57 42.408 103.824 43.164 102.611 44.676C101.398 46.188 100.791 48.3627 100.791 51.2C100.791 54.056 101.398 56.24 102.611 57.752C103.843 59.2453 105.635 59.992 107.987 59.992C109.238 59.992 110.46 59.796 111.655 59.404V52.292H109.107L109.303 50.864H113.279V60.216ZM122.623 61.42C120.588 61.42 119.048 60.7947 118.003 59.544C116.976 58.2747 116.463 56.408 116.463 53.944C116.463 51.4987 116.976 49.6507 118.003 48.4C119.048 47.1307 120.588 46.496 122.623 46.496C124.658 46.496 126.188 47.1307 127.215 48.4C128.26 49.6507 128.783 51.4987 128.783 53.944C128.783 56.408 128.26 58.2747 127.215 59.544C126.188 60.7947 124.658 61.42 122.623 61.42ZM122.623 60.076C124.154 60.076 125.264 59.5907 125.955 58.62C126.664 57.6307 127.019 56.072 127.019 53.944C127.019 51.8347 126.664 50.2947 125.955 49.324C125.264 48.3347 124.154 47.84 122.623 47.84C121.092 47.84 119.972 48.3347 119.263 49.324C118.572 50.2947 118.227 51.8347 118.227 53.944C118.227 56.072 118.572 57.6307 119.263 58.62C119.972 59.5907 121.092 60.076 122.623 60.076ZM134.635 48.204V57.164C134.635 58.1347 134.84 58.8533 135.251 59.32C135.662 59.768 136.296 59.992 137.155 59.992C137.715 59.992 138.35 59.8893 139.059 59.684V60.916C138.275 61.1773 137.556 61.308 136.903 61.308C135.615 61.308 134.635 60.9627 133.963 60.272C133.291 59.5627 132.955 58.5173 132.955 57.136V48.204H130.827V47L133.011 46.916L133.179 43.388L134.635 43.22V46.916H138.863V48.204H134.635ZM162.689 60.216C161.028 61.0187 159.217 61.42 157.257 61.42C154.457 61.42 152.273 60.524 150.705 58.732C149.137 56.9213 148.353 54.4107 148.353 51.2C148.353 48.008 149.128 45.5067 150.677 43.696C152.245 41.8853 154.392 40.98 157.117 40.98C158.965 40.98 160.692 41.3813 162.297 42.184V43.612C160.655 42.8093 158.975 42.408 157.257 42.408C154.98 42.408 153.235 43.164 152.021 44.676C150.808 46.188 150.201 48.3627 150.201 51.2C150.201 54.056 150.808 56.24 152.021 57.752C153.253 59.2453 155.045 59.992 157.397 59.992C158.648 59.992 159.871 59.796 161.065 59.404V52.292H158.517L158.713 50.864H162.689V60.216ZM175.421 61.056L175.309 60.076C173.704 60.972 172.117 61.42 170.549 61.42C169.112 61.42 167.973 61.0467 167.133 60.3C166.293 59.5347 165.873 58.4893 165.873 57.164C165.873 55.764 166.34 54.7 167.273 53.972C168.225 53.2253 169.616 52.852 171.445 52.852C172.547 52.852 173.797 52.9827 175.197 53.244V51.34C175.197 49.0067 173.881 47.84 171.249 47.84C170.559 47.84 169.803 47.9333 168.981 48.12C168.16 48.3067 167.404 48.5493 166.713 48.848V47.532C167.385 47.2147 168.151 46.9627 169.009 46.776C169.887 46.5893 170.717 46.496 171.501 46.496C173.256 46.496 174.581 46.916 175.477 47.756C176.392 48.5773 176.849 49.772 176.849 51.34V60.916L175.421 61.056ZM170.941 60.076C171.613 60.076 172.323 59.9733 173.069 59.768C173.816 59.5627 174.525 59.2827 175.197 58.928V54.448C174.021 54.224 172.864 54.112 171.725 54.112C170.288 54.112 169.243 54.3547 168.589 54.84C167.936 55.3253 167.609 56.0907 167.609 57.136C167.609 59.096 168.72 60.076 170.941 60.076ZM198.2 61V51.004C198.2 48.8947 197.202 47.84 195.204 47.84C194.047 47.84 192.722 48.26 191.228 49.1C191.378 49.604 191.452 50.1453 191.452 50.724V61H189.772V51.004C189.772 48.8947 188.774 47.84 186.776 47.84C185.656 47.84 184.406 48.2227 183.024 48.988V61H181.344V47L182.772 46.86L182.884 47.84C184.471 46.944 185.908 46.496 187.196 46.496C188.839 46.496 190.024 47.0373 190.752 48.12C192.563 47.0373 194.187 46.496 195.624 46.496C196.987 46.496 198.032 46.86 198.76 47.588C199.507 48.316 199.88 49.3613 199.88 50.724V61H198.2ZM214.307 60.496C213.019 61.112 211.638 61.42 210.163 61.42C208.016 61.42 206.364 60.7853 205.207 59.516C204.05 58.2467 203.471 56.4267 203.471 54.056C203.471 51.704 204.012 49.856 205.095 48.512C206.178 47.168 207.662 46.496 209.547 46.496C211.208 46.496 212.515 47.0187 213.467 48.064C214.438 49.0907 214.923 50.5 214.923 52.292C214.923 52.964 214.867 53.608 214.755 54.224H205.123C205.142 58.1253 206.868 60.076 210.303 60.076C211.684 60.076 213.019 59.7773 214.307 59.18V60.496ZM209.519 47.812C208.25 47.812 207.214 48.2787 206.411 49.212C205.608 50.1453 205.179 51.396 205.123 52.964H213.299C213.336 52.6653 213.355 52.404 213.355 52.18C213.355 50.7987 213.019 49.7253 212.347 48.96C211.675 48.1947 210.732 47.812 209.519 47.812ZM217.576 59.152C218.976 59.768 220.423 60.076 221.916 60.076C224.436 60.076 225.696 59.096 225.696 57.136C225.696 56.5013 225.51 55.988 225.136 55.596C224.782 55.204 224.184 54.8773 223.344 54.616L221.216 53.944C220.022 53.5707 219.154 53.104 218.612 52.544C218.071 51.9653 217.8 51.2373 217.8 50.36C217.8 49.184 218.258 48.2507 219.172 47.56C220.106 46.8507 221.356 46.496 222.924 46.496C224.25 46.496 225.51 46.748 226.704 47.252V48.568C225.454 48.0827 224.222 47.84 223.008 47.84C221.907 47.84 221.039 48.064 220.404 48.512C219.788 48.9413 219.48 49.5387 219.48 50.304C219.48 50.8453 219.648 51.284 219.984 51.62C220.339 51.9373 220.964 52.2453 221.86 52.544L224.072 53.272C225.211 53.6453 226.042 54.14 226.564 54.756C227.106 55.372 227.376 56.156 227.376 57.108C227.376 58.4893 226.91 59.5533 225.976 60.3C225.043 61.0467 223.727 61.42 222.028 61.42C220.46 61.42 219.051 61.1307 217.8 60.552L217.576 59.152ZM232.064 55.4L231.812 41.4L233.604 41.176L233.352 55.4H232.064ZM232.708 61.14C232.335 61.14 232.027 61.028 231.784 60.804C231.542 60.5613 231.42 60.244 231.42 59.852C231.42 59.46 231.542 59.152 231.784 58.928C232.027 58.6853 232.335 58.564 232.708 58.564C233.082 58.564 233.39 58.6853 233.632 58.928C233.875 59.152 233.996 59.46 233.996 59.852C233.996 60.244 233.875 60.5613 233.632 60.804C233.39 61.028 233.082 61.14 232.708 61.14Z" fill="#013D5B"/>
</svg>
