<svg width="596" height="19" viewBox="0 0 596 19" fill="none" xmlns="http://www.w3.org/2000/svg">
<path d="M-3.01898e-05 16.488C1.67997 17.224 3.27197 17.592 4.77597 17.592C6.19997 17.592 7.29597 17.28 8.06397 16.656C8.84797 16.016 9.23997 15.104 9.23997 13.92C9.23997 13.024 8.98397 12.304 8.47197 11.76C7.95997 11.216 7.10397 10.76 5.90397 10.392L4.19997 9.864C2.88797 9.464 1.92797 8.944 1.31997 8.304C0.71197 7.648 0.40797 6.816 0.40797 5.808C0.40797 4.448 0.91997 3.36 1.94397 2.544C2.98397 1.712 4.36797 1.296 6.09597 1.296C7.48797 1.296 8.83197 1.592 10.128 2.184V3.384C8.75197 2.808 7.42397 2.52 6.14397 2.52C4.83197 2.52 3.80797 2.808 3.07197 3.384C2.33597 3.944 1.96797 4.736 1.96797 5.76C1.96797 6.48 2.17597 7.048 2.59197 7.464C3.00797 7.88 3.73597 8.256 4.77597 8.592L6.47997 9.144C8.01597 9.64 9.11997 10.264 9.79197 11.016C10.464 11.752 10.8 12.712 10.8 13.896C10.8 15.416 10.264 16.616 9.19197 17.496C8.13597 18.376 6.68797 18.816 4.84797 18.816C3.15197 18.816 1.61597 18.472 0.23997 17.784L-3.01898e-05 16.488ZM13.874 18.456V0.432L15.314 0.24V7.128C16.658 6.392 17.978 6.024 19.274 6.024C20.57 6.024 21.57 6.36 22.274 7.032C22.994 7.704 23.354 8.656 23.354 9.888V18.456H21.914V10.128C21.914 8.16 20.914 7.176 18.914 7.176C18.386 7.176 17.802 7.264 17.162 7.44C16.538 7.616 15.922 7.856 15.314 8.16V18.456H13.874ZM31.698 18.816C29.954 18.816 28.634 18.28 27.738 17.208C26.858 16.12 26.418 14.52 26.418 12.408C26.418 10.312 26.858 8.728 27.738 7.656C28.634 6.568 29.954 6.024 31.698 6.024C33.442 6.024 34.754 6.568 35.634 7.656C36.53 8.728 36.978 10.312 36.978 12.408C36.978 14.52 36.53 16.12 35.634 17.208C34.754 18.28 33.442 18.816 31.698 18.816ZM31.698 17.664C33.01 17.664 33.962 17.248 34.554 16.416C35.162 15.568 35.466 14.232 35.466 12.408C35.466 10.6 35.162 9.28 34.554 8.448C33.962 7.6 33.01 7.176 31.698 7.176C30.386 7.176 29.426 7.6 28.818 8.448C28.226 9.28 27.93 10.6 27.93 12.408C27.93 14.232 28.226 15.568 28.818 16.416C29.426 17.248 30.386 17.664 31.698 17.664ZM44.7058 18.816C42.9618 18.816 41.6418 18.28 40.7458 17.208C39.8658 16.12 39.4258 14.52 39.4258 12.408C39.4258 10.312 39.8658 8.728 40.7458 7.656C41.6418 6.568 42.9618 6.024 44.7058 6.024C46.4498 6.024 47.7618 6.568 48.6418 7.656C49.5378 8.728 49.9858 10.312 49.9858 12.408C49.9858 14.52 49.5378 16.12 48.6418 17.208C47.7618 18.28 46.4498 18.816 44.7058 18.816ZM44.7058 17.664C46.0178 17.664 46.9698 17.248 47.5618 16.416C48.1698 15.568 48.4738 14.232 48.4738 12.408C48.4738 10.6 48.1698 9.28 47.5618 8.448C46.9698 7.6 46.0178 7.176 44.7058 7.176C43.3938 7.176 42.4338 7.6 41.8258 8.448C41.2338 9.28 40.9378 10.6 40.9378 12.408C40.9378 14.232 41.2338 15.568 41.8258 16.416C42.4338 17.248 43.3938 17.664 44.7058 17.664ZM55.0016 7.488V15.168C55.0016 16 55.1776 16.616 55.5296 17.016C55.8816 17.4 56.4256 17.592 57.1616 17.592C57.6416 17.592 58.1856 17.504 58.7936 17.328V18.384C58.1216 18.608 57.5056 18.72 56.9456 18.72C55.8416 18.72 55.0016 18.424 54.4256 17.832C53.8496 17.224 53.5616 16.328 53.5616 15.144V7.488H51.7376V6.456L53.6096 6.384L53.7536 3.36L55.0016 3.216V6.384H58.6256V7.488H55.0016ZM74.6801 18.504L74.5841 17.664C73.2081 18.432 71.8481 18.816 70.5041 18.816C69.2721 18.816 68.2961 18.496 67.5761 17.856C66.8561 17.2 66.4961 16.304 66.4961 15.168C66.4961 13.968 66.8961 13.056 67.6961 12.432C68.5121 11.792 69.7041 11.472 71.2721 11.472C72.2161 11.472 73.2881 11.584 74.4881 11.808V10.176C74.4881 8.176 73.3601 7.176 71.1041 7.176C70.5121 7.176 69.8641 7.256 69.1601 7.416C68.4561 7.576 67.8081 7.784 67.2161 8.04V6.912C67.7921 6.64 68.4481 6.424 69.1841 6.264C69.9361 6.104 70.6481 6.024 71.3201 6.024C72.8241 6.024 73.9601 6.384 74.7281 7.104C75.5121 7.808 75.9041 8.832 75.9041 10.176V18.384L74.6801 18.504ZM70.8401 17.664C71.4161 17.664 72.0241 17.576 72.6641 17.4C73.3041 17.224 73.9121 16.984 74.4881 16.68V12.84C73.4801 12.648 72.4881 12.552 71.5121 12.552C70.2801 12.552 69.3841 12.76 68.8241 13.176C68.2641 13.592 67.9841 14.248 67.9841 15.144C67.9841 16.824 68.9361 17.664 70.8401 17.664ZM87.7968 18.456V10.128C87.7968 8.16 86.7968 7.176 84.7968 7.176C84.2688 7.176 83.6848 7.264 83.0448 7.44C82.4208 7.616 81.8048 7.856 81.1968 8.16V18.456H79.7568V6.456L80.9808 6.336L81.0768 7.176C82.4688 6.408 83.8288 6.024 85.1568 6.024C86.4528 6.024 87.4528 6.36 88.1568 7.032C88.8768 7.704 89.2368 8.656 89.2368 9.888V18.456H87.7968ZM102.405 0.24V18.384L101.181 18.504L101.085 17.664C99.7248 18.432 98.4768 18.816 97.3408 18.816C95.7728 18.816 94.5408 18.272 93.6448 17.184C92.7488 16.08 92.3008 14.56 92.3008 12.624C92.3008 10.496 92.8048 8.864 93.8128 7.728C94.8368 6.592 96.3088 6.024 98.2288 6.024C99.2208 6.024 100.133 6.152 100.965 6.408V0.432L102.405 0.24ZM97.5328 17.664C98.0608 17.664 98.6288 17.576 99.2368 17.4C99.8448 17.224 100.421 16.984 100.965 16.68V7.56C100.133 7.304 99.2608 7.176 98.3488 7.176C96.8128 7.176 95.6688 7.624 94.9168 8.52C94.1808 9.4 93.8128 10.76 93.8128 12.6C93.8128 14.248 94.1248 15.504 94.7488 16.368C95.3888 17.232 96.3168 17.664 97.5328 17.664ZM111.493 16.872C112.693 17.4 113.933 17.664 115.213 17.664C117.373 17.664 118.453 16.824 118.453 15.144C118.453 14.6 118.293 14.16 117.973 13.824C117.669 13.488 117.157 13.208 116.437 12.984L114.613 12.408C113.589 12.088 112.845 11.688 112.381 11.208C111.917 10.712 111.685 10.088 111.685 9.336C111.685 8.328 112.077 7.528 112.861 6.936C113.661 6.328 114.733 6.024 116.077 6.024C117.213 6.024 118.293 6.24 119.317 6.672V7.8C118.245 7.384 117.189 7.176 116.149 7.176C115.205 7.176 114.461 7.368 113.917 7.752C113.389 8.12 113.125 8.632 113.125 9.288C113.125 9.752 113.269 10.128 113.557 10.416C113.861 10.688 114.397 10.952 115.165 11.208L117.061 11.832C118.037 12.152 118.749 12.576 119.197 13.104C119.661 13.632 119.893 14.304 119.893 15.12C119.893 16.304 119.493 17.216 118.693 17.856C117.893 18.496 116.765 18.816 115.309 18.816C113.965 18.816 112.757 18.568 111.685 18.072L111.493 16.872ZM130.967 18.024C129.911 18.552 128.759 18.816 127.511 18.816C125.815 18.816 124.503 18.264 123.575 17.16C122.663 16.056 122.207 14.48 122.207 12.432C122.207 10.384 122.663 8.808 123.575 7.704C124.503 6.584 125.815 6.024 127.511 6.024C128.711 6.024 129.847 6.288 130.919 6.816V7.944C129.799 7.448 128.711 7.2 127.655 7.2C126.359 7.2 125.375 7.64 124.703 8.52C124.047 9.4 123.719 10.704 123.719 12.432C123.719 14.144 124.047 15.44 124.703 16.32C125.375 17.2 126.359 17.64 127.655 17.64C128.743 17.64 129.847 17.392 130.967 16.896V18.024ZM138.315 18.816C136.571 18.816 135.251 18.28 134.355 17.208C133.475 16.12 133.035 14.52 133.035 12.408C133.035 10.312 133.475 8.728 134.355 7.656C135.251 6.568 136.571 6.024 138.315 6.024C140.059 6.024 141.371 6.568 142.251 7.656C143.147 8.728 143.595 10.312 143.595 12.408C143.595 14.52 143.147 16.12 142.251 17.208C141.371 18.28 140.059 18.816 138.315 18.816ZM138.315 17.664C139.627 17.664 140.579 17.248 141.171 16.416C141.779 15.568 142.083 14.232 142.083 12.408C142.083 10.6 141.779 9.28 141.171 8.448C140.579 7.6 139.627 7.176 138.315 7.176C137.003 7.176 136.043 7.6 135.435 8.448C134.843 9.28 134.547 10.6 134.547 12.408C134.547 14.232 134.843 15.568 135.435 16.416C136.043 17.248 137.003 17.664 138.315 17.664ZM146.835 18.456V6.456L148.059 6.336L148.179 7.416C149.251 6.536 150.395 6.096 151.611 6.096C152.043 6.096 152.387 6.144 152.643 6.24V7.416C152.227 7.32 151.859 7.272 151.539 7.272C150.403 7.272 149.315 7.68 148.275 8.496V18.456H146.835ZM163.347 18.024C162.243 18.552 161.059 18.816 159.795 18.816C157.955 18.816 156.539 18.272 155.547 17.184C154.555 16.096 154.059 14.536 154.059 12.504C154.059 10.488 154.523 8.904 155.451 7.752C156.379 6.6 157.651 6.024 159.267 6.024C160.691 6.024 161.811 6.472 162.627 7.368C163.459 8.248 163.875 9.456 163.875 10.992C163.875 11.568 163.827 12.12 163.731 12.648H155.475C155.491 15.992 156.971 17.664 159.915 17.664C161.099 17.664 162.243 17.408 163.347 16.896V18.024ZM159.243 7.152C158.155 7.152 157.267 7.552 156.579 8.352C155.891 9.152 155.523 10.224 155.475 11.568H162.483C162.515 11.312 162.531 11.088 162.531 10.896C162.531 9.712 162.243 8.792 161.667 8.136C161.091 7.48 160.283 7.152 159.243 7.152ZM171.477 16.632C172.885 17.32 174.333 17.664 175.821 17.664C177.165 17.664 178.237 17.336 179.037 16.68C179.837 16.024 180.237 15.136 180.237 14.016C180.237 12.928 179.861 12.056 179.109 11.4C178.357 10.744 177.341 10.416 176.061 10.416H174.645V9.264H176.013C177.165 9.264 178.077 8.976 178.749 8.4C179.421 7.824 179.757 7.048 179.757 6.072C179.757 5.048 179.413 4.248 178.725 3.672C178.037 3.096 177.085 2.808 175.869 2.808C174.589 2.808 173.333 3.072 172.101 3.6V2.448C173.253 1.92 174.549 1.656 175.989 1.656C177.541 1.656 178.805 2.064 179.781 2.88C180.773 3.68 181.269 4.712 181.269 5.976C181.269 6.904 180.997 7.704 180.453 8.376C179.925 9.048 179.181 9.528 178.221 9.816C179.325 10.088 180.189 10.608 180.813 11.376C181.437 12.128 181.749 13.024 181.749 14.064C181.749 15.008 181.493 15.848 180.981 16.584C180.485 17.304 179.797 17.856 178.917 18.24C178.053 18.624 177.069 18.816 175.965 18.816C175.197 18.816 174.429 18.728 173.661 18.552C172.893 18.392 172.237 18.168 171.693 17.88L171.477 16.632ZM189.021 18.456L197.709 2.016H199.005L190.317 18.456H189.021ZM187.869 11.472C188.717 11.472 189.341 11.12 189.741 10.416C190.157 9.712 190.365 8.608 190.365 7.104C190.365 5.6 190.157 4.496 189.741 3.792C189.341 3.088 188.717 2.736 187.869 2.736C187.021 2.736 186.389 3.088 185.973 3.792C185.573 4.496 185.373 5.6 185.373 7.104C185.373 8.608 185.573 9.712 185.973 10.416C186.389 11.12 187.021 11.472 187.869 11.472ZM187.869 12.432C186.637 12.432 185.693 11.984 185.037 11.088C184.381 10.176 184.053 8.848 184.053 7.104C184.053 5.36 184.381 4.04 185.037 3.144C185.693 2.232 186.637 1.776 187.869 1.776C189.101 1.776 190.045 2.232 190.701 3.144C191.357 4.04 191.685 5.36 191.685 7.104C191.685 8.848 191.357 10.176 190.701 11.088C190.045 11.984 189.101 12.432 187.869 12.432ZM200.157 17.736C201.005 17.736 201.629 17.384 202.029 16.68C202.445 15.976 202.653 14.872 202.653 13.368C202.653 11.864 202.445 10.76 202.029 10.056C201.629 9.352 201.005 9 200.157 9C199.309 9 198.677 9.352 198.261 10.056C197.861 10.76 197.661 11.864 197.661 13.368C197.661 14.872 197.861 15.976 198.261 16.68C198.677 17.384 199.309 17.736 200.157 17.736ZM200.157 18.696C198.925 18.696 197.981 18.248 197.325 17.352C196.669 16.44 196.341 15.112 196.341 13.368C196.341 11.624 196.669 10.304 197.325 9.408C197.981 8.496 198.925 8.04 200.157 8.04C201.389 8.04 202.333 8.496 202.989 9.408C203.645 10.304 203.973 11.624 203.973 13.368C203.973 15.112 203.645 16.44 202.989 17.352C202.333 18.248 201.389 18.696 200.157 18.696ZM220.944 18.024C219.888 18.552 218.736 18.816 217.488 18.816C215.792 18.816 214.48 18.264 213.552 17.16C212.64 16.056 212.184 14.48 212.184 12.432C212.184 10.384 212.64 8.808 213.552 7.704C214.48 6.584 215.792 6.024 217.488 6.024C218.688 6.024 219.824 6.288 220.896 6.816V7.944C219.776 7.448 218.688 7.2 217.632 7.2C216.336 7.2 215.352 7.64 214.68 8.52C214.024 9.4 213.696 10.704 213.696 12.432C213.696 14.144 214.024 15.44 214.68 16.32C215.352 17.2 216.336 17.64 217.632 17.64C218.72 17.64 219.824 17.392 220.944 16.896V18.024ZM231.43 18.504L231.334 17.664C229.958 18.432 228.598 18.816 227.254 18.816C226.022 18.816 225.046 18.496 224.326 17.856C223.606 17.2 223.246 16.304 223.246 15.168C223.246 13.968 223.646 13.056 224.446 12.432C225.262 11.792 226.454 11.472 228.022 11.472C228.966 11.472 230.038 11.584 231.238 11.808V10.176C231.238 8.176 230.11 7.176 227.854 7.176C227.262 7.176 226.614 7.256 225.91 7.416C225.206 7.576 224.558 7.784 223.966 8.04V6.912C224.542 6.64 225.198 6.424 225.934 6.264C226.686 6.104 227.398 6.024 228.07 6.024C229.574 6.024 230.71 6.384 231.478 7.104C232.262 7.808 232.654 8.832 232.654 10.176V18.384L231.43 18.504ZM227.59 17.664C228.166 17.664 228.774 17.576 229.414 17.4C230.054 17.224 230.662 16.984 231.238 16.68V12.84C230.23 12.648 229.238 12.552 228.262 12.552C227.03 12.552 226.134 12.76 225.574 13.176C225.014 13.592 224.734 14.248 224.734 15.144C224.734 16.824 225.686 17.664 227.59 17.664ZM235.571 16.872C236.771 17.4 238.011 17.664 239.291 17.664C241.451 17.664 242.531 16.824 242.531 15.144C242.531 14.6 242.371 14.16 242.051 13.824C241.747 13.488 241.235 13.208 240.515 12.984L238.691 12.408C237.667 12.088 236.923 11.688 236.459 11.208C235.995 10.712 235.763 10.088 235.763 9.336C235.763 8.328 236.155 7.528 236.939 6.936C237.739 6.328 238.811 6.024 240.155 6.024C241.291 6.024 242.371 6.24 243.395 6.672V7.8C242.323 7.384 241.267 7.176 240.227 7.176C239.283 7.176 238.539 7.368 237.995 7.752C237.467 8.12 237.203 8.632 237.203 9.288C237.203 9.752 237.347 10.128 237.635 10.416C237.939 10.688 238.475 10.952 239.243 11.208L241.139 11.832C242.115 12.152 242.827 12.576 243.275 13.104C243.739 13.632 243.971 14.304 243.971 15.12C243.971 16.304 243.571 17.216 242.771 17.856C241.971 18.496 240.843 18.816 239.387 18.816C238.043 18.816 236.835 18.568 235.763 18.072L235.571 16.872ZM247.077 18.456V0.432L248.517 0.24V7.128C249.861 6.392 251.181 6.024 252.477 6.024C253.773 6.024 254.773 6.36 255.477 7.032C256.197 7.704 256.557 8.656 256.557 9.888V18.456H255.117V10.128C255.117 8.16 254.117 7.176 252.117 7.176C251.589 7.176 251.005 7.264 250.365 7.44C249.741 7.616 249.125 7.856 248.517 8.16V18.456H247.077ZM267.853 7.104C268.461 6.768 269.077 6.504 269.701 6.312C270.341 6.12 270.933 6.024 271.477 6.024C273.045 6.024 274.277 6.576 275.173 7.68C276.069 8.768 276.517 10.28 276.517 12.216C276.517 14.344 276.005 15.976 274.981 17.112C273.973 18.248 272.509 18.816 270.589 18.816C269.229 18.816 267.837 18.592 266.413 18.144V0.432L267.853 0.24V7.104ZM271.285 7.176C270.757 7.176 270.189 7.264 269.581 7.44C268.973 7.616 268.397 7.856 267.853 8.16V17.28C268.685 17.536 269.557 17.664 270.469 17.664C272.005 17.664 273.141 17.224 273.877 16.344C274.629 15.448 275.005 14.08 275.005 12.24C275.005 10.592 274.685 9.336 274.045 8.472C273.421 7.608 272.501 7.176 271.285 7.176ZM287.141 18.504L287.045 17.664C285.669 18.432 284.309 18.816 282.965 18.816C281.733 18.816 280.757 18.496 280.037 17.856C279.317 17.2 278.957 16.304 278.957 15.168C278.957 13.968 279.357 13.056 280.157 12.432C280.973 11.792 282.165 11.472 283.733 11.472C284.677 11.472 285.749 11.584 286.949 11.808V10.176C286.949 8.176 285.821 7.176 283.565 7.176C282.973 7.176 282.325 7.256 281.621 7.416C280.917 7.576 280.269 7.784 279.677 8.04V6.912C280.253 6.64 280.909 6.424 281.645 6.264C282.397 6.104 283.109 6.024 283.781 6.024C285.285 6.024 286.421 6.384 287.189 7.104C287.973 7.808 288.365 8.832 288.365 10.176V18.384L287.141 18.504ZM283.301 17.664C283.877 17.664 284.485 17.576 285.125 17.4C285.765 17.224 286.373 16.984 286.949 16.68V12.84C285.941 12.648 284.949 12.552 283.973 12.552C282.741 12.552 281.845 12.76 281.285 13.176C280.725 13.592 280.445 14.248 280.445 15.144C280.445 16.824 281.397 17.664 283.301 17.664ZM300.186 18.024C299.13 18.552 297.978 18.816 296.73 18.816C295.034 18.816 293.722 18.264 292.794 17.16C291.882 16.056 291.426 14.48 291.426 12.432C291.426 10.384 291.882 8.808 292.794 7.704C293.722 6.584 295.034 6.024 296.73 6.024C297.93 6.024 299.066 6.288 300.138 6.816V7.944C299.018 7.448 297.93 7.2 296.874 7.2C295.578 7.2 294.594 7.64 293.922 8.52C293.266 9.4 292.938 10.704 292.938 12.432C292.938 14.144 293.266 15.44 293.922 16.32C294.594 17.2 295.578 17.64 296.874 17.64C297.962 17.64 299.066 17.392 300.186 16.896V18.024ZM303.28 18.456V0.432L304.72 0.24V11.736L310.384 6.384H312.088L306.16 12L312.28 18.456H310.456L304.72 12.36V18.456H303.28ZM324.807 18.816C323.063 18.816 321.743 18.28 320.847 17.208C319.967 16.12 319.527 14.52 319.527 12.408C319.527 10.312 319.967 8.728 320.847 7.656C321.743 6.568 323.063 6.024 324.807 6.024C326.551 6.024 327.863 6.568 328.743 7.656C329.639 8.728 330.087 10.312 330.087 12.408C330.087 14.52 329.639 16.12 328.743 17.208C327.863 18.28 326.551 18.816 324.807 18.816ZM324.807 17.664C326.119 17.664 327.071 17.248 327.663 16.416C328.271 15.568 328.575 14.232 328.575 12.408C328.575 10.6 328.271 9.28 327.663 8.448C327.071 7.6 326.119 7.176 324.807 7.176C323.495 7.176 322.535 7.6 321.927 8.448C321.335 9.28 321.039 10.6 321.039 12.408C321.039 14.232 321.335 15.568 321.927 16.416C322.535 17.248 323.495 17.664 324.807 17.664ZM341.367 18.456V10.128C341.367 8.16 340.367 7.176 338.367 7.176C337.839 7.176 337.255 7.264 336.615 7.44C335.991 7.616 335.375 7.856 334.767 8.16V18.456H333.327V6.456L334.551 6.336L334.647 7.176C336.039 6.408 337.399 6.024 338.727 6.024C340.023 6.024 341.023 6.36 341.727 7.032C342.447 7.704 342.807 8.656 342.807 9.888V18.456H341.367ZM352.999 18.456V7.488H351.175V6.456L352.999 6.384V3.672C352.999 2.488 353.287 1.584 353.863 0.960001C354.455 0.32 355.311 0 356.431 0C357.039 0 357.655 0.112 358.279 0.336V1.392C357.703 1.216 357.151 1.128 356.623 1.128C355.871 1.128 355.319 1.328 354.967 1.728C354.615 2.112 354.439 2.72 354.439 3.552V6.384H357.679V7.488H354.439V18.456H352.999ZM364.604 18.816C362.86 18.816 361.54 18.28 360.644 17.208C359.764 16.12 359.324 14.52 359.324 12.408C359.324 10.312 359.764 8.728 360.644 7.656C361.54 6.568 362.86 6.024 364.604 6.024C366.348 6.024 367.66 6.568 368.54 7.656C369.436 8.728 369.884 10.312 369.884 12.408C369.884 14.52 369.436 16.12 368.54 17.208C367.66 18.28 366.348 18.816 364.604 18.816ZM364.604 17.664C365.916 17.664 366.868 17.248 367.46 16.416C368.068 15.568 368.372 14.232 368.372 12.408C368.372 10.6 368.068 9.28 367.46 8.448C366.868 7.6 365.916 7.176 364.604 7.176C363.292 7.176 362.332 7.6 361.724 8.448C361.132 9.28 360.836 10.6 360.836 12.408C360.836 14.232 361.132 15.568 361.724 16.416C362.332 17.248 363.292 17.664 364.604 17.664ZM377.612 18.816C375.868 18.816 374.548 18.28 373.652 17.208C372.772 16.12 372.332 14.52 372.332 12.408C372.332 10.312 372.772 8.728 373.652 7.656C374.548 6.568 375.868 6.024 377.612 6.024C379.356 6.024 380.668 6.568 381.548 7.656C382.444 8.728 382.892 10.312 382.892 12.408C382.892 14.52 382.444 16.12 381.548 17.208C380.668 18.28 379.356 18.816 377.612 18.816ZM377.612 17.664C378.924 17.664 379.876 17.248 380.468 16.416C381.076 15.568 381.38 14.232 381.38 12.408C381.38 10.6 381.076 9.28 380.468 8.448C379.876 7.6 378.924 7.176 377.612 7.176C376.3 7.176 375.34 7.6 374.732 8.448C374.14 9.28 373.844 10.6 373.844 12.408C373.844 14.232 374.14 15.568 374.732 16.416C375.34 17.248 376.3 17.664 377.612 17.664ZM395.444 0.24V18.384L394.22 18.504L394.124 17.664C392.764 18.432 391.516 18.816 390.38 18.816C388.812 18.816 387.58 18.272 386.684 17.184C385.788 16.08 385.34 14.56 385.34 12.624C385.34 10.496 385.844 8.864 386.852 7.728C387.876 6.592 389.348 6.024 391.268 6.024C392.26 6.024 393.172 6.152 394.004 6.408V0.432L395.444 0.24ZM390.572 17.664C391.1 17.664 391.668 17.576 392.276 17.4C392.884 17.224 393.46 16.984 394.004 16.68V7.56C393.172 7.304 392.3 7.176 391.388 7.176C389.852 7.176 388.708 7.624 387.956 8.52C387.22 9.4 386.852 10.76 386.852 12.6C386.852 14.248 387.164 15.504 387.788 16.368C388.428 17.232 389.356 17.664 390.572 17.664ZM412.86 18.504L412.764 17.664C411.388 18.432 410.028 18.816 408.684 18.816C407.452 18.816 406.476 18.496 405.756 17.856C405.036 17.2 404.676 16.304 404.676 15.168C404.676 13.968 405.076 13.056 405.876 12.432C406.692 11.792 407.884 11.472 409.452 11.472C410.396 11.472 411.468 11.584 412.668 11.808V10.176C412.668 8.176 411.54 7.176 409.284 7.176C408.692 7.176 408.044 7.256 407.34 7.416C406.636 7.576 405.988 7.784 405.396 8.04V6.912C405.972 6.64 406.628 6.424 407.364 6.264C408.116 6.104 408.828 6.024 409.5 6.024C411.004 6.024 412.14 6.384 412.908 7.104C413.692 7.808 414.084 8.832 414.084 10.176V18.384L412.86 18.504ZM409.02 17.664C409.596 17.664 410.204 17.576 410.844 17.4C411.484 17.224 412.092 16.984 412.668 16.68V12.84C411.66 12.648 410.668 12.552 409.692 12.552C408.46 12.552 407.564 12.76 407.004 13.176C406.444 13.592 406.164 14.248 406.164 15.144C406.164 16.824 407.116 17.664 409.02 17.664ZM425.977 18.456V10.128C425.977 8.16 424.977 7.176 422.977 7.176C422.449 7.176 421.865 7.264 421.225 7.44C420.601 7.616 419.985 7.856 419.377 8.16V18.456H417.937V6.456L419.161 6.336L419.257 7.176C420.649 6.408 422.009 6.024 423.337 6.024C424.633 6.024 425.633 6.36 426.337 7.032C427.057 7.704 427.417 8.656 427.417 9.888V18.456H425.977ZM440.584 0.24V18.384L439.36 18.504L439.264 17.664C437.904 18.432 436.656 18.816 435.52 18.816C433.952 18.816 432.72 18.272 431.824 17.184C430.928 16.08 430.48 14.56 430.48 12.624C430.48 10.496 430.984 8.864 431.992 7.728C433.016 6.592 434.488 6.024 436.408 6.024C437.4 6.024 438.312 6.152 439.144 6.408V0.432L440.584 0.24ZM435.712 17.664C436.24 17.664 436.808 17.576 437.416 17.4C438.024 17.224 438.6 16.984 439.144 16.68V7.56C438.312 7.304 437.44 7.176 436.528 7.176C434.992 7.176 433.848 7.624 433.096 8.52C432.36 9.4 431.992 10.76 431.992 12.6C431.992 14.248 432.304 15.504 432.928 16.368C433.568 17.232 434.496 17.664 435.712 17.664ZM450.944 18.456V7.488H449.12V6.456L450.944 6.384V3.672C450.944 2.488 451.232 1.584 451.808 0.960001C452.4 0.32 453.256 0 454.376 0C454.984 0 455.6 0.112 456.224 0.336V1.392C455.648 1.216 455.096 1.128 454.568 1.128C453.816 1.128 453.264 1.328 452.912 1.728C452.56 2.112 452.384 2.72 452.384 3.552V6.384H455.624V7.488H452.384V18.456H450.944ZM459.568 6.384V14.712C459.568 16.68 460.536 17.664 462.472 17.664C463 17.664 463.576 17.576 464.2 17.4C464.84 17.224 465.464 16.984 466.072 16.68V6.384H467.512V18.384L466.288 18.504L466.192 17.664C464.8 18.432 463.44 18.816 462.112 18.816C460.848 18.816 459.864 18.48 459.16 17.808C458.472 17.12 458.128 16.168 458.128 14.952V6.384H459.568ZM479.578 18.456V10.128C479.578 8.16 478.578 7.176 476.578 7.176C476.05 7.176 475.466 7.264 474.826 7.44C474.202 7.616 473.586 7.856 472.978 8.16V18.456H471.538V6.456L472.762 6.336L472.858 7.176C474.25 6.408 475.61 6.024 476.938 6.024C478.234 6.024 479.234 6.36 479.938 7.032C480.658 7.704 481.018 8.656 481.018 9.888V18.456H479.578ZM500.714 18.456L497.474 7.992L494.33 18.456H492.962L489.122 6.384H490.586L493.658 16.68L496.682 6.384H498.29L501.362 16.752L504.41 6.384H505.802L502.082 18.456H500.714ZM508.077 18.456V6.504L509.517 6.312V18.456H508.077ZM508.797 3.456C508.477 3.456 508.213 3.36 508.005 3.168C507.813 2.976 507.717 2.712 507.717 2.376C507.717 2.04 507.813 1.776 508.005 1.584C508.213 1.392 508.477 1.296 508.797 1.296C509.117 1.296 509.373 1.392 509.565 1.584C509.773 1.776 509.877 2.04 509.877 2.376C509.877 2.712 509.773 2.976 509.565 3.168C509.373 3.36 509.117 3.456 508.797 3.456ZM515.314 7.488V15.168C515.314 16 515.49 16.616 515.842 17.016C516.194 17.4 516.738 17.592 517.474 17.592C517.954 17.592 518.498 17.504 519.106 17.328V18.384C518.434 18.608 517.818 18.72 517.258 18.72C516.154 18.72 515.314 18.424 514.738 17.832C514.162 17.224 513.874 16.328 513.874 15.144V7.488H512.05V6.456L513.922 6.384L514.066 3.36L515.314 3.216V6.384H518.938V7.488H515.314ZM521.601 18.456V0.432L523.041 0.24V7.128C524.385 6.392 525.705 6.024 527.001 6.024C528.297 6.024 529.297 6.36 530.001 7.032C530.721 7.704 531.081 8.656 531.081 9.888V18.456H529.641V10.128C529.641 8.16 528.641 7.176 526.641 7.176C526.113 7.176 525.529 7.264 524.889 7.44C524.265 7.616 523.649 7.856 523.041 8.16V18.456H521.601ZM539.977 16.488C541.657 17.224 543.249 17.592 544.753 17.592C546.177 17.592 547.273 17.28 548.041 16.656C548.825 16.016 549.217 15.104 549.217 13.92C549.217 13.024 548.961 12.304 548.449 11.76C547.937 11.216 547.081 10.76 545.881 10.392L544.177 9.864C542.865 9.464 541.905 8.944 541.297 8.304C540.689 7.648 540.385 6.816 540.385 5.808C540.385 4.448 540.897 3.36 541.921 2.544C542.961 1.712 544.345 1.296 546.073 1.296C547.465 1.296 548.809 1.592 550.105 2.184V3.384C548.729 2.808 547.401 2.52 546.121 2.52C544.809 2.52 543.785 2.808 543.049 3.384C542.313 3.944 541.945 4.736 541.945 5.76C541.945 6.48 542.153 7.048 542.569 7.464C542.985 7.88 543.713 8.256 544.753 8.592L546.457 9.144C547.993 9.64 549.097 10.264 549.769 11.016C550.441 11.752 550.777 12.712 550.777 13.896C550.777 15.416 550.241 16.616 549.169 17.496C548.113 18.376 546.665 18.816 544.825 18.816C543.129 18.816 541.593 18.472 540.217 17.784L539.977 16.488ZM561.243 18.504L561.147 17.664C559.771 18.432 558.411 18.816 557.067 18.816C555.835 18.816 554.859 18.496 554.139 17.856C553.419 17.2 553.059 16.304 553.059 15.168C553.059 13.968 553.459 13.056 554.259 12.432C555.075 11.792 556.267 11.472 557.835 11.472C558.779 11.472 559.851 11.584 561.051 11.808V10.176C561.051 8.176 559.923 7.176 557.667 7.176C557.075 7.176 556.427 7.256 555.723 7.416C555.019 7.576 554.371 7.784 553.779 8.04V6.912C554.355 6.64 555.011 6.424 555.747 6.264C556.499 6.104 557.211 6.024 557.883 6.024C559.387 6.024 560.523 6.384 561.291 7.104C562.075 7.808 562.467 8.832 562.467 10.176V18.384L561.243 18.504ZM557.403 17.664C557.979 17.664 558.587 17.576 559.227 17.4C559.867 17.224 560.475 16.984 561.051 16.68V12.84C560.043 12.648 559.051 12.552 558.075 12.552C556.843 12.552 555.947 12.76 555.387 13.176C554.827 13.592 554.547 14.248 554.547 15.144C554.547 16.824 555.499 17.664 557.403 17.664ZM569.055 18.456L564.495 6.384H566.007L569.775 16.92L573.663 6.384H575.103L570.447 18.456H569.055ZM581.565 18.816C579.821 18.816 578.501 18.28 577.605 17.208C576.725 16.12 576.285 14.52 576.285 12.408C576.285 10.312 576.725 8.728 577.605 7.656C578.501 6.568 579.821 6.024 581.565 6.024C583.309 6.024 584.621 6.568 585.501 7.656C586.397 8.728 586.845 10.312 586.845 12.408C586.845 14.52 586.397 16.12 585.501 17.208C584.621 18.28 583.309 18.816 581.565 18.816ZM581.565 17.664C582.877 17.664 583.829 17.248 584.421 16.416C585.029 15.568 585.333 14.232 585.333 12.408C585.333 10.6 585.029 9.28 584.421 8.448C583.829 7.6 582.877 7.176 581.565 7.176C580.253 7.176 579.293 7.6 578.685 8.448C578.093 9.28 577.797 10.6 577.797 12.408C577.797 14.232 578.093 15.568 578.685 16.416C579.293 17.248 580.253 17.664 581.565 17.664ZM590.085 18.456V6.456L591.309 6.336L591.429 7.416C592.501 6.536 593.645 6.096 594.861 6.096C595.293 6.096 595.637 6.144 595.893 6.24V7.416C595.477 7.32 595.109 7.272 594.789 7.272C593.653 7.272 592.565 7.68 591.525 8.496V18.456H590.085Z" fill="#013D5B"/>
</svg>
