<svg width="91" height="14" viewBox="0 0 91 14" fill="none" xmlns="http://www.w3.org/2000/svg">
<path d="M0 13.0667V0H1.78238V11.5733H7.69913V13.0667H0Z" fill="#013D5B"/>
<path d="M16.2892 12.712C15.4439 13.1351 14.5006 13.3467 13.4594 13.3467C11.9404 13.3467 10.7828 12.9173 9.98652 12.0587C9.19028 11.2 8.79215 9.94311 8.79215 8.288C8.79215 7.26756 8.96978 6.384 9.32503 5.63733C9.68027 4.87822 10.1764 4.29956 10.8134 3.90133C11.4504 3.50311 12.1793 3.304 13 3.304C14.1515 3.304 15.058 3.65245 15.7195 4.34933C16.381 5.04622 16.7118 6.01067 16.7118 7.24267C16.7118 7.728 16.6689 8.20711 16.5831 8.68H10.501C10.5378 10.8827 11.5913 11.984 13.6615 11.984C14.5558 11.984 15.4316 11.7849 16.2892 11.3867V12.712ZM13 4.592C12.2895 4.592 11.7077 4.84711 11.2544 5.35733C10.8134 5.86756 10.5623 6.55822 10.501 7.42933H15.1131C15.1254 7.36711 15.1315 7.30489 15.1315 7.24267C15.1315 7.18044 15.1315 7.11822 15.1315 7.056C15.1315 6.28444 14.9417 5.68089 14.5619 5.24533C14.1944 4.80978 13.6738 4.592 13 4.592Z" fill="#013D5B"/>
<path d="M24.7129 13.104L24.6027 12.4507C23.5737 13.048 22.5753 13.3467 21.6076 13.3467C20.6398 13.3467 19.8681 13.0853 19.2923 12.5627C18.7288 12.0276 18.4471 11.312 18.4471 10.416C18.4471 9.48267 18.7656 8.76089 19.4026 8.25067C20.0396 7.728 20.9338 7.46667 22.0853 7.46667C22.7591 7.46667 23.5369 7.54756 24.4189 7.70933V6.72C24.4189 6.03556 24.2229 5.52533 23.8309 5.18933C23.4512 4.85333 22.8632 4.68533 22.0669 4.68533C21.1359 4.68533 20.1192 4.90311 19.0167 5.33867V3.976C19.5312 3.76444 20.0886 3.60267 20.6888 3.49067C21.2891 3.36622 21.8587 3.304 22.3977 3.304C23.6104 3.304 24.5292 3.59022 25.1539 4.16267C25.7909 4.73511 26.1094 5.57511 26.1094 6.68267V12.9547L24.7129 13.104ZM22.0486 11.984C22.4038 11.984 22.8019 11.9218 23.2429 11.7973C23.6839 11.6729 24.0759 11.5111 24.4189 11.312V8.92267C23.8432 8.77333 23.1633 8.69867 22.3793 8.69867C21.6443 8.69867 21.0992 8.84178 20.7439 9.128C20.4009 9.40178 20.2294 9.81867 20.2294 10.3787C20.2294 11.4489 20.8358 11.984 22.0486 11.984Z" fill="#013D5B"/>
<path d="M28.7951 13.0667V3.696L30.1916 3.54667L30.3386 4.40533C31.1471 3.70844 32.0107 3.36 32.9294 3.36C33.2112 3.36 33.4929 3.40356 33.7747 3.49067V4.928C33.4807 4.85333 33.1806 4.816 32.8743 4.816C31.9923 4.816 31.2083 5.096 30.5223 5.656V13.0667H28.7951Z" fill="#013D5B"/>
<path d="M41.4781 13.0667V6.68267C41.4781 5.35111 40.8289 4.68533 39.5304 4.68533C39.1874 4.68533 38.8015 4.74756 38.3727 4.872C37.9562 4.984 37.5765 5.13956 37.2335 5.33867V13.0667H35.5062V3.696L36.9027 3.54667L37.013 4.2C38.0175 3.60267 39.0159 3.304 40.0081 3.304C41.0249 3.304 41.8089 3.57778 42.3601 4.12533C42.9236 4.66044 43.2054 5.42578 43.2054 6.42133V13.0667H41.4781Z" fill="#013D5B"/>
<path d="M56.2963 11.928L52.7131 2.55733L52.0149 13.0667H50.3244L51.335 0H53.3379L57.0313 9.66933L60.7246 0H62.7275L63.7381 13.0667H62.0293L61.3126 2.55733L57.7479 11.928H56.2963Z" fill="#013D5B"/>
<path d="M70.0639 11.9653C70.9214 11.9653 71.54 11.6791 71.9198 11.1067C72.3118 10.5342 72.5078 9.60711 72.5078 8.32533C72.5078 7.04356 72.3118 6.11644 71.9198 5.544C71.54 4.97156 70.9214 4.68533 70.0639 4.68533C69.2064 4.68533 68.5816 4.97156 68.1896 5.544C67.8099 6.11644 67.62 7.04356 67.62 8.32533C67.62 9.60711 67.8099 10.5342 68.1896 11.1067C68.5816 11.6791 69.2064 11.9653 70.0639 11.9653ZM70.0639 13.3467C68.6674 13.3467 67.6078 12.9236 66.885 12.0773C66.1745 11.2187 65.8193 9.968 65.8193 8.32533C65.8193 6.68267 66.1745 5.43822 66.885 4.592C67.6078 3.73333 68.6674 3.304 70.0639 3.304C71.4604 3.304 72.5139 3.73333 73.2244 4.592C73.9471 5.43822 74.3085 6.68267 74.3085 8.32533C74.3085 9.968 73.9471 11.2187 73.2244 12.0773C72.5139 12.9236 71.4604 13.3467 70.0639 13.3467Z" fill="#013D5B"/>
<path d="M76.5449 13.0667V3.696L77.9414 3.54667L78.0884 4.40533C78.8969 3.70844 79.7606 3.36 80.6793 3.36C80.9611 3.36 81.2428 3.40356 81.5246 3.49067V4.928C81.2306 4.85333 80.9304 4.816 80.6242 4.816C79.7422 4.816 78.9582 5.096 78.2722 5.656V13.0667H76.5449Z" fill="#013D5B"/>
<path d="M90.0224 12.712C89.1772 13.1351 88.2339 13.3467 87.1927 13.3467C85.6737 13.3467 84.5161 12.9173 83.7198 12.0587C82.9236 11.2 82.5254 9.94311 82.5254 8.288C82.5254 7.26756 82.7031 6.384 83.0583 5.63733C83.4136 4.87822 83.9097 4.29956 84.5467 3.90133C85.1837 3.50311 85.9125 3.304 86.7333 3.304C87.8848 3.304 88.7913 3.65245 89.4528 4.34933C90.1143 5.04622 90.4451 6.01067 90.4451 7.24267C90.4451 7.728 90.4022 8.20711 90.3164 8.68H84.2343C84.271 10.8827 85.3246 11.984 87.3948 11.984C88.2891 11.984 89.1649 11.7849 90.0224 11.3867V12.712ZM86.7333 4.592C86.0228 4.592 85.4409 4.84711 84.9877 5.35733C84.5467 5.86756 84.2955 6.55822 84.2343 7.42933H88.8464C88.8587 7.36711 88.8648 7.30489 88.8648 7.24267C88.8648 7.18044 88.8648 7.11822 88.8648 7.056C88.8648 6.28444 88.6749 5.68089 88.2952 5.24533C87.9277 4.80978 87.407 4.592 86.7333 4.592Z" fill="#013D5B"/>
</svg>
