<svg width="665" height="37" viewBox="0 0 665 37" fill="none" xmlns="http://www.w3.org/2000/svg">
<path d="M651.716 25.308C653.516 26.1 655.376 26.496 657.296 26.496C660.536 26.496 662.156 25.236 662.156 22.716C662.156 21.9 661.916 21.24 661.436 20.736C660.98 20.232 660.212 19.812 659.132 19.476L656.396 18.612C654.86 18.132 653.744 17.532 653.048 16.812C652.352 16.068 652.004 15.132 652.004 14.004C652.004 12.492 652.592 11.292 653.768 10.404C654.968 9.492 656.576 9.036 658.592 9.036C660.296 9.036 661.916 9.36 663.452 10.008V11.7C661.844 11.076 660.26 10.764 658.7 10.764C657.284 10.764 656.168 11.052 655.352 11.628C654.56 12.18 654.164 12.948 654.164 13.932C654.164 14.628 654.38 15.192 654.812 15.624C655.268 16.032 656.072 16.428 657.224 16.812L660.068 17.748C661.532 18.228 662.6 18.864 663.272 19.656C663.968 20.448 664.316 21.456 664.316 22.68C664.316 24.456 663.716 25.824 662.516 26.784C661.316 27.744 659.624 28.224 657.44 28.224C655.424 28.224 653.612 27.852 652.004 27.108L651.716 25.308Z" fill="#013D5B"/>
<path d="M643.69 11.232V22.752C643.69 24 643.954 24.924 644.482 25.524C645.01 26.1 645.826 26.388 646.93 26.388C647.65 26.388 648.466 26.256 649.378 25.992V27.576C648.37 27.912 647.446 28.08 646.606 28.08C644.95 28.08 643.69 27.636 642.826 26.748C641.962 25.836 641.53 24.492 641.53 22.716V11.232H638.794V9.684L641.602 9.576L641.818 5.04L643.69 4.824V9.576H649.126V11.232H643.69Z" fill="#013D5B"/>
<path d="M633.082 27.684V15.192C633.082 12.24 631.582 10.764 628.582 10.764C627.79 10.764 626.914 10.896 625.954 11.16C625.018 11.424 624.094 11.784 623.182 12.24V27.684H621.022V9.684L622.858 9.504L623.003 10.764C625.091 9.612 627.13 9.036 629.122 9.036C631.066 9.036 632.566 9.54 633.622 10.548C634.702 11.556 635.242 12.984 635.242 14.832V27.684H633.082Z" fill="#013D5B"/>
<path d="M603.067 9.576V22.068C603.067 25.02 604.519 26.496 607.423 26.496C608.215 26.496 609.079 26.364 610.015 26.1C610.975 25.836 611.911 25.476 612.823 25.02V9.576H614.983V27.576L613.147 27.756L613.003 26.496C610.915 27.648 608.875 28.224 606.883 28.224C604.987 28.224 603.511 27.72 602.455 26.712C601.423 25.68 600.907 24.252 600.907 22.428V9.576H603.067Z" fill="#013D5B"/>
<path d="M588.379 28.224C585.763 28.224 583.783 27.42 582.439 25.812C581.119 24.18 580.459 21.78 580.459 18.612C580.459 15.468 581.119 13.092 582.439 11.484C583.783 9.852 585.763 9.036 588.379 9.036C590.995 9.036 592.963 9.852 594.283 11.484C595.627 13.092 596.299 15.468 596.299 18.612C596.299 21.78 595.627 24.18 594.283 25.812C592.963 27.42 590.995 28.224 588.379 28.224ZM588.379 26.496C590.347 26.496 591.775 25.872 592.663 24.624C593.575 23.352 594.031 21.348 594.031 18.612C594.031 15.9 593.575 13.92 592.663 12.672C591.775 11.4 590.347 10.764 588.379 10.764C586.411 10.764 584.971 11.4 584.059 12.672C583.171 13.92 582.727 15.9 582.727 18.612C582.727 21.348 583.171 23.352 584.059 24.624C584.971 25.872 586.411 26.496 588.379 26.496Z" fill="#013D5B"/>
<path d="M577.357 27.036C575.773 27.828 574.045 28.224 572.173 28.224C569.629 28.224 567.661 27.396 566.269 25.74C564.901 24.084 564.217 21.72 564.217 18.648C564.217 15.576 564.901 13.212 566.269 11.556C567.661 9.876 569.629 9.036 572.173 9.036C573.973 9.036 575.677 9.432 577.285 10.224V11.916C575.605 11.172 573.973 10.8 572.389 10.8C570.445 10.8 568.969 11.46 567.961 12.78C566.977 14.1 566.485 16.056 566.485 18.648C566.485 21.216 566.977 23.16 567.961 24.48C568.969 25.8 570.445 26.46 572.389 26.46C574.021 26.46 575.677 26.088 577.357 25.344V27.036Z" fill="#013D5B"/>
<path d="M561.115 27.036C559.531 27.828 557.803 28.224 555.931 28.224C553.387 28.224 551.419 27.396 550.027 25.74C548.659 24.084 547.975 21.72 547.975 18.648C547.975 15.576 548.659 13.212 550.027 11.556C551.419 9.876 553.387 9.036 555.931 9.036C557.731 9.036 559.435 9.432 561.043 10.224V11.916C559.363 11.172 557.731 10.8 556.147 10.8C554.203 10.8 552.727 11.46 551.719 12.78C550.735 14.1 550.243 16.056 550.243 18.648C550.243 21.216 550.735 23.16 551.719 24.48C552.727 25.8 554.203 26.46 556.147 26.46C557.779 26.46 559.435 26.088 561.115 25.344V27.036Z" fill="#013D5B"/>
<path d="M541.548 27.756L541.404 26.496C539.34 27.648 537.3 28.224 535.284 28.224C533.436 28.224 531.972 27.744 530.892 26.784C529.812 25.8 529.272 24.456 529.272 22.752C529.272 20.952 529.872 19.584 531.072 18.648C532.296 17.688 534.084 17.208 536.436 17.208C537.852 17.208 539.46 17.376 541.26 17.712V15.264C541.26 12.264 539.568 10.764 536.184 10.764C535.296 10.764 534.324 10.884 533.268 11.124C532.212 11.364 531.24 11.676 530.352 12.06V10.368C531.216 9.96 532.2 9.636 533.304 9.396C534.432 9.156 535.5 9.036 536.508 9.036C538.764 9.036 540.468 9.576 541.62 10.656C542.796 11.712 543.384 13.248 543.384 15.264V27.576L541.548 27.756ZM535.788 26.496C536.652 26.496 537.564 26.364 538.524 26.1C539.484 25.836 540.396 25.476 541.26 25.02V19.26C539.748 18.972 538.26 18.828 536.796 18.828C534.948 18.828 533.604 19.14 532.764 19.764C531.924 20.388 531.504 21.372 531.504 22.716C531.504 25.236 532.932 26.496 535.788 26.496Z" fill="#013D5B"/>
<path d="M507.36 36.072C505.224 36.072 503.412 35.7 501.924 34.956L501.636 33.12C503.604 33.936 505.476 34.344 507.252 34.344C511.26 34.344 513.264 32.484 513.264 28.764V26.28C512.352 26.784 511.416 27.18 510.456 27.468C509.52 27.756 508.644 27.9 507.828 27.9C505.476 27.9 503.628 27.108 502.284 25.524C500.94 23.94 500.268 21.744 500.268 18.936C500.268 15.744 501.024 13.296 502.536 11.592C504.072 9.888 506.28 9.036 509.16 9.036C511.344 9.036 513.432 9.42 515.424 10.188V28.584C515.424 30.984 514.728 32.832 513.336 34.128C511.944 35.424 509.952 36.072 507.36 36.072ZM508.116 26.172C508.908 26.172 509.76 26.04 510.672 25.776C511.584 25.512 512.448 25.152 513.264 24.696V11.34C512.016 10.956 510.708 10.764 509.34 10.764C507.036 10.764 505.32 11.436 504.192 12.78C503.088 14.1 502.536 16.14 502.536 18.9C502.536 21.276 503.004 23.088 503.94 24.336C504.9 25.56 506.292 26.172 508.116 26.172Z" fill="#013D5B"/>
<path d="M493.512 27.684V15.192C493.512 12.24 492.012 10.764 489.012 10.764C488.22 10.764 487.344 10.896 486.384 11.16C485.448 11.424 484.524 11.784 483.612 12.24V27.684H481.452V9.684L483.288 9.504L483.432 10.764C485.52 9.612 487.56 9.036 489.552 9.036C491.496 9.036 492.996 9.54 494.052 10.548C495.132 11.556 495.672 12.984 495.672 14.832V27.684H493.512Z" fill="#013D5B"/>
<path d="M473.261 27.684V9.756L475.421 9.468V27.684H473.261ZM474.341 5.184C473.861 5.184 473.465 5.04 473.153 4.752C472.865 4.464 472.721 4.068 472.721 3.564C472.721 3.06 472.865 2.664 473.153 2.376C473.465 2.088 473.861 1.944 474.341 1.944C474.821 1.944 475.205 2.088 475.493 2.376C475.805 2.664 475.961 3.06 475.961 3.564C475.961 4.068 475.805 4.464 475.493 4.752C475.205 5.04 474.821 5.184 474.341 5.184Z" fill="#013D5B"/>
<path d="M456.702 27.684V0.648001L458.862 0.360001V17.604L467.358 9.576H469.914L461.022 18L470.202 27.684H467.466L458.862 18.54V27.684H456.702Z" fill="#013D5B"/>
<path d="M452.06 27.036C450.476 27.828 448.748 28.224 446.876 28.224C444.332 28.224 442.364 27.396 440.972 25.74C439.604 24.084 438.92 21.72 438.92 18.648C438.92 15.576 439.604 13.212 440.972 11.556C442.364 9.876 444.332 9.036 446.876 9.036C448.676 9.036 450.38 9.432 451.988 10.224V11.916C450.308 11.172 448.676 10.8 447.092 10.8C445.148 10.8 443.672 11.46 442.664 12.78C441.68 14.1 441.188 16.056 441.188 18.648C441.188 21.216 441.68 23.16 442.664 24.48C443.672 25.8 445.148 26.46 447.092 26.46C448.724 26.46 450.38 26.088 452.06 25.344V27.036Z" fill="#013D5B"/>
<path d="M434.501 27.036C432.845 27.828 431.069 28.224 429.173 28.224C426.413 28.224 424.289 27.408 422.801 25.776C421.313 24.144 420.569 21.804 420.569 18.756C420.569 15.732 421.265 13.356 422.657 11.628C424.049 9.9 425.957 9.036 428.381 9.036C430.517 9.036 432.197 9.708 433.421 11.052C434.669 12.372 435.293 14.184 435.293 16.488C435.293 17.352 435.221 18.18 435.077 18.972H422.693C422.717 23.988 424.937 26.496 429.353 26.496C431.129 26.496 432.845 26.112 434.501 25.344V27.036ZM428.345 10.728C426.713 10.728 425.381 11.328 424.349 12.528C423.317 13.728 422.765 15.336 422.693 17.352H433.205C433.253 16.968 433.277 16.632 433.277 16.344C433.277 14.568 432.845 13.188 431.981 12.204C431.117 11.22 429.905 10.728 428.345 10.728Z" fill="#013D5B"/>
<path d="M401.753 27.684V0.648001L403.913 0.360001V10.692C405.929 9.588 407.909 9.036 409.853 9.036C411.797 9.036 413.297 9.54 414.353 10.548C415.433 11.556 415.973 12.984 415.973 14.832V27.684H413.813V15.192C413.813 12.24 412.313 10.764 409.313 10.764C408.521 10.764 407.645 10.896 406.685 11.16C405.749 11.424 404.825 11.784 403.913 12.24V27.684H401.753Z" fill="#013D5B"/>
<path d="M397.111 27.036C395.527 27.828 393.799 28.224 391.927 28.224C389.383 28.224 387.415 27.396 386.023 25.74C384.655 24.084 383.971 21.72 383.971 18.648C383.971 15.576 384.655 13.212 386.023 11.556C387.415 9.876 389.383 9.036 391.927 9.036C393.727 9.036 395.431 9.432 397.039 10.224V11.916C395.359 11.172 393.727 10.8 392.143 10.8C390.199 10.8 388.723 11.46 387.715 12.78C386.731 14.1 386.239 16.056 386.239 18.648C386.239 21.216 386.731 23.16 387.715 24.48C388.723 25.8 390.199 26.46 392.143 26.46C393.775 26.46 395.431 26.088 397.111 25.344V27.036Z" fill="#013D5B"/>
<path d="M368.215 27.684V15.192C368.215 12.24 366.715 10.764 363.715 10.764C362.923 10.764 362.047 10.896 361.087 11.16C360.151 11.424 359.227 11.784 358.315 12.24V27.684H356.155V9.684L357.991 9.504L358.135 10.764C360.223 9.612 362.263 9.036 364.255 9.036C366.199 9.036 367.699 9.54 368.755 10.548C369.835 11.556 370.375 12.984 370.375 14.832V27.684H368.215Z" fill="#013D5B"/>
<path d="M343.376 28.224C340.76 28.224 338.78 27.42 337.436 25.812C336.116 24.18 335.456 21.78 335.456 18.612C335.456 15.468 336.116 13.092 337.436 11.484C338.78 9.852 340.76 9.036 343.376 9.036C345.992 9.036 347.96 9.852 349.28 11.484C350.624 13.092 351.296 15.468 351.296 18.612C351.296 21.78 350.624 24.18 349.28 25.812C347.96 27.42 345.992 28.224 343.376 28.224ZM343.376 26.496C345.344 26.496 346.772 25.872 347.66 24.624C348.572 23.352 349.028 21.348 349.028 18.612C349.028 15.9 348.572 13.92 347.66 12.672C346.772 11.4 345.344 10.764 343.376 10.764C341.408 10.764 339.968 11.4 339.056 12.672C338.168 13.92 337.724 15.9 337.724 18.612C337.724 21.348 338.168 23.352 339.056 24.624C339.968 25.872 341.408 26.496 343.376 26.496Z" fill="#013D5B"/>
<path d="M310.384 25.308C312.184 26.1 314.044 26.496 315.964 26.496C319.204 26.496 320.824 25.236 320.824 22.716C320.824 21.9 320.584 21.24 320.104 20.736C319.648 20.232 318.88 19.812 317.8 19.476L315.064 18.612C313.528 18.132 312.412 17.532 311.716 16.812C311.02 16.068 310.672 15.132 310.672 14.004C310.672 12.492 311.26 11.292 312.436 10.404C313.636 9.492 315.244 9.036 317.26 9.036C318.964 9.036 320.584 9.36 322.12 10.008V11.7C320.512 11.076 318.928 10.764 317.368 10.764C315.952 10.764 314.836 11.052 314.02 11.628C313.228 12.18 312.832 12.948 312.832 13.932C312.832 14.628 313.048 15.192 313.48 15.624C313.936 16.032 314.74 16.428 315.892 16.812L318.736 17.748C320.2 18.228 321.268 18.864 321.94 19.656C322.636 20.448 322.984 21.456 322.984 22.68C322.984 24.456 322.384 25.824 321.184 26.784C319.984 27.744 318.292 28.224 316.108 28.224C314.092 28.224 312.28 27.852 310.672 27.108L310.384 25.308Z" fill="#013D5B"/>
<path d="M303.823 27.684V14.832C303.823 12.12 302.539 10.764 299.971 10.764C298.483 10.764 296.779 11.304 294.859 12.384C295.051 13.032 295.147 13.728 295.147 14.472V27.684H292.987V14.832C292.987 12.12 291.703 10.764 289.135 10.764C287.695 10.764 286.087 11.256 284.311 12.24V27.684H282.151V9.684L283.987 9.504L284.131 10.764C286.171 9.612 288.019 9.036 289.675 9.036C291.787 9.036 293.311 9.732 294.247 11.124C296.575 9.732 298.663 9.036 300.511 9.036C302.263 9.036 303.607 9.504 304.543 10.44C305.503 11.376 305.983 12.72 305.983 14.472V27.684H303.823Z" fill="#013D5B"/>
<path d="M264.196 9.576V22.068C264.196 25.02 265.648 26.496 268.552 26.496C269.344 26.496 270.208 26.364 271.144 26.1C272.104 25.836 273.04 25.476 273.952 25.02V9.576H276.112V27.576L274.276 27.756L274.132 26.496C272.044 27.648 270.004 28.224 268.012 28.224C266.116 28.224 264.64 27.72 263.584 26.712C262.552 25.68 262.036 24.252 262.036 22.428V9.576H264.196Z" fill="#013D5B"/>
<path d="M254.323 27.684V14.832C254.323 12.12 253.039 10.764 250.471 10.764C248.983 10.764 247.279 11.304 245.359 12.384C245.551 13.032 245.647 13.728 245.647 14.472V27.684H243.487V14.832C243.487 12.12 242.203 10.764 239.635 10.764C238.195 10.764 236.587 11.256 234.811 12.24V27.684H232.651V9.684L234.487 9.504L234.631 10.764C236.671 9.612 238.519 9.036 240.175 9.036C242.287 9.036 243.811 9.732 244.747 11.124C247.075 9.732 249.163 9.036 251.011 9.036C252.763 9.036 254.107 9.504 255.043 10.44C256.003 11.376 256.483 12.72 256.483 14.472V27.684H254.323Z" fill="#013D5B"/>
<path d="M224.46 27.684V9.756L226.62 9.468V27.684H224.46ZM225.54 5.184C225.06 5.184 224.664 5.04 224.352 4.752C224.064 4.464 223.92 4.068 223.92 3.564C223.92 3.06 224.064 2.664 224.352 2.376C224.664 2.088 225.06 1.944 225.54 1.944C226.02 1.944 226.404 2.088 226.692 2.376C227.004 2.664 227.16 3.06 227.16 3.564C227.16 4.068 227.004 4.464 226.692 4.752C226.404 5.04 226.02 5.184 225.54 5.184Z" fill="#013D5B"/>
<path d="M216.516 27.684V15.192C216.516 12.24 215.016 10.764 212.016 10.764C211.224 10.764 210.348 10.896 209.388 11.16C208.452 11.424 207.528 11.784 206.616 12.24V27.684H204.456V9.684L206.292 9.504L206.436 10.764C208.524 9.612 210.564 9.036 212.556 9.036C214.5 9.036 216 9.54 217.056 10.548C218.136 11.556 218.676 12.984 218.676 14.832V27.684H216.516Z" fill="#013D5B"/>
<path d="M196.265 27.684V9.756L198.425 9.468V27.684H196.265ZM197.345 5.184C196.865 5.184 196.469 5.04 196.157 4.752C195.869 4.464 195.725 4.068 195.725 3.564C195.725 3.06 195.869 2.664 196.157 2.376C196.469 2.088 196.865 1.944 197.345 1.944C197.825 1.944 198.209 2.088 198.497 2.376C198.809 2.664 198.965 3.06 198.965 3.564C198.965 4.068 198.809 4.464 198.497 4.752C198.209 5.04 197.825 5.184 197.345 5.184Z" fill="#013D5B"/>
<path d="M188.3 27.684V14.832C188.3 12.12 187.016 10.764 184.448 10.764C182.96 10.764 181.256 11.304 179.336 12.384C179.528 13.032 179.624 13.728 179.624 14.472V27.684H177.464V14.832C177.464 12.12 176.18 10.764 173.612 10.764C172.172 10.764 170.564 11.256 168.788 12.24V27.684H166.628V9.684L168.464 9.504L168.608 10.764C170.648 9.612 172.496 9.036 174.152 9.036C176.264 9.036 177.788 9.732 178.724 11.124C181.052 9.732 183.14 9.036 184.988 9.036C186.74 9.036 188.084 9.504 189.02 10.44C189.98 11.376 190.46 12.72 190.46 14.472V27.684H188.3Z" fill="#013D5B"/>
<path d="M145.253 27.684V9.684L147.089 9.504L147.269 11.124C148.877 9.804 150.593 9.144 152.417 9.144C153.065 9.144 153.581 9.216 153.965 9.36V11.124C153.341 10.98 152.789 10.908 152.309 10.908C150.605 10.908 148.973 11.52 147.413 12.744V27.684H145.253Z" fill="#013D5B"/>
<path d="M132.473 28.224C129.857 28.224 127.877 27.42 126.533 25.812C125.213 24.18 124.553 21.78 124.553 18.612C124.553 15.468 125.213 13.092 126.533 11.484C127.877 9.852 129.857 9.036 132.473 9.036C135.089 9.036 137.057 9.852 138.377 11.484C139.721 13.092 140.393 15.468 140.393 18.612C140.393 21.78 139.721 24.18 138.377 25.812C137.057 27.42 135.089 28.224 132.473 28.224ZM132.473 26.496C134.441 26.496 135.869 25.872 136.757 24.624C137.669 23.352 138.125 21.348 138.125 18.612C138.125 15.9 137.669 13.92 136.757 12.672C135.869 11.4 134.441 10.764 132.473 10.764C130.505 10.764 129.065 11.4 128.153 12.672C127.265 13.92 126.821 15.9 126.821 18.612C126.821 21.348 127.265 23.352 128.153 24.624C129.065 25.872 130.505 26.496 132.473 26.496Z" fill="#013D5B"/>
<path d="M99.4819 25.308C101.282 26.1 103.142 26.496 105.062 26.496C108.302 26.496 109.922 25.236 109.922 22.716C109.922 21.9 109.682 21.24 109.202 20.736C108.746 20.232 107.978 19.812 106.898 19.476L104.162 18.612C102.626 18.132 101.51 17.532 100.814 16.812C100.118 16.068 99.7699 15.132 99.7699 14.004C99.7699 12.492 100.358 11.292 101.534 10.404C102.734 9.492 104.342 9.036 106.358 9.036C108.062 9.036 109.682 9.36 111.218 10.008V11.7C109.61 11.076 108.026 10.764 106.466 10.764C105.05 10.764 103.934 11.052 103.118 11.628C102.326 12.18 101.93 12.948 101.93 13.932C101.93 14.628 102.146 15.192 102.578 15.624C103.034 16.032 103.838 16.428 104.99 16.812L107.834 17.748C109.298 18.228 110.366 18.864 111.038 19.656C111.734 20.448 112.082 21.456 112.082 22.68C112.082 24.456 111.482 25.824 110.282 26.784C109.082 27.744 107.39 28.224 105.206 28.224C103.19 28.224 101.378 27.852 99.7699 27.108L99.4819 25.308Z" fill="#013D5B"/>
<path d="M95.2782 27.036C93.6222 27.828 91.8462 28.224 89.9502 28.224C87.1902 28.224 85.0662 27.408 83.5782 25.776C82.0902 24.144 81.3462 21.804 81.3462 18.756C81.3462 15.732 82.0422 13.356 83.4342 11.628C84.8262 9.9 86.7342 9.036 89.1582 9.036C91.2942 9.036 92.9742 9.708 94.1982 11.052C95.4462 12.372 96.0702 14.184 96.0702 16.488C96.0702 17.352 95.9982 18.18 95.8542 18.972H83.4702C83.4942 23.988 85.7142 26.496 90.1302 26.496C91.9062 26.496 93.6222 26.112 95.2782 25.344V27.036ZM89.1222 10.728C87.4902 10.728 86.1582 11.328 85.1262 12.528C84.0942 13.728 83.5422 15.336 83.4702 17.352H93.9822C94.0302 16.968 94.0542 16.632 94.0542 16.344C94.0542 14.568 93.6222 13.188 92.7582 12.204C91.8942 11.22 90.6822 10.728 89.1222 10.728Z" fill="#013D5B"/>
<path d="M76.9266 27.036C75.2706 27.828 73.4946 28.224 71.5986 28.224C68.8386 28.224 66.7146 27.408 65.2266 25.776C63.7386 24.144 62.9946 21.804 62.9946 18.756C62.9946 15.732 63.6906 13.356 65.0826 11.628C66.4746 9.9 68.3826 9.036 70.8066 9.036C72.9426 9.036 74.6226 9.708 75.8466 11.052C77.0946 12.372 77.7186 14.184 77.7186 16.488C77.7186 17.352 77.6466 18.18 77.5026 18.972H65.1186C65.1426 23.988 67.3626 26.496 71.7786 26.496C73.5546 26.496 75.2706 26.112 76.9266 25.344V27.036ZM70.7706 10.728C69.1386 10.728 67.8066 11.328 66.7746 12.528C65.7426 13.728 65.1906 15.336 65.1186 17.352H75.6306C75.6786 16.968 75.7026 16.632 75.7026 16.344C75.7026 14.568 75.2706 13.188 74.4066 12.204C73.5426 11.22 72.3306 10.728 70.7706 10.728Z" fill="#013D5B"/>
<path d="M53.507 27.684V11.232H50.771V9.684L53.507 9.576V5.508C53.507 3.732 53.939 2.376 54.803 1.44C55.691 0.48 56.975 0 58.655 0C59.567 0 60.491 0.168 61.427 0.504V2.088C60.563 1.824 59.735 1.692 58.943 1.692C57.815 1.692 56.987 1.992 56.459 2.592C55.931 3.168 55.667 4.08 55.667 5.328V9.576H60.527V11.232H55.667V27.684H53.507Z" fill="#013D5B"/>
<path d="M31.2232 28.224C28.6072 28.224 26.6272 27.42 25.2832 25.812C23.9632 24.18 23.3032 21.78 23.3032 18.612C23.3032 15.468 23.9632 13.092 25.2832 11.484C26.6272 9.852 28.6072 9.036 31.2232 9.036C33.8392 9.036 35.8072 9.852 37.1272 11.484C38.4712 13.092 39.1432 15.468 39.1432 18.612C39.1432 21.78 38.4712 24.18 37.1272 25.812C35.8072 27.42 33.8392 28.224 31.2232 28.224ZM31.2232 26.496C33.1912 26.496 34.6192 25.872 35.5072 24.624C36.4192 23.352 36.8752 21.348 36.8752 18.612C36.8752 15.9 36.4192 13.92 35.5072 12.672C34.6192 11.4 33.1912 10.764 31.2232 10.764C29.2552 10.764 27.8152 11.4 26.9032 12.672C26.0152 13.92 25.5712 15.9 25.5712 18.612C25.5712 21.348 26.0152 23.352 26.9032 24.624C27.8152 25.872 29.2552 26.496 31.2232 26.496Z" fill="#013D5B"/>
<path d="M15.696 2.484H17.892V27.684H15.732L2.196 6.228V27.684H0V2.484H2.16L15.696 23.94V2.484Z" fill="#013D5B"/>
</svg>
