<svg width="219" height="28" viewBox="0 0 219 28" fill="none" xmlns="http://www.w3.org/2000/svg">
<path d="M208.246 19.404C209.646 20.02 211.093 20.328 212.586 20.328C215.106 20.328 216.366 19.348 216.366 17.388C216.366 16.7533 216.179 16.24 215.806 15.848C215.451 15.456 214.854 15.1293 214.014 14.868L211.886 14.196C210.691 13.8227 209.823 13.356 209.282 12.796C208.741 12.2173 208.47 11.4893 208.47 10.612C208.47 9.43601 208.927 8.50268 209.842 7.81201C210.775 7.10268 212.026 6.74802 213.594 6.74802C214.919 6.74802 216.179 7.00001 217.374 7.50401V8.82001C216.123 8.33468 214.891 8.09201 213.678 8.09201C212.577 8.09201 211.709 8.31601 211.074 8.76402C210.458 9.19335 210.15 9.79068 210.15 10.556C210.15 11.0973 210.318 11.536 210.654 11.872C211.009 12.1894 211.634 12.4973 212.53 12.796L214.742 13.524C215.881 13.8974 216.711 14.392 217.234 15.008C217.775 15.624 218.046 16.408 218.046 17.36C218.046 18.7413 217.579 19.8054 216.646 20.552C215.713 21.2987 214.397 21.672 212.698 21.672C211.13 21.672 209.721 21.3827 208.47 20.804L208.246 19.404Z" fill="#013D5B"/>
<path d="M202.004 8.45602V17.416C202.004 18.3867 202.209 19.1053 202.62 19.572C203.03 20.02 203.665 20.244 204.524 20.244C205.084 20.244 205.718 20.1413 206.428 19.936V21.168C205.644 21.4293 204.925 21.56 204.272 21.56C202.984 21.56 202.004 21.2147 201.332 20.524C200.66 19.8147 200.324 18.7693 200.324 17.388V8.45602H198.196V7.25201L200.38 7.16801L200.548 3.64001L202.004 3.47202V7.16801H206.232V8.45602H202.004Z" fill="#013D5B"/>
<path d="M193.753 21.252V11.536C193.753 9.24001 192.587 8.09201 190.253 8.09201C189.637 8.09201 188.956 8.19468 188.209 8.40002C187.481 8.60535 186.763 8.88535 186.053 9.24001V21.252H184.373V7.25201L185.801 7.11201L185.913 8.09201C187.537 7.19601 189.124 6.74802 190.673 6.74802C192.185 6.74802 193.352 7.14001 194.173 7.92401C195.013 8.70801 195.433 9.81868 195.433 11.256V21.252H193.753Z" fill="#013D5B"/>
<path d="M170.408 7.16803V16.884C170.408 19.18 171.537 20.328 173.796 20.328C174.412 20.328 175.084 20.2254 175.812 20.02C176.559 19.8147 177.287 19.5347 177.996 19.18V7.16803H179.676V21.168L178.248 21.308L178.136 20.328C176.512 21.224 174.925 21.672 173.376 21.672C171.901 21.672 170.753 21.28 169.932 20.496C169.129 19.6934 168.728 18.5827 168.728 17.164V7.16803H170.408Z" fill="#013D5B"/>
<path d="M158.984 21.672C156.95 21.672 155.41 21.0467 154.364 19.796C153.338 18.5267 152.824 16.66 152.824 14.196C152.824 11.7507 153.338 9.90268 154.364 8.65202C155.41 7.38268 156.95 6.74802 158.984 6.74802C161.019 6.74802 162.55 7.38268 163.576 8.65202C164.622 9.90268 165.144 11.7507 165.144 14.196C165.144 16.66 164.622 18.5267 163.576 19.796C162.55 21.0467 161.019 21.672 158.984 21.672ZM158.984 20.328C160.515 20.328 161.626 19.8427 162.316 18.872C163.026 17.8827 163.38 16.324 163.38 14.196C163.38 12.0867 163.026 10.5467 162.316 9.57601C161.626 8.58668 160.515 8.09201 158.984 8.09201C157.454 8.09201 156.334 8.58668 155.624 9.57601C154.934 10.5467 154.588 12.0867 154.588 14.196C154.588 16.324 154.934 17.8827 155.624 18.872C156.334 19.8427 157.454 20.328 158.984 20.328Z" fill="#013D5B"/>
<path d="M150.411 20.748C149.179 21.364 147.835 21.672 146.379 21.672C144.401 21.672 142.87 21.028 141.787 19.74C140.723 18.452 140.191 16.6133 140.191 14.224C140.191 11.8347 140.723 9.99602 141.787 8.70802C142.87 7.40135 144.401 6.74802 146.379 6.74802C147.779 6.74802 149.105 7.05601 150.355 7.67201V8.98801C149.049 8.40935 147.779 8.12001 146.547 8.12001C145.035 8.12001 143.887 8.63335 143.103 9.66001C142.338 10.6867 141.955 12.208 141.955 14.224C141.955 16.2213 142.338 17.7334 143.103 18.76C143.887 19.7867 145.035 20.3 146.547 20.3C147.817 20.3 149.105 20.0107 150.411 19.432V20.748Z" fill="#013D5B"/>
<path d="M137.779 20.748C136.547 21.364 135.203 21.672 133.747 21.672C131.768 21.672 130.237 21.028 129.155 19.74C128.091 18.452 127.559 16.6133 127.559 14.224C127.559 11.8347 128.091 9.99602 129.155 8.70802C130.237 7.40135 131.768 6.74802 133.747 6.74802C135.147 6.74802 136.472 7.05601 137.723 7.67201V8.98801C136.416 8.40935 135.147 8.12001 133.915 8.12001C132.403 8.12001 131.255 8.63335 130.471 9.66001C129.705 10.6867 129.323 12.208 129.323 14.224C129.323 16.2213 129.705 17.7334 130.471 18.76C131.255 19.7867 132.403 20.3 133.915 20.3C135.184 20.3 136.472 20.0107 137.779 19.432V20.748Z" fill="#013D5B"/>
<path d="M122.56 21.308L122.448 20.328C120.842 21.224 119.256 21.672 117.688 21.672C116.25 21.672 115.112 21.2987 114.272 20.552C113.432 19.7867 113.012 18.7413 113.012 17.416C113.012 16.016 113.478 14.952 114.412 14.224C115.364 13.4773 116.754 13.104 118.584 13.104C119.685 13.104 120.936 13.2347 122.336 13.496V11.592C122.336 9.25868 121.02 8.09201 118.388 8.09201C117.697 8.09201 116.941 8.18535 116.12 8.37202C115.298 8.55868 114.542 8.80135 113.852 9.10001V7.78401C114.524 7.46668 115.289 7.21468 116.148 7.02802C117.025 6.84135 117.856 6.74802 118.64 6.74802C120.394 6.74802 121.72 7.16801 122.616 8.00801C123.53 8.82934 123.988 10.024 123.988 11.592V21.168L122.56 21.308ZM118.08 20.328C118.752 20.328 119.461 20.2253 120.208 20.02C120.954 19.8147 121.664 19.5347 122.336 19.18V14.7C121.16 14.476 120.002 14.364 118.864 14.364C117.426 14.364 116.381 14.6067 115.728 15.092C115.074 15.5773 114.748 16.3427 114.748 17.388C114.748 19.348 115.858 20.328 118.08 20.328Z" fill="#013D5B"/>
<path d="M95.9691 27.776C94.3078 27.776 92.8985 27.4867 91.7411 26.908L91.5171 25.48C93.0478 26.1147 94.5038 26.432 95.8851 26.432C99.0025 26.432 100.561 24.9853 100.561 22.092V20.16C99.8518 20.552 99.1238 20.86 98.3771 21.084C97.6491 21.308 96.9678 21.42 96.3331 21.42C94.5038 21.42 93.0665 20.804 92.0211 19.572C90.9758 18.34 90.4531 16.632 90.4531 14.448C90.4531 11.9653 91.0411 10.0613 92.2171 8.73602C93.4118 7.41068 95.1291 6.74802 97.3691 6.74802C99.0678 6.74802 100.692 7.04668 102.241 7.64401V21.952C102.241 23.8187 101.7 25.256 100.617 26.264C99.5345 27.272 97.9851 27.776 95.9691 27.776ZM96.5571 20.076C97.1731 20.076 97.8358 19.9733 98.5451 19.768C99.2545 19.5627 99.9265 19.2827 100.561 18.928V8.54002C99.5905 8.24135 98.5731 8.09201 97.5091 8.09201C95.7171 8.09201 94.3825 8.61468 93.5051 9.66001C92.6465 10.6867 92.2171 12.2733 92.2171 14.42C92.2171 16.268 92.5811 17.6774 93.3091 18.648C94.0558 19.6 95.1385 20.076 96.5571 20.076Z" fill="#013D5B"/>
<path d="M85.1986 21.252V11.536C85.1986 9.24001 84.0319 8.09201 81.6986 8.09201C81.0826 8.09201 80.4013 8.19468 79.6546 8.40002C78.9266 8.60535 78.2079 8.88535 77.4986 9.24001V21.252H75.8186V7.25201L77.2466 7.11201L77.3586 8.09201C78.9826 7.19601 80.5693 6.74802 82.1186 6.74802C83.6306 6.74802 84.7973 7.14001 85.6186 7.92401C86.4586 8.70801 86.8786 9.81868 86.8786 11.256V21.252H85.1986Z" fill="#013D5B"/>
<path d="M69.4473 21.252V7.308L71.1273 7.084V21.252H69.4473ZM70.2873 3.752C69.914 3.752 69.606 3.64 69.3633 3.416C69.1393 3.192 69.0273 2.884 69.0273 2.492C69.0273 2.1 69.1393 1.792 69.3633 1.568C69.606 1.344 69.914 1.23199 70.2873 1.23199C70.6607 1.23199 70.9593 1.344 71.1833 1.568C71.426 1.792 71.5473 2.1 71.5473 2.492C71.5473 2.884 71.426 3.192 71.1833 3.416C70.9593 3.64 70.6607 3.752 70.2873 3.752Z" fill="#013D5B"/>
<path d="M56.5686 21.252V0.223999L58.2486 0V13.412L64.8566 7.168H66.8446L59.9286 13.72L67.0686 21.252H64.9406L58.2486 14.14V21.252H56.5686Z" fill="#013D5B"/>
<path d="M52.9583 20.748C51.7263 21.364 50.3823 21.672 48.9263 21.672C46.9476 21.672 45.4169 21.028 44.3343 19.74C43.2703 18.452 42.7383 16.6133 42.7383 14.224C42.7383 11.8347 43.2703 9.99602 44.3343 8.70802C45.4169 7.40135 46.9476 6.74802 48.9263 6.74802C50.3263 6.74802 51.6516 7.05601 52.9023 7.67201V8.98801C51.5956 8.40935 50.3263 8.12001 49.0943 8.12001C47.5823 8.12001 46.4343 8.63335 45.6503 9.66001C44.8849 10.6867 44.5023 12.208 44.5023 14.224C44.5023 16.2213 44.8849 17.7334 45.6503 18.76C46.4343 19.7867 47.5823 20.3 49.0943 20.3C50.3636 20.3 51.6516 20.0107 52.9583 19.432V20.748Z" fill="#013D5B"/>
<path d="M39.3008 20.748C38.0128 21.364 36.6315 21.672 35.1568 21.672C33.0102 21.672 31.3582 21.0373 30.2008 19.768C29.0435 18.4987 28.4648 16.6787 28.4648 14.308C28.4648 11.956 29.0062 10.108 30.0888 8.76402C31.1715 7.42002 32.6555 6.74802 34.5408 6.74802C36.2022 6.74802 37.5088 7.27068 38.4608 8.31602C39.4315 9.34268 39.9168 10.752 39.9168 12.544C39.9168 13.216 39.8608 13.86 39.7488 14.476H30.1168C30.1355 18.3773 31.8622 20.328 35.2968 20.328C36.6782 20.328 38.0128 20.0293 39.3008 19.432V20.748ZM34.5128 8.06401C33.2435 8.06401 32.2075 8.53068 31.4048 9.46401C30.6022 10.3973 30.1728 11.648 30.1168 13.216H38.2928C38.3302 12.9173 38.3488 12.656 38.3488 12.432C38.3488 11.0507 38.0128 9.97735 37.3408 9.21201C36.6688 8.44668 35.7262 8.06401 34.5128 8.06401Z" fill="#013D5B"/>
<path d="M13.8303 21.252V0.223999L15.5103 0V8.036C17.0783 7.17733 18.6183 6.748 20.1303 6.748C21.6423 6.748 22.809 7.14 23.6303 7.924C24.4703 8.708 24.8903 9.81866 24.8903 11.256V21.252H23.2103V11.536C23.2103 9.24 22.0437 8.092 19.7103 8.092C19.0943 8.092 18.413 8.19467 17.6663 8.4C16.9383 8.60534 16.2197 8.88533 15.5103 9.24V21.252H13.8303Z" fill="#013D5B"/>
<path d="M10.22 20.748C8.988 21.364 7.644 21.672 6.188 21.672C4.20933 21.672 2.67867 21.028 1.596 19.74C0.532 18.452 0 16.6133 0 14.224C0 11.8347 0.532 9.99602 1.596 8.70802C2.67867 7.40135 4.20933 6.74802 6.188 6.74802C7.588 6.74802 8.91333 7.05601 10.164 7.67201V8.98801C8.85733 8.40935 7.588 8.12001 6.356 8.12001C4.844 8.12001 3.696 8.63335 2.912 9.66001C2.14667 10.6867 1.764 12.208 1.764 14.224C1.764 16.2213 2.14667 17.7334 2.912 18.76C3.696 19.7867 4.844 20.3 6.356 20.3C7.62533 20.3 8.91333 20.0107 10.22 19.432V20.748Z" fill="#013D5B"/>
</svg>
