<svg width="159" height="21" viewBox="0 0 159 21" fill="none" xmlns="http://www.w3.org/2000/svg">
<path d="M156.79 20.02V10.304C156.79 8.00802 155.623 6.86002 153.29 6.86002C152.674 6.86002 151.993 6.96269 151.246 7.16802C150.518 7.37336 149.799 7.65336 149.09 8.00802V20.02H147.41V6.02002L148.838 5.88002L148.95 6.86002C150.574 5.96402 152.161 5.51602 153.71 5.51602C155.222 5.51602 156.389 5.90802 157.21 6.69202C158.05 7.47602 158.47 8.58669 158.47 10.024V20.02H156.79Z" fill="#013D5B"/>
<path d="M137.47 20.44C135.436 20.44 133.896 19.8147 132.85 18.564C131.824 17.2947 131.31 15.428 131.31 12.964C131.31 10.5187 131.824 8.67069 132.85 7.42002C133.896 6.15069 135.436 5.51602 137.47 5.51602C139.505 5.51602 141.036 6.15069 142.062 7.42002C143.108 8.67069 143.63 10.5187 143.63 12.964C143.63 15.428 143.108 17.2947 142.062 18.564C141.036 19.8147 139.505 20.44 137.47 20.44ZM137.47 19.096C139.001 19.096 140.112 18.6107 140.802 17.64C141.512 16.6507 141.866 15.092 141.866 12.964C141.866 10.8547 141.512 9.31469 140.802 8.34402C140.112 7.35469 139.001 6.86002 137.47 6.86002C135.94 6.86002 134.82 7.35469 134.11 8.34402C133.42 9.31469 133.074 10.8547 133.074 12.964C133.074 15.092 133.42 16.6507 134.11 17.64C134.82 18.6107 135.94 19.096 137.47 19.096Z" fill="#013D5B"/>
<path d="M111.81 18.172C113.21 18.788 114.657 19.096 116.15 19.096C118.67 19.096 119.93 18.116 119.93 16.156C119.93 15.5214 119.744 15.008 119.37 14.616C119.016 14.224 118.418 13.8974 117.578 13.636L115.45 12.964C114.256 12.5907 113.388 12.124 112.846 11.564C112.305 10.9854 112.034 10.2574 112.034 9.38002C112.034 8.20402 112.492 7.27069 113.406 6.58002C114.34 5.87069 115.59 5.51602 117.158 5.51602C118.484 5.51602 119.744 5.76802 120.938 6.27202V7.58802C119.688 7.10269 118.456 6.86002 117.242 6.86002C116.141 6.86002 115.273 7.08402 114.638 7.53202C114.022 7.96136 113.714 8.55869 113.714 9.32402C113.714 9.86536 113.882 10.304 114.218 10.64C114.573 10.9574 115.198 11.2654 116.094 11.564L118.306 12.292C119.445 12.6654 120.276 13.16 120.798 13.776C121.34 14.392 121.61 15.176 121.61 16.128C121.61 17.5094 121.144 18.5734 120.21 19.32C119.277 20.0667 117.961 20.44 116.262 20.44C114.694 20.44 113.285 20.1507 112.034 19.572L111.81 18.172Z" fill="#013D5B"/>
<path d="M106.708 20.02V10.024C106.708 7.91469 105.709 6.86002 103.712 6.86002C102.554 6.86002 101.229 7.28002 99.7356 8.12002C99.8849 8.62402 99.9596 9.16536 99.9596 9.74402V20.02H98.2796V10.024C98.2796 7.91469 97.2809 6.86002 95.2836 6.86002C94.1636 6.86002 92.9129 7.24269 91.5316 8.00802V20.02H89.8516V6.02002L91.2796 5.88002L91.3916 6.86002C92.9782 5.96402 94.4156 5.51602 95.7036 5.51602C97.3462 5.51602 98.5316 6.05736 99.2596 7.14002C101.07 6.05736 102.694 5.51602 104.132 5.51602C105.494 5.51602 106.54 5.88002 107.268 6.60802C108.014 7.33602 108.388 8.38136 108.388 9.74402V20.02H106.708Z" fill="#013D5B"/>
<path d="M75.8863 5.93604V15.652C75.8863 17.948 77.0156 19.096 79.2743 19.096C79.8903 19.096 80.5623 18.9934 81.2903 18.788C82.037 18.5827 82.765 18.3027 83.4743 17.948V5.93604H85.1543V19.936L83.7263 20.076L83.6143 19.096C81.9903 19.992 80.4036 20.44 78.8543 20.44C77.3796 20.44 76.2316 20.048 75.4103 19.264C74.6076 18.4614 74.2063 17.3507 74.2063 15.932V5.93604H75.8863Z" fill="#013D5B"/>
<path d="M68.2076 20.02V10.024C68.2076 7.91469 67.2089 6.86002 65.2116 6.86002C64.0542 6.86002 62.7289 7.28002 61.2356 8.12002C61.3849 8.62402 61.4596 9.16536 61.4596 9.74402V20.02H59.7796V10.024C59.7796 7.91469 58.7809 6.86002 56.7836 6.86002C55.6636 6.86002 54.4129 7.24269 53.0316 8.00802V20.02H51.3516V6.02002L52.7796 5.88002L52.8916 6.86002C54.4782 5.96402 55.9156 5.51602 57.2036 5.51602C58.8462 5.51602 60.0316 6.05736 60.7596 7.14002C62.5702 6.05736 64.1942 5.51602 65.6316 5.51602C66.9942 5.51602 68.0396 5.88002 68.7676 6.60802C69.5142 7.33602 69.8876 8.38136 69.8876 9.74402V20.02H68.2076Z" fill="#013D5B"/>
<path d="M44.9805 20.02V6.076L46.6605 5.852V20.02H44.9805ZM45.8205 2.52C45.4472 2.52 45.1392 2.408 44.8965 2.184C44.6725 1.96 44.5605 1.652 44.5605 1.26C44.5605 0.867998 44.6725 0.559998 44.8965 0.335999C45.1392 0.111998 45.4472 0 45.8205 0C46.1939 0 46.4925 0.111998 46.7165 0.335999C46.9592 0.559998 47.0805 0.867998 47.0805 1.26C47.0805 1.652 46.9592 1.96 46.7165 2.184C46.4925 2.408 46.1939 2.52 45.8205 2.52Z" fill="#013D5B"/>
<path d="M38.8019 20.02V10.304C38.8019 8.00802 37.6352 6.86002 35.3019 6.86002C34.6859 6.86002 34.0045 6.96269 33.2579 7.16802C32.5299 7.37336 31.8112 7.65336 31.1019 8.00802V20.02H29.4219V6.02002L30.8499 5.88002L30.9619 6.86002C32.5859 5.96402 34.1725 5.51602 35.7219 5.51602C37.2339 5.51602 38.4005 5.90802 39.2219 6.69202C40.0619 7.47602 40.4819 8.58669 40.4819 10.024V20.02H38.8019Z" fill="#013D5B"/>
<path d="M23.0509 20.02V6.076L24.7309 5.852V20.02H23.0509ZM23.8909 2.52C23.5175 2.52 23.2095 2.408 22.9669 2.184C22.7429 1.96 22.6309 1.652 22.6309 1.26C22.6309 0.867998 22.7429 0.559998 22.9669 0.335999C23.2095 0.111998 23.5175 0 23.8909 0C24.2642 0 24.5629 0.111998 24.7869 0.335999C25.0295 0.559998 25.1509 0.867998 25.1509 1.26C25.1509 1.652 25.0295 1.96 24.7869 2.184C24.5629 2.408 24.2642 2.52 23.8909 2.52Z" fill="#013D5B"/>
<path d="M16.856 20.02V10.024C16.856 7.91469 15.8573 6.86002 13.86 6.86002C12.7027 6.86002 11.3773 7.28002 9.884 8.12002C10.0333 8.62402 10.108 9.16536 10.108 9.74402V20.02H8.428V10.024C8.428 7.91469 7.42933 6.86002 5.432 6.86002C4.312 6.86002 3.06133 7.24269 1.68 8.00802V20.02H0V6.02002L1.428 5.88002L1.54 6.86002C3.12667 5.96402 4.564 5.51602 5.852 5.51602C7.49467 5.51602 8.68 6.05736 9.408 7.14002C11.2187 6.05736 12.8427 5.51602 14.28 5.51602C15.6427 5.51602 16.688 5.88002 17.416 6.60802C18.1627 7.33602 18.536 8.38136 18.536 9.74402V20.02H16.856Z" fill="#013D5B"/>
</svg>
