<svg width="120" height="22" viewBox="0 0 120 22" fill="none" xmlns="http://www.w3.org/2000/svg">
<path d="M112.975 21.532V7.532L114.403 7.392L114.543 8.652C115.793 7.62533 117.128 7.112 118.547 7.112C119.051 7.112 119.452 7.168 119.751 7.28V8.652C119.265 8.54 118.836 8.484 118.463 8.484C117.137 8.484 115.868 8.96 114.655 9.912V21.532H112.975Z" fill="#013D5B"/>
<path d="M103.035 21.952C101 21.952 99.4601 21.3267 98.4148 20.076C97.3881 18.8067 96.8748 16.94 96.8748 14.476C96.8748 12.0307 97.3881 10.1827 98.4148 8.93198C99.4601 7.66265 101 7.02798 103.035 7.02798C105.069 7.02798 106.6 7.66265 107.627 8.93198C108.672 10.1827 109.195 12.0307 109.195 14.476C109.195 16.94 108.672 18.8067 107.627 20.076C106.6 21.3267 105.069 21.952 103.035 21.952ZM103.035 20.608C104.565 20.608 105.676 20.1227 106.367 19.152C107.076 18.1627 107.431 16.604 107.431 14.476C107.431 12.3667 107.076 10.8267 106.367 9.85598C105.676 8.86665 104.565 8.37198 103.035 8.37198C101.504 8.37198 100.384 8.86665 99.6748 9.85598C98.9841 10.8267 98.6388 12.3667 98.6388 14.476C98.6388 16.604 98.9841 18.1627 99.6748 19.152C100.384 20.1227 101.504 20.608 103.035 20.608Z" fill="#013D5B"/>
<path d="M77.3748 19.684C78.7748 20.3 80.2214 20.608 81.7148 20.608C84.2348 20.608 85.4948 19.628 85.4948 17.668C85.4948 17.0333 85.3081 16.52 84.9348 16.128C84.5801 15.736 83.9828 15.4093 83.1428 15.148L81.0148 14.476C79.8201 14.1027 78.9521 13.636 78.4108 13.076C77.8694 12.4973 77.5988 11.7693 77.5988 10.892C77.5988 9.71598 78.0561 8.78265 78.9708 8.09198C79.9041 7.38265 81.1548 7.02798 82.7228 7.02798C84.0481 7.02798 85.3081 7.27998 86.5028 7.78398V9.09998C85.2521 8.61465 84.0201 8.37198 82.8068 8.37198C81.7054 8.37198 80.8374 8.59598 80.2028 9.04398C79.5868 9.47332 79.2788 10.0707 79.2788 10.836C79.2788 11.3773 79.4468 11.816 79.7828 12.152C80.1374 12.4693 80.7628 12.7773 81.6588 13.076L83.8708 13.804C85.0094 14.1773 85.8401 14.672 86.3628 15.288C86.9041 15.904 87.1748 16.688 87.1748 17.64C87.1748 19.0213 86.7081 20.0853 85.7748 20.832C84.8414 21.5787 83.5254 21.952 81.8268 21.952C80.2588 21.952 78.8494 21.6627 77.5988 21.084L77.3748 19.684Z" fill="#013D5B"/>
<path d="M74.1053 21.028C72.8173 21.644 71.436 21.952 69.9613 21.952C67.8146 21.952 66.1626 21.3173 65.0053 20.048C63.848 18.7787 63.2693 16.9587 63.2693 14.588C63.2693 12.236 63.8106 10.388 64.8933 9.04398C65.976 7.69998 67.46 7.02798 69.3453 7.02798C71.0066 7.02798 72.3133 7.55065 73.2653 8.59598C74.236 9.62265 74.7213 11.032 74.7213 12.824C74.7213 13.496 74.6653 14.14 74.5533 14.756H64.9213C64.94 18.6573 66.6666 20.608 70.1013 20.608C71.4826 20.608 72.8173 20.3093 74.1053 19.712V21.028ZM69.3173 8.34398C68.048 8.34398 67.012 8.81065 66.2093 9.74398C65.4066 10.6773 64.9773 11.928 64.9213 13.496H73.0973C73.1346 13.1973 73.1533 12.936 73.1533 12.712C73.1533 11.3306 72.8173 10.2573 72.1453 9.49198C71.4733 8.72665 70.5306 8.34398 69.3173 8.34398Z" fill="#013D5B"/>
<path d="M59.8318 21.028C58.5438 21.644 57.1625 21.952 55.6878 21.952C53.5412 21.952 51.8892 21.3173 50.7318 20.048C49.5745 18.7787 48.9958 16.9587 48.9958 14.588C48.9958 12.236 49.5372 10.388 50.6199 9.04398C51.7025 7.69998 53.1865 7.02798 55.0718 7.02798C56.7332 7.02798 58.0398 7.55065 58.9918 8.59598C59.9625 9.62265 60.4478 11.032 60.4478 12.824C60.4478 13.496 60.3918 14.14 60.2799 14.756H50.6479C50.6665 18.6573 52.3932 20.608 55.8279 20.608C57.2092 20.608 58.5438 20.3093 59.8318 19.712V21.028ZM55.0438 8.34398C53.7745 8.34398 52.7385 8.81065 51.9358 9.74398C51.1332 10.6773 50.7039 11.928 50.6479 13.496H58.8238C58.8612 13.1973 58.8798 12.936 58.8798 12.712C58.8798 11.3306 58.5438 10.2573 57.8718 9.49198C57.1998 8.72665 56.2572 8.34398 55.0438 8.34398Z" fill="#013D5B"/>
<path d="M41.6165 21.532V8.736H39.4885V7.532L41.6165 7.448V4.284C41.6165 2.90267 41.9525 1.848 42.6245 1.12C43.3152 0.373334 44.3139 0 45.6205 0C46.3299 0 47.0485 0.130667 47.7765 0.392V1.624C47.1045 1.41867 46.4605 1.316 45.8445 1.316C44.9672 1.316 44.3232 1.54933 43.9125 2.016C43.5019 2.464 43.2965 3.17333 43.2965 4.144V7.448H47.0765V8.736H43.2965V21.532H41.6165Z" fill="#013D5B"/>
<path d="M24.2848 21.952C22.2501 21.952 20.7101 21.3267 19.6648 20.076C18.6381 18.8067 18.1248 16.94 18.1248 14.476C18.1248 12.0307 18.6381 10.1827 19.6648 8.93198C20.7101 7.66265 22.2501 7.02798 24.2848 7.02798C26.3194 7.02798 27.8501 7.66265 28.8768 8.93198C29.9221 10.1827 30.4448 12.0307 30.4448 14.476C30.4448 16.94 29.9221 18.8067 28.8768 20.076C27.8501 21.3267 26.3194 21.952 24.2848 21.952ZM24.2848 20.608C25.8154 20.608 26.9261 20.1227 27.6168 19.152C28.3261 18.1627 28.6808 16.604 28.6808 14.476C28.6808 12.3667 28.3261 10.8267 27.6168 9.85598C26.9261 8.86665 25.8154 8.37198 24.2848 8.37198C22.7541 8.37198 21.6341 8.86665 20.9248 9.85598C20.2341 10.8267 19.8888 12.3667 19.8888 14.476C19.8888 16.604 20.2341 18.1627 20.9248 19.152C21.6341 20.1227 22.7541 20.608 24.2848 20.608Z" fill="#013D5B"/>
<path d="M12.208 1.93198H13.916V21.532H12.236L1.708 4.84398V21.532H0V1.93198H1.68L12.208 18.62V1.93198Z" fill="#013D5B"/>
</svg>
