<svg width="339" height="51" viewBox="0 0 339 51" fill="none" xmlns="http://www.w3.org/2000/svg">
<path d="M2.89828e-06 17.602C1.82 18.3993 3.54467 18.798 5.174 18.798C6.71667 18.798 7.904 18.46 8.736 17.784C9.58534 17.0907 10.01 16.1027 10.01 14.82C10.01 13.8493 9.73267 13.0693 9.178 12.48C8.62334 11.8907 7.696 11.3967 6.396 10.998L4.55 10.426C3.12867 9.99268 2.08867 9.42934 1.43 8.73601C0.771336 8.02534 0.442003 7.12401 0.442003 6.03201C0.442003 4.55867 0.99667 3.38001 2.106 2.49601C3.23267 1.59467 4.732 1.14401 6.604 1.14401C8.112 1.14401 9.568 1.46467 10.972 2.10601V3.40601C9.48134 2.78201 8.04267 2.47001 6.656 2.47001C5.23467 2.47001 4.12534 2.78201 3.328 3.40601C2.53067 4.01267 2.132 4.87067 2.132 5.98001C2.132 6.76001 2.35734 7.37534 2.808 7.82601C3.25867 8.27667 4.04734 8.68401 5.174 9.04801L7.02 9.64601C8.684 10.1833 9.88 10.8593 10.608 11.674C11.336 12.4713 11.7 13.5113 11.7 14.794C11.7 16.4407 11.1193 17.7407 9.958 18.694C8.814 19.6473 7.24534 20.124 5.252 20.124C3.41467 20.124 1.75067 19.7513 0.260003 19.006L2.89828e-06 17.602ZM15.0302 19.734V0.208008L16.5902 7.15256e-06V7.46201C18.0462 6.66468 19.4762 6.26601 20.8802 6.26601C22.2842 6.26601 23.3676 6.63001 24.1302 7.35801C24.9102 8.08601 25.3002 9.11734 25.3002 10.452V19.734H23.7402V10.712C23.7402 8.58001 22.6569 7.51401 20.4902 7.51401C19.9182 7.51401 19.2856 7.60934 18.5922 7.80001C17.9162 7.99068 17.2489 8.25068 16.5902 8.58001V19.734H15.0302ZM34.3395 20.124C32.4502 20.124 31.0202 19.5433 30.0495 18.382C29.0962 17.2033 28.6195 15.47 28.6195 13.182C28.6195 10.9113 29.0962 9.19534 30.0495 8.03401C31.0202 6.85534 32.4502 6.26601 34.3395 6.26601C36.2288 6.26601 37.6502 6.85534 38.6035 8.03401C39.5742 9.19534 40.0595 10.9113 40.0595 13.182C40.0595 15.47 39.5742 17.2033 38.6035 18.382C37.6502 19.5433 36.2288 20.124 34.3395 20.124ZM34.3395 18.876C35.7608 18.876 36.7922 18.4253 37.4335 17.524C38.0922 16.6053 38.4215 15.158 38.4215 13.182C38.4215 11.2233 38.0922 9.79334 37.4335 8.89201C36.7922 7.97334 35.7608 7.51401 34.3395 7.51401C32.9182 7.51401 31.8782 7.97334 31.2195 8.89201C30.5782 9.79334 30.2575 11.2233 30.2575 13.182C30.2575 15.158 30.5782 16.6053 31.2195 17.524C31.8782 18.4253 32.9182 18.876 34.3395 18.876ZM48.4313 20.124C46.542 20.124 45.112 19.5433 44.1413 18.382C43.188 17.2033 42.7113 15.47 42.7113 13.182C42.7113 10.9113 43.188 9.19534 44.1413 8.03401C45.112 6.85534 46.542 6.26601 48.4313 6.26601C50.3206 6.26601 51.742 6.85534 52.6953 8.03401C53.666 9.19534 54.1513 10.9113 54.1513 13.182C54.1513 15.47 53.666 17.2033 52.6953 18.382C51.742 19.5433 50.3206 20.124 48.4313 20.124ZM48.4313 18.876C49.8526 18.876 50.884 18.4253 51.5253 17.524C52.184 16.6053 52.5133 15.158 52.5133 13.182C52.5133 11.2233 52.184 9.79334 51.5253 8.89201C50.884 7.97334 49.8526 7.51401 48.4313 7.51401C47.01 7.51401 45.97 7.97334 45.3113 8.89201C44.67 9.79334 44.3493 11.2233 44.3493 13.182C44.3493 15.158 44.67 16.6053 45.3113 17.524C45.97 18.4253 47.01 18.876 48.4313 18.876ZM59.5851 7.85201V16.172C59.5851 17.0733 59.7758 17.7407 60.1571 18.174C60.5384 18.59 61.1278 18.798 61.9251 18.798C62.4451 18.798 63.0344 18.7027 63.6931 18.512V19.656C62.9651 19.8987 62.2978 20.02 61.6911 20.02C60.4951 20.02 59.5851 19.6993 58.9611 19.058C58.3371 18.3993 58.0251 17.4287 58.0251 16.146V7.85201H56.0491V6.73401L58.0771 6.65601L58.2331 3.38001L59.5851 3.22401V6.65601H63.5111V7.85201H59.5851ZM80.9035 19.786L80.7995 18.876C79.3088 19.708 77.8355 20.124 76.3795 20.124C75.0448 20.124 73.9875 19.7773 73.2075 19.084C72.4275 18.3733 72.0375 17.4027 72.0375 16.172C72.0375 14.872 72.4708 13.884 73.3375 13.208C74.2215 12.5147 75.5128 12.168 77.2115 12.168C78.2341 12.168 79.3955 12.2893 80.6955 12.532V10.764C80.6955 8.59734 79.4735 7.51401 77.0295 7.51401C76.3881 7.51401 75.6861 7.60067 74.9235 7.77401C74.1608 7.94734 73.4588 8.17268 72.8175 8.45001V7.22801C73.4415 6.93334 74.1521 6.69934 74.9495 6.52601C75.7641 6.35268 76.5355 6.26601 77.2635 6.26601C78.8928 6.26601 80.1235 6.65601 80.9555 7.43601C81.8048 8.19867 82.2295 9.30801 82.2295 10.764V19.656L80.9035 19.786ZM76.7435 18.876C77.3675 18.876 78.0261 18.7807 78.7195 18.59C79.4128 18.3993 80.0715 18.1393 80.6955 17.81V13.65C79.6035 13.442 78.5288 13.338 77.4715 13.338C76.1368 13.338 75.1661 13.5633 74.5595 14.014C73.9528 14.4647 73.6495 15.1753 73.6495 16.146C73.6495 17.966 74.6808 18.876 76.7435 18.876ZM95.1133 19.734V10.712C95.1133 8.58001 94.03 7.51401 91.8633 7.51401C91.2913 7.51401 90.6586 7.60934 89.9653 7.80001C89.2893 7.99068 88.622 8.25068 87.9633 8.58001V19.734H86.4033V6.73401L87.7293 6.60401L87.8333 7.51401C89.3413 6.68201 90.8146 6.26601 92.2533 6.26601C93.6573 6.26601 94.7406 6.63001 95.5033 7.35801C96.2833 8.08601 96.6733 9.11734 96.6733 10.452V19.734H95.1133ZM110.939 7.15256e-06V19.656L109.613 19.786L109.509 18.876C108.035 19.708 106.683 20.124 105.453 20.124C103.754 20.124 102.419 19.5347 101.449 18.356C100.478 17.16 99.9925 15.5133 99.9925 13.416C99.9925 11.1107 100.539 9.34267 101.631 8.11201C102.74 6.88134 104.335 6.26601 106.415 6.26601C107.489 6.26601 108.477 6.40468 109.379 6.68201V0.208008L110.939 7.15256e-06ZM105.661 18.876C106.233 18.876 106.848 18.7807 107.507 18.59C108.165 18.3993 108.789 18.1393 109.379 17.81V7.93001C108.477 7.65267 107.533 7.51401 106.545 7.51401C104.881 7.51401 103.641 7.99934 102.827 8.97001C102.029 9.92334 101.631 11.3967 101.631 13.39C101.631 15.1753 101.969 16.536 102.645 17.472C103.338 18.408 104.343 18.876 105.661 18.876ZM120.784 18.018C122.084 18.59 123.427 18.876 124.814 18.876C127.154 18.876 128.324 17.966 128.324 16.146C128.324 15.5567 128.15 15.08 127.804 14.716C127.474 14.352 126.92 14.0487 126.14 13.806L124.164 13.182C123.054 12.8353 122.248 12.402 121.746 11.882C121.243 11.3447 120.992 10.6687 120.992 9.85401C120.992 8.76201 121.416 7.89534 122.266 7.25401C123.132 6.59534 124.294 6.26601 125.75 6.26601C126.98 6.26601 128.15 6.50001 129.26 6.96801V8.19001C128.098 7.73934 126.954 7.51401 125.828 7.51401C124.805 7.51401 123.999 7.72201 123.41 8.13801C122.838 8.53668 122.552 9.09134 122.552 9.80201C122.552 10.3047 122.708 10.712 123.02 11.024C123.349 11.3187 123.93 11.6047 124.762 11.882L126.816 12.558C127.873 12.9047 128.644 13.364 129.13 13.936C129.632 14.508 129.884 15.236 129.884 16.12C129.884 17.4027 129.45 18.3907 128.584 19.084C127.717 19.7773 126.495 20.124 124.918 20.124C123.462 20.124 122.153 19.8553 120.992 19.318L120.784 18.018ZM141.881 19.266C140.737 19.838 139.489 20.124 138.137 20.124C136.3 20.124 134.878 19.526 133.873 18.33C132.885 17.134 132.391 15.4267 132.391 13.208C132.391 10.9893 132.885 9.28201 133.873 8.08601C134.878 6.87268 136.3 6.26601 138.137 6.26601C139.437 6.26601 140.668 6.55201 141.829 7.12401V8.34601C140.616 7.80868 139.437 7.54001 138.293 7.54001C136.889 7.54001 135.823 8.01667 135.095 8.97001C134.384 9.92334 134.029 11.336 134.029 13.208C134.029 15.0627 134.384 16.4667 135.095 17.42C135.823 18.3733 136.889 18.85 138.293 18.85C139.472 18.85 140.668 18.5813 141.881 18.044V19.266ZM149.841 20.124C147.952 20.124 146.522 19.5433 145.551 18.382C144.598 17.2033 144.121 15.47 144.121 13.182C144.121 10.9113 144.598 9.19534 145.551 8.03401C146.522 6.85534 147.952 6.26601 149.841 6.26601C151.731 6.26601 153.152 6.85534 154.105 8.03401C155.076 9.19534 155.561 10.9113 155.561 13.182C155.561 15.47 155.076 17.2033 154.105 18.382C153.152 19.5433 151.731 20.124 149.841 20.124ZM149.841 18.876C151.263 18.876 152.294 18.4253 152.935 17.524C153.594 16.6053 153.923 15.158 153.923 13.182C153.923 11.2233 153.594 9.79334 152.935 8.89201C152.294 7.97334 151.263 7.51401 149.841 7.51401C148.42 7.51401 147.38 7.97334 146.721 8.89201C146.08 9.79334 145.759 11.2233 145.759 13.182C145.759 15.158 146.08 16.6053 146.721 17.524C147.38 18.4253 148.42 18.876 149.841 18.876ZM159.071 19.734V6.73401L160.397 6.60401L160.527 7.77401C161.689 6.82067 162.928 6.34401 164.245 6.34401C164.713 6.34401 165.086 6.39601 165.363 6.50001V7.77401C164.913 7.67001 164.514 7.61801 164.167 7.61801C162.937 7.61801 161.758 8.06001 160.631 8.94401V19.734H159.071ZM176.959 19.266C175.763 19.838 174.48 20.124 173.111 20.124C171.118 20.124 169.584 19.5347 168.509 18.356C167.434 17.1773 166.897 15.4873 166.897 13.286C166.897 11.102 167.4 9.38601 168.405 8.13801C169.41 6.89001 170.788 6.26601 172.539 6.26601C174.082 6.26601 175.295 6.75134 176.179 7.72201C177.08 8.67534 177.531 9.98401 177.531 11.648C177.531 12.272 177.479 12.87 177.375 13.442H168.431C168.448 17.0647 170.052 18.876 173.241 18.876C174.524 18.876 175.763 18.5987 176.959 18.044V19.266ZM172.513 7.48801C171.334 7.48801 170.372 7.92134 169.627 8.78801C168.882 9.65467 168.483 10.816 168.431 12.272H176.023C176.058 11.9947 176.075 11.752 176.075 11.544C176.075 10.2613 175.763 9.26467 175.139 8.55401C174.515 7.84334 173.64 7.48801 172.513 7.48801ZM185.767 17.758C187.292 18.5033 188.861 18.876 190.473 18.876C191.929 18.876 193.09 18.5207 193.957 17.81C194.823 17.0993 195.257 16.1373 195.257 14.924C195.257 13.7453 194.849 12.8007 194.035 12.09C193.22 11.3793 192.119 11.024 190.733 11.024H189.199V9.77601H190.681C191.929 9.77601 192.917 9.46401 193.645 8.84001C194.373 8.21601 194.737 7.37534 194.737 6.31801C194.737 5.20867 194.364 4.34201 193.619 3.71801C192.873 3.09401 191.842 2.78201 190.525 2.78201C189.138 2.78201 187.777 3.06801 186.443 3.64001V2.39201C187.691 1.82001 189.095 1.53401 190.655 1.53401C192.336 1.53401 193.705 1.97601 194.763 2.86001C195.837 3.72667 196.375 4.84467 196.375 6.21401C196.375 7.21934 196.08 8.08601 195.491 8.81401C194.919 9.54201 194.113 10.062 193.073 10.374C194.269 10.6687 195.205 11.232 195.881 12.064C196.557 12.8787 196.895 13.8493 196.895 14.976C196.895 15.9987 196.617 16.9087 196.063 17.706C195.525 18.486 194.78 19.084 193.827 19.5C192.891 19.916 191.825 20.124 190.629 20.124C189.797 20.124 188.965 20.0287 188.133 19.838C187.301 19.6647 186.59 19.422 186.001 19.11L185.767 17.758ZM204.773 19.734L214.185 1.92401H215.589L206.177 19.734H204.773ZM203.525 12.168C204.443 12.168 205.119 11.7867 205.553 11.024C206.003 10.2613 206.229 9.06534 206.229 7.43601C206.229 5.80667 206.003 4.61067 205.553 3.84801C205.119 3.08534 204.443 2.70401 203.525 2.70401C202.606 2.70401 201.921 3.08534 201.471 3.84801C201.037 4.61067 200.821 5.80667 200.821 7.43601C200.821 9.06534 201.037 10.2613 201.471 11.024C201.921 11.7867 202.606 12.168 203.525 12.168ZM203.525 13.208C202.19 13.208 201.167 12.7227 200.457 11.752C199.746 10.764 199.391 9.32534 199.391 7.43601C199.391 5.54667 199.746 4.11668 200.457 3.14601C201.167 2.15801 202.19 1.66401 203.525 1.66401C204.859 1.66401 205.882 2.15801 206.593 3.14601C207.303 4.11668 207.659 5.54667 207.659 7.43601C207.659 9.32534 207.303 10.764 206.593 11.752C205.882 12.7227 204.859 13.208 203.525 13.208ZM216.837 18.954C217.755 18.954 218.431 18.5727 218.865 17.81C219.315 17.0473 219.541 15.8513 219.541 14.222C219.541 12.5927 219.315 11.3967 218.865 10.634C218.431 9.87134 217.755 9.49001 216.837 9.49001C215.918 9.49001 215.233 9.87134 214.783 10.634C214.349 11.3967 214.133 12.5927 214.133 14.222C214.133 15.8513 214.349 17.0473 214.783 17.81C215.233 18.5727 215.918 18.954 216.837 18.954ZM216.837 19.994C215.502 19.994 214.479 19.5087 213.769 18.538C213.058 17.55 212.703 16.1113 212.703 14.222C212.703 12.3327 213.058 10.9027 213.769 9.93201C214.479 8.94401 215.502 8.45001 216.837 8.45001C218.171 8.45001 219.194 8.94401 219.905 9.93201C220.615 10.9027 220.971 12.3327 220.971 14.222C220.971 16.1113 220.615 17.55 219.905 18.538C219.194 19.5087 218.171 19.994 216.837 19.994ZM239.356 19.266C238.212 19.838 236.964 20.124 235.612 20.124C233.774 20.124 232.353 19.526 231.348 18.33C230.36 17.134 229.866 15.4267 229.866 13.208C229.866 10.9893 230.36 9.28201 231.348 8.08601C232.353 6.87268 233.774 6.26601 235.612 6.26601C236.912 6.26601 238.142 6.55201 239.304 7.12401V8.34601C238.09 7.80868 236.912 7.54001 235.768 7.54001C234.364 7.54001 233.298 8.01667 232.57 8.97001C231.859 9.92334 231.504 11.336 231.504 13.208C231.504 15.0627 231.859 16.4667 232.57 17.42C233.298 18.3733 234.364 18.85 235.768 18.85C236.946 18.85 238.142 18.5813 239.356 18.044V19.266ZM250.716 19.786L250.612 18.876C249.121 19.708 247.648 20.124 246.192 20.124C244.857 20.124 243.8 19.7773 243.02 19.084C242.24 18.3733 241.85 17.4027 241.85 16.172C241.85 14.872 242.283 13.884 243.15 13.208C244.034 12.5147 245.325 12.168 247.024 12.168C248.047 12.168 249.208 12.2893 250.508 12.532V10.764C250.508 8.59734 249.286 7.51401 246.842 7.51401C246.201 7.51401 245.499 7.60067 244.736 7.77401C243.973 7.94734 243.271 8.17268 242.63 8.45001V7.22801C243.254 6.93334 243.965 6.69934 244.762 6.52601C245.577 6.35268 246.348 6.26601 247.076 6.26601C248.705 6.26601 249.936 6.65601 250.768 7.43601C251.617 8.19867 252.042 9.30801 252.042 10.764V19.656L250.716 19.786ZM246.556 18.876C247.18 18.876 247.839 18.7807 248.532 18.59C249.225 18.3993 249.884 18.1393 250.508 17.81V13.65C249.416 13.442 248.341 13.338 247.284 13.338C245.949 13.338 244.979 13.5633 244.372 14.014C243.765 14.4647 243.462 15.1753 243.462 16.146C243.462 17.966 244.493 18.876 246.556 18.876ZM255.202 18.018C256.502 18.59 257.845 18.876 259.232 18.876C261.572 18.876 262.742 17.966 262.742 16.146C262.742 15.5567 262.568 15.08 262.222 14.716C261.892 14.352 261.338 14.0487 260.558 13.806L258.582 13.182C257.472 12.8353 256.666 12.402 256.164 11.882C255.661 11.3447 255.41 10.6687 255.41 9.85401C255.41 8.76201 255.834 7.89534 256.684 7.25401C257.55 6.59534 258.712 6.26601 260.168 6.26601C261.398 6.26601 262.568 6.50001 263.678 6.96801V8.19001C262.516 7.73934 261.372 7.51401 260.246 7.51401C259.223 7.51401 258.417 7.72201 257.828 8.13801C257.256 8.53668 256.97 9.09134 256.97 9.80201C256.97 10.3047 257.126 10.712 257.438 11.024C257.767 11.3187 258.348 11.6047 259.18 11.882L261.234 12.558C262.291 12.9047 263.062 13.364 263.548 13.936C264.05 14.508 264.302 15.236 264.302 16.12C264.302 17.4027 263.868 18.3907 263.002 19.084C262.135 19.7773 260.913 20.124 259.336 20.124C257.88 20.124 256.571 19.8553 255.41 19.318L255.202 18.018ZM267.667 19.734V0.208008L269.227 7.15256e-06V7.46201C270.683 6.66468 272.113 6.26601 273.517 6.26601C274.921 6.26601 276.004 6.63001 276.767 7.35801C277.547 8.08601 277.937 9.11734 277.937 10.452V19.734H276.377V10.712C276.377 8.58001 275.294 7.51401 273.127 7.51401C272.555 7.51401 271.922 7.60934 271.229 7.80001C270.553 7.99068 269.886 8.25068 269.227 8.58001V19.734H267.667ZM290.174 7.43601C290.833 7.07201 291.5 6.78601 292.176 6.57801C292.87 6.37001 293.511 6.26601 294.1 6.26601C295.799 6.26601 297.134 6.86401 298.104 8.06001C299.075 9.23867 299.56 10.8767 299.56 12.974C299.56 15.2793 299.006 17.0473 297.896 18.278C296.804 19.5087 295.218 20.124 293.138 20.124C291.665 20.124 290.157 19.8813 288.614 19.396V0.208008L290.174 7.15256e-06V7.43601ZM293.892 7.51401C293.32 7.51401 292.705 7.60934 292.046 7.80001C291.388 7.99068 290.764 8.25068 290.174 8.58001V18.46C291.076 18.7373 292.02 18.876 293.008 18.876C294.672 18.876 295.903 18.3993 296.7 17.446C297.515 16.4753 297.922 14.9933 297.922 13C297.922 11.2147 297.576 9.85401 296.882 8.91801C296.206 7.98201 295.21 7.51401 293.892 7.51401ZM311.069 19.786L310.965 18.876C309.475 19.708 308.001 20.124 306.545 20.124C305.211 20.124 304.153 19.7773 303.373 19.084C302.593 18.3733 302.203 17.4027 302.203 16.172C302.203 14.872 302.637 13.884 303.503 13.208C304.387 12.5147 305.679 12.168 307.377 12.168C308.4 12.168 309.561 12.2893 310.861 12.532V10.764C310.861 8.59734 309.639 7.51401 307.195 7.51401C306.554 7.51401 305.852 7.60067 305.089 7.77401C304.327 7.94734 303.625 8.17268 302.983 8.45001V7.22801C303.607 6.93334 304.318 6.69934 305.115 6.52601C305.93 6.35268 306.701 6.26601 307.429 6.26601C309.059 6.26601 310.289 6.65601 311.121 7.43601C311.971 8.19867 312.395 9.30801 312.395 10.764V19.656L311.069 19.786ZM306.909 18.876C307.533 18.876 308.192 18.7807 308.885 18.59C309.579 18.3993 310.237 18.1393 310.861 17.81V13.65C309.769 13.442 308.695 13.338 307.637 13.338C306.303 13.338 305.332 13.5633 304.725 14.014C304.119 14.4647 303.815 15.1753 303.815 16.146C303.815 17.966 304.847 18.876 306.909 18.876ZM325.201 19.266C324.057 19.838 322.809 20.124 321.457 20.124C319.62 20.124 318.199 19.526 317.193 18.33C316.205 17.134 315.711 15.4267 315.711 13.208C315.711 10.9893 316.205 9.28201 317.193 8.08601C318.199 6.87268 319.62 6.26601 321.457 6.26601C322.757 6.26601 323.988 6.55201 325.149 7.12401V8.34601C323.936 7.80868 322.757 7.54001 321.613 7.54001C320.209 7.54001 319.143 8.01667 318.415 8.97001C317.705 9.92334 317.349 11.336 317.349 13.208C317.349 15.0627 317.705 16.4667 318.415 17.42C319.143 18.3733 320.209 18.85 321.613 18.85C322.792 18.85 323.988 18.5813 325.201 18.044V19.266ZM328.554 19.734V0.208008L330.114 7.15256e-06V12.454L336.25 6.65601H338.096L331.674 12.74L338.304 19.734H336.328L330.114 13.13V19.734H328.554ZM5.902 50.124C4.01267 50.124 2.58267 49.5433 1.612 48.382C0.65867 47.2033 0.182003 45.47 0.182003 43.182C0.182003 40.9113 0.65867 39.1953 1.612 38.034C2.58267 36.8553 4.01267 36.266 5.902 36.266C7.79134 36.266 9.21267 36.8553 10.166 38.034C11.1367 39.1953 11.622 40.9113 11.622 43.182C11.622 45.47 11.1367 47.2033 10.166 48.382C9.21267 49.5433 7.79134 50.124 5.902 50.124ZM5.902 48.876C7.32334 48.876 8.35467 48.4253 8.996 47.524C9.65467 46.6053 9.984 45.158 9.984 43.182C9.984 41.2233 9.65467 39.7933 8.996 38.892C8.35467 37.9733 7.32334 37.514 5.902 37.514C4.48067 37.514 3.44067 37.9733 2.782 38.892C2.14067 39.7933 1.82 41.2233 1.82 43.182C1.82 45.158 2.14067 46.6053 2.782 47.524C3.44067 48.4253 4.48067 48.876 5.902 48.876ZM23.8418 49.734V40.712C23.8418 38.58 22.7585 37.514 20.5918 37.514C20.0198 37.514 19.3871 37.6093 18.6938 37.8C18.0178 37.9907 17.3505 38.2507 16.6918 38.58V49.734H15.1318V36.734L16.4578 36.604L16.5618 37.514C18.0698 36.682 19.5431 36.266 20.9818 36.266C22.3858 36.266 23.4691 36.63 24.2318 37.358C25.0118 38.086 25.4018 39.1173 25.4018 40.452V49.734H23.8418ZM37.6391 37.436C38.2977 37.072 38.9651 36.786 39.6411 36.578C40.3344 36.37 40.9757 36.266 41.5651 36.266C43.2637 36.266 44.5984 36.864 45.5691 38.06C46.5397 39.2387 47.0251 40.8767 47.0251 42.974C47.0251 45.2793 46.4704 47.0473 45.3611 48.278C44.2691 49.5087 42.6831 50.124 40.6031 50.124C39.1297 50.124 37.6217 49.8813 36.0791 49.396V30.208L37.6391 30V37.436ZM41.3571 37.514C40.7851 37.514 40.1697 37.6093 39.5111 37.8C38.8524 37.9907 38.2284 38.2507 37.6391 38.58V48.46C38.5404 48.7373 39.4851 48.876 40.4731 48.876C42.1371 48.876 43.3677 48.3993 44.1651 47.446C44.9797 46.4753 45.3871 44.9933 45.3871 43C45.3871 41.2147 45.0404 39.854 44.3471 38.918C43.6711 37.982 42.6744 37.514 41.3571 37.514ZM50.5263 49.734V36.786L52.0863 36.578V49.734H50.5263ZM51.3063 33.484C50.9597 33.484 50.6737 33.38 50.4483 33.172C50.2403 32.964 50.1363 32.678 50.1363 32.314C50.1363 31.95 50.2403 31.664 50.4483 31.456C50.6737 31.248 50.9597 31.144 51.3063 31.144C51.653 31.144 51.9303 31.248 52.1383 31.456C52.3637 31.664 52.4763 31.95 52.4763 32.314C52.4763 32.678 52.3637 32.964 52.1383 33.172C51.9303 33.38 51.653 33.484 51.3063 33.484ZM58.3663 37.852V46.172C58.3663 47.0733 58.557 47.7407 58.9383 48.174C59.3197 48.59 59.909 48.798 60.7063 48.798C61.2263 48.798 61.8157 48.7027 62.4743 48.512V49.656C61.7463 49.8987 61.079 50.02 60.4723 50.02C59.2763 50.02 58.3663 49.6993 57.7423 49.058C57.1183 48.3993 56.8063 47.4287 56.8063 46.146V37.852H54.8303V36.734L56.8583 36.656L57.0143 33.38L58.3663 33.224V36.656H62.2923V37.852H58.3663ZM74.3807 49.266C73.1847 49.838 71.9021 50.124 70.5327 50.124C68.5394 50.124 67.0054 49.5347 65.9307 48.356C64.8561 47.1773 64.3187 45.4873 64.3187 43.286C64.3187 41.102 64.8214 39.386 65.8267 38.138C66.8321 36.89 68.2101 36.266 69.9607 36.266C71.5034 36.266 72.7167 36.7513 73.6007 37.722C74.5021 38.6753 74.9527 39.984 74.9527 41.648C74.9527 42.272 74.9007 42.87 74.7967 43.442H65.8527C65.8701 47.0647 67.4734 48.876 70.6627 48.876C71.9454 48.876 73.1847 48.5987 74.3807 48.044V49.266ZM69.9347 37.488C68.7561 37.488 67.7941 37.9213 67.0487 38.788C66.3034 39.6547 65.9047 40.816 65.8527 42.272H73.4447C73.4794 41.9947 73.4967 41.752 73.4967 41.544C73.4967 40.2613 73.1847 39.2647 72.5607 38.554C71.9367 37.8433 71.0614 37.488 69.9347 37.488ZM77.4166 48.018C78.7166 48.59 80.06 48.876 81.4466 48.876C83.7866 48.876 84.9566 47.966 84.9566 46.146C84.9566 45.5567 84.7833 45.08 84.4366 44.716C84.1073 44.352 83.5526 44.0487 82.7726 43.806L80.7966 43.182C79.6873 42.8353 78.8813 42.402 78.3786 41.882C77.876 41.3447 77.6246 40.6687 77.6246 39.854C77.6246 38.762 78.0493 37.8953 78.8986 37.254C79.7653 36.5953 80.9266 36.266 82.3826 36.266C83.6133 36.266 84.7833 36.5 85.8926 36.968V38.19C84.7313 37.7393 83.5873 37.514 82.4606 37.514C81.438 37.514 80.632 37.722 80.0426 38.138C79.4706 38.5367 79.1846 39.0913 79.1846 39.802C79.1846 40.3047 79.3406 40.712 79.6526 41.024C79.982 41.3187 80.5626 41.6047 81.3946 41.882L83.4486 42.558C84.506 42.9047 85.2773 43.364 85.7626 43.936C86.2653 44.508 86.5166 45.236 86.5166 46.12C86.5166 47.4027 86.0833 48.3907 85.2166 49.084C84.35 49.7773 83.128 50.124 81.5506 50.124C80.0946 50.124 78.786 49.8553 77.6246 49.318L77.4166 48.018ZM104.39 49.786L104.286 48.876C102.795 49.708 101.322 50.124 99.8658 50.124C98.5311 50.124 97.4738 49.7773 96.6938 49.084C95.9138 48.3733 95.5238 47.4027 95.5238 46.172C95.5238 44.872 95.9571 43.884 96.8238 43.208C97.7078 42.5147 98.9991 42.168 100.698 42.168C101.72 42.168 102.882 42.2893 104.182 42.532V40.764C104.182 38.5973 102.96 37.514 100.516 37.514C99.8745 37.514 99.1725 37.6007 98.4098 37.774C97.6471 37.9473 96.9451 38.1727 96.3038 38.45V37.228C96.9278 36.9333 97.6385 36.6993 98.4358 36.526C99.2505 36.3527 100.022 36.266 100.75 36.266C102.379 36.266 103.61 36.656 104.442 37.436C105.291 38.1987 105.716 39.308 105.716 40.764V49.656L104.39 49.786ZM100.23 48.876C100.854 48.876 101.512 48.7807 102.206 48.59C102.899 48.3993 103.558 48.1393 104.182 47.81V43.65C103.09 43.442 102.015 43.338 100.958 43.338C99.6231 43.338 98.6525 43.5633 98.0458 44.014C97.4391 44.4647 97.1358 45.1753 97.1358 46.146C97.1358 47.966 98.1671 48.876 100.23 48.876ZM118.6 49.734V40.712C118.6 38.58 117.516 37.514 115.35 37.514C114.778 37.514 114.145 37.6093 113.452 37.8C112.776 37.9907 112.108 38.2507 111.45 38.58V49.734H109.89V36.734L111.216 36.604L111.32 37.514C112.828 36.682 114.301 36.266 115.74 36.266C117.144 36.266 118.227 36.63 118.99 37.358C119.77 38.086 120.16 39.1173 120.16 40.452V49.734H118.6ZM134.425 30V49.656L133.099 49.786L132.995 48.876C131.522 49.708 130.17 50.124 128.939 50.124C127.24 50.124 125.906 49.5347 124.935 48.356C123.964 47.16 123.479 45.5133 123.479 43.416C123.479 41.1107 124.025 39.3427 125.117 38.112C126.226 36.8813 127.821 36.266 129.901 36.266C130.976 36.266 131.964 36.4047 132.865 36.682V30.208L134.425 30ZM129.147 48.876C129.719 48.876 130.334 48.7807 130.993 48.59C131.652 48.3993 132.276 48.1393 132.865 47.81V37.93C131.964 37.6527 131.019 37.514 130.031 37.514C128.367 37.514 127.128 37.9993 126.313 38.97C125.516 39.9233 125.117 41.3967 125.117 43.39C125.117 45.1753 125.455 46.536 126.131 47.472C126.824 48.408 127.83 48.876 129.147 48.876ZM146.844 37.436C147.503 37.072 148.17 36.786 148.846 36.578C149.539 36.37 150.181 36.266 150.77 36.266C152.469 36.266 153.803 36.864 154.774 38.06C155.745 39.2387 156.23 40.8767 156.23 42.974C156.23 45.2793 155.675 47.0473 154.566 48.278C153.474 49.5087 151.888 50.124 149.808 50.124C148.335 50.124 146.827 49.8813 145.284 49.396V30.208L146.844 30V37.436ZM150.562 37.514C149.99 37.514 149.375 37.6093 148.716 37.8C148.057 37.9907 147.433 38.2507 146.844 38.58V48.46C147.745 48.7373 148.69 48.876 149.678 48.876C151.342 48.876 152.573 48.3993 153.37 47.446C154.185 46.4753 154.592 44.9933 154.592 43C154.592 41.2147 154.245 39.854 153.552 38.918C152.876 37.982 151.879 37.514 150.562 37.514ZM167.739 49.786L167.635 48.876C166.145 49.708 164.671 50.124 163.215 50.124C161.881 50.124 160.823 49.7773 160.043 49.084C159.263 48.3733 158.873 47.4027 158.873 46.172C158.873 44.872 159.307 43.884 160.173 43.208C161.057 42.5147 162.349 42.168 164.047 42.168C165.07 42.168 166.231 42.2893 167.531 42.532V40.764C167.531 38.5973 166.309 37.514 163.865 37.514C163.224 37.514 162.522 37.6007 161.759 37.774C160.997 37.9473 160.295 38.1727 159.653 38.45V37.228C160.277 36.9333 160.988 36.6993 161.785 36.526C162.6 36.3527 163.371 36.266 164.099 36.266C165.729 36.266 166.959 36.656 167.791 37.436C168.641 38.1987 169.065 39.308 169.065 40.764V49.656L167.739 49.786ZM163.579 48.876C164.203 48.876 164.862 48.7807 165.555 48.59C166.249 48.3993 166.907 48.1393 167.531 47.81V43.65C166.439 43.442 165.365 43.338 164.307 43.338C162.973 43.338 162.002 43.5633 161.395 44.014C160.789 44.4647 160.485 45.1753 160.485 46.146C160.485 47.966 161.517 48.876 163.579 48.876ZM173.239 49.734V30.208L174.799 30V49.734H173.239ZM179.155 49.734V30.208L180.715 30V49.734H179.155ZM202.231 49.734L198.721 38.398L195.315 49.734H193.833L189.673 36.656H191.259L194.587 47.81L197.863 36.656H199.605L202.933 47.888L206.235 36.656H207.743L203.713 49.734H202.231ZM210.208 49.734V36.786L211.768 36.578V49.734H210.208ZM210.988 33.484C210.641 33.484 210.355 33.38 210.13 33.172C209.922 32.964 209.818 32.678 209.818 32.314C209.818 31.95 209.922 31.664 210.13 31.456C210.355 31.248 210.641 31.144 210.988 31.144C211.335 31.144 211.612 31.248 211.82 31.456C212.045 31.664 212.158 31.95 212.158 32.314C212.158 32.678 212.045 32.964 211.82 33.172C211.612 33.38 211.335 33.484 210.988 33.484ZM218.048 37.852V46.172C218.048 47.0733 218.239 47.7407 218.62 48.174C219.001 48.59 219.591 48.798 220.388 48.798C220.908 48.798 221.497 48.7027 222.156 48.512V49.656C221.428 49.8987 220.761 50.02 220.154 50.02C218.958 50.02 218.048 49.6993 217.424 49.058C216.8 48.3993 216.488 47.4287 216.488 46.146V37.852H214.512V36.734L216.54 36.656L216.696 33.38L218.048 33.224V36.656H221.974V37.852H218.048ZM224.858 49.734V30.208L226.418 30V37.462C227.874 36.6647 229.304 36.266 230.708 36.266C232.112 36.266 233.196 36.63 233.958 37.358C234.738 38.086 235.128 39.1173 235.128 40.452V49.734H233.568V40.712C233.568 38.58 232.485 37.514 230.318 37.514C229.746 37.514 229.114 37.6093 228.42 37.8C227.744 37.9907 227.077 38.2507 226.418 38.58V49.734H224.858ZM244.766 47.602C246.586 48.3993 248.31 48.798 249.94 48.798C251.482 48.798 252.67 48.46 253.502 47.784C254.351 47.0907 254.776 46.1027 254.776 44.82C254.776 43.8493 254.498 43.0693 253.944 42.48C253.389 41.8907 252.462 41.3967 251.162 40.998L249.316 40.426C247.894 39.9927 246.854 39.4293 246.196 38.736C245.537 38.0253 245.208 37.124 245.208 36.032C245.208 34.5587 245.762 33.38 246.872 32.496C247.998 31.5947 249.498 31.144 251.37 31.144C252.878 31.144 254.334 31.4647 255.738 32.106V33.406C254.247 32.782 252.808 32.47 251.422 32.47C250 32.47 248.891 32.782 248.094 33.406C247.296 34.0127 246.898 34.8707 246.898 35.98C246.898 36.76 247.123 37.3753 247.574 37.826C248.024 38.2767 248.813 38.684 249.94 39.048L251.786 39.646C253.45 40.1833 254.646 40.8593 255.374 41.674C256.102 42.4713 256.466 43.5113 256.466 44.794C256.466 46.4407 255.885 47.7407 254.724 48.694C253.58 49.6473 252.011 50.124 250.018 50.124C248.18 50.124 246.516 49.7513 245.026 49.006L244.766 47.602ZM267.804 49.786L267.7 48.876C266.209 49.708 264.736 50.124 263.28 50.124C261.945 50.124 260.888 49.7773 260.108 49.084C259.328 48.3733 258.938 47.4027 258.938 46.172C258.938 44.872 259.371 43.884 260.238 43.208C261.122 42.5147 262.413 42.168 264.112 42.168C265.135 42.168 266.296 42.2893 267.596 42.532V40.764C267.596 38.5973 266.374 37.514 263.93 37.514C263.289 37.514 262.587 37.6007 261.824 37.774C261.061 37.9473 260.359 38.1727 259.718 38.45V37.228C260.342 36.9333 261.053 36.6993 261.85 36.526C262.665 36.3527 263.436 36.266 264.164 36.266C265.793 36.266 267.024 36.656 267.856 37.436C268.705 38.1987 269.13 39.308 269.13 40.764V49.656L267.804 49.786ZM263.644 48.876C264.268 48.876 264.927 48.7807 265.62 48.59C266.313 48.3993 266.972 48.1393 267.596 47.81V43.65C266.504 43.442 265.429 43.338 264.372 43.338C263.037 43.338 262.067 43.5633 261.46 44.014C260.853 44.4647 260.55 45.1753 260.55 46.146C260.55 47.966 261.581 48.876 263.644 48.876ZM276.268 49.734L271.328 36.656H272.966L277.048 48.07L281.26 36.656H282.82L277.776 49.734H276.268ZM289.82 50.124C287.931 50.124 286.501 49.5433 285.53 48.382C284.577 47.2033 284.1 45.47 284.1 43.182C284.1 40.9113 284.577 39.1953 285.53 38.034C286.501 36.8553 287.931 36.266 289.82 36.266C291.709 36.266 293.131 36.8553 294.084 38.034C295.055 39.1953 295.54 40.9113 295.54 43.182C295.54 45.47 295.055 47.2033 294.084 48.382C293.131 49.5433 291.709 50.124 289.82 50.124ZM289.82 48.876C291.241 48.876 292.273 48.4253 292.914 47.524C293.573 46.6053 293.902 45.158 293.902 43.182C293.902 41.2233 293.573 39.7933 292.914 38.892C292.273 37.9733 291.241 37.514 289.82 37.514C288.399 37.514 287.359 37.9733 286.7 38.892C286.059 39.7933 285.738 41.2233 285.738 43.182C285.738 45.158 286.059 46.6053 286.7 47.524C287.359 48.4253 288.399 48.876 289.82 48.876ZM299.05 49.734V36.734L300.376 36.604L300.506 37.774C301.667 36.8207 302.906 36.344 304.224 36.344C304.692 36.344 305.064 36.396 305.342 36.5V37.774C304.891 37.67 304.492 37.618 304.146 37.618C302.915 37.618 301.736 38.06 300.61 38.944V49.734H299.05Z" fill="#013D5B"/>
</svg>
