<svg width="173" height="28" viewBox="0 0 173 28" fill="none" xmlns="http://www.w3.org/2000/svg">
<g clip-path="url(#clip0_11121_4428)">
<path d="M12.98 22L9.394 8.272L5.786 22H4.312L0.418 6.6H1.826L5.082 20.218L8.602 6.6H10.186L13.706 20.262L16.984 6.6H18.37L14.476 22H12.98ZM20.6253 22V5.478L21.9453 5.302V11.616C23.1773 10.9413 24.3873 10.604 25.5753 10.604C26.7633 10.604 27.68 10.912 28.3253 11.528C28.9853 12.144 29.3153 13.0167 29.3153 14.146V22H27.9953V14.366C27.9953 12.562 27.0787 11.66 25.2453 11.66C24.7613 11.66 24.226 11.7407 23.6393 11.902C23.0673 12.0633 22.5027 12.2833 21.9453 12.562V22H20.6253ZM40.638 21.604C39.626 22.088 38.5406 22.33 37.382 22.33C35.6953 22.33 34.3973 21.8313 33.488 20.834C32.5786 19.8367 32.124 18.4067 32.124 16.544C32.124 14.696 32.5493 13.244 33.4 12.188C34.2506 11.132 35.4166 10.604 36.898 10.604C38.2033 10.604 39.23 11.0147 39.978 11.836C40.7406 12.6427 41.122 13.75 41.122 15.158C41.122 15.686 41.078 16.192 40.99 16.676H33.422C33.4366 19.7413 34.7933 21.274 37.492 21.274C38.5773 21.274 39.626 21.0393 40.638 20.57V21.604ZM36.876 11.638C35.8786 11.638 35.0646 12.0047 34.434 12.738C33.8033 13.4713 33.466 14.454 33.422 15.686H39.846C39.8753 15.4513 39.89 15.246 39.89 15.07C39.89 13.9847 39.626 13.1413 39.098 12.54C38.57 11.9387 37.8293 11.638 36.876 11.638ZM51.4348 22V14.366C51.4348 12.562 50.5181 11.66 48.6848 11.66C48.2008 11.66 47.6655 11.7407 47.0788 11.902C46.5068 12.0633 45.9421 12.2833 45.3848 12.562V22H44.0648V11L45.1868 10.89L45.2748 11.66C46.5508 10.956 47.7975 10.604 49.0148 10.604C50.2028 10.604 51.1195 10.912 51.7648 11.528C52.4248 12.144 52.7548 13.0167 52.7548 14.146V22H51.4348ZM61.7894 22V11.044L63.1094 10.868V22H61.7894ZM62.4494 8.25C62.1561 8.25 61.9141 8.162 61.7234 7.986C61.5474 7.81 61.4594 7.568 61.4594 7.26C61.4594 6.952 61.5474 6.71 61.7234 6.534C61.9141 6.358 62.1561 6.27 62.4494 6.27C62.7427 6.27 62.9774 6.358 63.1534 6.534C63.3441 6.71 63.4394 6.952 63.4394 7.26C63.4394 7.568 63.3441 7.81 63.1534 7.986C62.9774 8.162 62.7427 8.25 62.4494 8.25ZM68.4233 11.946V18.986C68.4233 19.7487 68.5846 20.3133 68.9073 20.68C69.2299 21.032 69.7286 21.208 70.4033 21.208C70.8433 21.208 71.3419 21.1273 71.8993 20.966V21.934C71.2833 22.1393 70.7186 22.242 70.2053 22.242C69.1933 22.242 68.4233 21.9707 67.8953 21.428C67.3673 20.8707 67.1033 20.0493 67.1033 18.964V11.946H65.4313V11L67.1473 10.934L67.2793 8.162L68.4233 8.03V10.934H71.7453V11.946H68.4233ZM79.6859 22V11L80.8079 10.89L80.9179 11.88C81.9006 11.0733 82.9492 10.67 84.0639 10.67C84.4599 10.67 84.7752 10.714 85.0099 10.802V11.88C84.6286 11.792 84.2912 11.748 83.9979 11.748C82.9566 11.748 81.9592 12.122 81.0059 12.87V22H79.6859ZM93.8095 22.044L93.7215 21.274C92.4602 21.978 91.2135 22.33 89.9815 22.33C88.8522 22.33 87.9575 22.0367 87.2975 21.45C86.6375 20.8487 86.3075 20.0273 86.3075 18.986C86.3075 17.886 86.6742 17.05 87.4075 16.478C88.1555 15.8913 89.2482 15.598 90.6855 15.598C91.5509 15.598 92.5335 15.7007 93.6335 15.906V14.41C93.6335 12.5767 92.5995 11.66 90.5315 11.66C89.9889 11.66 89.3949 11.7333 88.7495 11.88C88.1042 12.0267 87.5102 12.2173 86.9675 12.452V11.418C87.4955 11.1687 88.0969 10.9707 88.7715 10.824C89.4609 10.6773 90.1135 10.604 90.7295 10.604C92.1082 10.604 93.1495 10.934 93.8535 11.594C94.5722 12.2393 94.9315 13.178 94.9315 14.41V21.934L93.8095 22.044ZM90.2895 21.274C90.8175 21.274 91.3749 21.1933 91.9615 21.032C92.5482 20.8707 93.1055 20.6507 93.6335 20.372V16.852C92.7095 16.676 91.8002 16.588 90.9055 16.588C89.7762 16.588 88.9549 16.7787 88.4415 17.16C87.9282 17.5413 87.6715 18.1427 87.6715 18.964C87.6715 20.504 88.5442 21.274 90.2895 21.274ZM98.4632 22V11.044L99.7832 10.868V22H98.4632ZM99.1232 8.25C98.8299 8.25 98.5879 8.162 98.3972 7.986C98.2212 7.81 98.1332 7.568 98.1332 7.26C98.1332 6.952 98.2212 6.71 98.3972 6.534C98.5879 6.358 98.8299 6.27 99.1232 6.27C99.4166 6.27 99.6512 6.358 99.8272 6.534C100.018 6.71 100.113 6.952 100.113 7.26C100.113 7.568 100.018 7.81 99.8272 7.986C99.6512 8.162 99.4166 8.25 99.1232 8.25ZM110.839 22V14.366C110.839 12.562 109.922 11.66 108.089 11.66C107.605 11.66 107.07 11.7407 106.483 11.902C105.911 12.0633 105.346 12.2833 104.789 12.562V22H103.469V11L104.591 10.89L104.679 11.66C105.955 10.956 107.202 10.604 108.419 10.604C109.607 10.604 110.524 10.912 111.169 11.528C111.829 12.144 112.159 13.0167 112.159 14.146V22H110.839ZM114.836 20.548C115.936 21.032 117.072 21.274 118.246 21.274C120.226 21.274 121.216 20.504 121.216 18.964C121.216 18.4653 121.069 18.062 120.776 17.754C120.497 17.446 120.028 17.1893 119.368 16.984L117.696 16.456C116.757 16.1627 116.075 15.796 115.65 15.356C115.224 14.9013 115.012 14.3293 115.012 13.64C115.012 12.716 115.371 11.9827 116.09 11.44C116.823 10.8827 117.806 10.604 119.038 10.604C120.079 10.604 121.069 10.802 122.008 11.198V12.232C121.025 11.8507 120.057 11.66 119.104 11.66C118.238 11.66 117.556 11.836 117.058 12.188C116.574 12.5253 116.332 12.9947 116.332 13.596C116.332 14.0213 116.464 14.366 116.728 14.63C117.006 14.8793 117.498 15.1213 118.202 15.356L119.94 15.928C120.834 16.2213 121.487 16.61 121.898 17.094C122.323 17.578 122.536 18.194 122.536 18.942C122.536 20.0273 122.169 20.8633 121.436 21.45C120.702 22.0367 119.668 22.33 118.334 22.33C117.102 22.33 115.994 22.1027 115.012 21.648L114.836 20.548ZM138.187 21.604C137.219 22.088 136.163 22.33 135.019 22.33C133.464 22.33 132.262 21.824 131.411 20.812C130.575 19.8 130.157 18.3553 130.157 16.478C130.157 14.6007 130.575 13.156 131.411 12.144C132.262 11.1173 133.464 10.604 135.019 10.604C136.119 10.604 137.16 10.846 138.143 11.33V12.364C137.116 11.9093 136.119 11.682 135.151 11.682C133.963 11.682 133.061 12.0853 132.445 12.892C131.844 13.6987 131.543 14.894 131.543 16.478C131.543 18.0473 131.844 19.2353 132.445 20.042C133.061 20.8487 133.963 21.252 135.151 21.252C136.148 21.252 137.16 21.0247 138.187 20.57V21.604ZM147.8 22.044L147.712 21.274C146.45 21.978 145.204 22.33 143.972 22.33C142.842 22.33 141.948 22.0367 141.288 21.45C140.628 20.8487 140.298 20.0273 140.298 18.986C140.298 17.886 140.664 17.05 141.398 16.478C142.146 15.8913 143.238 15.598 144.676 15.598C145.541 15.598 146.524 15.7007 147.624 15.906V14.41C147.624 12.5767 146.59 11.66 144.522 11.66C143.979 11.66 143.385 11.7333 142.74 11.88C142.094 12.0267 141.5 12.2173 140.958 12.452V11.418C141.486 11.1687 142.087 10.9707 142.762 10.824C143.451 10.6773 144.104 10.604 144.72 10.604C146.098 10.604 147.14 10.934 147.844 11.594C148.562 12.2393 148.922 13.178 148.922 14.41V21.934L147.8 22.044ZM144.28 21.274C144.808 21.274 145.365 21.1933 145.952 21.032C146.538 20.8707 147.096 20.6507 147.624 20.372V16.852C146.7 16.676 145.79 16.588 144.896 16.588C143.766 16.588 142.945 16.7787 142.432 17.16C141.918 17.5413 141.662 18.1427 141.662 18.964C141.662 20.504 142.534 21.274 144.28 21.274ZM151.595 20.548C152.695 21.032 153.832 21.274 155.005 21.274C156.985 21.274 157.975 20.504 157.975 18.964C157.975 18.4653 157.829 18.062 157.535 17.754C157.257 17.446 156.787 17.1893 156.127 16.984L154.455 16.456C153.517 16.1627 152.835 15.796 152.409 15.356C151.984 14.9013 151.771 14.3293 151.771 13.64C151.771 12.716 152.131 11.9827 152.849 11.44C153.583 10.8827 154.565 10.604 155.797 10.604C156.839 10.604 157.829 10.802 158.767 11.198V12.232C157.785 11.8507 156.817 11.66 155.863 11.66C154.998 11.66 154.316 11.836 153.817 12.188C153.333 12.5253 153.091 12.9947 153.091 13.596C153.091 14.0213 153.223 14.366 153.487 14.63C153.766 14.8793 154.257 15.1213 154.961 15.356L156.699 15.928C157.594 16.2213 158.247 16.61 158.657 17.094C159.083 17.578 159.295 18.194 159.295 18.942C159.295 20.0273 158.929 20.8633 158.195 21.45C157.462 22.0367 156.428 22.33 155.093 22.33C153.861 22.33 152.754 22.1027 151.771 21.648L151.595 20.548ZM162.143 22V5.478L163.463 5.302V11.616C164.695 10.9413 165.905 10.604 167.093 10.604C168.281 10.604 169.198 10.912 169.843 11.528C170.503 12.144 170.833 13.0167 170.833 14.146V22H169.513V14.366C169.513 12.562 168.596 11.66 166.763 11.66C166.279 11.66 165.744 11.7407 165.157 11.902C164.585 12.0633 164.02 12.2833 163.463 12.562V22H162.143ZM3.168 39.594C3.72533 39.286 4.29 39.044 4.862 38.868C5.44867 38.692 5.99133 38.604 6.49 38.604C7.92733 38.604 9.05667 39.11 9.878 40.122C10.6993 41.1193 11.11 42.5053 11.11 44.28C11.11 46.2307 10.6407 47.7267 9.702 48.768C8.778 49.8093 7.436 50.33 5.676 50.33C4.42933 50.33 3.15333 50.1247 1.848 49.714V33.478L3.168 33.302V39.594ZM6.314 39.66C5.83 39.66 5.30933 39.7407 4.752 39.902C4.19467 40.0633 3.66667 40.2833 3.168 40.562V48.922C3.93067 49.1567 4.73 49.274 5.566 49.274C6.974 49.274 8.01533 48.8707 8.69 48.064C9.37933 47.2427 9.724 45.9887 9.724 44.302C9.724 42.7913 9.43067 41.64 8.844 40.848C8.272 40.056 7.42867 39.66 6.314 39.66ZM20.8486 50.044L20.7606 49.274C19.4993 49.978 18.2526 50.33 17.0206 50.33C15.8913 50.33 14.9966 50.0367 14.3366 49.45C13.6766 48.8487 13.3466 48.0273 13.3466 46.986C13.3466 45.886 13.7133 45.05 14.4466 44.478C15.1946 43.8913 16.2873 43.598 17.7246 43.598C18.5899 43.598 19.5726 43.7007 20.6726 43.906V42.41C20.6726 40.5767 19.6386 39.66 17.5706 39.66C17.0279 39.66 16.4339 39.7333 15.7886 39.88C15.1433 40.0267 14.5493 40.2173 14.0066 40.452V39.418C14.5346 39.1687 15.1359 38.9707 15.8106 38.824C16.4999 38.6773 17.1526 38.604 17.7686 38.604C19.1473 38.604 20.1886 38.934 20.8926 39.594C21.6113 40.2393 21.9706 41.178 21.9706 42.41V49.934L20.8486 50.044ZM17.3286 49.274C17.8566 49.274 18.4139 49.1933 19.0006 49.032C19.5873 48.8707 20.1446 48.6507 20.6726 48.372V44.852C19.7486 44.676 18.8393 44.588 17.9446 44.588C16.8153 44.588 15.9939 44.7787 15.4806 45.16C14.9673 45.5413 14.7106 46.1427 14.7106 46.964C14.7106 48.504 15.5833 49.274 17.3286 49.274ZM32.8063 49.604C31.8383 50.088 30.7823 50.33 29.6383 50.33C28.0836 50.33 26.881 49.824 26.0303 48.812C25.1943 47.8 24.7763 46.3553 24.7763 44.478C24.7763 42.6007 25.1943 41.156 26.0303 40.144C26.881 39.1173 28.0836 38.604 29.6383 38.604C30.7383 38.604 31.7796 38.846 32.7623 39.33V40.364C31.7356 39.9093 30.7383 39.682 29.7703 39.682C28.5823 39.682 27.6803 40.0853 27.0643 40.892C26.463 41.6987 26.1623 42.894 26.1623 44.478C26.1623 46.0473 26.463 47.2353 27.0643 48.042C27.6803 48.8487 28.5823 49.252 29.7703 49.252C30.7676 49.252 31.7796 49.0247 32.8063 48.57V49.604ZM35.6429 50V33.478L36.9629 33.302V43.84L42.1549 38.934H43.7169L38.2829 44.082L43.8929 50H42.2209L36.9629 44.412V50H35.6429ZM44.5081 53.322C44.9041 52.8087 45.2194 52.266 45.4541 51.694C45.7034 51.122 45.8354 50.5793 45.8501 50.066C45.6301 50.0073 45.4614 49.8973 45.3441 49.736C45.2267 49.56 45.1681 49.3473 45.1681 49.098C45.1681 48.79 45.2634 48.548 45.4541 48.372C45.6447 48.1813 45.8867 48.086 46.1801 48.086C46.5027 48.086 46.7521 48.2033 46.9281 48.438C47.1041 48.658 47.1921 48.966 47.1921 49.362C47.1921 50.0073 46.9794 50.7333 46.5541 51.54C46.1434 52.3613 45.6227 53.058 44.9921 53.63L44.5081 53.322ZM55.7953 50V39.044L57.1153 38.868V50H55.7953ZM56.4553 36.25C56.1619 36.25 55.9199 36.162 55.7293 35.986C55.5533 35.81 55.4653 35.568 55.4653 35.26C55.4653 34.952 55.5533 34.71 55.7293 34.534C55.9199 34.358 56.1619 34.27 56.4553 34.27C56.7486 34.27 56.9833 34.358 57.1593 34.534C57.3499 34.71 57.4453 34.952 57.4453 35.26C57.4453 35.568 57.3499 35.81 57.1593 35.986C56.9833 36.162 56.7486 36.25 56.4553 36.25ZM62.4291 39.946V46.986C62.4291 47.7487 62.5905 48.3133 62.9131 48.68C63.2358 49.032 63.7345 49.208 64.4091 49.208C64.8491 49.208 65.3478 49.1273 65.9051 48.966V49.934C65.2891 50.1393 64.7245 50.242 64.2111 50.242C63.1991 50.242 62.4291 49.9707 61.9011 49.428C61.3731 48.8707 61.1091 48.0493 61.1091 46.964V39.946H59.4371V39L61.1531 38.934L61.2851 36.162L62.4291 36.03V38.934H65.7511V39.946H62.4291ZM73.6918 54.906V39L74.8138 38.89L74.9018 39.66C76.1484 38.956 77.2924 38.604 78.3338 38.604C79.7711 38.604 80.9004 39.11 81.7218 40.122C82.5431 41.1193 82.9537 42.5053 82.9537 44.28C82.9537 46.2307 82.4844 47.7267 81.5458 48.768C80.6218 49.8093 79.2798 50.33 77.5198 50.33C76.6104 50.33 75.7744 50.2127 75.0118 49.978V54.73L73.6918 54.906ZM78.1578 39.66C77.6738 39.66 77.1531 39.7407 76.5958 39.902C76.0384 40.0633 75.5104 40.2833 75.0118 40.562V48.922C75.7744 49.1567 76.5738 49.274 77.4098 49.274C78.8178 49.274 79.8591 48.8707 80.5338 48.064C81.2231 47.2427 81.5678 45.9887 81.5678 44.302C81.5678 42.7913 81.2744 41.64 80.6878 40.848C80.1158 40.056 79.2724 39.66 78.1578 39.66ZM90.0304 50.33C88.4317 50.33 87.2217 49.8387 86.4004 48.856C85.5937 47.8587 85.1904 46.392 85.1904 44.456C85.1904 42.5347 85.5937 41.0827 86.4004 40.1C87.2217 39.1027 88.4317 38.604 90.0304 38.604C91.629 38.604 92.8317 39.1027 93.6384 40.1C94.4597 41.0827 94.8704 42.5347 94.8704 44.456C94.8704 46.392 94.4597 47.8587 93.6384 48.856C92.8317 49.8387 91.629 50.33 90.0304 50.33ZM90.0304 49.274C91.233 49.274 92.1057 48.8927 92.6484 48.13C93.2057 47.3527 93.4844 46.128 93.4844 44.456C93.4844 42.7987 93.2057 41.5887 92.6484 40.826C92.1057 40.0487 91.233 39.66 90.0304 39.66C88.8277 39.66 87.9477 40.0487 87.3904 40.826C86.8477 41.5887 86.5764 42.7987 86.5764 44.456C86.5764 46.128 86.8477 47.3527 87.3904 48.13C87.9477 48.8927 88.8277 49.274 90.0304 49.274ZM99.0062 38.934V46.568C99.0062 48.372 99.8935 49.274 101.668 49.274C102.152 49.274 102.68 49.1933 103.252 49.032C103.839 48.8707 104.411 48.6507 104.968 48.372V38.934H106.288V49.934L105.166 50.044L105.078 49.274C103.802 49.978 102.556 50.33 101.338 50.33C100.18 50.33 99.2775 50.022 98.6322 49.406C98.0015 48.7753 97.6862 47.9027 97.6862 46.788V38.934H99.0062ZM109.979 50V39L111.101 38.89L111.211 39.88C112.194 39.0733 113.242 38.67 114.357 38.67C114.753 38.67 115.068 38.714 115.303 38.802V39.88C114.922 39.792 114.584 39.748 114.291 39.748C113.25 39.748 112.252 40.122 111.299 40.87V50H109.979ZM116.683 48.548C117.783 49.032 118.92 49.274 120.093 49.274C122.073 49.274 123.063 48.504 123.063 46.964C123.063 46.4653 122.917 46.062 122.623 45.754C122.345 45.446 121.875 45.1893 121.215 44.984L119.543 44.456C118.605 44.1627 117.923 43.796 117.497 43.356C117.072 42.9013 116.859 42.3293 116.859 41.64C116.859 40.716 117.219 39.9827 117.937 39.44C118.671 38.8827 119.653 38.604 120.885 38.604C121.927 38.604 122.917 38.802 123.855 39.198V40.232C122.873 39.8507 121.905 39.66 120.951 39.66C120.086 39.66 119.404 39.836 118.905 40.188C118.421 40.5253 118.179 40.9947 118.179 41.596C118.179 42.0213 118.311 42.366 118.575 42.63C118.854 42.8793 119.345 43.1213 120.049 43.356L121.787 43.928C122.682 44.2213 123.335 44.61 123.745 45.094C124.171 45.578 124.383 46.194 124.383 46.942C124.383 48.0273 124.017 48.8633 123.283 49.45C122.55 50.0367 121.516 50.33 120.181 50.33C118.949 50.33 117.842 50.1027 116.859 49.648L116.683 48.548ZM128.067 45.6L127.869 34.6L129.277 34.424L129.079 45.6H128.067ZM128.573 50.11C128.279 50.11 128.037 50.022 127.847 49.846C127.656 49.6553 127.561 49.406 127.561 49.098C127.561 48.79 127.656 48.548 127.847 48.372C128.037 48.1813 128.279 48.086 128.573 48.086C128.866 48.086 129.108 48.1813 129.299 48.372C129.489 48.548 129.585 48.79 129.585 49.098C129.585 49.406 129.489 49.6553 129.299 49.846C129.108 50.022 128.866 50.11 128.573 50.11Z" fill="#013D5B"/>
</g>
<defs>
<clipPath id="clip0_11121_4428">
<rect width="173" height="28" fill="white"/>
</clipPath>
</defs>
</svg>
