<svg width="133" height="30" viewBox="0 0 133 30" fill="none" xmlns="http://www.w3.org/2000/svg">
<path d="M40.1487 16.5122C39.7919 16.6448 39.3365 16.7822 38.7684 16.9006C38.2004 17.0285 37.1676 17.2133 35.6606 17.4549C34.6231 17.6207 33.9048 17.8386 33.4964 18.1323C33.1068 18.426 32.872 18.7765 32.8063 19.1982C32.7265 19.6529 32.872 20.0177 33.2617 20.2972C33.656 20.5767 34.3227 20.7188 35.2616 20.7188C35.9658 20.7188 36.6559 20.6051 37.3225 20.3872C37.9985 20.1645 38.5666 19.8614 39.0079 19.4824C39.3318 19.2029 39.5618 18.8429 39.7308 18.4165C39.8294 18.137 39.975 17.5022 40.1393 16.5027L40.1487 16.5122ZM48.7773 11.0975C48.7398 11.9076 48.6036 12.6134 48.3877 13.8498L46.9277 22.121C46.8009 22.8553 47.0732 23.4332 47.7492 23.8264L47.7023 24.1485L39.3412 24.1391L39.2661 22.0357C38.0502 22.7747 36.5808 23.4001 35.2522 23.7696C33.9283 24.1106 32.8532 24.267 31.2477 24.267C28.5483 24.267 26.9991 23.9827 25.9334 23.04C24.849 22.0642 24.3232 21.4199 24.3748 20.0793C24.4171 19.3071 24.8114 18.317 25.3841 17.6254C25.9616 16.9196 26.7503 16.4648 27.6094 16.0574C28.4732 15.6405 29.4872 15.3421 30.966 15.1052C32.4448 14.8636 34.5057 14.622 37.2615 14.3899C38.7121 14.2667 39.5947 13.9304 40.0078 13.7646C40.5853 13.5372 40.8106 13.2909 40.8951 12.8171C41.05 11.9644 40.7777 11.4812 39.6604 11.2586C36.6465 10.6617 31.0036 11.647 28.0929 12.3813L29.675 8.07519C33.5105 7.51147 37.1113 7.1467 40.8951 7.1467C46.9136 7.1467 48.8384 8.88052 48.7773 11.1023V11.0975Z" fill="#013D5B"/>
<path d="M73.0154 24.1485L75.9166 7.62516H83.9209L81.0197 24.1485H73.0154ZM76.3626 3.7975C76.6021 2.43792 78.7287 1.33889 81.0995 1.33889C83.4703 1.33889 85.2119 2.44266 84.9819 3.7975C84.7331 5.15708 82.6111 6.25611 80.231 6.25611C77.8508 6.25611 76.1185 5.15708 76.3626 3.7975Z" fill="#013D5B"/>
<path d="M112.346 16.5501C111.99 16.6732 111.52 16.8059 110.957 16.9385C110.398 17.0759 109.361 17.2417 107.849 17.488C106.821 17.6538 106.088 17.8717 105.694 18.1702C105.309 18.4544 105.084 18.805 104.999 19.2313C104.915 19.6908 105.079 20.0556 105.455 20.3303C105.858 20.6098 106.53 20.7472 107.469 20.7472C108.168 20.7472 108.849 20.643 109.52 20.4298C110.201 20.1977 110.769 19.904 111.21 19.525C111.515 19.2455 111.755 18.8808 111.924 18.4497C112.027 18.1749 112.168 17.5354 112.342 16.5453L112.346 16.5501ZM120.975 11.126C120.942 11.936 120.801 12.6513 120.581 13.8783L119.13 22.1589C119.003 22.8884 119.271 23.4616 119.947 23.869L119.895 24.158L111.539 24.1722L111.473 22.0642C110.253 22.8126 108.774 23.4332 107.455 23.7932C106.121 24.1438 105.051 24.2907 103.431 24.2907C100.732 24.2907 99.1968 24.0159 98.1264 23.0685C97.0373 22.0926 96.5115 21.4483 96.5678 20.1124C96.596 19.3355 96.9997 18.3407 97.5772 17.6586C98.1546 16.948 98.9433 16.4932 99.8071 16.0858C100.671 15.6784 101.69 15.3752 103.15 15.1289C104.638 14.8968 106.703 14.6457 109.459 14.4136C110.896 14.2904 111.778 13.9635 112.191 13.8025C112.774 13.5751 113.004 13.3193 113.093 12.8456C113.243 12.0118 112.975 11.5144 111.868 11.287C108.839 10.6854 103.211 11.6755 100.3 12.405L101.873 8.10362C105.727 7.53516 109.304 7.17513 113.093 7.17513C119.107 7.17513 121.027 8.91368 120.975 11.1354V11.126Z" fill="#013D5B"/>
<path d="M23.2804 18.2081C20.6749 18.7292 19.2102 18.9281 16.6329 18.9281C12.8068 18.9281 9.76937 17.0143 9.93368 13.4993C10.051 11.1591 12.7974 6.22295 19.7736 6.22295C21.9706 6.22295 23.6842 6.61613 25.9939 7.94255L27.0079 2.20106C23.8672 1.00255 21.7875 0.822531 19.0928 0.855691C9.95246 0.955173 1.16417 5.15234 0.075023 13.6793C-1.0329 22.3484 9.45952 24.5275 14.1166 24.5086C16.8066 24.4991 19.6046 24.3901 22.2147 24.1154L23.2757 18.1986L23.2804 18.2081Z" fill="#013D5B"/>
<path d="M88.3292 7.53042L88.9067 4.167L97.2772 2.32896L96.3852 7.53042H100.484L99.7043 10.8607L95.7279 10.8512L93.3102 24.1391C93.3102 24.1391 85.2496 24.0869 85.2214 24.1391L87.6298 10.8844H84.5876L85.2073 7.53515H88.3339L88.3292 7.53042Z" fill="#013D5B"/>
<path d="M129.102 24.1343L120.947 24.1485L125.05 1.09255L132.994 1.31994L129.102 24.1343Z" fill="#013D5B"/>
<path d="M62.4245 11.4955C61.3776 11.4955 60.4246 11.8129 59.5843 12.4571C58.7486 13.1014 58.2181 14.0393 58.0022 15.2852C57.7487 16.7301 57.8989 17.7628 58.4623 18.4023C59.035 19.0371 59.8566 19.3545 60.9363 19.3545C61.664 19.3545 62.4198 19.2218 62.9738 18.9471C63.6592 18.5823 64.1333 18.1939 64.5418 17.5875C64.9831 16.948 65.2741 16.2327 65.4243 15.4084C65.6544 14.1057 65.4619 13.1251 64.861 12.4808C64.2789 11.8176 63.4761 11.4907 62.4292 11.4907L62.4245 11.4955ZM47.8478 29.8521L51.7443 7.7057H58.7721L58.2275 10.5338C58.8378 9.69059 59.8143 8.99895 61.157 8.43049C62.5137 7.8715 64.0394 7.45462 65.6966 7.45462C67.5322 7.45462 68.6636 7.55411 70.0344 8.27416C71.4006 8.99896 72.3489 10.0459 72.87 11.4102C73.3958 12.7556 73.5084 14.2667 73.2221 15.9105C72.7479 18.6392 71.4287 20.7946 69.2645 22.3721C67.1191 23.9543 65.1896 24.3665 62.4292 24.3807C61.4527 24.3807 60.6359 24.2764 59.9598 24.1106C59.2979 23.9354 58.7674 23.7222 58.3637 23.4664C57.9787 23.2058 57.5703 22.8458 57.0445 22.2631L55.7347 29.8521H47.8384H47.8478Z" fill="#013D5B"/>
</svg>
