<svg width="253" height="55" viewBox="0 0 253 55" fill="none" xmlns="http://www.w3.org/2000/svg">
<path d="M1.03604 20.02V0.840018C3.16404 0.448018 5.03071 0.252019 6.63604 0.252019C8.68937 0.252019 10.276 0.681352 11.396 1.54002C12.5347 2.39869 13.104 3.61202 13.104 5.18002C13.104 6.30002 12.796 7.26135 12.18 8.06402C11.5827 8.84802 10.7054 9.41735 9.54804 9.77202C10.4814 9.94002 11.2747 10.248 11.928 10.696C12.5814 11.144 13.076 11.7134 13.412 12.404C13.7667 13.0947 13.944 13.8787 13.944 14.756C13.944 16.4547 13.3654 17.7614 12.208 18.676C11.0694 19.572 9.41737 20.02 7.25204 20.02H1.03604ZM7.19604 18.62C10.5 18.62 12.152 17.2947 12.152 14.644C12.152 13.356 11.7134 12.3574 10.836 11.648C9.95871 10.9387 8.70804 10.584 7.08404 10.584H2.77204V18.62H7.19604ZM6.44004 1.65202C5.39471 1.65202 4.17204 1.76402 2.77204 1.98802V9.24002H6.97204C8.31604 9.24002 9.38004 8.89469 10.164 8.20402C10.948 7.49469 11.34 6.53335 11.34 5.32002C11.34 2.87469 9.70671 1.65202 6.44004 1.65202ZM17.4324 20.02V6.02002L18.8604 5.88002L19.0004 7.14002C20.2511 6.11335 21.5858 5.60002 23.0044 5.60002C23.5084 5.60002 23.9098 5.65602 24.2084 5.76802V7.14002C23.7231 7.02802 23.2938 6.97202 22.9204 6.97202C21.5951 6.97202 20.3258 7.44802 19.1124 8.40002V20.02H17.4324ZM27.0574 20.02V6.07602L28.7374 5.85202V20.02H27.0574ZM27.8974 2.52002C27.5241 2.52002 27.2161 2.40802 26.9734 2.18402C26.7494 1.96002 26.6374 1.65202 26.6374 1.26002C26.6374 0.868019 26.7494 0.560019 26.9734 0.336019C27.2161 0.112019 27.5241 1.85966e-05 27.8974 1.85966e-05C28.2708 1.85966e-05 28.5694 0.112019 28.7934 0.336019C29.0361 0.560019 29.1574 0.868019 29.1574 1.26002C29.1574 1.65202 29.0361 1.96002 28.7934 2.18402C28.5694 2.40802 28.2708 2.52002 27.8974 2.52002ZM42.8085 20.02V10.304C42.8085 8.00802 41.6419 6.86002 39.3085 6.86002C38.6925 6.86002 38.0112 6.96269 37.2645 7.16802C36.5365 7.37335 35.8179 7.65335 35.1085 8.00802V20.02H33.4285V6.02002L34.8565 5.88002L34.9685 6.86002C36.5925 5.96402 38.1792 5.51602 39.7285 5.51602C41.2405 5.51602 42.4072 5.90802 43.2285 6.69202C44.0685 7.47602 44.4885 8.58669 44.4885 10.024V20.02H42.8085ZM53.5791 26.544C51.9178 26.544 50.5085 26.2547 49.3511 25.676L49.1271 24.248C50.6578 24.8827 52.1138 25.2 53.4951 25.2C56.6125 25.2 58.1711 23.7534 58.1711 20.86V18.928C57.4618 19.32 56.7338 19.628 55.9871 19.852C55.2591 20.076 54.5778 20.188 53.9431 20.188C52.1138 20.188 50.6765 19.572 49.6311 18.34C48.5858 17.108 48.0631 15.4 48.0631 13.216C48.0631 10.7334 48.6511 8.82935 49.8271 7.50402C51.0218 6.17869 52.7391 5.51602 54.9791 5.51602C56.6778 5.51602 58.3018 5.81469 59.8511 6.41202V20.72C59.8511 22.5867 59.3098 24.024 58.2271 25.032C57.1445 26.04 55.5951 26.544 53.5791 26.544ZM54.1671 18.844C54.7831 18.844 55.4458 18.7414 56.1551 18.536C56.8645 18.3307 57.5365 18.0507 58.1711 17.696V7.30802C57.2005 7.00935 56.1831 6.86002 55.1191 6.86002C53.3271 6.86002 51.9925 7.38269 51.1151 8.42802C50.2565 9.45469 49.8271 11.0414 49.8271 13.188C49.8271 15.036 50.1911 16.4454 50.9191 17.416C51.6658 18.368 52.7485 18.844 54.1671 18.844ZM69.6137 24.864C70.9391 24.6214 71.9751 24.1547 72.7217 23.464C73.4684 22.7734 74.1591 21.672 74.7937 20.16L69.4177 5.93602H71.1817L75.5777 18.284L80.1137 5.93602H81.7937L76.4177 19.88C75.9137 21.224 75.3817 22.316 74.8217 23.156C74.2804 24.0147 73.6364 24.6867 72.8897 25.172C72.1431 25.676 71.1724 26.0587 69.9777 26.32L69.6137 24.864ZM89.3325 20.44C87.2978 20.44 85.7578 19.8147 84.7125 18.564C83.6858 17.2947 83.1725 15.428 83.1725 12.964C83.1725 10.5187 83.6858 8.67069 84.7125 7.42002C85.7578 6.15069 87.2978 5.51602 89.3325 5.51602C91.3672 5.51602 92.8978 6.15069 93.9245 7.42002C94.9698 8.67069 95.4925 10.5187 95.4925 12.964C95.4925 15.428 94.9698 17.2947 93.9245 18.564C92.8978 19.8147 91.3672 20.44 89.3325 20.44ZM89.3325 19.096C90.8632 19.096 91.9738 18.6107 92.6645 17.64C93.3738 16.6507 93.7285 15.092 93.7285 12.964C93.7285 10.8547 93.3738 9.31469 92.6645 8.34402C91.9738 7.35469 90.8632 6.86002 89.3325 6.86002C87.8018 6.86002 86.6818 7.35469 85.9725 8.34402C85.2818 9.31469 84.9365 10.8547 84.9365 12.964C84.9365 15.092 85.2818 16.6507 85.9725 17.64C86.6818 18.6107 87.8018 19.096 89.3325 19.096ZM100.756 5.93602V15.652C100.756 17.948 101.886 19.096 104.144 19.096C104.76 19.096 105.432 18.9934 106.16 18.788C106.907 18.5827 107.635 18.3027 108.344 17.948V5.93602H110.024V19.936L108.596 20.076L108.484 19.096C106.86 19.992 105.274 20.44 103.724 20.44C102.25 20.44 101.102 20.048 100.28 19.264C99.4776 18.4614 99.0763 17.3507 99.0763 15.932V5.93602H100.756ZM114.722 20.02V6.02002L116.15 5.88002L116.29 7.14002C117.54 6.11335 118.875 5.60002 120.294 5.60002C120.798 5.60002 121.199 5.65602 121.498 5.76802V7.14002C121.012 7.02802 120.583 6.97202 120.21 6.97202C118.884 6.97202 117.615 7.44802 116.402 8.40002V20.02H114.722ZM143.443 20.02L141.595 14.728H132.859L131.067 20.02H129.247L136.191 0.420018H138.235L145.207 20.02H143.443ZM133.335 13.384H141.147L137.199 2.07202L133.335 13.384ZM146.309 13.692V12.236H153.617V13.692H146.309ZM161.97 26.544C160.308 26.544 158.899 26.2547 157.742 25.676L157.518 24.248C159.048 24.8827 160.504 25.2 161.886 25.2C165.003 25.2 166.562 23.7534 166.562 20.86V18.928C165.852 19.32 165.124 19.628 164.378 19.852C163.65 20.076 162.968 20.188 162.334 20.188C160.504 20.188 159.067 19.572 158.022 18.34C156.976 17.108 156.454 15.4 156.454 13.216C156.454 10.7334 157.042 8.82935 158.218 7.50402C159.412 6.17869 161.13 5.51602 163.37 5.51602C165.068 5.51602 166.692 5.81469 168.242 6.41202V20.72C168.242 22.5867 167.7 24.024 166.618 25.032C165.535 26.04 163.986 26.544 161.97 26.544ZM162.558 18.844C163.174 18.844 163.836 18.7414 164.546 18.536C165.255 18.3307 165.927 18.0507 166.562 17.696V7.30802C165.591 7.00935 164.574 6.86002 163.51 6.86002C161.718 6.86002 160.383 7.38269 159.506 8.42802C158.647 9.45469 158.218 11.0414 158.218 13.188C158.218 15.036 158.582 16.4454 159.31 17.416C160.056 18.368 161.139 18.844 162.558 18.844ZM181.56 20.076L181.448 19.096C179.843 19.992 178.256 20.44 176.688 20.44C175.251 20.44 174.112 20.0667 173.272 19.32C172.432 18.5547 172.012 17.5094 172.012 16.184C172.012 14.784 172.479 13.72 173.412 12.992C174.364 12.2454 175.755 11.872 177.584 11.872C178.686 11.872 179.936 12.0027 181.336 12.264V10.36C181.336 8.02669 180.02 6.86002 177.388 6.86002C176.698 6.86002 175.942 6.95335 175.12 7.14002C174.299 7.32669 173.543 7.56935 172.852 7.86802V6.55202C173.524 6.23469 174.29 5.98269 175.148 5.79602C176.026 5.60935 176.856 5.51602 177.64 5.51602C179.395 5.51602 180.72 5.93602 181.616 6.77602C182.531 7.59735 182.988 8.79202 182.988 10.36V19.936L181.56 20.076ZM177.08 19.096C177.752 19.096 178.462 18.9934 179.208 18.788C179.955 18.5827 180.664 18.3027 181.336 17.948V13.468C180.16 13.244 179.003 13.132 177.864 13.132C176.427 13.132 175.382 13.3747 174.728 13.86C174.075 14.3454 173.748 15.1107 173.748 16.156C173.748 18.116 174.859 19.096 177.08 19.096ZM204.339 20.02V10.024C204.339 7.91469 203.341 6.86002 201.343 6.86002C200.186 6.86002 198.861 7.28002 197.367 8.12002C197.517 8.62402 197.591 9.16535 197.591 9.74402V20.02H195.911V10.024C195.911 7.91469 194.913 6.86002 192.915 6.86002C191.795 6.86002 190.545 7.24269 189.163 8.00802V20.02H187.483V6.02002L188.911 5.88002L189.023 6.86002C190.61 5.96402 192.047 5.51602 193.335 5.51602C194.978 5.51602 196.163 6.05735 196.891 7.14002C198.702 6.05735 200.326 5.51602 201.763 5.51602C203.126 5.51602 204.171 5.88002 204.899 6.60802C205.646 7.33602 206.019 8.38135 206.019 9.74402V20.02H204.339ZM220.446 19.516C219.158 20.132 217.777 20.44 216.302 20.44C214.155 20.44 212.503 19.8054 211.346 18.536C210.189 17.2667 209.61 15.4467 209.61 13.076C209.61 10.724 210.151 8.87602 211.234 7.53202C212.317 6.18802 213.801 5.51602 215.686 5.51602C217.347 5.51602 218.654 6.03869 219.606 7.08402C220.577 8.11069 221.062 9.52002 221.062 11.312C221.062 11.984 221.006 12.628 220.894 13.244H211.262C211.281 17.1454 213.007 19.096 216.442 19.096C217.823 19.096 219.158 18.7974 220.446 18.2V19.516ZM215.658 6.83202C214.389 6.83202 213.353 7.29869 212.55 8.23202C211.747 9.16535 211.318 10.416 211.262 11.984H219.438C219.475 11.6854 219.494 11.424 219.494 11.2C219.494 9.81869 219.158 8.74535 218.486 7.98002C217.814 7.21469 216.871 6.83202 215.658 6.83202ZM233.879 7.22402V16.184C233.879 17.1547 234.085 17.8734 234.495 18.34C234.906 18.788 235.541 19.012 236.399 19.012C236.959 19.012 237.594 18.9094 238.303 18.704V19.936C237.519 20.1974 236.801 20.328 236.147 20.328C234.859 20.328 233.879 19.9827 233.207 19.292C232.535 18.5827 232.199 17.5374 232.199 16.156V7.22402H230.071V6.02002L232.255 5.93602L232.423 2.40802L233.879 2.24002V5.93602H238.107V7.22402H233.879ZM246.45 20.44C244.415 20.44 242.875 19.8147 241.83 18.564C240.803 17.2947 240.29 15.428 240.29 12.964C240.29 10.5187 240.803 8.67069 241.83 7.42002C242.875 6.15069 244.415 5.51602 246.45 5.51602C248.484 5.51602 250.015 6.15069 251.042 7.42002C252.087 8.67069 252.61 10.5187 252.61 12.964C252.61 15.428 252.087 17.2947 251.042 18.564C250.015 19.8147 248.484 20.44 246.45 20.44ZM246.45 19.096C247.98 19.096 249.091 18.6107 249.782 17.64C250.491 16.6507 250.846 15.092 250.846 12.964C250.846 10.8547 250.491 9.31469 249.782 8.34402C249.091 7.35469 247.98 6.86002 246.45 6.86002C244.919 6.86002 243.799 7.35469 243.09 8.34402C242.399 9.31469 242.054 10.8547 242.054 12.964C242.054 15.092 242.399 16.6507 243.09 17.64C243.799 18.6107 244.919 19.096 246.45 19.096ZM12.964 53.236C11.3587 54.0387 9.67871 54.44 7.92404 54.44C5.44137 54.44 3.50004 53.544 2.10004 51.752C0.700038 49.9414 3.81619e-05 47.4307 3.81619e-05 44.22C3.81619e-05 41.0094 0.700038 38.508 2.10004 36.716C3.50004 34.9054 5.44137 34 7.92404 34C9.62271 34 11.2747 34.4014 12.88 35.204V36.632C12.0214 36.2214 11.2187 35.9227 10.472 35.736C9.72537 35.5494 8.95071 35.456 8.14804 35.456C6.07604 35.456 4.50804 36.2027 3.44404 37.696C2.3987 39.1707 1.87604 41.3454 1.87604 44.22C1.87604 47.0947 2.3987 49.2787 3.44404 50.772C4.50804 52.2467 6.07604 52.984 8.14804 52.984C9.73471 52.984 11.34 52.592 12.964 51.808V53.236ZM16.8035 54.02V32.992L18.4835 32.768V40.804C20.0515 39.9454 21.5915 39.516 23.1035 39.516C24.6155 39.516 25.7822 39.908 26.6035 40.692C27.4435 41.476 27.8635 42.5867 27.8635 44.024V54.02H26.1835V44.304C26.1835 42.008 25.0169 40.86 22.6835 40.86C22.0675 40.86 21.3862 40.9627 20.6395 41.168C19.9115 41.3734 19.1929 41.6534 18.4835 42.008V54.02H16.8035ZM33.8461 39.936V49.652C33.8461 51.948 34.9755 53.096 37.2341 53.096C37.8501 53.096 38.5221 52.9934 39.2501 52.788C39.9968 52.5827 40.7248 52.3027 41.4341 51.948V39.936H43.1141V53.936L41.6861 54.076L41.5741 53.096C39.9501 53.992 38.3635 54.44 36.8141 54.44C35.3395 54.44 34.1915 54.048 33.3701 53.264C32.5675 52.4614 32.1661 51.3507 32.1661 49.932V39.936H33.8461ZM57.1074 53.516C55.8754 54.132 54.5314 54.44 53.0754 54.44C51.0967 54.44 49.566 53.796 48.4834 52.508C47.4194 51.22 46.8874 49.3814 46.8874 46.992C46.8874 44.6027 47.4194 42.764 48.4834 41.476C49.566 40.1694 51.0967 39.516 53.0754 39.516C54.4754 39.516 55.8007 39.824 57.0514 40.44V41.756C55.7447 41.1774 54.4754 40.888 53.2434 40.888C51.7314 40.888 50.5834 41.4014 49.7994 42.428C49.034 43.4547 48.6514 44.976 48.6514 46.992C48.6514 48.9894 49.034 50.5014 49.7994 51.528C50.5834 52.5547 51.7314 53.068 53.2434 53.068C54.5127 53.068 55.8007 52.7787 57.1074 52.2V53.516ZM60.7176 54.02V32.992L62.3976 32.768V46.18L69.0056 39.936H70.9936L64.0776 46.488L71.2176 54.02H69.0896L62.3976 46.908V54.02H60.7176ZM72.0005 40.496C72.5045 39.8427 72.9058 39.1614 73.2045 38.452C73.5218 37.724 73.6898 37.0427 73.7085 36.408C73.4285 36.3334 73.2138 36.1934 73.0645 35.988C72.9152 35.764 72.8405 35.4934 72.8405 35.176C72.8405 34.784 72.9618 34.476 73.2045 34.252C73.4472 34.0094 73.7552 33.888 74.1285 33.888C74.5392 33.888 74.8565 34.0374 75.0805 34.336C75.3045 34.616 75.4165 35.008 75.4165 35.512C75.4165 36.3334 75.1458 37.2574 74.6045 38.284C74.0818 39.292 73.4192 40.16 72.6165 40.888L72.0005 40.496ZM77.399 52.172C78.799 52.788 80.2457 53.096 81.739 53.096C84.259 53.096 85.519 52.116 85.519 50.156C85.519 49.5214 85.3324 49.008 84.959 48.616C84.6044 48.224 84.007 47.8974 83.167 47.636L81.039 46.964C79.8444 46.5907 78.9764 46.124 78.435 45.564C77.8937 44.9854 77.623 44.2574 77.623 43.38C77.623 42.204 78.0804 41.2707 78.995 40.58C79.9284 39.8707 81.179 39.516 82.747 39.516C84.0724 39.516 85.3324 39.768 86.527 40.272V41.588C85.2764 41.1027 84.0444 40.86 82.831 40.86C81.7297 40.86 80.8617 41.084 80.227 41.532C79.611 41.9614 79.303 42.5587 79.303 43.324C79.303 43.8654 79.471 44.304 79.807 44.64C80.1617 44.9574 80.787 45.2654 81.683 45.564L83.895 46.292C85.0337 46.6654 85.8644 47.16 86.387 47.776C86.9284 48.392 87.199 49.176 87.199 50.128C87.199 51.5094 86.7324 52.5734 85.799 53.32C84.8657 54.0667 83.5497 54.44 81.851 54.44C80.283 54.44 78.8737 54.1507 77.623 53.572L77.399 52.172ZM111.543 53.236C109.882 54.0387 108.071 54.44 106.111 54.44C103.311 54.44 101.127 53.544 99.5591 51.752C97.9911 49.9414 97.2071 47.4307 97.2071 44.22C97.2071 41.028 97.9817 38.5267 99.5311 36.716C101.099 34.9054 103.246 34 105.971 34C107.819 34 109.546 34.4014 111.151 35.204V36.632C109.508 35.8294 107.828 35.428 106.111 35.428C103.834 35.428 102.088 36.184 100.875 37.696C99.6617 39.208 99.0551 41.3827 99.0551 44.22C99.0551 47.076 99.6617 49.26 100.875 50.772C102.107 52.2654 103.899 53.012 106.251 53.012C107.502 53.012 108.724 52.816 109.919 52.424V45.312H107.371L107.567 43.884H111.543V53.236ZM120.887 54.44C118.853 54.44 117.313 53.8147 116.267 52.564C115.241 51.2947 114.727 49.428 114.727 46.964C114.727 44.5187 115.241 42.6707 116.267 41.42C117.313 40.1507 118.853 39.516 120.887 39.516C122.922 39.516 124.453 40.1507 125.479 41.42C126.525 42.6707 127.047 44.5187 127.047 46.964C127.047 49.428 126.525 51.2947 125.479 52.564C124.453 53.8147 122.922 54.44 120.887 54.44ZM120.887 53.096C122.418 53.096 123.529 52.6107 124.219 51.64C124.929 50.6507 125.283 49.092 125.283 46.964C125.283 44.8547 124.929 43.3147 124.219 42.344C123.529 41.3547 122.418 40.86 120.887 40.86C119.357 40.86 118.237 41.3547 117.527 42.344C116.837 43.3147 116.491 44.8547 116.491 46.964C116.491 49.092 116.837 50.6507 117.527 51.64C118.237 52.6107 119.357 53.096 120.887 53.096ZM132.899 41.224V50.184C132.899 51.1547 133.104 51.8734 133.515 52.34C133.926 52.788 134.56 53.012 135.419 53.012C135.979 53.012 136.614 52.9094 137.323 52.704V53.936C136.539 54.1974 135.82 54.328 135.167 54.328C133.879 54.328 132.899 53.9827 132.227 53.292C131.555 52.5827 131.219 51.5374 131.219 50.156V41.224H129.091V40.02L131.275 39.936L131.443 36.408L132.899 36.24V39.936H137.127V41.224H132.899ZM160.953 53.236C159.292 54.0387 157.481 54.44 155.521 54.44C152.721 54.44 150.537 53.544 148.969 51.752C147.401 49.9414 146.617 47.4307 146.617 44.22C146.617 41.028 147.392 38.5267 148.941 36.716C150.509 34.9054 152.656 34 155.381 34C157.229 34 158.956 34.4014 160.561 35.204V36.632C158.919 35.8294 157.239 35.428 155.521 35.428C153.244 35.428 151.499 36.184 150.285 37.696C149.072 39.208 148.465 41.3827 148.465 44.22C148.465 47.076 149.072 49.26 150.285 50.772C151.517 52.2654 153.309 53.012 155.661 53.012C156.912 53.012 158.135 52.816 159.329 52.424V45.312H156.781L156.977 43.884H160.953V53.236ZM173.685 54.076L173.573 53.096C171.968 53.992 170.381 54.44 168.813 54.44C167.376 54.44 166.237 54.0667 165.397 53.32C164.557 52.5547 164.137 51.5094 164.137 50.184C164.137 48.784 164.604 47.72 165.537 46.992C166.489 46.2454 167.88 45.872 169.709 45.872C170.811 45.872 172.061 46.0027 173.461 46.264V44.36C173.461 42.0267 172.145 40.86 169.513 40.86C168.823 40.86 168.067 40.9534 167.245 41.14C166.424 41.3267 165.668 41.5694 164.977 41.868V40.552C165.649 40.2347 166.415 39.9827 167.273 39.796C168.151 39.6094 168.981 39.516 169.765 39.516C171.52 39.516 172.845 39.936 173.741 40.776C174.656 41.5974 175.113 42.792 175.113 44.36V53.936L173.685 54.076ZM169.205 53.096C169.877 53.096 170.587 52.9934 171.333 52.788C172.08 52.5827 172.789 52.3027 173.461 51.948V47.468C172.285 47.244 171.128 47.132 169.989 47.132C168.552 47.132 167.507 47.3747 166.853 47.86C166.2 48.3454 165.873 49.1107 165.873 50.156C165.873 52.116 166.984 53.096 169.205 53.096ZM196.464 54.02V44.024C196.464 41.9147 195.466 40.86 193.468 40.86C192.311 40.86 190.986 41.28 189.492 42.12C189.642 42.624 189.716 43.1654 189.716 43.744V54.02H188.036V44.024C188.036 41.9147 187.038 40.86 185.04 40.86C183.92 40.86 182.67 41.2427 181.288 42.008V54.02H179.608V40.02L181.036 39.88L181.148 40.86C182.735 39.964 184.172 39.516 185.46 39.516C187.103 39.516 188.288 40.0574 189.016 41.14C190.827 40.0574 192.451 39.516 193.888 39.516C195.251 39.516 196.296 39.88 197.024 40.608C197.771 41.336 198.144 42.3814 198.144 43.744V54.02H196.464ZM212.571 53.516C211.283 54.132 209.902 54.44 208.427 54.44C206.28 54.44 204.628 53.8054 203.471 52.536C202.314 51.2667 201.735 49.4467 201.735 47.076C201.735 44.724 202.276 42.876 203.359 41.532C204.442 40.188 205.926 39.516 207.811 39.516C209.472 39.516 210.779 40.0387 211.731 41.084C212.702 42.1107 213.187 43.52 213.187 45.312C213.187 45.984 213.131 46.628 213.019 47.244H203.387C203.406 51.1454 205.132 53.096 208.567 53.096C209.948 53.096 211.283 52.7974 212.571 52.2V53.516ZM207.783 40.832C206.514 40.832 205.478 41.2987 204.675 42.232C203.872 43.1654 203.443 44.416 203.387 45.984H211.563C211.6 45.6854 211.619 45.424 211.619 45.2C211.619 43.8187 211.283 42.7454 210.611 41.98C209.939 41.2147 208.996 40.832 207.783 40.832ZM215.84 52.172C217.24 52.788 218.687 53.096 220.18 53.096C222.7 53.096 223.96 52.116 223.96 50.156C223.96 49.5214 223.774 49.008 223.4 48.616C223.046 48.224 222.448 47.8974 221.608 47.636L219.48 46.964C218.286 46.5907 217.418 46.124 216.876 45.564C216.335 44.9854 216.064 44.2574 216.064 43.38C216.064 42.204 216.522 41.2707 217.436 40.58C218.37 39.8707 219.62 39.516 221.188 39.516C222.514 39.516 223.774 39.768 224.968 40.272V41.588C223.718 41.1027 222.486 40.86 221.272 40.86C220.171 40.86 219.303 41.084 218.668 41.532C218.052 41.9614 217.744 42.5587 217.744 43.324C217.744 43.8654 217.912 44.304 218.248 44.64C218.603 44.9574 219.228 45.2654 220.124 45.564L222.336 46.292C223.475 46.6654 224.306 47.16 224.828 47.776C225.37 48.392 225.64 49.176 225.64 50.128C225.64 51.5094 225.174 52.5734 224.24 53.32C223.307 54.0667 221.991 54.44 220.292 54.44C218.724 54.44 217.315 54.1507 216.064 53.572L215.84 52.172ZM230.328 48.42L230.076 34.42L231.868 34.196L231.616 48.42H230.328ZM230.972 54.16C230.599 54.16 230.291 54.048 230.048 53.824C229.806 53.5814 229.684 53.264 229.684 52.872C229.684 52.48 229.806 52.172 230.048 51.948C230.291 51.7054 230.599 51.584 230.972 51.584C231.346 51.584 231.654 51.7054 231.896 51.948C232.139 52.172 232.26 52.48 232.26 52.872C232.26 53.264 232.139 53.5814 231.896 53.824C231.654 54.048 231.346 54.16 230.972 54.16Z" fill="#013D5B"/>
</svg>
