<svg width="595" height="28" viewBox="0 0 595 28" fill="none" xmlns="http://www.w3.org/2000/svg">
<path d="M2.75373e-05 21.532V2.352C0.821361 2.184 1.72669 2.044 2.71603 1.932C3.72403 1.82 4.58269 1.764 5.29203 1.764C7.43869 1.764 9.13736 2.28667 10.388 3.332C11.6387 4.37733 12.264 5.796 12.264 7.588C12.264 9.02533 11.8627 10.22 11.06 11.172C10.276 12.124 9.14669 12.7773 7.67203 13.132L13.216 21.532H11.144L5.93603 13.412C5.78669 13.4307 5.62803 13.44 5.46003 13.44C5.31069 13.44 5.15203 13.44 4.98403 13.44H1.73603V21.532H2.75373e-05ZM5.09603 3.164C4.12536 3.164 3.00536 3.276 1.73603 3.5V12.04H4.95603C6.74803 12.04 8.11069 11.6667 9.04403 10.92C9.99603 10.1547 10.472 9.044 10.472 7.588C10.472 6.15067 10.0147 5.05867 9.10003 4.312C8.18536 3.54667 6.85069 3.164 5.09603 3.164ZM24.4462 21.588L24.3342 20.608C22.7289 21.504 21.1422 21.952 19.5742 21.952C18.1369 21.952 16.9982 21.5787 16.1582 20.832C15.3182 20.0667 14.8982 19.0213 14.8982 17.696C14.8982 16.296 15.3649 15.232 16.2982 14.504C17.2502 13.7573 18.6409 13.384 20.4702 13.384C21.5715 13.384 22.8222 13.5147 24.2222 13.776V11.872C24.2222 9.53867 22.9062 8.372 20.2742 8.372C19.5835 8.372 18.8275 8.46533 18.0062 8.652C17.1849 8.83867 16.4289 9.08133 15.7382 9.38V8.064C16.4102 7.74667 17.1755 7.49467 18.0342 7.308C18.9115 7.12133 19.7422 7.028 20.5262 7.028C22.2809 7.028 23.6062 7.448 24.5022 8.288C25.4169 9.10933 25.8742 10.304 25.8742 11.872V21.448L24.4462 21.588ZM19.9662 20.608C20.6382 20.608 21.3475 20.5053 22.0942 20.3C22.8409 20.0947 23.5502 19.8147 24.2222 19.46V14.98C23.0462 14.756 21.8889 14.644 20.7502 14.644C19.3129 14.644 18.2675 14.8867 17.6142 15.372C16.9609 15.8573 16.6342 16.6227 16.6342 17.668C16.6342 19.628 17.7449 20.608 19.9662 20.608ZM39.6651 21.028C38.4331 21.644 37.0891 21.952 35.6331 21.952C33.6544 21.952 32.1238 21.308 31.0411 20.02C29.9771 18.732 29.4451 16.8933 29.4451 14.504C29.4451 12.1147 29.9771 10.276 31.0411 8.988C32.1238 7.68133 33.6544 7.028 35.6331 7.028C37.0331 7.028 38.3584 7.336 39.6091 7.952V9.268C38.3024 8.68933 37.0331 8.4 35.8011 8.4C34.2891 8.4 33.1411 8.91333 32.3571 9.94C31.5918 10.9667 31.2091 12.488 31.2091 14.504C31.2091 16.5013 31.5918 18.0133 32.3571 19.04C33.1411 20.0667 34.2891 20.58 35.8011 20.58C37.0704 20.58 38.3584 20.2907 39.6651 19.712V21.028ZM43.2753 21.532V0.504L44.9553 0.28V13.692L51.5633 7.448H53.5513L46.6353 14L53.7753 21.532H51.6473L44.9553 14.42V21.532H43.2753ZM64.6382 7.448V17.164C64.6382 19.46 65.7676 20.608 68.0262 20.608C68.6422 20.608 69.3142 20.5053 70.0422 20.3C70.7889 20.0947 71.5169 19.8147 72.2262 19.46V7.448H73.9062V21.448L72.4782 21.588L72.3662 20.608C70.7422 21.504 69.1556 21.952 67.6062 21.952C66.1316 21.952 64.9836 21.56 64.1622 20.776C63.3596 19.9733 62.9582 18.8627 62.9582 17.444V7.448H64.6382ZM78.6035 27.776V7.532L80.0315 7.392L80.1435 8.372C81.7301 7.476 83.1861 7.028 84.5115 7.028C86.3408 7.028 87.7781 7.672 88.8235 8.96C89.8688 10.2293 90.3915 11.9933 90.3915 14.252C90.3915 16.7347 89.7941 18.6387 88.5995 19.964C87.4235 21.2893 85.7155 21.952 83.4755 21.952C82.3181 21.952 81.2541 21.8027 80.2835 21.504V27.552L78.6035 27.776ZM84.2875 8.372C83.6715 8.372 83.0088 8.47467 82.2995 8.68C81.5901 8.88533 80.9181 9.16533 80.2835 9.52V20.16C81.2541 20.4587 82.2715 20.608 83.3355 20.608C85.1275 20.608 86.4528 20.0947 87.3115 19.068C88.1888 18.0227 88.6275 16.4267 88.6275 14.28C88.6275 12.3573 88.2541 10.892 87.5075 9.884C86.7795 8.876 85.7061 8.372 84.2875 8.372ZM99.2861 19.404C100.929 20.2067 102.618 20.608 104.354 20.608C105.922 20.608 107.173 20.2253 108.106 19.46C109.039 18.6947 109.506 17.6587 109.506 16.352C109.506 15.0827 109.067 14.0653 108.19 13.3C107.313 12.5347 106.127 12.152 104.634 12.152H102.982V10.808H104.578C105.922 10.808 106.986 10.472 107.77 9.8C108.554 9.128 108.946 8.22267 108.946 7.084C108.946 5.88933 108.545 4.956 107.742 4.284C106.939 3.612 105.829 3.276 104.41 3.276C102.917 3.276 101.451 3.584 100.014 4.2V2.856C101.358 2.24 102.87 1.932 104.55 1.932C106.361 1.932 107.835 2.408 108.974 3.36C110.131 4.29333 110.71 5.49733 110.71 6.972C110.71 8.05467 110.393 8.988 109.758 9.772C109.142 10.556 108.274 11.116 107.154 11.452C108.442 11.7693 109.45 12.376 110.178 13.272C110.906 14.1493 111.27 15.1947 111.27 16.408C111.27 17.5093 110.971 18.4893 110.374 19.348C109.795 20.188 108.993 20.832 107.966 21.28C106.958 21.728 105.81 21.952 104.522 21.952C103.626 21.952 102.73 21.8493 101.834 21.644C100.938 21.4573 100.173 21.196 99.5381 20.86L99.2861 19.404ZM119.754 21.532L129.89 2.352H131.402L121.266 21.532H119.754ZM118.41 13.384C119.399 13.384 120.127 12.9733 120.594 12.152C121.079 11.3307 121.322 10.0427 121.322 8.288C121.322 6.53333 121.079 5.24533 120.594 4.424C120.127 3.60267 119.399 3.192 118.41 3.192C117.421 3.192 116.683 3.60267 116.198 4.424C115.731 5.24533 115.498 6.53333 115.498 8.288C115.498 10.0427 115.731 11.3307 116.198 12.152C116.683 12.9733 117.421 13.384 118.41 13.384ZM118.41 14.504C116.973 14.504 115.871 13.9813 115.106 12.936C114.341 11.872 113.958 10.3227 113.958 8.288C113.958 6.25333 114.341 4.71333 115.106 3.668C115.871 2.604 116.973 2.072 118.41 2.072C119.847 2.072 120.949 2.604 121.714 3.668C122.479 4.71333 122.862 6.25333 122.862 8.288C122.862 10.3227 122.479 11.872 121.714 12.936C120.949 13.9813 119.847 14.504 118.41 14.504ZM132.746 20.692C133.735 20.692 134.463 20.2813 134.93 19.46C135.415 18.6387 135.658 17.3507 135.658 15.596C135.658 13.8413 135.415 12.5533 134.93 11.732C134.463 10.9107 133.735 10.5 132.746 10.5C131.757 10.5 131.019 10.9107 130.534 11.732C130.067 12.5533 129.834 13.8413 129.834 15.596C129.834 17.3507 130.067 18.6387 130.534 19.46C131.019 20.2813 131.757 20.692 132.746 20.692ZM132.746 21.812C131.309 21.812 130.207 21.2893 129.442 20.244C128.677 19.18 128.294 17.6307 128.294 15.596C128.294 13.5613 128.677 12.0213 129.442 10.976C130.207 9.912 131.309 9.38 132.746 9.38C134.183 9.38 135.285 9.912 136.05 10.976C136.815 12.0213 137.198 13.5613 137.198 15.596C137.198 17.6307 136.815 19.18 136.05 20.244C135.285 21.2893 134.183 21.812 132.746 21.812ZM156.997 21.028C155.765 21.644 154.421 21.952 152.965 21.952C150.986 21.952 149.456 21.308 148.373 20.02C147.309 18.732 146.777 16.8933 146.777 14.504C146.777 12.1147 147.309 10.276 148.373 8.988C149.456 7.68133 150.986 7.028 152.965 7.028C154.365 7.028 155.69 7.336 156.941 7.952V9.268C155.634 8.68933 154.365 8.4 153.133 8.4C151.621 8.4 150.473 8.91333 149.689 9.94C148.924 10.9667 148.541 12.488 148.541 14.504C148.541 16.5013 148.924 18.0133 149.689 19.04C150.473 20.0667 151.621 20.58 153.133 20.58C154.402 20.58 155.69 20.2907 156.997 19.712V21.028ZM169.231 21.588L169.119 20.608C167.514 21.504 165.927 21.952 164.359 21.952C162.922 21.952 161.783 21.5787 160.943 20.832C160.103 20.0667 159.683 19.0213 159.683 17.696C159.683 16.296 160.15 15.232 161.083 14.504C162.035 13.7573 163.426 13.384 165.255 13.384C166.357 13.384 167.607 13.5147 169.007 13.776V11.872C169.007 9.53867 167.691 8.372 165.059 8.372C164.369 8.372 163.613 8.46533 162.791 8.652C161.97 8.83867 161.214 9.08133 160.523 9.38V8.064C161.195 7.74667 161.961 7.49467 162.819 7.308C163.697 7.12133 164.527 7.028 165.311 7.028C167.066 7.028 168.391 7.448 169.287 8.288C170.202 9.10933 170.659 10.304 170.659 11.872V21.448L169.231 21.588ZM164.751 20.608C165.423 20.608 166.133 20.5053 166.879 20.3C167.626 20.0947 168.335 19.8147 169.007 19.46V14.98C167.831 14.756 166.674 14.644 165.535 14.644C164.098 14.644 163.053 14.8867 162.399 15.372C161.746 15.8573 161.419 16.6227 161.419 17.668C161.419 19.628 162.53 20.608 164.751 20.608ZM174.062 19.684C175.462 20.3 176.909 20.608 178.402 20.608C180.922 20.608 182.182 19.628 182.182 17.668C182.182 17.0333 181.996 16.52 181.622 16.128C181.268 15.736 180.67 15.4093 179.83 15.148L177.702 14.476C176.508 14.1027 175.64 13.636 175.098 13.076C174.557 12.4973 174.286 11.7693 174.286 10.892C174.286 9.716 174.744 8.78267 175.658 8.092C176.592 7.38267 177.842 7.028 179.41 7.028C180.736 7.028 181.996 7.28 183.19 7.784V9.1C181.94 8.61467 180.708 8.372 179.494 8.372C178.393 8.372 177.525 8.596 176.89 9.044C176.274 9.47333 175.966 10.0707 175.966 10.836C175.966 11.3773 176.134 11.816 176.47 12.152C176.825 12.4693 177.45 12.7773 178.346 13.076L180.558 13.804C181.697 14.1773 182.528 14.672 183.05 15.288C183.592 15.904 183.862 16.688 183.862 17.64C183.862 19.0213 183.396 20.0853 182.462 20.832C181.529 21.5787 180.213 21.952 178.514 21.952C176.946 21.952 175.537 21.6627 174.286 21.084L174.062 19.684ZM187.486 21.532V0.504L189.166 0.28V8.316C190.734 7.45733 192.274 7.028 193.786 7.028C195.298 7.028 196.465 7.42 197.286 8.204C198.126 8.988 198.546 10.0987 198.546 11.536V21.532H196.866V11.816C196.866 9.52 195.7 8.372 193.366 8.372C192.75 8.372 192.069 8.47467 191.322 8.68C190.594 8.88533 189.876 9.16533 189.166 9.52V21.532H187.486ZM211.725 8.288C212.434 7.896 213.153 7.588 213.881 7.364C214.628 7.14 215.318 7.028 215.953 7.028C217.782 7.028 219.22 7.672 220.265 8.96C221.31 10.2293 221.833 11.9933 221.833 14.252C221.833 16.7347 221.236 18.6387 220.041 19.964C218.865 21.2893 217.157 21.952 214.917 21.952C213.33 21.952 211.706 21.6907 210.045 21.168V0.504L211.725 0.28V8.288ZM215.729 8.372C215.113 8.372 214.45 8.47467 213.741 8.68C213.032 8.88533 212.36 9.16533 211.725 9.52V20.16C212.696 20.4587 213.713 20.608 214.777 20.608C216.569 20.608 217.894 20.0947 218.753 19.068C219.63 18.0227 220.069 16.4267 220.069 14.28C220.069 12.3573 219.696 10.892 218.949 9.884C218.221 8.876 217.148 8.372 215.729 8.372ZM234.227 21.588L234.115 20.608C232.51 21.504 230.923 21.952 229.355 21.952C227.918 21.952 226.779 21.5787 225.939 20.832C225.099 20.0667 224.679 19.0213 224.679 17.696C224.679 16.296 225.146 15.232 226.079 14.504C227.031 13.7573 228.422 13.384 230.251 13.384C231.353 13.384 232.603 13.5147 234.003 13.776V11.872C234.003 9.53867 232.687 8.372 230.055 8.372C229.365 8.372 228.609 8.46533 227.787 8.652C226.966 8.83867 226.21 9.08133 225.519 9.38V8.064C226.191 7.74667 226.957 7.49467 227.815 7.308C228.693 7.12133 229.523 7.028 230.307 7.028C232.062 7.028 233.387 7.448 234.283 8.288C235.198 9.10933 235.655 10.304 235.655 11.872V21.448L234.227 21.588ZM229.747 20.608C230.419 20.608 231.129 20.5053 231.875 20.3C232.622 20.0947 233.331 19.8147 234.003 19.46V14.98C232.827 14.756 231.67 14.644 230.531 14.644C229.094 14.644 228.049 14.8867 227.395 15.372C226.742 15.8573 226.415 16.6227 226.415 17.668C226.415 19.628 227.526 20.608 229.747 20.608ZM249.446 21.028C248.214 21.644 246.87 21.952 245.414 21.952C243.436 21.952 241.905 21.308 240.822 20.02C239.758 18.732 239.226 16.8933 239.226 14.504C239.226 12.1147 239.758 10.276 240.822 8.988C241.905 7.68133 243.436 7.028 245.414 7.028C246.814 7.028 248.14 7.336 249.39 7.952V9.268C248.084 8.68933 246.814 8.4 245.582 8.4C244.07 8.4 242.922 8.91333 242.138 9.94C241.373 10.9667 240.99 12.488 240.99 14.504C240.99 16.5013 241.373 18.0133 242.138 19.04C242.922 20.0667 244.07 20.58 245.582 20.58C246.852 20.58 248.14 20.2907 249.446 19.712V21.028ZM253.057 21.532V0.504L254.737 0.28V13.692L261.345 7.448H263.333L256.417 14L263.557 21.532H261.429L254.737 14.42V21.532H253.057ZM278.171 21.952C276.137 21.952 274.597 21.3267 273.551 20.076C272.525 18.8067 272.011 16.94 272.011 14.476C272.011 12.0307 272.525 10.1827 273.551 8.932C274.597 7.66267 276.137 7.028 278.171 7.028C280.206 7.028 281.737 7.66267 282.763 8.932C283.809 10.1827 284.331 12.0307 284.331 14.476C284.331 16.94 283.809 18.8067 282.763 20.076C281.737 21.3267 280.206 21.952 278.171 21.952ZM278.171 20.608C279.702 20.608 280.813 20.1227 281.503 19.152C282.213 18.1627 282.567 16.604 282.567 14.476C282.567 12.3667 282.213 10.8267 281.503 9.856C280.813 8.86667 279.702 8.372 278.171 8.372C276.641 8.372 275.521 8.86667 274.811 9.856C274.121 10.8267 273.775 12.3667 273.775 14.476C273.775 16.604 274.121 18.1627 274.811 19.152C275.521 20.1227 276.641 20.608 278.171 20.608ZM297.491 21.532V11.816C297.491 9.52 296.325 8.372 293.991 8.372C293.375 8.372 292.694 8.47467 291.947 8.68C291.219 8.88533 290.501 9.16533 289.791 9.52V21.532H288.111V7.532L289.539 7.392L289.651 8.372C291.275 7.476 292.862 7.028 294.411 7.028C295.923 7.028 297.09 7.42 297.911 8.204C298.751 8.988 299.171 10.0987 299.171 11.536V21.532H297.491ZM311.062 21.532V8.736H308.934V7.532L311.062 7.448V4.284C311.062 2.90267 311.398 1.848 312.07 1.12C312.761 0.373334 313.759 0 315.066 0C315.775 0 316.494 0.130667 317.222 0.392V1.624C316.55 1.41867 315.906 1.316 315.29 1.316C314.413 1.316 313.769 1.54933 313.358 2.016C312.947 2.464 312.742 3.17333 312.742 4.144V7.448H316.522V8.736H312.742V21.532H311.062ZM324.601 21.952C322.567 21.952 321.027 21.3267 319.981 20.076C318.955 18.8067 318.441 16.94 318.441 14.476C318.441 12.0307 318.955 10.1827 319.981 8.932C321.027 7.66267 322.567 7.028 324.601 7.028C326.636 7.028 328.167 7.66267 329.193 8.932C330.239 10.1827 330.761 12.0307 330.761 14.476C330.761 16.94 330.239 18.8067 329.193 20.076C328.167 21.3267 326.636 21.952 324.601 21.952ZM324.601 20.608C326.132 20.608 327.243 20.1227 327.933 19.152C328.643 18.1627 328.997 16.604 328.997 14.476C328.997 12.3667 328.643 10.8267 327.933 9.856C327.243 8.86667 326.132 8.372 324.601 8.372C323.071 8.372 321.951 8.86667 321.241 9.856C320.551 10.8267 320.205 12.3667 320.205 14.476C320.205 16.604 320.551 18.1627 321.241 19.152C321.951 20.1227 323.071 20.608 324.601 20.608ZM339.777 21.952C337.742 21.952 336.202 21.3267 335.157 20.076C334.13 18.8067 333.617 16.94 333.617 14.476C333.617 12.0307 334.13 10.1827 335.157 8.932C336.202 7.66267 337.742 7.028 339.777 7.028C341.812 7.028 343.342 7.66267 344.369 8.932C345.414 10.1827 345.937 12.0307 345.937 14.476C345.937 16.94 345.414 18.8067 344.369 20.076C343.342 21.3267 341.812 21.952 339.777 21.952ZM339.777 20.608C341.308 20.608 342.418 20.1227 343.109 19.152C343.818 18.1627 344.173 16.604 344.173 14.476C344.173 12.3667 343.818 10.8267 343.109 9.856C342.418 8.86667 341.308 8.372 339.777 8.372C338.246 8.372 337.126 8.86667 336.417 9.856C335.726 10.8267 335.381 12.3667 335.381 14.476C335.381 16.604 335.726 18.1627 336.417 19.152C337.126 20.1227 338.246 20.608 339.777 20.608ZM360.581 0.28V21.448L359.153 21.588L359.041 20.608C357.454 21.504 355.998 21.952 354.673 21.952C352.843 21.952 351.406 21.3173 350.361 20.048C349.315 18.76 348.793 16.9867 348.793 14.728C348.793 12.2453 349.381 10.3413 350.557 9.016C351.751 7.69067 353.469 7.028 355.709 7.028C356.866 7.028 357.93 7.17733 358.901 7.476V0.504L360.581 0.28ZM354.897 20.608C355.513 20.608 356.175 20.5053 356.885 20.3C357.594 20.0947 358.266 19.8147 358.901 19.46V8.82C357.93 8.52133 356.913 8.372 355.849 8.372C354.057 8.372 352.722 8.89467 351.845 9.94C350.986 10.9667 350.557 12.5533 350.557 14.7C350.557 16.6227 350.921 18.088 351.649 19.096C352.395 20.104 353.478 20.608 354.897 20.608ZM380.899 21.588L380.787 20.608C379.182 21.504 377.595 21.952 376.027 21.952C374.59 21.952 373.451 21.5787 372.611 20.832C371.771 20.0667 371.351 19.0213 371.351 17.696C371.351 16.296 371.818 15.232 372.751 14.504C373.703 13.7573 375.094 13.384 376.923 13.384C378.025 13.384 379.275 13.5147 380.675 13.776V11.872C380.675 9.53867 379.359 8.372 376.727 8.372C376.037 8.372 375.281 8.46533 374.459 8.652C373.638 8.83867 372.882 9.08133 372.191 9.38V8.064C372.863 7.74667 373.629 7.49467 374.487 7.308C375.365 7.12133 376.195 7.028 376.979 7.028C378.734 7.028 380.059 7.448 380.955 8.288C381.87 9.10933 382.327 10.304 382.327 11.872V21.448L380.899 21.588ZM376.419 20.608C377.091 20.608 377.801 20.5053 378.547 20.3C379.294 20.0947 380.003 19.8147 380.675 19.46V14.98C379.499 14.756 378.342 14.644 377.203 14.644C375.766 14.644 374.721 14.8867 374.067 15.372C373.414 15.8573 373.087 16.6227 373.087 17.668C373.087 19.628 374.198 20.608 376.419 20.608ZM396.202 21.532V11.816C396.202 9.52 395.036 8.372 392.702 8.372C392.086 8.372 391.405 8.47467 390.658 8.68C389.93 8.88533 389.212 9.16533 388.502 9.52V21.532H386.822V7.532L388.25 7.392L388.362 8.372C389.986 7.476 391.573 7.028 393.122 7.028C394.634 7.028 395.801 7.42 396.622 8.204C397.462 8.988 397.882 10.0987 397.882 11.536V21.532H396.202ZM413.245 0.28V21.448L411.817 21.588L411.705 20.608C410.118 21.504 408.662 21.952 407.337 21.952C405.507 21.952 404.07 21.3173 403.025 20.048C401.979 18.76 401.457 16.9867 401.457 14.728C401.457 12.2453 402.045 10.3413 403.221 9.016C404.415 7.69067 406.133 7.028 408.373 7.028C409.53 7.028 410.594 7.17733 411.565 7.476V0.504L413.245 0.28ZM407.561 20.608C408.177 20.608 408.839 20.5053 409.549 20.3C410.258 20.0947 410.93 19.8147 411.565 19.46V8.82C410.594 8.52133 409.577 8.372 408.513 8.372C406.721 8.372 405.386 8.89467 404.509 9.94C403.65 10.9667 403.221 12.5533 403.221 14.7C403.221 16.6227 403.585 18.088 404.313 19.096C405.059 20.104 406.142 20.608 407.561 20.608ZM425.331 21.532V8.736H423.203V7.532L425.331 7.448V4.284C425.331 2.90267 425.667 1.848 426.339 1.12C427.03 0.373334 428.029 0 429.335 0C430.045 0 430.763 0.130667 431.491 0.392V1.624C430.819 1.41867 430.175 1.316 429.559 1.316C428.682 1.316 428.038 1.54933 427.627 2.016C427.217 2.464 427.011 3.17333 427.011 4.144V7.448H430.791V8.736H427.011V21.532H425.331ZM435.392 7.448V17.164C435.392 19.46 436.521 20.608 438.78 20.608C439.396 20.608 440.068 20.5053 440.796 20.3C441.543 20.0947 442.271 19.8147 442.98 19.46V7.448H444.66V21.448L443.232 21.588L443.12 20.608C441.496 21.504 439.909 21.952 438.36 21.952C436.885 21.952 435.737 21.56 434.916 20.776C434.113 19.9733 433.712 18.8627 433.712 17.444V7.448H435.392ZM458.737 21.532V11.816C458.737 9.52 457.571 8.372 455.237 8.372C454.621 8.372 453.94 8.47467 453.193 8.68C452.465 8.88533 451.747 9.16533 451.037 9.52V21.532H449.357V7.532L450.785 7.392L450.897 8.372C452.521 7.476 454.108 7.028 455.657 7.028C457.169 7.028 458.336 7.42 459.157 8.204C459.997 8.988 460.417 10.0987 460.417 11.536V21.532H458.737ZM483.396 21.532L479.616 9.324L475.948 21.532H474.352L469.872 7.448H471.58L475.164 19.46L478.692 7.448H480.568L484.152 19.544L487.708 7.448H489.332L484.992 21.532H483.396ZM491.986 21.532V7.588L493.666 7.364V21.532H491.986ZM492.826 4.032C492.453 4.032 492.145 3.92 491.902 3.696C491.678 3.472 491.566 3.164 491.566 2.772C491.566 2.38 491.678 2.072 491.902 1.848C492.145 1.624 492.453 1.512 492.826 1.512C493.2 1.512 493.498 1.624 493.722 1.848C493.965 2.072 494.086 2.38 494.086 2.772C494.086 3.164 493.965 3.472 493.722 3.696C493.498 3.92 493.2 4.032 492.826 4.032ZM500.429 8.736V17.696C500.429 18.6667 500.635 19.3853 501.045 19.852C501.456 20.3 502.091 20.524 502.949 20.524C503.509 20.524 504.144 20.4213 504.853 20.216V21.448C504.069 21.7093 503.351 21.84 502.697 21.84C501.409 21.84 500.429 21.4947 499.757 20.804C499.085 20.0947 498.749 19.0493 498.749 17.668V8.736H496.621V7.532L498.805 7.448L498.973 3.92L500.429 3.752V7.448H504.657V8.736H500.429ZM507.764 21.532V0.504L509.444 0.28V8.316C511.012 7.45733 512.552 7.028 514.064 7.028C515.576 7.028 516.742 7.42 517.564 8.204C518.404 8.988 518.824 10.0987 518.824 11.536V21.532H517.144V11.816C517.144 9.52 515.977 8.372 513.644 8.372C513.028 8.372 512.346 8.47467 511.6 8.68C510.872 8.88533 510.153 9.16533 509.444 9.52V21.532H507.764ZM529.202 19.236C531.162 20.0947 533.02 20.524 534.774 20.524C536.436 20.524 537.714 20.16 538.61 19.432C539.525 18.6853 539.982 17.6213 539.982 16.24C539.982 15.1947 539.684 14.3547 539.086 13.72C538.489 13.0853 537.49 12.5533 536.09 12.124L534.102 11.508C532.572 11.0413 531.452 10.4347 530.742 9.688C530.033 8.92267 529.678 7.952 529.678 6.776C529.678 5.18933 530.276 3.92 531.47 2.968C532.684 1.99733 534.298 1.512 536.314 1.512C537.938 1.512 539.506 1.85733 541.018 2.548V3.948C539.413 3.276 537.864 2.94 536.37 2.94C534.84 2.94 533.645 3.276 532.786 3.948C531.928 4.60133 531.498 5.52533 531.498 6.72C531.498 7.56 531.741 8.22267 532.226 8.708C532.712 9.19333 533.561 9.632 534.774 10.024L536.762 10.668C538.554 11.2467 539.842 11.9747 540.626 12.852C541.41 13.7107 541.802 14.8307 541.802 16.212C541.802 17.9853 541.177 19.3853 539.926 20.412C538.694 21.4387 537.005 21.952 534.858 21.952C532.88 21.952 531.088 21.5507 529.482 20.748L529.202 19.236ZM554.013 21.588L553.901 20.608C552.295 21.504 550.709 21.952 549.141 21.952C547.703 21.952 546.565 21.5787 545.725 20.832C544.885 20.0667 544.465 19.0213 544.465 17.696C544.465 16.296 544.931 15.232 545.865 14.504C546.817 13.7573 548.207 13.384 550.037 13.384C551.138 13.384 552.389 13.5147 553.789 13.776V11.872C553.789 9.53867 552.473 8.372 549.841 8.372C549.15 8.372 548.394 8.46533 547.573 8.652C546.751 8.83867 545.995 9.08133 545.305 9.38V8.064C545.977 7.74667 546.742 7.49467 547.601 7.308C548.478 7.12133 549.309 7.028 550.093 7.028C551.847 7.028 553.173 7.448 554.069 8.288C554.983 9.10933 555.441 10.304 555.441 11.872V21.448L554.013 21.588ZM549.533 20.608C550.205 20.608 550.914 20.5053 551.661 20.3C552.407 20.0947 553.117 19.8147 553.789 19.46V14.98C552.613 14.756 551.455 14.644 550.317 14.644C548.879 14.644 547.834 14.8867 547.181 15.372C546.527 15.8573 546.201 16.6227 546.201 17.668C546.201 19.628 547.311 20.608 549.533 20.608ZM563.127 21.532L557.807 7.448H559.571L563.967 19.74L568.503 7.448H570.183L564.751 21.532H563.127ZM577.722 21.952C575.688 21.952 574.148 21.3267 573.102 20.076C572.076 18.8067 571.562 16.94 571.562 14.476C571.562 12.0307 572.076 10.1827 573.102 8.932C574.148 7.66267 575.688 7.028 577.722 7.028C579.757 7.028 581.288 7.66267 582.314 8.932C583.36 10.1827 583.882 12.0307 583.882 14.476C583.882 16.94 583.36 18.8067 582.314 20.076C581.288 21.3267 579.757 21.952 577.722 21.952ZM577.722 20.608C579.253 20.608 580.364 20.1227 581.054 19.152C581.764 18.1627 582.118 16.604 582.118 14.476C582.118 12.3667 581.764 10.8267 581.054 9.856C580.364 8.86667 579.253 8.372 577.722 8.372C576.192 8.372 575.072 8.86667 574.362 9.856C573.672 10.8267 573.326 12.3667 573.326 14.476C573.326 16.604 573.672 18.1627 574.362 19.152C575.072 20.1227 576.192 20.608 577.722 20.608ZM587.662 21.532V7.532L589.09 7.392L589.23 8.652C590.481 7.62533 591.815 7.112 593.234 7.112C593.738 7.112 594.139 7.168 594.438 7.28V8.652C593.953 8.54 593.523 8.484 593.15 8.484C591.825 8.484 590.555 8.96 589.342 9.912V21.532H587.662Z" fill="#013D5B"/>
</svg>
