<svg width="197" height="48" viewBox="0 0 197 48" fill="none" xmlns="http://www.w3.org/2000/svg">
<path d="M1.98 20V6.3C3.5 6.02 4.83333 5.88 5.98 5.88C7.44667 5.88 8.58 6.18667 9.38 6.8C10.1933 7.41333 10.6 8.28 10.6 9.4C10.6 10.2 10.38 10.8867 9.94 11.46C9.51333 12.02 8.88667 12.4267 8.06 12.68C8.72667 12.8 9.29333 13.02 9.76 13.34C10.2267 13.66 10.58 14.0667 10.82 14.56C11.0733 15.0533 11.2 15.6133 11.2 16.24C11.2 17.4533 10.7867 18.3867 9.96 19.04C9.14667 19.68 7.96667 20 6.42 20H1.98ZM6.38 19C8.74 19 9.92 18.0533 9.92 16.16C9.92 15.24 9.60667 14.5267 8.98 14.02C8.35333 13.5133 7.46 13.26 6.3 13.26H3.22V19H6.38ZM5.84 6.88C5.09333 6.88 4.22 6.96 3.22 7.12V12.3H6.22C7.18 12.3 7.94 12.0533 8.5 11.56C9.06 11.0533 9.34 10.3667 9.34 9.5C9.34 7.75333 8.17333 6.88 5.84 6.88ZM13.6917 20V10L14.7117 9.9L14.8117 10.8C15.7051 10.0667 16.6584 9.7 17.6717 9.7C18.0317 9.7 18.3184 9.74 18.5317 9.82V10.8C18.1851 10.72 17.8784 10.68 17.6117 10.68C16.6651 10.68 15.7584 11.02 14.8917 11.7V20H13.6917ZM20.5667 20V10.04L21.7667 9.88V20H20.5667ZM21.1667 7.5C20.9001 7.5 20.6801 7.42 20.5067 7.26C20.3467 7.1 20.2667 6.88 20.2667 6.6C20.2667 6.32 20.3467 6.1 20.5067 5.94C20.6801 5.78 20.9001 5.7 21.1667 5.7C21.4334 5.7 21.6467 5.78 21.8067 5.94C21.9801 6.1 22.0667 6.32 22.0667 6.6C22.0667 6.88 21.9801 7.1 21.8067 7.26C21.6467 7.42 21.4334 7.5 21.1667 7.5ZM31.8175 20V13.06C31.8175 11.42 30.9842 10.6 29.3175 10.6C28.8775 10.6 28.3908 10.6733 27.8575 10.82C27.3375 10.9667 26.8242 11.1667 26.3175 11.42V20H25.1175V10L26.1375 9.9L26.2175 10.6C27.3775 9.96 28.5108 9.64 29.6175 9.64C30.6975 9.64 31.5308 9.92 32.1175 10.48C32.7175 11.04 33.0175 11.8333 33.0175 12.86V20H31.8175ZM39.5108 24.66C38.3241 24.66 37.3174 24.4533 36.4908 24.04L36.3308 23.02C37.4241 23.4733 38.4641 23.7 39.4508 23.7C41.6774 23.7 42.7908 22.6667 42.7908 20.6V19.22C42.2841 19.5 41.7641 19.72 41.2308 19.88C40.7108 20.04 40.2241 20.12 39.7708 20.12C38.4641 20.12 37.4374 19.68 36.6908 18.8C35.9441 17.92 35.5708 16.7 35.5708 15.14C35.5708 13.3667 35.9908 12.0067 36.8308 11.06C37.6841 10.1133 38.9108 9.64 40.5108 9.64C41.7241 9.64 42.8841 9.85333 43.9908 10.28V20.5C43.9908 21.8333 43.6041 22.86 42.8308 23.58C42.0574 24.3 40.9508 24.66 39.5108 24.66ZM39.9308 19.16C40.3708 19.16 40.8441 19.0867 41.3508 18.94C41.8574 18.7933 42.3374 18.5933 42.7908 18.34V10.92C42.0974 10.7067 41.3708 10.6 40.6108 10.6C39.3308 10.6 38.3774 10.9733 37.7508 11.72C37.1374 12.4533 36.8308 13.5867 36.8308 15.12C36.8308 16.44 37.0908 17.4467 37.6108 18.14C38.1441 18.82 38.9174 19.16 39.9308 19.16ZM50.9641 23.46C51.9107 23.2867 52.6507 22.9533 53.1841 22.46C53.7174 21.9667 54.2107 21.18 54.6641 20.1L50.8241 9.94H52.0841L55.2241 18.76L58.4641 9.94H59.6641L55.8241 19.9C55.4641 20.86 55.0841 21.64 54.6841 22.24C54.2974 22.8533 53.8374 23.3333 53.3041 23.68C52.7707 24.04 52.0774 24.3133 51.2241 24.5L50.9641 23.46ZM65.0489 20.3C63.5956 20.3 62.4956 19.8533 61.7489 18.96C61.0156 18.0533 60.6489 16.72 60.6489 14.96C60.6489 13.2133 61.0156 11.8933 61.7489 11C62.4956 10.0933 63.5956 9.64 65.0489 9.64C66.5022 9.64 67.5956 10.0933 68.3289 11C69.0756 11.8933 69.4489 13.2133 69.4489 14.96C69.4489 16.72 69.0756 18.0533 68.3289 18.96C67.5956 19.8533 66.5022 20.3 65.0489 20.3ZM65.0489 19.34C66.1422 19.34 66.9356 18.9933 67.4289 18.3C67.9356 17.5933 68.1889 16.48 68.1889 14.96C68.1889 13.4533 67.9356 12.3533 67.4289 11.66C66.9356 10.9533 66.1422 10.6 65.0489 10.6C63.9556 10.6 63.1556 10.9533 62.6489 11.66C62.1556 12.3533 61.9089 13.4533 61.9089 14.96C61.9089 16.48 62.1556 17.5933 62.6489 18.3C63.1556 18.9933 63.9556 19.34 65.0489 19.34ZM73.2088 9.94V16.88C73.2088 18.52 74.0154 19.34 75.6288 19.34C76.0688 19.34 76.5488 19.2667 77.0688 19.12C77.6021 18.9733 78.1221 18.7733 78.6288 18.52V9.94H79.8288V19.94L78.8088 20.04L78.7288 19.34C77.5688 19.98 76.4354 20.3 75.3288 20.3C74.2754 20.3 73.4554 20.02 72.8688 19.46C72.2954 18.8867 72.0088 18.0933 72.0088 17.08V9.94H73.2088ZM83.1839 20V10L84.2039 9.9L84.3039 10.8C85.1972 10.0667 86.1506 9.7 87.1639 9.7C87.5239 9.7 87.8106 9.74 88.0239 9.82V10.8C87.6772 10.72 87.3706 10.68 87.1039 10.68C86.1572 10.68 85.2506 11.02 84.3839 11.7V20H83.1839ZM103.699 20L102.379 16.22H96.1389L94.8589 20H93.5589L98.5189 6H99.9789L104.959 20H103.699ZM96.4789 15.26H102.059L99.2389 7.18L96.4789 15.26ZM105.746 15.48V14.44H110.966V15.48H105.746ZM116.933 24.66C115.746 24.66 114.739 24.4533 113.913 24.04L113.753 23.02C114.846 23.4733 115.886 23.7 116.873 23.7C119.099 23.7 120.213 22.6667 120.213 20.6V19.22C119.706 19.5 119.186 19.72 118.653 19.88C118.133 20.04 117.646 20.12 117.193 20.12C115.886 20.12 114.859 19.68 114.113 18.8C113.366 17.92 112.993 16.7 112.993 15.14C112.993 13.3667 113.413 12.0067 114.253 11.06C115.106 10.1133 116.333 9.64 117.933 9.64C119.146 9.64 120.306 9.85333 121.413 10.28V20.5C121.413 21.8333 121.026 22.86 120.253 23.58C119.479 24.3 118.373 24.66 116.933 24.66ZM117.353 19.16C117.793 19.16 118.266 19.0867 118.773 18.94C119.279 18.7933 119.759 18.5933 120.213 18.34V10.92C119.519 10.7067 118.793 10.6 118.033 10.6C116.753 10.6 115.799 10.9733 115.173 11.72C114.559 12.4533 114.253 13.5867 114.253 15.12C114.253 16.44 114.513 17.4467 115.033 18.14C115.566 18.82 116.339 19.16 117.353 19.16ZM130.926 20.04L130.846 19.34C129.699 19.98 128.566 20.3 127.446 20.3C126.419 20.3 125.606 20.0333 125.006 19.5C124.406 18.9533 124.106 18.2067 124.106 17.26C124.106 16.26 124.439 15.5 125.106 14.98C125.786 14.4467 126.779 14.18 128.086 14.18C128.873 14.18 129.766 14.2733 130.766 14.46V13.1C130.766 11.4333 129.826 10.6 127.946 10.6C127.453 10.6 126.913 10.6667 126.326 10.8C125.739 10.9333 125.199 11.1067 124.706 11.32V10.38C125.186 10.1533 125.733 9.97333 126.346 9.84C126.973 9.70667 127.566 9.64 128.126 9.64C129.379 9.64 130.326 9.94 130.966 10.54C131.619 11.1267 131.946 11.98 131.946 13.1V19.94L130.926 20.04ZM127.726 19.34C128.206 19.34 128.713 19.2667 129.246 19.12C129.779 18.9733 130.286 18.7733 130.766 18.52V15.32C129.926 15.16 129.099 15.08 128.286 15.08C127.259 15.08 126.513 15.2533 126.046 15.6C125.579 15.9467 125.346 16.4933 125.346 17.24C125.346 18.64 126.139 19.34 127.726 19.34ZM147.197 20V12.86C147.197 11.3533 146.483 10.6 145.057 10.6C144.23 10.6 143.283 10.9 142.217 11.5C142.323 11.86 142.377 12.2467 142.377 12.66V20H141.177V12.86C141.177 11.3533 140.463 10.6 139.037 10.6C138.237 10.6 137.343 10.8733 136.357 11.42V20H135.157V10L136.177 9.9L136.257 10.6C137.39 9.96 138.417 9.64 139.337 9.64C140.51 9.64 141.357 10.0267 141.877 10.8C143.17 10.0267 144.33 9.64 145.357 9.64C146.33 9.64 147.077 9.9 147.597 10.42C148.13 10.94 148.397 11.6867 148.397 12.66V20H147.197ZM158.701 19.64C157.781 20.08 156.795 20.3 155.741 20.3C154.208 20.3 153.028 19.8467 152.201 18.94C151.375 18.0333 150.961 16.7333 150.961 15.04C150.961 13.36 151.348 12.04 152.121 11.08C152.895 10.12 153.955 9.64 155.301 9.64C156.488 9.64 157.421 10.0133 158.101 10.76C158.795 11.4933 159.141 12.5 159.141 13.78C159.141 14.26 159.101 14.72 159.021 15.16H152.141C152.155 17.9467 153.388 19.34 155.841 19.34C156.828 19.34 157.781 19.1267 158.701 18.7V19.64ZM155.281 10.58C154.375 10.58 153.635 10.9133 153.061 11.58C152.488 12.2467 152.181 13.14 152.141 14.26H157.981C158.008 14.0467 158.021 13.86 158.021 13.7C158.021 12.7133 157.781 11.9467 157.301 11.4C156.821 10.8533 156.148 10.58 155.281 10.58ZM168.297 10.86V17.26C168.297 17.9533 168.443 18.4667 168.737 18.8C169.03 19.12 169.483 19.28 170.097 19.28C170.497 19.28 170.95 19.2067 171.457 19.06V19.94C170.897 20.1267 170.383 20.22 169.917 20.22C168.997 20.22 168.297 19.9733 167.817 19.48C167.337 18.9733 167.097 18.2267 167.097 17.24V10.86H165.577V10L167.137 9.94L167.257 7.42L168.297 7.3V9.94H171.317V10.86H168.297ZM177.275 20.3C175.822 20.3 174.722 19.8533 173.975 18.96C173.242 18.0533 172.875 16.72 172.875 14.96C172.875 13.2133 173.242 11.8933 173.975 11C174.722 10.0933 175.822 9.64 177.275 9.64C178.729 9.64 179.822 10.0933 180.555 11C181.302 11.8933 181.675 13.2133 181.675 14.96C181.675 16.72 181.302 18.0533 180.555 18.96C179.822 19.8533 178.729 20.3 177.275 20.3ZM177.275 19.34C178.369 19.34 179.162 18.9933 179.655 18.3C180.162 17.5933 180.415 16.48 180.415 14.96C180.415 13.4533 180.162 12.3533 179.655 11.66C179.162 10.9533 178.369 10.6 177.275 10.6C176.182 10.6 175.382 10.9533 174.875 11.66C174.382 12.3533 174.135 13.4533 174.135 14.96C174.135 16.48 174.382 17.5933 174.875 18.3C175.382 18.9933 176.182 19.34 177.275 19.34ZM10.5 45.44C9.35333 46.0133 8.15333 46.3 6.9 46.3C5.12667 46.3 3.74 45.66 2.74 44.38C1.74 43.0867 1.24 41.2933 1.24 39C1.24 36.7067 1.74 34.92 2.74 33.64C3.74 32.3467 5.12667 31.7 6.9 31.7C8.11333 31.7 9.29333 31.9867 10.44 32.56V33.58C9.82667 33.2867 9.25333 33.0733 8.72 32.94C8.18667 32.8067 7.63333 32.74 7.06 32.74C5.58 32.74 4.46 33.2733 3.7 34.34C2.95333 35.3933 2.58 36.9467 2.58 39C2.58 41.0533 2.95333 42.6133 3.7 43.68C4.46 44.7333 5.58 45.26 7.06 45.26C8.19333 45.26 9.34 44.98 10.5 44.42V45.44ZM13.2425 46V30.98L14.4425 30.82V36.56C15.5625 35.9467 16.6625 35.64 17.7425 35.64C18.8225 35.64 19.6558 35.92 20.2425 36.48C20.8425 37.04 21.1425 37.8333 21.1425 38.86V46H19.9425V39.06C19.9425 37.42 19.1092 36.6 17.4425 36.6C17.0025 36.6 16.5158 36.6733 15.9825 36.82C15.4625 36.9667 14.9492 37.1667 14.4425 37.42V46H13.2425ZM25.4158 35.94V42.88C25.4158 44.52 26.2224 45.34 27.8358 45.34C28.2758 45.34 28.7558 45.2667 29.2758 45.12C29.8091 44.9733 30.3291 44.7733 30.8358 44.52V35.94H32.0358V45.94L31.0158 46.04L30.9358 45.34C29.7758 45.98 28.6424 46.3 27.5358 46.3C26.4824 46.3 25.6624 46.02 25.0758 45.46C24.5024 44.8867 24.2158 44.0933 24.2158 43.08V35.94H25.4158ZM42.0309 45.64C41.1509 46.08 40.1909 46.3 39.1509 46.3C37.7376 46.3 36.6443 45.84 35.8709 44.92C35.1109 44 34.7309 42.6867 34.7309 40.98C34.7309 39.2733 35.1109 37.96 35.8709 37.04C36.6443 36.1067 37.7376 35.64 39.1509 35.64C40.1509 35.64 41.0976 35.86 41.9909 36.3V37.24C41.0576 36.8267 40.1509 36.62 39.2709 36.62C38.1909 36.62 37.3709 36.9867 36.8109 37.72C36.2643 38.4533 35.9909 39.54 35.9909 40.98C35.9909 42.4067 36.2643 43.4867 36.8109 44.22C37.3709 44.9533 38.1909 45.32 39.2709 45.32C40.1776 45.32 41.0976 45.1133 42.0309 44.7V45.64ZM44.6097 46V30.98L45.8097 30.82V40.4L50.5297 35.94H51.9497L47.0097 40.62L52.1097 46H50.5897L45.8097 40.92V46H44.6097ZM52.6689 36.34C53.0289 35.8733 53.3156 35.3867 53.5289 34.88C53.7556 34.36 53.8756 33.8733 53.8889 33.42C53.6889 33.3667 53.5356 33.2667 53.4289 33.12C53.3222 32.96 53.2689 32.7667 53.2689 32.54C53.2689 32.26 53.3556 32.04 53.5289 31.88C53.7022 31.7067 53.9222 31.62 54.1889 31.62C54.4822 31.62 54.7089 31.7267 54.8689 31.94C55.0289 32.14 55.1089 32.42 55.1089 32.78C55.1089 33.3667 54.9156 34.0267 54.5289 34.76C54.1556 35.48 53.6822 36.1 53.1089 36.62L52.6689 36.34ZM56.525 44.68C57.525 45.12 58.5583 45.34 59.625 45.34C61.425 45.34 62.325 44.64 62.325 43.24C62.325 42.7867 62.1917 42.42 61.925 42.14C61.6717 41.86 61.245 41.6267 60.645 41.44L59.125 40.96C58.2717 40.6933 57.6517 40.36 57.265 39.96C56.8783 39.5467 56.685 39.0267 56.685 38.4C56.685 37.56 57.0117 36.8933 57.665 36.4C58.3317 35.8933 59.225 35.64 60.345 35.64C61.2917 35.64 62.1917 35.82 63.045 36.18V37.12C62.1517 36.7733 61.2717 36.6 60.405 36.6C59.6183 36.6 58.9983 36.76 58.545 37.08C58.105 37.3867 57.885 37.8133 57.885 38.36C57.885 38.7467 58.005 39.06 58.245 39.3C58.4983 39.5267 58.945 39.7467 59.585 39.96L61.165 40.48C61.9783 40.7467 62.5717 41.1 62.945 41.54C63.3317 41.98 63.525 42.54 63.525 43.22C63.525 44.2067 63.1917 44.9667 62.525 45.5C61.8583 46.0333 60.9183 46.3 59.705 46.3C58.585 46.3 57.5783 46.0933 56.685 45.68L56.525 44.68ZM80.9136 45.44C79.7269 46.0133 78.4336 46.3 77.0336 46.3C75.0336 46.3 73.4736 45.66 72.3536 44.38C71.2336 43.0867 70.6736 41.2933 70.6736 39C70.6736 36.72 71.2269 34.9333 72.3336 33.64C73.4536 32.3467 74.9869 31.7 76.9336 31.7C78.2536 31.7 79.4869 31.9867 80.6336 32.56V33.58C79.4603 33.0067 78.2603 32.72 77.0336 32.72C75.4069 32.72 74.1603 33.26 73.2936 34.34C72.4269 35.42 71.9936 36.9733 71.9936 39C71.9936 41.04 72.4269 42.6 73.2936 43.68C74.1736 44.7467 75.4536 45.28 77.1336 45.28C78.0269 45.28 78.9003 45.14 79.7536 44.86V39.78H77.9336L78.0736 38.76H80.9136V45.44ZM87.588 46.3C86.1346 46.3 85.0346 45.8533 84.288 44.96C83.5546 44.0533 83.188 42.72 83.188 40.96C83.188 39.2133 83.5546 37.8933 84.288 37C85.0346 36.0933 86.1346 35.64 87.588 35.64C89.0413 35.64 90.1346 36.0933 90.868 37C91.6146 37.8933 91.988 39.2133 91.988 40.96C91.988 42.72 91.6146 44.0533 90.868 44.96C90.1346 45.8533 89.0413 46.3 87.588 46.3ZM87.588 45.34C88.6813 45.34 89.4746 44.9933 89.968 44.3C90.4746 43.5933 90.728 42.48 90.728 40.96C90.728 39.4533 90.4746 38.3533 89.968 37.66C89.4746 36.9533 88.6813 36.6 87.588 36.6C86.4946 36.6 85.6946 36.9533 85.188 37.66C84.6946 38.3533 84.448 39.4533 84.448 40.96C84.448 42.48 84.6946 43.5933 85.188 44.3C85.6946 44.9933 86.4946 45.34 87.588 45.34ZM96.1678 36.86V43.26C96.1678 43.9533 96.3145 44.4667 96.6078 44.8C96.9011 45.12 97.3545 45.28 97.9678 45.28C98.3678 45.28 98.8211 45.2067 99.3278 45.06V45.94C98.7678 46.1267 98.2545 46.22 97.7878 46.22C96.8678 46.22 96.1678 45.9733 95.6878 45.48C95.2078 44.9733 94.9678 44.2267 94.9678 43.24V36.86H93.4478V36L95.0078 35.94L95.1278 33.42L96.1678 33.3V35.94H99.1878V36.86H96.1678ZM116.207 45.44C115.02 46.0133 113.727 46.3 112.327 46.3C110.327 46.3 108.767 45.66 107.647 44.38C106.527 43.0867 105.967 41.2933 105.967 39C105.967 36.72 106.52 34.9333 107.627 33.64C108.747 32.3467 110.28 31.7 112.227 31.7C113.547 31.7 114.78 31.9867 115.927 32.56V33.58C114.753 33.0067 113.553 32.72 112.327 32.72C110.7 32.72 109.453 33.26 108.587 34.34C107.72 35.42 107.287 36.9733 107.287 39C107.287 41.04 107.72 42.6 108.587 43.68C109.467 44.7467 110.747 45.28 112.427 45.28C113.32 45.28 114.193 45.14 115.047 44.86V39.78H113.227L113.367 38.76H116.207V45.44ZM125.301 46.04L125.221 45.34C124.074 45.98 122.941 46.3 121.821 46.3C120.794 46.3 119.981 46.0333 119.381 45.5C118.781 44.9533 118.481 44.2067 118.481 43.26C118.481 42.26 118.814 41.5 119.481 40.98C120.161 40.4467 121.154 40.18 122.461 40.18C123.248 40.18 124.141 40.2733 125.141 40.46V39.1C125.141 37.4333 124.201 36.6 122.321 36.6C121.828 36.6 121.288 36.6667 120.701 36.8C120.114 36.9333 119.574 37.1067 119.081 37.32V36.38C119.561 36.1533 120.108 35.9733 120.721 35.84C121.348 35.7067 121.941 35.64 122.501 35.64C123.754 35.64 124.701 35.94 125.341 36.54C125.994 37.1267 126.321 37.98 126.321 39.1V45.94L125.301 46.04ZM122.101 45.34C122.581 45.34 123.088 45.2667 123.621 45.12C124.154 44.9733 124.661 44.7733 125.141 44.52V41.32C124.301 41.16 123.474 41.08 122.661 41.08C121.634 41.08 120.888 41.2533 120.421 41.6C119.954 41.9467 119.721 42.4933 119.721 43.24C119.721 44.64 120.514 45.34 122.101 45.34ZM141.572 46V38.86C141.572 37.3533 140.858 36.6 139.432 36.6C138.605 36.6 137.658 36.9 136.592 37.5C136.698 37.86 136.752 38.2467 136.752 38.66V46H135.552V38.86C135.552 37.3533 134.838 36.6 133.412 36.6C132.612 36.6 131.718 36.8733 130.732 37.42V46H129.532V36L130.552 35.9L130.632 36.6C131.765 35.96 132.792 35.64 133.712 35.64C134.885 35.64 135.732 36.0267 136.252 36.8C137.545 36.0267 138.705 35.64 139.732 35.64C140.705 35.64 141.452 35.9 141.972 36.42C142.505 36.94 142.772 37.6867 142.772 38.66V46H141.572ZM153.076 45.64C152.156 46.08 151.17 46.3 150.116 46.3C148.583 46.3 147.403 45.8467 146.576 44.94C145.75 44.0333 145.336 42.7333 145.336 41.04C145.336 39.36 145.723 38.04 146.496 37.08C147.27 36.12 148.33 35.64 149.676 35.64C150.863 35.64 151.796 36.0133 152.476 36.76C153.17 37.4933 153.516 38.5 153.516 39.78C153.516 40.26 153.476 40.72 153.396 41.16H146.516C146.53 43.9467 147.763 45.34 150.216 45.34C151.203 45.34 152.156 45.1267 153.076 44.7V45.64ZM149.656 36.58C148.75 36.58 148.01 36.9133 147.436 37.58C146.863 38.2467 146.556 39.14 146.516 40.26H152.356C152.383 40.0467 152.396 39.86 152.396 39.7C152.396 38.7133 152.156 37.9467 151.676 37.4C151.196 36.8533 150.523 36.58 149.656 36.58ZM155.412 44.68C156.412 45.12 157.445 45.34 158.512 45.34C160.312 45.34 161.212 44.64 161.212 43.24C161.212 42.7867 161.078 42.42 160.812 42.14C160.558 41.86 160.132 41.6267 159.532 41.44L158.012 40.96C157.158 40.6933 156.538 40.36 156.152 39.96C155.765 39.5467 155.572 39.0267 155.572 38.4C155.572 37.56 155.898 36.8933 156.552 36.4C157.218 35.8933 158.112 35.64 159.232 35.64C160.178 35.64 161.078 35.82 161.932 36.18V37.12C161.038 36.7733 160.158 36.6 159.292 36.6C158.505 36.6 157.885 36.76 157.432 37.08C156.992 37.3867 156.772 37.8133 156.772 38.36C156.772 38.7467 156.892 39.06 157.132 39.3C157.385 39.5267 157.832 39.7467 158.472 39.96L160.052 40.48C160.865 40.7467 161.458 41.1 161.832 41.54C162.218 41.98 162.412 42.54 162.412 43.22C162.412 44.2067 162.078 44.9667 161.412 45.5C160.745 46.0333 159.805 46.3 158.592 46.3C157.472 46.3 156.465 46.0933 155.572 45.68L155.412 44.68ZM165.76 42L165.58 32L166.86 31.84L166.68 42H165.76ZM166.22 46.1C165.954 46.1 165.734 46.02 165.56 45.86C165.387 45.6867 165.3 45.46 165.3 45.18C165.3 44.9 165.387 44.68 165.56 44.52C165.734 44.3467 165.954 44.26 166.22 44.26C166.487 44.26 166.707 44.3467 166.88 44.52C167.054 44.68 167.14 44.9 167.14 45.18C167.14 45.46 167.054 45.6867 166.88 45.86C166.707 46.02 166.487 46.1 166.22 46.1Z" fill="#013D5B"/>
</svg>
