<svg width="62" height="30" viewBox="0 0 62 30" fill="none" xmlns="http://www.w3.org/2000/svg">
<path d="M58.9605 12.4777C58.9136 11.1516 58.2522 10.2596 56.8919 10.2596C53.6132 10.2596 50.1233 16.725 49.5229 19.3301C54.9031 19.3301 59.0918 16.1068 58.9652 12.4777H58.9605ZM59.6641 22.61L60.2973 23.0442C58.6978 26.3241 55.4378 28.9621 51.6103 28.9621C48.4816 28.9621 45.9158 26.8668 45.7798 22.9309C45.5265 15.8756 52.0981 9.32048 57.4783 9.32048C59.7861 9.32048 61.925 10.3351 62.0188 12.8363C62.2158 18.4476 54.3871 20.1654 49.2274 20.2787C49.0586 20.8638 48.9976 21.4538 49.0257 22.3504C49.1102 24.677 50.5127 26.6355 53.4021 26.6355C55.9022 26.6355 58.3976 24.611 59.6641 22.6147V22.61Z" fill="#013D5B"/>
<path d="M27.5754 12.2889C28.1289 12.2134 29.0248 12.1143 29.4094 12.1143C30.0005 12.1143 30.5493 12.2276 30.5774 12.8127C30.5868 13.162 29.9629 15.6585 29.8316 16.2389L28.5839 21.7747C28.082 24.0399 27.5332 26.409 27.05 28.2826H30.2537L32.055 19.5141C37.5524 13.7519 39.6679 11.8736 40.9672 11.8736C41.5488 11.8736 41.9522 12.1804 41.9803 12.8835C42.0132 13.8982 41.3893 16.2012 41.1689 16.8572L39.3301 23.2518C38.9127 24.6865 38.6031 25.9843 38.6312 26.9092C38.6875 28.3156 39.5318 28.9385 40.7842 28.9385C43.1249 28.9385 44.8276 26.4845 46.3145 24.0682L45.8783 23.2754C45.2779 24.2476 43.8894 26.3618 42.7918 26.3618C42.4447 26.3618 42.1164 26.1306 42.107 25.5454C42.0741 24.795 42.3884 23.6813 42.6042 22.9403L44.6446 15.4508C45.1934 13.3885 45.4561 12.0577 45.442 11.3545C45.3904 9.95758 44.579 9.3016 43.3359 9.3016C41.2298 9.3016 38.4248 10.8495 32.5006 17.7161H32.4161L33.1619 14.3654C33.5653 12.5343 33.964 10.623 34.3487 9.3016C32.2989 10.0472 29.3578 10.8778 27.5426 11.2318L27.5707 12.2842L27.5754 12.2889Z" fill="#013D5B"/>
<path d="M4.34765 18.0417C4.51651 23.181 7.74837 27.3859 11.9653 27.3859C20.1317 27.3859 23.6074 17.2961 23.3682 10.5522C23.1946 5.40347 19.8784 1.20331 15.6709 1.20331C8.64428 1.20331 4.10843 11.2507 4.34765 18.037V18.0417ZM0.0322729 17.768C-0.272618 8.99957 6.55695 0.0329266 16.4776 0.0329266C23.1102 0.0329266 27.4537 4.47849 27.6976 11.2931C28.0166 20.5429 21.6373 29.0329 11.2523 29.0329C4.61502 29.0329 0.276186 24.5921 0.0322729 17.7727V17.768Z" fill="#013D5B"/>
</svg>
