<svg width="316" height="37" viewBox="0 0 316 37" fill="none" xmlns="http://www.w3.org/2000/svg">
<g clip-path="url(#clip0_11097_3615)">
<path d="M6.78 -45V-64.47H0.45V-66H15V-64.47H8.67V-45H6.78ZM17.9595 -45V-67.53L19.7595 -67.77V-59.16C21.4395 -60.08 23.0895 -60.54 24.7095 -60.54C26.3295 -60.54 27.5795 -60.12 28.4595 -59.28C29.3595 -58.44 29.8095 -57.25 29.8095 -55.71V-45H28.0095V-55.41C28.0095 -57.87 26.7595 -59.1 24.2595 -59.1C23.5995 -59.1 22.8695 -58.99 22.0695 -58.77C21.2895 -58.55 20.5195 -58.25 19.7595 -57.87V-45H17.9595ZM45.2494 -45.54C43.8694 -44.88 42.3894 -44.55 40.8094 -44.55C38.5094 -44.55 36.7394 -45.23 35.4994 -46.59C34.2594 -47.95 33.6394 -49.9 33.6394 -52.44C33.6394 -54.96 34.2194 -56.94 35.3794 -58.38C36.5394 -59.82 38.1294 -60.54 40.1494 -60.54C41.9294 -60.54 43.3294 -59.98 44.3494 -58.86C45.3894 -57.76 45.9094 -56.25 45.9094 -54.33C45.9094 -53.61 45.8494 -52.92 45.7294 -52.26H35.4094C35.4294 -48.08 37.2794 -45.99 40.9594 -45.99C42.4394 -45.99 43.8694 -46.31 45.2494 -46.95V-45.54ZM40.1194 -59.13C38.7594 -59.13 37.6494 -58.63 36.7894 -57.63C35.9294 -56.63 35.4694 -55.29 35.4094 -53.61H44.1694C44.2094 -53.93 44.2294 -54.21 44.2294 -54.45C44.2294 -55.93 43.8694 -57.08 43.1494 -57.9C42.4294 -58.72 41.4194 -59.13 40.1194 -59.13ZM59.2223 -59.19C59.9823 -59.61 60.7523 -59.94 61.5323 -60.18C62.3323 -60.42 63.0723 -60.54 63.7523 -60.54C65.7123 -60.54 67.2523 -59.85 68.3723 -58.47C69.4923 -57.11 70.0523 -55.22 70.0523 -52.8C70.0523 -50.14 69.4123 -48.1 68.1323 -46.68C66.8723 -45.26 65.0423 -44.55 62.6423 -44.55C60.9423 -44.55 59.2023 -44.83 57.4223 -45.39V-67.53L59.2223 -67.77V-59.19ZM63.5123 -59.1C62.8523 -59.1 62.1423 -58.99 61.3823 -58.77C60.6223 -58.55 59.9023 -58.25 59.2223 -57.87V-46.47C60.2623 -46.15 61.3523 -45.99 62.4923 -45.99C64.4123 -45.99 65.8323 -46.54 66.7523 -47.64C67.6923 -48.76 68.1623 -50.47 68.1623 -52.77C68.1623 -54.83 67.7623 -56.4 66.9623 -57.48C66.1823 -58.56 65.0323 -59.1 63.5123 -59.1ZM84.7123 -45.54C83.3323 -44.88 81.8523 -44.55 80.2723 -44.55C77.9723 -44.55 76.2023 -45.23 74.9623 -46.59C73.7223 -47.95 73.1023 -49.9 73.1023 -52.44C73.1023 -54.96 73.6823 -56.94 74.8423 -58.38C76.0023 -59.82 77.5923 -60.54 79.6123 -60.54C81.3923 -60.54 82.7923 -59.98 83.8123 -58.86C84.8523 -57.76 85.3723 -56.25 85.3723 -54.33C85.3723 -53.61 85.3123 -52.92 85.1923 -52.26H74.8723C74.8923 -48.08 76.7423 -45.99 80.4223 -45.99C81.9023 -45.99 83.3323 -46.31 84.7123 -46.95V-45.54ZM79.5823 -59.13C78.2223 -59.13 77.1123 -58.63 76.2523 -57.63C75.3923 -56.63 74.9323 -55.29 74.8723 -53.61H83.6323C83.6723 -53.93 83.6923 -54.21 83.6923 -54.45C83.6923 -55.93 83.3323 -57.08 82.6123 -57.9C81.8923 -58.72 80.8823 -59.13 79.5823 -59.13ZM88.2152 -46.98C89.7152 -46.32 91.2652 -45.99 92.8652 -45.99C95.5652 -45.99 96.9152 -47.04 96.9152 -49.14C96.9152 -49.82 96.7152 -50.37 96.3152 -50.79C95.9352 -51.21 95.2952 -51.56 94.3952 -51.84L92.1152 -52.56C90.8352 -52.96 89.9052 -53.46 89.3252 -54.06C88.7452 -54.68 88.4552 -55.46 88.4552 -56.4C88.4552 -57.66 88.9452 -58.66 89.9252 -59.4C90.9252 -60.16 92.2652 -60.54 93.9452 -60.54C95.3652 -60.54 96.7152 -60.27 97.9952 -59.73V-58.32C96.6552 -58.84 95.3352 -59.1 94.0352 -59.1C92.8552 -59.1 91.9252 -58.86 91.2452 -58.38C90.5852 -57.92 90.2552 -57.28 90.2552 -56.46C90.2552 -55.88 90.4352 -55.41 90.7952 -55.05C91.1752 -54.71 91.8452 -54.38 92.8052 -54.06L95.1752 -53.28C96.3952 -52.88 97.2852 -52.35 97.8452 -51.69C98.4252 -51.03 98.7152 -50.19 98.7152 -49.17C98.7152 -47.69 98.2152 -46.55 97.2152 -45.75C96.2152 -44.95 94.8052 -44.55 92.9852 -44.55C91.3052 -44.55 89.7952 -44.86 88.4552 -45.48L88.2152 -46.98ZM104.818 -58.71V-49.11C104.818 -48.07 105.038 -47.3 105.478 -46.8C105.918 -46.32 106.598 -46.08 107.518 -46.08C108.118 -46.08 108.798 -46.19 109.558 -46.41V-45.09C108.718 -44.81 107.948 -44.67 107.248 -44.67C105.868 -44.67 104.818 -45.04 104.098 -45.78C103.378 -46.54 103.018 -47.66 103.018 -49.14V-58.71H100.738V-60L103.078 -60.09L103.258 -63.87L104.818 -64.05V-60.09H109.348V-58.71H104.818ZM121.976 -59.19C122.736 -59.61 123.506 -59.94 124.286 -60.18C125.086 -60.42 125.826 -60.54 126.506 -60.54C128.466 -60.54 130.006 -59.85 131.126 -58.47C132.246 -57.11 132.806 -55.22 132.806 -52.8C132.806 -50.14 132.166 -48.1 130.886 -46.68C129.626 -45.26 127.796 -44.55 125.396 -44.55C123.696 -44.55 121.956 -44.83 120.176 -45.39V-67.53L121.976 -67.77V-59.19ZM126.266 -59.1C125.606 -59.1 124.896 -58.99 124.136 -58.77C123.376 -58.55 122.656 -58.25 121.976 -57.87V-46.47C123.016 -46.15 124.106 -45.99 125.246 -45.99C127.166 -45.99 128.586 -46.54 129.506 -47.64C130.446 -48.76 130.916 -50.47 130.916 -52.77C130.916 -54.83 130.516 -56.4 129.716 -57.48C128.936 -58.56 127.786 -59.1 126.266 -59.1ZM147.466 -45.54C146.086 -44.88 144.606 -44.55 143.026 -44.55C140.726 -44.55 138.956 -45.23 137.716 -46.59C136.476 -47.95 135.856 -49.9 135.856 -52.44C135.856 -54.96 136.436 -56.94 137.596 -58.38C138.756 -59.82 140.346 -60.54 142.366 -60.54C144.146 -60.54 145.546 -59.98 146.566 -58.86C147.606 -57.76 148.126 -56.25 148.126 -54.33C148.126 -53.61 148.066 -52.92 147.946 -52.26H137.626C137.646 -48.08 139.496 -45.99 143.176 -45.99C144.656 -45.99 146.086 -46.31 147.466 -46.95V-45.54ZM142.336 -59.13C140.976 -59.13 139.866 -58.63 139.006 -57.63C138.146 -56.63 137.686 -55.29 137.626 -53.61H146.386C146.426 -53.93 146.446 -54.21 146.446 -54.45C146.446 -55.93 146.086 -57.08 145.366 -57.9C144.646 -58.72 143.636 -59.13 142.336 -59.13ZM163.779 -67.77V-45.09L162.249 -44.94L162.129 -45.99C160.429 -45.03 158.869 -44.55 157.449 -44.55C155.489 -44.55 153.949 -45.23 152.829 -46.59C151.709 -47.97 151.149 -49.87 151.149 -52.29C151.149 -54.95 151.779 -56.99 153.039 -58.41C154.319 -59.83 156.159 -60.54 158.559 -60.54C159.799 -60.54 160.939 -60.38 161.979 -60.06V-67.53L163.779 -67.77ZM157.689 -45.99C158.349 -45.99 159.059 -46.1 159.819 -46.32C160.579 -46.54 161.299 -46.84 161.979 -47.22V-58.62C160.939 -58.94 159.849 -59.1 158.709 -59.1C156.789 -59.1 155.359 -58.54 154.419 -57.42C153.499 -56.32 153.039 -54.62 153.039 -52.32C153.039 -50.26 153.429 -48.69 154.209 -47.61C155.009 -46.53 156.169 -45.99 157.689 -45.99ZM171.029 -58.71V-49.11C171.029 -48.07 171.249 -47.3 171.689 -46.8C172.129 -46.32 172.809 -46.08 173.729 -46.08C174.329 -46.08 175.009 -46.19 175.769 -46.41V-45.09C174.929 -44.81 174.159 -44.67 173.459 -44.67C172.079 -44.67 171.029 -45.04 170.309 -45.78C169.589 -46.54 169.229 -47.66 169.229 -49.14V-58.71H166.949V-60L169.289 -60.09L169.469 -63.87L171.029 -64.05V-60.09H175.559V-58.71H171.029ZM178.887 -45V-59.94L180.687 -60.18V-45H178.887ZM179.787 -63.75C179.387 -63.75 179.057 -63.87 178.797 -64.11C178.557 -64.35 178.437 -64.68 178.437 -65.1C178.437 -65.52 178.557 -65.85 178.797 -66.09C179.057 -66.33 179.387 -66.45 179.787 -66.45C180.187 -66.45 180.507 -66.33 180.747 -66.09C181.007 -65.85 181.137 -65.52 181.137 -65.1C181.137 -64.68 181.007 -64.35 180.747 -64.11C180.507 -63.87 180.187 -63.75 179.787 -63.75ZM203.773 -45V-55.71C203.773 -57.97 202.703 -59.1 200.563 -59.1C199.323 -59.1 197.903 -58.65 196.303 -57.75C196.463 -57.21 196.543 -56.63 196.543 -56.01V-45H194.743V-55.71C194.743 -57.97 193.673 -59.1 191.533 -59.1C190.333 -59.1 188.993 -58.69 187.513 -57.87V-45H185.713V-60L187.243 -60.15L187.363 -59.1C189.063 -60.06 190.603 -60.54 191.983 -60.54C193.743 -60.54 195.013 -59.96 195.793 -58.8C197.733 -59.96 199.473 -60.54 201.013 -60.54C202.473 -60.54 203.593 -60.15 204.373 -59.37C205.173 -58.59 205.573 -57.47 205.573 -56.01V-45H203.773ZM221.031 -45.54C219.651 -44.88 218.171 -44.55 216.591 -44.55C214.291 -44.55 212.521 -45.23 211.281 -46.59C210.041 -47.95 209.421 -49.9 209.421 -52.44C209.421 -54.96 210.001 -56.94 211.161 -58.38C212.321 -59.82 213.911 -60.54 215.931 -60.54C217.711 -60.54 219.111 -59.98 220.131 -58.86C221.171 -57.76 221.691 -56.25 221.691 -54.33C221.691 -53.61 221.631 -52.92 221.511 -52.26H211.191C211.211 -48.08 213.061 -45.99 216.741 -45.99C218.221 -45.99 219.651 -46.31 221.031 -46.95V-45.54ZM215.901 -59.13C214.541 -59.13 213.431 -58.63 212.571 -57.63C211.711 -56.63 211.251 -55.29 211.191 -53.61H219.951C219.991 -53.93 220.011 -54.21 220.011 -54.45C220.011 -55.93 219.651 -57.08 218.931 -57.9C218.211 -58.72 217.201 -59.13 215.901 -59.13ZM232.034 -46.98C233.534 -46.32 235.084 -45.99 236.684 -45.99C239.384 -45.99 240.734 -47.04 240.734 -49.14C240.734 -49.82 240.534 -50.37 240.134 -50.79C239.754 -51.21 239.114 -51.56 238.214 -51.84L235.934 -52.56C234.654 -52.96 233.724 -53.46 233.144 -54.06C232.564 -54.68 232.274 -55.46 232.274 -56.4C232.274 -57.66 232.764 -58.66 233.744 -59.4C234.744 -60.16 236.084 -60.54 237.764 -60.54C239.184 -60.54 240.534 -60.27 241.814 -59.73V-58.32C240.474 -58.84 239.154 -59.1 237.854 -59.1C236.674 -59.1 235.744 -58.86 235.064 -58.38C234.404 -57.92 234.074 -57.28 234.074 -56.46C234.074 -55.88 234.254 -55.41 234.614 -55.05C234.994 -54.71 235.664 -54.38 236.624 -54.06L238.994 -53.28C240.214 -52.88 241.104 -52.35 241.664 -51.69C242.244 -51.03 242.534 -50.19 242.534 -49.17C242.534 -47.69 242.034 -46.55 241.034 -45.75C240.034 -44.95 238.624 -44.55 236.804 -44.55C235.124 -44.55 233.614 -44.86 232.274 -45.48L232.034 -46.98ZM248.636 -58.71V-49.11C248.636 -48.07 248.856 -47.3 249.296 -46.8C249.736 -46.32 250.416 -46.08 251.336 -46.08C251.936 -46.08 252.616 -46.19 253.376 -46.41V-45.09C252.536 -44.81 251.766 -44.67 251.066 -44.67C249.686 -44.67 248.636 -45.04 247.916 -45.78C247.196 -46.54 246.836 -47.66 246.836 -49.14V-58.71H244.556V-60L246.896 -60.09L247.076 -63.87L248.636 -64.05V-60.09H253.166V-58.71H248.636ZM262.105 -44.55C259.925 -44.55 258.275 -45.22 257.155 -46.56C256.055 -47.92 255.505 -49.92 255.505 -52.56C255.505 -55.18 256.055 -57.16 257.155 -58.5C258.275 -59.86 259.925 -60.54 262.105 -60.54C264.285 -60.54 265.925 -59.86 267.025 -58.5C268.145 -57.16 268.705 -55.18 268.705 -52.56C268.705 -49.92 268.145 -47.92 267.025 -46.56C265.925 -45.22 264.285 -44.55 262.105 -44.55ZM262.105 -45.99C263.745 -45.99 264.935 -46.51 265.675 -47.55C266.435 -48.61 266.815 -50.28 266.815 -52.56C266.815 -54.82 266.435 -56.47 265.675 -57.51C264.935 -58.57 263.745 -59.1 262.105 -59.1C260.465 -59.1 259.265 -58.57 258.505 -57.51C257.765 -56.47 257.395 -54.82 257.395 -52.56C257.395 -50.28 257.765 -48.61 258.505 -47.55C259.265 -46.51 260.465 -45.99 262.105 -45.99ZM272.754 -45V-60L274.284 -60.15L274.434 -58.8C275.774 -59.9 277.204 -60.45 278.724 -60.45C279.264 -60.45 279.694 -60.39 280.014 -60.27V-58.8C279.494 -58.92 279.034 -58.98 278.634 -58.98C277.214 -58.98 275.854 -58.47 274.554 -57.45V-45H272.754ZM281.759 -39.81C283.179 -40.07 284.289 -40.57 285.089 -41.31C285.889 -42.05 286.629 -43.23 287.309 -44.85L281.549 -60.09H283.439L288.149 -46.86L293.009 -60.09H294.809L289.049 -45.15C288.509 -43.71 287.939 -42.54 287.339 -41.64C286.759 -40.72 286.069 -40 285.269 -39.48C284.469 -38.94 283.429 -38.53 282.149 -38.25L281.759 -39.81ZM300.659 -51C300.659 -52.26 300.859 -53.34 301.259 -54.24C301.659 -55.14 302.319 -56.01 303.239 -56.85C304.219 -57.73 304.869 -58.44 305.189 -58.98C305.509 -59.54 305.669 -60.18 305.669 -60.9C305.669 -62.04 305.289 -62.92 304.529 -63.54C303.789 -64.18 302.759 -64.5 301.439 -64.5C299.739 -64.5 298.059 -63.89 296.399 -62.67V-64.17C297.199 -64.75 298.059 -65.2 298.979 -65.52C299.919 -65.84 300.859 -66 301.799 -66C303.499 -66 304.869 -65.54 305.909 -64.62C306.969 -63.72 307.499 -62.52 307.499 -61.02C307.499 -60.16 307.279 -59.37 306.839 -58.65C306.399 -57.93 305.559 -57.02 304.319 -55.92C303.519 -55.22 302.939 -54.5 302.579 -53.76C302.239 -53.02 302.059 -52.1 302.039 -51H300.659ZM301.349 -44.85C300.949 -44.85 300.619 -44.97 300.359 -45.21C300.099 -45.47 299.969 -45.81 299.969 -46.23C299.969 -46.65 300.099 -46.98 300.359 -47.22C300.619 -47.48 300.949 -47.61 301.349 -47.61C301.749 -47.61 302.079 -47.48 302.339 -47.22C302.599 -46.98 302.729 -46.65 302.729 -46.23C302.729 -45.81 302.599 -45.47 302.339 -45.21C302.079 -44.97 301.749 -44.85 301.349 -44.85ZM16.05 -30H17.88V-9H16.08L4.8 -26.88V-9H2.97V-30H4.77L16.05 -12.12V-30ZM28.9894 -8.55C26.8094 -8.55 25.1594 -9.22 24.0394 -10.56C22.9394 -11.92 22.3894 -13.92 22.3894 -16.56C22.3894 -19.18 22.9394 -21.16 24.0394 -22.5C25.1594 -23.86 26.8094 -24.54 28.9894 -24.54C31.1694 -24.54 32.8094 -23.86 33.9094 -22.5C35.0294 -21.16 35.5894 -19.18 35.5894 -16.56C35.5894 -13.92 35.0294 -11.92 33.9094 -10.56C32.8094 -9.22 31.1694 -8.55 28.9894 -8.55ZM28.9894 -9.99C30.6294 -9.99 31.8194 -10.51 32.5594 -11.55C33.3194 -12.61 33.6994 -14.28 33.6994 -16.56C33.6994 -18.82 33.3194 -20.47 32.5594 -21.51C31.8194 -22.57 30.6294 -23.1 28.9894 -23.1C27.3494 -23.1 26.1494 -22.57 25.3894 -21.51C24.6494 -20.47 24.2794 -18.82 24.2794 -16.56C24.2794 -14.28 24.6494 -12.61 25.3894 -11.55C26.1494 -10.51 27.3494 -9.99 28.9894 -9.99ZM47.5591 -9V-22.71H45.2791V-24L47.5591 -24.09V-27.48C47.5591 -28.96 47.9191 -30.09 48.6391 -30.87C49.3791 -31.67 50.4491 -32.07 51.8491 -32.07C52.6091 -32.07 53.3791 -31.93 54.1591 -31.65V-30.33C53.4391 -30.55 52.7491 -30.66 52.0891 -30.66C51.1491 -30.66 50.4591 -30.41 50.0191 -29.91C49.5791 -29.43 49.3591 -28.67 49.3591 -27.63V-24.09H53.4091V-22.71H49.3591V-9H47.5591ZM67.0755 -9.54C65.6955 -8.88 64.2155 -8.55 62.6355 -8.55C60.3355 -8.55 58.5655 -9.23 57.3255 -10.59C56.0855 -11.95 55.4655 -13.9 55.4655 -16.44C55.4655 -18.96 56.0455 -20.94 57.2055 -22.38C58.3655 -23.82 59.9555 -24.54 61.9755 -24.54C63.7555 -24.54 65.1555 -23.98 66.1755 -22.86C67.2155 -21.76 67.7355 -20.25 67.7355 -18.33C67.7355 -17.61 67.6755 -16.92 67.5555 -16.26H57.2355C57.2555 -12.08 59.1055 -9.99 62.7855 -9.99C64.2655 -9.99 65.6955 -10.31 67.0755 -10.95V-9.54ZM61.9455 -23.13C60.5855 -23.13 59.4755 -22.63 58.6155 -21.63C57.7555 -20.63 57.2955 -19.29 57.2355 -17.61H65.9955C66.0355 -17.93 66.0555 -18.21 66.0555 -18.45C66.0555 -19.93 65.6955 -21.08 64.9755 -21.9C64.2555 -22.72 63.2455 -23.13 61.9455 -23.13ZM82.3685 -9.54C80.9885 -8.88 79.5085 -8.55 77.9285 -8.55C75.6285 -8.55 73.8585 -9.23 72.6185 -10.59C71.3785 -11.95 70.7585 -13.9 70.7585 -16.44C70.7585 -18.96 71.3385 -20.94 72.4985 -22.38C73.6585 -23.82 75.2485 -24.54 77.2685 -24.54C79.0485 -24.54 80.4485 -23.98 81.4685 -22.86C82.5085 -21.76 83.0285 -20.25 83.0285 -18.33C83.0285 -17.61 82.9685 -16.92 82.8485 -16.26H72.5285C72.5485 -12.08 74.3985 -9.99 78.0785 -9.99C79.5585 -9.99 80.9885 -10.31 82.3685 -10.95V-9.54ZM77.2385 -23.13C75.8785 -23.13 74.7685 -22.63 73.9085 -21.63C73.0485 -20.63 72.5885 -19.29 72.5285 -17.61H81.2885C81.3285 -17.93 81.3485 -18.21 81.3485 -18.45C81.3485 -19.93 80.9885 -21.08 80.2685 -21.9C79.5485 -22.72 78.5385 -23.13 77.2385 -23.13ZM85.8715 -10.98C87.3715 -10.32 88.9215 -9.99 90.5215 -9.99C93.2215 -9.99 94.5715 -11.04 94.5715 -13.14C94.5715 -13.82 94.3715 -14.37 93.9715 -14.79C93.5915 -15.21 92.9515 -15.56 92.0515 -15.84L89.7715 -16.56C88.4915 -16.96 87.5615 -17.46 86.9815 -18.06C86.4015 -18.68 86.1115 -19.46 86.1115 -20.4C86.1115 -21.66 86.6015 -22.66 87.5815 -23.4C88.5815 -24.16 89.9215 -24.54 91.6015 -24.54C93.0215 -24.54 94.3715 -24.27 95.6515 -23.73V-22.32C94.3115 -22.84 92.9915 -23.1 91.6915 -23.1C90.5115 -23.1 89.5815 -22.86 88.9015 -22.38C88.2415 -21.92 87.9115 -21.28 87.9115 -20.46C87.9115 -19.88 88.0915 -19.41 88.4515 -19.05C88.8315 -18.71 89.5015 -18.38 90.4615 -18.06L92.8315 -17.28C94.0515 -16.88 94.9415 -16.35 95.5015 -15.69C96.0815 -15.03 96.3715 -14.19 96.3715 -13.17C96.3715 -11.69 95.8715 -10.55 94.8715 -9.75C93.8715 -8.95 92.4615 -8.55 90.6415 -8.55C88.9615 -8.55 87.4515 -8.86 86.1115 -9.48L85.8715 -10.98ZM113.364 -8.55C111.184 -8.55 109.534 -9.22 108.414 -10.56C107.314 -11.92 106.764 -13.92 106.764 -16.56C106.764 -19.18 107.314 -21.16 108.414 -22.5C109.534 -23.86 111.184 -24.54 113.364 -24.54C115.544 -24.54 117.184 -23.86 118.284 -22.5C119.404 -21.16 119.964 -19.18 119.964 -16.56C119.964 -13.92 119.404 -11.92 118.284 -10.56C117.184 -9.22 115.544 -8.55 113.364 -8.55ZM113.364 -9.99C115.004 -9.99 116.194 -10.51 116.934 -11.55C117.694 -12.61 118.074 -14.28 118.074 -16.56C118.074 -18.82 117.694 -20.47 116.934 -21.51C116.194 -22.57 115.004 -23.1 113.364 -23.1C111.724 -23.1 110.524 -22.57 109.764 -21.51C109.024 -20.47 108.654 -18.82 108.654 -16.56C108.654 -14.28 109.024 -12.61 109.764 -11.55C110.524 -10.51 111.724 -9.99 113.364 -9.99ZM124.014 -9V-24L125.544 -24.15L125.694 -22.8C127.034 -23.9 128.464 -24.45 129.984 -24.45C130.524 -24.45 130.954 -24.39 131.274 -24.27V-22.8C130.754 -22.92 130.294 -22.98 129.894 -22.98C128.474 -22.98 127.114 -22.47 125.814 -21.45V-9H124.014ZM159.887 -9V-19.71C159.887 -21.97 158.817 -23.1 156.677 -23.1C155.437 -23.1 154.017 -22.65 152.417 -21.75C152.577 -21.21 152.657 -20.63 152.657 -20.01V-9H150.857V-19.71C150.857 -21.97 149.787 -23.1 147.647 -23.1C146.447 -23.1 145.107 -22.69 143.627 -21.87V-9H141.827V-24L143.357 -24.15L143.477 -23.1C145.177 -24.06 146.717 -24.54 148.097 -24.54C149.857 -24.54 151.127 -23.96 151.907 -22.8C153.847 -23.96 155.587 -24.54 157.127 -24.54C158.587 -24.54 159.707 -24.15 160.487 -23.37C161.287 -22.59 161.687 -21.47 161.687 -20.01V-9H159.887ZM166.524 -9V-23.94L168.324 -24.18V-9H166.524ZM167.424 -27.75C167.024 -27.75 166.694 -27.87 166.434 -28.11C166.194 -28.35 166.074 -28.68 166.074 -29.1C166.074 -29.52 166.194 -29.85 166.434 -30.09C166.694 -30.33 167.024 -30.45 167.424 -30.45C167.824 -30.45 168.144 -30.33 168.384 -30.09C168.644 -29.85 168.774 -29.52 168.774 -29.1C168.774 -28.68 168.644 -28.35 168.384 -28.11C168.144 -27.87 167.824 -27.75 167.424 -27.75ZM183.4 -9V-19.41C183.4 -21.87 182.15 -23.1 179.65 -23.1C178.99 -23.1 178.26 -22.99 177.46 -22.77C176.68 -22.55 175.91 -22.25 175.15 -21.87V-9H173.35V-24L174.88 -24.15L175 -23.1C176.74 -24.06 178.44 -24.54 180.1 -24.54C181.72 -24.54 182.97 -24.12 183.85 -23.28C184.75 -22.44 185.2 -21.25 185.2 -19.71V-9H183.4ZM190.02 -9V-23.94L191.82 -24.18V-9H190.02ZM190.92 -27.75C190.52 -27.75 190.19 -27.87 189.93 -28.11C189.69 -28.35 189.57 -28.68 189.57 -29.1C189.57 -29.52 189.69 -29.85 189.93 -30.09C190.19 -30.33 190.52 -30.45 190.92 -30.45C191.32 -30.45 191.64 -30.33 191.88 -30.09C192.14 -29.85 192.27 -29.52 192.27 -29.1C192.27 -28.68 192.14 -28.35 191.88 -28.11C191.64 -27.87 191.32 -27.75 190.92 -27.75ZM214.906 -9V-19.71C214.906 -21.97 213.836 -23.1 211.696 -23.1C210.456 -23.1 209.036 -22.65 207.436 -21.75C207.596 -21.21 207.676 -20.63 207.676 -20.01V-9H205.876V-19.71C205.876 -21.97 204.806 -23.1 202.666 -23.1C201.466 -23.1 200.126 -22.69 198.646 -21.87V-9H196.846V-24L198.376 -24.15L198.496 -23.1C200.196 -24.06 201.736 -24.54 203.116 -24.54C204.876 -24.54 206.146 -23.96 206.926 -22.8C208.866 -23.96 210.606 -24.54 212.146 -24.54C213.606 -24.54 214.726 -24.15 215.506 -23.37C216.306 -22.59 216.706 -21.47 216.706 -20.01V-9H214.906ZM223.133 -24.09V-13.68C223.133 -11.22 224.343 -9.99 226.763 -9.99C227.423 -9.99 228.143 -10.1 228.923 -10.32C229.723 -10.54 230.503 -10.84 231.263 -11.22V-24.09H233.063V-9.09L231.533 -8.94L231.413 -9.99C229.673 -9.03 227.973 -8.55 226.313 -8.55C224.733 -8.55 223.503 -8.97 222.623 -9.81C221.763 -10.67 221.333 -11.86 221.333 -13.38V-24.09H223.133ZM256.156 -9V-19.71C256.156 -21.97 255.086 -23.1 252.946 -23.1C251.706 -23.1 250.286 -22.65 248.686 -21.75C248.846 -21.21 248.926 -20.63 248.926 -20.01V-9H247.126V-19.71C247.126 -21.97 246.056 -23.1 243.916 -23.1C242.716 -23.1 241.376 -22.69 239.896 -21.87V-9H238.096V-24L239.626 -24.15L239.746 -23.1C241.446 -24.06 242.986 -24.54 244.366 -24.54C246.126 -24.54 247.396 -23.96 248.176 -22.8C250.116 -23.96 251.856 -24.54 253.396 -24.54C254.856 -24.54 255.976 -24.15 256.756 -23.37C257.556 -22.59 257.956 -21.47 257.956 -20.01V-9H256.156ZM261.623 -10.98C263.123 -10.32 264.673 -9.99 266.273 -9.99C268.973 -9.99 270.323 -11.04 270.323 -13.14C270.323 -13.82 270.123 -14.37 269.723 -14.79C269.343 -15.21 268.703 -15.56 267.803 -15.84L265.523 -16.56C264.243 -16.96 263.313 -17.46 262.733 -18.06C262.153 -18.68 261.863 -19.46 261.863 -20.4C261.863 -21.66 262.353 -22.66 263.333 -23.4C264.333 -24.16 265.673 -24.54 267.353 -24.54C268.773 -24.54 270.123 -24.27 271.403 -23.73V-22.32C270.063 -22.84 268.743 -23.1 267.443 -23.1C266.263 -23.1 265.333 -22.86 264.653 -22.38C263.993 -21.92 263.663 -21.28 263.663 -20.46C263.663 -19.88 263.843 -19.41 264.203 -19.05C264.583 -18.71 265.253 -18.38 266.213 -18.06L268.583 -17.28C269.803 -16.88 270.693 -16.35 271.253 -15.69C271.833 -15.03 272.123 -14.19 272.123 -13.17C272.123 -11.69 271.623 -10.55 270.623 -9.75C269.623 -8.95 268.213 -8.55 266.393 -8.55C264.713 -8.55 263.203 -8.86 261.863 -9.48L261.623 -10.98ZM289.116 -8.55C286.936 -8.55 285.286 -9.22 284.166 -10.56C283.066 -11.92 282.516 -13.92 282.516 -16.56C282.516 -19.18 283.066 -21.16 284.166 -22.5C285.286 -23.86 286.936 -24.54 289.116 -24.54C291.296 -24.54 292.936 -23.86 294.036 -22.5C295.156 -21.16 295.716 -19.18 295.716 -16.56C295.716 -13.92 295.156 -11.92 294.036 -10.56C292.936 -9.22 291.296 -8.55 289.116 -8.55ZM289.116 -9.99C290.756 -9.99 291.946 -10.51 292.686 -11.55C293.446 -12.61 293.826 -14.28 293.826 -16.56C293.826 -18.82 293.446 -20.47 292.686 -21.51C291.946 -22.57 290.756 -23.1 289.116 -23.1C287.476 -23.1 286.276 -22.57 285.516 -21.51C284.776 -20.47 284.406 -18.82 284.406 -16.56C284.406 -14.28 284.776 -12.61 285.516 -11.55C286.276 -10.51 287.476 -9.99 289.116 -9.99ZM309.816 -9V-19.41C309.816 -21.87 308.566 -23.1 306.066 -23.1C305.406 -23.1 304.676 -22.99 303.876 -22.77C303.096 -22.55 302.326 -22.25 301.566 -21.87V-9H299.766V-24L301.296 -24.15L301.416 -23.1C303.156 -24.06 304.856 -24.54 306.516 -24.54C308.136 -24.54 309.386 -24.12 310.266 -23.28C311.166 -22.44 311.616 -21.25 311.616 -19.71V-9H309.816ZM12.48 26.46C11.16 27.12 9.72 27.45 8.16 27.45C6.04 27.45 4.4 26.76 3.24 25.38C2.1 24 1.53 22.03 1.53 19.47C1.53 16.91 2.1 14.94 3.24 13.56C4.4 12.16 6.04 11.46 8.16 11.46C9.66 11.46 11.08 11.79 12.42 12.45V13.86C11.02 13.24 9.66 12.93 8.34 12.93C6.72 12.93 5.49 13.48 4.65 14.58C3.83 15.68 3.42 17.31 3.42 19.47C3.42 21.61 3.83 23.23 4.65 24.33C5.49 25.43 6.72 25.98 8.34 25.98C9.7 25.98 11.08 25.67 12.48 25.05V26.46ZM16.3481 27V4.47L18.1481 4.23V12.84C19.8281 11.92 21.4781 11.46 23.0981 11.46C24.7181 11.46 25.9681 11.88 26.8481 12.72C27.7481 13.56 28.1981 14.75 28.1981 16.29V27H26.3981V16.59C26.3981 14.13 25.1481 12.9 22.6481 12.9C21.9881 12.9 21.2581 13.01 20.4581 13.23C19.6781 13.45 18.9081 13.75 18.1481 14.13V27H16.3481ZM43.638 26.46C42.258 27.12 40.778 27.45 39.198 27.45C36.898 27.45 35.128 26.77 33.888 25.41C32.648 24.05 32.028 22.1 32.028 19.56C32.028 17.04 32.608 15.06 33.768 13.62C34.928 12.18 36.518 11.46 38.538 11.46C40.318 11.46 41.718 12.02 42.738 13.14C43.778 14.24 44.298 15.75 44.298 17.67C44.298 18.39 44.238 19.08 44.118 19.74H33.798C33.818 23.92 35.668 26.01 39.348 26.01C40.828 26.01 42.258 25.69 43.638 25.05V26.46ZM38.508 12.87C37.148 12.87 36.038 13.37 35.178 14.37C34.318 15.37 33.858 16.71 33.798 18.39H42.558C42.598 18.07 42.618 17.79 42.618 17.55C42.618 16.07 42.258 14.92 41.538 14.1C40.818 13.28 39.808 12.87 38.508 12.87ZM58.271 26.46C56.951 27.12 55.511 27.45 53.951 27.45C51.831 27.45 50.191 26.76 49.031 25.38C47.891 24 47.321 22.03 47.321 19.47C47.321 16.91 47.891 14.94 49.031 13.56C50.191 12.16 51.831 11.46 53.951 11.46C55.451 11.46 56.871 11.79 58.211 12.45V13.86C56.811 13.24 55.451 12.93 54.131 12.93C52.511 12.93 51.281 13.48 50.441 14.58C49.621 15.68 49.211 17.31 49.211 19.47C49.211 21.61 49.621 23.23 50.441 24.33C51.281 25.43 52.511 25.98 54.131 25.98C55.491 25.98 56.871 25.67 58.271 25.05V26.46ZM62.1391 27V4.47L63.9391 4.23V18.6L71.0191 11.91H73.1491L65.7391 18.93L73.3891 27H71.1091L63.9391 19.38V27H62.1391ZM75.938 27V12.06L77.738 11.82V27H75.938ZM76.838 8.25C76.438 8.25 76.108 8.13 75.848 7.89C75.608 7.65 75.488 7.32 75.488 6.9C75.488 6.48 75.608 6.15 75.848 5.91C76.108 5.67 76.438 5.55 76.838 5.55C77.238 5.55 77.558 5.67 77.798 5.91C78.058 6.15 78.188 6.48 78.188 6.9C78.188 7.32 78.058 7.65 77.798 7.89C77.558 8.13 77.238 8.25 76.838 8.25ZM92.8141 27V16.59C92.8141 14.13 91.5641 12.9 89.0641 12.9C88.4041 12.9 87.6741 13.01 86.8741 13.23C86.0941 13.45 85.3241 13.75 84.5641 14.13V27H82.7641V12L84.2941 11.85L84.4141 12.9C86.1541 11.94 87.8541 11.46 89.5141 11.46C91.1341 11.46 92.3841 11.88 93.2641 12.72C94.1641 13.56 94.6141 14.75 94.6141 16.29V27H92.8141ZM104.354 33.99C102.574 33.99 101.064 33.68 99.8241 33.06L99.5841 31.53C101.224 32.21 102.784 32.55 104.264 32.55C107.604 32.55 109.274 31 109.274 27.9V25.83C108.514 26.25 107.734 26.58 106.934 26.82C106.154 27.06 105.424 27.18 104.744 27.18C102.784 27.18 101.244 26.52 100.124 25.2C99.0041 23.88 98.4441 22.05 98.4441 19.71C98.4441 17.05 99.0741 15.01 100.334 13.59C101.614 12.17 103.454 11.46 105.854 11.46C107.674 11.46 109.414 11.78 111.074 12.42V27.75C111.074 29.75 110.494 31.29 109.334 32.37C108.174 33.45 106.514 33.99 104.354 33.99ZM104.984 25.74C105.644 25.74 106.354 25.63 107.114 25.41C107.874 25.19 108.594 24.89 109.274 24.51V13.38C108.234 13.06 107.144 12.9 106.004 12.9C104.084 12.9 102.654 13.46 101.714 14.58C100.794 15.68 100.334 17.38 100.334 19.68C100.334 21.66 100.724 23.17 101.504 24.21C102.304 25.23 103.464 25.74 104.984 25.74ZM132.844 27.06L132.724 26.01C131.004 26.97 129.304 27.45 127.624 27.45C126.084 27.45 124.864 27.05 123.964 26.25C123.064 25.43 122.614 24.31 122.614 22.89C122.614 21.39 123.114 20.25 124.114 19.47C125.134 18.67 126.624 18.27 128.584 18.27C129.764 18.27 131.104 18.41 132.604 18.69V16.65C132.604 14.15 131.194 12.9 128.374 12.9C127.634 12.9 126.824 13 125.944 13.2C125.064 13.4 124.254 13.66 123.514 13.98V12.57C124.234 12.23 125.054 11.96 125.974 11.76C126.914 11.56 127.804 11.46 128.644 11.46C130.524 11.46 131.944 11.91 132.904 12.81C133.884 13.69 134.374 14.97 134.374 16.65V26.91L132.844 27.06ZM128.044 26.01C128.764 26.01 129.524 25.9 130.324 25.68C131.124 25.46 131.884 25.16 132.604 24.78V19.98C131.344 19.74 130.104 19.62 128.884 19.62C127.344 19.62 126.224 19.88 125.524 20.4C124.824 20.92 124.474 21.74 124.474 22.86C124.474 24.96 125.664 26.01 128.044 26.01ZM149.15 26.46C147.83 27.12 146.39 27.45 144.83 27.45C142.71 27.45 141.07 26.76 139.91 25.38C138.77 24 138.2 22.03 138.2 19.47C138.2 16.91 138.77 14.94 139.91 13.56C141.07 12.16 142.71 11.46 144.83 11.46C146.33 11.46 147.75 11.79 149.09 12.45V13.86C147.69 13.24 146.33 12.93 145.01 12.93C143.39 12.93 142.16 13.48 141.32 14.58C140.5 15.68 140.09 17.31 140.09 19.47C140.09 21.61 140.5 23.23 141.32 24.33C142.16 25.43 143.39 25.98 145.01 25.98C146.37 25.98 147.75 25.67 149.15 25.05V26.46ZM162.685 26.46C161.365 27.12 159.925 27.45 158.365 27.45C156.245 27.45 154.605 26.76 153.445 25.38C152.305 24 151.735 22.03 151.735 19.47C151.735 16.91 152.305 14.94 153.445 13.56C154.605 12.16 156.245 11.46 158.365 11.46C159.865 11.46 161.285 11.79 162.625 12.45V13.86C161.225 13.24 159.865 12.93 158.545 12.93C156.925 12.93 155.695 13.48 154.855 14.58C154.035 15.68 153.625 17.31 153.625 19.47C153.625 21.61 154.035 23.23 154.855 24.33C155.695 25.43 156.925 25.98 158.545 25.98C159.905 25.98 161.285 25.67 162.685 25.05V26.46ZM171.87 27.45C169.69 27.45 168.04 26.78 166.92 25.44C165.82 24.08 165.27 22.08 165.27 19.44C165.27 16.82 165.82 14.84 166.92 13.5C168.04 12.14 169.69 11.46 171.87 11.46C174.05 11.46 175.69 12.14 176.79 13.5C177.91 14.84 178.47 16.82 178.47 19.44C178.47 22.08 177.91 24.08 176.79 25.44C175.69 26.78 174.05 27.45 171.87 27.45ZM171.87 26.01C173.51 26.01 174.7 25.49 175.44 24.45C176.2 23.39 176.58 21.72 176.58 19.44C176.58 17.18 176.2 15.53 175.44 14.49C174.7 13.43 173.51 12.9 171.87 12.9C170.23 12.9 169.03 13.43 168.27 14.49C167.53 15.53 167.16 17.18 167.16 19.44C167.16 21.72 167.53 23.39 168.27 24.45C169.03 25.49 170.23 26.01 171.87 26.01ZM184.11 11.91V22.32C184.11 24.78 185.32 26.01 187.74 26.01C188.4 26.01 189.12 25.9 189.9 25.68C190.7 25.46 191.48 25.16 192.24 24.78V11.91H194.04V26.91L192.51 27.06L192.39 26.01C190.65 26.97 188.95 27.45 187.29 27.45C185.71 27.45 184.48 27.03 183.6 26.19C182.74 25.33 182.31 24.14 182.31 22.62V11.91H184.11ZM209.123 27V16.59C209.123 14.13 207.873 12.9 205.373 12.9C204.713 12.9 203.983 13.01 203.183 13.23C202.403 13.45 201.633 13.75 200.873 14.13V27H199.073V12L200.603 11.85L200.723 12.9C202.463 11.94 204.163 11.46 205.823 11.46C207.443 11.46 208.693 11.88 209.573 12.72C210.473 13.56 210.923 14.75 210.923 16.29V27H209.123ZM217.963 13.29V22.89C217.963 23.93 218.183 24.7 218.623 25.2C219.063 25.68 219.743 25.92 220.663 25.92C221.263 25.92 221.943 25.81 222.703 25.59V26.91C221.863 27.19 221.093 27.33 220.393 27.33C219.013 27.33 217.963 26.96 217.243 26.22C216.523 25.46 216.163 24.34 216.163 22.86V13.29H213.883V12L216.223 11.91L216.403 8.13L217.963 7.95V11.91H222.493V13.29H217.963ZM224.651 25.02C226.151 25.68 227.701 26.01 229.301 26.01C232.001 26.01 233.351 24.96 233.351 22.86C233.351 22.18 233.151 21.63 232.751 21.21C232.371 20.79 231.731 20.44 230.831 20.16L228.551 19.44C227.271 19.04 226.341 18.54 225.761 17.94C225.181 17.32 224.891 16.54 224.891 15.6C224.891 14.34 225.381 13.34 226.361 12.6C227.361 11.84 228.701 11.46 230.381 11.46C231.801 11.46 233.151 11.73 234.431 12.27V13.68C233.091 13.16 231.771 12.9 230.471 12.9C229.291 12.9 228.361 13.14 227.681 13.62C227.021 14.08 226.691 14.72 226.691 15.54C226.691 16.12 226.871 16.59 227.231 16.95C227.611 17.29 228.281 17.62 229.241 17.94L231.611 18.72C232.831 19.12 233.721 19.65 234.281 20.31C234.861 20.97 235.151 21.81 235.151 22.83C235.151 24.31 234.651 25.45 233.651 26.25C232.651 27.05 231.241 27.45 229.421 27.45C227.741 27.45 226.231 27.14 224.891 26.52L224.651 25.02ZM239.604 27.15C239.204 27.15 238.874 27.03 238.614 26.79C238.354 26.53 238.224 26.19 238.224 25.77C238.224 25.35 238.354 25.02 238.614 24.78C238.874 24.52 239.204 24.39 239.604 24.39C240.004 24.39 240.334 24.52 240.594 24.78C240.854 25.02 240.984 25.35 240.984 25.77C240.984 26.19 240.854 26.53 240.594 26.79C240.334 27.03 240.004 27.15 239.604 27.15Z" fill="#013D5B"/>
</g>
<defs>
<clipPath id="clip0_11097_3615">
<rect width="316" height="37" fill="white"/>
</clipPath>
</defs>
</svg>
