<svg width="316" height="34" viewBox="0 0 316 34" fill="none" xmlns="http://www.w3.org/2000/svg">
<g clip-path="url(#clip0_11097_3615)">
<path d="M6.78 29V9.53H0.45V8H15V9.53H8.67V29H6.78ZM17.9595 29V6.47L19.7595 6.23V14.84C21.4395 13.92 23.0895 13.46 24.7095 13.46C26.3295 13.46 27.5795 13.88 28.4595 14.72C29.3595 15.56 29.8095 16.75 29.8095 18.29V29H28.0095V18.59C28.0095 16.13 26.7595 14.9 24.2595 14.9C23.5995 14.9 22.8695 15.01 22.0695 15.23C21.2895 15.45 20.5195 15.75 19.7595 16.13V29H17.9595ZM45.2494 28.46C43.8694 29.12 42.3894 29.45 40.8094 29.45C38.5094 29.45 36.7394 28.77 35.4994 27.41C34.2594 26.05 33.6394 24.1 33.6394 21.56C33.6394 19.04 34.2194 17.06 35.3794 15.62C36.5394 14.18 38.1294 13.46 40.1494 13.46C41.9294 13.46 43.3294 14.02 44.3494 15.14C45.3894 16.24 45.9094 17.75 45.9094 19.67C45.9094 20.39 45.8494 21.08 45.7294 21.74H35.4094C35.4294 25.92 37.2794 28.01 40.9594 28.01C42.4394 28.01 43.8694 27.69 45.2494 27.05V28.46ZM40.1194 14.87C38.7594 14.87 37.6494 15.37 36.7894 16.37C35.9294 17.37 35.4694 18.71 35.4094 20.39H44.1694C44.2094 20.07 44.2294 19.79 44.2294 19.55C44.2294 18.07 43.8694 16.92 43.1494 16.1C42.4294 15.28 41.4194 14.87 40.1194 14.87ZM59.2223 14.81C59.9823 14.39 60.7523 14.06 61.5323 13.82C62.3323 13.58 63.0723 13.46 63.7523 13.46C65.7123 13.46 67.2523 14.15 68.3723 15.53C69.4923 16.89 70.0523 18.78 70.0523 21.2C70.0523 23.86 69.4123 25.9 68.1323 27.32C66.8723 28.74 65.0423 29.45 62.6423 29.45C60.9423 29.45 59.2023 29.17 57.4223 28.61V6.47L59.2223 6.23V14.81ZM63.5123 14.9C62.8523 14.9 62.1423 15.01 61.3823 15.23C60.6223 15.45 59.9023 15.75 59.2223 16.13V27.53C60.2623 27.85 61.3523 28.01 62.4923 28.01C64.4123 28.01 65.8323 27.46 66.7523 26.36C67.6923 25.24 68.1623 23.53 68.1623 21.23C68.1623 19.17 67.7623 17.6 66.9623 16.52C66.1823 15.44 65.0323 14.9 63.5123 14.9ZM84.7123 28.46C83.3323 29.12 81.8523 29.45 80.2723 29.45C77.9723 29.45 76.2023 28.77 74.9623 27.41C73.7223 26.05 73.1023 24.1 73.1023 21.56C73.1023 19.04 73.6823 17.06 74.8423 15.62C76.0023 14.18 77.5923 13.46 79.6123 13.46C81.3923 13.46 82.7923 14.02 83.8123 15.14C84.8523 16.24 85.3723 17.75 85.3723 19.67C85.3723 20.39 85.3123 21.08 85.1923 21.74H74.8723C74.8923 25.92 76.7423 28.01 80.4223 28.01C81.9023 28.01 83.3323 27.69 84.7123 27.05V28.46ZM79.5823 14.87C78.2223 14.87 77.1123 15.37 76.2523 16.37C75.3923 17.37 74.9323 18.71 74.8723 20.39H83.6323C83.6723 20.07 83.6923 19.79 83.6923 19.55C83.6923 18.07 83.3323 16.92 82.6123 16.1C81.8923 15.28 80.8823 14.87 79.5823 14.87ZM88.2152 27.02C89.7152 27.68 91.2652 28.01 92.8652 28.01C95.5652 28.01 96.9152 26.96 96.9152 24.86C96.9152 24.18 96.7152 23.63 96.3152 23.21C95.9352 22.79 95.2952 22.44 94.3952 22.16L92.1152 21.44C90.8352 21.04 89.9052 20.54 89.3252 19.94C88.7452 19.32 88.4552 18.54 88.4552 17.6C88.4552 16.34 88.9452 15.34 89.9252 14.6C90.9252 13.84 92.2652 13.46 93.9452 13.46C95.3652 13.46 96.7152 13.73 97.9952 14.27V15.68C96.6552 15.16 95.3352 14.9 94.0352 14.9C92.8552 14.9 91.9252 15.14 91.2452 15.62C90.5852 16.08 90.2552 16.72 90.2552 17.54C90.2552 18.12 90.4352 18.59 90.7952 18.95C91.1752 19.29 91.8452 19.62 92.8052 19.94L95.1752 20.72C96.3952 21.12 97.2852 21.65 97.8452 22.31C98.4252 22.97 98.7152 23.81 98.7152 24.83C98.7152 26.31 98.2152 27.45 97.2152 28.25C96.2152 29.05 94.8052 29.45 92.9852 29.45C91.3052 29.45 89.7952 29.14 88.4552 28.52L88.2152 27.02ZM104.818 15.29V24.89C104.818 25.93 105.038 26.7 105.478 27.2C105.918 27.68 106.598 27.92 107.518 27.92C108.118 27.92 108.798 27.81 109.558 27.59V28.91C108.718 29.19 107.948 29.33 107.248 29.33C105.868 29.33 104.818 28.96 104.098 28.22C103.378 27.46 103.018 26.34 103.018 24.86V15.29H100.738V14L103.078 13.91L103.258 10.13L104.818 9.95V13.91H109.348V15.29H104.818ZM121.976 14.81C122.736 14.39 123.506 14.06 124.286 13.82C125.086 13.58 125.826 13.46 126.506 13.46C128.466 13.46 130.006 14.15 131.126 15.53C132.246 16.89 132.806 18.78 132.806 21.2C132.806 23.86 132.166 25.9 130.886 27.32C129.626 28.74 127.796 29.45 125.396 29.45C123.696 29.45 121.956 29.17 120.176 28.61V6.47L121.976 6.23V14.81ZM126.266 14.9C125.606 14.9 124.896 15.01 124.136 15.23C123.376 15.45 122.656 15.75 121.976 16.13V27.53C123.016 27.85 124.106 28.01 125.246 28.01C127.166 28.01 128.586 27.46 129.506 26.36C130.446 25.24 130.916 23.53 130.916 21.23C130.916 19.17 130.516 17.6 129.716 16.52C128.936 15.44 127.786 14.9 126.266 14.9ZM147.466 28.46C146.086 29.12 144.606 29.45 143.026 29.45C140.726 29.45 138.956 28.77 137.716 27.41C136.476 26.05 135.856 24.1 135.856 21.56C135.856 19.04 136.436 17.06 137.596 15.62C138.756 14.18 140.346 13.46 142.366 13.46C144.146 13.46 145.546 14.02 146.566 15.14C147.606 16.24 148.126 17.75 148.126 19.67C148.126 20.39 148.066 21.08 147.946 21.74H137.626C137.646 25.92 139.496 28.01 143.176 28.01C144.656 28.01 146.086 27.69 147.466 27.05V28.46ZM142.336 14.87C140.976 14.87 139.866 15.37 139.006 16.37C138.146 17.37 137.686 18.71 137.626 20.39H146.386C146.426 20.07 146.446 19.79 146.446 19.55C146.446 18.07 146.086 16.92 145.366 16.1C144.646 15.28 143.636 14.87 142.336 14.87ZM163.779 6.23V28.91L162.249 29.06L162.129 28.01C160.429 28.97 158.869 29.45 157.449 29.45C155.489 29.45 153.949 28.77 152.829 27.41C151.709 26.03 151.149 24.13 151.149 21.71C151.149 19.05 151.779 17.01 153.039 15.59C154.319 14.17 156.159 13.46 158.559 13.46C159.799 13.46 160.939 13.62 161.979 13.94V6.47L163.779 6.23ZM157.689 28.01C158.349 28.01 159.059 27.9 159.819 27.68C160.579 27.46 161.299 27.16 161.979 26.78V15.38C160.939 15.06 159.849 14.9 158.709 14.9C156.789 14.9 155.359 15.46 154.419 16.58C153.499 17.68 153.039 19.38 153.039 21.68C153.039 23.74 153.429 25.31 154.209 26.39C155.009 27.47 156.169 28.01 157.689 28.01ZM171.029 15.29V24.89C171.029 25.93 171.249 26.7 171.689 27.2C172.129 27.68 172.809 27.92 173.729 27.92C174.329 27.92 175.009 27.81 175.769 27.59V28.91C174.929 29.19 174.159 29.33 173.459 29.33C172.079 29.33 171.029 28.96 170.309 28.22C169.589 27.46 169.229 26.34 169.229 24.86V15.29H166.949V14L169.289 13.91L169.469 10.13L171.029 9.95V13.91H175.559V15.29H171.029ZM178.887 29V14.06L180.687 13.82V29H178.887ZM179.787 10.25C179.387 10.25 179.057 10.13 178.797 9.89C178.557 9.65 178.437 9.32 178.437 8.9C178.437 8.48 178.557 8.15 178.797 7.91C179.057 7.67 179.387 7.55 179.787 7.55C180.187 7.55 180.507 7.67 180.747 7.91C181.007 8.15 181.137 8.48 181.137 8.9C181.137 9.32 181.007 9.65 180.747 9.89C180.507 10.13 180.187 10.25 179.787 10.25ZM203.773 29V18.29C203.773 16.03 202.703 14.9 200.563 14.9C199.323 14.9 197.903 15.35 196.303 16.25C196.463 16.79 196.543 17.37 196.543 17.99V29H194.743V18.29C194.743 16.03 193.673 14.9 191.533 14.9C190.333 14.9 188.993 15.31 187.513 16.13V29H185.713V14L187.243 13.85L187.363 14.9C189.063 13.94 190.603 13.46 191.983 13.46C193.743 13.46 195.013 14.04 195.793 15.2C197.733 14.04 199.473 13.46 201.013 13.46C202.473 13.46 203.593 13.85 204.373 14.63C205.173 15.41 205.573 16.53 205.573 17.99V29H203.773ZM221.031 28.46C219.651 29.12 218.171 29.45 216.591 29.45C214.291 29.45 212.521 28.77 211.281 27.41C210.041 26.05 209.421 24.1 209.421 21.56C209.421 19.04 210.001 17.06 211.161 15.62C212.321 14.18 213.911 13.46 215.931 13.46C217.711 13.46 219.111 14.02 220.131 15.14C221.171 16.24 221.691 17.75 221.691 19.67C221.691 20.39 221.631 21.08 221.511 21.74H211.191C211.211 25.92 213.061 28.01 216.741 28.01C218.221 28.01 219.651 27.69 221.031 27.05V28.46ZM215.901 14.87C214.541 14.87 213.431 15.37 212.571 16.37C211.711 17.37 211.251 18.71 211.191 20.39H219.951C219.991 20.07 220.011 19.79 220.011 19.55C220.011 18.07 219.651 16.92 218.931 16.1C218.211 15.28 217.201 14.87 215.901 14.87ZM232.034 27.02C233.534 27.68 235.084 28.01 236.684 28.01C239.384 28.01 240.734 26.96 240.734 24.86C240.734 24.18 240.534 23.63 240.134 23.21C239.754 22.79 239.114 22.44 238.214 22.16L235.934 21.44C234.654 21.04 233.724 20.54 233.144 19.94C232.564 19.32 232.274 18.54 232.274 17.6C232.274 16.34 232.764 15.34 233.744 14.6C234.744 13.84 236.084 13.46 237.764 13.46C239.184 13.46 240.534 13.73 241.814 14.27V15.68C240.474 15.16 239.154 14.9 237.854 14.9C236.674 14.9 235.744 15.14 235.064 15.62C234.404 16.08 234.074 16.72 234.074 17.54C234.074 18.12 234.254 18.59 234.614 18.95C234.994 19.29 235.664 19.62 236.624 19.94L238.994 20.72C240.214 21.12 241.104 21.65 241.664 22.31C242.244 22.97 242.534 23.81 242.534 24.83C242.534 26.31 242.034 27.45 241.034 28.25C240.034 29.05 238.624 29.45 236.804 29.45C235.124 29.45 233.614 29.14 232.274 28.52L232.034 27.02ZM248.636 15.29V24.89C248.636 25.93 248.856 26.7 249.296 27.2C249.736 27.68 250.416 27.92 251.336 27.92C251.936 27.92 252.616 27.81 253.376 27.59V28.91C252.536 29.19 251.766 29.33 251.066 29.33C249.686 29.33 248.636 28.96 247.916 28.22C247.196 27.46 246.836 26.34 246.836 24.86V15.29H244.556V14L246.896 13.91L247.076 10.13L248.636 9.95V13.91H253.166V15.29H248.636ZM262.105 29.45C259.925 29.45 258.275 28.78 257.155 27.44C256.055 26.08 255.505 24.08 255.505 21.44C255.505 18.82 256.055 16.84 257.155 15.5C258.275 14.14 259.925 13.46 262.105 13.46C264.285 13.46 265.925 14.14 267.025 15.5C268.145 16.84 268.705 18.82 268.705 21.44C268.705 24.08 268.145 26.08 267.025 27.44C265.925 28.78 264.285 29.45 262.105 29.45ZM262.105 28.01C263.745 28.01 264.935 27.49 265.675 26.45C266.435 25.39 266.815 23.72 266.815 21.44C266.815 19.18 266.435 17.53 265.675 16.49C264.935 15.43 263.745 14.9 262.105 14.9C260.465 14.9 259.265 15.43 258.505 16.49C257.765 17.53 257.395 19.18 257.395 21.44C257.395 23.72 257.765 25.39 258.505 26.45C259.265 27.49 260.465 28.01 262.105 28.01ZM272.754 29V14L274.284 13.85L274.434 15.2C275.774 14.1 277.204 13.55 278.724 13.55C279.264 13.55 279.694 13.61 280.014 13.73V15.2C279.494 15.08 279.034 15.02 278.634 15.02C277.214 15.02 275.854 15.53 274.554 16.55V29H272.754ZM281.759 34.19C283.179 33.93 284.289 33.43 285.089 32.69C285.889 31.95 286.629 30.77 287.309 29.15L281.549 13.91H283.439L288.149 27.14L293.009 13.91H294.809L289.049 28.85C288.509 30.29 287.939 31.46 287.339 32.36C286.759 33.28 286.069 34 285.269 34.52C284.469 35.06 283.429 35.47 282.149 35.75L281.759 34.19ZM300.659 23C300.659 21.74 300.859 20.66 301.259 19.76C301.659 18.86 302.319 17.99 303.239 17.15C304.219 16.27 304.869 15.56 305.189 15.02C305.509 14.46 305.669 13.82 305.669 13.1C305.669 11.96 305.289 11.08 304.529 10.46C303.789 9.82 302.759 9.5 301.439 9.5C299.739 9.5 298.059 10.11 296.399 11.33V9.83C297.199 9.25 298.059 8.8 298.979 8.48C299.919 8.16 300.859 8 301.799 8C303.499 8 304.869 8.46 305.909 9.38C306.969 10.28 307.499 11.48 307.499 12.98C307.499 13.84 307.279 14.63 306.839 15.35C306.399 16.07 305.559 16.98 304.319 18.08C303.519 18.78 302.939 19.5 302.579 20.24C302.239 20.98 302.059 21.9 302.039 23H300.659ZM301.349 29.15C300.949 29.15 300.619 29.03 300.359 28.79C300.099 28.53 299.969 28.19 299.969 27.77C299.969 27.35 300.099 27.02 300.359 26.78C300.619 26.52 300.949 26.39 301.349 26.39C301.749 26.39 302.079 26.52 302.339 26.78C302.599 27.02 302.729 27.35 302.729 27.77C302.729 28.19 302.599 28.53 302.339 28.79C302.079 29.03 301.749 29.15 301.349 29.15ZM16.05 44H17.88V65H16.08L4.8 47.12V65H2.97V44H4.77L16.05 61.88V44ZM28.9894 65.45C26.8094 65.45 25.1594 64.78 24.0394 63.44C22.9394 62.08 22.3894 60.08 22.3894 57.44C22.3894 54.82 22.9394 52.84 24.0394 51.5C25.1594 50.14 26.8094 49.46 28.9894 49.46C31.1694 49.46 32.8094 50.14 33.9094 51.5C35.0294 52.84 35.5894 54.82 35.5894 57.44C35.5894 60.08 35.0294 62.08 33.9094 63.44C32.8094 64.78 31.1694 65.45 28.9894 65.45ZM28.9894 64.01C30.6294 64.01 31.8194 63.49 32.5594 62.45C33.3194 61.39 33.6994 59.72 33.6994 57.44C33.6994 55.18 33.3194 53.53 32.5594 52.49C31.8194 51.43 30.6294 50.9 28.9894 50.9C27.3494 50.9 26.1494 51.43 25.3894 52.49C24.6494 53.53 24.2794 55.18 24.2794 57.44C24.2794 59.72 24.6494 61.39 25.3894 62.45C26.1494 63.49 27.3494 64.01 28.9894 64.01ZM47.5591 65V51.29H45.2791V50L47.5591 49.91V46.52C47.5591 45.04 47.9191 43.91 48.6391 43.13C49.3791 42.33 50.4491 41.93 51.8491 41.93C52.6091 41.93 53.3791 42.07 54.1591 42.35V43.67C53.4391 43.45 52.7491 43.34 52.0891 43.34C51.1491 43.34 50.4591 43.59 50.0191 44.09C49.5791 44.57 49.3591 45.33 49.3591 46.37V49.91H53.4091V51.29H49.3591V65H47.5591ZM67.0755 64.46C65.6955 65.12 64.2155 65.45 62.6355 65.45C60.3355 65.45 58.5655 64.77 57.3255 63.41C56.0855 62.05 55.4655 60.1 55.4655 57.56C55.4655 55.04 56.0455 53.06 57.2055 51.62C58.3655 50.18 59.9555 49.46 61.9755 49.46C63.7555 49.46 65.1555 50.02 66.1755 51.14C67.2155 52.24 67.7355 53.75 67.7355 55.67C67.7355 56.39 67.6755 57.08 67.5555 57.74H57.2355C57.2555 61.92 59.1055 64.01 62.7855 64.01C64.2655 64.01 65.6955 63.69 67.0755 63.05V64.46ZM61.9455 50.87C60.5855 50.87 59.4755 51.37 58.6155 52.37C57.7555 53.37 57.2955 54.71 57.2355 56.39H65.9955C66.0355 56.07 66.0555 55.79 66.0555 55.55C66.0555 54.07 65.6955 52.92 64.9755 52.1C64.2555 51.28 63.2455 50.87 61.9455 50.87ZM82.3685 64.46C80.9885 65.12 79.5085 65.45 77.9285 65.45C75.6285 65.45 73.8585 64.77 72.6185 63.41C71.3785 62.05 70.7585 60.1 70.7585 57.56C70.7585 55.04 71.3385 53.06 72.4985 51.62C73.6585 50.18 75.2485 49.46 77.2685 49.46C79.0485 49.46 80.4485 50.02 81.4685 51.14C82.5085 52.24 83.0285 53.75 83.0285 55.67C83.0285 56.39 82.9685 57.08 82.8485 57.74H72.5285C72.5485 61.92 74.3985 64.01 78.0785 64.01C79.5585 64.01 80.9885 63.69 82.3685 63.05V64.46ZM77.2385 50.87C75.8785 50.87 74.7685 51.37 73.9085 52.37C73.0485 53.37 72.5885 54.71 72.5285 56.39H81.2885C81.3285 56.07 81.3485 55.79 81.3485 55.55C81.3485 54.07 80.9885 52.92 80.2685 52.1C79.5485 51.28 78.5385 50.87 77.2385 50.87ZM85.8715 63.02C87.3715 63.68 88.9215 64.01 90.5215 64.01C93.2215 64.01 94.5715 62.96 94.5715 60.86C94.5715 60.18 94.3715 59.63 93.9715 59.21C93.5915 58.79 92.9515 58.44 92.0515 58.16L89.7715 57.44C88.4915 57.04 87.5615 56.54 86.9815 55.94C86.4015 55.32 86.1115 54.54 86.1115 53.6C86.1115 52.34 86.6015 51.34 87.5815 50.6C88.5815 49.84 89.9215 49.46 91.6015 49.46C93.0215 49.46 94.3715 49.73 95.6515 50.27V51.68C94.3115 51.16 92.9915 50.9 91.6915 50.9C90.5115 50.9 89.5815 51.14 88.9015 51.62C88.2415 52.08 87.9115 52.72 87.9115 53.54C87.9115 54.12 88.0915 54.59 88.4515 54.95C88.8315 55.29 89.5015 55.62 90.4615 55.94L92.8315 56.72C94.0515 57.12 94.9415 57.65 95.5015 58.31C96.0815 58.97 96.3715 59.81 96.3715 60.83C96.3715 62.31 95.8715 63.45 94.8715 64.25C93.8715 65.05 92.4615 65.45 90.6415 65.45C88.9615 65.45 87.4515 65.14 86.1115 64.52L85.8715 63.02ZM113.364 65.45C111.184 65.45 109.534 64.78 108.414 63.44C107.314 62.08 106.764 60.08 106.764 57.44C106.764 54.82 107.314 52.84 108.414 51.5C109.534 50.14 111.184 49.46 113.364 49.46C115.544 49.46 117.184 50.14 118.284 51.5C119.404 52.84 119.964 54.82 119.964 57.44C119.964 60.08 119.404 62.08 118.284 63.44C117.184 64.78 115.544 65.45 113.364 65.45ZM113.364 64.01C115.004 64.01 116.194 63.49 116.934 62.45C117.694 61.39 118.074 59.72 118.074 57.44C118.074 55.18 117.694 53.53 116.934 52.49C116.194 51.43 115.004 50.9 113.364 50.9C111.724 50.9 110.524 51.43 109.764 52.49C109.024 53.53 108.654 55.18 108.654 57.44C108.654 59.72 109.024 61.39 109.764 62.45C110.524 63.49 111.724 64.01 113.364 64.01ZM124.014 65V50L125.544 49.85L125.694 51.2C127.034 50.1 128.464 49.55 129.984 49.55C130.524 49.55 130.954 49.61 131.274 49.73V51.2C130.754 51.08 130.294 51.02 129.894 51.02C128.474 51.02 127.114 51.53 125.814 52.55V65H124.014ZM159.887 65V54.29C159.887 52.03 158.817 50.9 156.677 50.9C155.437 50.9 154.017 51.35 152.417 52.25C152.577 52.79 152.657 53.37 152.657 53.99V65H150.857V54.29C150.857 52.03 149.787 50.9 147.647 50.9C146.447 50.9 145.107 51.31 143.627 52.13V65H141.827V50L143.357 49.85L143.477 50.9C145.177 49.94 146.717 49.46 148.097 49.46C149.857 49.46 151.127 50.04 151.907 51.2C153.847 50.04 155.587 49.46 157.127 49.46C158.587 49.46 159.707 49.85 160.487 50.63C161.287 51.41 161.687 52.53 161.687 53.99V65H159.887ZM166.524 65V50.06L168.324 49.82V65H166.524ZM167.424 46.25C167.024 46.25 166.694 46.13 166.434 45.89C166.194 45.65 166.074 45.32 166.074 44.9C166.074 44.48 166.194 44.15 166.434 43.91C166.694 43.67 167.024 43.55 167.424 43.55C167.824 43.55 168.144 43.67 168.384 43.91C168.644 44.15 168.774 44.48 168.774 44.9C168.774 45.32 168.644 45.65 168.384 45.89C168.144 46.13 167.824 46.25 167.424 46.25ZM183.4 65V54.59C183.4 52.13 182.15 50.9 179.65 50.9C178.99 50.9 178.26 51.01 177.46 51.23C176.68 51.45 175.91 51.75 175.15 52.13V65H173.35V50L174.88 49.85L175 50.9C176.74 49.94 178.44 49.46 180.1 49.46C181.72 49.46 182.97 49.88 183.85 50.72C184.75 51.56 185.2 52.75 185.2 54.29V65H183.4ZM190.02 65V50.06L191.82 49.82V65H190.02ZM190.92 46.25C190.52 46.25 190.19 46.13 189.93 45.89C189.69 45.65 189.57 45.32 189.57 44.9C189.57 44.48 189.69 44.15 189.93 43.91C190.19 43.67 190.52 43.55 190.92 43.55C191.32 43.55 191.64 43.67 191.88 43.91C192.14 44.15 192.27 44.48 192.27 44.9C192.27 45.32 192.14 45.65 191.88 45.89C191.64 46.13 191.32 46.25 190.92 46.25ZM214.906 65V54.29C214.906 52.03 213.836 50.9 211.696 50.9C210.456 50.9 209.036 51.35 207.436 52.25C207.596 52.79 207.676 53.37 207.676 53.99V65H205.876V54.29C205.876 52.03 204.806 50.9 202.666 50.9C201.466 50.9 200.126 51.31 198.646 52.13V65H196.846V50L198.376 49.85L198.496 50.9C200.196 49.94 201.736 49.46 203.116 49.46C204.876 49.46 206.146 50.04 206.926 51.2C208.866 50.04 210.606 49.46 212.146 49.46C213.606 49.46 214.726 49.85 215.506 50.63C216.306 51.41 216.706 52.53 216.706 53.99V65H214.906ZM223.133 49.91V60.32C223.133 62.78 224.343 64.01 226.763 64.01C227.423 64.01 228.143 63.9 228.923 63.68C229.723 63.46 230.503 63.16 231.263 62.78V49.91H233.063V64.91L231.533 65.06L231.413 64.01C229.673 64.97 227.973 65.45 226.313 65.45C224.733 65.45 223.503 65.03 222.623 64.19C221.763 63.33 221.333 62.14 221.333 60.62V49.91H223.133ZM256.156 65V54.29C256.156 52.03 255.086 50.9 252.946 50.9C251.706 50.9 250.286 51.35 248.686 52.25C248.846 52.79 248.926 53.37 248.926 53.99V65H247.126V54.29C247.126 52.03 246.056 50.9 243.916 50.9C242.716 50.9 241.376 51.31 239.896 52.13V65H238.096V50L239.626 49.85L239.746 50.9C241.446 49.94 242.986 49.46 244.366 49.46C246.126 49.46 247.396 50.04 248.176 51.2C250.116 50.04 251.856 49.46 253.396 49.46C254.856 49.46 255.976 49.85 256.756 50.63C257.556 51.41 257.956 52.53 257.956 53.99V65H256.156ZM261.623 63.02C263.123 63.68 264.673 64.01 266.273 64.01C268.973 64.01 270.323 62.96 270.323 60.86C270.323 60.18 270.123 59.63 269.723 59.21C269.343 58.79 268.703 58.44 267.803 58.16L265.523 57.44C264.243 57.04 263.313 56.54 262.733 55.94C262.153 55.32 261.863 54.54 261.863 53.6C261.863 52.34 262.353 51.34 263.333 50.6C264.333 49.84 265.673 49.46 267.353 49.46C268.773 49.46 270.123 49.73 271.403 50.27V51.68C270.063 51.16 268.743 50.9 267.443 50.9C266.263 50.9 265.333 51.14 264.653 51.62C263.993 52.08 263.663 52.72 263.663 53.54C263.663 54.12 263.843 54.59 264.203 54.95C264.583 55.29 265.253 55.62 266.213 55.94L268.583 56.72C269.803 57.12 270.693 57.65 271.253 58.31C271.833 58.97 272.123 59.81 272.123 60.83C272.123 62.31 271.623 63.45 270.623 64.25C269.623 65.05 268.213 65.45 266.393 65.45C264.713 65.45 263.203 65.14 261.863 64.52L261.623 63.02ZM289.116 65.45C286.936 65.45 285.286 64.78 284.166 63.44C283.066 62.08 282.516 60.08 282.516 57.44C282.516 54.82 283.066 52.84 284.166 51.5C285.286 50.14 286.936 49.46 289.116 49.46C291.296 49.46 292.936 50.14 294.036 51.5C295.156 52.84 295.716 54.82 295.716 57.44C295.716 60.08 295.156 62.08 294.036 63.44C292.936 64.78 291.296 65.45 289.116 65.45ZM289.116 64.01C290.756 64.01 291.946 63.49 292.686 62.45C293.446 61.39 293.826 59.72 293.826 57.44C293.826 55.18 293.446 53.53 292.686 52.49C291.946 51.43 290.756 50.9 289.116 50.9C287.476 50.9 286.276 51.43 285.516 52.49C284.776 53.53 284.406 55.18 284.406 57.44C284.406 59.72 284.776 61.39 285.516 62.45C286.276 63.49 287.476 64.01 289.116 64.01ZM309.816 65V54.59C309.816 52.13 308.566 50.9 306.066 50.9C305.406 50.9 304.676 51.01 303.876 51.23C303.096 51.45 302.326 51.75 301.566 52.13V65H299.766V50L301.296 49.85L301.416 50.9C303.156 49.94 304.856 49.46 306.516 49.46C308.136 49.46 309.386 49.88 310.266 50.72C311.166 51.56 311.616 52.75 311.616 54.29V65H309.816ZM12.48 100.46C11.16 101.12 9.72 101.45 8.16 101.45C6.04 101.45 4.4 100.76 3.24 99.38C2.1 98 1.53 96.03 1.53 93.47C1.53 90.91 2.1 88.94 3.24 87.56C4.4 86.16 6.04 85.46 8.16 85.46C9.66 85.46 11.08 85.79 12.42 86.45V87.86C11.02 87.24 9.66 86.93 8.34 86.93C6.72 86.93 5.49 87.48 4.65 88.58C3.83 89.68 3.42 91.31 3.42 93.47C3.42 95.61 3.83 97.23 4.65 98.33C5.49 99.43 6.72 99.98 8.34 99.98C9.7 99.98 11.08 99.67 12.48 99.05V100.46ZM16.3481 101V78.47L18.1481 78.23V86.84C19.8281 85.92 21.4781 85.46 23.0981 85.46C24.7181 85.46 25.9681 85.88 26.8481 86.72C27.7481 87.56 28.1981 88.75 28.1981 90.29V101H26.3981V90.59C26.3981 88.13 25.1481 86.9 22.6481 86.9C21.9881 86.9 21.2581 87.01 20.4581 87.23C19.6781 87.45 18.9081 87.75 18.1481 88.13V101H16.3481ZM43.638 100.46C42.258 101.12 40.778 101.45 39.198 101.45C36.898 101.45 35.128 100.77 33.888 99.41C32.648 98.05 32.028 96.1 32.028 93.56C32.028 91.04 32.608 89.06 33.768 87.62C34.928 86.18 36.518 85.46 38.538 85.46C40.318 85.46 41.718 86.02 42.738 87.14C43.778 88.24 44.298 89.75 44.298 91.67C44.298 92.39 44.238 93.08 44.118 93.74H33.798C33.818 97.92 35.668 100.01 39.348 100.01C40.828 100.01 42.258 99.69 43.638 99.05V100.46ZM38.508 86.87C37.148 86.87 36.038 87.37 35.178 88.37C34.318 89.37 33.858 90.71 33.798 92.39H42.558C42.598 92.07 42.618 91.79 42.618 91.55C42.618 90.07 42.258 88.92 41.538 88.1C40.818 87.28 39.808 86.87 38.508 86.87ZM58.271 100.46C56.951 101.12 55.511 101.45 53.951 101.45C51.831 101.45 50.191 100.76 49.031 99.38C47.891 98 47.321 96.03 47.321 93.47C47.321 90.91 47.891 88.94 49.031 87.56C50.191 86.16 51.831 85.46 53.951 85.46C55.451 85.46 56.871 85.79 58.211 86.45V87.86C56.811 87.24 55.451 86.93 54.131 86.93C52.511 86.93 51.281 87.48 50.441 88.58C49.621 89.68 49.211 91.31 49.211 93.47C49.211 95.61 49.621 97.23 50.441 98.33C51.281 99.43 52.511 99.98 54.131 99.98C55.491 99.98 56.871 99.67 58.271 99.05V100.46ZM62.1391 101V78.47L63.9391 78.23V92.6L71.0191 85.91H73.1491L65.7391 92.93L73.3891 101H71.1091L63.9391 93.38V101H62.1391ZM75.938 101V86.06L77.738 85.82V101H75.938ZM76.838 82.25C76.438 82.25 76.108 82.13 75.848 81.89C75.608 81.65 75.488 81.32 75.488 80.9C75.488 80.48 75.608 80.15 75.848 79.91C76.108 79.67 76.438 79.55 76.838 79.55C77.238 79.55 77.558 79.67 77.798 79.91C78.058 80.15 78.188 80.48 78.188 80.9C78.188 81.32 78.058 81.65 77.798 81.89C77.558 82.13 77.238 82.25 76.838 82.25ZM92.8141 101V90.59C92.8141 88.13 91.5641 86.9 89.0641 86.9C88.4041 86.9 87.6741 87.01 86.8741 87.23C86.0941 87.45 85.3241 87.75 84.5641 88.13V101H82.7641V86L84.2941 85.85L84.4141 86.9C86.1541 85.94 87.8541 85.46 89.5141 85.46C91.1341 85.46 92.3841 85.88 93.2641 86.72C94.1641 87.56 94.6141 88.75 94.6141 90.29V101H92.8141ZM104.354 107.99C102.574 107.99 101.064 107.68 99.8241 107.06L99.5841 105.53C101.224 106.21 102.784 106.55 104.264 106.55C107.604 106.55 109.274 105 109.274 101.9V99.83C108.514 100.25 107.734 100.58 106.934 100.82C106.154 101.06 105.424 101.18 104.744 101.18C102.784 101.18 101.244 100.52 100.124 99.2C99.0041 97.88 98.4441 96.05 98.4441 93.71C98.4441 91.05 99.0741 89.01 100.334 87.59C101.614 86.17 103.454 85.46 105.854 85.46C107.674 85.46 109.414 85.78 111.074 86.42V101.75C111.074 103.75 110.494 105.29 109.334 106.37C108.174 107.45 106.514 107.99 104.354 107.99ZM104.984 99.74C105.644 99.74 106.354 99.63 107.114 99.41C107.874 99.19 108.594 98.89 109.274 98.51V87.38C108.234 87.06 107.144 86.9 106.004 86.9C104.084 86.9 102.654 87.46 101.714 88.58C100.794 89.68 100.334 91.38 100.334 93.68C100.334 95.66 100.724 97.17 101.504 98.21C102.304 99.23 103.464 99.74 104.984 99.74ZM132.844 101.06L132.724 100.01C131.004 100.97 129.304 101.45 127.624 101.45C126.084 101.45 124.864 101.05 123.964 100.25C123.064 99.43 122.614 98.31 122.614 96.89C122.614 95.39 123.114 94.25 124.114 93.47C125.134 92.67 126.624 92.27 128.584 92.27C129.764 92.27 131.104 92.41 132.604 92.69V90.65C132.604 88.15 131.194 86.9 128.374 86.9C127.634 86.9 126.824 87 125.944 87.2C125.064 87.4 124.254 87.66 123.514 87.98V86.57C124.234 86.23 125.054 85.96 125.974 85.76C126.914 85.56 127.804 85.46 128.644 85.46C130.524 85.46 131.944 85.91 132.904 86.81C133.884 87.69 134.374 88.97 134.374 90.65V100.91L132.844 101.06ZM128.044 100.01C128.764 100.01 129.524 99.9 130.324 99.68C131.124 99.46 131.884 99.16 132.604 98.78V93.98C131.344 93.74 130.104 93.62 128.884 93.62C127.344 93.62 126.224 93.88 125.524 94.4C124.824 94.92 124.474 95.74 124.474 96.86C124.474 98.96 125.664 100.01 128.044 100.01ZM149.15 100.46C147.83 101.12 146.39 101.45 144.83 101.45C142.71 101.45 141.07 100.76 139.91 99.38C138.77 98 138.2 96.03 138.2 93.47C138.2 90.91 138.77 88.94 139.91 87.56C141.07 86.16 142.71 85.46 144.83 85.46C146.33 85.46 147.75 85.79 149.09 86.45V87.86C147.69 87.24 146.33 86.93 145.01 86.93C143.39 86.93 142.16 87.48 141.32 88.58C140.5 89.68 140.09 91.31 140.09 93.47C140.09 95.61 140.5 97.23 141.32 98.33C142.16 99.43 143.39 99.98 145.01 99.98C146.37 99.98 147.75 99.67 149.15 99.05V100.46ZM162.685 100.46C161.365 101.12 159.925 101.45 158.365 101.45C156.245 101.45 154.605 100.76 153.445 99.38C152.305 98 151.735 96.03 151.735 93.47C151.735 90.91 152.305 88.94 153.445 87.56C154.605 86.16 156.245 85.46 158.365 85.46C159.865 85.46 161.285 85.79 162.625 86.45V87.86C161.225 87.24 159.865 86.93 158.545 86.93C156.925 86.93 155.695 87.48 154.855 88.58C154.035 89.68 153.625 91.31 153.625 93.47C153.625 95.61 154.035 97.23 154.855 98.33C155.695 99.43 156.925 99.98 158.545 99.98C159.905 99.98 161.285 99.67 162.685 99.05V100.46ZM171.87 101.45C169.69 101.45 168.04 100.78 166.92 99.44C165.82 98.08 165.27 96.08 165.27 93.44C165.27 90.82 165.82 88.84 166.92 87.5C168.04 86.14 169.69 85.46 171.87 85.46C174.05 85.46 175.69 86.14 176.79 87.5C177.91 88.84 178.47 90.82 178.47 93.44C178.47 96.08 177.91 98.08 176.79 99.44C175.69 100.78 174.05 101.45 171.87 101.45ZM171.87 100.01C173.51 100.01 174.7 99.49 175.44 98.45C176.2 97.39 176.58 95.72 176.58 93.44C176.58 91.18 176.2 89.53 175.44 88.49C174.7 87.43 173.51 86.9 171.87 86.9C170.23 86.9 169.03 87.43 168.27 88.49C167.53 89.53 167.16 91.18 167.16 93.44C167.16 95.72 167.53 97.39 168.27 98.45C169.03 99.49 170.23 100.01 171.87 100.01ZM184.11 85.91V96.32C184.11 98.78 185.32 100.01 187.74 100.01C188.4 100.01 189.12 99.9 189.9 99.68C190.7 99.46 191.48 99.16 192.24 98.78V85.91H194.04V100.91L192.51 101.06L192.39 100.01C190.65 100.97 188.95 101.45 187.29 101.45C185.71 101.45 184.48 101.03 183.6 100.19C182.74 99.33 182.31 98.14 182.31 96.62V85.91H184.11ZM209.123 101V90.59C209.123 88.13 207.873 86.9 205.373 86.9C204.713 86.9 203.983 87.01 203.183 87.23C202.403 87.45 201.633 87.75 200.873 88.13V101H199.073V86L200.603 85.85L200.723 86.9C202.463 85.94 204.163 85.46 205.823 85.46C207.443 85.46 208.693 85.88 209.573 86.72C210.473 87.56 210.923 88.75 210.923 90.29V101H209.123ZM217.963 87.29V96.89C217.963 97.93 218.183 98.7 218.623 99.2C219.063 99.68 219.743 99.92 220.663 99.92C221.263 99.92 221.943 99.81 222.703 99.59V100.91C221.863 101.19 221.093 101.33 220.393 101.33C219.013 101.33 217.963 100.96 217.243 100.22C216.523 99.46 216.163 98.34 216.163 96.86V87.29H213.883V86L216.223 85.91L216.403 82.13L217.963 81.95V85.91H222.493V87.29H217.963ZM224.651 99.02C226.151 99.68 227.701 100.01 229.301 100.01C232.001 100.01 233.351 98.96 233.351 96.86C233.351 96.18 233.151 95.63 232.751 95.21C232.371 94.79 231.731 94.44 230.831 94.16L228.551 93.44C227.271 93.04 226.341 92.54 225.761 91.94C225.181 91.32 224.891 90.54 224.891 89.6C224.891 88.34 225.381 87.34 226.361 86.6C227.361 85.84 228.701 85.46 230.381 85.46C231.801 85.46 233.151 85.73 234.431 86.27V87.68C233.091 87.16 231.771 86.9 230.471 86.9C229.291 86.9 228.361 87.14 227.681 87.62C227.021 88.08 226.691 88.72 226.691 89.54C226.691 90.12 226.871 90.59 227.231 90.95C227.611 91.29 228.281 91.62 229.241 91.94L231.611 92.72C232.831 93.12 233.721 93.65 234.281 94.31C234.861 94.97 235.151 95.81 235.151 96.83C235.151 98.31 234.651 99.45 233.651 100.25C232.651 101.05 231.241 101.45 229.421 101.45C227.741 101.45 226.231 101.14 224.891 100.52L224.651 99.02ZM239.604 101.15C239.204 101.15 238.874 101.03 238.614 100.79C238.354 100.53 238.224 100.19 238.224 99.77C238.224 99.35 238.354 99.02 238.614 98.78C238.874 98.52 239.204 98.39 239.604 98.39C240.004 98.39 240.334 98.52 240.594 98.78C240.854 99.02 240.984 99.35 240.984 99.77C240.984 100.19 240.854 100.53 240.594 100.79C240.334 101.03 240.004 101.15 239.604 101.15Z" fill="#013D5B"/>
</g>
<defs>
<clipPath id="clip0_11097_3615">
<rect width="316" height="34" fill="white"/>
</clipPath>
</defs>
</svg>
